<svg xmlns="http://www.w3.org/2000/svg" xmlns:xlink="http://www.w3.org/1999/xlink" width="218.138" height="175.829" viewBox="0 0 218.138 175.829">
  <defs>
    <clipPath id="clip-path">
      <rect id="Rectángulo_322104" data-name="Rectángulo 322104" width="218.138" height="175.829" transform="translate(26.017 14.173)" fill="none"/>
    </clipPath>
  </defs>
  <g id="Grupo_254612" data-name="Grupo 254612" transform="translate(-206.017 -515.173)">
    <g id="Grupo_261797" data-name="Grupo 261797">
      <g id="Grupo_261796" data-name="Grupo 261796">
        <g id="Grupo_261798" data-name="Grupo 261798">
          <g id="Grupo_254599" data-name="Grupo 254599" transform="translate(180 501)" opacity="0.52">
            <g id="Grupo_254598" data-name="Grupo 254598">
              <g id="Grupo_254597" data-name="Grupo 254597" clip-path="url(#clip-path)">
                <path id="Trazado_272483" data-name="Trazado 272483" d="M234.843,190H35.33a9.312,9.312,0,0,1-9.312-9.312V23.485a9.312,9.312,0,0,1,9.312-9.312H234.843a9.312,9.312,0,0,1,9.312,9.312V180.69A9.312,9.312,0,0,1,234.843,190" fill="#e2e8ec"/>
              </g>
            </g>
          </g>
        </g>
      </g>
    </g>
    <path id="Trazado_272486" data-name="Trazado 272486" d="M129.473,30.28H164.8a3.477,3.477,0,0,0-.748,1.929,15.929,15.929,0,0,1-5.158,9.527,33.222,33.222,0,0,0-12.806-2.165,47.626,47.626,0,0,0-6.563.929c-1.474.355-2.881,1.044-4.447,1a15.471,15.471,0,0,1-4.751-8.451,8.444,8.444,0,0,0-.852-2.767" transform="translate(180 501)" fill="#fefefe"/>
    <path id="Trazado_272487" data-name="Trazado 272487" d="M129.473,30.28a8.444,8.444,0,0,1,.852,2.767,15.471,15.471,0,0,0,4.751,8.451c-.044.692-.693.611-1.088.864-1.109.708-2.643.74-3.345,2.1a4.1,4.1,0,0,0-1.748.755,29.033,29.033,0,0,0-2.574,2.5c-3.4-4.7-2.776-12.509,1.317-16.627.252-.254.644-.394.714-.811Z" transform="translate(180 501)" fill="#b29678"/>
    <path id="Trazado_272488" data-name="Trazado 272488" d="M158.891,41.736a15.924,15.924,0,0,0,5.158-9.527,3.484,3.484,0,0,1,.748-1.929h.841c4.195,3.437,5.624,9.741,3.443,15.216-.291.73-.611,1.447-.918,2.171-1.313-.912-2.082-2.469-3.648-3.082l-.278-.039a25.328,25.328,0,0,0-5.346-2.81" transform="translate(180 501)" fill="#b29678"/>
    <path id="Trazado_272489" data-name="Trazado 272489" d="M99.98,170.776c-7.34-2.491-13.184-6.862-17-13.7a32.488,32.488,0,0,1-3.931-16.931,30.931,30.931,0,0,1,.636-5.109,2.492,2.492,0,0,0-.361-1.962A12.68,12.68,0,0,0,69.472,127c-.213-.025-.464.084-.68-.236a21.887,21.887,0,0,1,5.51-4.581,45.632,45.632,0,0,1,5.612-2.83c4.488-1.951,7.9.537,9.563,3.757a1.808,1.808,0,0,0,2.489,1.1c7.853-1.93,15.725-3.781,23.6-5.637a1.135,1.135,0,0,0,1.035-1.36,9.43,9.43,0,0,1,.447-3.161c.9-3.224,3.119-4.925,7.113-5.231a31.048,31.048,0,0,1,12,1.375,8.91,8.91,0,0,1,.887.415,13.965,13.965,0,0,0-4.464,3.873,11.9,11.9,0,0,0-2.29,6.911,2.429,2.429,0,0,0,.324,1.336,4.611,4.611,0,0,0,.181,1.372c1.314,5.751,2.614,11.5,1.776,17.479-.476,3.394-1.21,6.646-3.379,9.458-.921,1.194-2.085,2.1-3.088,3.179-.086,0-.172,0-.258,0a12.451,12.451,0,0,0-4.753-2.262,21.408,21.408,0,0,0-12.611.728c-4.013,1.415-7.647,3.489-9.892,7.334A7.9,7.9,0,0,0,97.5,166.53c.115,1.831,1.571,2.879,2.48,4.246m26.648-30.943a2.7,2.7,0,1,0,2.721,2.625,2.7,2.7,0,0,0-2.721-2.625m-34.374,8.194a2.737,2.737,0,0,0-2.748,2.748,2.722,2.722,0,0,0,5.44.063,2.764,2.764,0,0,0-2.692-2.811m29.612-27.844c.024.821-.116,1.751.917,1.971a1.14,1.14,0,0,0,1.278-1.051,7.234,7.234,0,0,1,3.532-5.841.97.97,0,0,0,.259-1.472,1.092,1.092,0,0,0-1.6-.307,8.6,8.6,0,0,0-4.388,6.7m-41.831,4.571c-.834-.034-1.689-.022-1.829,1.038a1.011,1.011,0,0,0,1.083,1.186c2.453,0,4.069,1.36,5.382,3.225.469.667,1.105,1.008,1.78.561s.551-1.255.159-1.871a8.465,8.465,0,0,0-6.575-4.139" transform="translate(180 501)" fill="#fdc3b8"/>
    <path id="Trazado_272490" data-name="Trazado 272490" d="M164.238,44.547l.277.038c.063.411.09.831.193,1.231A48.265,48.265,0,0,1,165.942,64,48.96,48.96,0,0,1,161.7,78.512a53.1,53.1,0,0,1-8.412,12.94,13.833,13.833,0,0,0-16.777,3.6c-1.608-.538-2.156-2.1-3.023-3.29a52,52,0,0,1-8.044-16.515,5.837,5.837,0,0,1-.173-1.508c.275.035.556.048.826.11a16.05,16.05,0,0,0,12.344-2.071c5.619-3.44,8.221-9.485,6.685-15.408a16.343,16.343,0,0,0-14.479-11.908c.7-1.355,2.236-1.388,3.345-2.1.395-.252,1.044-.172,1.088-.864,1.565.046,2.973-.643,4.447-1a47.6,47.6,0,0,1,6.563-.929A8.6,8.6,0,0,0,146.169,44,9.474,9.474,0,0,0,154.5,51.02c4.45.263,8.021-2.111,9.74-6.473m-2.632,21.661a2.63,2.63,0,0,0,2.755-2.549,2.7,2.7,0,0,0-2.667-2.806,2.763,2.763,0,0,0-2.71,2.649,2.681,2.681,0,0,0,2.622,2.706" transform="translate(180 501)" fill="#e6f1f0"/>
    <path id="Trazado_272491" data-name="Trazado 272491" d="M195.6,121.672l.319.262a5.776,5.776,0,0,0,.488,1.88c1.224,4.208,2.089,8.406,1.542,12.884-.908,7.436-7.283,12.64-14.441,13.551.142-.344.3-.684.424-1.034a4.664,4.664,0,1,0-8.966-2.491c-.342,2.364-.381,4.766,1.065,6.893-2.072-.251-3.552-1.643-4.965-2.907a18.8,18.8,0,0,1-6.3-12.065,19.066,19.066,0,0,1,14.652-20.889,27,27,0,0,0,1.073,8.4,10.883,10.883,0,0,0,2.128,4.2c.713.781,1.361.74,1.825-.261.391-.843.7-1.727,1.128-2.548a3.548,3.548,0,0,1,4.367-2.116,3.7,3.7,0,0,0,3.876-1.274,28.878,28.878,0,0,0,1.784-2.48m-3.789,16.053a2.739,2.739,0,0,0-.013,5.478,2.739,2.739,0,0,0,.013-5.478m-21.735-1.389a2.653,2.653,0,0,0,2.713,2.742,2.7,2.7,0,1,0-.058-5.391,2.622,2.622,0,0,0-2.655,2.649" transform="translate(180 501)" fill="#e6f1f0"/>
    <path id="Trazado_272492" data-name="Trazado 272492" d="M75.365,107.9c-7.06-.73-13.519-6.93-14.852-14.255A17.836,17.836,0,0,1,68.743,75a1.43,1.43,0,0,0,.829-1.571c-.25-1.894-.418-3.8-.664-5.7-.116-.9.141-1.088.947-.695a8.341,8.341,0,0,1,2.7,1.969c.545.627.755.422,1.011-.218.375-.939.818-1.85,1.285-2.889a14.033,14.033,0,0,1,2.1,5.2c.176,1,.487,1.256,1.492,1.279A17.182,17.182,0,0,1,89.693,76.7a5.938,5.938,0,0,0,.028,1.246,37.082,37.082,0,0,1,.8,7.968c.031,2.141-.488,4.212-.585,6.33-1.862-.943-4-.98-5.88-2.04a7.3,7.3,0,0,0-9.69,2.574c-1.252,1.888-1.776,4.121-3.06,6.041-1.624,2.427-.516,3.949,2.473,4.1A22.161,22.161,0,0,0,86.594,99.27a1.6,1.6,0,0,1-.351,1.019,19.831,19.831,0,0,1-8.538,6.393c-.794.321-1.854.267-2.34,1.221M65.422,90.759a2.776,2.776,0,0,0,2.5,2.847A2.722,2.722,0,0,0,70.7,91.058a2.528,2.528,0,0,0-2.34-2.761,2.573,2.573,0,0,0-2.94,2.462M83.188,83.84a2.656,2.656,0,0,0,2.539,2.767,2.9,2.9,0,0,0,2.764-2.639,2.665,2.665,0,0,0-2.629-2.685,2.5,2.5,0,0,0-2.674,2.557" transform="translate(180 501)" fill="#f8b133"/>
    <path id="Trazado_272493" data-name="Trazado 272493" d="M130.642,44.458a16.343,16.343,0,0,1,14.48,11.908c1.536,5.923-1.066,11.968-6.685,15.408a16.056,16.056,0,0,1-12.345,2.07c-.269-.061-.55-.074-.826-.109a22.335,22.335,0,0,1-1.373-6.763c-.218-1.838-.245-3.7-.357-5.551.2-2.947.367-5.894.859-8.817.3-1.756,1.31-3.21,1.79-4.876l.135-.01a29.171,29.171,0,0,1,2.574-2.5,4.092,4.092,0,0,1,1.748-.755m5,19.05a2.528,2.528,0,1,0-5.052.07,2.528,2.528,0,1,0,5.052-.07" transform="translate(180 501)" fill="#656068"/>
    <path id="Trazado_272494" data-name="Trazado 272494" d="M153.284,91.452A53.131,53.131,0,0,0,161.7,78.511a48.943,48.943,0,0,0,4.246-14.516,48.28,48.28,0,0,0-1.234-18.179,12.274,12.274,0,0,1-.193-1.231c1.567.612,2.335,2.169,3.649,3.081l-.011-.018a22.5,22.5,0,0,1,2.423,8.62c.169,1.805-.08,3.635.365,5.417-.287.245-.25.581-.25.9a48.882,48.882,0,0,1-6.171,23.435,42.09,42.09,0,0,1-6.5,9.307c-1.4-1.434-2.731-2.953-4.692-3.667a.81.81,0,0,1-.04-.213" transform="translate(180 501)" fill="#d5e9e7"/>
    <path id="Trazado_272495" data-name="Trazado 272495" d="M125.842,154.223c.086,0,.172,0,.258,0,.622.916,1.581,1.524,2.144,2.518,1.341,2.367,1.06,4.774.353,7.22-2.752,5.293-7.448,7.928-12.982,9.244-5.5,1.308-10.813.884-15.635-2.43-.909-1.368-2.365-2.416-2.481-4.247a6.517,6.517,0,0,1,1.1.053,34.13,34.13,0,0,0,9.042.765,1.534,1.534,0,0,0,1.907-.272c2.73.068,5.179-.962,7.621-1.987a1.075,1.075,0,0,0,.649-1.467c-.5-1.832-.824-3.715-1.329-5.547-.25-.908-.246-1.6.756-1.88.953-.262,1.359.393,1.558,1.183q.6,2.361,1.134,4.735c.151.668.381.778.912.3a15.069,15.069,0,0,0,4.989-8.187" transform="translate(180 501)" fill="#e5728b"/>
    <path id="Trazado_272496" data-name="Trazado 272496" d="M195.6,121.672a28.654,28.654,0,0,1-1.783,2.48,3.7,3.7,0,0,1-3.877,1.274,3.55,3.55,0,0,0-4.367,2.116c-.428.822-.737,1.7-1.127,2.548-.464,1-1.113,1.042-1.826.261a10.881,10.881,0,0,1-2.127-4.2,26.971,26.971,0,0,1-1.073-8.4,27.367,27.367,0,0,1,1.906-7.536c.505-1.045.939-2.374,2.258-2.415,1.35-.042,1.8,1.3,2.3,2.336.419.877.707,1.816,1.053,2.728.643,1.694,1.794,2.186,3.411,1.4a14.6,14.6,0,0,1,3.089-1.265c2.249-.508,3.235.279,3.387,2.565a14.989,14.989,0,0,1-1.22,6.1" transform="translate(180 501)" fill="#e05d64"/>
    <path id="Trazado_272497" data-name="Trazado 272497" d="M126.185,47.728c-.48,1.666-1.494,3.12-1.789,4.876-.493,2.923-.654,5.87-.859,8.817-1.881,3.065-4.123,5.745-7.57,7.159a15.24,15.24,0,0,1-9.146.944,4.874,4.874,0,0,1-1.541-.621,1.268,1.268,0,0,1-.292-2.2,24.979,24.979,0,0,1,2.507-2.216A22.5,22.5,0,0,0,115.753,53c1.469-4.864,4.459-6.237,9.319-5.373.365.065.742.071,1.113.1" transform="translate(180 501)" fill="#d5e9e7"/>
    <path id="Trazado_272498" data-name="Trazado 272498" d="M170.941,61.685c-.445-1.782-.2-3.611-.365-5.416a22.5,22.5,0,0,0-2.423-8.621,13.175,13.175,0,0,1,5.546,0,5.783,5.783,0,0,1,4.034,3.566c.254.651.543,1.292.753,1.957A22.309,22.309,0,0,0,186.6,64.459a25.371,25.371,0,0,1,2.383,1.947c1.121,1.083.944,2.067-.5,2.716a11.229,11.229,0,0,1-6.058.554c-5.252-.609-8.885-3.566-11.49-7.991" transform="translate(180 501)" fill="#656068"/>
    <path id="Trazado_272499" data-name="Trazado 272499" d="M183.509,150.249c7.159-.912,13.533-6.115,14.441-13.551.547-4.478-.318-8.676-1.542-12.884a5.781,5.781,0,0,1-.487-1.88,15.519,15.519,0,0,1,5.557,7.677,19.126,19.126,0,0,1-11.358,24.774,18.53,18.53,0,0,1-11.758.366c-.4-.113-.811-.185-1.217-.276l-.249-.266a6.224,6.224,0,0,0,4-1.3,26.011,26.011,0,0,0,2.615-2.657" transform="translate(180 501)" fill="#d5e9e7"/>
    <path id="Trazado_272500" data-name="Trazado 272500" d="M128.6,163.964c.707-2.446.988-4.853-.353-7.221-.562-.993-1.522-1.6-2.144-2.517,1-1.083,2.167-1.985,3.088-3.18,2.169-2.811,2.9-6.063,3.379-9.458.839-5.978-.462-11.727-1.776-17.478a4.615,4.615,0,0,1-.181-1.372,30.474,30.474,0,0,1,5.817,11.049,29.021,29.021,0,0,1-5.532,27.8c-.7.85-1.229,1.881-2.3,2.379" transform="translate(180 501)" fill="#f6b6ad"/>
    <path id="Trazado_272501" data-name="Trazado 272501" d="M89.94,92.241c.1-2.118.616-4.189.585-6.33a37.081,37.081,0,0,0-.8-7.968,5.87,5.87,0,0,1-.029-1.246A16.71,16.71,0,0,1,95.76,87.509a17.868,17.868,0,0,1-12.825,19.973,14.233,14.233,0,0,1-7.57.421c.486-.954,1.546-.9,2.341-1.221a19.834,19.834,0,0,0,8.537-6.393,1.6,1.6,0,0,0,.351-1.019,20.232,20.232,0,0,0,3.5-3.132c1.343-1.507,1.277-2.66-.159-3.9" transform="translate(180 501)" fill="#ee9d28"/>
    <path id="Trazado_272502" data-name="Trazado 272502" d="M153.324,91.665c1.961.714,3.293,2.233,4.692,3.667-.69,1.761-1.338,3.541-2.081,5.28a9.678,9.678,0,0,1-9.19,5.841,9.538,9.538,0,0,1-8.672-6.907c.364.06.731.1,1.089.183a25.676,25.676,0,0,0,4.253.631c.308.016.7.093.836-.315.126-.37-.15-.615-.387-.833a3.486,3.486,0,0,0-2.491-1.083c-.668.019-1.242-.086-1.241-.937a1.174,1.174,0,0,1,1.293-1.308,6.628,6.628,0,0,1,4.271,1.808,1.2,1.2,0,0,1,.33.888c.051.414-.254,1.12.419,1.131A1.421,1.421,0,0,0,148,98.8a3.281,3.281,0,0,1,1.869-1.982c1.991-.695,2.328-2.446,3.019-4.019.164-.373,0-.869.434-1.136" transform="translate(180 501)" fill="#5e5661"/>
    <path id="Trazado_272503" data-name="Trazado 272503" d="M153.324,91.665c-.431.267-.27.763-.434,1.136-.691,1.573-1.028,3.324-3.019,4.019A3.281,3.281,0,0,0,148,98.8a1.421,1.421,0,0,1-1.557.909c-.673-.011-.368-.717-.419-1.131a1.2,1.2,0,0,0-.33-.888,6.628,6.628,0,0,0-4.271-1.808,1.174,1.174,0,0,0-1.293,1.308c0,.851.573.956,1.241.937a3.486,3.486,0,0,1,2.491,1.083c.237.218.513.463.387.833-.138.408-.528.331-.836.315a25.676,25.676,0,0,1-4.253-.631c-.358-.08-.725-.123-1.089-.183-.3-1.576-1.491-2.843-1.566-4.5a13.833,13.833,0,0,1,16.777-3.6.81.81,0,0,0,.04.213" transform="translate(180 501)" fill="#656068"/>
    <path id="Trazado_272504" data-name="Trazado 272504" d="M183.509,150.249a26.011,26.011,0,0,1-2.615,2.657,6.222,6.222,0,0,1-4,1.3.452.452,0,0,1-.246-.026l-.309-.286-.323-.283.012,0c-1.446-2.128-1.406-4.529-1.065-6.893a4.664,4.664,0,1,1,8.966,2.49c-.126.351-.282.69-.424,1.035" transform="translate(180 501)" fill="#fec05b"/>
    <path id="Trazado_272505" data-name="Trazado 272505" d="M176.652,154.184a.462.462,0,0,0,.246.026c.081.089.164.177.247.266,2.734,5.159.648,8.907-1.946,11.066-1.922,1.6-3.226,1.131-3.746-1.327a8.3,8.3,0,0,1,2.319-7.832,13.064,13.064,0,0,1,2.88-2.2" transform="translate(180 501)" fill="#e05d64"/>
    <path id="Trazado_272506" data-name="Trazado 272506" d="M176.02,153.615l.323.283-.323-.283" transform="translate(180 501)" fill="#e6f1f0"/>
    <path id="Trazado_272507" data-name="Trazado 272507" d="M164.238,44.546c-1.718,4.362-5.291,6.736-9.741,6.474A9.474,9.474,0,0,1,146.169,44a8.6,8.6,0,0,1-.084-4.426,33.2,33.2,0,0,1,12.806,2.165,25.313,25.313,0,0,1,5.347,2.81" transform="translate(180 501)" fill="#656068"/>
    <path id="Trazado_272508" data-name="Trazado 272508" d="M107.645,167.349a34.123,34.123,0,0,1-9.041-.766,6.419,6.419,0,0,0-1.1-.052,7.907,7.907,0,0,1,1.086-6.508c2.245-3.844,5.879-5.918,9.892-7.333a21.409,21.409,0,0,1,12.611-.728,12.449,12.449,0,0,1,4.753,2.261,15.068,15.068,0,0,1-4.989,8.188c-.53.481-.76.37-.911-.3q-.537-2.374-1.134-4.735c-.2-.79-.6-1.445-1.558-1.183-1,.275-1.007.972-.757,1.88.505,1.832.825,3.715,1.33,5.547a1.075,1.075,0,0,1-.65,1.467c-2.442,1.024-4.891,2.055-7.62,1.987.027-2.636-.962-5.077-1.492-7.6a.974.974,0,0,0-1.186-.746,1.075,1.075,0,0,0-.939,1.056,3.712,3.712,0,0,0,.055,1.11c.535,2.156,1.1,4.305,1.654,6.457" transform="translate(180 501)" fill="#f38ba6"/>
    <path id="Trazado_272509" data-name="Trazado 272509" d="M126.629,139.834a2.7,2.7,0,1,1,0,5.4,2.7,2.7,0,1,1,0-5.4" transform="translate(180 501)" fill="#573c2b"/>
    <path id="Trazado_272510" data-name="Trazado 272510" d="M92.254,148.027a2.764,2.764,0,0,1,2.692,2.811,2.721,2.721,0,1,1-2.692-2.811" transform="translate(180 501)" fill="#573c2b"/>
    <path id="Trazado_272511" data-name="Trazado 272511" d="M121.866,120.184a8.6,8.6,0,0,1,4.388-6.7,1.092,1.092,0,0,1,1.6.306.97.97,0,0,1-.259,1.472,7.237,7.237,0,0,0-3.532,5.842,1.14,1.14,0,0,1-1.278,1.051c-1.033-.22-.893-1.15-.917-1.971" transform="translate(180 501)" fill="#f6b6ad"/>
    <path id="Trazado_272512" data-name="Trazado 272512" d="M80.035,124.754a8.465,8.465,0,0,1,6.575,4.139c.392.616.53,1.414-.159,1.871s-1.311.106-1.78-.561c-1.313-1.865-2.929-3.221-5.382-3.225a1.011,1.011,0,0,1-1.083-1.186c.14-1.06.995-1.072,1.829-1.038" transform="translate(180 501)" fill="#f6b6ad"/>
    <path id="Trazado_272513" data-name="Trazado 272513" d="M161.606,66.208a2.681,2.681,0,0,1-2.622-2.706,2.763,2.763,0,0,1,2.71-2.649,2.7,2.7,0,0,1,2.667,2.806,2.63,2.63,0,0,1-2.755,2.549" transform="translate(180 501)" fill="#573c2b"/>
    <path id="Trazado_272514" data-name="Trazado 272514" d="M191.812,137.725a2.739,2.739,0,0,1-.013,5.478,2.739,2.739,0,0,1,.013-5.478" transform="translate(180 501)" fill="#573c2b"/>
    <path id="Trazado_272515" data-name="Trazado 272515" d="M170.077,136.336a2.622,2.622,0,0,1,2.655-2.649,2.7,2.7,0,1,1-2.655,2.649" transform="translate(180 501)" fill="#573c2b"/>
    <path id="Trazado_272516" data-name="Trazado 272516" d="M89.94,92.241c1.436,1.237,1.5,2.39.159,3.9a20.232,20.232,0,0,1-3.5,3.132,22.161,22.161,0,0,1-12.811,3.642c-2.989-.147-4.1-1.669-2.473-4.1,1.285-1.92,1.808-4.153,3.06-6.041A7.3,7.3,0,0,1,84.06,90.2c1.883,1.059,4.018,1.1,5.88,2.039" transform="translate(180 501)" fill="#f39d60"/>
    <path id="Trazado_272517" data-name="Trazado 272517" d="M65.423,90.758a2.573,2.573,0,0,1,2.94-2.461,2.528,2.528,0,0,1,2.34,2.762,2.72,2.72,0,0,1-2.783,2.546,2.774,2.774,0,0,1-2.5-2.847" transform="translate(180 501)" fill="#573c2b"/>
    <path id="Trazado_272518" data-name="Trazado 272518" d="M83.188,83.84a2.5,2.5,0,0,1,2.674-2.557,2.665,2.665,0,0,1,2.629,2.685,2.9,2.9,0,0,1-2.764,2.639,2.656,2.656,0,0,1-2.539-2.767" transform="translate(180 501)" fill="#573c2b"/>
    <path id="Trazado_272519" data-name="Trazado 272519" d="M135.643,63.508a2.528,2.528,0,1,1-5.052.07,2.528,2.528,0,1,1,5.052-.07" transform="translate(180 501)" fill="#573c2b"/>
    <path id="Trazado_272520" data-name="Trazado 272520" d="M107.645,167.349c-.555-2.152-1.119-4.3-1.654-6.457a3.712,3.712,0,0,1-.055-1.11,1.075,1.075,0,0,1,.939-1.056.974.974,0,0,1,1.186.746c.53,2.528,1.519,4.969,1.492,7.6a1.535,1.535,0,0,1-1.908.272" transform="translate(180 501)" fill="#b29678"/>
    <path id="Trazado_272521" data-name="Trazado 272521" d="M119.486,165.306h0a1.2,1.2,0,0,1-1.443-.889l-1.635-6.882a1.2,1.2,0,1,1,2.332-.554l1.635,6.882a1.2,1.2,0,0,1-.889,1.443" transform="translate(180 501)" fill="#b29678"/>
  </g>
</svg>
