<svg xmlns="http://www.w3.org/2000/svg" width="126" height="126" viewBox="0 0 126 126">
  <g id="Grupo_1071223" data-name="Grupo 1071223" transform="translate(5880 11096)">
    <circle id="Elipse_4306" data-name="Elipse 4306" cx="63" cy="63" r="63" transform="translate(-5880 -11096)" fill="#1b3f5e"/>
    <g id="Grupo_1070893" data-name="Grupo 1070893" transform="translate(-6105.202 -11612.28)">
      <path id="Trazado_272487" data-name="Trazado 272487" d="M127.707,30.28a5.657,5.657,0,0,1,.571,1.854,10.365,10.365,0,0,0,3.183,5.662c-.029.464-.464.409-.729.579-.743.474-1.771.5-2.241,1.4a2.746,2.746,0,0,0-1.171.506,19.449,19.449,0,0,0-1.724,1.678,9.21,9.21,0,0,1,.882-11.139c.169-.17.431-.264.478-.543Z" transform="translate(158.903 501)" fill="#b29678"/>
      <path id="Trazado_272488" data-name="Trazado 272488" d="M158.891,37.955a10.669,10.669,0,0,0,3.456-6.383,2.334,2.334,0,0,1,.5-1.292h.563a8.983,8.983,0,0,1,2.307,10.194c-.195.489-.409.969-.615,1.454-.88-.611-1.395-1.654-2.444-2.065l-.186-.026a16.968,16.968,0,0,0-3.582-1.883" transform="translate(147.428 501)" fill="#b29678"/>
      <path id="Trazado_272489" data-name="Trazado 272489" d="M89.687,150.3a19.72,19.72,0,0,1-11.389-9.18,21.765,21.765,0,0,1-2.634-11.343,20.723,20.723,0,0,1,.426-3.423,1.67,1.67,0,0,0-.242-1.314,8.5,8.5,0,0,0-6.6-4.065c-.143-.017-.311.056-.456-.158a14.664,14.664,0,0,1,3.691-3.069,30.571,30.571,0,0,1,3.76-1.9c3.007-1.307,5.293.36,6.407,2.517a1.211,1.211,0,0,0,1.668.738c5.261-1.293,10.535-2.533,15.808-3.777a.76.76,0,0,0,.693-.911,6.318,6.318,0,0,1,.3-2.118c.6-2.16,2.09-3.3,4.765-3.5a20.8,20.8,0,0,1,8.037.921,5.968,5.968,0,0,1,.594.278,9.356,9.356,0,0,0-2.991,2.595,7.972,7.972,0,0,0-1.534,4.63,1.627,1.627,0,0,0,.217.9,3.089,3.089,0,0,0,.121.919c.88,3.853,1.751,7.705,1.19,11.71a12.809,12.809,0,0,1-2.264,6.336c-.617.8-1.4,1.4-2.069,2.13-.058,0-.115,0-.173,0a8.342,8.342,0,0,0-3.184-1.515,14.343,14.343,0,0,0-8.449.488c-2.689.948-5.123,2.337-6.627,4.913a5.3,5.3,0,0,0-.728,4.359c.077,1.227,1.053,1.929,1.661,2.845m17.853-20.73a1.808,1.808,0,1,0,1.823,1.759,1.81,1.81,0,0,0-1.823-1.759m-23.029,5.49a1.834,1.834,0,0,0-1.841,1.841,1.824,1.824,0,0,0,3.645.042,1.852,1.852,0,0,0-1.8-1.883M104.349,116.4c.016.55-.078,1.173.614,1.32a.763.763,0,0,0,.856-.7,4.846,4.846,0,0,1,2.366-3.913.65.65,0,0,0,.174-.986.732.732,0,0,0-1.071-.206,5.763,5.763,0,0,0-2.94,4.489m-28.025,3.062c-.559-.023-1.132-.015-1.225.7a.677.677,0,0,0,.726.795,4.3,4.3,0,0,1,3.606,2.161c.314.447.74.675,1.193.376s.369-.841.107-1.253a5.671,5.671,0,0,0-4.4-2.773" transform="translate(177.165 475.108)" fill="#fdc3b8"/>
      <path id="Trazado_272490" data-name="Trazado 272490" d="M151.376,42.9l.186.025c.042.275.06.557.129.825a32.336,32.336,0,0,1,.827,12.18,32.8,32.8,0,0,1-2.845,9.725,35.572,35.572,0,0,1-5.636,8.669,9.268,9.268,0,0,0-11.24,2.409c-1.077-.36-1.444-1.409-2.025-2.2a34.84,34.84,0,0,1-5.389-11.064,3.91,3.91,0,0,1-.116-1.01c.184.023.373.032.553.074a10.753,10.753,0,0,0,8.27-1.387,9.286,9.286,0,0,0,4.479-10.323,10.949,10.949,0,0,0-9.7-7.978c.47-.908,1.5-.93,2.241-1.4.265-.169.7-.115.729-.579a11.333,11.333,0,0,0,2.979-.669,31.892,31.892,0,0,1,4.4-.622,5.764,5.764,0,0,0,.056,2.965,6.308,6.308,0,0,0,12.105.368m-1.763,14.512a1.762,1.762,0,0,0,1.846-1.708,1.808,1.808,0,0,0-1.787-1.88,1.851,1.851,0,0,0-1.816,1.775,1.8,1.8,0,0,0,1.757,1.813" transform="translate(158.526 497.934)" fill="#e6f1f0"/>
      <path id="Trazado_272491" data-name="Trazado 272491" d="M185.375,120.38l.214.176a3.87,3.87,0,0,0,.327,1.26,21.225,21.225,0,0,1,1.033,8.632c-.608,4.982-4.879,8.468-9.675,9.079.1-.23.2-.458.284-.693a3.125,3.125,0,1,0-6.007-1.669,6.251,6.251,0,0,0,.714,4.618,6.275,6.275,0,0,1-3.326-1.948,12.6,12.6,0,0,1-4.22-8.083,12.774,12.774,0,0,1,9.816-13.995,18.091,18.091,0,0,0,.719,5.627,7.291,7.291,0,0,0,1.426,2.811c.478.523.912.5,1.223-.175.262-.565.468-1.157.756-1.707a2.377,2.377,0,0,1,2.926-1.418,2.477,2.477,0,0,0,2.6-.854,19.344,19.344,0,0,0,1.2-1.661m-2.538,10.755a1.835,1.835,0,0,0-.009,3.67,1.835,1.835,0,0,0,.009-3.67m-14.562-.931a1.777,1.777,0,0,0,1.818,1.837,1.806,1.806,0,1,0-.039-3.612,1.757,1.757,0,0,0-1.779,1.775" transform="translate(145.538 472.129)" fill="#e6f1f0"/>
      <path id="Trazado_272492" data-name="Trazado 272492" d="M70.36,94.04c-4.73-.489-9.057-4.643-9.95-9.55A11.949,11.949,0,0,1,65.924,72a.958.958,0,0,0,.555-1.053c-.167-1.269-.28-2.546-.445-3.816-.078-.6.094-.729.634-.466a5.588,5.588,0,0,1,1.808,1.319c.365.42.506.283.677-.146.251-.629.548-1.239.861-1.936a9.4,9.4,0,0,1,1.409,3.482c.118.667.326.841,1,.857a11.511,11.511,0,0,1,7.536,2.895,3.978,3.978,0,0,0,.019.835,24.844,24.844,0,0,1,.539,5.338c.021,1.434-.327,2.822-.392,4.241-1.247-.632-2.678-.657-3.939-1.367A4.89,4.89,0,0,0,69.694,83.9c-.839,1.265-1.19,2.761-2.05,4.047C66.556,89.578,67.3,90.6,69.3,90.7a14.847,14.847,0,0,0,8.583-2.44,1.07,1.07,0,0,1-.235.683,13.286,13.286,0,0,1-5.72,4.283c-.532.215-1.242.179-1.568.818M63.7,82.554a1.86,1.86,0,0,0,1.673,1.907,1.824,1.824,0,0,0,1.864-1.707,1.693,1.693,0,0,0-1.568-1.85,1.724,1.724,0,0,0-1.97,1.649m11.9-4.635a1.78,1.78,0,0,0,1.7,1.854A1.944,1.944,0,0,0,79.154,78a1.785,1.785,0,0,0-1.761-1.8A1.674,1.674,0,0,0,75.6,77.919" transform="translate(180 489.244)" fill="#f8b133"/>
      <path id="Trazado_272493" data-name="Trazado 272493" d="M128.3,44.458a10.949,10.949,0,0,1,9.7,7.978,9.286,9.286,0,0,1-4.479,10.323,10.757,10.757,0,0,1-8.271,1.387c-.18-.041-.368-.05-.553-.073a14.964,14.964,0,0,1-.92-4.531c-.146-1.231-.164-2.479-.239-3.719.137-1.974.246-3.949.575-5.907a29.6,29.6,0,0,1,1.2-3.267l.09-.007a19.543,19.543,0,0,1,1.724-1.678,2.741,2.741,0,0,1,1.171-.506m3.35,12.763a1.693,1.693,0,1,0-3.385.047,1.693,1.693,0,1,0,3.385-.047" transform="translate(159.097 496.321)" fill="#656068"/>
      <path id="Trazado_272494" data-name="Trazado 272494" d="M153.284,75.984a35.6,35.6,0,0,0,5.636-8.67,32.79,32.79,0,0,0,2.845-9.725,32.346,32.346,0,0,0-.827-12.179,8.229,8.229,0,0,1-.129-.825c1.05.41,1.564,1.453,2.445,2.064l-.007-.012a15.077,15.077,0,0,1,1.623,5.775,23.8,23.8,0,0,0,.245,3.629c-.192.164-.167.389-.167.606a32.749,32.749,0,0,1-4.134,15.7,28.2,28.2,0,0,1-4.357,6.235,8.785,8.785,0,0,0-3.143-2.457.543.543,0,0,1-.027-.143" transform="translate(149.279 496.279)" fill="#d5e9e7"/>
      <path id="Trazado_272495" data-name="Trazado 272495" d="M116.488,154.223c.058,0,.115,0,.173,0,.417.614,1.059,1.021,1.436,1.687a5.951,5.951,0,0,1,.237,4.837c-1.844,3.546-4.99,5.311-8.7,6.193a12.556,12.556,0,0,1-10.475-1.628c-.609-.916-1.584-1.619-1.662-2.845a4.367,4.367,0,0,1,.74.035,22.865,22.865,0,0,0,6.058.513,1.028,1.028,0,0,0,1.278-.182,12.4,12.4,0,0,0,5.106-1.331.72.72,0,0,0,.435-.983c-.338-1.227-.552-2.489-.89-3.716-.167-.608-.165-1.075.506-1.26.638-.176.91.263,1.044.793q.4,1.582.76,3.172c.1.448.255.521.611.2a10.1,10.1,0,0,0,3.342-5.485" transform="translate(167.69 460.094)" fill="#e5728b"/>
      <path id="Trazado_272496" data-name="Trazado 272496" d="M190.261,117.095a19.194,19.194,0,0,1-1.195,1.661,2.478,2.478,0,0,1-2.6.854,2.378,2.378,0,0,0-2.926,1.418c-.287.551-.494,1.142-.755,1.707-.311.671-.746.7-1.223.175a7.29,7.29,0,0,1-1.425-2.811,18.07,18.07,0,0,1-.719-5.627,18.334,18.334,0,0,1,1.277-5.049c.338-.7.629-1.59,1.513-1.618.9-.028,1.207.873,1.538,1.565.281.588.474,1.217.705,1.828a1.476,1.476,0,0,0,2.285.941,9.779,9.779,0,0,1,2.07-.847c1.507-.34,2.167.187,2.269,1.718a10.042,10.042,0,0,1-.817,4.086" transform="translate(140.653 475.414)" fill="#e05d64"/>
      <path id="Trazado_272497" data-name="Trazado 272497" d="M119.018,47.614a29.458,29.458,0,0,0-1.2,3.267c-.33,1.958-.438,3.933-.575,5.907a10.939,10.939,0,0,1-5.072,4.8,10.21,10.21,0,0,1-6.127.632,3.266,3.266,0,0,1-1.032-.416.849.849,0,0,1-.2-1.477,16.736,16.736,0,0,1,1.68-1.485,15.071,15.071,0,0,0,5.533-7.7c.984-3.259,2.987-4.179,6.243-3.6.245.044.5.048.746.07" transform="translate(165.39 495.356)" fill="#d5e9e7"/>
      <path id="Trazado_272498" data-name="Trazado 272498" d="M170.021,56.951a23.8,23.8,0,0,1-.245-3.628,15.077,15.077,0,0,0-1.623-5.776,8.827,8.827,0,0,1,3.716,0,3.874,3.874,0,0,1,2.7,2.389c.17.436.364.866.5,1.311a14.946,14.946,0,0,0,5.437,7.564,17,17,0,0,1,1.6,1.3c.751.726.632,1.385-.332,1.82a7.523,7.523,0,0,1-4.059.371,10,10,0,0,1-7.7-5.354" transform="translate(144.371 495.369)" fill="#656068"/>
      <path id="Trazado_272499" data-name="Trazado 272499" d="M181.326,140.9c4.8-.611,9.067-4.1,9.675-9.079a21.225,21.225,0,0,0-1.033-8.632,3.873,3.873,0,0,1-.326-1.26,10.4,10.4,0,0,1,3.723,5.143,12.813,12.813,0,0,1-7.609,16.6,12.415,12.415,0,0,1-7.877.245c-.268-.076-.543-.124-.815-.185l-.167-.178a4.17,4.17,0,0,0,2.678-.873,17.426,17.426,0,0,0,1.752-1.78" transform="translate(141.486 470.75)" fill="#d5e9e7"/>
      <path id="Trazado_272500" data-name="Trazado 272500" d="M127.773,150.358a5.953,5.953,0,0,0-.236-4.838c-.377-.665-1.02-1.073-1.436-1.686.672-.726,1.452-1.33,2.069-2.13a12.8,12.8,0,0,0,2.264-6.336c.562-4-.31-7.857-1.19-11.71a3.092,3.092,0,0,1-.121-.919,20.417,20.417,0,0,1,3.9,7.4,19.442,19.442,0,0,1-3.706,18.623c-.468.569-.823,1.26-1.54,1.594" transform="translate(158.251 470.485)" fill="#f6b6ad"/>
      <path id="Trazado_272501" data-name="Trazado 272501" d="M85.13,87.111c.065-1.419.413-2.806.392-4.241a24.842,24.842,0,0,0-.538-5.338,3.933,3.933,0,0,1-.019-.835,11.2,11.2,0,0,1,4.065,7.244,11.97,11.97,0,0,1-8.592,13.381,9.536,9.536,0,0,1-5.072.282c.326-.639,1.036-.6,1.568-.818A13.288,13.288,0,0,0,82.653,92.5a1.069,1.069,0,0,0,.235-.683,13.555,13.555,0,0,0,2.348-2.1c.9-1.01.856-1.782-.107-2.611" transform="translate(174.995 485.68)" fill="#ee9d28"/>
      <path id="Trazado_272502" data-name="Trazado 272502" d="M148.291,91.665a8.785,8.785,0,0,1,3.143,2.457c-.462,1.18-.9,2.372-1.394,3.537a6.484,6.484,0,0,1-6.157,3.913,6.39,6.39,0,0,1-5.81-4.627c.244.04.49.069.73.123a17.2,17.2,0,0,0,2.849.423c.206.011.468.062.56-.211.084-.248-.1-.412-.259-.558A2.336,2.336,0,0,0,140.284,96c-.448.013-.832-.058-.831-.628a.786.786,0,0,1,.866-.876A4.44,4.44,0,0,1,143.18,95.7a.8.8,0,0,1,.221.595c.034.277-.17.75.281.758a.952.952,0,0,0,1.043-.609,2.2,2.2,0,0,1,1.252-1.328c1.334-.466,1.56-1.639,2.023-2.693.11-.25,0-.582.291-.761" transform="translate(154.299 480.74)" fill="#5e5661"/>
      <path id="Trazado_272503" data-name="Trazado 272503" d="M147.774,91.126c-.289.179-.181.511-.291.761-.463,1.054-.689,2.227-2.023,2.693a2.2,2.2,0,0,0-1.252,1.328.952.952,0,0,1-1.043.609c-.451-.007-.247-.48-.281-.758a.8.8,0,0,0-.221-.595,4.44,4.44,0,0,0-2.861-1.211.786.786,0,0,0-.866.876c0,.57.384.64.831.628a2.336,2.336,0,0,1,1.669.726c.159.146.344.31.259.558-.092.273-.354.222-.56.211a17.2,17.2,0,0,1-2.849-.423c-.24-.054-.486-.082-.73-.123-.2-1.056-1-1.9-1.049-3.013a9.268,9.268,0,0,1,11.24-2.409.543.543,0,0,0,.027.143" transform="translate(154.816 481.279)" fill="#656068"/>
      <path id="Trazado_272504" data-name="Trazado 272504" d="M180.625,147.851a17.426,17.426,0,0,1-1.752,1.78,4.168,4.168,0,0,1-2.677.873.3.3,0,0,1-.165-.017l-.207-.192-.216-.19.008,0a6.255,6.255,0,0,1-.714-4.618,3.125,3.125,0,1,1,6.007,1.668c-.084.235-.189.462-.284.693" transform="translate(142.187 463.803)" fill="#fec05b"/>
      <path id="Trazado_272505" data-name="Trazado 272505" d="M174.868,154.184a.31.31,0,0,0,.165.017c.054.06.11.119.165.178,1.832,3.456.434,5.967-1.3,7.414-1.288,1.071-2.161.758-2.51-.889a5.562,5.562,0,0,1,1.554-5.247,8.753,8.753,0,0,1,1.929-1.473" transform="translate(143.351 460.106)" fill="#e05d64"/>
      <path id="Trazado_272506" data-name="Trazado 272506" d="M176.02,153.615l.216.19-.216-.19" transform="translate(141.775 460.294)" fill="#e6f1f0"/>
      <path id="Trazado_272507" data-name="Trazado 272507" d="M158.164,42.9a6.308,6.308,0,0,1-12.105-.368A5.765,5.765,0,0,1,146,39.567a22.245,22.245,0,0,1,8.579,1.45,16.959,16.959,0,0,1,3.582,1.883" transform="translate(151.737 497.938)" fill="#656068"/>
      <path id="Trazado_272508" data-name="Trazado 272508" d="M104.2,162.062a22.86,22.86,0,0,1-6.057-.513,4.3,4.3,0,0,0-.74-.035,5.3,5.3,0,0,1,.728-4.36c1.5-2.575,3.939-3.965,6.627-4.913a14.343,14.343,0,0,1,8.449-.488,8.34,8.34,0,0,1,3.184,1.515,10.1,10.1,0,0,1-3.342,5.486c-.355.322-.509.248-.61-.2q-.36-1.591-.76-3.172c-.134-.529-.405-.968-1.044-.793-.672.184-.675.651-.507,1.26.338,1.227.553,2.489.891,3.716a.72.72,0,0,1-.435.983,12.407,12.407,0,0,1-5.105,1.331,23.712,23.712,0,0,0-1-5.1.653.653,0,0,0-.795-.5.72.72,0,0,0-.629.707,2.486,2.486,0,0,0,.037.744c.358,1.444.736,2.884,1.108,4.326" transform="translate(167.79 461.048)" fill="#f38ba6"/>
      <path id="Trazado_272509" data-name="Trazado 272509" d="M125.728,139.834a1.808,1.808,0,1,1,0,3.616,1.808,1.808,0,1,1,0-3.616" transform="translate(158.977 464.842)" fill="#573c2b"/>
      <path id="Trazado_272510" data-name="Trazado 272510" d="M91.347,148.027a1.852,1.852,0,0,1,1.8,1.883,1.823,1.823,0,1,1-1.8-1.883" transform="translate(170.328 462.138)" fill="#573c2b"/>
      <path id="Trazado_272511" data-name="Trazado 272511" d="M121.866,117.9a5.762,5.762,0,0,1,2.94-4.489.731.731,0,0,1,1.071.205.65.65,0,0,1-.174.986,4.849,4.849,0,0,0-2.366,3.914.763.763,0,0,1-.856.7c-.692-.147-.6-.77-.614-1.32" transform="translate(159.648 473.611)" fill="#f6b6ad"/>
      <path id="Trazado_272512" data-name="Trazado 272512" d="M79.428,124.751a5.671,5.671,0,0,1,4.4,2.773c.263.413.355.947-.107,1.253s-.878.071-1.193-.376a4.3,4.3,0,0,0-3.606-2.161.677.677,0,0,1-.726-.795c.094-.71.667-.718,1.225-.7" transform="translate(174.062 469.822)" fill="#f6b6ad"/>
      <path id="Trazado_272513" data-name="Trazado 272513" d="M160.74,64.441a1.8,1.8,0,0,1-1.757-1.813,1.851,1.851,0,0,1,1.816-1.775,1.808,1.808,0,0,1,1.787,1.88,1.762,1.762,0,0,1-1.846,1.708" transform="translate(147.398 490.91)" fill="#573c2b"/>
      <path id="Trazado_272514" data-name="Trazado 272514" d="M190.922,137.725a1.835,1.835,0,0,1-.009,3.67,1.835,1.835,0,0,1,.009-3.67" transform="translate(137.453 465.539)" fill="#573c2b"/>
      <path id="Trazado_272515" data-name="Trazado 272515" d="M170.077,135.462a1.757,1.757,0,0,1,1.779-1.775,1.806,1.806,0,1,1-1.779,1.775" transform="translate(143.736 466.871)" fill="#573c2b"/>
      <path id="Trazado_272516" data-name="Trazado 272516" d="M83.544,91.268c.962.829,1.006,1.6.107,2.611a13.554,13.554,0,0,1-2.348,2.1,14.847,14.847,0,0,1-8.583,2.44c-2-.1-2.745-1.118-1.657-2.744.861-1.286,1.211-2.782,2.05-4.047A4.889,4.889,0,0,1,79.605,89.9c1.262.709,2.692.734,3.939,1.366" transform="translate(176.581 481.523)" fill="#f39d60"/>
      <path id="Trazado_272517" data-name="Trazado 272517" d="M65.421,89.942a1.724,1.724,0,0,1,1.97-1.649,1.694,1.694,0,0,1,1.568,1.85,1.822,1.822,0,0,1-1.864,1.706,1.859,1.859,0,0,1-1.673-1.907" transform="translate(178.278 481.855)" fill="#573c2b"/>
      <path id="Trazado_272518" data-name="Trazado 272518" d="M83.188,83a1.674,1.674,0,0,1,1.791-1.713,1.785,1.785,0,0,1,1.761,1.8,1.944,1.944,0,0,1-1.852,1.768A1.78,1.78,0,0,1,83.188,83" transform="translate(172.414 484.167)" fill="#573c2b"/>
      <path id="Trazado_272519" data-name="Trazado 272519" d="M133.975,62.656a1.693,1.693,0,1,1-3.385.047,1.693,1.693,0,1,1,3.385-.047" transform="translate(156.769 490.885)" fill="#573c2b"/>
      <path id="Trazado_272520" data-name="Trazado 272520" d="M107.076,164.5c-.372-1.442-.75-2.881-1.108-4.326a2.486,2.486,0,0,1-.037-.744.72.72,0,0,1,.629-.707.653.653,0,0,1,.795.5,23.711,23.711,0,0,1,1,5.1,1.029,1.029,0,0,1-1.278.182" transform="translate(164.911 458.614)" fill="#b29678"/>
      <path id="Trazado_272521" data-name="Trazado 272521" d="M118.459,162.254h0a.806.806,0,0,1-.967-.6l-1.1-4.611a.8.8,0,1,1,1.562-.371l1.1,4.611a.806.806,0,0,1-.6.967" transform="translate(161.46 459.487)" fill="#b29678"/>
    </g>
  </g>
</svg>
