<svg xmlns="http://www.w3.org/2000/svg" width="146.474" height="173.275" viewBox="0 0 146.474 173.275">
  <g id="Grupo_261808" data-name="Grupo 261808" transform="translate(-313.614 -3094.894)">
    <path id="Trazado_277321" data-name="Trazado 277321" d="M93.771,248.615c-.036-.56-.1-1.119-.1-1.679q-.007-76.094-.029-152.186c0-1.655.367-2.97,1.823-3.856H102.9c1.6.828,2.034,2.168,2.029,3.911-.033,9.97.016,19.94.038,29.91q0,5.6,0,11.2-.009,22.491-.017,44.982,0,5.752,0,11.5l-.012,44.99c-.161,3.726-.133,7.451-.015,11.177l-.164-.008-11,.054" transform="translate(220 3004)" fill="#c17d50"/>
    <path id="Trazado_277322" data-name="Trazado 277322" d="M238.237,90.894c1.455.886,1.824,2.2,1.823,3.857q-.043,76.176-.028,152.353c0,.5-.067,1.007-.1,1.51l-11-.052-.163.007c.115-3.726.145-7.452-.016-11.177.014-4.792.044-9.584.04-14.376q-.012-15.306-.053-30.613,0-5.753,0-11.506.027-14.459.048-28.918c0-5.355-.041-10.709-.064-16.063q0-5.6.005-11.2c.021-9.971.07-19.941.037-29.911-.005-1.744.429-3.085,2.03-3.91Z" transform="translate(220 3004)" fill="#c17d50"/>
    <path id="Trazado_277323" data-name="Trazado 277323" d="M118.13,90.894h9.135c.008,2.693,0,5.385.027,8.078.022,2.483.641,3.1,3.073,3.105,1.683,0,3.366,0,5.049,0,2.935,0,3.338-.419,3.341-3.442q0-3.872.013-7.742h2.707q0,16.89,0,33.782l-25.332.034c-.01-9.965.015-19.93-.061-29.894a4.033,4.033,0,0,1,2.043-3.922" transform="translate(220 3004)" fill="#ebc273"/>
    <path id="Trazado_277324" data-name="Trazado 277324" d="M185.8,90.894h9.135c0,2.861-.011,5.722.02,8.583.022,1.937.71,2.588,2.66,2.6s3.927.012,5.89,0c2.215-.012,2.872-.657,2.9-2.936.036-2.748.023-5.5.031-8.246h2.707q0,16.892,0,33.783l-25.384,0q.006-15.906.011-31.812a5.957,5.957,0,0,1,2.024-1.969" transform="translate(220 3004)" fill="#ebc273"/>
    <path id="Trazado_277325" data-name="Trazado 277325" d="M151.963,90.894H161.1c.006,2.811,0,5.622.023,8.433.017,2.086.666,2.738,2.693,2.749s4.048.01,6.071,0,2.676-.663,2.693-2.749c.024-2.811.017-5.622.023-8.433h2.707q0,16.89.005,33.782l-25.385,0q0-15.86,0-31.718a5.677,5.677,0,0,1,2.033-2.062" transform="translate(220 3004)" fill="#ebc273"/>
    <path id="Trazado_277326" data-name="Trazado 277326" d="M215.907,90.894a4.1,4.1,0,0,1,1.72,3.754c-.069,10.023-.046,20.046-.053,30.07l-8.429-.041q0-16.892-.005-33.783Z" transform="translate(220 3004)" fill="#d9b36b"/>
    <path id="Trazado_277327" data-name="Trazado 277327" d="M149.93,92.956q0,15.859,0,31.718l-8.448,0q0-16.892,0-33.782h6.767a6.438,6.438,0,0,1,1.688,2.062" transform="translate(220 3004)" fill="#d9b36b"/>
    <path id="Trazado_277328" data-name="Trazado 277328" d="M175.313,124.676q0-16.89-.005-33.781h6.767l1.7,1.969q0,15.906-.011,31.812h-8.448" transform="translate(220 3004)" fill="#d9b36b"/>
    <path id="Trazado_277329" data-name="Trazado 277329" d="M172.6,90.894c-.006,2.811,0,5.622-.023,8.433-.017,2.086-.666,2.738-2.693,2.749s-4.047.01-6.071,0-2.676-.663-2.693-2.749c-.024-2.811-.017-5.622-.023-8.433Z" transform="translate(220 3004)" fill="#f3e0bf"/>
    <path id="Trazado_277330" data-name="Trazado 277330" d="M138.768,90.894q-.006,3.872-.013,7.742c0,3.023-.406,3.44-3.341,3.442-1.683,0-3.366,0-5.049,0-2.432-.008-3.051-.622-3.073-3.105-.023-2.693-.019-5.385-.027-8.078Z" transform="translate(220 3004)" fill="#f3e0bf"/>
    <path id="Trazado_277331" data-name="Trazado 277331" d="M206.434,90.894c-.008,2.749,0,5.5-.031,8.246-.03,2.279-.687,2.924-2.9,2.936q-2.945.017-5.89,0c-1.95-.01-2.638-.661-2.66-2.6-.031-2.861-.016-5.722-.02-8.583Z" transform="translate(220 3004)" fill="#f3e0bf"/>
    <path id="Trazado_277332" data-name="Trazado 277332" d="M183.772,92.863q-.849-.982-1.7-1.968H185.8a5.955,5.955,0,0,0-2.024,1.968" transform="translate(220 3004)" fill="#fdfdfd"/>
    <path id="Trazado_277333" data-name="Trazado 277333" d="M149.93,92.956a6.438,6.438,0,0,0-1.688-2.062h3.721a5.692,5.692,0,0,0-2.033,2.062" transform="translate(220 3004)" fill="#fdfdfd"/>
    <path id="Trazado_277334" data-name="Trazado 277334" d="M220.307,248.562H113.391q0-5.571,0-11.143l2.775-.043,25.32-.048,8.443,0,25.389,0h33.833l8.414.058,2.751.034q0,5.571,0,11.142" transform="translate(220 3004)" fill="#dcd9eb"/>
    <path id="Trazado_277335" data-name="Trazado 277335" d="M228.926,248.562l11,.052c.262,4.319.14,8.64.062,12.959a2.477,2.477,0,0,1-2.627,2.528c-1.961.091-3.933.092-5.894-.005a2.541,2.541,0,0,1-2.618-2.578c-.074-4.317-.213-8.639.074-12.956" transform="translate(220 3004)" fill="#427193"/>
    <path id="Trazado_277336" data-name="Trazado 277336" d="M93.771,248.615l11-.054c.289,4.317.149,8.638.074,12.955a2.55,2.55,0,0,1-2.62,2.579c-1.96.1-3.933.1-5.894.006a2.475,2.475,0,0,1-2.626-2.528c-.071-4.319-.195-8.64.064-12.958" transform="translate(220 3004)" fill="#427193"/>
    <path id="Trazado_277337" data-name="Trazado 277337" d="M113.387,237.419q0,5.571,0,11.142l-8.455.008c-.118-3.725-.146-7.451.015-11.176l8.435.026" transform="translate(220 3004)" fill="#cfcde6"/>
    <path id="Trazado_277338" data-name="Trazado 277338" d="M220.307,248.562q0-5.571,0-11.143l8.434-.026c.161,3.725.131,7.451.016,11.177l-8.455-.008" transform="translate(220 3004)" fill="#cfcde6"/>
    <path id="Trazado_277339" data-name="Trazado 277339" d="M113.379,192.361l-8.415.042q0-5.753,0-11.505l8.417.044q0,5.709,0,11.419" transform="translate(220 3004)" fill="#cfcde6"/>
    <path id="Trazado_277340" data-name="Trazado 277340" d="M113.392,135.89l-8.415.025q0-5.6-.006-11.2l8.416.029q0,5.572,0,11.146" transform="translate(220 3004)" fill="#cfcde6"/>
    <path id="Trazado_277341" data-name="Trazado 277341" d="M228.734,192.4l-8.415-.042q0-5.709,0-11.419l8.417-.045q0,5.752,0,11.506" transform="translate(220 3004)" fill="#cfcde6"/>
    <path id="Trazado_277342" data-name="Trazado 277342" d="M228.721,135.916l-8.414-.026q0-5.572,0-11.146l8.415-.029q0,5.6-.005,11.2" transform="translate(220 3004)" fill="#cfcde6"/>
    <path id="Trazado_277343" data-name="Trazado 277343" d="M220.311,124.745q0,5.573,0,11.146H113.391l0-11.146,2.76-.034,25.332-.035h42.281l25.384,0,8.429.04,2.737.027" transform="translate(220 3004)" fill="#dcd9eb"/>
    <path id="Trazado_277344" data-name="Trazado 277344" d="M183.748,205.434a3.7,3.7,0,0,1,3.781-1.894c2.455.108,4.918.043,7.377.051.013,2.872,0,5.745.046,8.617.027,1.85.732,2.524,2.565,2.538,1.915.014,3.83.007,5.745,0,2.538-.006,3.127-.607,3.146-3.225.02-2.647.029-5.293.043-7.94l2.695.035q0,16.854,0,33.708H183.758q0-15.946-.01-31.893" transform="translate(220 3004)" fill="#ebc273"/>
    <path id="Trazado_277345" data-name="Trazado 277345" d="M138.793,203.591l2.689.029q0,16.853,0,33.707l-25.321.049q-.02-15.443-.029-30.885c0-1.818,1.2-2.894,3.184-2.916,2.643-.03,5.287,0,7.931.008.014,2.76,0,5.52.049,8.279.036,2.206.7,2.868,2.8,2.884,1.971.015,3.942.01,5.914,0,2.057-.009,2.717-.65,2.739-2.708.03-2.816.029-5.632.042-8.448" transform="translate(220 3004)" fill="#ebc273"/>
    <path id="Trazado_277346" data-name="Trazado 277346" d="M149.928,205.626a3.666,3.666,0,0,1,3.808-2.084c2.444.1,4.894.038,7.341.045.013,2.807.015,5.615.043,8.422.021,2.075.672,2.728,2.7,2.738s4.043.01,6.064,0,2.677-.663,2.7-2.738c.028-2.807.03-5.614.043-8.422l2.692.032q0,16.854,0,33.708l-25.39,0q0-15.848,0-31.7" transform="translate(220 3004)" fill="#ebc273"/>
    <path id="Trazado_277347" data-name="Trazado 277347" d="M209.147,237.327q0-16.854,0-33.709c1.8-.017,3.607-.061,5.41-.045a2.714,2.714,0,0,1,3.03,3.025q.012,15.394-.025,30.787l-8.414-.058" transform="translate(220 3004)" fill="#d9b36b"/>
    <path id="Trazado_277348" data-name="Trazado 277348" d="M175.315,237.327q0-16.854,0-33.708c1.675-.018,3.353.031,5.022-.073a3.284,3.284,0,0,1,3.412,1.887q.006,15.948.011,31.894h-8.444" transform="translate(220 3004)" fill="#d9b36b"/>
    <path id="Trazado_277349" data-name="Trazado 277349" d="M149.928,205.626q0,15.849,0,31.7l-8.443,0q0-16.854,0-33.708c1.682-.018,3.369.04,5.044-.075a3.093,3.093,0,0,1,3.4,2.082" transform="translate(220 3004)" fill="#d9b36b"/>
    <path id="Trazado_277350" data-name="Trazado 277350" d="M220.321,180.942q0,5.71,0,11.419-9.123.017-18.245.031-43.25,0-86.5,0c-.732,0-1.464-.02-2.2-.031q0-5.71,0-11.419l5.557-.077H144.19l8.67.006,28.168.03,25.407-.024,8.388.007,5.5.057" transform="translate(220 3004)" fill="#dddaea"/>
    <path id="Trazado_277351" data-name="Trazado 277351" d="M206.436,180.878l-25.407.024q-.012-15.271-.016-30.544c0-2.12.947-3.01,3.131-3.024,2.7-.019,5.4-.006,8.1-.006-.007,2.932-.041,5.863-.009,8.793a2.122,2.122,0,0,0,2.38,2.421c2.084.046,4.171.039,6.255,0,1.846-.031,2.512-.736,2.531-2.576q.048-4.4.083-8.788l2.919.123q.017,16.787.034,33.573" transform="translate(220 3004)" fill="#ebc273"/>
    <path id="Trazado_277352" data-name="Trazado 277352" d="M144.19,180.866H118.934c-.017-10.059-.059-20.117-.036-30.175,0-2.445,1.009-3.328,3.409-3.364,2.636-.04,5.273-.1,7.91-.146q.041,4.394.082,8.788c.019,1.844.682,2.546,2.53,2.577q3.042.052,6.087,0c1.814-.028,2.54-.761,2.553-2.6.02-2.875-.007-5.75-.014-8.624l2.713.02q.011,16.759.022,33.518" transform="translate(220 3004)" fill="#ebc273"/>
    <path id="Trazado_277353" data-name="Trazado 277353" d="M144.19,180.866q-.011-16.76-.022-33.518a18.707,18.707,0,0,1,6.181-.126c1.781.179,2.555,1.493,2.558,3.765q.014,11.145,0,22.289c0,2.532-.03,5.064-.047,7.6l-8.671-.006" transform="translate(220 3004)" fill="#dab56d"/>
    <path id="Trazado_277354" data-name="Trazado 277354" d="M206.436,180.878q-.017-16.787-.034-33.573a20.29,20.29,0,0,1,5.706-.128c1.9.133,2.743,1.44,2.745,3.775q.012,12.345,0,24.691c0,1.747-.02,3.494-.032,5.242l-8.387-.007" transform="translate(220 3004)" fill="#dab46c"/>
    <path id="Trazado_277355" data-name="Trazado 277355" d="M203.483,147.182q-.041,4.393-.082,8.787c-.02,1.841-.685,2.546-2.532,2.577-2.084.035-4.171.042-6.255,0a2.122,2.122,0,0,1-2.38-2.421c-.032-2.93,0-5.862.01-8.793,1.524-.592,3.107-.206,4.659-.243,2.191-.052,4.387.057,6.58.1" transform="translate(220 3004)" fill="#f3e0bf"/>
    <path id="Trazado_277356" data-name="Trazado 277356" d="M141.455,147.328c.007,2.875.034,5.75.014,8.624-.013,1.834-.739,2.567-2.554,2.6q-3.042.048-6.087,0c-1.847-.032-2.51-.734-2.53-2.578q-.047-4.395-.082-8.788a66.224,66.224,0,0,1,11.239.147" transform="translate(220 3004)" fill="#f3e0bf"/>
    <path id="Trazado_277357" data-name="Trazado 277357" d="M172.622,203.587c-.013,2.808-.015,5.615-.043,8.422-.021,2.074-.673,2.728-2.7,2.738s-4.043.011-6.064,0-2.676-.662-2.7-2.738c-.029-2.807-.03-5.614-.044-8.422h11.546" transform="translate(220 3004)" fill="#f3e0bf"/>
    <path id="Trazado_277358" data-name="Trazado 277358" d="M138.793,203.591c-.013,2.816-.012,5.632-.042,8.448-.022,2.058-.682,2.7-2.739,2.708-1.972.009-3.943.014-5.914,0-2.1-.016-2.765-.678-2.8-2.884-.044-2.759-.035-5.519-.049-8.279l11.545.008" transform="translate(220 3004)" fill="#f3e0bf"/>
    <path id="Trazado_277359" data-name="Trazado 277359" d="M206.451,203.583c-.014,2.647-.023,5.3-.043,7.942-.02,2.618-.608,3.218-3.146,3.224-1.915.005-3.83.011-5.745,0-1.833-.013-2.538-.688-2.565-2.538-.042-2.872-.033-5.744-.046-8.617q5.772,0,11.545-.008" transform="translate(220 3004)" fill="#f3e0bf"/>
  </g>
</svg>
