<svg xmlns="http://www.w3.org/2000/svg" width="176.589" height="179.459" viewBox="0 0 176.589 179.459">
  <g id="Grupo_261809" data-name="Grupo 261809" transform="translate(8687.164 8605.864)">
    <g id="Grupo_260330" data-name="Grupo 260330">
      <path id="Trazado_277362" data-name="Trazado 277362" d="M251.193,127.264c.021.7.06,1.392.06,2.088q0,68.917.054,137.835c0,2.052-.6,2.437-2.493,2.406-7.286-.12-14.574-.063-21.861-.071q-.022-26.141-.046-52.282c-.007-5.892-.038-11.785-.058-17.677q0-3.057,0-6.115V156.925c.02-2.341-.086-4.693.1-7.021.148-1.827-.552-2.136-2.21-2.134q-52.609.069-105.22.035a6,6,0,0,1-.759,0c-1.029-.131-1.473.211-1.433,1.342.092,2.592.064,5.188.084,7.783V169.1q-.045,1.5-.091,3.008l-15.191.109L93,172.09q.03-22.413.061-44.826a11.155,11.155,0,0,0,1.693-.148q19.936-4.794,39.865-9.618,18-4.349,36.009-8.7a6.26,6.26,0,0,1,3,0q17.549,4.215,35.1,8.419,19.2,4.626,38.4,9.285a12.97,12.97,0,0,0,4.071.765m-79.065,5.323c1.964,0,3.927.016,5.891,0a6.086,6.086,0,1,0,0-12.165q-5.892-.036-11.782,0a6.086,6.086,0,1,0,0,12.165c1.964.02,3.927,0,5.891,0" transform="translate(-8771 -8696)" fill="#0092b8"/>
      <path id="Trazado_277363" data-name="Trazado 277363" d="M93,172.09l9.126.126c0,5.447.061,10.895-.033,16.34-.027,1.559.5,1.912,1.952,1.888q7.218-.118,14.439,0c1.47.025,1.966-.359,1.942-1.9-.086-5.446-.023-10.893-.016-16.34q7.476-.027,14.953-.052c3.193-.008,3.193,0,3.346,3.065l-.115-.045-3.8.022c-3.463.021-5.188,1.813-5.289,5.278-.1,3.534.242,7.064-.311,10.608a24.193,24.193,0,0,1-23.966,20.637c-4.5,0-9-.03-13.5.011a4.648,4.648,0,0,0-4.8,4.78c-.024.887.069,1.782-.02,2.661-.14,1.373.46,1.719,1.75,1.7,4.5-.06,9-.017,13.5-.013-.007,5.5.015,11-.043,16.5-.014,1.251.26,1.8,1.661,1.778q7.489-.114,14.982,0c1.4.021,1.674-.527,1.661-1.778-.059-5.5-.037-11-.044-16.5l18.323-.029,18.191.072c.009,5.447.054,10.9,0,16.342-.013,1.324.219,1.928,1.745,1.9q7.408-.14,14.821,0c1.526.028,1.758-.577,1.745-1.9-.052-5.447-.007-10.895,0-16.342q7.853-.027,15.705-.053c2.594-.007,2.6,0,2.513,2.667a3.7,3.7,0,0,1-.049.375c-1.266,0-2.533-.006-3.8,0-3.455.019-5.184,1.814-5.285,5.269-.1,3.53.249,7.056-.311,10.6a24.163,24.163,0,0,1-24.09,20.658c-4.433,0-8.865-.025-13.3.009A4.655,4.655,0,0,0,141.7,265.3c-.027,1.392-.005,2.786-.005,4.179h-3.044q0-20.909,0-41.818c0-3.792,0-3.792-3.818-3.772-3.563.019-5.232,1.793-5.332,5.42-.1,3.469.26,6.933-.306,10.411a24.161,24.161,0,0,1-24.079,20.692c-4.435,0-8.87-.025-13.3.009a4.656,4.656,0,0,0-4.893,4.876c-.026,1.394,0,2.788,0,4.182a3.494,3.494,0,0,1-.376.051c-2.668.079-2.668.079-2.668-2.516q0-46.359-.037-92.718c0-1.688.354-2.311,2.145-2.191,2.329.156,4.68,0,7.022-.02" transform="translate(-8771 -8696)" fill="#f7bb1e"/>
      <path id="Trazado_277364" data-name="Trazado 277364" d="M193.369,223.894a3.7,3.7,0,0,0,.049-.375c.081-2.668.081-2.674-2.514-2.667q-7.853.021-15.7.053H156.884l-18.19-.072q.009-10.638.019-21.277l88.136.007c.02,5.892.051,11.785.058,17.678q.03,26.141.046,52.281l-33.563,0q-.011-22.813-.021-45.626" transform="translate(-8771 -8696)" fill="#e2e3e1"/>
      <path id="Trazado_277365" data-name="Trazado 277365" d="M92.958,121.557c-2.626.01-5.021,1.151-7.571,1.561-1.107.178-1.585.157-1.543-1.177.093-2.975.083-5.956,0-8.932-.035-1.322.419-1.852,1.734-2.164,11.464-2.721,22.907-5.529,34.359-8.3q17.728-4.292,35.461-8.566c5.083-1.224,10.191-2.351,15.25-3.666a8.308,8.308,0,0,1,4.243.293q21.13,5.111,42.251,10.258,20.759,5.026,41.534,9.983c1.322.313,1.764.851,1.729,2.168-.078,2.912-.109,5.832.011,8.741.062,1.519-.492,1.636-1.736,1.319a38,38,0,0,0-7.384-1.517c-.343-.571-.983-.547-1.505-.673q-38.272-9.245-76.551-18.471a4.481,4.481,0,0,0-2.219.022q-34.489,8.348-68.983,16.672c-3.045.74-6.191,1.138-9.084,2.451" transform="translate(-8771 -8696)" fill="#e1e3e1"/>
      <path id="Trazado_277366" data-name="Trazado 277366" d="M92.958,121.557c2.893-1.313,6.039-1.711,9.084-2.451q34.483-8.372,68.983-16.672a4.481,4.481,0,0,1,2.219-.022q38.272,9.25,76.551,18.471c.522.126,1.162.1,1.505.673q-.054,2.854-.107,5.708a12.97,12.97,0,0,1-4.071-.765q-19.2-4.632-38.4-9.285-17.545-4.229-35.1-8.419a6.26,6.26,0,0,0-3,0q-18,4.359-36.009,8.7-19.932,4.815-39.865,9.618a11.155,11.155,0,0,1-1.693.148q-.053-2.853-.106-5.707" transform="translate(-8771 -8696)" fill="#0a84a9"/>
      <path id="Trazado_277367" data-name="Trazado 277367" d="M86.917,269.484c0-1.394-.022-2.788,0-4.181a4.657,4.657,0,0,1,4.893-4.877c4.435-.034,8.87-.009,13.305-.009A24.16,24.16,0,0,0,129.2,239.725c.567-3.478.211-6.942.306-10.41.1-3.628,1.769-5.4,5.333-5.421,3.817-.02,3.817-.02,3.817,3.773q0,20.908,0,41.817-18.477.031-36.955.06c-4.927,0-9.853-.039-14.78-.06m39.6-9.067c3.218-.037,3.021.4,3-2.461-.026-3.993.508-3.623-2.6-3.615-3.854.01-3.482-.51-3.473,2.734.011,3.8-.514,3.291,3.066,3.342" transform="translate(-8771 -8696)" fill="#f4a822"/>
      <path id="Trazado_277368" data-name="Trazado 277368" d="M193.369,223.894l.022,45.625-51.694-.035c0-1.393-.023-2.787,0-4.179a4.654,4.654,0,0,1,4.886-4.879c4.431-.034,8.864-.009,13.3-.009a24.164,24.164,0,0,0,24.092-20.658c.558-3.539.207-7.065.31-10.6.1-3.455,1.83-5.25,5.285-5.269,1.267-.007,2.532,0,3.8,0M184.3,257.381c-.041-3.215.424-3.067-2.421-3.045-4.013.032-3.665-.514-3.655,2.556.011,3.889-.519,3.523,2.694,3.514,3.845-.012,3.328.517,3.382-3.025" transform="translate(-8771 -8696)" fill="#f4a822"/>
      <path id="Trazado_277369" data-name="Trazado 277369" d="M117.411,156.925c-.02-2.6.008-5.191-.084-7.783-.04-1.131.4-1.473,1.433-1.342a6,6,0,0,0,.759,0q52.609,0,105.22-.035c1.658,0,2.358.307,2.21,2.134-.188,2.328-.082,4.68-.1,7.021H117.411" transform="translate(-8771 -8696)" fill="#c8c8c7"/>
      <path id="Trazado_277370" data-name="Trazado 277370" d="M117.411,156.925H226.847v6.107H117.411v-6.107" transform="translate(-8771 -8696)" fill="#b1b0b3"/>
      <path id="Trazado_277371" data-name="Trazado 277371" d="M117.411,163.032H226.847q0,3.033,0,6.067H117.411v-6.067" transform="translate(-8771 -8696)" fill="#c8c8c7"/>
      <path id="Trazado_277372" data-name="Trazado 277372" d="M117.411,169.1H226.847v6.107l-88.135.014c-.153-3.067-.153-3.074-3.347-3.066q-7.476.02-14.952.052l-3.093-.1q.045-1.5.091-3.008" transform="translate(-8771 -8696)" fill="#b1b0b3"/>
      <path id="Trazado_277373" data-name="Trazado 277373" d="M138.712,175.22l88.135-.014v6.067l-88.134.006q-.059-3.053-.116-6.1Z" transform="translate(-8771 -8696)" fill="#c8c8c7"/>
      <path id="Trazado_277374" data-name="Trazado 277374" d="M138.714,181.279l88.133-.005v6.107l-88.133,0v-6.1" transform="translate(-8771 -8696)" fill="#b1b0b3"/>
      <path id="Trazado_277375" data-name="Trazado 277375" d="M138.714,187.376l88.133,0v6.067l-88.133.005v-6.077" transform="translate(-8771 -8696)" fill="#c8c8c7"/>
      <path id="Trazado_277376" data-name="Trazado 277376" d="M138.714,193.453l88.133-.005q0,3.057,0,6.115l-88.137-.007q0-3.051,0-6.1" transform="translate(-8771 -8696)" fill="#b1b0b3"/>
      <path id="Trazado_277377" data-name="Trazado 277377" d="M117.32,172.107l3.093.1c-.007,5.447-.07,10.894.016,16.34.024,1.54-.472,1.924-1.942,1.9q-7.218-.124-14.439,0c-1.452.024-1.979-.329-1.952-1.887.094-5.446.034-10.894.033-16.34l15.191-.11" transform="translate(-8771 -8696)" fill="#f8d962"/>
      <path id="Trazado_277378" data-name="Trazado 277378" d="M172.128,132.587c-1.964,0-3.927.016-5.891,0a6.086,6.086,0,1,1,0-12.165q5.89-.036,11.782,0a6.086,6.086,0,1,1,0,12.165c-1.964.02-3.927,0-5.891,0" transform="translate(-8771 -8696)" fill="#56c2c0"/>
      <path id="Trazado_277379" data-name="Trazado 277379" d="M138.713,193.453v6.1q-.009,10.638-.019,21.277l-18.323.028H102.154c-4.5,0-9-.046-13.5.013-1.29.017-1.89-.329-1.751-1.7.09-.878,0-1.774.021-2.661a4.647,4.647,0,0,1,4.8-4.779c4.5-.042,9-.012,13.5-.012a24.192,24.192,0,0,0,23.966-20.636c.553-3.544.209-7.074.311-10.609.1-3.464,1.826-5.256,5.288-5.278l3.8-.021q.059,3.051.116,6.1v12.175m-12.121,12.179c-3.367.044-3.167-.447-3.148,2.5.025,3.961-.509,3.576,2.639,3.571,3.759-.006,3.443.491,3.43-2.589-.017-3.927.52-3.438-2.921-3.487" transform="translate(-8771 -8696)" fill="#f4a822"/>
      <path id="Trazado_277380" data-name="Trazado 277380" d="M102.154,220.862h18.217c.007,5.5-.015,11,.044,16.5.013,1.251-.261,1.8-1.662,1.778q-7.489-.114-14.981,0c-1.4.021-1.675-.527-1.662-1.778.059-5.5.037-11,.044-16.5" transform="translate(-8771 -8696)" fill="#f8d962"/>
      <path id="Trazado_277381" data-name="Trazado 277381" d="M156.885,220.9H175.2c-.01,5.448-.055,10.9,0,16.342.013,1.324-.219,1.929-1.745,1.9q-7.408-.141-14.82,0c-1.526.029-1.759-.576-1.746-1.9.052-5.447.007-10.9,0-16.343" transform="translate(-8771 -8696)" fill="#f8d962"/>
      <path id="Trazado_277382" data-name="Trazado 277382" d="M126.513,260.417c-3.58-.051-3.055.456-3.066-3.342-.009-3.244-.381-2.724,3.473-2.734,3.1-.008,2.569-.378,2.6,3.615.019,2.862.216,2.424-3,2.461" transform="translate(-8771 -8696)" fill="#f69626"/>
      <path id="Trazado_277383" data-name="Trazado 277383" d="M184.3,257.381c-.054,3.542.463,3.013-3.382,3.025-3.213.009-2.683.375-2.694-3.514-.01-3.07-.358-2.524,3.655-2.556,2.845-.022,2.38-.17,2.421,3.045" transform="translate(-8771 -8696)" fill="#f69626"/>
      <path id="Trazado_277384" data-name="Trazado 277384" d="M126.592,205.632c3.441.049,2.9-.44,2.921,3.487.013,3.08.329,2.583-3.43,2.589-3.148.005-2.614.39-2.639-3.571-.019-2.952-.219-2.461,3.148-2.5" transform="translate(-8771 -8696)" fill="#f69626"/>
    </g>
  </g>
</svg>
