<svg xmlns="http://www.w3.org/2000/svg" width="71.869" height="71.87" viewBox="0 0 71.869 71.87">
  <g id="Grupo_261805" data-name="Grupo 261805" transform="translate(5746.48 7081.339)">
    <g id="Grupo_260499" data-name="Grupo 260499">
      <path id="Trazado_277576" data-name="Trazado 277576" d="M114.389,104.6A35.934,35.934,0,1,1,78.454,68.661,35.935,35.935,0,0,1,114.389,104.6" transform="translate(-5789 -7150)" fill="#fff"/>
      <path id="Trazado_277577" data-name="Trazado 277577" d="M53.984,115.636a6.541,6.541,0,0,0,.359-1.527,12.287,12.287,0,0,1,3.56-6.075.87.87,0,0,0,.247-.83c-.048-.424.084-.6.525-.531a2.378,2.378,0,0,0,.483-.016c.345.091.84-.154,1.014.111s.032.724.063,1.1a1.585,1.585,0,0,1-.6,1.407,10.35,10.35,0,0,0-.015,15.652,9.929,9.929,0,0,0,6.86,2.577,6.541,6.541,0,0,0,1.693-.131,10.031,10.031,0,0,0,8.152-6.968,9.828,9.828,0,0,0-2.336-10.451c-.85-.9-1.493-1.707-1.264-2.981.044-.243-.083-.3-.307-.294-.584.019-1.168.019-1.753.026-.906-.007-1.812-.031-2.718-.013-.349.007-.448-.1-.425-.439a9.108,9.108,0,0,0,0-1.214c-.023-.33.067-.447.419-.439.906.021,1.813,0,2.72-.007.6.006,1.195,0,1.792.02.2.006.284-.046.277-.266q-.022-.776,0-1.551c.006-.222-.082-.27-.282-.264-.6.018-1.193.02-1.79.028-.906-.008-1.812-.027-2.718-.017-.305,0-.442-.064-.419-.4a9.889,9.889,0,0,0,0-1.311c-.023-.338.114-.4.419-.4.906.01,1.812-.009,2.718-.017.6.008,1.194.01,1.79.028.2.006.288-.042.282-.264q-.022-.775,0-1.55c.007-.221-.073-.273-.277-.267-.6.016-1.195.015-1.792.02-.891-.006-1.782-.034-2.671-.006-.4.013-.5-.123-.469-.489a7.948,7.948,0,0,0,0-1.165c-.024-.335.077-.446.426-.439.905.018,1.812-.006,2.718-.014.585.007,1.17.006,1.754.026.227.007.318-.055.31-.3-.016-.5-.016-1.009,0-1.512.008-.242-.082-.305-.31-.3-.584.019-1.169.018-1.754.025h-4.18c-.861-.009-1.723.008-2.582-.036-.453-.023-.561.119-.56.562.016,4.975.006,9.95.017,14.926a1.292,1.292,0,0,1-.684,1.242A6.446,6.446,0,0,0,60.7,112.68a6.94,6.94,0,0,0-1.335,5.786,3.944,3.944,0,0,0,.4,1.445,7.26,7.26,0,0,0,6.734,4.474,7.074,7.074,0,0,0,5.013-2.016,6.63,6.63,0,0,0,2.094-3.908,2.529,2.529,0,0,0,.1-.376,6.986,6.986,0,0,0-2.99-6.868,2.13,2.13,0,0,1-1.1-2.246c.007-.048,0-.1,0-.146.026-.352-.152-.814.077-1.026.191-.176.644-.068.981-.086.331.071.792-.15.969.1.162.23.073.662.038,1a.8.8,0,0,0,.411.793,9.38,9.38,0,0,1-5.6,16.884c-.517-.045-1.04-.056-1.551-.14a9.362,9.362,0,0,1-4.015-16.769.821.821,0,0,0,.375-.761q-.014-10.244-.006-20.486a6.707,6.707,0,0,1,.075-1.312,5.193,5.193,0,0,1,9.85-1.243c.4.821.382.829-.511,1.069a.563.563,0,0,0-.126.066,3.338,3.338,0,0,0-.568.124c-.35.139-.5.059-.667-.313a2.964,2.964,0,0,0-2.855-1.9,3.086,3.086,0,0,0-3.119,3.007c-.025,1.313,0,2.627-.011,3.94,0,.234.032.345.309.339.94-.022,1.88-.017,2.82-.022h4.2c.582,0,1.165,0,1.747.02.222.007.315-.043.306-.289-.019-.5-.012-1,0-1.506,0-.192-.025-.3-.259-.288-.6.023-1.2.021-1.794.029-.923-.008-1.845-.028-2.767-.018-.291,0-.4-.07-.388-.376a12.856,12.856,0,0,0,0-1.36c-.016-.306.1-.38.388-.377.922.011,1.844-.008,2.766-.016.356.008.712.022,1.068.023,1.047,0,1.047,0,.888-1.059a6.236,6.236,0,0,0-6.151-5.166,1.793,1.793,0,0,0-.241-.015A6.243,6.243,0,0,0,60.232,88c-.006,3.754,0,7.508,0,11.261,0,.372.111.831-.065,1.089s-.666.018-1.011.1c-.316-.074-.74.127-.931-.092s-.061-.652-.062-.989c-.005-3.79-.016-7.579,0-11.368a8.311,8.311,0,0,1,16.61-.533c.093,3.771.028,7.545.031,11.318,0,2.846,0,5.692-.006,8.538a.975.975,0,0,0,.319.759c3.578,3.628,4.777,7.941,3.237,12.791-1.506,4.744-4.888,7.563-9.785,8.544-.272.054-.578-.029-.818.174H65.015c-.134-.187-.353-.125-.528-.157a12.48,12.48,0,0,1-10.262-9.866,2.662,2.662,0,0,0-.241-1.008Z" transform="translate(-5789 -7150)" fill="#020202"/>
      <path id="Trazado_277578" data-name="Trazado 277578" d="M96.325,94.208a5.673,5.673,0,0,1,.336,2.049,2.642,2.642,0,0,1-.485.021c-.4-.057-.6.067-.583.509a2.073,2.073,0,0,1-.176.9,9.179,9.179,0,0,1-2.574.671,5.936,5.936,0,0,1-3.617-.944,5.828,5.828,0,0,1-2.849-4.365,5.179,5.179,0,0,1,8.563.616c.162.272.188.725.468.8s.608-.157.917-.253" transform="translate(-5789 -7150)" fill="#fdd547"/>
      <path id="Trazado_277579" data-name="Trazado 277579" d="M96.325,94.208c-.309.1-.65.321-.917.253s-.306-.524-.468-.8a5.179,5.179,0,0,0-8.563-.616,4.615,4.615,0,0,0-1.049,2.206c-.071.328,0,.786-.193.958s-.643.074-.98.094c-.08-.008-.161-.021-.241-.023-.816-.012-.816-.012-.731-.814a7.295,7.295,0,0,1,13.958-2.064c.149.349.121.521-.275.594a2.955,2.955,0,0,0-.541.208" transform="translate(-5789 -7150)" fill="#040302"/>
      <path id="Trazado_277580" data-name="Trazado 277580" d="M84.155,96.306c.337-.02.782.083.98-.092s.122-.632.193-.959a4.626,4.626,0,0,1,1.048-2.207,5.831,5.831,0,0,0,2.85,4.365,5.936,5.936,0,0,0,3.617.944,9.194,9.194,0,0,0,2.573-.669,5.138,5.138,0,0,1-4.335,3.753,5.245,5.245,0,0,1-5.131-2.506c-.173-.289-.206-.762-.5-.843-.275-.075-.635.159-.958.257a7.7,7.7,0,0,1-.339-2.043" transform="translate(-5789 -7150)" fill="#fdb03b"/>
      <path id="Trazado_277581" data-name="Trazado 277581" d="M84.494,98.349c.323-.1.684-.332.959-.256.291.08.324.554.5.842a5.243,5.243,0,0,0,5.131,2.506,5.138,5.138,0,0,0,4.336-3.754,2.058,2.058,0,0,0,.176-.9c-.016-.442.179-.567.584-.51a2.545,2.545,0,0,0,.484-.021,2.589,2.589,0,0,0,.533.02c.473-.076.556.131.517.558a7.3,7.3,0,0,1-13.829,2.641c-.375-.749-.375-.749.391-1.026.076-.027.147-.066.221-.1" transform="translate(-5789 -7150)" fill="#020202"/>
      <path id="Trazado_277582" data-name="Trazado 277582" d="M85.249,102.915c-.078.082-.142.154-.21.222-.825.827-1.658,1.645-2.471,2.483-.205.211-.317.178-.5-.016-.319-.344-.655-.675-1-.995-.172-.164-.206-.271-.014-.458.849-.827,1.681-1.669,2.519-2.5.112-.113.2-.256.383-.061.377.4.776.783,1.165,1.175a1.622,1.622,0,0,1,.121.155" transform="translate(-5789 -7150)" fill="#070707"/>
      <path id="Trazado_277583" data-name="Trazado 277583" d="M98.49,86.754c.133-.008.175.1.239.16.36.352.7.721,1.074,1.06.188.171.145.265-.012.419-.843.832-1.682,1.668-2.508,2.516-.184.189-.292.172-.459-.007-.344-.366-.7-.717-1.063-1.069-.117-.114-.18-.2-.027-.347.879-.865,1.748-1.741,2.62-2.612.045-.045.1-.084.136-.12" transform="translate(-5789 -7150)" fill="#070707"/>
      <path id="Trazado_277584" data-name="Trazado 277584" d="M85.243,89.643c-.045.063-.07.1-.1.139s-.068.07-.1.1c-.4.4-.784,1.074-1.221,1.114s-.809-.69-1.214-1.077c-.5-.482-.98-.994-1.486-1.474-.2-.191-.268-.311-.021-.528.365-.32.7-.676,1.035-1.029.141-.148.228-.164.383-.007.853.868,1.717,1.724,2.577,2.585.054.054.1.115.15.173" transform="translate(-5789 -7150)" fill="#040302"/>
      <path id="Trazado_277585" data-name="Trazado 277585" d="M99.978,104.382c-.075.081-.129.141-.185.2-.355.356-.723.7-1.062,1.071-.172.188-.273.141-.425-.013q-1.265-1.281-2.544-2.547c-.147-.144-.162-.226,0-.374.378-.355.743-.724,1.1-1.1.15-.159.242-.14.388.007.854.866,1.717,1.723,2.576,2.584.053.053.1.112.156.177" transform="translate(-5789 -7150)" fill="#020202"/>
      <path id="Trazado_277586" data-name="Trazado 277586" d="M80.032,97.308c-.6,0-1.2-.008-1.8,0-.227,0-.318-.062-.31-.3.016-.5.014-1.006,0-1.509-.006-.221.083-.271.284-.27q1.825.009,3.651,0c.191,0,.251.061.247.249-.011.519-.018,1.039,0,1.558.011.266-.118.278-.322.275-.584-.009-1.168,0-1.752,0" transform="translate(-5789 -7150)" fill="#020202"/>
      <path id="Trazado_277587" data-name="Trazado 277587" d="M91.472,106.688c0,.568-.012,1.136,0,1.7.009.275-.032.423-.361.392a13.209,13.209,0,0,1-1.687-.063c-.011-.533-.027-1.067-.031-1.6-.005-.73.008-1.46-.006-2.19,0-.246.05-.344.317-.332.486.022.974.025,1.459,0,.284-.015.313.109.308.339-.012.584,0,1.168,0,1.752" transform="translate(-5789 -7150)" fill="#020202"/>
      <path id="Trazado_277588" data-name="Trazado 277588" d="M91.472,85.886c0,.586-.01,1.17,0,1.755.006.232-.061.307-.3.3-.5-.017-1.007-.014-1.51,0-.215.006-.277-.065-.275-.278q.012-1.8,0-3.605c0-.213.066-.3.277-.271a.629.629,0,0,0,.1,0c.551.008,1.276-.194,1.6.079s.071,1.036.1,1.583c.008.146,0,.292,0,.438" transform="translate(-5789 -7150)"/>
      <path id="Trazado_277589" data-name="Trazado 277589" d="M100.794,97.307c-.568,0-1.137-.013-1.705.006-.258.008-.336-.071-.326-.328.02-.486.018-.974,0-1.46-.009-.239.072-.3.3-.3q1.777.017,3.556,0c.231,0,.309.06.3.3-.018.486-.02.974,0,1.46.011.259-.07.335-.327.327-.6-.018-1.2-.006-1.8-.006" transform="translate(-5789 -7150)"/>
      <path id="Trazado_277590" data-name="Trazado 277590" d="M59.157,102.508c.343.084.835-.145,1.006.1s.065.712.067,1.08c0,.9,0,.9-.88.915-.065,0-.129.01-.193.015-1-.048-1.005-.048-1-1.05,0-.333-.15-.768.07-.971.182-.167.607-.07.925-.09" transform="translate(-5789 -7150)"/>
      <path id="Trazado_277591" data-name="Trazado 277591" d="M59.363,118.466a6.941,6.941,0,0,1,1.336-5.785A6.409,6.409,0,0,1,62.68,110.9a1.3,1.3,0,0,0,.683-1.244c-.011-4.974,0-9.949-.016-14.925,0-.443.107-.585.559-.562.86.045,1.722.028,2.583.036q0,2.241-.008,4.483-.006,11.842-.008,23.684c-.223-.032-.445-.08-.668-.094a7.925,7.925,0,0,1-5.062-2.262c-.512-.474-.89-1.059-1.38-1.55" transform="translate(-5789 -7150)" fill="#d0093a"/>
      <path id="Trazado_277592" data-name="Trazado 277592" d="M66.472,122.372q0-11.841.008-23.684,0-2.241.008-4.483h4.18V96.26c-.906.008-1.813.032-2.718.015-.348-.007-.45.1-.427.438a7.948,7.948,0,0,1,0,1.165c-.027.367.07.5.47.49.889-.029,1.779,0,2.67.005l0,2.033c-.905.008-1.813.027-2.719.018-.3,0-.441.063-.418.4a9.889,9.889,0,0,1,0,1.311c-.023.338.114.4.418.4.906-.009,1.814.01,2.719.018l0,2.033c-.906.005-1.814.028-2.72.007-.352-.008-.442.108-.42.438a8.783,8.783,0,0,1,0,1.214c-.022.334.077.446.427.439.9-.018,1.811.006,2.717.013q0,.507,0,1.013c-.336.018-.79-.09-.981.087-.229.211-.051.673-.077,1.025,0,.049.005.1,0,.146a2.131,2.131,0,0,0,1.1,2.246,6.986,6.986,0,0,1,2.99,6.868,2.5,2.5,0,0,1-.1.376,16.849,16.849,0,0,1-1.211,1.446,8.671,8.671,0,0,1-5.9,2.462Zm3.168-7.632a1.312,1.312,0,0,0-1.4,1.447,3.008,3.008,0,0,0,2.606,2.671,1.331,1.331,0,0,0,1.514-1.48,2.919,2.919,0,0,0-2.718-2.638m2.726-.74a1.474,1.474,0,0,0-1.345-1.365.712.712,0,0,0-.71.851,1.578,1.578,0,0,0,1.23,1.234.687.687,0,0,0,.825-.72" transform="translate(-5789 -7150)" fill="#fc636e"/>
      <path id="Trazado_277593" data-name="Trazado 277593" d="M66.481,92.093c-.94,0-1.88,0-2.82.022-.277.007-.311-.1-.309-.339.01-1.313-.014-2.626.011-3.939a3.087,3.087,0,0,1,3.119-3.008q0,3.633,0,7.264" transform="translate(-5789 -7150)" fill="#cbd0df"/>
      <path id="Trazado_277594" data-name="Trazado 277594" d="M66.481,92.093q0-3.632,0-7.264a2.967,2.967,0,0,1,2.855,1.9c.162.372.317.452.668.313a3.506,3.506,0,0,1,.567-.124q.053.5.106,1c-.923.008-1.845.027-2.767.017-.292,0-.4.07-.388.377a12.838,12.838,0,0,1,0,1.359c-.016.307.1.38.388.377.922-.01,1.845.009,2.767.017q0,1.017,0,2.034Z" transform="translate(-5789 -7150)" fill="#dadfe9"/>
      <path id="Trazado_277595" data-name="Trazado 277595" d="M59.363,118.466c.49.491.868,1.076,1.38,1.55a7.925,7.925,0,0,0,5.062,2.262c.223.014.445.062.668.094l.017,0,0,2.015a7.262,7.262,0,0,1-6.734-4.474,3.964,3.964,0,0,1-.4-1.445" transform="translate(-5789 -7150)" fill="#a10134"/>
      <path id="Trazado_277596" data-name="Trazado 277596" d="M66.493,124.386l0-2.016a8.673,8.673,0,0,0,5.9-2.462,17.4,17.4,0,0,0,1.211-1.447,6.63,6.63,0,0,1-2.094,3.908,7.073,7.073,0,0,1-5.014,2.017" transform="translate(-5789 -7150)" fill="#ed3048"/>
      <path id="Trazado_277597" data-name="Trazado 277597" d="M69.641,114.74a2.917,2.917,0,0,1,2.716,2.638,1.329,1.329,0,0,1-1.513,1.48,3.006,3.006,0,0,1-2.605-2.671,1.312,1.312,0,0,1,1.4-1.447" transform="translate(-5789 -7150)" fill="#f6f9fe"/>
      <path id="Trazado_277598" data-name="Trazado 277598" d="M72.366,114a.687.687,0,0,1-.825.72,1.578,1.578,0,0,1-1.23-1.234.712.712,0,0,1,.71-.851A1.474,1.474,0,0,1,72.366,114" transform="translate(-5789 -7150)" fill="#f1f4f9"/>
    </g>
  </g>
</svg>
