<svg xmlns="http://www.w3.org/2000/svg" width="71.869" height="71.87" viewBox="0 0 71.869 71.87">
  <g id="Grupo_261806" data-name="Grupo 261806" transform="translate(5746.48 6851.844)">
    <g id="Grupo_260500" data-name="Grupo 260500">
      <path id="Trazado_277604" data-name="Trazado 277604" d="M114.389,334.091a35.934,35.934,0,1,1-35.935-35.935,35.935,35.935,0,0,1,35.935,35.935" transform="translate(-5789 -7150)" fill="#fff"/>
      <path id="Trazado_277776" data-name="Trazado 277776" d="M66.82,342.224c.176-.2.408-.1.612-.1q8.385-.009,16.768-.008c.194,0,.4.065.58-.074a10.206,10.206,0,0,0,4.426.885c1.218-.025,1.2-.005,1.209-1.219,0-.35-.121-.4-.426-.4a16.321,16.321,0,0,1-2.253-.069,8.016,8.016,0,0,1-1.409-15.579,12.189,12.189,0,0,1,6.053-.193,10.683,10.683,0,0,1,8.831,8.084c1.223,4.469-.049,8.338-3.485,11.468-.525.479-.539.464-.179,1.057a5.668,5.668,0,0,1-1.825.863c-.723.29-1.468.525-2.2.784-.167.005-.333.013-.5.013q-10.518,0-21.034,0c-.825,0-.825,0-.865.807H67.942a.99.99,0,0,1-.014-.247c.1-.505-.136-.6-.591-.569-.593.041-1.191.01-1.787.01-.81,0-.81,0-.852.806H61.519a2.956,2.956,0,0,1-.012-.45c.034-.282-.067-.365-.354-.363-2.557.014-5.114.014-7.671.019,0-.633.02-1.267-.015-1.9-.023-.416.11-.534.528-.532,2.648.016,5.3,0,7.943,0a3.333,3.333,0,0,0,3.655.462c.616-.294,1.223-.607,1.834-.912.736-.369,1.472-.741,2.265-1.138l-2.872-1.51m17.65,3.907c1.472,0,2.943,0,4.415,0a19.466,19.466,0,0,0,3.053-.115,9.638,9.638,0,0,0,2.007-18.479,13.216,13.216,0,0,0-5.227-.673,6.419,6.419,0,0,0-1.458,12.653,14.949,14.949,0,0,0,4.295.161,3.962,3.962,0,0,0,3.66-3.741,4.015,4.015,0,0,0-3.233-4.172,11.886,11.886,0,0,0-2.451-.074,2.4,2.4,0,0,0,0,4.8c.418.014.836,0,1.254,0,1.282,0,1.272,0,1.239-1.284-.008-.273-.091-.334-.345-.328-.668.017-1.337.015-2.006,0a.8.8,0,1,1,.016-1.6c.535-.01,1.07-.015,1.605,0a2.4,2.4,0,0,1-.021,4.807c-.886.02-1.773.022-2.659,0a4.8,4.8,0,0,1-1.1-9.432,10.636,10.636,0,0,1,4.035-.1,8.019,8.019,0,0,1-1.221,15.957c-3.863.008-7.726,0-11.589,0-1.189,0-1.172,0-1.187,1.186-.005.368.113.429.45.428,2.157-.016,4.314-.009,6.471-.009" transform="translate(-5789 -7150)" fill="#cacfd7"/>
      <path id="Trazado_277777" data-name="Trazado 277777" d="M97.547,346.074c-.359-.592-.346-.578.18-1.057a11.236,11.236,0,0,0-5.347-19.552,12.19,12.19,0,0,0-6.053.194,8.016,8.016,0,0,0,1.41,15.579,16.145,16.145,0,0,0,2.252.068c.306,0,.428.05.426.4-.006,1.214.009,1.194-1.209,1.219a9.73,9.73,0,0,1-8.238-4.018,10.341,10.341,0,0,1-1.039-1.929.622.622,0,0,0-.706-.493c-3.209.023-6.419.013-9.628.013-.986,0-1.972-.006-2.958,0-.221,0-.313-.034-.325-.293-.06-1.318-.07-1.318,1.251-1.318h.4c3.627,0,7.255-.007,10.882.011.395,0,.487-.1.408-.469a9.8,9.8,0,0,1-.074-2.048,2.049,2.049,0,0,0,.062-.239,9.535,9.535,0,0,1,3.722-6.516l.449-.354H70.934a6.414,6.414,0,0,1,.045,2.995,6.665,6.665,0,0,1-3.038,4.177,10.6,10.6,0,0,1-1.723.657,16.831,16.831,0,0,1-4,.169,4,4,0,0,1-.656-7.938,12.058,12.058,0,0,1,2.4-.07,2.4,2.4,0,0,1,.529,4.729,7.11,7.11,0,0,1-1.748.076c-1.284.013-1.272,0-1.254-1.263.005-.3.111-.352.376-.345.635.017,1.271.011,1.906,0,.584-.006.944-.325.935-.815a.815.815,0,0,0-.912-.787c-.518-.007-1.037-.012-1.555,0a2.4,2.4,0,0,0-.02,4.806c.9.024,1.806.026,2.708,0a4.8,4.8,0,0,0,1.092-9.425,10.577,10.577,0,0,0-4.035-.1A8.018,8.018,0,0,0,63.163,338.1c3.98.01,7.96,0,11.941,0,.826,0,.826,0,.867.8-.041.8-.041.8-.869.8q-5.894,0-11.788,0a9.63,9.63,0,0,1-1.474-19.174,13.889,13.889,0,0,1,4.147.043,6.161,6.161,0,0,1,4.077,2.759.575.575,0,0,0,.545.324c4.515-.013,9.03.015,13.545-.019a6.412,6.412,0,0,0,6.248-6.515,3.21,3.21,0,0,0-6.416-.009,1.635,1.635,0,0,0,1.377,1.7,1.579,1.579,0,0,0,1.78-1.26c.068-.323.2-.35.458-.336a4.474,4.474,0,0,0,.8,0c.4-.05.423.143.37.461a3.223,3.223,0,1,1-6.377-.943,4.86,4.86,0,0,1,4.432-4.317,4.809,4.809,0,0,1,5.034,3.65,6.447,6.447,0,0,1-.351,3.882c-.171.455-.055.511.37.493a22.186,22.186,0,0,1,2.307,0,1.4,1.4,0,0,0,1.211-.51,3.251,3.251,0,0,1,3.187-1.012,1.409,1.409,0,0,1,.336.1c1.479.716,2.955,1.437,4.533,2.206l-2.627,1.316c-.462.232-.921.469-1.386.695a3.244,3.244,0,0,1-4.026-.683,1.528,1.528,0,0,0-1.255-.528c-1.135.045-2.274.022-3.411.008a.651.651,0,0,0-.588.279,8.258,8.258,0,0,1-1.369,1.332c.56,0,1,0,1.445,0a12.718,12.718,0,0,1,12.729,10.3,12.466,12.466,0,0,1-4.375,12.452c-.381.335-.614.343-.846-.113a1.108,1.108,0,0,0-.2-.22m2.305-24.829c-.528-.261-.934-.488-1.36-.666a1.71,1.71,0,0,0-1.919.443c-.166.173-.165.272,0,.444a1.706,1.706,0,0,0,1.872.46c.444-.178.863-.415,1.406-.681" transform="translate(-5789 -7150)" fill="#020303"/>
      <path id="Trazado_277778" data-name="Trazado 277778" d="M75.971,338.908c-.041-.8-.041-.8-.867-.8-3.981,0-7.961.008-11.941,0a8.019,8.019,0,0,1-1.174-15.959,10.577,10.577,0,0,1,4.035.1,4.8,4.8,0,0,1-1.092,9.424c-.9.031-1.806.028-2.708.005a2.4,2.4,0,0,1,.02-4.806c.518-.015,1.037-.01,1.555,0a.815.815,0,0,1,.912.787c.009.489-.351.809-.935.815-.635.006-1.271.013-1.906,0-.265-.007-.371.041-.376.344-.018,1.268-.03,1.277,1.254,1.263a7.061,7.061,0,0,0,1.748-.076,2.4,2.4,0,0,0-.529-4.729,12.134,12.134,0,0,0-2.4.07,4,4,0,0,0,.656,7.938,16.829,16.829,0,0,0,4-.168,10.788,10.788,0,0,0,1.723-.657c.233.012.466.036.7.033,3.513-.052,7.029.115,10.541-.1a9.815,9.815,0,0,0,.074,2.049c.079.366-.013.47-.408.468-3.627-.018-7.255-.01-10.882-.01h-.4c-1.321,0-1.311,0-1.251,1.318.012.259.1.294.325.292.986-.01,1.972,0,2.958,0,3.209,0,6.419.01,9.628-.013a.622.622,0,0,1,.706.493,10.349,10.349,0,0,0,1.039,1.93h-5" transform="translate(-5789 -7150)" fill="#e4e7eb"/>
      <path id="Trazado_277779" data-name="Trazado 277779" d="M71.121,348.543c.041-.807.041-.807.865-.807H93.02c.166,0,.333-.01.5-.015a10.955,10.955,0,0,1,2.289.195,5.617,5.617,0,0,1-1.218,11.059,4.925,4.925,0,0,1-3.459-.868,4.008,4.008,0,0,1,2.479-7.158,2.407,2.407,0,0,1,.061,4.814c-.858.029-.858.029-.858-.846a1.887,1.887,0,0,0,0-.3c-.061-.364.06-.51.449-.464a.925.925,0,0,0,1.071-.452.732.732,0,0,0-.1-.843,1.049,1.049,0,0,0-1.2-.223,2.4,2.4,0,0,0,.524,4.73,7.386,7.386,0,0,0,1.55-.061,4.007,4.007,0,0,0-.7-7.956q-11.21-.016-22.419,0c-.83,0-.83,0-.87-.8" transform="translate(-5789 -7150)" fill="#020202"/>
      <path id="Trazado_277780" data-name="Trazado 277780" d="M75.83,313.236c-2.092,1.177-3.789,2.855-6.033,3.623a5.626,5.626,0,0,1-6.414-1.6,2.287,2.287,0,0,1-.424-.615c-.195-.55-.563-.663-1.107-.641-1.068.043-2.138,0-3.207.019-.281.005-.358-.071-.361-.356-.015-1.257-.025-1.257,1.208-1.257q1.378,0,2.757,0c.2,0,.367.009.485-.232,1.174-2.394,3.864-3.651,7.061-2.621a7.722,7.722,0,0,1,1.925.939l4.11,2.737m-8.273,2.393a6.164,6.164,0,0,0,1.439-.2,13.116,13.116,0,0,0,3.727-2.106c.262-.167-.033-.239-.119-.3q-1.014-.691-2.044-1.357a5.5,5.5,0,0,0-1.751-.718,3.914,3.914,0,0,0-4.669,1.984.546.546,0,0,0,0,.555,3.757,3.757,0,0,0,3.42,2.139" transform="translate(-5789 -7150)" fill="#030303"/>
      <path id="Trazado_277781" data-name="Trazado 277781" d="M64.922,353.356a1.5,1.5,0,0,1,.2,0,2.322,2.322,0,0,0,2.353-.97,4.28,4.28,0,0,1,5.717-.679c1.046.716,2.035,1.513,3.058,2.262.228.166.178.245-.017.389-1,.73-1.962,1.5-2.974,2.207a4.456,4.456,0,0,1-6.3-1.213.778.778,0,0,0-.762-.4c-.9.028-1.8,0-2.705.015-.285.006-.4-.035-.4-.369,0-1.243-.016-1.243,1.223-1.243Zm5.819,2.416c.123-.016.322-.035.519-.069a6.312,6.312,0,0,0,2.383-1.418c.2-.134.051-.217-.055-.3-.442-.329-.869-.68-1.332-.977a2.893,2.893,0,0,0-4,.889.38.38,0,0,0-.019.491,3.028,3.028,0,0,0,2.506,1.38" transform="translate(-5789 -7150)" fill="#030302"/>
      <path id="Trazado_277782" data-name="Trazado 277782" d="M66.821,342.225l2.872,1.508c-.793.4-1.529.769-2.266,1.138-.61.306-1.217.62-1.834.912a3.334,3.334,0,0,1-3.655-.462,1.758,1.758,0,0,0-1.769-.812c-1.047.068-2.1.009-3.153.022-.255,0-.332-.059-.337-.327-.028-1.285-.038-1.285,1.228-1.285.817,0,1.637-.036,2.452.013a1.639,1.639,0,0,0,1.386-.568,3.26,3.26,0,0,1,3.944-.657c.374.18.754.346,1.132.518m-.682,1.5c-.534-.263-.941-.49-1.369-.667a1.728,1.728,0,0,0-1.952.487c-.1.117-.141.187-.028.334a1.754,1.754,0,0,0,1.946.524c.443-.177.862-.414,1.4-.678" transform="translate(-5789 -7150)" fill="#030302"/>
      <path id="Trazado_277783" data-name="Trazado 277783" d="M76.807,320.441c1.2,0,2.408.009,3.611-.007.284,0,.357.076.36.358.014,1.254.024,1.254-1.213,1.254-2.14,0-4.28-.007-6.42.008-.327,0-.413-.082-.411-.409.007-1.2-.006-1.2,1.214-1.2Z" transform="translate(-5789 -7150)"/>
      <path id="Trazado_277784" data-name="Trazado 277784" d="M53.482,347.749c2.557,0,5.114,0,7.671-.019.287,0,.388.081.354.363a2.949,2.949,0,0,0,.012.45c-.04.8-.04.8-.868.8-2.255,0-4.509-.005-6.764.006-.307,0-.451-.047-.42-.4.036-.4.013-.8.015-1.2" transform="translate(-5789 -7150)"/>
      <path id="Trazado_277785" data-name="Trazado 277785" d="M64.7,348.543c.042-.806.042-.806.852-.806.6,0,1.194.031,1.787-.01.454-.032.692.064.591.57a.978.978,0,0,0,.013.246c-.04.8-.04.8-.869.8-.619,0-1.239-.029-1.855.01-.416.027-.582-.089-.506-.51a1.373,1.373,0,0,0-.013-.3" transform="translate(-5789 -7150)"/>
      <path id="Trazado_277786" data-name="Trazado 277786" d="M84.47,346.131c-2.157,0-4.314-.007-6.471.009-.337,0-.455-.06-.45-.428.015-1.186,0-1.186,1.187-1.186,3.863,0,7.726.006,11.589,0a8.019,8.019,0,0,0,1.221-15.957,10.636,10.636,0,0,0-4.035.1,4.8,4.8,0,0,0,1.1,9.432c.886.026,1.773.024,2.659,0a2.4,2.4,0,0,0,.021-4.807c-.535-.017-1.07-.012-1.605,0a.8.8,0,1,0-.016,1.6c.669.012,1.338.014,2.006,0,.254-.006.337.055.345.328.033,1.284.043,1.284-1.239,1.284-.418,0-.836.01-1.254,0a2.4,2.4,0,0,1,0-4.8,11.886,11.886,0,0,1,2.451.074,4.015,4.015,0,0,1,3.233,4.172,3.962,3.962,0,0,1-3.66,3.741,14.949,14.949,0,0,1-4.295-.161,6.419,6.419,0,0,1,1.458-12.653,13.216,13.216,0,0,1,5.227.673,9.638,9.638,0,0,1-2.007,18.479,19.466,19.466,0,0,1-3.053.115c-1.472.005-2.943,0-4.415,0" transform="translate(-5789 -7150)" fill="#020202"/>
      <path id="Trazado_277787" data-name="Trazado 277787" d="M99.852,321.245c-.543.266-.962.5-1.406.681a1.706,1.706,0,0,1-1.872-.46c-.166-.172-.167-.271,0-.444a1.71,1.71,0,0,1,1.919-.443c.426.178.832.4,1.36.666" transform="translate(-5789 -7150)" fill="#9ccf65"/>
      <path id="Trazado_277788" data-name="Trazado 277788" d="M67.557,315.629a3.757,3.757,0,0,1-3.42-2.139.546.546,0,0,1,0-.555,3.914,3.914,0,0,1,4.669-1.984,5.5,5.5,0,0,1,1.751.718q1.031.666,2.044,1.357c.086.058.381.13.119.3A13.116,13.116,0,0,1,69,315.429a6.164,6.164,0,0,1-1.439.2" transform="translate(-5789 -7150)" fill="#b2da7d"/>
      <path id="Trazado_277789" data-name="Trazado 277789" d="M70.741,355.772a3.028,3.028,0,0,1-2.506-1.38.38.38,0,0,1,.019-.491,2.893,2.893,0,0,1,4-.889c.463.3.89.648,1.332.977.106.079.251.162.055.3A6.312,6.312,0,0,1,71.26,355.7c-.2.034-.4.053-.519.069" transform="translate(-5789 -7150)" fill="#b1d97d"/>
      <path id="Trazado_277790" data-name="Trazado 277790" d="M66.139,343.723c-.541.264-.96.5-1.4.678a1.754,1.754,0,0,1-1.946-.524c-.113-.147-.069-.217.028-.334a1.728,1.728,0,0,1,1.952-.487c.428.177.835.4,1.369.667" transform="translate(-5789 -7150)" fill="#9ccf65"/>
    </g>
  </g>
</svg>
