<svg xmlns="http://www.w3.org/2000/svg" width="71.869" height="71.87" viewBox="0 0 71.869 71.87">
  <g id="Grupo_261809" data-name="Grupo 261809" transform="translate(5746.48 6622.349)">
    <g id="Grupo_261807" data-name="Grupo 261807">
      <path id="Trazado_277610" data-name="Trazado 277610" d="M114.389,563.586a35.934,35.934,0,1,1-35.935-35.935,35.935,35.935,0,0,1,35.935,35.935" transform="translate(-5789 -7150)" fill="#fff"/>
    </g>
    <path id="Trazado_277791" data-name="Trazado 277791" d="M91.009,552.985c.27-.673.5-.806,1.213-.7a13.626,13.626,0,0,1,.4,26.759,12.617,12.617,0,0,1-4.871.122c-.4-.068-.525-.022-.638.406-1.678,6.341-5.563,10.614-11.884,12.57a12.883,12.883,0,0,1-2.9.545c-.091.006-.194-.018-.23.106H68.671a13.8,13.8,0,0,0-2.076-.439c-6.918-1.834-11.152-6.313-12.722-13.219A16.086,16.086,0,0,1,56.737,565.8q5.7-8,11.426-15.981a2.737,2.737,0,0,1,4.707-.019c.59.814,1.155,1.648,1.76,2.451a.973.973,0,0,1-.026,1.421c-.685.246-.94.176-1.359-.4-.567-.784-1.122-1.576-1.687-2.362-.7-.968-1.378-.97-2.067-.006L58.171,566.74a19.384,19.384,0,0,0-1.69,2.892c-.187.39-.074.521.3.615a2.539,2.539,0,0,0,2.653-.719c1-1.058,1.664-1.069,2.637-.02a2.51,2.51,0,0,0,3.2.483l.012-.007.1-.046a1.8,1.8,0,0,0,.562-.472c.9-.989,1.654-.983,2.559.022a2.585,2.585,0,0,0,3.838.042c.992-1.066,1.656-1.07,2.635-.021a2.409,2.409,0,0,0,2.027.824,13.634,13.634,0,0,1,.578-10.571.47.47,0,0,0-.086-.555c-.548-.751-1.067-1.524-1.629-2.264a.992.992,0,0,1,.006-1.426c.7-.262.944-.19,1.394.431s.907,1.263,1.391,1.938a14.532,14.532,0,0,1,2.867-2.984,13.373,13.373,0,0,1,5.972-2.621c.741-.123.961,0,1.266.7-.037.691-.491.9-1.091,1.013a11.9,11.9,0,0,0-3,22.439,11.012,11.012,0,0,0,6.3,1.1,5.147,5.147,0,0,0,1.07-.122,11.919,11.919,0,0,0,1.026-23.194,8.932,8.932,0,0,1-1.753-.461,1.184,1.184,0,0,1-.294-.775m-26.553,19.08a4.275,4.275,0,0,1-3.312-1.081c-.293-.276-.426-.308-.75-.018a4.116,4.116,0,0,1-4.19.885c-.4-.125-.495-.044-.585.338a15.009,15.009,0,0,0,1.557,11.062A15.166,15.166,0,0,0,74,590.677c.2-.043.411-.071.61-.13,5.84-1.754,9.373-5.683,10.885-11.529.09-.345-.045-.4-.315-.5a13.425,13.425,0,0,1-7.215-6.128.582.582,0,0,0-.665-.345,4.092,4.092,0,0,1-3.379-1.173c-.233-.226-.333-.157-.532.023a4.25,4.25,0,0,1-5.92-.022c-.19-.17-.29-.227-.494-.018a4.314,4.314,0,0,1-2.516,1.212" transform="translate(-5789 -7150)" fill="#030404"/>
    <path id="Trazado_277792" data-name="Trazado 277792" d="M65.268,569.99a2.511,2.511,0,0,1-3.2-.483c-.972-1.049-1.64-1.038-2.636.02a2.54,2.54,0,0,1-2.653.72c-.373-.1-.486-.225-.3-.615a19.394,19.394,0,0,1,1.69-2.893q5.659-7.916,11.32-15.833c.689-.964,1.369-.962,2.066.006.565.785,1.121,1.577,1.688,2.361.419.579.674.649,1.359.4.226.439.662.745.788,1.248a1.481,1.481,0,0,0-.254.223c-.907,1.259-1.806,2.522-2.71,3.783-1.587,2.215-3.167,4.434-4.766,6.64a21.831,21.831,0,0,0-2.277,3.8c-.086.19-.208.378-.008.572l-.1.045c-.019-.021-.037-.042-.056-.062l.044.069" transform="translate(-5789 -7150)" fill="#bad8fa"/>
    <path id="Trazado_277793" data-name="Trazado 277793" d="M90.96,577.537a11.012,11.012,0,0,1-6.3-1.1,11.9,11.9,0,0,1,3-22.439c.6-.113,1.054-.323,1.091-1.013a7.622,7.622,0,0,1,2.252,0,1.185,1.185,0,0,0,.294.776,12.1,12.1,0,0,0-5.907,4.451,3.625,3.625,0,0,0-.933,1.765l-.009-.005-.152.1a3.068,3.068,0,0,0-1.087,3.726c-.053.073-.142.141-.155.221a11.249,11.249,0,0,0,.007,3.551,12.58,12.58,0,0,0,2.388,5.745,12.372,12.372,0,0,0,5.5,4.225" transform="translate(-5789 -7150)" fill="#7fb2f9"/>
    <path id="Trazado_277794" data-name="Trazado 277794" d="M65.378,569.938c-.2-.193-.078-.381.008-.571a21.875,21.875,0,0,1,2.277-3.8c1.6-2.205,3.179-4.425,4.766-6.639.9-1.261,1.8-2.525,2.71-3.784a1.481,1.481,0,0,1,.254-.223c.248.125.321.391.474.593a.991.991,0,0,0,0,1.425c.562.741,1.081,1.513,1.629,2.264a.471.471,0,0,1,.086.556A13.631,13.631,0,0,0,77,570.332a2.406,2.406,0,0,1-2.027-.823c-.98-1.049-1.643-1.045-2.636.021a2.585,2.585,0,0,1-3.837-.042c-.9-1.005-1.655-1.011-2.559-.022a1.8,1.8,0,0,1-.562.472" transform="translate(-5789 -7150)" fill="#dfeffd"/>
    <path id="Trazado_277795" data-name="Trazado 277795" d="M76.751,544.106a6.053,6.053,0,0,1,1.114-3.653q1.889-2.672,3.805-5.324a1.465,1.465,0,0,1,2.55-.018c1.291,1.782,2.584,3.563,3.835,5.372a6.2,6.2,0,0,1-6.615,9.532,6.219,6.219,0,0,1-4.645-5.189c-.04-.281-.035-.569-.044-.72m7.371,4.2a4.428,4.428,0,0,0,2.79-6.4,23,23,0,0,0-2.258-3.183c-.483-.7-.987-1.385-1.442-2.1-.234-.367-.337-.255-.532.021-1.125,1.594-2.266,3.177-3.4,4.767a4.464,4.464,0,0,0,4.84,6.892" transform="translate(-5789 -7150)" fill="#040404"/>
    <path id="Trazado_277796" data-name="Trazado 277796" d="M64.456,572.065a4.314,4.314,0,0,0,2.516-1.212c.2-.209.3-.152.494.018a4.25,4.25,0,0,0,5.92.022c.2-.18.3-.249.532-.023a4.092,4.092,0,0,0,3.379,1.173.582.582,0,0,1,.665.345,13.425,13.425,0,0,0,7.215,6.128c.27.1.4.157.315.5-1.512,5.846-5.045,9.775-10.885,11.529-.2.059-.406.087-.61.13a13.405,13.405,0,0,1-4.5-2.817,16.141,16.141,0,0,1-5.389-11.108,18.256,18.256,0,0,1,.345-4.687" transform="translate(-5789 -7150)" fill="#cae1fd"/>
    <path id="Trazado_277797" data-name="Trazado 277797" d="M90.96,577.536a12.355,12.355,0,0,1-5.5-4.225,12.562,12.562,0,0,1-2.389-5.744,11.255,11.255,0,0,1-.006-3.552c.013-.08.1-.148.155-.221.1.162.187.33.294.485a2.977,2.977,0,0,0,5.08-3.087c-.776-1.466-2.344-1.928-4.126-1.217a3.614,3.614,0,0,1,.933-1.764,12.082,12.082,0,0,1,5.907-4.452,8.915,8.915,0,0,0,1.754.461,11.919,11.919,0,0,1-1.026,23.194,5.164,5.164,0,0,1-1.071.122m-4.067-4.777c.473,0,.7-.306.883-.689q1.914-3.937,3.841-7.87,1.062-2.172,2.127-4.341a.845.845,0,0,0-.165-1.09.812.812,0,0,0-.952-.127,1.109,1.109,0,0,0-.492.6q-2.945,6.03-5.894,12.057a2.492,2.492,0,0,0-.154.366.83.83,0,0,0,.806,1.09m9.858-4a2.974,2.974,0,1,0-2.986,2.939,2.959,2.959,0,0,0,2.986-2.939" transform="translate(-5789 -7150)" fill="#9cc4f9"/>
    <path id="Trazado_277798" data-name="Trazado 277798" d="M64.456,572.065a18.256,18.256,0,0,0-.345,4.687A16.141,16.141,0,0,0,69.5,587.86a13.405,13.405,0,0,0,4.5,2.817,15.166,15.166,0,0,1-16.821-7.426,15.009,15.009,0,0,1-1.557-11.062c.09-.382.182-.463.585-.338a4.116,4.116,0,0,0,4.19-.885c.324-.29.457-.258.75.018a4.275,4.275,0,0,0,3.312,1.081" transform="translate(-5789 -7150)" fill="#9cc5f9"/>
    <path id="Trazado_277799" data-name="Trazado 277799" d="M65.268,569.99l-.044-.069c.019.02.037.041.056.062l-.012.007" transform="translate(-5789 -7150)" fill="#dfeffd"/>
    <path id="Trazado_277800" data-name="Trazado 277800" d="M84.463,559.976c1.782-.711,3.349-.249,4.126,1.216a2.977,2.977,0,0,1-5.08,3.087c-.107-.155-.2-.323-.294-.485a3.065,3.065,0,0,1,1.087-3.725l.151-.1Zm1.466,3.863a1.264,1.264,0,0,0,1.3-1.23,1.269,1.269,0,0,0-2.538-.051,1.258,1.258,0,0,0,1.242,1.281" transform="translate(-5789 -7150)" fill="#030304"/>
    <path id="Trazado_277801" data-name="Trazado 277801" d="M84.454,559.97l-.151.1.151-.1" transform="translate(-5789 -7150)" fill="#9cc4f9"/>
    <path id="Trazado_277802" data-name="Trazado 277802" d="M84.122,548.3a4.464,4.464,0,0,1-4.84-6.892c1.132-1.59,2.273-3.173,3.4-4.767.195-.276.3-.388.532-.021.455.717.959,1.4,1.441,2.1-.594.831-1.223,1.638-1.771,2.5a5.062,5.062,0,0,0-.336,4.968,7.107,7.107,0,0,0,1.576,2.112" transform="translate(-5789 -7150)" fill="#b9d8f9"/>
    <path id="Trazado_277803" data-name="Trazado 277803" d="M84.122,548.3a7.107,7.107,0,0,1-1.576-2.112,5.062,5.062,0,0,1,.336-4.968c.548-.859,1.177-1.666,1.771-2.5a22.855,22.855,0,0,1,2.259,3.182,4.428,4.428,0,0,1-2.79,6.4" transform="translate(-5789 -7150)" fill="#dfeffd"/>
    <path id="Trazado_277804" data-name="Trazado 277804" d="M86.894,572.759a.829.829,0,0,1-.806-1.09,2.492,2.492,0,0,1,.154-.366q2.946-6.028,5.894-12.057a1.108,1.108,0,0,1,.491-.6.814.814,0,0,1,.953.127.846.846,0,0,1,.164,1.09q-1.063,2.171-2.126,4.341-1.923,3.933-3.842,7.87c-.186.382-.41.687-.882.689" transform="translate(-5789 -7150)" fill="#030304"/>
    <path id="Trazado_277805" data-name="Trazado 277805" d="M96.751,568.763a2.974,2.974,0,0,1-5.947-.035,2.974,2.974,0,1,1,5.947.035m-1.714-.018a1.247,1.247,0,0,0-1.241-1.274,1.259,1.259,0,1,0-.028,2.517,1.241,1.241,0,0,0,1.269-1.243" transform="translate(-5789 -7150)" fill="#020304"/>
    <path id="Trazado_277806" data-name="Trazado 277806" d="M85.929,563.839a1.258,1.258,0,0,1-1.242-1.281,1.269,1.269,0,0,1,2.538.051,1.264,1.264,0,0,1-1.3,1.23" transform="translate(-5789 -7150)" fill="#99c1f4"/>
    <path id="Trazado_277807" data-name="Trazado 277807" d="M95.037,568.745a1.241,1.241,0,0,1-1.269,1.243,1.259,1.259,0,1,1,.028-2.517,1.247,1.247,0,0,1,1.241,1.274" transform="translate(-5789 -7150)" fill="#9ac2f6"/>
  </g>
</svg>
