<svg xmlns="http://www.w3.org/2000/svg" width="71.869" height="71.87" viewBox="0 0 71.869 71.87">
  <g id="Grupo_261809" data-name="Grupo 261809" transform="translate(5144.962 6360.694)">
    <path id="Trazado_277700" data-name="Trazado 277700" d="M715.907,825.241a35.934,35.934,0,1,1-35.935-35.935,35.935,35.935,0,0,1,35.935,35.935" transform="translate(-5789 -7150)" fill="#fff"/>
    <path id="Trazado_277763" data-name="Trazado 277763" d="M672.731,824.909c-.59-.164-.732-.348-.742-.963,0-.017,0-.033,0-.049-.028-.615.225-1.346-.092-1.812s-1.014-.657-1.546-.968c-1.5-.875-3-1.741-4.491-2.633a.614.614,0,0,0-.74,0c-1.2.718-2.4,1.415-3.614,2.106a.421.421,0,0,0-.251.534,3.109,3.109,0,0,1-1.914,3.5.487.487,0,0,0-.371.555c.019,1.072.014,2.146,0,3.219a.461.461,0,0,0,.338.53,3.141,3.141,0,0,1,1.989,3.336,3.178,3.178,0,0,1-6.156.622c-.041-.11-.014-.27-.171-.323V831.2c.025-.017.067-.029.074-.052a3.159,3.159,0,0,1,2.252-2.332c.212-.062.216-.187.215-.359-.005-1.1-.01-2.207,0-3.31,0-.252-.069-.349-.321-.428A3.126,3.126,0,0,1,655.251,823c-.094-.2-.078-.446-.278-.592v-1.367c.158-.1.135-.282.188-.426a3.158,3.158,0,0,1,4.976-1.369.5.5,0,0,0,.7.05c1.168-.7,2.345-1.393,3.536-2.056a.664.664,0,0,0,.378-.689c-.011-2.409.006-4.818-.015-7.227a1.156,1.156,0,0,1,.654-1.135q3.379-1.938,6.732-3.926a1.05,1.05,0,0,1,1.22,0c.494.312,1,.613,1.513.886a.855.855,0,0,1,.5,1.12c-.455.458-.659.486-1.229.159-.379-.216-.762-.425-1.13-.659a.431.431,0,0,0-.524-.013c-.757.463-1.524.909-2.287,1.361-1.25.724-2.5,1.452-3.753,2.166a.424.424,0,0,0-.224.434q.006,3.488,0,6.974a.458.458,0,0,0,.266.457q2.989,1.734,5.97,3.486a.456.456,0,0,0,.533.02c1.519-.9,3.047-1.8,4.571-2.691.479-.273.952-.556,1.439-.812a.454.454,0,0,0,.25-.473q-.008-3.481,0-6.964a.465.465,0,0,0-.265-.466c-.482-.267-.945-.57-1.435-.82a.919.919,0,0,1-.577-1.139c.49-.483.676-.507,1.277-.159s1.194.728,1.814,1.046a1.149,1.149,0,0,1,.662,1.18c-.019,2.376,0,4.752-.016,7.127a.745.745,0,0,0,.423.768q2.879,1.638,5.722,3.334a.623.623,0,0,0,.744,0q2.892-1.71,5.808-3.381a.6.6,0,0,0,.343-.611q-.021-3.393,0-6.786a.6.6,0,0,0-.356-.607c-1.2-.682-2.394-1.372-3.575-2.086a.484.484,0,0,0-.666.066,3.134,3.134,0,0,1-3.557.3,3.166,3.166,0,1,1,4.684-2.225.475.475,0,0,0,.275.611q1.823,1.031,3.62,2.106a.5.5,0,0,0,.605-.008q1.8-1.068,3.619-2.108a.473.473,0,0,0,.293-.6,3.168,3.168,0,1,1,3,2.638,3.03,3.03,0,0,1-1.952-.772.382.382,0,0,0-.542-.05c-1.213.722-2.43,1.439-3.659,2.134a.6.6,0,0,0-.338.616c.011,2.425-.005,4.85.015,7.274a1.157,1.157,0,0,1-.66,1.132c-2.086,1.192-4.152,2.418-6.235,3.615a.638.638,0,0,0-.362.652q.021,3.369,0,6.737a.637.637,0,0,0,.366.649q2.893,1.66,5.764,3.36a.613.613,0,0,0,.738.014c1.192-.726,2.4-1.422,3.614-2.115a.42.42,0,0,0,.261-.528,3.173,3.173,0,1,1,1.2,1.932.658.658,0,0,0-.913-.042c-1.134.7-2.29,1.356-3.446,2.016a.562.562,0,0,0-.343.563q.021,3.588,0,7.176a.452.452,0,0,0,.351.52,3.163,3.163,0,0,1-1.051,6.135,3.162,3.162,0,0,1-1.134-6.13.483.483,0,0,0,.381-.551q-.02-3.564,0-7.128a.569.569,0,0,0-.325-.573q-2.953-1.7-5.891-3.432a.525.525,0,0,0-.616,0q-2.937,1.731-5.89,3.435a.573.573,0,0,0-.314.584c.009,2.344-.023,4.688.022,7.03a1.445,1.445,0,0,1-.9,1.539c-.543.252-1.044.593-1.564.893-.587.338-.8.309-1.28-.168-.188-.626.214-.926.663-1.2.451-.253.9-.515,1.356-.756a.417.417,0,0,0,.239-.43q-.008-3.51,0-7.021a.433.433,0,0,0-.245-.428q-3.012-1.745-6.015-3.5a.383.383,0,0,0-.446-.034c-.775.471-1.556.932-2.335,1.4-1.264.728-2.526,1.46-3.795,2.179-.2.114-.189.274-.189.452,0,2.29.006,4.581-.007,6.871a.57.57,0,0,0,.334.569c1.589.914,3.17,1.842,4.754,2.763.463.269.913.706,1.4.75.513.046.972-.452,1.437-.738a.9.9,0,0,1,1.228.092c.168.669.1.842-.5,1.191-.531.312-1.069.614-1.594.937a.918.918,0,0,1-1.044.014q-3.48-2.046-6.975-4.07a.924.924,0,0,1-.5-.873q.009-4.049,0-8.1a.99.99,0,0,1,.575-.931c2.106-1.218,4.2-2.453,6.312-3.663a.611.611,0,0,0,.365-.649c-.029-.438-.008-.878-.007-1.317,0-.74.086-.866.747-1.113a.867.867,0,0,1,.725,1.036c-.03.486,0,.975-.011,1.463a.5.5,0,0,0,.273.511q3.015,1.745,6.019,3.511a.381.381,0,0,0,.443.012q2.385-1.419,4.778-2.822c.41-.229.813-.47,1.231-.681a.517.517,0,0,0,.3-.542q-.014-3.435,0-6.87a.535.535,0,0,0-.315-.534q-2.969-1.718-5.924-3.458a.448.448,0,0,0-.53-.021c-.731.451-1.474.881-2.212,1.318q-1.919,1.105-3.839,2.209a.431.431,0,0,0-.226.439c.01.536-.01,1.073.007,1.609a.791.791,0,0,1-.728.918m-12.876,6.954a1.708,1.708,0,1,0-3.416.008,1.708,1.708,0,0,0,3.416-.008m0-10.182a1.708,1.708,0,1,0-3.416.037,1.708,1.708,0,0,0,3.416-.037m43.653,8.333a1.708,1.708,0,0,0-3.416.05,1.708,1.708,0,1,0,3.416-.05m-14.649-25.277a1.708,1.708,0,1,0-1.71,1.7,1.7,1.7,0,0,0,1.71-1.7m14.649.022a1.708,1.708,0,1,0-1.732,1.676,1.7,1.7,0,0,0,1.732-1.676m-9.034,39.293a1.7,1.7,0,0,0-.03,3.4,1.7,1.7,0,1,0,.03-3.4" transform="translate(-5789 -7150)" fill="#040404"/>
    <path id="Trazado_277764" data-name="Trazado 277764" d="M676.963,807.3a.919.919,0,0,0,.577,1.139c.49.251.952.554,1.434.821a.464.464,0,0,1,.266.465q-.011,3.483,0,6.965a.453.453,0,0,1-.251.472c-.486.257-.96.54-1.438.812a5.818,5.818,0,0,0-1.426-.8,10.983,10.983,0,0,1-5.446-6.412,12.384,12.384,0,0,1-.49-3.632c.764-.453,1.531-.9,2.288-1.361a.429.429,0,0,1,.524.013c.367.233.751.442,1.129.659.571.326.774.3,1.23-.16.5.388,1.118.6,1.6,1.02" transform="translate(-5789 -7150)" fill="#98b1e8"/>
    <path id="Trazado_277765" data-name="Trazado 277765" d="M672.731,824.909a.791.791,0,0,0,.728-.918c-.017-.535,0-1.072-.007-1.608a.433.433,0,0,1,.226-.44q1.923-1.1,3.839-2.208a5.684,5.684,0,0,0,0,1.486,9.218,9.218,0,0,0,1,3.72,10.93,10.93,0,0,0,4.1,4.438,8.386,8.386,0,0,0,2.346,1.143q-2.39,1.41-4.778,2.822a.38.38,0,0,1-.443-.012q-3.006-1.761-6.019-3.51a.5.5,0,0,1-.272-.512c.014-.487-.02-.977.01-1.463a.868.868,0,0,0-.725-1.036q0-.951-.005-1.9" transform="translate(-5789 -7150)" fill="#84a3e2"/>
    <path id="Trazado_277766" data-name="Trazado 277766" d="M675.357,845.381a.9.9,0,0,0-1.228-.092c-.465.286-.924.784-1.437.738-.485-.044-.935-.481-1.4-.75-1.585-.921-3.165-1.849-4.754-2.763a.568.568,0,0,1-.334-.569c.013-2.29.007-4.581.007-6.871,0-.178-.013-.338.188-.452,1.269-.719,2.531-1.451,3.8-2.179.032.533.049,1.065.092,1.6a10.033,10.033,0,0,0,2.75,6.081,12.686,12.686,0,0,0,4.6,3.1c-.448.274-.85.574-.663,1.2a7.007,7.007,0,0,1-1.623.961" transform="translate(-5789 -7150)" fill="#84a3e2"/>
    <path id="Trazado_277767" data-name="Trazado 277767" d="M684.963,830.522a8.4,8.4,0,0,1-2.346-1.143,10.923,10.923,0,0,1-4.1-4.438,9.191,9.191,0,0,1-1-3.72,5.687,5.687,0,0,1,0-1.486c.739-.438,1.482-.868,2.213-1.319a.448.448,0,0,1,.53.021q2.957,1.737,5.924,3.458a.536.536,0,0,1,.314.534q-.015,3.435,0,6.87a.518.518,0,0,1-.3.542c-.418.211-.821.452-1.23.681" transform="translate(-5789 -7150)" fill="#98b0e7"/>
    <path id="Trazado_277768" data-name="Trazado 277768" d="M677.644,843.221a12.682,12.682,0,0,1-4.6-3.1,10.03,10.03,0,0,1-2.75-6.081c-.044-.533-.06-1.065-.092-1.6.779-.465,1.561-.925,2.336-1.4a.381.381,0,0,1,.445.034q3,1.758,6.015,3.5a.434.434,0,0,1,.246.427q-.009,3.512,0,7.022a.417.417,0,0,1-.238.43c-.459.24-.906.5-1.357.756" transform="translate(-5789 -7150)" fill="#98b1e8"/>
    <path id="Trazado_277769" data-name="Trazado 277769" d="M670.189,807.126a12.41,12.41,0,0,0,.489,3.632,10.985,10.985,0,0,0,5.447,6.412,5.844,5.844,0,0,1,1.425.8c-1.524.9-3.051,1.787-4.571,2.693a.458.458,0,0,1-.533-.021q-2.98-1.749-5.97-3.486a.459.459,0,0,1-.266-.457q.012-3.488,0-6.973a.423.423,0,0,1,.225-.435c1.255-.714,2.5-1.441,3.752-2.166" transform="translate(-5789 -7150)" fill="#84a3e2"/>
    <path id="Trazado_277770" data-name="Trazado 277770" d="M659.855,831.863a1.708,1.708,0,0,1-3.416.009,1.708,1.708,0,1,1,3.416-.009" transform="translate(-5789 -7150)" fill="#f7df9d"/>
    <path id="Trazado_277771" data-name="Trazado 277771" d="M659.855,821.681a1.708,1.708,0,0,1-3.416.037,1.708,1.708,0,1,1,3.416-.037" transform="translate(-5789 -7150)" fill="#fbca6f"/>
    <path id="Trazado_277772" data-name="Trazado 277772" d="M703.508,830.014a1.708,1.708,0,1,1-3.415.05,1.708,1.708,0,0,1,3.415-.05" transform="translate(-5789 -7150)" fill="#faca6f"/>
    <path id="Trazado_277773" data-name="Trazado 277773" d="M688.859,804.737a1.708,1.708,0,1,1-1.706-1.7,1.7,1.7,0,0,1,1.706,1.7" transform="translate(-5789 -7150)" fill="#fbcb6f"/>
    <path id="Trazado_277774" data-name="Trazado 277774" d="M703.507,804.759a1.708,1.708,0,1,1-1.684-1.723,1.7,1.7,0,0,1,1.684,1.723" transform="translate(-5789 -7150)" fill="#f8df9d"/>
    <path id="Trazado_277775" data-name="Trazado 277775" d="M694.474,844.052a1.7,1.7,0,1,1-.03,3.4,1.7,1.7,0,0,1,.03-3.4" transform="translate(-5789 -7150)" fill="#f8e09e"/>
  </g>
</svg>
