<svg xmlns="http://www.w3.org/2000/svg" xmlns:xlink="http://www.w3.org/1999/xlink" width="218.137" height="175.829" viewBox="0 0 218.137 175.829">
  <defs>
    <clipPath id="clip-path">
      <rect id="Rectángulo_322105" data-name="Rectángulo 322105" width="218.137" height="175.829" transform="translate(263.786 14.173)" fill="none"/>
    </clipPath>
  </defs>
  <g id="Grupo_254613" data-name="Grupo 254613" transform="translate(-443.786 -515.173)">
    <g id="Grupo_254602" data-name="Grupo 254602" transform="translate(180 501)" opacity="0.52">
      <g id="Grupo_254601" data-name="Grupo 254601">
        <g id="Grupo_254600" data-name="Grupo 254600" clip-path="url(#clip-path)">
          <path id="Trazado_272484" data-name="Trazado 272484" d="M472.611,190H273.1a9.312,9.312,0,0,1-9.312-9.312V23.485a9.312,9.312,0,0,1,9.312-9.312H472.611a9.312,9.312,0,0,1,9.312,9.312V180.69A9.312,9.312,0,0,1,472.611,190" fill="#e2e8ec"/>
        </g>
      </g>
    </g>
    <path id="Trazado_272522" data-name="Trazado 272522" d="M328.88,176.371a13.332,13.332,0,0,1-2.889-3.377q-11.045-15.579-22.077-31.168c-1.828-2.583-1.553-4.2,1.028-6.024q7.463-5.291,14.936-10.569c.424-.3.775-.768,1.378-.756.869,1.805,2.34,3.212,3.283,4.969-3.174,2.168-6.356,4.324-9.518,6.507-2.3,1.585-2.639,3.3-1.056,5.588,2.185,3.16,4.431,6.278,6.658,9.409,3.665,5.152,7.383,10.268,10.983,15.465a47.621,47.621,0,0,1,4.359,6.529,41.086,41.086,0,0,1-4.739,3.427Z" transform="translate(180 501)" fill="#0194fc"/>
    <path id="Trazado_272523" data-name="Trazado 272523" d="M364.4,108.585c4.517.323,8.947,1.27,13.423,1.89,5.629.779,11.23,1.759,16.856,2.559,4.752.676,7.944,3.98,7.787,8.319a6.7,6.7,0,0,1-1.116,3.717,44.47,44.47,0,0,0-5.783-.575c-2.6-.3-5.218-.446-7.826-.682-2.8-.253-5.589-.591-8.391-.781-1.608-.108-2.593.745-2.674,2.037-.1,1.63.623,2.45,2.394,2.631,2.363.241,4.726.574,7.095.64,4.136.115,8.293,1.873,12.415-.079a1.371,1.371,0,0,0,1.487,1.447c2.567.039,5.078.715,7.652.623a5.292,5.292,0,0,0,4.88-.586c1.417-.944,2.84-1.887,4.194-2.917,2.239-1.7,4.731-3.062,6.8-5a17.933,17.933,0,0,0,3-1.954c2.807-1.726,5.126-4.338,8.645-4.774,4.688.244,7.873,3.291,7.693,7.458a6.75,6.75,0,0,1-2.634,5.494c-6.885,4.862-13.608,9.966-20.766,14.429a18.356,18.356,0,0,1-9.708,2.808c-8.448.041-16.9.075-25.345-.077-3.359-.061-6.7-.239-10.064.018a46.826,46.826,0,0,0-11.4,2.321c-.507.17-1.03.289-1.546.432a3.053,3.053,0,0,0-.91-1.939c-4.1-5.786-8.265-11.53-12.319-17.35-2.312-3.319-1.436-7.288,1.9-9.586,4.564-3.14,9.1-6.315,13.675-9.447a1.222,1.222,0,0,0,.582-1.081" transform="translate(180 501)" fill="#fdd1a4"/>
    <path id="Trazado_272524" data-name="Trazado 272524" d="M398.073,59.816c12.007,1.341,18.858,9.42,21.68,20.729a21.471,21.471,0,0,1,.051,10.868c-2.155,8.056-8.875,11.382-16.546,8.1a19.172,19.172,0,0,0-9.526-1.74,21.033,21.033,0,0,0-5.331,1.479c-5.255-2.674-7.039-7.333-7.321-12.837-.286-5.58,1.391-10.67,4.069-15.453A22.98,22.98,0,0,1,393.5,62.2c1.492-.89,3.271-1.179,4.577-2.382" transform="translate(180 501)" fill="#aa6b51"/>
    <path id="Trazado_272525" data-name="Trazado 272525" d="M335.965,172.944a47.683,47.683,0,0,0-4.359-6.529c-3.6-5.2-7.318-10.312-10.983-15.464-2.227-3.131-4.472-6.25-6.658-9.41-1.583-2.289-1.24-4,1.056-5.587,3.162-2.184,6.344-4.34,9.518-6.508a1.481,1.481,0,0,1,.23.022c6.211,8.8,12.4,17.608,18.646,26.381a76.438,76.438,0,0,0,5.6,7.639,2.164,2.164,0,0,1-.4.574q-6.315,4.454-12.646,8.882" transform="translate(180 501)" fill="#22a7fe"/>
    <path id="Trazado_272526" data-name="Trazado 272526" d="M349.015,163.487a76.438,76.438,0,0,1-5.6-7.639q-9.366-13.16-18.645-26.38a56.723,56.723,0,0,1,5.285-3.819A39.1,39.1,0,0,0,334.5,122.4l.84.342c.027.854.66,1.4,1.1,2.016q4.827,6.868,9.713,13.7,4.538,6.35,9.112,12.672c.537.8,1.089,1.6,1.61,2.413,1.41,2.206,1.031,4.018-1.1,5.491-1.753,1.214-3.467,2.485-5.229,3.684-.466.317-.884.793-1.532.777" transform="translate(180 501)" fill="#d8ecfe"/>
    <path id="Trazado_272527" data-name="Trazado 272527" d="M398.073,59.816c-1.306,1.2-3.085,1.492-4.577,2.382a22.98,22.98,0,0,0-8.347,8.759c-2.678,4.783-4.355,9.873-4.069,15.453.282,5.5,2.066,10.163,7.321,12.837-6.439,3.34-14.661,1.5-17.172-7.784-2.684-9.916,3.506-26.542,16.19-30.472a25.644,25.644,0,0,1,10.654-1.175" transform="translate(180 501)" fill="#965b45"/>
    <path id="Trazado_272528" data-name="Trazado 272528" d="M355.261,151.122q-4.557-6.334-9.111-12.672-4.881-6.831-9.714-13.7c-.436-.62-1.068-1.162-1.1-2.016,5.392-3.78,10.821-7.508,16.163-11.358,3.794-2.735,7.864-4,12.516-3a1.6,1.6,0,0,1,.382.2,1.222,1.222,0,0,1-.582,1.081c-4.57,3.132-9.111,6.307-13.675,9.447-3.341,2.3-4.217,6.267-1.9,9.586,4.054,5.82,8.216,11.564,12.319,17.35a3.053,3.053,0,0,1,.91,1.939c-2.019,1.144-4.275,1.819-6.207,3.134" transform="translate(180 501)" fill="#febd86"/>
    <path id="Trazado_272529" data-name="Trazado 272529" d="M399.235,51.425a6.186,6.186,0,0,1-8.272.412c-2.762-2.018-4.063-4.934-4.711-8.159-1.023-5.089-.382-9.921,2.751-14.193,2.744-3.742,7.058-4.306,10.257-1.47-5.916,5.953-5.782,17.482-.025,23.41" transform="translate(180 501)" fill="#965b45"/>
    <path id="Trazado_272530" data-name="Trazado 272530" d="M423.593,121.833c-2.069,1.933-4.561,3.291-6.8,5-1.354,1.03-2.777,1.973-4.194,2.917a5.292,5.292,0,0,1-4.88.586c3.812-5.043,7.245-10.352,10.893-15.511,1.207-1.707,2.338-3.471,3.608-5.13a7.006,7.006,0,0,1,10.186-1.065c-1.09,2.106-2.684,3.872-3.95,5.859-1.578,2.478-3.513,4.72-4.863,7.349" transform="translate(180 501)" fill="#f5a96d"/>
    <path id="Trazado_272531" data-name="Trazado 272531" d="M399.235,51.425c-5.757-5.928-5.891-17.457.025-23.41,3.908,3.562,4.863,8.2,4.538,13.165-.256,3.916-1.419,7.554-4.563,10.245" transform="translate(180 501)" fill="#ab6c52"/>
    <path id="Trazado_272532" data-name="Trazado 272532" d="M417.138,56.979c-3.781.941-6.912-1.4-7.271-5.672a14.68,14.68,0,0,1,5.565-13.18c1.819-1.5,3.936-2.41,6.381-1.591a4.367,4.367,0,0,1,2.934,2.629,8.356,8.356,0,0,0-2.336,1.172c-4.3,3.547-6.536,7.959-5.906,13.662.114,1.033.62,1.948.633,2.98" transform="translate(180 501)" fill="#965b45"/>
    <path id="Trazado_272533" data-name="Trazado 272533" d="M378.753,54.436a5.021,5.021,0,0,1-6.58,2.366c-4.309-1.608-6.465-5.114-7.777-9.254a11.3,11.3,0,0,1,.021-7.454c1.151-3.151,4.239-4.575,6.681-3.557a9.206,9.206,0,0,0-.817,2.177,15.808,15.808,0,0,0,3.862,12.449c1.28,1.5,3.084,2.171,4.61,3.273" transform="translate(180 501)" fill="#975b46"/>
    <path id="Trazado_272534" data-name="Trazado 272534" d="M378.753,54.436c-1.526-1.1-3.33-1.775-4.61-3.273a15.808,15.808,0,0,1-3.862-12.449,9.206,9.206,0,0,1,.817-2.177,12.7,12.7,0,0,1,1.5.507c5.688,2.735,8.894,11.282,6.4,17.049a1.9,1.9,0,0,1-.252.343" transform="translate(180 501)" fill="#ab6c52"/>
    <path id="Trazado_272535" data-name="Trazado 272535" d="M398.581,128.261c-4.123,1.952-8.28.194-12.416.079-2.369-.065-4.731-.4-7.093-.64-1.773-.18-2.5-1-2.4-2.63.081-1.292,1.067-2.146,2.674-2.037,2.8.189,5.594.527,8.392.78,2.608.237,5.225.383,7.826.683a44.126,44.126,0,0,1,5.782.575c-.451,1.473-1.854,2.12-2.769,3.19" transform="translate(180 501)" fill="#febd86"/>
    <path id="Trazado_272536" data-name="Trazado 272536" d="M417.138,56.979c-.013-1.032-.519-1.947-.633-2.98-.63-5.7,1.607-10.115,5.906-13.662a8.356,8.356,0,0,1,2.336-1.172A6.836,6.836,0,0,1,425.8,42.3c.942,5.8-3.263,12.92-8.665,14.68" transform="translate(180 501)" fill="#ab6c52"/>
    <path id="Trazado_272537" data-name="Trazado 272537" d="M366.717,69.066a3.859,3.859,0,0,1-4.849,3.343c-4.611-1.013-8.47-6.647-7.737-11.3A4.045,4.045,0,0,1,359.39,57.6c-.092,5.914,2.139,9.4,7.327,11.467" transform="translate(180 501)" fill="#975c46"/>
    <path id="Trazado_272538" data-name="Trazado 272538" d="M427.689,72.465c-2.807.3-4.662-1.293-4.939-4.247-.415-4.452,3.451-9.76,7.8-10.708a3.873,3.873,0,0,1,4.814,3.039,7.953,7.953,0,0,1-.813.312c-4.191,1.1-8.091,7.232-6.863,11.6" transform="translate(180 501)" fill="#975c46"/>
    <path id="Trazado_272539" data-name="Trazado 272539" d="M334.5,122.4a39.226,39.226,0,0,1-4.446,3.253,56.4,56.4,0,0,0-5.285,3.818,1.494,1.494,0,0,0-.231-.022c-.943-1.757-2.414-3.164-3.283-4.969a58.986,58.986,0,0,1,7.767-5.579,2.671,2.671,0,0,1,3.264.353A6.224,6.224,0,0,1,334.5,122.4" transform="translate(180 501)" fill="#b4dafe"/>
    <path id="Trazado_272540" data-name="Trazado 272540" d="M427.689,72.465c-1.228-4.372,2.672-10.5,6.863-11.6a7.953,7.953,0,0,0,.813-.312A7.137,7.137,0,0,1,435,65.795c-1.407,3.313-3.519,5.929-7.307,6.67" transform="translate(180 501)" fill="#ab6c52"/>
    <path id="Trazado_272541" data-name="Trazado 272541" d="M366.717,69.066C361.529,67,359.3,63.513,359.39,57.6c4.589.915,8.518,7.064,7.327,11.467" transform="translate(180 501)" fill="#ab6c53"/>
    <path id="Trazado_272542" data-name="Trazado 272542" d="M423.593,121.833c1.35-2.629,3.285-4.871,4.863-7.349,1.266-1.987,2.86-3.753,3.95-5.859a8.066,8.066,0,0,1,2.835,6.48c-3.52.436-5.839,3.048-8.646,4.774a17.892,17.892,0,0,1-3,1.954" transform="translate(180 501)" fill="#febd86"/>
  </g>
</svg>
