<svg xmlns="http://www.w3.org/2000/svg" width="71.869" height="71.87" viewBox="0 0 71.869 71.87">
  <g id="Grupo_261809" data-name="Grupo 261809" transform="translate(4979.777 7082.292)">
    <path id="Trazado_277626" data-name="Trazado 277626" d="M809.223,103.643a35.934,35.934,0,1,0,35.935-35.935,35.935,35.935,0,0,0-35.935,35.935" transform="translate(-5789 -7150)" fill="#fff"/>
    <path id="Trazado_277627" data-name="Trazado 277627" d="M834.128,76.257c1.185.806,1.512,2.128,1.889,3.362a6.961,6.961,0,0,1-.543,5.334,4.779,4.779,0,0,0-.039,4.538,3.575,3.575,0,0,1,.613,1.638,1.441,1.441,0,0,1-2.666.769c-1.539-2.671-2-5.4-.5-8.273a4.414,4.414,0,0,0,.023-4.1c-.17-.361-.34-.721-.507-1.083a1.465,1.465,0,0,1,.642-2.075c.052-.031.123-.035.13-.115Z" transform="translate(-5789 -7150)" fill="#7b3fb5"/>
    <path id="Trazado_277628" data-name="Trazado 277628" d="M840.362,76.257a5.15,5.15,0,0,1,1.221,7.038,1.91,1.91,0,0,0-.007,2.475,2.726,2.726,0,0,1,.707,1.481,1.447,1.447,0,0,1-2.555.963,5.738,5.738,0,0,1-1.483-4.117,4.79,4.79,0,0,1,.8-2.265,2.029,2.029,0,0,0,.006-2.755,2.678,2.678,0,0,1-.617-1.271,1.644,1.644,0,0,1,.965-1.549Z" transform="translate(-5789 -7150)" fill="#7b3fb5"/>
    <path id="Trazado_277629" data-name="Trazado 277629" d="M848.8,87.67q2.454-1.438,4.909-2.875c1.323-.771,2.65-1.535,3.974-2.3a1.505,1.505,0,0,1,2.041.226,29.364,29.364,0,0,1,9.373,16.508,24.072,24.072,0,0,1,.5,5.515l-11.979.007-12.447,0q-.008-3.02-.016-6.04c0-.033,0-.066,0-.1a2.792,2.792,0,0,0,.615-.059,6.314,6.314,0,0,0,3.591-2.378,6.459,6.459,0,0,0,1.114-5.433A6.864,6.864,0,0,0,848.8,87.67m6.429,4.08a1.439,1.439,0,1,0,1.469-1.395,1.474,1.474,0,0,0-1.469,1.395m7.193,7.069a1.439,1.439,0,1,0-1.452,1.413,1.469,1.469,0,0,0,1.452-1.413" transform="translate(-5789 -7150)" fill="#fed322"/>
    <path id="Trazado_277630" data-name="Trazado 277630" d="M857.618,104.748l11.979-.007c.005,1.485.021,2.97.011,4.455a1.345,1.345,0,0,1-1.379,1.3,2.916,2.916,0,0,0-2.865,2.408,2.866,2.866,0,0,0,2.767,3.343,1.371,1.371,0,0,1,1.482,1.537q0,3.043,0,6.085a1.4,1.4,0,0,1-1.454,1.489q-11.4,0-22.809,0c-.063,0-.127-.01-.19-.015q0-9.4,0-18.8c0-.158.014-.317.021-.476.134.031.146.136.178.249A6.246,6.246,0,0,0,848,109.942a.3.3,0,0,1,.146.383,5.26,5.26,0,0,0,6.1,6.3,4.983,4.983,0,0,0,4-3.379,5.041,5.041,0,0,0-1.063-5.331.524.524,0,0,1-.108-.669,5.4,5.4,0,0,0,.538-2.5m2.467,14.665a1.439,1.439,0,1,0-1.405-1.46,1.472,1.472,0,0,0,1.405,1.46" transform="translate(-5789 -7150)" fill="#fe9e22"/>
    <path id="Trazado_277631" data-name="Trazado 277631" d="M845.181,106.068c-.008.159-.022.318-.022.477q0,9.4,0,18.8h-3.553a6.056,6.056,0,0,0,1.09-2.606,5.26,5.26,0,1,0-10.414.038,6.06,6.06,0,0,0,1.08,2.568l-9.97.016h-1.055a1.472,1.472,0,0,1-1.634-1.624q0-5.584,0-11.17,0-3.908.01-7.814l5.746,0a6.232,6.232,0,0,0,12.463,0c1.749,0,3.5,0,5.248-.018a2.2,2.2,0,0,1,.972.181l.039,1.151m-1.27,7.238a1.439,1.439,0,1,0-1.458,1.408,1.472,1.472,0,0,0,1.458-1.408m-14.194,2.876a1.439,1.439,0,1,0-1.456,1.409,1.471,1.471,0,0,0,1.456-1.409" transform="translate(-5789 -7150)" fill="#fed322"/>
    <path id="Trazado_277632" data-name="Trazado 277632" d="M845.142,104.917a2.2,2.2,0,0,0-.972-.181c-1.749.014-3.5.014-5.248.018H826.459l-5.746,0a1.409,1.409,0,0,1,.76-1.291l5.716-3.307q4.411-2.553,8.824-5.1a18.551,18.551,0,0,1,1.922-1.065,6.661,6.661,0,0,0,3.451,4.123,7.373,7.373,0,0,0,3.769.6q.007,3.021.016,6.041c-.01.057-.019.115-.029.172" transform="translate(-5789 -7150)" fill="#feea98"/>
    <path id="Trazado_277633" data-name="Trazado 277633" d="M833.362,125.343a6.074,6.074,0,0,1-1.081-2.568,5.261,5.261,0,1,1,10.415-.037,6.052,6.052,0,0,1-1.09,2.605Z" transform="translate(-5789 -7150)" fill="#fe9f22"/>
    <path id="Trazado_277634" data-name="Trazado 277634" d="M848.8,87.67a6.877,6.877,0,0,1,1.679,3.065,6.458,6.458,0,0,1-1.114,5.432,6.314,6.314,0,0,1-3.591,2.378,2.794,2.794,0,0,1-.615.06l0-8.83c1.188-.747,2.4-1.453,3.643-2.105" transform="translate(-5789 -7150)" fill="#fe9f22"/>
    <path id="Trazado_277635" data-name="Trazado 277635" d="M845.155,89.775l0,8.83c0,.033,0,.066,0,.1a7.373,7.373,0,0,1-3.769-.6,6.661,6.661,0,0,1-3.451-4.123c.97-.672,2.02-1.209,3.035-1.8,1.387-.815,2.789-1.605,4.185-2.406" transform="translate(-5789 -7150)" fill="#fed323"/>
    <path id="Trazado_277636" data-name="Trazado 277636" d="M845.142,104.917c.01-.057.019-.115.029-.172l12.447,0a5.4,5.4,0,0,1-.538,2.5.524.524,0,0,0,.108.669,5.043,5.043,0,0,1,1.063,5.331,4.984,4.984,0,0,1-4,3.38,5.26,5.26,0,0,1-6.1-6.3.3.3,0,0,0-.146-.383,6.249,6.249,0,0,1-2.645-3.625c-.032-.113-.044-.219-.178-.25-.012-.384-.025-.767-.038-1.151" transform="translate(-5789 -7150)" fill="#fe6426"/>
    <path id="Trazado_277637" data-name="Trazado 277637" d="M855.227,91.75a1.439,1.439,0,1,1,1.384,1.482,1.464,1.464,0,0,1-1.384-1.482" transform="translate(-5789 -7150)" fill="#fe9f22"/>
    <path id="Trazado_277638" data-name="Trazado 277638" d="M862.42,98.819a1.439,1.439,0,1,1-1.4-1.464,1.47,1.47,0,0,1,1.4,1.464" transform="translate(-5789 -7150)" fill="#fe9f22"/>
    <path id="Trazado_277639" data-name="Trazado 277639" d="M860.085,119.413a1.439,1.439,0,1,1,1.472-1.393,1.466,1.466,0,0,1-1.472,1.393" transform="translate(-5789 -7150)" fill="#fe6526"/>
    <path id="Trazado_277640" data-name="Trazado 277640" d="M826.459,104.754h12.463a6.232,6.232,0,0,1-12.463,0" transform="translate(-5789 -7150)" fill="#fe9f22"/>
    <path id="Trazado_277641" data-name="Trazado 277641" d="M843.911,113.306a1.439,1.439,0,1,1-1.4-1.469,1.468,1.468,0,0,1,1.4,1.469" transform="translate(-5789 -7150)" fill="#fe9f22"/>
    <path id="Trazado_277642" data-name="Trazado 277642" d="M829.717,116.182a1.439,1.439,0,1,1-1.4-1.468,1.468,1.468,0,0,1,1.4,1.468" transform="translate(-5789 -7150)" fill="#fe9f22"/>
    <path id="Trazado_277643" data-name="Trazado 277643" d="M834.622,93.027a1.89,1.89,0,0,1-1.628-.9c-1.785-3.1-1.952-5.944-.511-8.7a3.972,3.972,0,0,0,.015-3.7l-.038-.082c-.157-.334-.315-.668-.47-1a1.91,1.91,0,0,1,.749-2.607l.019-.22h1.509l.114.077a5.606,5.606,0,0,1,1.987,3.343l.078.26a7.357,7.357,0,0,1-.573,5.669,4.342,4.342,0,0,0-.035,4.135c.054.109.113.216.171.323a3,3,0,0,1,.488,1.522,1.905,1.905,0,0,1-1.361,1.816,1.845,1.845,0,0,1-.514.073m-1.369-16.261a1.021,1.021,0,0,0-.448,1.493q.231.5.466,1l.039.082a4.832,4.832,0,0,1-.031,4.494c-1.306,2.5-1.149,4.992.492,7.841a.993.993,0,0,0,1.829-.553,2.194,2.194,0,0,0-.378-1.074c-.063-.115-.128-.235-.189-.358a5.251,5.251,0,0,1,.042-4.94,6.5,6.5,0,0,0,.513-5l-.079-.263a4.966,4.966,0,0,0-1.524-2.782h-.616a.7.7,0,0,1-.116.06h0m.011-.006Z" transform="translate(-5789 -7150)"/>
    <path id="Trazado_277644" data-name="Trazado 277644" d="M840.813,89.186a1.805,1.805,0,0,1-1.441-.7,6.173,6.173,0,0,1-1.573-4.433,5.19,5.19,0,0,1,.879-2.473,1.6,1.6,0,0,0,0-2.259c-.046-.071-.094-.14-.142-.209a2.474,2.474,0,0,1-.546-1.276,2.093,2.093,0,0,1,1.171-1.958l.11-.07h1.245l.122.1a5.628,5.628,0,0,1,1.31,7.65,1.481,1.481,0,0,0,.005,1.974c.059.092.125.183.194.281a2.372,2.372,0,0,1,.584,1.445,1.868,1.868,0,0,1-1.253,1.813,1.942,1.942,0,0,1-.666.118m-1.276-12.48c-.508.345-.681.634-.651,1.07a1.7,1.7,0,0,0,.387.825c.054.077.107.154.158.232a2.465,2.465,0,0,1-.01,3.251,4.316,4.316,0,0,0-.729,2.056,5.373,5.373,0,0,0,1.392,3.8.952.952,0,0,0,1.09.284.978.978,0,0,0,.661-.977,1.608,1.608,0,0,0-.416-.916c-.073-.1-.149-.208-.221-.32a2.342,2.342,0,0,1,.019-2.976,4.663,4.663,0,0,0-1.014-6.33Z" transform="translate(-5789 -7150)"/>
    <path id="Trazado_277645" data-name="Trazado 277645" d="M822.794,125.809h-.458a1.914,1.914,0,0,1-2.082-2.073q0-5.584,0-11.17,0-2.712.007-5.422l0-2.392a1.855,1.855,0,0,1,.983-1.678q1.736-1.006,3.471-2.009l2.246-1.3,2.542-1.472c2.058-1.192,4.186-2.425,6.283-3.631.169-.1.338-.2.506-.3a12.267,12.267,0,0,1,1.421-.771c.68-.468,1.4-.874,2.1-1.267.306-.172.622-.35.928-.53.97-.57,1.963-1.136,2.923-1.684l1.258-.719c1.264-.794,2.46-1.485,3.657-2.113l1.461-.856q1.719-1.008,3.44-2.013,1.285-.751,2.577-1.495l1.4-.809a1.934,1.934,0,0,1,2.566.281,29.928,29.928,0,0,1,9.513,16.754,24.4,24.4,0,0,1,.51,5.608c0,.43,0,.859.006,1.288.006,1.036.012,2.108.005,3.164a1.79,1.79,0,0,1-1.8,1.744,2.457,2.457,0,0,0-2.447,2.045,2.263,2.263,0,0,0,.449,1.843,2.578,2.578,0,0,0,1.9.967,1.817,1.817,0,0,1,1.906,1.985v.993q0,2.547,0,5.093a1.84,1.84,0,0,1-1.9,1.937q-10.1,0-20.2,0H845.35a1.686,1.686,0,0,1-.176-.011l-.036,0H833.346l-10.02.017h-.532M821.161,105.2l0,1.944q0,2.71-.007,5.421,0,5.586,0,11.17c0,.8.377,1.173,1.187,1.176h.986l10.037-.017,11.833,0,.072.007c.027,0,.055.006.083.006h2.606q10.1,0,20.2,0a.951.951,0,0,0,1.006-1.041q0-2.545,0-5.091v-.993c0-.742-.3-1.048-1.057-1.089a3.474,3.474,0,0,1-2.56-1.311,3.146,3.146,0,0,1-.623-2.565,3.351,3.351,0,0,1,3.283-2.772.9.9,0,0,0,.953-.853c.007-1.05,0-2.119,0-3.153,0-.284,0-.567-.005-.851ZM858.6,82.644a1.414,1.414,0,0,0-.7.237l-1.4.81q-1.289.744-2.575,1.493-1.72,1-3.437,2.012l-1.489.872c-1.182.619-2.364,1.3-3.613,2.087l-.016.01-1.267.724c-.958.547-1.948,1.112-2.914,1.679-.313.184-.633.364-.942.538-.692.39-1.407.793-2.064,1.248l-.037.025-.042.018a11.207,11.207,0,0,0-1.354.734c-.173.1-.346.208-.521.308-2.1,1.206-4.223,2.438-6.28,3.63l-2.543,1.473-2.245,1.3q-1.737,1-3.471,2.008a1.04,1.04,0,0,0-.445.453l47.906-.009a24.018,24.018,0,0,0-.5-4.979,29.051,29.051,0,0,0-9.234-16.262,1.242,1.242,0,0,0-.818-.408" transform="translate(-5789 -7150)"/>
    <rect id="Rectángulo_324830" data-name="Rectángulo 324830" width="0.897" height="35.568" transform="translate(-4944.292 -7060.225)"/>
    <path id="Trazado_277646" data-name="Trazado 277646" d="M856.825,94.024A2.175,2.175,0,1,1,859,91.849a2.178,2.178,0,0,1-2.175,2.175m0-3.453a1.278,1.278,0,1,0,1.278,1.278,1.279,1.279,0,0,0-1.278-1.278" transform="translate(-5789 -7150)"/>
    <path id="Trazado_277647" data-name="Trazado 277647" d="M860.981,100.969a2.175,2.175,0,1,1,2.175-2.175,2.178,2.178,0,0,1-2.175,2.175m0-3.453a1.278,1.278,0,1,0,1.278,1.278,1.279,1.279,0,0,0-1.278-1.278" transform="translate(-5789 -7150)"/>
    <path id="Trazado_277648" data-name="Trazado 277648" d="M860.119,120.15a2.175,2.175,0,1,1,2.175-2.175,2.178,2.178,0,0,1-2.175,2.175m0-3.453a1.278,1.278,0,1,0,1.278,1.278,1.279,1.279,0,0,0-1.278-1.278" transform="translate(-5789 -7150)"/>
    <path id="Trazado_277649" data-name="Trazado 277649" d="M828.278,118.423a2.175,2.175,0,1,1,2.175-2.174,2.177,2.177,0,0,1-2.175,2.174m0-3.453a1.278,1.278,0,1,0,1.278,1.279,1.28,1.28,0,0,0-1.278-1.279" transform="translate(-5789 -7150)"/>
    <path id="Trazado_277650" data-name="Trazado 277650" d="M842.472,115.451a2.175,2.175,0,1,1,2.175-2.175,2.178,2.178,0,0,1-2.175,2.175m0-3.453a1.278,1.278,0,1,0,1.278,1.278A1.279,1.279,0,0,0,842.472,112" transform="translate(-5789 -7150)"/>
  </g>
</svg>
