<svg xmlns="http://www.w3.org/2000/svg" xmlns:xlink="http://www.w3.org/1999/xlink" width="218.137" height="175.829" viewBox="0 0 218.137 175.829">
  <defs>
    <clipPath id="clip-path">
      <rect id="Rectángulo_322106" data-name="Rectángulo 322106" width="218.137" height="175.829" transform="translate(505.07 14.173)" fill="none"/>
    </clipPath>
  </defs>
  <g id="Grupo_254614" data-name="Grupo 254614" transform="translate(-685.07 -515.173)">
    <g id="Grupo_254605" data-name="Grupo 254605" transform="translate(180 501)" opacity="0.52">
      <g id="Grupo_254604" data-name="Grupo 254604">
        <g id="Grupo_254603" data-name="Grupo 254603" clip-path="url(#clip-path)">
          <path id="Trazado_272485" data-name="Trazado 272485" d="M713.9,190H514.382a9.312,9.312,0,0,1-9.312-9.312V23.485a9.312,9.312,0,0,1,9.312-9.312H713.9a9.312,9.312,0,0,1,9.312,9.312V180.69A9.312,9.312,0,0,1,713.9,190" fill="#e2e8ec"/>
        </g>
      </g>
    </g>
    <path id="Trazado_272543" data-name="Trazado 272543" d="M673.272,119.357c.047.5.133.994.134,1.491.008,9.239.059,18.479-.009,27.718-.071,9.652-4.234,16.938-12.865,21.481a19.426,19.426,0,0,1-7.043,2.125,2.469,2.469,0,0,0-.608.237H590.806a10.343,10.343,0,0,0-2.739-.678A22.683,22.683,0,0,1,575.033,163a21.394,21.394,0,0,1-4.3-12.884q.053-43.941.019-87.883a11.886,11.886,0,0,1,.043-1.782,22.65,22.65,0,0,1,9.063-15.365,19.918,19.918,0,0,1,10.65-4.245c.01.771.005,1.542.03,2.312.1,2.884-.332,5.8.532,8.637a14.7,14.7,0,0,0-5.4.73A11.616,11.616,0,0,0,578.2,63.761q-.012,34.457,0,68.915c0,4.942-.037,9.885.012,14.826a11.411,11.411,0,0,0,11.416,11.46q28.488.042,56.977-.005a11.3,11.3,0,0,0,11.193-10.948c.1-7.869.01-15.74,0-23.611l.373-.342c.357.055.72.085,1.071.17a12.43,12.43,0,0,0,11.073-2.267c1.035-.807,1.979-1.731,2.965-2.6" transform="translate(180 501)" fill="#cf9080"/>
    <path id="Trazado_272544" data-name="Trazado 272544" d="M590.51,40.843a19.919,19.919,0,0,0-10.65,4.246A22.648,22.648,0,0,0,570.8,60.454a11.88,11.88,0,0,0-.043,1.782q0,43.941-.019,87.882a21.39,21.39,0,0,0,4.3,12.885,22.684,22.684,0,0,0,13.034,8.729,10.3,10.3,0,0,1,2.739.677h-8.515a19.641,19.641,0,0,0-3.492-.976,22.931,22.931,0,0,1-16.049-20.2c-.106-1.143-.153-2.28-.153-3.423q0-41.731,0-83.463a23.422,23.422,0,0,1,3.585-13.154c4.6-7.031,11.191-10.535,19.543-10.793,1.6-.05,3.2.008,4.8.017-.005.141-.01.284-.016.426" transform="translate(180 501)" fill="#c67e68"/>
    <path id="Trazado_272545" data-name="Trazado 272545" d="M606.718,31.825c10.135-.009,20.271-.082,30.406,0,4.573.037,7.759,3.5,8.354,8.693-.191,3.76.38,7.556-.549,11.28-.11.194-.224.385-.329.582-1.583,2.961-3.913,4.808-7.386,4.952l-4.432.016c-8.684.092-17.37-.137-26.053.129-.113-.131-.205-.345-.342-.379a8.777,8.777,0,0,1-6.537-9.087c.11-2.6,0-5.2.031-7.8a8.565,8.565,0,0,1,1.223-4.121c1.271-2.271,3.36-3.349,5.614-4.264" transform="translate(180 501)" fill="#fedf7d"/>
    <path id="Trazado_272546" data-name="Trazado 272546" d="M644.928,51.8c.929-3.724.359-7.52.549-11.28,3.46.129,6.936-.228,10.371.6a22.94,22.94,0,0,1,17.413,20.8c.3,4.935.068,9.871.148,14.8.033,2.1.03,4.206.044,6.308-.733.744-1.459,1.495-2.2,2.231q-6.685,6.649-13.375,13.293c-.018-.547-.05-1.1-.051-1.643q0-16.737-.008-33.475a11.371,11.371,0,0,0-3.576-8.465,11.944,11.944,0,0,0-9.315-3.179" transform="translate(180 501)" fill="#cf9080"/>
    <path id="Trazado_272547" data-name="Trazado 272547" d="M673.272,119.357c-.986.871-1.93,1.795-2.965,2.6a12.43,12.43,0,0,1-11.073,2.267c-.351-.085-.714-.115-1.071-.17l-1.776-1.037c.574-.406.1-.853-.013-1.22a14.107,14.107,0,0,1-.274-6.62,13.124,13.124,0,0,1,4.038-6.991q10.527-10.6,21.116-21.141c.384-.385.715-.821,1.071-1.234q5.8,5.766,11.593,11.532a1.077,1.077,0,0,1,.45.8q-10.2,10.185-20.393,20.374c-.257.257-.47.558-.7.838" transform="translate(180 501)" fill="#d94a54"/>
    <path id="Trazado_272548" data-name="Trazado 272548" d="M606.718,31.825c-2.254.915-4.343,1.993-5.614,4.264a8.565,8.565,0,0,0-1.223,4.121c-.035,2.6.079,5.205-.031,7.8a8.777,8.777,0,0,0,6.537,9.087c.137.034.229.248.342.379-.181.023-.362.06-.543.066-3.283.1-3.283.1-3,3.426a3.066,3.066,0,0,0,3.056,2.927q11.8.045,23.592,0a2.974,2.974,0,0,0,2.98-2.981c.046-1.186-.02-2.376-.036-3.563l4.432-.016c-.071,1.274-.168,2.548-.208,3.823a6.982,6.982,0,0,1-7.033,6.914q-11.922.049-23.846,0a7.065,7.065,0,0,1-7.109-7.147c-.012-.868-.011-1.736,0-2.6,0-.511-.118-.894-.716-.964-3.518-.41-5.747-2.5-7.227-5.563-.863-2.836-.436-5.752-.531-8.636-.026-.77-.021-1.542-.03-2.313.005-.142.011-.284.016-.426.524-5.958,4.726-8.448,8.126-8.6,2.683-.118,5.376-.005,8.065.006" transform="translate(180 501)" fill="#fecf65"/>
    <path id="Trazado_272549" data-name="Trazado 272549" d="M682.325,85.813c-.356.412-.687.849-1.071,1.234Q670.7,97.618,660.138,108.188a13.124,13.124,0,0,0-4.038,6.991,14.107,14.107,0,0,0,.274,6.62c.113.367.587.814.013,1.22a11.878,11.878,0,0,1-3.162-2.293,16.143,16.143,0,0,1-2.692-4.55c-1.637-5.354-.328-9.924,3.638-13.809,1.265-1.239,2.473-2.536,3.707-3.807q6.688-6.646,13.375-13.293c.741-.737,1.467-1.488,2.2-2.231l3.052-2.941,4.942,4.7.878,1.017" transform="translate(180 501)" fill="#d72f3e"/>
    <path id="Trazado_272550" data-name="Trazado 272550" d="M682.325,85.813l-.878-1.017c0-2.5.4-2.939,2.835-3.062.658.448,1.048,1.206,1.793,1.554,3.588,3.954,7.434,7.651,11.275,11.353.268.309.523.632.807.926a6.7,6.7,0,0,1,.084,9.6c-4.9,5-9.874,9.918-14.835,14.852a2.177,2.177,0,0,1-3.177.245c-.973-.954-.94-2.121.176-3.242,4.839-4.863,9.7-9.7,14.543-14.563,1.594-1.6,1.351-3.267-.581-4.318a1.074,1.074,0,0,0-.449-.8q-5.8-5.765-11.593-11.532" transform="translate(180 501)" fill="#fede7d"/>
    <path id="Trazado_272551" data-name="Trazado 272551" d="M697.35,94.641c-3.841-3.7-7.687-7.4-11.275-11.353.607-.834,1.53-.849,2.428-.97,1.487-.2,2.862.424,4.3.532a52.137,52.137,0,0,1,3.706,3.776,7,7,0,0,1,.836,8.015" transform="translate(180 501)" fill="#d94a54"/>
    <path id="Trazado_272552" data-name="Trazado 272552" d="M692.808,82.849c-1.443-.107-2.818-.73-4.3-.531-.9.121-1.822.136-2.428.969-.746-.347-1.136-1.105-1.794-1.553-1.292-1.657-3.11-2.825-4.266-4.608a7.076,7.076,0,0,1,8.4,1.272c1.5,1.444,2.933,2.965,4.4,4.451" transform="translate(180 501)" fill="#d72f3e"/>
    <path id="Trazado_272553" data-name="Trazado 272553" d="M680.015,77.127c1.156,1.782,2.974,2.951,4.266,4.608-2.432.123-2.837.56-2.834,3.061l-4.942-4.7c-1.238-1.868-.21-3.4,1.262-3.743.932-.217,1.5.518,2.248.775" transform="translate(180 501)" fill="#fecf65"/>
    <path id="Trazado_272554" data-name="Trazado 272554" d="M657.878,98.56c-1.234,1.271-2.442,2.568-3.707,3.807-3.966,3.885-5.275,8.455-3.639,13.807a14.153,14.153,0,0,1-2.388,2.622,5.262,5.262,0,0,0,1.975,8.638,5,5,0,0,0,5.8-1.283c.615-.6,1.249-1.169,1.874-1.753.009,7.871.1,15.742,0,23.611a11.3,11.3,0,0,1-11.194,10.948q-28.488.05-56.976.005A11.41,11.41,0,0,1,578.2,147.5c-.049-4.941-.012-9.884-.012-14.826q0-34.458,0-68.915a11.615,11.615,0,0,1,7.478-11.239,14.692,14.692,0,0,1,5.4-.73c1.48,3.061,3.708,5.152,7.226,5.562.6.07.72.454.716.965-.008.868-.009,1.736,0,2.6a7.066,7.066,0,0,0,7.109,7.148q11.924.045,23.846,0a6.98,6.98,0,0,0,7.033-6.914c.041-1.275.138-2.548.209-3.823,3.472-.143,5.8-1.99,7.385-4.952.1-.2.219-.387.329-.581a11.941,11.941,0,0,1,9.314,3.178,11.37,11.37,0,0,1,3.577,8.465q.023,16.738.008,33.476c0,.547.033,1.1.051,1.643m-32.922-5.814H640.59a7.693,7.693,0,0,0,1.1-.022,2.116,2.116,0,0,0,.188-4.2,6.355,6.355,0,0,0-1.227-.079q-15.634-.006-31.269,0a6.175,6.175,0,0,0-1.361.1,1.981,1.981,0,0,0-1.694,2.167,2.04,2.04,0,0,0,1.9,2.006,7.272,7.272,0,0,0,1.1.025q7.816,0,15.634,0m.041,8.009c-5.394,0-10.788-.009-16.182.006-1.527,0-2.507.865-2.519,2.125-.012,1.245.975,2.107,2.492,2.175.182.008.366,0,.548,0H640.6a4.5,4.5,0,0,0,1.626-.171,2.106,2.106,0,0,0,1-3.254,2.636,2.636,0,0,0-2.328-.89c-5.3.014-10.605.006-15.908.007m.008-20.332q4.117,0,8.234,0c2.744,0,5.489.023,8.234-.017a2.09,2.09,0,1,0,.021-4.178c-.183-.012-.366-.008-.549-.008q-15.987,0-31.975,0a5.359,5.359,0,0,0-.958.05,2.017,2.017,0,0,0-1.6,2.568,2.138,2.138,0,0,0,2.4,1.588q8.1-.018,16.194-.005m-.083,36.865h3.294l13.174,0a1.975,1.975,0,0,0,2.156-1.527,2.025,2.025,0,0,0-1.049-2.438,3.036,3.036,0,0,0-1.6-.242q-15.92,0-31.839,0a4.7,4.7,0,0,0-.958.037,2,2,0,0,0-1.76,2.12,1.923,1.923,0,0,0,1.846,2.017,10.143,10.143,0,0,0,1.234.034q7.754,0,15.507,0M643.606,144.6a5.753,5.753,0,0,0-5.806-5.846,5.8,5.8,0,0,0,.035,11.6,5.77,5.77,0,0,0,5.771-5.754m-45.663-51.85c1.051,0,2.1.023,3.155-.006a2.157,2.157,0,0,0,2.319-2.028,2.282,2.282,0,0,0-2.137-2.275c-2.284-.075-4.576-.092-6.857.022a2.011,2.011,0,0,0-1.986,2.321,2.065,2.065,0,0,0,2.213,1.958c1.1.039,2.195.008,3.293.008m.012,7.992c-1.052,0-2.105-.021-3.156.005-1.491.037-2.356.818-2.366,2.09a2.091,2.091,0,0,0,2.252,2.23c2.148.07,4.3.063,6.448,0a2.255,2.255,0,0,0,2.285-2.264,2.164,2.164,0,0,0-2.308-2.05c-1.049-.05-2.1-.01-3.155-.013m.031-24.49v.009c-1.231,0-2.463-.046-3.691.013a1.809,1.809,0,0,0-1.857,1.945,1.959,1.959,0,0,0,1.81,2.16q3.621.1,7.246,0a2.041,2.041,0,0,0,1.921-2.108,2.1,2.1,0,0,0-2.147-2.014c-1.093-.029-2.188-.006-3.282-.006m-.09,40.989c1.139,0,2.278.027,3.416-.008a2.079,2.079,0,0,0,2.1-2.051,2.047,2.047,0,0,0-1.961-2.072c-2.366-.063-4.738-.07-7.1,0a1.989,1.989,0,0,0-1.914,2.213,1.863,1.863,0,0,0,2.043,1.9c1.137.039,2.277.008,3.416.009M635.72,132.5a2.2,2.2,0,0,0,2.031,2.567,2.11,2.11,0,0,0,2.224-2.219c.066-1.56-.778-2.644-2.08-2.67a2.21,2.21,0,0,0-2.175,2.322m-2.583,2.7a2.723,2.723,0,0,0-2.438-2.642,2.122,2.122,0,0,0-2.176,2.141,2.9,2.9,0,0,0,2.547,2.579,2.049,2.049,0,0,0,2.067-2.078m13.957-.6a2.144,2.144,0,0,0-2.078-2.112,2.829,2.829,0,0,0-2.555,2.567,2.145,2.145,0,0,0,2.138,2.191,2.914,2.914,0,0,0,2.495-2.646" transform="translate(180 501)" fill="#f8f5f5"/>
    <path id="Trazado_272555" data-name="Trazado 272555" d="M657.79,124.4c-.625.585-1.259,1.159-1.873,1.754a5.006,5.006,0,0,1-5.8,1.283,6.588,6.588,0,0,1,3.106-6.708,11.9,11.9,0,0,0,3.162,2.293l1.776,1.037-.373.341" transform="translate(180 501)" fill="#fede7d"/>
    <path id="Trazado_272556" data-name="Trazado 272556" d="M632.781,57.348c.016,1.188.082,2.377.037,3.563a2.976,2.976,0,0,1-2.98,2.982q-11.8.054-23.592,0a3.068,3.068,0,0,1-3.057-2.928c-.287-3.323-.287-3.322,3-3.426.182-.006.362-.043.543-.066,8.683-.266,17.369-.037,26.053-.129" transform="translate(180 501)" fill="#f8f4f2"/>
    <path id="Trazado_272557" data-name="Trazado 272557" d="M653.226,120.726a6.589,6.589,0,0,0-3.106,6.708,5.261,5.261,0,0,1-1.976-8.638,14.117,14.117,0,0,0,2.388-2.622,16.132,16.132,0,0,0,2.694,4.552" transform="translate(180 501)" fill="#fecf65"/>
    <path id="Trazado_272558" data-name="Trazado 272558" d="M624.957,92.747H609.323a7.142,7.142,0,0,1-1.1-.026,2.039,2.039,0,0,1-1.9-2.005,1.981,1.981,0,0,1,1.694-2.167,6.115,6.115,0,0,1,1.361-.1q15.634-.007,31.269,0a6.354,6.354,0,0,1,1.227.078,2.117,2.117,0,0,1-.188,4.2,7.844,7.844,0,0,1-1.1.021H624.957" transform="translate(180 501)" fill="#375c9f"/>
    <path id="Trazado_272559" data-name="Trazado 272559" d="M625,100.755c5.3,0,10.6.007,15.908-.007a2.639,2.639,0,0,1,2.328.89,2.107,2.107,0,0,1-1,3.255,4.523,4.523,0,0,1-1.626.17H609.336c-.182,0-.366.006-.548,0-1.517-.069-2.5-.931-2.492-2.175.012-1.26.992-2.122,2.519-2.126,5.394-.015,10.788-.006,16.182-.006" transform="translate(180 501)" fill="#375c9f"/>
    <path id="Trazado_272560" data-name="Trazado 272560" d="M625.005,80.423q-8.1,0-16.193.005a2.139,2.139,0,0,1-2.4-1.588,2.017,2.017,0,0,1,1.6-2.568,5.344,5.344,0,0,1,.957-.05q15.987,0,31.975,0c.183,0,.367,0,.549.008a2.09,2.09,0,1,1-.021,4.178c-2.744.04-5.489.016-8.234.017s-5.489,0-8.234,0" transform="translate(180 501)" fill="#30579d"/>
    <path id="Trazado_272561" data-name="Trazado 272561" d="M624.923,117.288q-7.753,0-15.508,0a10.133,10.133,0,0,1-1.233-.035,1.923,1.923,0,0,1-1.847-2.017,2,2,0,0,1,1.761-2.12,4.7,4.7,0,0,1,.958-.037q15.919,0,31.838,0a3.032,3.032,0,0,1,1.6.241,2.025,2.025,0,0,1,1.05,2.438,1.975,1.975,0,0,1-2.156,1.527l-13.174,0h-3.294" transform="translate(180 501)" fill="#30579d"/>
    <path id="Trazado_272562" data-name="Trazado 272562" d="M643.607,144.6a5.77,5.77,0,0,1-5.771,5.754,5.8,5.8,0,0,1-.035-11.6,5.753,5.753,0,0,1,5.806,5.846" transform="translate(180 501)" fill="#32589d"/>
    <path id="Trazado_272563" data-name="Trazado 272563" d="M597.943,92.751c-1.1,0-2.2.031-3.293-.008a2.066,2.066,0,0,1-2.213-1.958,2.011,2.011,0,0,1,1.987-2.321c2.281-.114,4.573-.1,6.856-.022a2.284,2.284,0,0,1,2.138,2.275,2.158,2.158,0,0,1-2.32,2.028c-1.051.029-2.1.006-3.155.006" transform="translate(180 501)" fill="#83b5fa"/>
    <path id="Trazado_272564" data-name="Trazado 272564" d="M597.955,100.745c1.052,0,2.106-.039,3.156.011a2.164,2.164,0,0,1,2.307,2.051,2.257,2.257,0,0,1-2.285,2.264c-2.148.061-4.3.068-6.448,0a2.09,2.09,0,0,1-2.251-2.23c.009-1.273.874-2.054,2.365-2.09,1.052-.026,2.1,0,3.156,0" transform="translate(180 501)" fill="#83b5fa"/>
    <path id="Trazado_272565" data-name="Trazado 272565" d="M597.987,76.253c1.094,0,2.188-.023,3.281.006a2.1,2.1,0,0,1,2.147,2.013,2.042,2.042,0,0,1-1.92,2.109q-3.621.1-7.247,0a1.959,1.959,0,0,1-1.81-2.16,1.809,1.809,0,0,1,1.857-1.945c1.227-.059,2.46-.013,3.692-.013Z" transform="translate(180 501)" fill="#81b4fa"/>
    <path id="Trazado_272566" data-name="Trazado 272566" d="M597.9,117.242c-1.139,0-2.279.031-3.416-.008a1.864,1.864,0,0,1-2.043-1.906,1.989,1.989,0,0,1,1.914-2.213c2.366-.074,4.737-.066,7.1,0a2.045,2.045,0,0,1,1.961,2.071,2.079,2.079,0,0,1-2.1,2.052c-1.138.035-2.277.007-3.416.007" transform="translate(180 501)" fill="#81b4fa"/>
    <path id="Trazado_272567" data-name="Trazado 272567" d="M635.72,132.5a2.212,2.212,0,0,1,2.175-2.323c1.3.026,2.146,1.11,2.08,2.67a2.11,2.11,0,0,1-2.224,2.22,2.2,2.2,0,0,1-2.031-2.567" transform="translate(180 501)" fill="#375c9f"/>
    <path id="Trazado_272568" data-name="Trazado 272568" d="M633.138,135.2a2.049,2.049,0,0,1-2.067,2.079,2.9,2.9,0,0,1-2.547-2.58,2.123,2.123,0,0,1,2.176-2.141,2.724,2.724,0,0,1,2.438,2.642" transform="translate(180 501)" fill="#375c9f"/>
    <path id="Trazado_272569" data-name="Trazado 272569" d="M647.094,134.6a2.914,2.914,0,0,1-2.495,2.646,2.145,2.145,0,0,1-2.138-2.191,2.829,2.829,0,0,1,2.555-2.567,2.144,2.144,0,0,1,2.078,2.112" transform="translate(180 501)" fill="#375c9f"/>
  </g>
</svg>
