<svg xmlns="http://www.w3.org/2000/svg" width="126" height="126" viewBox="0 0 126 126">
  <g id="Grupo_1071225" data-name="Grupo 1071225" transform="translate(5460 11096)">
    <circle id="Elipse_4308" data-name="Elipse 4308" cx="63" cy="63" r="63" transform="translate(-5460 -11096)" fill="#1b3f5e"/>
    <g id="Grupo_1070895" data-name="Grupo 1070895" transform="translate(-211.504 6.237)">
      <g id="Grupo_254614" data-name="Grupo 254614" transform="translate(-5218.406 -11083.191)">
        <path id="Trazado_272543" data-name="Trazado 272543" d="M632.3,87.986c.028.3.08.6.081.9,0,5.548.035,11.1-.005,16.643-.043,5.8-2.542,10.17-7.725,12.9a11.665,11.665,0,0,1-4.229,1.276,1.483,1.483,0,0,0-.365.142H582.786a6.211,6.211,0,0,0-1.645-.407,13.62,13.62,0,0,1-7.826-5.241,12.845,12.845,0,0,1-2.581-7.736q.031-26.384.011-52.769a7.141,7.141,0,0,1,.026-1.07,13.6,13.6,0,0,1,5.442-9.226,11.96,11.96,0,0,1,6.395-2.549c.006.463,0,.926.018,1.388.057,1.732-.2,3.483.319,5.186a8.824,8.824,0,0,0-3.242.438,6.975,6.975,0,0,0-4.49,6.748q-.007,20.689,0,41.38c0,2.967-.022,5.935.007,8.9a6.852,6.852,0,0,0,6.855,6.881q17.106.025,34.211,0a6.784,6.784,0,0,0,6.721-6.574c.061-4.725.006-9.451,0-14.177l.224-.205c.214.033.432.051.643.1a7.463,7.463,0,0,0,6.649-1.361c.621-.485,1.188-1.039,1.78-1.562" transform="translate(-565.847 -35.393)" fill="#cf9080"/>
        <path id="Trazado_272544" data-name="Trazado 272544" d="M579.356,40.658a11.96,11.96,0,0,0-6.395,2.549,13.6,13.6,0,0,0-5.442,9.226,7.137,7.137,0,0,0-.026,1.07q0,26.384-.011,52.768a12.843,12.843,0,0,0,2.581,7.737,13.621,13.621,0,0,0,7.826,5.241,6.187,6.187,0,0,1,1.645.407h-5.113a11.8,11.8,0,0,0-2.1-.586,13.769,13.769,0,0,1-9.637-12.129c-.064-.686-.092-1.369-.092-2.055q0-25.057,0-50.115a14.063,14.063,0,0,1,2.153-7.9,13.753,13.753,0,0,1,11.734-6.481c.961-.03,1.923,0,2.885.01,0,.085-.006.171-.01.256" transform="translate(-562.594 -35.208)" fill="#c67e68"/>
        <path id="Trazado_272545" data-name="Trazado 272545" d="M603.97,31.81c6.085-.005,12.172-.049,18.257,0,2.746.022,4.659,2.1,5.016,5.22-.115,2.258.228,4.537-.33,6.773-.066.116-.134.231-.2.349a5.047,5.047,0,0,1-4.435,2.973l-2.661.01c-5.214.055-10.43-.082-15.643.077-.068-.079-.123-.207-.205-.228a5.27,5.27,0,0,1-3.925-5.456c.066-1.559,0-3.123.019-4.684a5.144,5.144,0,0,1,.734-2.474,6.129,6.129,0,0,1,3.371-2.56" transform="translate(-577.476 -31.774)" fill="#fedf7d"/>
        <path id="Trazado_272546" data-name="Trazado 272546" d="M644.928,47.291c.558-2.236.216-4.515.33-6.773a30.925,30.925,0,0,1,6.227.361A13.774,13.774,0,0,1,661.94,53.371c.179,2.963.041,5.927.089,8.89.02,1.263.018,2.525.026,3.788-.44.447-.876.9-1.321,1.34q-4.014,3.993-8.031,7.982c-.011-.328-.03-.657-.031-.987q0-10.05,0-20.1a6.828,6.828,0,0,0-2.147-5.083,7.172,7.172,0,0,0-5.593-1.909" transform="translate(-595.491 -35.263)" fill="#cf9080"/>
        <path id="Trazado_272547" data-name="Trazado 272547" d="M666.306,105.954c-.592.523-1.159,1.078-1.78,1.562a7.463,7.463,0,0,1-6.649,1.361c-.211-.051-.429-.069-.643-.1l-1.066-.623c.345-.244.061-.512-.008-.733a8.47,8.47,0,0,1-.165-3.975,7.881,7.881,0,0,1,2.425-4.2q6.321-6.366,12.679-12.694c.231-.231.429-.493.643-.741q3.48,3.462,6.961,6.924a.647.647,0,0,1,.27.48q-6.124,6.116-12.245,12.233c-.154.154-.282.335-.422.5" transform="translate(-599.85 -53.361)" fill="#d94a54"/>
        <path id="Trazado_272548" data-name="Trazado 272548" d="M600.242,31.8a6.129,6.129,0,0,0-3.371,2.56,5.143,5.143,0,0,0-.734,2.474c-.021,1.561.047,3.125-.019,4.684a5.27,5.27,0,0,0,3.925,5.456c.082.02.137.149.205.228-.109.014-.217.036-.326.04-1.971.062-1.971.061-1.8,2.057a1.841,1.841,0,0,0,1.835,1.757q7.083.027,14.166,0a1.785,1.785,0,0,0,1.789-1.79c.028-.712-.012-1.427-.022-2.139l2.661-.01c-.043.765-.1,1.53-.125,2.3a4.192,4.192,0,0,1-4.223,4.151q-7.159.03-14.318,0a4.242,4.242,0,0,1-4.269-4.291c-.007-.521-.007-1.042,0-1.564,0-.307-.071-.537-.43-.579a5.355,5.355,0,0,1-4.339-3.34c-.518-1.7-.262-3.454-.319-5.185-.016-.462-.013-.926-.018-1.389,0-.085.007-.171.01-.256.315-3.577,2.838-5.073,4.879-5.163,1.611-.071,3.228,0,4.843,0" transform="translate(-573.748 -31.766)" fill="#fecf65"/>
        <path id="Trazado_272549" data-name="Trazado 272549" d="M669.347,83.528c-.214.247-.413.51-.643.741q-6.339,6.347-12.679,12.694a7.88,7.88,0,0,0-2.425,4.2,8.471,8.471,0,0,0,.165,3.975c.068.22.352.489.008.733a7.132,7.132,0,0,1-1.9-1.377,9.691,9.691,0,0,1-1.616-2.732,7.7,7.7,0,0,1,2.184-8.292c.76-.744,1.485-1.523,2.226-2.286q4.016-3.991,8.031-7.982c.445-.443.881-.893,1.321-1.34l1.833-1.766,2.967,2.823.527.611" transform="translate(-597.455 -51.076)" fill="#d72f3e"/>
        <path id="Trazado_272550" data-name="Trazado 272550" d="M681.209,84.183l-.527-.611c0-1.5.241-1.765,1.7-1.839.4.269.629.724,1.077.933,2.154,2.374,4.464,4.594,6.77,6.817.161.186.314.379.485.556a4.025,4.025,0,0,1,.05,5.767c-2.941,3-5.929,5.955-8.908,8.918a1.307,1.307,0,0,1-1.908.147,1.247,1.247,0,0,1,.106-1.947c2.906-2.92,5.826-5.825,8.732-8.744a1.466,1.466,0,0,0-.349-2.593.645.645,0,0,0-.27-.481l-6.961-6.924" transform="translate(-609.317 -51.731)" fill="#fede7d"/>
        <path id="Trazado_272551" data-name="Trazado 272551" d="M692.845,89.7c-2.306-2.223-4.616-4.443-6.77-6.817.365-.5.919-.51,1.458-.582a12.219,12.219,0,0,1,2.585.319,31.318,31.318,0,0,1,2.225,2.267,4.2,4.2,0,0,1,.5,4.813" transform="translate(-611.932 -51.949)" fill="#d94a54"/>
        <path id="Trazado_272552" data-name="Trazado 272552" d="M687.7,80.23a12.217,12.217,0,0,0-2.584-.319c-.54.073-1.094.082-1.458.582-.448-.208-.682-.663-1.077-.932-.776-.995-1.867-1.7-2.561-2.767a4.249,4.249,0,0,1,5.041.764c.9.867,1.761,1.78,2.64,2.673" transform="translate(-609.511 -49.558)" fill="#d72f3e"/>
        <path id="Trazado_272553" data-name="Trazado 272553" d="M678.392,76.8c.694,1.07,1.786,1.772,2.561,2.767-1.46.074-1.7.336-1.7,1.838l-2.967-2.823a1.36,1.36,0,0,1,.758-2.247c.56-.13.9.311,1.35.465" transform="translate(-607.887 -49.565)" fill="#fecf65"/>
        <path id="Trazado_272554" data-name="Trazado 272554" d="M626.033,79.868c-.741.763-1.466,1.542-2.226,2.286a7.7,7.7,0,0,0-2.185,8.29,8.5,8.5,0,0,1-1.434,1.574,3.159,3.159,0,0,0,1.186,5.187,3,3,0,0,0,3.481-.77c.369-.357.75-.7,1.125-1.053.005,4.726.06,9.452,0,14.177a6.785,6.785,0,0,1-6.721,6.574q-17.105.03-34.211,0a6.851,6.851,0,0,1-6.855-6.881c-.029-2.967-.007-5.935-.007-8.9q0-20.69,0-41.38a6.974,6.974,0,0,1,4.49-6.748,8.822,8.822,0,0,1,3.242-.438,5.353,5.353,0,0,0,4.339,3.34c.359.042.432.273.43.579,0,.521-.005,1.042,0,1.563a4.243,4.243,0,0,0,4.269,4.292q7.159.027,14.318,0a4.191,4.191,0,0,0,4.223-4.151c.025-.766.083-1.53.125-2.3a5.045,5.045,0,0,0,4.434-2.973c.063-.118.131-.232.2-.349A7.17,7.17,0,0,1,623.85,53.7,6.827,6.827,0,0,1,626,58.781q.013,10.051,0,20.1c0,.328.02.657.031.987m-19.768-3.491h9.387a4.618,4.618,0,0,0,.658-.013,1.271,1.271,0,0,0,.113-2.521,3.817,3.817,0,0,0-.737-.047q-9.388,0-18.775,0a3.708,3.708,0,0,0-.817.06,1.19,1.19,0,0,0-1.017,1.3,1.225,1.225,0,0,0,1.143,1.2,4.366,4.366,0,0,0,.658.015h9.387m.025,4.809c-3.239,0-6.478-.005-9.716,0a1.336,1.336,0,0,0-1.513,1.276c-.007.748.585,1.265,1.5,1.306.109,0,.22,0,.329,0h18.774a2.7,2.7,0,0,0,.976-.1,1.265,1.265,0,0,0,.6-1.954,1.583,1.583,0,0,0-1.4-.534c-3.184.008-6.368,0-9.552,0m0-12.208h4.944c1.648,0,3.3.014,4.944-.01a1.255,1.255,0,1,0,.013-2.509c-.11-.007-.22,0-.33,0q-9.6,0-19.2,0a3.217,3.217,0,0,0-.575.03,1.211,1.211,0,0,0-.961,1.542,1.284,1.284,0,0,0,1.44.954q4.862-.011,9.724,0m-.05,22.135h1.978l7.91,0a1.186,1.186,0,0,0,1.295-.917,1.216,1.216,0,0,0-.63-1.464,1.823,1.823,0,0,0-.964-.145q-9.559,0-19.118,0a2.821,2.821,0,0,0-.575.022,1.2,1.2,0,0,0-1.057,1.273,1.154,1.154,0,0,0,1.108,1.211,6.09,6.09,0,0,0,.741.02h9.311m11.219,16.4a3.454,3.454,0,0,0-3.486-3.51,3.483,3.483,0,0,0,.021,6.965,3.464,3.464,0,0,0,3.465-3.455M590.046,76.38c.631,0,1.263.014,1.894,0a1.3,1.3,0,0,0,1.392-1.218,1.37,1.37,0,0,0-1.283-1.366c-1.371-.045-2.748-.055-4.117.013A1.207,1.207,0,0,0,586.74,75.2a1.24,1.24,0,0,0,1.329,1.176c.658.023,1.318,0,1.977,0m.007,4.8c-.632,0-1.264-.013-1.9,0-.9.022-1.415.491-1.421,1.255a1.256,1.256,0,0,0,1.352,1.339c1.29.042,2.582.038,3.872,0a1.354,1.354,0,0,0,1.372-1.359,1.3,1.3,0,0,0-1.386-1.231c-.63-.03-1.263-.006-1.894-.008m.019-14.7v.005c-.739,0-1.479-.028-2.216.008a1.086,1.086,0,0,0-1.115,1.168,1.176,1.176,0,0,0,1.087,1.3q2.174.058,4.351,0a1.226,1.226,0,0,0,1.153-1.266,1.261,1.261,0,0,0-1.289-1.209c-.656-.017-1.314,0-1.971,0m-.054,24.612c.684,0,1.368.016,2.051,0a1.248,1.248,0,0,0,1.263-1.232,1.229,1.229,0,0,0-1.177-1.244c-1.421-.038-2.845-.042-4.266,0a1.194,1.194,0,0,0-1.149,1.329,1.119,1.119,0,0,0,1.227,1.144c.683.023,1.367,0,2.051.005m22.711,9.163a1.322,1.322,0,0,0,1.22,1.541,1.267,1.267,0,0,0,1.335-1.332c.04-.937-.467-1.588-1.249-1.6a1.327,1.327,0,0,0-1.306,1.394m-1.551,1.622a1.635,1.635,0,0,0-1.464-1.586,1.274,1.274,0,0,0-1.307,1.286,1.74,1.74,0,0,0,1.529,1.549,1.23,1.23,0,0,0,1.241-1.248m8.38-.36a1.287,1.287,0,0,0-1.248-1.268,1.7,1.7,0,0,0-1.534,1.541,1.288,1.288,0,0,0,1.284,1.316,1.75,1.75,0,0,0,1.5-1.589" transform="translate(-568.82 -39.762)" fill="#f8f5f5"/>
        <path id="Trazado_272555" data-name="Trazado 272555" d="M654.7,122.931c-.375.351-.756.7-1.125,1.053a3.006,3.006,0,0,1-3.481.77,3.956,3.956,0,0,1,1.865-4.028,7.147,7.147,0,0,0,1.9,1.377l1.066.623-.224.2" transform="translate(-597.539 -67.311)" fill="#fede7d"/>
        <path id="Trazado_272556" data-name="Trazado 272556" d="M620.911,57.346c.01.713.049,1.427.022,2.139a1.787,1.787,0,0,1-1.789,1.791q-7.083.032-14.166,0a1.842,1.842,0,0,1-1.836-1.758c-.172-2-.172-1.995,1.8-2.057.109,0,.217-.026.326-.04,5.214-.16,10.429-.022,15.643-.077" transform="translate(-578.768 -41.985)" fill="#f8f4f2"/>
        <path id="Trazado_272557" data-name="Trazado 272557" d="M650.6,118.907a3.956,3.956,0,0,0-1.865,4.028,3.159,3.159,0,0,1-1.187-5.187,8.478,8.478,0,0,0,1.434-1.574,9.685,9.685,0,0,0,1.618,2.733" transform="translate(-596.176 -65.492)" fill="#fecf65"/>
        <path id="Trazado_272558" data-name="Trazado 272558" d="M617.51,91.028h-9.387a4.289,4.289,0,0,1-.658-.016,1.224,1.224,0,0,1-1.143-1.2,1.19,1.19,0,0,1,1.017-1.3,3.673,3.673,0,0,1,.817-.06q9.388,0,18.775,0a3.816,3.816,0,0,1,.737.047,1.271,1.271,0,0,1-.113,2.522,4.71,4.71,0,0,1-.658.013H617.51" transform="translate(-580.065 -54.412)" fill="#375c9f"/>
        <path id="Trazado_272559" data-name="Trazado 272559" d="M617.525,100.752c3.184,0,6.368,0,9.552,0a1.585,1.585,0,0,1,1.4.534,1.265,1.265,0,0,1-.6,1.954,2.716,2.716,0,0,1-.976.1H608.121c-.109,0-.22,0-.329,0-.911-.041-1.5-.559-1.5-1.306a1.336,1.336,0,0,1,1.513-1.277c3.239-.009,6.478,0,9.716,0" transform="translate(-580.055 -59.328)" fill="#375c9f"/>
        <path id="Trazado_272560" data-name="Trazado 272560" d="M617.544,78.743q-4.862,0-9.723,0a1.285,1.285,0,0,1-1.441-.954,1.211,1.211,0,0,1,.961-1.542,3.208,3.208,0,0,1,.575-.03q9.6,0,19.2,0c.11,0,.22,0,.33,0a1.255,1.255,0,1,1-.013,2.509c-1.648.024-3.3.01-4.944.01h-4.944" transform="translate(-580.07 -49.527)" fill="#30579d"/>
        <path id="Trazado_272561" data-name="Trazado 272561" d="M617.5,115.6h-9.312a6.082,6.082,0,0,1-.74-.021,1.155,1.155,0,0,1-1.109-1.211,1.2,1.2,0,0,1,1.057-1.273,2.82,2.82,0,0,1,.575-.022q9.559,0,19.117,0a1.821,1.821,0,0,1,.964.145,1.216,1.216,0,0,1,.63,1.464,1.186,1.186,0,0,1-1.295.917l-7.91,0H617.5" transform="translate(-580.071 -64.252)" fill="#30579d"/>
        <path id="Trazado_272562" data-name="Trazado 272562" d="M638.989,142.265a3.465,3.465,0,0,1-3.465,3.455,3.483,3.483,0,0,1-.021-6.965,3.454,3.454,0,0,1,3.486,3.51" transform="translate(-590.346 -74.514)" fill="#32589d"/>
        <path id="Trazado_272563" data-name="Trazado 272563" d="M595.741,91.005c-.659,0-1.319.019-1.977,0a1.241,1.241,0,0,1-1.329-1.176,1.208,1.208,0,0,1,1.193-1.394c1.37-.068,2.746-.058,4.117-.013a1.371,1.371,0,0,1,1.284,1.366A1.3,1.3,0,0,1,597.636,91c-.631.017-1.263,0-1.894,0" transform="translate(-574.516 -54.387)" fill="#83b5fa"/>
        <path id="Trazado_272564" data-name="Trazado 272564" d="M595.749,100.739c.632,0,1.264-.023,1.9.007a1.3,1.3,0,0,1,1.385,1.232,1.355,1.355,0,0,1-1.372,1.359c-1.29.037-2.582.041-3.872,0A1.255,1.255,0,0,1,592.434,102c.005-.764.525-1.233,1.42-1.255.632-.016,1.263,0,1.9,0" transform="translate(-574.517 -59.321)" fill="#83b5fa"/>
        <path id="Trazado_272565" data-name="Trazado 272565" d="M595.769,76.25c.657,0,1.314-.014,1.97,0a1.261,1.261,0,0,1,1.289,1.209,1.226,1.226,0,0,1-1.153,1.266q-2.174.06-4.351,0a1.176,1.176,0,0,1-1.087-1.3,1.086,1.086,0,0,1,1.115-1.168c.737-.035,1.477-.008,2.217-.008Z" transform="translate(-574.517 -49.537)" fill="#81b4fa"/>
        <path id="Trazado_272566" data-name="Trazado 272566" d="M595.713,115.572c-.684,0-1.368.019-2.051,0a1.119,1.119,0,0,1-1.227-1.144,1.194,1.194,0,0,1,1.149-1.329c1.421-.044,2.844-.04,4.266,0a1.228,1.228,0,0,1,1.178,1.244,1.249,1.249,0,0,1-1.263,1.232c-.683.021-1.367,0-2.051,0" transform="translate(-574.516 -64.248)" fill="#81b4fa"/>
        <path id="Trazado_272567" data-name="Trazado 272567" d="M635.718,131.576a1.328,1.328,0,0,1,1.306-1.395c.782.016,1.289.666,1.249,1.6a1.267,1.267,0,0,1-1.335,1.333,1.322,1.322,0,0,1-1.22-1.541" transform="translate(-591.81 -71.088)" fill="#375c9f"/>
        <path id="Trazado_272568" data-name="Trazado 272568" d="M631.294,134.148a1.23,1.23,0,0,1-1.241,1.248,1.74,1.74,0,0,1-1.529-1.549,1.275,1.275,0,0,1,1.307-1.286,1.636,1.636,0,0,1,1.464,1.586" transform="translate(-588.936 -72.039)" fill="#375c9f"/>
        <path id="Trazado_272569" data-name="Trazado 272569" d="M645.242,133.76a1.75,1.75,0,0,1-1.5,1.589,1.288,1.288,0,0,1-1.284-1.316,1.7,1.7,0,0,1,1.534-1.541,1.287,1.287,0,0,1,1.248,1.268" transform="translate(-594.505 -72.011)" fill="#375c9f"/>
      </g>
    </g>
  </g>
</svg>
