<svg xmlns="http://www.w3.org/2000/svg" xmlns:xlink="http://www.w3.org/1999/xlink" width="218.137" height="175.829" viewBox="0 0 218.137 175.829">
  <defs>
    <clipPath id="clip-path">
      <rect id="Rectángulo_322107" data-name="Rectángulo 322107" width="218.137" height="175.829" transform="translate(746.899 14.173)" fill="none"/>
    </clipPath>
  </defs>
  <g id="Grupo_254615" data-name="Grupo 254615" transform="translate(-926.899 -515.173)">
    <g id="Grupo_254608" data-name="Grupo 254608" transform="translate(180 501)" opacity="0.52">
      <g id="Grupo_254607" data-name="Grupo 254607">
        <g id="Grupo_254606" data-name="Grupo 254606" clip-path="url(#clip-path)">
          <path id="Trazado_272570" data-name="Trazado 272570" d="M955.724,190H756.211a9.312,9.312,0,0,1-9.312-9.312V23.485a9.312,9.312,0,0,1,9.312-9.312H955.724a9.312,9.312,0,0,1,9.312,9.312V180.69A9.312,9.312,0,0,1,955.724,190" fill="#e2e8ec"/>
        </g>
      </g>
    </g>
    <path id="Trazado_272572" data-name="Trazado 272572" d="M825.515,34.084h51.443c.846.468,1.869.5,2.666,1.092-.009,4.734-.042,9.469-.02,14.2a3.877,3.877,0,0,0,4,3.972c3.989.019,7.979.009,11.969,0,.425,0,.891.1,1.22-.306a7.418,7.418,0,0,1,1.005,3.745q.028,11.309.047,22.615c-.569.017-1.139.048-1.709.048-8.513,0-17.027-.012-25.541.013a11.525,11.525,0,0,0-5.783,1.441c-5.55,2.736-8.582,7.221-8.66,13.379-.137,10.889-.035,21.781-.042,32.671,0,4.567-.028,9.133-.042,13.7l-7.056-.005c-.728-1.85-1.8-3.335-3.92-3.72-.011-.332.223-.4.478-.52,2.583-1.177,3.639-2.848,3.46-5.433-.154-2.236-1.623-3.839-4.221-4.606a.6.6,0,0,1,.006-.189,4.967,4.967,0,0,0,4.206-4.545,5.149,5.149,0,0,0-5.378-5.742c-6.132-.034-12.264-.024-18.4-.032q0-5.142-.007-10.283-.009-35.595-.016-71.19l.289-.311m18.6,65.329c.035,2.882-1.07,4.136-3.462,4.411a5.661,5.661,0,0,1-5.311-1.967c-.589-.695-1.317-1.1-2.18-.456a1.969,1.969,0,0,0-.7,2.564,4.158,4.158,0,0,0,.857,1.153,7.634,7.634,0,0,0,3.775,2.035c.742.179,1.1.436,1.078,1.295-.039,1.494.7,2.348,1.858,2.378a1.986,1.986,0,0,0,1.983-2.288c-.016-.946.346-1.265,1.191-1.52a6.212,6.212,0,0,0,3.937-3.456,8.112,8.112,0,0,0-4.125-11.223c-1.04-.466-2.123-.833-3.171-1.28a12.134,12.134,0,0,1-1.878-.936,2.9,2.9,0,0,1-1.306-3.083,2.7,2.7,0,0,1,2.171-2.359,7.681,7.681,0,0,1,5.735.709,1.609,1.609,0,0,0,2.442-.7,1.768,1.768,0,0,0-.642-2.521,5.431,5.431,0,0,0-2.687-1.009c-1.237-.088-1.758-.487-1.7-1.827a1.877,1.877,0,0,0-1.928-1.928,1.981,1.981,0,0,0-1.908,2.092,1.848,1.848,0,0,0,0,.394c.143.874-.186,1.314-1.072,1.6a5.768,5.768,0,0,0-3.933,4.1,6.618,6.618,0,0,0,3.554,8.281c1.486.744,3.078,1.274,4.6,1.953,1.737.776,2.862,2.017,2.817,3.586m6.655-39.477h-3.56c-4.791,0-9.581-.008-14.372.005-1.443,0-2.291.736-2.342,1.942-.055,1.279.781,2.081,2.271,2.17.263.016.527.006.791.006q17.141,0,34.282-.006a6.05,6.05,0,0,0,1.694-.162,1.981,1.981,0,0,0,1.074-3,2.3,2.3,0,0,0-2.17-.967q-8.833.022-17.668.008m14.049,14.269q8.571,0,17.143-.006a2.088,2.088,0,0,0,2.346-1.963c.046-1.212-.889-2.044-2.348-2.09-.22-.007-.44,0-.66,0h-33.1a9.55,9.55,0,0,0-1.185.034,1.977,1.977,0,0,0-1.674,2.705,2.177,2.177,0,0,0,2.334,1.332c5.715-.021,11.429-.01,17.144-.01m-29.071,0h3.032c.087,0,.176,0,.263-.006a2.044,2.044,0,0,0,2.029-2A1.955,1.955,0,0,0,839.1,70.17q-3.293-.076-6.588,0a1.9,1.9,0,0,0-2.009,1.978,1.974,1.974,0,0,0,2.092,2.049c1.053.038,2.108.008,3.162.01m43.975-14.267c-.832,0-1.665-.025-2.5.006a2.006,2.006,0,0,0-2.145,2,1.932,1.932,0,0,0,1.928,2.07c1.791.084,3.593.084,5.383-.005a2.01,2.01,0,0,0,1.915-2.109,2.068,2.068,0,0,0-2.088-1.951c-.83-.039-1.664-.007-2.5-.008" transform="translate(180 501)" fill="#fdd9a9"/>
    <path id="Trazado_272573" data-name="Trazado 272573" d="M790.472,153.6l-.307-.267v-2.9c.38-.153.186-.538.32-.791l6.534,0q.027,1.3.053,2.6-.03.678-.061,1.354h-6.539" transform="translate(180 501)" fill="#aa6101"/>
    <path id="Trazado_272574" data-name="Trazado 272574" d="M897.849,79.409c4.041.017,8.082.043,12.123.048a14.93,14.93,0,0,1,15.042,13.37,25.778,25.778,0,0,1,.184,3.15q0,28.668,0,57.337a15.93,15.93,0,0,1-2.471,8.991c-.234.354-.375.808-.85.957a24.19,24.19,0,0,1-7.538.911q-18.459-.06-36.918,0A14.547,14.547,0,0,1,871.4,163c-1.483-.657-3.072-1.276-3.93-2.844a37.824,37.824,0,0,0,8.5.18c1.348-.049,1.906-1.158,1.966-2.4.057-1.176-.023-2.359-.042-3.539a13.721,13.721,0,0,0,.087-3.283,2.3,2.3,0,0,0-2.3-2.254q-3.488-.07-6.979,0a2.254,2.254,0,0,0-2.284,2.368c-.016,1.052.02,2.106.033,3.159.016,1.67-.269,3.356.252,5-.568,0-.812-.431-1.109-.818a14.864,14.864,0,0,1-3.179-9.388q.069-29.043-.008-58.085c-.012-3.457.338-6.735,2.307-9.679a1.466,1.466,0,0,0,.109-.508A11.519,11.519,0,0,1,870.6,79.47c8.514-.025,17.028-.01,25.542-.013.569,0,1.139-.031,1.709-.048m-19.96,57.576a13.764,13.764,0,0,0,.089-3.288,2.29,2.29,0,0,0-2.3-2.252c-2.329-.043-4.661-.047-6.99,0a2.2,2.2,0,0,0-2.274,2.366c-.015,1.054.02,2.109.033,3.164-.012,1.093-.042,2.185-.033,3.278.015,1.855.859,2.718,2.736,2.746,2.055.03,4.111.033,6.165,0a2.347,2.347,0,0,0,2.62-2.479c.072-1.173-.022-2.356-.042-3.534m7.007-.011c-.011,1.18-.049,2.361-.026,3.54a2.266,2.266,0,0,0,2.316,2.472c2.272.058,4.548.063,6.819,0a2.142,2.142,0,0,0,2.266-2.349c.031-1.136-.007-2.273-.015-3.409a9.509,9.509,0,0,0,.156-3.516,2.3,2.3,0,0,0-2.532-2.273q-3.279-.032-6.558,0a2.173,2.173,0,0,0-2.461,2.393c-.021,1.048.021,2.1.035,3.146m0,17.675c-.011,1.138-.057,2.277-.022,3.413a2.241,2.241,0,0,0,2.31,2.347c2.275.052,4.553.059,6.827,0a2.144,2.144,0,0,0,2.261-2.356c.031-1.136-.007-2.275-.015-3.413a9.585,9.585,0,0,0,.155-3.53,2.266,2.266,0,0,0-2.31-2.247c-2.326-.046-4.654-.054-6.979,0a2.146,2.146,0,0,0-2.26,2.364c-.022,1.14.019,2.282.033,3.422M903.586,118.5c-.015,1.274-.07,2.549-.035,3.821a2.077,2.077,0,0,0,2.2,2.267q3.493.07,6.989,0a2.086,2.086,0,0,0,2.216-2.255c.034-1.361-.019-2.723-.034-4.085.026-.878.088-1.756.068-2.633a2.248,2.248,0,0,0-2.4-2.54c-2.238-.084-4.484-.08-6.722,0a2.294,2.294,0,0,0-2.435,2.281,8.144,8.144,0,0,0,.147,3.139m-7.331.254a8.447,8.447,0,0,0,.187-2.992,2.392,2.392,0,0,0-2.429-2.7,68.754,68.754,0,0,0-6.945.007c-1.5.077-2.192,1.008-2.21,2.549-.012,1.049.023,2.1.037,3.146-.01,1.18-.054,2.36-.022,3.539a2.081,2.081,0,0,0,2.174,2.273q3.54.07,7.08,0a2.022,2.022,0,0,0,2.136-2.155c.041-1.222,0-2.446-.008-3.67m-18.439.256a10.779,10.779,0,0,0,.133-3.8,2.137,2.137,0,0,0-2.038-2.081,36.249,36.249,0,0,0-7.617.042,2.063,2.063,0,0,0-1.885,2.3c0,1.1.021,2.2.034,3.294-.012,1.137-.061,2.276-.026,3.412A2.21,2.21,0,0,0,868.9,124.6c2.144.024,4.289.019,6.433,0a2.335,2.335,0,0,0,2.621-2.572c.022-1-.084-2.009-.133-3.013M914.924,152.8c.017-6.062.065-12.124.033-18.185a3.172,3.172,0,0,0-3.2-3.176c-1.36-.049-2.723-.014-4.085-.013-2.971,0-4.259,1.269-4.265,4.233q-.013,7.71.006,15.421c0,.655.117,1.309.18,1.963-.013,1.225-.078,2.452-.027,3.675a3.74,3.74,0,0,0,3.711,3.682c1.311.06,2.629.058,3.941,0a3.781,3.781,0,0,0,3.748-3.793c.031-1.268-.022-2.538-.037-3.807m-36.893-47.477a8.083,8.083,0,0,0,1.3.207c10.112.013,20.224.04,30.336-.008a4.744,4.744,0,0,0,5.079-4.376,33.123,33.123,0,0,0,.041-8.412c-.34-3.056-2.306-4.568-5.415-4.57q-10.421-.006-20.84,0c-3.428.005-6.856.042-10.284.065-2.325-.013-4.651-.078-6.975-.023a4.859,4.859,0,0,0-4.843,4.619q-.1,3.948,0,7.9a4.663,4.663,0,0,0,4.63,4.615c2.325.039,4.651-.009,6.976-.018" transform="translate(180 501)" fill="#7ccb91"/>
    <path id="Trazado_272575" data-name="Trazado 272575" d="M864.816,80.912a1.449,1.449,0,0,1-.109.508c-1.969,2.943-2.318,6.221-2.307,9.678q.093,29.043.008,58.086a14.872,14.872,0,0,0,3.179,9.388c.3.386.541.813,1.109.817l-.023-.009a.593.593,0,0,0,.275.544l-.016-.016a.594.594,0,0,0,.544.274l-.01-.022c.859,1.567,2.447,2.187,3.93,2.844a14.567,14.567,0,0,0,6.024,1.171q18.457-.06,36.917,0a24.2,24.2,0,0,0,7.539-.911A13.444,13.444,0,0,1,910.76,169.1q-20.151.21-40.307.018c-7.628-.066-14.09-6.676-14.321-14.3-.044-1.447-.043-2.9-.063-4.344q0-4.905,0-9.81c.015-4.566.04-9.132.043-13.7.006-10.891-.1-21.782.042-32.671.077-6.159,3.11-10.643,8.66-13.379" transform="translate(180 501)" fill="#4cba68"/>
    <path id="Trazado_272576" data-name="Trazado 272576" d="M817.023,115.822q0-35.592,0-71.183a10.272,10.272,0,0,1,8.2-10.244q.008,35.595.016,71.19,0,5.142.007,10.283l-8.226-.046" transform="translate(180 501)" fill="#fec477"/>
    <path id="Trazado_272577" data-name="Trazado 272577" d="M817.023,115.822l8.226.046c6.133.008,12.265,0,18.4.032a5.149,5.149,0,0,1,5.378,5.742,4.966,4.966,0,0,1-4.206,4.545q-9.276-.013-18.552-.026a1.238,1.238,0,0,0-.989.241l-8.226,0c-1.933-.524-3.9-.159-5.847-.214a5.174,5.174,0,0,1-4.346-5.287,5.285,5.285,0,0,1,5.171-4.985c1.663-.064,3.329-.066,4.994-.1" transform="translate(180 501)" fill="#fea734"/>
    <path id="Trazado_272578" data-name="Trazado 272578" d="M817.051,126.4l8.226,0,19.535-.027c2.6.768,4.067,2.371,4.221,4.607.179,2.585-.876,4.256-3.459,5.433-.256.117-.49.188-.479.52a17.294,17.294,0,0,0-1.941-.215q-10.438-.015-20.877.007a20.3,20.3,0,0,0-9.969-2.12l-4.492-.025c-1.978-3.785-.613-7.077,3.4-8.2l5.836.026" transform="translate(180 501)" fill="#fd9812"/>
    <path id="Trazado_272579" data-name="Trazado 272579" d="M844.12,99.413c.045-1.569-1.08-2.81-2.817-3.586-1.521-.679-3.113-1.208-4.6-1.953a6.618,6.618,0,0,1-3.554-8.281,5.767,5.767,0,0,1,3.933-4.1c.886-.288,1.215-.728,1.072-1.6a1.928,1.928,0,0,1,0-.395,1.982,1.982,0,0,1,1.909-2.092,1.877,1.877,0,0,1,1.928,1.928c-.062,1.341.459,1.739,1.7,1.827a5.431,5.431,0,0,1,2.687,1.009,1.768,1.768,0,0,1,.642,2.521,1.611,1.611,0,0,1-2.443.7,7.675,7.675,0,0,0-5.734-.71,2.7,2.7,0,0,0-2.171,2.359,2.9,2.9,0,0,0,1.306,3.083,12.134,12.134,0,0,0,1.878.936c1.048.447,2.131.814,3.17,1.28a8.111,8.111,0,0,1,4.126,11.223,6.21,6.21,0,0,1-3.937,3.456c-.845.255-1.208.574-1.192,1.52a1.984,1.984,0,0,1-1.982,2.288c-1.153-.029-1.9-.884-1.859-2.378.023-.859-.335-1.116-1.077-1.295a7.634,7.634,0,0,1-3.775-2.035,4.158,4.158,0,0,1-.857-1.153,1.969,1.969,0,0,1,.7-2.564c.863-.643,1.591-.239,2.18.456a5.659,5.659,0,0,0,5.31,1.967c2.393-.275,3.5-1.528,3.463-4.411" transform="translate(180 501)" fill="#519120"/>
    <path id="Trazado_272580" data-name="Trazado 272580" d="M822.277,136.728q10.439-.009,20.877-.007a17.294,17.294,0,0,1,1.941.215c2.118.385,3.192,1.869,3.92,3.719.07,3.785-1.143,5.616-4.214,6.365L830.283,147a20.431,20.431,0,0,0-3.507-6.441,28.48,28.48,0,0,0-4.5-3.829" transform="translate(180 501)" fill="#ec8600"/>
    <path id="Trazado_272581" data-name="Trazado 272581" d="M879.625,35.176a9,9,0,0,1,3.164,2.287Q888.972,44,895.134,50.55a7.981,7.981,0,0,1,1.663,2.5c-.33.409-.795.306-1.221.306-3.989.006-7.979.016-11.969,0a3.876,3.876,0,0,1-4-3.973c-.022-4.735.01-9.469.02-14.2" transform="translate(180 501)" fill="#feb656"/>
    <path id="Trazado_272582" data-name="Trazado 272582" d="M850.775,59.936q8.833,0,17.668-.008a2.3,2.3,0,0,1,2.17.967,1.981,1.981,0,0,1-1.074,3,6.05,6.05,0,0,1-1.694.162q-17.14.013-34.282.006c-.264,0-.528.01-.791-.006-1.49-.089-2.326-.891-2.271-2.17.051-1.2.9-1.938,2.342-1.942,4.791-.013,9.581-.005,14.372-.005h3.56" transform="translate(180 501)" fill="#519120"/>
    <path id="Trazado_272583" data-name="Trazado 272583" d="M864.824,74.205c-5.714,0-11.429-.011-17.143.01a2.178,2.178,0,0,1-2.335-1.332,1.977,1.977,0,0,1,1.675-2.705,9.539,9.539,0,0,1,1.185-.034h33.1c.219,0,.439,0,.659,0,1.46.046,2.394.878,2.348,2.09a2.087,2.087,0,0,1-2.346,1.963q-8.571.02-17.143.006" transform="translate(180 501)" fill="#519120"/>
    <path id="Trazado_272584" data-name="Trazado 272584" d="M844.8,147.02c3.071-.749,4.284-2.58,4.214-6.365l7.056.005q0,4.9,0,9.809h-7.255a5.3,5.3,0,0,0-4.028-3.249.832.832,0,0,1,.015-.2" transform="translate(180 501)" fill="#fec477"/>
    <path id="Trazado_272585" data-name="Trazado 272585" d="M835.754,74.2c-1.054,0-2.11.029-3.163-.009a1.974,1.974,0,0,1-2.092-2.048,1.9,1.9,0,0,1,2.01-1.979q3.293-.07,6.588,0a1.954,1.954,0,0,1,1.981,2.023,2.044,2.044,0,0,1-2.029,2c-.088.007-.176.006-.264.006h-3.031" transform="translate(180 501)" fill="#519120"/>
    <path id="Trazado_272586" data-name="Trazado 272586" d="M879.728,59.938c.832,0,1.666-.032,2.5.008a2.067,2.067,0,0,1,2.088,1.951,2.01,2.01,0,0,1-1.915,2.109c-1.79.089-3.592.089-5.383.005a1.933,1.933,0,0,1-1.928-2.071,2.007,2.007,0,0,1,2.145-2c.832-.03,1.665-.005,2.5-.005" transform="translate(180 501)" fill="#519120"/>
    <path id="Trazado_272587" data-name="Trazado 272587" d="M844.812,126.376l-19.536.027a1.238,1.238,0,0,1,.99-.242q9.276.01,18.552.026a.6.6,0,0,0-.006.189" transform="translate(180 501)" fill="#feb656"/>
    <path id="Trazado_272588" data-name="Trazado 272588" d="M807.816,134.582l4.492.025a18.1,18.1,0,0,0-12.6,7.652l-6.44-.041c3.172-4.892,7.787-7.216,13.5-7.585.349-.023.7-.034,1.048-.051" transform="translate(180 501)" fill="#cb7401"/>
    <path id="Trazado_272589" data-name="Trazado 272589" d="M793.268,142.218l6.439.042q-1.009,2.132-2.022,4.263l-6.445-.061a9.306,9.306,0,0,1,2.028-4.244" transform="translate(180 501)" fill="#aa6101"/>
    <path id="Trazado_272590" data-name="Trazado 272590" d="M791.24,146.462l6.443.061q-.333,1.556-.664,3.113h-6.535a9.468,9.468,0,0,1,.756-3.173" transform="translate(180 501)" fill="#cb7401"/>
    <path id="Trazado_272591" data-name="Trazado 272591" d="M817.051,126.4l-5.836-.026a.482.482,0,0,0-.011-.189c1.95.056,3.915-.31,5.847.215" transform="translate(180 501)" fill="#feb656"/>
    <path id="Trazado_272592" data-name="Trazado 272592" d="M844.9,157.577a5.154,5.154,0,0,1,4.061,4.035,4.948,4.948,0,0,1-1.655,5,4.467,4.467,0,0,1-2.975,1.244q-12.581,0-25.16-.032A17.535,17.535,0,0,0,829.8,157.566l15.1.011" transform="translate(180 501)" fill="#aa6101"/>
    <path id="Trazado_272593" data-name="Trazado 272593" d="M829.8,157.566a17.53,17.53,0,0,1-10.631,10.254,24.366,24.366,0,0,1-8.723.6c-.13-.1-.246-.266-.393-.3a17.358,17.358,0,0,1-10.154-6.888q-1.025-1.993-2.047-3.986-.423-1.827-.845-3.654.031-.676.062-1.353l4.128,0a15.645,15.645,0,0,0,2.029,6.037,12.59,12.59,0,0,0,20.765.9,15.2,15.2,0,0,0,2.621-6.941l4.139.007a12.882,12.882,0,0,1-.951,5.322" transform="translate(180 501)" fill="#fea734"/>
    <path id="Trazado_272594" data-name="Trazado 272594" d="M829.8,157.566a12.882,12.882,0,0,0,.951-5.322,16.964,16.964,0,0,0-.432-4.981l14.463-.043a5.3,5.3,0,0,1,4.028,3.249c.781,3.49-.14,5.164-3.911,7.108l-15.1-.011" transform="translate(180 501)" fill="#cb7401"/>
    <path id="Trazado_272595" data-name="Trazado 272595" d="M799.9,161.233a17.352,17.352,0,0,0,10.154,6.888c.146.037.263.2.393.3-5.752.514-10.94-.716-15.158-4.92a10.948,10.948,0,0,1-1.834-2.213l6.445-.058" transform="translate(180 501)" fill="#cb7401"/>
    <path id="Trazado_272596" data-name="Trazado 272596" d="M799.9,161.233l-6.445.058a9.828,9.828,0,0,1-2-3.72c.382-.4.882-.284,1.344-.289,1.684-.02,3.369-.024,5.052-.035q1.023,1.994,2.048,3.986" transform="translate(180 501)" fill="#aa6101"/>
    <path id="Trazado_272597" data-name="Trazado 272597" d="M797.856,157.248c-1.684.01-3.369.014-5.052.034-.463.006-.963-.115-1.345.29a10.71,10.71,0,0,1-.987-3.977h6.539q.422,1.827.845,3.654" transform="translate(180 501)" fill="#cb7401"/>
    <path id="Trazado_272598" data-name="Trazado 272598" d="M830.323,147.263a16.964,16.964,0,0,1,.432,4.981l-4.139-.008a14.564,14.564,0,0,0-.828-5.144c-1.651-4.425-6.172-7.958-10.3-8a11.33,11.33,0,0,0-8.041,1.612c-4.289,2.616-6.258,6.56-6.248,11.54l-4.128,0-.054-2.6q.333-1.557.665-3.113l2.024-4.263a18.1,18.1,0,0,1,12.6-7.653,20.321,20.321,0,0,1,9.97,2.121,28.473,28.473,0,0,1,4.5,3.83,20.426,20.426,0,0,1,3.507,6.44c.013.088.027.177.04.265" transform="translate(180 501)" fill="#fec477"/>
    <path id="Trazado_272599" data-name="Trazado 272599" d="M878.245,88.236c3.428-.023,6.856-.06,10.284-.065q10.421-.015,20.84,0c3.109,0,5.075,1.514,5.415,4.57a33.123,33.123,0,0,1-.041,8.412,4.744,4.744,0,0,1-5.079,4.376c-10.112.048-20.224.021-30.336.009a8.2,8.2,0,0,1-1.3-.208,5.6,5.6,0,0,1-3.464-6.029,30.139,30.139,0,0,0,0-4.477c-.246-3.053.8-5.312,3.681-6.586" transform="translate(180 501)" fill="#3d9ae0"/>
    <path id="Trazado_272600" data-name="Trazado 272600" d="M903.588,153.048c-.063-.654-.177-1.308-.179-1.963q-.023-7.71-.006-15.421c.005-2.964,1.293-4.231,4.264-4.233,1.362,0,2.725-.036,4.085.013a3.172,3.172,0,0,1,3.2,3.176c.032,6.061-.015,12.123-.032,18.185a4.415,4.415,0,0,1-4.78,2.642,5.522,5.522,0,0,0-1.436,0,4.985,4.985,0,0,1-5.121-2.4" transform="translate(180 501)" fill="#fd9812"/>
    <path id="Trazado_272601" data-name="Trazado 272601" d="M878.245,88.236c-2.877,1.274-3.927,3.533-3.681,6.586a30.139,30.139,0,0,1,0,4.477,5.6,5.6,0,0,0,3.464,6.029c-2.325.01-4.651.057-6.976.018a4.663,4.663,0,0,1-4.63-4.615q-.1-3.948,0-7.9a4.859,4.859,0,0,1,4.843-4.619c2.323-.055,4.65.011,6.975.023" transform="translate(180 501)" fill="#1f81cd"/>
    <path id="Trazado_272602" data-name="Trazado 272602" d="M866.443,118.773c-.013-1.1-.038-2.2-.034-3.294a2.063,2.063,0,0,1,1.885-2.3,36.249,36.249,0,0,1,7.617-.042,2.136,2.136,0,0,1,2.038,2.081,10.779,10.779,0,0,1-.133,3.8c-3.817,1.141-7.617,1.483-11.373-.241" transform="translate(180 501)" fill="#327f47"/>
    <path id="Trazado_272603" data-name="Trazado 272603" d="M884.9,118.771c-.014-1.049-.049-2.1-.036-3.146.017-1.541.71-2.472,2.21-2.549a68.735,68.735,0,0,1,6.944-.007,2.392,2.392,0,0,1,2.429,2.7,8.447,8.447,0,0,1-.187,2.992,13.665,13.665,0,0,1-11.36.013" transform="translate(180 501)" fill="#327f47"/>
    <path id="Trazado_272604" data-name="Trazado 272604" d="M903.586,118.5a8.166,8.166,0,0,1-.148-3.139,2.293,2.293,0,0,1,2.436-2.281c2.238-.085,4.484-.09,6.722-.006a2.25,2.25,0,0,1,2.4,2.541c.02.876-.042,1.755-.068,2.632a3.31,3.31,0,0,1-3.217,1.58c-1.4-.055-2.8-.078-4.191.006a4.619,4.619,0,0,1-3.929-1.333" transform="translate(180 501)" fill="#fd9812"/>
    <path id="Trazado_272605" data-name="Trazado 272605" d="M884.9,154.65c-.013-1.141-.055-2.282-.033-3.422a2.147,2.147,0,0,1,2.26-2.365c2.325-.057,4.654-.049,6.979,0a2.266,2.266,0,0,1,2.31,2.248,9.564,9.564,0,0,1-.155,3.53,17.434,17.434,0,0,1-11.361.013" transform="translate(180 501)" fill="#327f47"/>
    <path id="Trazado_272606" data-name="Trazado 272606" d="M884.9,136.975c-.014-1.049-.056-2.1-.035-3.146a2.173,2.173,0,0,1,2.461-2.393q3.277-.03,6.558,0a2.3,2.3,0,0,1,2.532,2.274,9.51,9.51,0,0,1-.156,3.516c-3.814,1.157-7.611,1.538-11.36-.251" transform="translate(180 501)" fill="#327f47"/>
    <path id="Trazado_272607" data-name="Trazado 272607" d="M866.443,136.977c-.013-1.055-.048-2.11-.033-3.164a2.2,2.2,0,0,1,2.274-2.366c2.329-.048,4.661-.044,6.99,0a2.29,2.29,0,0,1,2.3,2.253,13.763,13.763,0,0,1-.088,3.288,5.4,5.4,0,0,1-4.283,1.038c-2.408-.208-4.978.683-7.163-1.047" transform="translate(180 501)" fill="#327f47"/>
    <path id="Trazado_272608" data-name="Trazado 272608" d="M866.444,154.388c-.013-1.053-.049-2.106-.034-3.159a2.256,2.256,0,0,1,2.285-2.368q3.488-.075,6.979,0a2.294,2.294,0,0,1,2.3,2.253,13.721,13.721,0,0,1-.087,3.283,5.362,5.362,0,0,1-4.3,1.035c-2.4-.232-4.977.745-7.148-1.044" transform="translate(180 501)" fill="#327f47"/>
    <path id="Trazado_272609" data-name="Trazado 272609" d="M866.444,154.388c2.171,1.789,4.75.812,7.148,1.044a5.362,5.362,0,0,0,4.3-1.035c.019,1.18.1,2.363.042,3.539-.06,1.245-.618,2.354-1.966,2.4a37.883,37.883,0,0,1-8.5-.179l.01.022a.485.485,0,0,0-.545-.274l.017.016a.5.5,0,0,0-.275-.545l.023.01c-.521-1.645-.236-3.331-.252-5" transform="translate(180 501)" fill="#2d7440"/>
    <path id="Trazado_272610" data-name="Trazado 272610" d="M866.443,136.977c2.185,1.73,4.755.839,7.163,1.047a5.4,5.4,0,0,0,4.283-1.038c.02,1.178.114,2.361.042,3.534a2.347,2.347,0,0,1-2.62,2.479c-2.055.035-4.11.032-6.165,0-1.878-.028-2.721-.891-2.737-2.746-.009-1.093.021-2.185.034-3.278" transform="translate(180 501)" fill="#2d7440"/>
    <path id="Trazado_272611" data-name="Trazado 272611" d="M903.588,153.048a4.985,4.985,0,0,0,5.121,2.4,5.522,5.522,0,0,1,1.436,0,4.415,4.415,0,0,0,4.78-2.642c.014,1.269.067,2.539.036,3.807a3.781,3.781,0,0,1-3.748,3.793c-1.312.058-2.63.06-3.941,0a3.74,3.74,0,0,1-3.711-3.682c-.051-1.223.014-2.45.027-3.675" transform="translate(180 501)" fill="#ec8600"/>
    <path id="Trazado_272612" data-name="Trazado 272612" d="M884.9,136.975c3.749,1.789,7.546,1.408,11.36.251.007,1.136.046,2.273.014,3.408a2.142,2.142,0,0,1-2.265,2.35c-2.271.066-4.547.061-6.819,0a2.266,2.266,0,0,1-2.317-2.472c-.022-1.18.016-2.36.027-3.54" transform="translate(180 501)" fill="#2d7440"/>
    <path id="Trazado_272613" data-name="Trazado 272613" d="M884.9,154.65a17.434,17.434,0,0,0,11.361-.013c.008,1.138.046,2.276.016,3.413a2.145,2.145,0,0,1-2.261,2.356c-2.274.062-4.552.055-6.827,0a2.24,2.24,0,0,1-2.31-2.347c-.035-1.136.011-2.274.021-3.412" transform="translate(180 501)" fill="#2d7440"/>
    <path id="Trazado_272614" data-name="Trazado 272614" d="M866.443,118.773c3.756,1.724,7.556,1.382,11.373.241.049,1,.156,2.01.133,3.013a2.334,2.334,0,0,1-2.62,2.572c-2.145.016-4.289.021-6.434,0a2.21,2.21,0,0,1-2.478-2.411c-.035-1.136.014-2.275.026-3.412" transform="translate(180 501)" fill="#2d7440"/>
    <path id="Trazado_272615" data-name="Trazado 272615" d="M903.586,118.5a4.619,4.619,0,0,0,3.929,1.333c1.392-.084,2.8-.061,4.191-.006a3.31,3.31,0,0,0,3.217-1.58c.015,1.362.068,2.725.034,4.085a2.088,2.088,0,0,1-2.216,2.256q-3.494.069-6.989,0a2.076,2.076,0,0,1-2.2-2.266c-.035-1.273.02-2.547.035-3.821" transform="translate(180 501)" fill="#ec8600"/>
    <path id="Trazado_272616" data-name="Trazado 272616" d="M884.9,118.771a13.665,13.665,0,0,0,11.36-.013c.006,1.224.049,2.448.009,3.67a2.023,2.023,0,0,1-2.137,2.155q-3.539.072-7.079,0a2.081,2.081,0,0,1-2.174-2.273c-.032-1.179.011-2.359.021-3.539" transform="translate(180 501)" fill="#2d7440"/>
    <path id="Trazado_272617" data-name="Trazado 272617" d="M866.673,159.38a.5.5,0,0,1,.275.545.591.591,0,0,1-.275-.545" transform="translate(180 501)" fill="#7ccb91"/>
    <path id="Trazado_272618" data-name="Trazado 272618" d="M866.932,159.908a.483.483,0,0,1,.544.274.6.6,0,0,1-.544-.274" transform="translate(180 501)" fill="#7ccb91"/>
    <path id="Trazado_272619" data-name="Trazado 272619" d="M830.323,147.263c-.013-.088-.027-.177-.04-.265l14.518.022a.84.84,0,0,0-.015.2l-14.463.043" transform="translate(180 501)" fill="#fd9812"/>
    <path id="Trazado_272620" data-name="Trazado 272620" d="M815.49,139.091c4.126.042,8.647,3.575,10.3,8a14.512,14.512,0,0,1,.828,5.144,15.194,15.194,0,0,1-2.621,6.941,12.692,12.692,0,0,1-8.518,4.945c-.4-.172-.79-.364-1.2-.511a12.612,12.612,0,0,1-8.488-14,12.172,12.172,0,0,1,8-9.832,5.739,5.739,0,0,0,1.694-.685m3.968,5.973c.026-1.4-1.038-1.836-2.075-2.2-.57-.2-.981-.33-1.165-1.027a1.836,1.836,0,0,0-1.988-1.4,1.861,1.861,0,0,0-1.9,1.666,1.2,1.2,0,0,1-.689,1.024c-2.222,1.124-2.706,3.079-2.471,5.334.214,2.051,1.592,3.118,3.357,3.838.852.348,1.711.687,2.529,1.1s.813,1.209.645,1.96c-.163.731-.769.839-1.433.88a2.782,2.782,0,0,1-2.307-1.039,1.669,1.669,0,0,0-2.377-.2,1.931,1.931,0,0,0-.739,2.432,3.748,3.748,0,0,0,2.213,2.124,1.906,1.906,0,0,1,1.37,1.42,1.765,1.765,0,0,0,1.716,1.229,1.572,1.572,0,0,0,1.769-.871,3.691,3.691,0,0,1,2.025-2.211,3.247,3.247,0,0,0,1.113-1.276,5.78,5.78,0,0,0-2.94-8.568,25.214,25.214,0,0,1-2.4-1.055.853.853,0,0,1-.525-.971.993.993,0,0,1,.958-.767,4.531,4.531,0,0,1,2.432.375,1.9,1.9,0,0,0,2.885-1.8" transform="translate(180 501)" fill="#ec8600"/>
    <path id="Trazado_272621" data-name="Trazado 272621" d="M815.49,139.091a5.763,5.763,0,0,1-1.7.686,12.171,12.171,0,0,0-8,9.831,12.614,12.614,0,0,0,8.488,14c.408.148.8.34,1.2.511a12.772,12.772,0,0,1-12.246-5.842,15.645,15.645,0,0,1-2.029-6.037c-.01-4.98,1.959-8.925,6.248-11.54a11.33,11.33,0,0,1,8.041-1.612" transform="translate(180 501)" fill="#cb7401"/>
    <path id="Trazado_272622" data-name="Trazado 272622" d="M819.458,145.064a1.9,1.9,0,0,1-2.885,1.8,4.531,4.531,0,0,0-2.432-.375.993.993,0,0,0-.958.767.853.853,0,0,0,.525.971,25.214,25.214,0,0,0,2.4,1.055,5.78,5.78,0,0,1,2.94,8.568,3.247,3.247,0,0,1-1.113,1.276,3.691,3.691,0,0,0-2.025,2.211,1.572,1.572,0,0,1-1.769.871,1.765,1.765,0,0,1-1.716-1.229,1.906,1.906,0,0,0-1.37-1.42,3.748,3.748,0,0,1-2.213-2.124A1.931,1.931,0,0,1,809.58,155a1.669,1.669,0,0,1,2.377.2,2.782,2.782,0,0,0,2.307,1.039c.664-.041,1.27-.149,1.433-.88.168-.751.172-1.543-.645-1.96s-1.677-.757-2.529-1.1c-1.765-.72-3.143-1.787-3.357-3.838-.235-2.255.249-4.21,2.471-5.334a1.2,1.2,0,0,0,.689-1.024,1.861,1.861,0,0,1,1.9-1.666,1.836,1.836,0,0,1,1.988,1.4c.184.7.595.826,1.165,1.027,1.037.365,2.1.8,2.075,2.2" transform="translate(180 501)" fill="#aa6101"/>
  </g>
</svg>
