<svg xmlns="http://www.w3.org/2000/svg" xmlns:xlink="http://www.w3.org/1999/xlink" width="347.973" height="365.802" viewBox="0 0 347.973 365.802">
  <defs>
    <clipPath id="clip-path">
      <rect id="Rectángulo_325632" data-name="Rectángulo 325632" width="31.084" height="34.82" transform="translate(306.781 477.82)" fill="none"/>
    </clipPath>
    <clipPath id="clip-path-3">
      <rect id="Rectángulo_325628" data-name="Rectángulo 325628" width="27.654" height="34.02" transform="translate(306.781 477.82)" fill="none"/>
    </clipPath>
    <clipPath id="clip-path-4">
      <rect id="Rectángulo_325629" data-name="Rectángulo 325629" width="23.513" height="30.25" transform="translate(314.352 482.39)" fill="none"/>
    </clipPath>
    <clipPath id="clip-path-5">
      <rect id="Rectángulo_325630" data-name="Rectángulo 325630" width="6.175" height="7.95" transform="translate(323.021 493.54)" fill="none"/>
    </clipPath>
    <clipPath id="clip-path-6">
      <rect id="Rectángulo_325637" data-name="Rectángulo 325637" width="31.083" height="34.82" transform="translate(485.073 374.88)" fill="none"/>
    </clipPath>
    <clipPath id="clip-path-8">
      <rect id="Rectángulo_325633" data-name="Rectángulo 325633" width="27.654" height="34.02" transform="translate(485.073 374.88)" fill="none"/>
    </clipPath>
    <clipPath id="clip-path-9">
      <rect id="Rectángulo_325634" data-name="Rectángulo 325634" width="23.512" height="30.24" transform="translate(492.644 379.46)" fill="none"/>
    </clipPath>
    <clipPath id="clip-path-10">
      <rect id="Rectángulo_325635" data-name="Rectángulo 325635" width="6.176" height="7.94" transform="translate(501.312 390.61)" fill="none"/>
    </clipPath>
    <clipPath id="clip-path-11">
      <rect id="Rectángulo_325642" data-name="Rectángulo 325642" width="31.084" height="34.81" transform="translate(212.391 423.5)" fill="none"/>
    </clipPath>
    <clipPath id="clip-path-13">
      <rect id="Rectángulo_325638" data-name="Rectángulo 325638" width="27.654" height="34.02" transform="translate(212.391 423.5)" fill="none"/>
    </clipPath>
    <clipPath id="clip-path-14">
      <rect id="Rectángulo_325639" data-name="Rectángulo 325639" width="23.513" height="30.24" transform="translate(219.962 428.07)" fill="none"/>
    </clipPath>
    <clipPath id="clip-path-15">
      <rect id="Rectángulo_325640" data-name="Rectángulo 325640" width="6.175" height="7.94" transform="translate(228.631 439.22)" fill="none"/>
    </clipPath>
    <clipPath id="clip-path-16">
      <rect id="Rectángulo_325647" data-name="Rectángulo 325647" width="59.186" height="71.56" transform="translate(339.058 161.21)" fill="none"/>
    </clipPath>
    <clipPath id="clip-path-18">
      <rect id="Rectángulo_325643" data-name="Rectángulo 325643" width="51.501" height="69.78" transform="translate(339.058 161.21)" fill="none"/>
    </clipPath>
    <clipPath id="clip-path-19">
      <rect id="Rectángulo_325644" data-name="Rectángulo 325644" width="52.708" height="67.8" transform="translate(345.536 164.97)" fill="none"/>
    </clipPath>
    <clipPath id="clip-path-20">
      <rect id="Rectángulo_325645" data-name="Rectángulo 325645" width="0.044" height="0.05" transform="translate(377.177 223.85)" fill="none"/>
    </clipPath>
  </defs>
  <g id="Grupo_262120" data-name="Grupo 262120" transform="translate(-11414.419 10627.509)">
    <g id="Grupo_262113" data-name="Grupo 262113">
      <path id="Trazado_279910" data-name="Trazado 279910" d="M407.6,507.931c-81.382,2.622-160.629,16-201.862-55.17S188.027,290.9,258.279,250.2c47.434-27.482,182.969-27.564,178.72,71.816-3.822,89.391,49.927,54.167,63.319,77.283,41.233,71.171,2.011,105.579-92.723,108.631" transform="translate(11229 -10788.719)" fill="#e7f4fa"/>
      <path id="Trazado_279911" data-name="Trazado 279911" d="M515.43,313.49c9.628,18.565,3.955,40.6-12.671,49.227s-37.91.564-47.538-18-12.031-52.248,4.6-60.871S505.8,294.926,515.43,313.49" transform="translate(11229 -10788.719)" fill="#e7f4fa"/>
      <path id="Trazado_279912" data-name="Trazado 279912" d="M315.941,526.282l-119.38-68.924c-1.872-1.081-1.637-2.968.524-4.216L405.446,332.993a8.117,8.117,0,0,1,7.3-.3l119.38,68.924c1.872,1.08,1.637,2.968-.524,4.216L323.243,525.979a8.117,8.117,0,0,1-7.3.3" transform="translate(11229 -10788.719)" fill="#f2f2f2"/>
      <g id="Grupo_261863" data-name="Grupo 261863" transform="translate(11229 -10788.719)" clip-path="url(#clip-path)">
        <g id="Grupo_261862" data-name="Grupo 261862" style="isolation: isolate">
          <g id="Grupo_261861" data-name="Grupo 261861">
            <g id="Grupo_261860" data-name="Grupo 261860" clip-path="url(#clip-path)">
              <g id="Grupo_261853" data-name="Grupo 261853">
                <g id="Grupo_261852" data-name="Grupo 261852">
                  <g id="Grupo_261851" data-name="Grupo 261851" clip-path="url(#clip-path-3)">
                    <path id="Trazado_279913" data-name="Trazado 279913" d="M318.5,479.433c3.267-1.886,6.227-2.061,8.365-.819l7.571,4.574c-2.138-1.242-5.1-1.067-8.365.819-6.493,3.749-11.739,12.836-11.718,20.3.01,3.706,1.319,6.314,3.429,7.54l-7.571-4.574c-2.11-1.226-3.418-3.834-3.429-7.541-.021-7.46,5.225-16.547,11.718-20.3" fill="#595959"/>
                  </g>
                </g>
              </g>
              <g id="Grupo_261856" data-name="Grupo 261856">
                <g id="Grupo_261855" data-name="Grupo 261855">
                  <g id="Grupo_261854" data-name="Grupo 261854" clip-path="url(#clip-path-4)">
                    <path id="Trazado_279914" data-name="Trazado 279914" d="M326.07,484.008c-6.493,3.749-11.739,12.836-11.718,20.3s5.3,10.47,11.794,6.722,11.74-12.836,11.719-20.3-5.3-10.47-11.795-6.721" fill="#262626"/>
                  </g>
                </g>
              </g>
              <g id="Grupo_261859" data-name="Grupo 261859">
                <g id="Grupo_261858" data-name="Grupo 261858">
                  <g id="Grupo_261857" data-name="Grupo 261857" clip-path="url(#clip-path-5)">
                    <path id="Trazado_279915" data-name="Trazado 279915" d="M326.1,493.969a6.786,6.786,0,0,0-3.078,5.331c.006,1.959,1.393,2.749,3.1,1.765a6.785,6.785,0,0,0,3.078-5.331c-.006-1.959-1.393-2.75-3.1-1.765" fill="#595959"/>
                  </g>
                </g>
              </g>
              <path id="Trazado_279916" data-name="Trazado 279916" d="M315.414,503.69c.021,6.784,4.825,9.523,10.73,6.114s10.677-11.677,10.656-18.461-4.824-9.524-10.729-6.111S315.4,496.9,315.414,503.69m1.388-.8c-.02-5.909,4.134-13.1,9.277-16.07s9.318-.585,9.338,5.32-4.139,13.1-9.277,16.07-9.322.585-9.338-5.32" fill="#f2f2f2"/>
            </g>
          </g>
        </g>
      </g>
      <path id="Trazado_279917" data-name="Trazado 279917" d="M316.651,483.656a3.252,3.252,0,0,1-1.919-2.682l.041-8.008a3.253,3.253,0,0,0,1.919,2.682,10.131,10.131,0,0,0,9.2,0A3.23,3.23,0,0,0,327.776,473l-.041,8.009a3.229,3.229,0,0,1-1.889,2.644,10.131,10.131,0,0,1-9.2,0" transform="translate(11229 -10788.719)" fill="#bbb"/>
      <path id="Trazado_279918" data-name="Trazado 279918" d="M316.693,475.647a10.123,10.123,0,0,0,9.194,0c2.53-1.47,2.517-3.855-.03-5.325a10.137,10.137,0,0,0-9.2,0c-2.53,1.47-2.517,3.855.031,5.325" transform="translate(11229 -10788.719)" fill="#f2f2f2"/>
      <g id="Grupo_261878" data-name="Grupo 261878" transform="translate(11229 -10788.719)" clip-path="url(#clip-path-6)">
        <g id="Grupo_261877" data-name="Grupo 261877" style="isolation: isolate">
          <g id="Grupo_261876" data-name="Grupo 261876">
            <g id="Grupo_261875" data-name="Grupo 261875" clip-path="url(#clip-path-6)">
              <g id="Grupo_261868" data-name="Grupo 261868">
                <g id="Grupo_261867" data-name="Grupo 261867">
                  <g id="Grupo_261866" data-name="Grupo 261866" clip-path="url(#clip-path-8)">
                    <path id="Trazado_279919" data-name="Trazado 279919" d="M496.791,376.494c3.267-1.886,6.228-2.062,8.365-.819l7.571,4.574c-2.137-1.242-5.1-1.067-8.365.819-6.493,3.749-11.739,12.836-11.718,20.3.01,3.706,1.319,6.314,3.429,7.54l-7.571-4.574c-2.11-1.226-3.418-3.834-3.429-7.541-.021-7.46,5.225-16.547,11.718-20.3" fill="#595959"/>
                  </g>
                </g>
              </g>
              <g id="Grupo_261871" data-name="Grupo 261871">
                <g id="Grupo_261870" data-name="Grupo 261870">
                  <g id="Grupo_261869" data-name="Grupo 261869" clip-path="url(#clip-path-9)">
                    <path id="Trazado_279920" data-name="Trazado 279920" d="M504.362,381.068c-6.493,3.749-11.739,12.836-11.718,20.3s5.3,10.47,11.795,6.722,11.739-12.836,11.718-20.3-5.3-10.47-11.795-6.721" fill="#262626"/>
                  </g>
                </g>
              </g>
              <g id="Grupo_261874" data-name="Grupo 261874">
                <g id="Grupo_261873" data-name="Grupo 261873">
                  <g id="Grupo_261872" data-name="Grupo 261872" clip-path="url(#clip-path-10)">
                    <path id="Trazado_279921" data-name="Trazado 279921" d="M504.39,391.029a6.786,6.786,0,0,0-3.078,5.331c.006,1.959,1.393,2.75,3.1,1.765a6.785,6.785,0,0,0,3.078-5.331c-.006-1.959-1.393-2.749-3.1-1.765" fill="#595959"/>
                  </g>
                </g>
              </g>
              <path id="Trazado_279922" data-name="Trazado 279922" d="M493.706,400.75c.021,6.784,4.825,9.523,10.73,6.115s10.676-11.678,10.656-18.462-4.824-9.523-10.729-6.111-10.673,11.673-10.657,18.458m1.388-.8c-.02-5.909,4.134-13.1,9.277-16.07s9.318-.585,9.338,5.32-4.139,13.1-9.277,16.07-9.322.585-9.338-5.32" fill="#f2f2f2"/>
            </g>
          </g>
        </g>
      </g>
      <path id="Trazado_279923" data-name="Trazado 279923" d="M494.943,380.716a3.253,3.253,0,0,1-1.919-2.682l.041-8.008a3.252,3.252,0,0,0,1.919,2.682,10.137,10.137,0,0,0,9.195,0,3.229,3.229,0,0,0,1.889-2.645l-.041,8.009a3.229,3.229,0,0,1-1.889,2.644,10.128,10.128,0,0,1-9.2,0" transform="translate(11229 -10788.719)" fill="#bbb"/>
      <path id="Trazado_279924" data-name="Trazado 279924" d="M494.984,372.708a10.131,10.131,0,0,0,9.195,0c2.53-1.471,2.517-3.855-.03-5.326a10.131,10.131,0,0,0-9.195,0c-2.531,1.471-2.517,3.855.03,5.326" transform="translate(11229 -10788.719)" fill="#f2f2f2"/>
      <g id="Grupo_261893" data-name="Grupo 261893" transform="translate(11229 -10788.719)" clip-path="url(#clip-path-11)">
        <g id="Grupo_261892" data-name="Grupo 261892" style="isolation: isolate">
          <g id="Grupo_261891" data-name="Grupo 261891">
            <g id="Grupo_261890" data-name="Grupo 261890" clip-path="url(#clip-path-11)">
              <g id="Grupo_261883" data-name="Grupo 261883">
                <g id="Grupo_261882" data-name="Grupo 261882">
                  <g id="Grupo_261881" data-name="Grupo 261881" clip-path="url(#clip-path-13)">
                    <path id="Trazado_279925" data-name="Trazado 279925" d="M224.109,425.108c3.267-1.886,6.227-2.061,8.365-.818l7.571,4.574c-2.138-1.242-5.1-1.067-8.365.819-6.493,3.749-11.739,12.836-11.718,20.3.01,3.707,1.319,6.314,3.429,7.541l-7.571-4.574c-2.11-1.227-3.418-3.834-3.429-7.541-.021-7.46,5.225-16.548,11.718-20.3" fill="#595959"/>
                  </g>
                </g>
              </g>
              <g id="Grupo_261886" data-name="Grupo 261886">
                <g id="Grupo_261885" data-name="Grupo 261885">
                  <g id="Grupo_261884" data-name="Grupo 261884" clip-path="url(#clip-path-14)">
                    <path id="Trazado_279926" data-name="Trazado 279926" d="M231.68,429.683c-6.493,3.749-11.739,12.836-11.718,20.3s5.3,10.47,11.795,6.722,11.739-12.836,11.718-20.3-5.3-10.47-11.8-6.721" fill="#262626"/>
                  </g>
                </g>
              </g>
              <g id="Grupo_261889" data-name="Grupo 261889">
                <g id="Grupo_261888" data-name="Grupo 261888">
                  <g id="Grupo_261887" data-name="Grupo 261887" clip-path="url(#clip-path-15)">
                    <path id="Trazado_279927" data-name="Trazado 279927" d="M231.708,439.644a6.784,6.784,0,0,0-3.078,5.331c.006,1.959,1.393,2.75,3.1,1.765a6.786,6.786,0,0,0,3.078-5.331c-.006-1.959-1.393-2.75-3.1-1.765" fill="#595959"/>
                  </g>
                </g>
              </g>
              <path id="Trazado_279928" data-name="Trazado 279928" d="M221.025,449.365c.021,6.784,4.825,9.523,10.73,6.115s10.677-11.678,10.656-18.462-4.824-9.523-10.729-6.111-10.673,11.673-10.657,18.458m1.388-.8c-.02-5.909,4.134-13.1,9.277-16.07s9.318-.585,9.338,5.32-4.139,13.1-9.277,16.07-9.322.585-9.338-5.32" fill="#f2f2f2"/>
            </g>
          </g>
        </g>
      </g>
      <path id="Trazado_279929" data-name="Trazado 279929" d="M222.262,429.331a3.253,3.253,0,0,1-1.919-2.682l.041-8.008a3.253,3.253,0,0,0,1.919,2.682,10.137,10.137,0,0,0,9.2,0,3.23,3.23,0,0,0,1.889-2.645l-.041,8.008a3.229,3.229,0,0,1-1.89,2.645,10.132,10.132,0,0,1-9.194,0" transform="translate(11229 -10788.719)" fill="#bbb"/>
      <path id="Trazado_279930" data-name="Trazado 279930" d="M222.3,421.323a10.129,10.129,0,0,0,9.194,0c2.53-1.471,2.517-3.855-.03-5.326a10.137,10.137,0,0,0-9.195,0c-2.53,1.471-2.517,3.855.031,5.326" transform="translate(11229 -10788.719)" fill="#f2f2f2"/>
      <path id="Trazado_279931" data-name="Trazado 279931" d="M512.238,357.6l-.031,11.051L311.583,485.073l.032-11.051Z" transform="translate(11229 -10788.719)" fill="#bbb"/>
      <path id="Trazado_279932" data-name="Trazado 279932" d="M311.615,474.022l-.031,11.051-99.1-57.2.031-11.05Z" transform="translate(11229 -10788.719)" fill="#d9d9d9"/>
      <path id="Trazado_279933" data-name="Trazado 279933" d="M413.132,300.4,212.516,416.814l99.1,57.208L512.242,357.609ZM311.6,466.9l-86.8-50.1L413.145,307.524l86.8,50.1Z" transform="translate(11229 -10788.719)" fill="#f2f2f2"/>
      <path id="Trazado_279934" data-name="Trazado 279934" d="M413.146,315.994l79.483,45.879,7.314-4.251-86.8-50.1L224.807,416.8l7.314,4.222Z" transform="translate(11229 -10788.719)" fill="#bbb"/>
      <path id="Trazado_279935" data-name="Trazado 279935" d="M499.943,357.622l-7.315,4.251-79.482-45.879v-8.473Z" transform="translate(11229 -10788.719)" fill="#d9d9d9"/>
      <path id="Trazado_279936" data-name="Trazado 279936" d="M307.77,470.987a2.914,2.914,0,0,1-1.72-2.4l.036-19.984a2.92,2.92,0,0,0,1.721,2.4,9.082,9.082,0,0,0,8.241,0,2.893,2.893,0,0,0,1.693-2.371l-.037,19.984a2.893,2.893,0,0,1-1.693,2.37,9.082,9.082,0,0,1-8.241,0" transform="translate(11229 -10788.719)" fill="#bbb"/>
      <path id="Trazado_279937" data-name="Trazado 279937" d="M307.807,451a9.076,9.076,0,0,0,8.241,0c2.268-1.317,2.256-3.454-.027-4.774a9.085,9.085,0,0,0-8.241,0c-2.268,1.319-2.256,3.456.027,4.773" transform="translate(11229 -10788.719)" fill="#f2f2f2"/>
      <path id="Trazado_279938" data-name="Trazado 279938" d="M500.661,359.146a2.912,2.912,0,0,1-1.72-2.4l.037-19.983a2.914,2.914,0,0,0,1.72,2.4,9.082,9.082,0,0,0,8.241,0,2.891,2.891,0,0,0,1.693-2.37l-.037,19.984a2.89,2.89,0,0,1-1.693,2.369,9.076,9.076,0,0,1-8.241,0" transform="translate(11229 -10788.719)" fill="#bbb"/>
      <path id="Trazado_279939" data-name="Trazado 279939" d="M500.7,339.163a9.082,9.082,0,0,0,8.241,0c2.267-1.318,2.255-3.456-.028-4.773a9.074,9.074,0,0,0-8.24,0c-2.269,1.318-2.257,3.455.027,4.773" transform="translate(11229 -10788.719)" fill="#f2f2f2"/>
      <path id="Trazado_279940" data-name="Trazado 279940" d="M215.931,418.559a2.914,2.914,0,0,1-1.72-2.4l.037-19.983a2.917,2.917,0,0,0,1.72,2.4,9.085,9.085,0,0,0,8.241,0,2.89,2.89,0,0,0,1.693-2.37l-.037,19.984a2.893,2.893,0,0,1-1.693,2.37,9.082,9.082,0,0,1-8.241,0" transform="translate(11229 -10788.719)" fill="#bbb"/>
      <path id="Trazado_279941" data-name="Trazado 279941" d="M215.968,398.575a9.076,9.076,0,0,0,8.241,0c2.268-1.317,2.256-3.455-.027-4.773a9.082,9.082,0,0,0-8.241,0c-2.268,1.318-2.256,3.456.027,4.773" transform="translate(11229 -10788.719)" fill="#f2f2f2"/>
      <path id="Trazado_279942" data-name="Trazado 279942" d="M436.9,239.138l-.732-.3c-2.448-.988-4.655-.958-6.353.036l-.024.014a2.751,2.751,0,0,1-2.767-.245,6.624,6.624,0,0,1-1.8-1.585l-.369-.449c-2.082-2.569-2.537-6.11-.886-7.159.1-.067.212-.132.32-.195l-4.344,2.524c-.107.063-.214.128-.319.195-1.651,1.049-1.2,4.59.886,7.159l.369.449a6.642,6.642,0,0,0,1.8,1.585,2.755,2.755,0,0,0,2.769.245l.024-.015c1.7-.993,3.9-1.023,6.351-.035l.732.3a2.345,2.345,0,0,0,2.1-.007l4.343-2.524a2.345,2.345,0,0,1-2.1.007" transform="translate(11229 -10788.719)" fill="#f2f2f2"/>
      <path id="Trazado_279943" data-name="Trazado 279943" d="M476.146,263.66,458,253.184a10.966,10.966,0,0,1-5-8.667,3.527,3.527,0,0,1,1.464-3.232l-4.343,2.524a3.526,3.526,0,0,0-1.464,3.232,10.966,10.966,0,0,0,5,8.667L471.8,266.184a3.553,3.553,0,0,0,3.581.35l4.343-2.523a3.556,3.556,0,0,1-3.581-.351" transform="translate(11229 -10788.719)" fill="#f2f2f2"/>
      <path id="Trazado_279944" data-name="Trazado 279944" d="M508.4,285.079a3.19,3.19,0,0,1-1.8-.492,8.066,8.066,0,0,1-2.784-2.988,24.393,24.393,0,0,0-6.331-7.36l-.732-.549A8.011,8.011,0,0,1,493.626,267l.064-.425a2.333,2.333,0,0,1,1.046-1.783l-4.343,2.523a2.337,2.337,0,0,0-1.046,1.784l-.064.425a8.011,8.011,0,0,0,3.125,6.686l.732.549a24.394,24.394,0,0,1,6.331,7.36,8.054,8.054,0,0,0,2.784,2.987,3.191,3.191,0,0,0,1.8.493l.371-.022a1.872,1.872,0,0,0,.812-.245l4.343-2.524a1.887,1.887,0,0,1-.813.246Z" transform="translate(11229 -10788.719)" fill="#f2f2f2"/>
      <path id="Trazado_279945" data-name="Trazado 279945" d="M499.9,259.436l-65.569-37.855c-4.656-2.689-8.878-2.938-11.926-1.166l-4.342,2.523c3.048-1.771,7.268-1.523,11.927,1.166l65.566,37.856c9.262,5.347,16.736,18.3,16.7,28.925l-.083,47.8,4.343-2.524.083-47.8c.03-10.624-7.444-23.579-16.7-28.926" transform="translate(11229 -10788.719)" fill="#f2f2f2"/>
      <path id="Trazado_279946" data-name="Trazado 279946" d="M495.561,261.96c9.262,5.347,16.736,18.3,16.706,28.925l-.083,47.8L413.1,281.476l.083-47.8c.03-10.623,7.561-14.915,16.814-9.572Zm-45.454-9.987a10.313,10.313,0,0,0,3.551,3.735L471.8,266.183c2.77,1.6,5.035.326,5.045-2.865a11.033,11.033,0,0,0-5.012-8.68l-18.145-10.476c-2.777-1.6-5.027-.322-5.036,2.879a10.214,10.214,0,0,0,1.452,4.932m-29.59-12.837.37.449a6.647,6.647,0,0,0,1.8,1.586,2.738,2.738,0,0,0,2.791.231c1.7-.994,3.9-1.025,6.353-.037l.732.3c2.039.833,3.453-.541,3.153-3.061l-.062-.5a8.313,8.313,0,0,0-3.672-5.782,4.565,4.565,0,0,0-.558-.274l-.732-.3c-4.291-1.744-8.145-1.632-11.059.227-1.65,1.048-1.2,4.59.886,7.158m71.891,37.078.731.549a24.4,24.4,0,0,1,6.332,7.36,8.054,8.054,0,0,0,2.784,2.987,3.191,3.191,0,0,0,1.8.493l.37-.022c2.089-.161,2.563-3.166.924-6.114a41.32,41.32,0,0,0-11.021-12.973l-.731-.55a5.607,5.607,0,0,0-.559-.37c-1.815-1.048-3.408-.436-3.692,1.529l-.065.425a8.015,8.015,0,0,0,3.126,6.686" transform="translate(11229 -10788.719)" fill="#d9d9d9"/>
      <path id="Trazado_279947" data-name="Trazado 279947" d="M296.765,296.669c-1.962-1.14-4.68-.979-7.679.753L246.163,322.2c-4.508,2.6-8.528,8.139-10.088,13.894l-5.007,18.5c-1.72,6.342-.368,11.116,2.762,12.935l4.343,2.524c-3.13-1.819-4.482-6.593-2.762-12.935l5.007-18.505c1.56-5.754,5.58-11.29,10.088-13.893l42.923-24.781c3-1.732,5.717-1.893,7.679-.753Z" transform="translate(11229 -10788.719)" fill="#f2f2f2"/>
      <path id="Trazado_279948" data-name="Trazado 279948" d="M286.22,310.459l-4.343-2.524a3.061,3.061,0,0,1,1.273,2.8,8.852,8.852,0,0,1-1.265,4.28,8.948,8.948,0,0,1-3.088,3.268l-25,14.432a3.076,3.076,0,0,1-3.1.3l4.343,2.524a3.076,3.076,0,0,0,3.1-.3l25-14.432a8.951,8.951,0,0,0,3.088-3.269,8.833,8.833,0,0,0,1.264-4.28,3.057,3.057,0,0,0-1.272-2.8" transform="translate(11229 -10788.719)" fill="#f2f2f2"/>
      <path id="Trazado_279949" data-name="Trazado 279949" d="M293.429,299.946c5.956-3.439,10.8-.686,10.823,6.159l.049,17.423c.019,6.835-4.8,15.175-10.752,18.614l-46.888,27.071c-8.341,4.816-14.143-1.416-11.25-12.088l5.008-18.5c1.56-5.755,5.579-11.291,10.088-13.894Zm-7.2,17.6a8.838,8.838,0,0,0,1.265-4.28c-.008-2.776-1.966-3.892-4.382-2.5l-25,14.433a9.622,9.622,0,0,0-4.352,7.539c.008,2.776,1.973,3.9,4.381,2.506l25-14.433a8.948,8.948,0,0,0,3.088-3.268" transform="translate(11229 -10788.719)" fill="#d9d9d9"/>
      <path id="Trazado_279950" data-name="Trazado 279950" d="M394.7,240.067c-2.187-1.271-5.221-1.121-8.638.852l-44.11,25.467c-7.86,4.538-13.62,16.3-11.777,24.033l2.991,12.546a7.163,7.163,0,0,0,3.207,4.754l4.343,2.524a7.163,7.163,0,0,1-3.207-4.754l-2.991-12.546c-1.843-7.73,3.916-19.495,11.777-24.033l44.11-25.468c3.417-1.972,6.451-2.122,8.638-.851Z" transform="translate(11229 -10788.719)" fill="#f2f2f2"/>
      <path id="Trazado_279951" data-name="Trazado 279951" d="M376.577,257.78l-4.343-2.524a3.054,3.054,0,0,1,1.273,2.8,9.661,9.661,0,0,1-4.361,7.553l-10.2,5.892a3.078,3.078,0,0,1-3.1.3l4.343,2.523a3.075,3.075,0,0,0,3.1-.3l10.205-5.892a9.657,9.657,0,0,0,4.361-7.553,3.054,3.054,0,0,0-1.273-2.8" transform="translate(11229 -10788.719)" fill="#f2f2f2"/>
      <path id="Trazado_279952" data-name="Trazado 279952" d="M390.4,243.442c7.845-4.529,13.668.549,11.875,10.378l-2.918,15.957c-1.28,7.043-6.162,14.317-11.8,17.569L349.371,309.4c-5.634,3.253-10.541,1.63-11.865-3.908l-2.991-12.546c-1.842-7.73,3.917-19.5,11.778-24.034Zm-13.826,21.422a8.866,8.866,0,0,0,1.273-4.285c-.008-2.776-1.974-3.886-4.389-2.492l-10.206,5.892a9.631,9.631,0,0,0-4.353,7.54c.008,2.775,1.974,3.895,4.382,2.5l10.205-5.892a8.948,8.948,0,0,0,3.088-3.268" transform="translate(11229 -10788.719)" fill="#d9d9d9"/>
      <path id="Trazado_279953" data-name="Trazado 279953" d="M512.238,327.615l-.031,11.051L311.583,455.085l.032-11.051Z" transform="translate(11229 -10788.719)" fill="#bbb"/>
      <path id="Trazado_279954" data-name="Trazado 279954" d="M311.615,444.034l-.031,11.051-99.1-57.2.031-11.051Z" transform="translate(11229 -10788.719)" fill="#d9d9d9"/>
      <path id="Trazado_279955" data-name="Trazado 279955" d="M512.238,327.615,311.615,444.034l-99.1-57.2L413.134,270.412Z" transform="translate(11229 -10788.719)" fill="#f2f2f2"/>
      <path id="Trazado_279956" data-name="Trazado 279956" d="M512.238,310.467l-.031,17.57L311.583,444.455l.032-17.57Z" transform="translate(11229 -10788.719)" fill="#0069d1"/>
      <path id="Trazado_279957" data-name="Trazado 279957" d="M311.615,426.886l-.031,17.569-99.1-57.2.031-17.569Z" transform="translate(11229 -10788.719)" fill="#d9d9d9"/>
      <path id="Trazado_279958" data-name="Trazado 279958" d="M512.238,310.467,311.615,426.885l-99.1-57.2L413.134,253.263Z" transform="translate(11229 -10788.719)" fill="#0080ff"/>
      <path id="Trazado_279959" data-name="Trazado 279959" d="M501.148,291.308a1.784,1.784,0,0,1-.838,1.622L477.5,310.117a4.124,4.124,0,0,1-4.193.349l-72.5-41.752a1.629,1.629,0,0,1-.876-1.164l.788,5.768a1.626,1.626,0,0,0,.876,1.164l72.5,41.753a4.124,4.124,0,0,0,4.193-.35L501.1,298.7a1.781,1.781,0,0,0,.838-1.622Z" transform="translate(11229 -10788.719)" fill="#0069d1"/>
      <path id="Trazado_279960" data-name="Trazado 279960" d="M500.274,290.148c1.167.674,1.183,1.918.036,2.783L477.5,310.117a4.123,4.123,0,0,1-4.192.35l-72.5-41.752c-1.166-.674-1.189-1.922-.036-2.791l22.812-17.187a4.129,4.129,0,0,1,4.192-.341Z" transform="translate(11229 -10788.719)" fill="#0080ff"/>
      <path id="Trazado_279961" data-name="Trazado 279961" d="M494.119,286.452a1.331,1.331,0,0,1,.031,2.392l-19.613,14.777a3.545,3.545,0,0,1-3.6.3l-63.973-36.829a1.335,1.335,0,0,1-.031-2.4l19.613-14.777a3.552,3.552,0,0,1,3.605-.294Z" transform="translate(11229 -10788.719)" fill="#66b3ff"/>
      <path id="Trazado_279962" data-name="Trazado 279962" d="M429.256,271.3a1.626,1.626,0,0,0-.31.831,29.617,29.617,0,0,1-1.394,5.976,6.647,6.647,0,0,1-.7,1.538.914.914,0,0,0-.2.412c-.03.362.386.565.547.835.19.32.344.659.545.974a10.456,10.456,0,0,0,1.4,1.741,11.935,11.935,0,0,0,3.656,2.5,16.729,16.729,0,0,0,8.467,1.133,10.4,10.4,0,0,1,2.988-4.16,34.367,34.367,0,0,1,4.2-3.012.777.777,0,0,0,.347-.352.711.711,0,0,0,0-.372,3.913,3.913,0,0,0-1.027-1.983,5.436,5.436,0,0,0-3.426-1.366c-1.251-.114-2.515-.018-3.762-.17a9.576,9.576,0,0,1-4.5-1.787c-1.082-.8-1.992-1.82-3.139-2.52a4.476,4.476,0,0,0-2.478-.708,1.541,1.541,0,0,0-1.214.491" transform="translate(11229 -10788.719)" fill="#ff524f"/>
      <path id="Trazado_279963" data-name="Trazado 279963" d="M374.4,302.576c-6.478,2.859-13.63,3.98-20.037,6.994-10.135,4.767-17.71,13.926-27.888,18.6a2.325,2.325,0,0,0-1.047.735,2.03,2.03,0,0,0-.256.972c-.34,4.694,2.541,8.974,5.546,12.6a5.083,5.083,0,0,0,2.514,1.946,5.2,5.2,0,0,0,3.449-.834,472.19,472.19,0,0,0,45.295-26.474,8.86,8.86,0,0,0,2.309-1.944,7.936,7.936,0,0,0,.948-1.82,34.533,34.533,0,0,0,2.175-8.156c.343-2.465-.258-6.262-3.442-6.54-1.529-.134-3.5,1.014-4.84,1.64-1.585.74-3.125,1.575-4.726,2.282" transform="translate(11229 -10788.719)" fill="#262626"/>
      <path id="Trazado_279964" data-name="Trazado 279964" d="M315.7,335.655c-11.85,6.726-23.72,13.463-36.133,19.08a1.306,1.306,0,0,0-.679.512,1.225,1.225,0,0,0-.083.645c.295,4.75,3.56,8.724,6.719,12.282a1.331,1.331,0,0,0,.557.436,1.374,1.374,0,0,0,1.081-.314c11.516-7.3,26.111-8.392,37.687-15.6a56.368,56.368,0,0,0,8.805-6.965c1.087-1.027,2.15-2.081,3.135-3.2a2.929,2.929,0,0,0,.834-1.484,2.982,2.982,0,0,0-.29-1.416q-.921-2.373-2.036-4.665a10.731,10.731,0,0,0-3.073-4.2,34.5,34.5,0,0,0-3.2-1.5c-.937-.545-1.678-1.212-2.879-.946a4.257,4.257,0,0,0-1.4.686c-3.164,2.1-5.718,4.769-9.045,6.657" transform="translate(11229 -10788.719)" fill="#262626"/>
      <path id="Trazado_279965" data-name="Trazado 279965" d="M269.793,353.992a36.684,36.684,0,0,1-4.568-2.309,33.724,33.724,0,0,1-4.99-3.221,5.241,5.241,0,0,0-1.472-1,2.819,2.819,0,0,0-2.688.577,4.991,4.991,0,0,0-1.479,2.42c-1,3.285.17,6.926,2.239,9.667s4.938,4.751,7.766,6.7,5.712,3.928,7.833,6.63a11.093,11.093,0,0,0,2.921,3.117,4.962,4.962,0,0,0,4.3.134,7.591,7.591,0,0,0,3.3-2.9c.8-1.22,1.34-2.6,2.2-3.781a10.43,10.43,0,0,1,3.585-2.934c.765-.425.848-.382,1.111-1.384a7.819,7.819,0,0,0-.633-6.129,9.962,9.962,0,0,0-2.443-3.365c-2.439-2.058-4.8-1.41-7.635-1.085a19.545,19.545,0,0,1-9.351-1.14" transform="translate(11229 -10788.719)" fill="#ffc7a6"/>
      <path id="Trazado_279966" data-name="Trazado 279966" d="M396.974,301.981a16.692,16.692,0,0,0-4.319-1.267,15.129,15.129,0,0,0-6.535.5,15.293,15.293,0,0,0-5.739,3.416,30.206,30.206,0,0,0-4.539,4.351,10.042,10.042,0,0,0-1.962,4.007,3.473,3.473,0,0,0,.059,2.032c.222.651.686,1.184.642,1.915a3.124,3.124,0,0,1-1.512,2.054c-9.216,7.026-18.458,14.071-28.427,19.98a2.377,2.377,0,0,0-1.007.9,2.186,2.186,0,0,0-.136,1.094,16.184,16.184,0,0,0,7.6,12.641,2.371,2.371,0,0,0,1.049.412,2.624,2.624,0,0,0,1.317-.4c2.105-1.063,4.272-2.149,6.392-3.129,2.487-1.149,5.679-1.489,8.333-2.172,5.572-1.436,11.134-2.949,16.543-4.925,8.309-3.033,16.339-7.231,22.66-13.418a27.485,27.485,0,0,0,6.926-10.138,3.679,3.679,0,0,0,.276-2.052,4.066,4.066,0,0,0-1.263-1.823q-3.2-3.157-6.4-6.317a44.513,44.513,0,0,0-7.357-6.274,20.39,20.39,0,0,0-2.593-1.384" transform="translate(11229 -10788.719)" fill="#404040"/>
      <path id="Trazado_279967" data-name="Trazado 279967" d="M334.1,345.71l-34.971,20.618a2.4,2.4,0,0,0-.93.79,2.17,2.17,0,0,0-.219,1.009,11.864,11.864,0,0,0,5.245,10.183,2.36,2.36,0,0,0,.981.428,2.655,2.655,0,0,0,1.137-.2c11.307-3.736,23.472-5.635,33.471-12.1,5.469-3.536,10.027-8.284,14.532-12.986a9.63,9.63,0,0,0,1.891-2.459,7.726,7.726,0,0,0,.6-3.173,11.714,11.714,0,0,0-1.41-6.2c-1.567-2.627-6.014-5.375-9.06-3.678-1.812,1.01-3.329,2.71-5.044,3.9-2.008,1.392-4.115,2.635-6.218,3.875" transform="translate(11229 -10788.719)" fill="#404040"/>
      <path id="Trazado_279968" data-name="Trazado 279968" d="M448.438,302.2a22.3,22.3,0,0,1-2.055,2.047c-.6.481-1.323.8-1.943,1.252-5.294,3.844-10.653,7.706-16.618,10.385a77.76,77.76,0,0,0-7.371,3.356c-3.844,2.23-6.92,5.608-10.645,8.061-.949-4.339-2.142-8.722-4.468-12.515a28.906,28.906,0,0,0-11.051-10.08,51.838,51.838,0,0,0-14.282-4.859c1.109-1.72,2.993-2.745,4.764-3.736a266.555,266.555,0,0,0,23.474-15.167,20.107,20.107,0,0,1,4.63-2.425,15,15,0,0,1,5.177-1.032,13.568,13.568,0,0,1,2.687.3l1.168.265c1.428.325,2.857.665,4.27,1.055a47.331,47.331,0,0,1,7.143,2.544c1.81.832,3.527,1.813,5.259,2.776,2.959,1.68,5.917,3.344,8.751,5.237a12.2,12.2,0,0,1,3.441,3.042c2.466,3.581.179,6.81-2.331,9.5" transform="translate(11229 -10788.719)" fill="#ffe5cc"/>
      <path id="Trazado_279969" data-name="Trazado 279969" d="M430.941,346.272a2.768,2.768,0,0,1-.718,1.466c-5.549,6.929-14.929,9.14-22.788,13.267a59.62,59.62,0,0,0-11.408,8.042c-3.944,3.408-9.859,5.62-14.423,8.182q-15.063,8.432-30.083,16.958-17.07,9.655-34.154,19.31c.831-2.479-.127-5.24-1.676-7.352s-3.648-3.719-5.493-5.564c-4.521-4.492-7.662-10.844-6.7-17.14a26.1,26.1,0,0,1,.873-3.549,36.175,36.175,0,0,0,1.127-4.408c.422-2.705-.028-5.817-2.169-7.507a8.16,8.16,0,0,0-1.69-.987,4.643,4.643,0,0,0-2.155-.112q-4.247.294-8.493.211a5.043,5.043,0,0,1-1.648-.225.254.254,0,0,1-.127-.085c-.028-.071.029-.141.071-.2a2.151,2.151,0,0,0,.577-1.071,8.309,8.309,0,0,0,.141-1.2,9.768,9.768,0,0,0-.183-2.395,9.109,9.109,0,0,0-2.1-4.154,9.207,9.207,0,0,0-3.775-2.437,8.257,8.257,0,0,0-4.014-.239.606.606,0,0,1-.07.014c-.155.028-.31.056-.479.084a.278.278,0,0,1-.1.014.223.223,0,0,1-.1.015.082.082,0,0,1-.057-.015c-.436-.155-.774-1.042-1.028-1.408a21.311,21.311,0,0,0-6.465-6c-.422-.253-.859-.493-1.3-.718a8.032,8.032,0,0,0-1.268-.607c5.437-5.491,71.674-43.083,92.547-50.941,1.958-.747,3.789-1.423,5.831-.564a22.189,22.189,0,0,1,2.408,1.3,32.063,32.063,0,0,0,5.282,2.451,25.727,25.727,0,0,1,2.831,1.1,1.8,1.8,0,0,0,1.126.3.055.055,0,0,0,.029-.013,1.844,1.844,0,0,0,.76-.521c1.718-1.493,3.916-.663,5.887-.253a33.155,33.155,0,0,1,25.746,25.661,4.871,4.871,0,0,0,.352,1.168,1.638,1.638,0,0,0,.113.226,3.732,3.732,0,0,0,.873.888,50.558,50.558,0,0,0,5.887,4.323,28.4,28.4,0,0,1,4.507,2.888,18.211,18.211,0,0,1,2.9,3.717c1.381,2.142,2.761,4.268,4.141,6.409a2.924,2.924,0,0,1,.648,1.675" transform="translate(11229 -10788.719)" fill="#f2f2f2"/>
      <path id="Trazado_279970" data-name="Trazado 279970" d="M379.1,300.105a23.007,23.007,0,0,1-5.987,3.845c-2.619,1.268-5.577,1.592-8.366,2.282a77.847,77.847,0,0,0-8.535,2.464c-7.408,2.789-13.619,7.93-19.914,12.718q-8.092,6.19-16.662,11.733-8.576,5.577-17.562,10.52c-2.959,1.62-5.888,3.225-8.818,4.916q-4.476,2.577-9.182,4.746c-1.056.479-2.141.958-3.211,1.408a8.9,8.9,0,0,1-.93.352.616.616,0,0,1-.07.015,2.807,2.807,0,0,1-.494.1h-.084a.243.243,0,0,1-.1.014.085.085,0,0,1-.056-.014c-.437-.155-.775-1.042-1.028-1.408a21.28,21.28,0,0,0-6.465-6c-.421-.254-.859-.493-1.3-.719a8.015,8.015,0,0,0-1.267-.605c5.436-5.493,71.674-43.083,92.547-50.942,1.957-.747,3.789-1.423,5.83-.564a21.956,21.956,0,0,1,2.409,1.3,32.091,32.091,0,0,0,5.281,2.451,25.571,25.571,0,0,1,2.831,1.1,1.821,1.821,0,0,0,1.128.3" transform="translate(11229 -10788.719)" fill="#fff"/>
      <path id="Trazado_279971" data-name="Trazado 279971" d="M430.941,346.272a2.768,2.768,0,0,1-.718,1.466c-5.549,6.929-14.929,9.14-22.788,13.267a59.62,59.62,0,0,0-11.408,8.042c-3.944,3.408-9.859,5.62-14.423,8.182q-15.063,8.432-30.083,16.958-17.07,9.655-34.154,19.31c.831-2.479-.127-5.24-1.676-7.352s-3.648-3.719-5.493-5.564c-4.521-4.492-7.662-10.844-6.7-17.14a26.1,26.1,0,0,1,.873-3.549c8.028-3,16.563-4.69,24.492-8a54.743,54.743,0,0,0,15.831-9.86c2.929-2.675,5.535-5.7,8.69-8.126a39.365,39.365,0,0,1,12.816-6.155c4.747-1.422,9.719-2.055,14.338-3.8a116.326,116.326,0,0,0,30.013-16.773c.437-.338.873-.676,1.324-1.029a1.638,1.638,0,0,0,.113.226,3.732,3.732,0,0,0,.873.888,50.558,50.558,0,0,0,5.887,4.323,28.4,28.4,0,0,1,4.507,2.888,18.211,18.211,0,0,1,2.9,3.717c1.381,2.142,2.761,4.268,4.141,6.409a2.924,2.924,0,0,1,.648,1.675" transform="translate(11229 -10788.719)" fill="#fff"/>
      <path id="Trazado_279972" data-name="Trazado 279972" d="M416.829,277.542a17.1,17.1,0,0,0-3.958.972,20.623,20.623,0,0,0-4.634,2.422c-7,4.93-14.069,9.775-21.478,14.042a.019.019,0,0,1-.028,0c-4.295.747-9.394,1.648-11.084,2.1a84.968,84.968,0,0,1-13.112,2.563c-4.366.465-8.775.732-13.085,1.549a1.712,1.712,0,0,0-.915,1.183c-.1,1.1.437,2.226-.07,3.282-.367.774-1.2,1.225-1.662,1.958a5.187,5.187,0,0,1-.578.929,1.347,1.347,0,0,1-2.112-.38c-.465-1.113.957-2.62-.113-3.535a.439.439,0,0,0-.24-.127.556.556,0,0,0-.3.056,7.714,7.714,0,0,0-1.212.521,13.3,13.3,0,0,0-1.985,1.451c-.817.648-1.606,1.3-2.4,1.944a8.784,8.784,0,0,1-3.084,1.859.766.766,0,0,0-.437.183,1.117,1.117,0,0,0-.183.268,1.974,1.974,0,0,1-.845.915.888.888,0,0,1-1.112-.3c-.113-.225-.113-.549-.367-.634-.141-.07-.338.015-.493-.014-.295-.07-.38-.436-.422-.732-.042-.465-.057-1.042.338-1.3-.831-.465-.24-1.662.113-2.211a16.546,16.546,0,0,1,3.6-3.817c1.253-1.014,2.479-2.028,3.676-3.1a20.585,20.585,0,0,1,3.155-2.352,70.887,70.887,0,0,1,10.394-4.944,108.8,108.8,0,0,1,11.281-3.676c1.916-.521,3.859-.958,5.817-1.352,1.493-.3,3-.577,4.521-.831,3.859-.634,7.732-1.183,11.591-1.845,2.62-.451,5.211-1.028,7.8-1.69.634-.155,1.281-.31,1.9-.507,4.521-1.169,9-2.521,13.507-3.7q1.394-.36,2.789-.676a13.659,13.659,0,0,1,5.408-.479" transform="translate(11229 -10788.719)" fill="#ffc7a6"/>
      <path id="Trazado_279973" data-name="Trazado 279973" d="M395.131,282.4a2.228,2.228,0,0,1-.232.489,5.732,5.732,0,0,1-2.757,2.417,11.871,11.871,0,0,1-4.525.6c-.371.008-.837.083-.943.439a.7.7,0,0,0,.041.4c.191.626.718,1.115.813,1.759a2.236,2.236,0,0,1-1.247,2.076,4.817,4.817,0,0,1-3.265.587c-.811-.143-1.694-.658-1.792-1.463-.023-.322.034-.71-.213-.916a.788.788,0,0,0-.439-.136,4.394,4.394,0,0,0-2.028.3,6.329,6.329,0,0,1-2.354.923,2.922,2.922,0,0,1-1.907-.848,2.112,2.112,0,0,1-.862-1.79,1.517,1.517,0,0,1,.4-.8c3.862-.632,7.742-1.185,11.6-1.849,2.622-.443,5.209-1.032,7.8-1.686.642-.159,1.284-.317,1.91-.509" transform="translate(11229 -10788.719)" fill="#ff524f"/>
      <path id="Trazado_279974" data-name="Trazado 279974" d="M350.809,296.047a2.121,2.121,0,0,0,1.334,2.426c.92.222,1.882-.423,2.8-.212.807.185,1.364.978,2.168,1.177,1.054.262,2.043-.569,2.779-1.369a2.1,2.1,0,0,0,.767-1.772,1.805,1.805,0,0,0-.96-1.043,2.689,2.689,0,0,0-1.069-.375c-.814-.072-1.641.418-2.423.18a2.64,2.64,0,0,1-1.228-1.049,3.144,3.144,0,0,0-1.179-1.117c-1.523-.639-2.82,2.053-2.993,3.154" transform="translate(11229 -10788.719)" fill="#ff524f"/>
      <path id="Trazado_279975" data-name="Trazado 279975" d="M429.047,288.632a1.43,1.43,0,0,0-.371.646c-.1.556.376,1.024.687,1.5a4.249,4.249,0,0,1,.529,2.67c-.072.922-.291,1.828-.346,2.751a2.075,2.075,0,0,0,.18,1.147,1.6,1.6,0,0,0,1.048.717,3.85,3.85,0,0,0,2.977-.815,21.7,21.7,0,0,1,2.6-1.823,24.361,24.361,0,0,1,2.425-.842,3.608,3.608,0,0,0,2.013-1.506,3.885,3.885,0,0,0,.334-2.053,5.7,5.7,0,0,0-.686-2.7,2.72,2.72,0,0,0-2.3-1.392c-.942.03-1.834.687-2.758.5-1.236-.253-1.6-1.655-2.961-1.119a8.672,8.672,0,0,0-3.375,2.324" transform="translate(11229 -10788.719)" fill="#ff524f"/>
      <path id="Trazado_279976" data-name="Trazado 279976" d="M406.584,284.377a1.638,1.638,0,0,0-1.014.919,7.278,7.278,0,0,0-.951,2.32,15.171,15.171,0,0,1-.233,2.316c-.356,1.106-1.429,1.808-2.048,2.792a.662.662,0,0,0-.132.38.687.687,0,0,0,.346.465,4.527,4.527,0,0,0,3.02.858,3.461,3.461,0,0,0,2.63-1.623c.54-.927.57-2.1,1.193-2.974.461-.646,1.206-1.066,1.589-1.761a2.473,2.473,0,0,0,.041-2.151c-.835-1.916-2.65-2.337-4.441-1.541" transform="translate(11229 -10788.719)" fill="#ff524f"/>
      <path id="Trazado_279977" data-name="Trazado 279977" d="M414.341,300.106a5.36,5.36,0,0,0-1.555.549,1.167,1.167,0,0,0-.507,1.422,1.235,1.235,0,0,0,1.444.419c.521-.153.973-.484,1.486-.661a2.755,2.755,0,0,1,3.146,1.12,3.78,3.78,0,0,0,.713,1.072,1.486,1.486,0,0,0,1.859-.206,3.694,3.694,0,0,0,.922-1.786,2.306,2.306,0,0,0-.164-2.114c-.309-.358-.8-.511-1.126-.859-.79-.855-.024-2.157-.635-3a1.236,1.236,0,0,0-1.947.13c-.408.588-.407,1.41-.8,2.026a5.042,5.042,0,0,1-2.836,1.885" transform="translate(11229 -10788.719)" fill="#ff524f"/>
      <path id="Trazado_279978" data-name="Trazado 279978" d="M406.553,309.671a2.553,2.553,0,0,0,.756,1.756,10.368,10.368,0,0,0,2.458,2.136,5.265,5.265,0,0,1,1.451,1.091c.928,1.186.356,2.917.653,4.392a.905.905,0,0,0,.271.548.939.939,0,0,0,.629.141c2.591-.1,4.686-2.2,5.948-4.466a4.627,4.627,0,0,0,.663-1.84c.146-1.824-1.546-3.263-3.218-4.01a11.4,11.4,0,0,1-2.111-1.046c-.787-.573-1.342-1.419-2.129-1.991a2.18,2.18,0,0,0-3.153.339c-.706.765-2.127,1.852-2.218,2.95" transform="translate(11229 -10788.719)" fill="#ff524f"/>
      <path id="Trazado_279979" data-name="Trazado 279979" d="M420.737,277.781c-.013.13-.027.259-.041.372a4.915,4.915,0,0,1-.727,2.2,1.991,1.991,0,0,1-2,.866c-.958-.254-1.417-1.325-2.236-1.857a7.318,7.318,0,0,0-2.307-.66,3.722,3.722,0,0,1-.553-.182,14.958,14.958,0,0,1,5.177-1.032,13.492,13.492,0,0,1,2.687.3" transform="translate(11229 -10788.719)" fill="#ff524f"/>
      <path id="Trazado_279980" data-name="Trazado 279980" d="M386.964,297.081a.369.369,0,0,0,.073.548,3.341,3.341,0,0,0,2.463.906,8.712,8.712,0,0,1,2.439-.211c1.068.248,1.806,1.394,2.9,1.469a2.155,2.155,0,0,0,2.044-2.007,3.046,3.046,0,0,0-.214-1.513,3.994,3.994,0,0,0-3.853-2.161c-1.862.064-4.9,1.223-5.852,2.969" transform="translate(11229 -10788.719)" fill="#ff524f"/>
      <path id="Trazado_279981" data-name="Trazado 279981" d="M454.021,262.487a11.71,11.71,0,0,0-2.477-1.836,12.293,12.293,0,0,0-9.02-1.827,15.177,15.177,0,0,0-3.777,1.516,21.756,21.756,0,0,0-9.087,9.014,12.686,12.686,0,0,0-1.022,2.743c-.266,1.132.485.923,1.051,1.707.679.941,1.11,2.226,2.212,2.592,1.187.393,2.452-.546,3.689-.359a4.135,4.135,0,0,1,1.91,1.067c1.736,1.432,3.536,2.928,5.718,3.481a5.629,5.629,0,0,0,2.223.2c.319-.062.562-.287.868-.373a2.851,2.851,0,0,1,1.123.011,6.989,6.989,0,0,0,5.074-1.552,9.777,9.777,0,0,0,3.031-4.439,12.323,12.323,0,0,0,.644-3.364,18.876,18.876,0,0,0,.063-3.251,10.266,10.266,0,0,0-.762-2.837,9.549,9.549,0,0,0-1.419-2.444l-.042-.047" transform="translate(11229 -10788.719)" fill="#ffe5cc"/>
      <path id="Trazado_279982" data-name="Trazado 279982" d="M449.836,261.844c.12.306.387.542.481.856.191.638-.372,1.422.041,1.944a.969.969,0,0,0,.722.31c.917.046,1.758-.576,2.675-.577a1.9,1.9,0,0,0,.594-.035.868.868,0,0,0,.368-1.2,2.179,2.179,0,0,0-1.081-.884,3.632,3.632,0,0,1-1.2-.74c-.24-.264-.384-.607-.635-.862a1.288,1.288,0,0,0-1.468-.3,1.481,1.481,0,0,0-.493,1.485" transform="translate(11229 -10788.719)" fill="#733118"/>
      <path id="Trazado_279983" data-name="Trazado 279983" d="M443.4,259.142a7.121,7.121,0,0,1,2.017.482,8.661,8.661,0,0,0,2.007.532.6.6,0,0,0,.448-.085.425.425,0,0,0,.117-.406,1.1,1.1,0,0,0-.191-.4,2.931,2.931,0,0,0-1.113-1.057,2.668,2.668,0,0,0-.961-.228,7.518,7.518,0,0,0-1.578.086,8.809,8.809,0,0,0-4.369,1.628c-.108.086-.219.247-.122.345a.223.223,0,0,0,.131.054,3.274,3.274,0,0,0,1.823-.467,3.208,3.208,0,0,1,1.791-.487" transform="translate(11229 -10788.719)" fill="#733118"/>
      <path id="Trazado_279984" data-name="Trazado 279984" d="M451.339,268.247a1.812,1.812,0,0,0-.694.321,1.328,1.328,0,0,0-.443.508,2.6,2.6,0,0,0-.138.709,7.854,7.854,0,0,1-.512,1.568,13.873,13.873,0,0,1-.7,1.5,5.848,5.848,0,0,0-.92,3.067,2.332,2.332,0,0,1,2.481-.89,2.727,2.727,0,0,1,1.425,1.034,2.583,2.583,0,0,1,.125,1.895,3.152,3.152,0,0,1-1.1,1.526,1.924,1.924,0,0,1-.16.113,13.555,13.555,0,0,1-1.316.749,3.855,3.855,0,0,0,1.507-.233,5.436,5.436,0,0,0,.976-.468,7.142,7.142,0,0,0,.852-.57c.259-.212.507-.433.749-.663a8.545,8.545,0,0,0,.686-.726,12.618,12.618,0,0,0,1.43-2.124,10.193,10.193,0,0,0,.957-2.727,3.269,3.269,0,0,0-.146-2.531,1.263,1.263,0,0,0-.381-.369c-.409-.234-.918-.074-1.389-.059a2.207,2.207,0,0,1-1.563-.586c-.375-.349-.65-.846-1.134-1.012a1.121,1.121,0,0,0-.594-.029" transform="translate(11229 -10788.719)" fill="#733118"/>
      <path id="Trazado_279985" data-name="Trazado 279985" d="M456.027,330.726c-.705,1.759-2.506,2.831-3.9,3.991-.413.332-1.352.982-2.578,1.784-4.33,2.886-12.376,7.888-14.154,8.539-.753.275-1.506.549-2.26.792-.077.163-.154.326-.248.489a9.457,9.457,0,0,1-2.8,2.676c-1.272.916-2.589,2.01-2.927,3.535a7.577,7.577,0,0,1-.294,1.363,3.577,3.577,0,0,1-.754.953c-.823.809-1.853,1.687-2.974,1.4a.348.348,0,0,1-.277-.156.428.428,0,0,1,.008-.371,33.855,33.855,0,0,1,1.881-4.853c-.44-.216-.883.246-1.148.655a13.5,13.5,0,0,1-4.853,4.835,1.069,1.069,0,0,1-1.113.057c-.329-.268-.243-.8-.107-1.209a9.884,9.884,0,0,1,1.82-3.2c.5-.608,1.133-1.4.746-2.1a26.285,26.285,0,0,0-3.184,4.331,5.1,5.1,0,0,1-1.289,1.627,1.462,1.462,0,0,1-1.908-.137,2.051,2.051,0,0,1-.025-1.888,26.217,26.217,0,0,1,2.143-4.7c-.786.243-1.171,1.075-1.576,1.794a12.075,12.075,0,0,1-1.237,1.77,3.477,3.477,0,0,1-1.222,1,1.511,1.511,0,0,1-1.5-.081.816.816,0,0,1-.316-.429,1.253,1.253,0,0,1,.113-.761,18.658,18.658,0,0,1,2.377-4.347,4.739,4.739,0,0,1-2.255-.484,1.228,1.228,0,0,1-.444-.362.805.805,0,0,1,.191-.925,3.181,3.181,0,0,1,.877-.5c2.7-1.188,4.782-3.606,7.6-4.491a12.413,12.413,0,0,1,2.428-.472,19.639,19.639,0,0,0,4.107-.508c.689-.225,11.279-7.864,14.585-10.277,1.256-.915,2.512-1.814,3.768-2.729l.62-.449c-.131-.837-.515-5.947-.665-7.672-.333-3.448-.681-6.88-1.078-10.327a7.791,7.791,0,0,0-1.014-3.563c-1.272.157-2.527,1.12-3.7.629a2.168,2.168,0,0,1-1.2-1.653,5.148,5.148,0,0,1,.164-2.1,14.288,14.288,0,0,1,4.249-7.406c2.5-2.2,8-4.306,10.519-1.179,1.642,2.015,1.936,5.19,2.49,7.664,1.179,5.287,2.615,20.951,2.619,23.4.009,1.906.43,4.222-.306,6.046" transform="translate(11229 -10788.719)" fill="#ffc7a6"/>
      <path id="Trazado_279986" data-name="Trazado 279986" d="M449.548,336.5c-4.33,2.887-12.376,7.888-14.155,8.54-.752.274-1.506.549-2.259.791-.077.163-.155.326-.248.49q-.2-.432-.406-.863a4.44,4.44,0,0,1-.5-1.54,3.113,3.113,0,0,1,.525-1.868,5.108,5.108,0,0,1,2.972-2.244c1.4-.4,2.9-.191,4.282-.576,1.573-.454,2.823-1.611,4.176-2.528,1.353-.9,3.082-1.6,4.582-.955a2.674,2.674,0,0,1,1.033.753" transform="translate(11229 -10788.719)" fill="#ff524f"/>
      <path id="Trazado_279987" data-name="Trazado 279987" d="M447.274,309.054c1.106,1.705.28,3.955-.578,5.8s-1.715,4.069-.651,5.8a3.876,3.876,0,0,0,5.069,1.019,6.66,6.66,0,0,0,2.987-4.656,8.6,8.6,0,0,0-.414-4.918,22.149,22.149,0,0,1-1.518-3.347,11.273,11.273,0,0,1-.085-2.95c.083-2.55-1.7-5.537-4.338-3.333-.893.746-2.216,2.387-2.3,3.581-.093,1.3,1.2,2.033,1.829,3" transform="translate(11229 -10788.719)" fill="#ff524f"/>
      <path id="Trazado_279988" data-name="Trazado 279988" d="M305.509,377.438a1.672,1.672,0,0,1-.5.957,2.01,2.01,0,0,1-.771.289c-3.378.826-5.888,3.927-9.3,4.574a34.068,34.068,0,0,1-3.959.207,29.24,29.24,0,0,1-4.187.346,6.577,6.577,0,0,1-5.054-3.114,30.731,30.731,0,0,1-1.546-3.736c-.671-1.546-1.681-2.919-2.481-4.4a17.825,17.825,0,0,1-1.6-4.138,5.52,5.52,0,0,1,.042-3.594,3.309,3.309,0,0,1,3.119-1.891,7.953,7.953,0,0,1,3.357,1.426,21.777,21.777,0,0,0,9.63,2.69,32.814,32.814,0,0,0,5.254-.148c1.508-.157,3.1-.68,4.6-.7,2.293-.03,3.386,4.666,3.636,6.4a12.539,12.539,0,0,1-.232,4.835" transform="translate(11229 -10788.719)" fill="#ffe5cc"/>
      <path id="Trazado_279989" data-name="Trazado 279989" d="M231.982,358.059l-.732-.3c-2.448-.988-4.655-.958-6.352.036l-.024.014a2.752,2.752,0,0,1-2.768-.245,6.639,6.639,0,0,1-1.8-1.585l-.369-.449c-2.082-2.569-2.537-6.11-.887-7.159.106-.067.213-.132.321-.194L215.03,350.7c-.108.063-.215.128-.32.195-1.651,1.049-1.2,4.59.886,7.159l.369.449a6.64,6.64,0,0,0,1.8,1.585,2.752,2.752,0,0,0,2.769.245l.024-.014c1.7-.994,3.9-1.024,6.351-.036l.732.3a2.345,2.345,0,0,0,2.1-.007l4.343-2.524a2.345,2.345,0,0,1-2.1.007" transform="translate(11229 -10788.719)" fill="#f2f2f2"/>
      <path id="Trazado_279990" data-name="Trazado 279990" d="M271.224,382.581l-18.145-10.476a10.966,10.966,0,0,1-5-8.667,3.526,3.526,0,0,1,1.464-3.232L245.2,362.73a3.526,3.526,0,0,0-1.464,3.232,10.963,10.963,0,0,0,5,8.667l18.144,10.476a3.553,3.553,0,0,0,3.581.35l4.343-2.524a3.553,3.553,0,0,1-3.581-.35" transform="translate(11229 -10788.719)" fill="#f2f2f2"/>
      <path id="Trazado_279991" data-name="Trazado 279991" d="M303.477,404a3.2,3.2,0,0,1-1.8-.492,8.05,8.05,0,0,1-2.784-2.988,24.4,24.4,0,0,0-6.332-7.36l-.731-.549a8.015,8.015,0,0,1-3.126-6.686l.065-.424a2.335,2.335,0,0,1,1.046-1.784l-4.343,2.523a2.337,2.337,0,0,0-1.046,1.784l-.065.425a8.015,8.015,0,0,0,3.126,6.686l.732.549a24.408,24.408,0,0,1,6.331,7.36,8.055,8.055,0,0,0,2.784,2.987,3.191,3.191,0,0,0,1.8.493l.37-.022a1.872,1.872,0,0,0,.813-.245l4.343-2.524a1.877,1.877,0,0,1-.813.245Z" transform="translate(11229 -10788.719)" fill="#f2f2f2"/>
      <path id="Trazado_279992" data-name="Trazado 279992" d="M294.983,378.357,229.415,340.5c-4.657-2.689-8.878-2.937-11.926-1.166l-4.343,2.524c3.048-1.772,7.269-1.523,11.927,1.166l65.567,37.855c9.261,5.347,16.735,18.3,16.7,28.925l-.083,47.8,4.343-2.524.083-47.8c.03-10.624-7.444-23.579-16.7-28.926" transform="translate(11229 -10788.719)" fill="#f2f2f2"/>
      <path id="Trazado_279993" data-name="Trazado 279993" d="M290.64,380.882c9.261,5.347,16.735,18.3,16.7,28.925l-.083,47.8L208.175,400.4l.083-47.8c.03-10.623,7.561-14.915,16.814-9.573Zm-45.455-9.988a10.292,10.292,0,0,0,3.552,3.735l18.144,10.476c2.77,1.6,5.035.326,5.045-2.865a11.036,11.036,0,0,0-5.012-8.681l-18.145-10.475c-2.777-1.6-5.027-.322-5.036,2.879a10.21,10.21,0,0,0,1.452,4.931M215.6,358.058l.37.449a6.625,6.625,0,0,0,1.8,1.585,2.736,2.736,0,0,0,2.791.231c1.7-.994,3.9-1.024,6.353-.036l.732.3c2.039.833,3.453-.542,3.153-3.061l-.061-.5a8.317,8.317,0,0,0-3.673-5.782,4.233,4.233,0,0,0-.558-.274l-.732-.3c-4.291-1.744-8.145-1.632-11.059.226-1.65,1.049-1.195,4.59.886,7.159m71.891,37.077.732.55a24.415,24.415,0,0,1,6.331,7.359,8.05,8.05,0,0,0,2.784,2.988,3.191,3.191,0,0,0,1.8.493l.37-.022c2.089-.161,2.563-3.166.924-6.114a41.308,41.308,0,0,0-11.021-12.974l-.731-.549a5.736,5.736,0,0,0-.558-.371c-1.816-1.048-3.409-.435-3.693,1.53l-.065.425a8.012,8.012,0,0,0,3.126,6.685" transform="translate(11229 -10788.719)" fill="#d9d9d9"/>
      <path id="Trazado_279994" data-name="Trazado 279994" d="M395.922,354.027c-1.962-1.14-4.68-.979-7.679.753L345.32,379.561c-4.508,2.6-8.528,8.139-10.088,13.894l-5.007,18.5c-1.72,6.342-.368,11.116,2.762,12.935l4.343,2.524c-3.13-1.819-4.482-6.593-2.762-12.935l5.007-18.5c1.56-5.755,5.58-11.291,10.088-13.894L392.586,357.3c3-1.732,5.717-1.893,7.679-.753Z" transform="translate(11229 -10788.719)" fill="#f2f2f2"/>
      <path id="Trazado_279995" data-name="Trazado 279995" d="M385.377,367.817l-4.343-2.524a3.061,3.061,0,0,1,1.273,2.8,8.852,8.852,0,0,1-1.265,4.28,8.948,8.948,0,0,1-3.088,3.268l-25,14.432a3.076,3.076,0,0,1-3.1.3L354.2,392.9a3.076,3.076,0,0,0,3.1-.3l25-14.432a8.944,8.944,0,0,0,3.088-3.269,8.833,8.833,0,0,0,1.264-4.28,3.058,3.058,0,0,0-1.272-2.8" transform="translate(11229 -10788.719)" fill="#f2f2f2"/>
      <path id="Trazado_279996" data-name="Trazado 279996" d="M392.585,357.3c5.956-3.438,10.8-.686,10.823,6.159l.049,17.423c.019,6.835-4.8,15.177-10.753,18.615l-46.888,27.071c-8.34,4.815-14.143-1.416-11.249-12.089l5.007-18.5c1.56-5.755,5.58-11.291,10.089-13.894Zm-7.2,17.6a8.837,8.837,0,0,0,1.265-4.279c-.008-2.777-1.966-3.892-4.382-2.5l-25,14.432a9.627,9.627,0,0,0-4.352,7.539c.007,2.777,1.973,3.9,4.381,2.507l25-14.434a8.94,8.94,0,0,0,3.088-3.268" transform="translate(11229 -10788.719)" fill="#d9d9d9"/>
      <path id="Trazado_279997" data-name="Trazado 279997" d="M493.855,297.424c-2.188-1.271-5.221-1.121-8.638.852l-44.11,25.467c-7.861,4.538-13.62,16.3-11.777,24.034l2.99,12.546a7.167,7.167,0,0,0,3.208,4.753l4.343,2.524a7.161,7.161,0,0,1-3.207-4.754L433.672,350.3c-1.842-7.73,3.917-19.5,11.778-24.034L489.56,300.8c3.417-1.972,6.45-2.122,8.638-.851Z" transform="translate(11229 -10788.719)" fill="#f2f2f2"/>
      <path id="Trazado_279998" data-name="Trazado 279998" d="M475.734,315.138l-4.343-2.524a3.054,3.054,0,0,1,1.273,2.8,9.661,9.661,0,0,1-4.361,7.553L458.1,328.858a3.075,3.075,0,0,1-3.1.3l4.343,2.524a3.074,3.074,0,0,0,3.1-.3l10.206-5.892a9.656,9.656,0,0,0,4.36-7.553,3.052,3.052,0,0,0-1.272-2.8" transform="translate(11229 -10788.719)" fill="#f2f2f2"/>
      <path id="Trazado_279999" data-name="Trazado 279999" d="M489.56,300.8c7.845-4.529,13.668.549,11.875,10.378l-2.918,15.957c-1.281,7.043-6.162,14.317-11.8,17.569l-38.193,22.051c-5.634,3.253-10.541,1.63-11.865-3.908L433.672,350.3c-1.842-7.73,3.917-19.5,11.778-24.034Zm-13.826,21.422a8.867,8.867,0,0,0,1.272-4.285c-.007-2.776-1.973-3.887-4.389-2.492l-10.205,5.892a9.631,9.631,0,0,0-4.353,7.539c.008,2.776,1.974,3.9,4.381,2.506l10.206-5.892a8.948,8.948,0,0,0,3.088-3.268" transform="translate(11229 -10788.719)" fill="#d9d9d9"/>
      <g id="Grupo_261908" data-name="Grupo 261908" transform="translate(11229 -10788.719)" clip-path="url(#clip-path-16)">
        <g id="Grupo_261907" data-name="Grupo 261907" style="isolation: isolate">
          <g id="Grupo_261906" data-name="Grupo 261906">
            <g id="Grupo_261905" data-name="Grupo 261905" clip-path="url(#clip-path-16)">
              <g id="Grupo_261898" data-name="Grupo 261898">
                <g id="Grupo_261897" data-name="Grupo 261897">
                  <g id="Grupo_261896" data-name="Grupo 261896" clip-path="url(#clip-path-18)">
                    <path id="Trazado_280000" data-name="Trazado 280000" d="M365.322,164.823c7.326-4.23,13.965-4.623,18.759-1.837l6.478,3.764c-4.794-2.785-11.433-2.392-18.759,1.838-14.553,8.4-26.311,28.766-26.263,45.489.023,8.311,2.958,14.16,7.69,16.91l-6.478-3.765c-4.732-2.75-7.667-8.6-7.69-16.909-.048-16.723,11.71-37.087,26.263-45.49" fill="#f2f2f2"/>
                  </g>
                </g>
              </g>
              <g id="Grupo_261901" data-name="Grupo 261901">
                <g id="Grupo_261900" data-name="Grupo 261900">
                  <g id="Grupo_261899" data-name="Grupo 261899" clip-path="url(#clip-path-19)">
                    <path id="Trazado_280001" data-name="Trazado 280001" d="M371.8,168.588c-14.554,8.4-26.311,28.767-26.263,45.49s11.881,23.478,26.435,15.075,26.32-28.783,26.273-45.506-11.891-23.461-26.445-15.059" fill="#bbb"/>
                  </g>
                </g>
              </g>
              <path id="Trazado_280002" data-name="Trazado 280002" d="M367.081,180.122l-14.09,36.139a5.321,5.321,0,0,0,7.617,6.541l28.18-16.271a5.32,5.32,0,0,0,1.679-7.684l-14.09-19.869a5.32,5.32,0,0,0-9.3,1.144" fill="#fa0"/>
              <path id="Trazado_280003" data-name="Trazado 280003" d="M374.432,203.543a7.709,7.709,0,0,1-2.052,1.794,3.7,3.7,0,0,1-2.052.575l-3.389,8.922a9.787,9.787,0,0,0,5.441-1.52,20.457,20.457,0,0,0,5.438-4.758Zm-4.225-5.955-3.56-4.795c-3.214,4.061-5.379,9.318-5.441,13.947l6.951-3.889a9.2,9.2,0,0,1,2.05-5.263m7.911-11.415-3.568,8.9c1.213.136,2.03,1.175,2.052,2.9l6.952-4.126c-.057-4.561-2.222-7.32-5.436-7.673"/>
              <path id="Trazado_280004" data-name="Trazado 280004" d="M369.714,202.029a5.873,5.873,0,0,1,2.666-4.6c1.472-.85,2.665-.169,2.665,1.52a5.874,5.874,0,0,1-2.665,4.6c-1.473.85-2.666.17-2.666-1.52"/>
              <g id="Grupo_261904" data-name="Grupo 261904">
                <g id="Grupo_261903" data-name="Grupo 261903">
                  <g id="Grupo_261902" data-name="Grupo 261902" clip-path="url(#clip-path-20)">
                    <path id="Trazado_280005" data-name="Trazado 280005" d="M377.185,223.867v0l.028-.016,0,.012v0l.012-.006,0,.011v0l0,0-.008.023,0-.007,0,0,0,.012,0-.007,0-.007-.008,0v0l.012-.007Z" fill="#383428"/>
                  </g>
                </g>
              </g>
            </g>
          </g>
        </g>
      </g>
    </g>
  </g>
</svg>
