<svg xmlns="http://www.w3.org/2000/svg" xmlns:xlink="http://www.w3.org/1999/xlink" width="345.81" height="380.758" viewBox="0 0 345.81 380.758">
  <defs>
    <clipPath id="clip-path">
      <rect id="Rectángulo_325711" data-name="Rectángulo 325711" width="126.145" height="79.8" transform="translate(323.129 2570.88)" fill="none"/>
    </clipPath>
    <clipPath id="clip-path-2">
      <rect id="Rectángulo_325712" data-name="Rectángulo 325712" width="8.76" height="97.35" transform="translate(197.85 2544.58)" fill="none"/>
    </clipPath>
    <clipPath id="clip-path-3">
      <rect id="Rectángulo_325713" data-name="Rectángulo 325713" width="51.891" height="120.82" transform="translate(206.61 2521.11)" fill="none"/>
    </clipPath>
    <clipPath id="clip-path-4">
      <rect id="Rectángulo_325714" data-name="Rectángulo 325714" width="90.215" height="143.75" transform="translate(359.055 2586.94)" fill="none"/>
    </clipPath>
    <clipPath id="clip-path-5">
      <rect id="Rectángulo_325715" data-name="Rectángulo 325715" width="256.149" height="152.59" transform="translate(195.098 2482.12)" fill="none"/>
    </clipPath>
    <clipPath id="clip-path-6">
      <rect id="Rectángulo_325716" data-name="Rectángulo 325716" width="161.205" height="131.19" transform="translate(197.85 2544.89)" fill="none"/>
    </clipPath>
  </defs>
  <g id="Grupo_262123" data-name="Grupo 262123" transform="translate(-11407.113 8438.782)">
    <g id="Grupo_262116" data-name="Grupo 262116">
      <path id="Trazado_280101" data-name="Trazado 280101" d="M519.039,2467.166c10.029,19.338,4.118,42.295-13.2,51.277s-39.488.587-49.517-18.751-12.533-54.424,4.786-63.406,47.9,11.543,57.93,30.88" transform="translate(11229 -10788.719)" fill="#e7f4fa"/>
      <path id="Trazado_280102" data-name="Trazado 280102" d="M409.539,2652.466c-84.771,2.732-167.316,16.666-210.266-57.466s-18.443-168.6,54.733-210.994c49.41-28.626,190.587-28.71,186.161,74.807-3.981,93.113,52.005,56.421,65.955,80.5,42.95,74.134,2.1,109.974-96.583,113.153" transform="translate(11229 -10788.719)" fill="#e7f4fa"/>
      <path id="Trazado_280103" data-name="Trazado 280103" d="M352.1,2395.758l-3.067-16.18-7.723,4.694,1.963-34.336,4.7,24.82,7.286-4.25Z" transform="translate(11229 -10788.719)" fill="#ffd500"/>
      <path id="Trazado_280104" data-name="Trazado 280104" d="M330.177,2414.476l-4.536-10.644,6.344-.28-14.571-19.274,6.959,16.326-5.915.368Z" transform="translate(11229 -10788.719)" fill="#ffd500"/>
      <path id="Trazado_280105" data-name="Trazado 280105" d="M358.385,2408.826l11.957-9.259,2.453,7.928,19.548-24.8L374,2396.9l-2.423-7.357Z" transform="translate(11229 -10788.719)" fill="#ffd500"/>
      <g id="Grupo_262025" data-name="Grupo 262025" transform="translate(11229 -10788.719)" clip-path="url(#clip-path)">
        <path id="Trazado_280106" data-name="Trazado 280106" d="M371.574,2648.153l-44.635-26.584a7.663,7.663,0,0,1,.021-13.26l64.823-37.424,53.541,31.781a7.931,7.931,0,0,1-.016,13.729l-55.06,31.789a18.62,18.62,0,0,1-18.674-.031" fill="#d29779"/>
      </g>
      <path id="Trazado_280107" data-name="Trazado 280107" d="M389.092,2584.877l-7.716-53.255c-.679-4.684-4.485-6.235-8.961-3.651l-21.588,12.464c-4.475,2.584-8.281,8.53-8.96,14l-7.476,60.227a1.9,1.9,0,0,0,2.828,1.875,2.4,2.4,0,0,0,1.241-1.808l7.217-61.312a14.24,14.24,0,0,1,6.31-9.91l19.464-11.238c3.154-1.821,5.834-.722,6.3,2.586l7.261,51.082a1.894,1.894,0,0,0,2.823,1.374,2.36,2.36,0,0,0,1.253-2.432" transform="translate(11229 -10788.719)" fill="#efe5df"/>
      <path id="Trazado_280108" data-name="Trazado 280108" d="M429.725,2551.966c2.642-1.524-42.056-24.254-44.178-26-.8-.664-2.771-1.57-3.885-.9-3.339,2.01-40.733,22.58-45.133,26.057s-10.1,17.051-7.821,17.791S372.847,2602.966,376.9,2595c5.933-11.663,43.217-37.48,52.824-43.03" transform="translate(11229 -10788.719)" fill="#2b4780"/>
      <path id="Trazado_280109" data-name="Trazado 280109" d="M380.9,2524.489a2.838,2.838,0,0,0,2.369,1.237c1.712.027,8.582,4.081,22.271,11.583a168.985,168.985,0,0,1,21.976,14.082l2.348-.709s3.659-25.377,3.238-28.589c-.422-3.185,8.793-21.082,8.793-21.082a44.044,44.044,0,0,0-18.533-18.246c-12.979-6.581-28.063-8.661-28.063-8.661-.315-1.685-5.37,3.659-7.212,8.108-1.659,3.948-6.239,35.643-7.187,42.277" transform="translate(11229 -10788.719)" fill="#233c71"/>
      <path id="Trazado_280110" data-name="Trazado 280110" d="M441.891,2501.01c.326,1.682.164,2.34-2.117,5.9s-3.788,12.141-4.4,17.5c-.9,7.882-2.808,20.87-3.578,26.031-.165,1.106-1.131,2.206-1.928,2.2l-1.654-.018c-.524-.006-.807-.5-.7-1.228.947-6.642,5.521-38.325,7.165-42.285,1.838-4.427,6.888-9.777,7.214-8.095" transform="translate(11229 -10788.719)" fill="#233c71"/>
      <path id="Trazado_280111" data-name="Trazado 280111" d="M425.866,2561.014c2.642-1.527,4.725-5.465,4.219-8.148-.193-1.024-.709-1.569-1.823-.9-3.339,2.01-40.733,22.581-45.132,26.057s-10.1,17.051-7.821,17.791,2.258-5.327,9.613-10.412c5.932-4.1,31.336-18.84,40.944-24.389" transform="translate(11229 -10788.719)" fill="#233c71"/>
      <path id="Trazado_280112" data-name="Trazado 280112" d="M435.223,2613.76a1.185,1.185,0,0,0,.581-1.2l-7.829-54.036c-.678-4.685-4.484-6.235-8.96-3.651l-21.588,12.464c-4.476,2.584-8.282,8.53-8.961,14l-7.558,60.892a1.562,1.562,0,0,0,2.331,1.544c1.064-.614,1.663-.806,1.752-1.562l7.285-61.892a14.245,14.245,0,0,1,6.31-9.91l19.464-11.238c3.154-1.821,5.834-.722,6.3,2.586l7.33,51.57a1.562,1.562,0,0,0,2.327,1.133Z" transform="translate(11229 -10788.719)" fill="#dceff4"/>
      <path id="Trazado_280113" data-name="Trazado 280113" d="M299.806,2617.166s-6.5,9.24-10.437,10.951-11.293,10.608-12.148,15.057,8.9,6.159,13,2.224,9.411-10.95,13-12.49,5.818-3.252,7.358-8.213,1.54-5.647,1.54-5.647Z" transform="translate(11229 -10788.719)" fill="#8f8e94"/>
      <path id="Trazado_280114" data-name="Trazado 280114" d="M388.952,2530.246s-21.9-3.08-38.669,3.08-34.564,15.057-35.59,21.217-14.032,57.833-16.769,62.281,4.791,7.529,6.844,7.871,8.9-5.133,8.9-5.133,14.03-32.852,16.082-41.749l2.053-8.9s49.62-3.422,60.913-13.346-3.763-25.323-3.763-25.323" transform="translate(11229 -10788.719)" fill="#f2cba0"/>
      <path id="Trazado_280115" data-name="Trazado 280115" d="M329.236,2614.429l-3.593,3.422s-3.251,9.582-6.844,13.86-6.5,6.33-6.16,9.41,3.764,3.422,11.977-.342,9.24-11.806,10.609-14.03,7.7-6.331,8.042-8.9-1.711-7.7-1.711-7.7Z" transform="translate(11229 -10788.719)" fill="#8f8e94"/>
      <path id="Trazado_280116" data-name="Trazado 280116" d="M378.685,2538.8s-53.726,10.437-54.411,18.65,5.818,40.552,3.764,47.567a64.322,64.322,0,0,0-2.395,12.833s8.555,1.368,12.32-2.224a37.676,37.676,0,0,0,4.106-4.278c.513-.514,7.357-19.677,7.7-23.955s-.685-13.517-.685-13.517,49.449,5.3,61.6-11.122-2.395-34.734-2.395-34.734-26.179-4.962-29.6,10.78" transform="translate(11229 -10788.719)" fill="#624d7c"/>
      <path id="Trazado_280117" data-name="Trazado 280117" d="M354.268,2727.792l65.609-49.989-141.956-82.1-73.029,45.466Z" transform="translate(11229 -10788.719)" fill="#e1e5ef"/>
      <path id="Trazado_280118" data-name="Trazado 280118" d="M359.055,2730.695l-8.761-5.251v-89.171l8.761,5.251Z" transform="translate(11229 -10788.719)" fill="#dceff4"/>
      <g id="Grupo_262028" data-name="Grupo 262028" transform="translate(11229 -10788.719)" clip-path="url(#clip-path-2)">
        <path id="Trazado_280119" data-name="Trazado 280119" d="M206.61,2641.926l-8.761-5.251v-92.093l8.761,5.252Z" fill="#879677"/>
      </g>
      <g id="Grupo_262031" data-name="Grupo 262031" transform="translate(11229 -10788.719)" clip-path="url(#clip-path-3)">
        <path id="Trazado_280120" data-name="Trazado 280120" d="M206.61,2641.926,258.5,2613.2v-92.092l-51.891,28.727Z" fill="#879677"/>
      </g>
      <g id="Grupo_262034" data-name="Grupo 262034" transform="translate(11229 -10788.719)" clip-path="url(#clip-path-4)">
        <path id="Trazado_280121" data-name="Trazado 280121" d="M449.27,2678.3l-90.215,52.4v-89.17l90.215-54.586Z" fill="#879677"/>
      </g>
      <path id="Trazado_280122" data-name="Trazado 280122" d="M358.862,2641.95,195.1,2543.783v-5.458l256.149,40.87v7.2Z" transform="translate(11229 -10788.719)" fill="#d5e8ec"/>
      <g id="Grupo_262037" data-name="Grupo 262037" transform="translate(11229 -10788.719)" clip-path="url(#clip-path-5)">
        <path id="Trazado_280123" data-name="Trazado 280123" d="M359.4,2634.709,195.1,2538.326l93.5-56.207L451.247,2579.2Z" fill="#879677"/>
      </g>
      <g id="Grupo_262040" data-name="Grupo 262040" transform="translate(11229 -10788.719)" clip-path="url(#clip-path-6)">
        <path id="Trazado_280124" data-name="Trazado 280124" d="M359.055,2676.083,197.85,2579.451v-34.558l161.205,96.631Z" fill="#879677"/>
      </g>
      <path id="Trazado_280125" data-name="Trazado 280125" d="M345.534,2560.544l-33.606,19.406L267.666,2554.4l33.586-19.406Z" transform="translate(11229 -10788.719)" fill="#13a4aa"/>
      <path id="Trazado_280126" data-name="Trazado 280126" d="M322.17,2548.2l21.735,12.548-31.636,18.265-21.735-12.548Z" transform="translate(11229 -10788.719)" fill="#fefefe"/>
      <path id="Trazado_280127" data-name="Trazado 280127" d="M300.919,2535.93l21.735,12.548-31.636,18.265L269.283,2554.2Z" transform="translate(11229 -10788.719)" fill="#fefefe"/>
      <path id="Trazado_280128" data-name="Trazado 280128" d="M295.485,2566.116l16.029,9.255-.543.313-16.029-9.254Z" transform="translate(11229 -10788.719)" fill="#c2b8b5"/>
      <path id="Trazado_280129" data-name="Trazado 280129" d="M297.478,2564.966l16.029,9.254-.543.314-16.029-9.254Z" transform="translate(11229 -10788.719)" fill="#c2b8b5"/>
      <path id="Trazado_280130" data-name="Trazado 280130" d="M299.47,2563.815l16.03,9.255-.544.313-16.029-9.254Z" transform="translate(11229 -10788.719)" fill="#c2b8b5"/>
      <path id="Trazado_280131" data-name="Trazado 280131" d="M301.462,2562.666l16.03,9.255-.544.313-16.029-9.254Z" transform="translate(11229 -10788.719)" fill="#c2b8b5"/>
      <path id="Trazado_280132" data-name="Trazado 280132" d="M303.454,2561.515l16.03,9.254-.544.314-16.029-9.254Z" transform="translate(11229 -10788.719)" fill="#c2b8b5"/>
      <path id="Trazado_280133" data-name="Trazado 280133" d="M305.447,2560.365l16.029,9.255-.543.313-16.029-9.254Z" transform="translate(11229 -10788.719)" fill="#c2b8b5"/>
      <path id="Trazado_280134" data-name="Trazado 280134" d="M314.684,2561.829l10.414,6.013-.543.314-10.414-6.013Z" transform="translate(11229 -10788.719)" fill="#c2b8b5"/>
      <path id="Trazado_280135" data-name="Trazado 280135" d="M316.676,2560.679l10.414,6.013-.543.313-10.414-6.013Z" transform="translate(11229 -10788.719)" fill="#c2b8b5"/>
      <path id="Trazado_280136" data-name="Trazado 280136" d="M318.669,2559.528l10.414,6.013-.543.314-10.414-6.013Z" transform="translate(11229 -10788.719)" fill="#c2b8b5"/>
      <path id="Trazado_280137" data-name="Trazado 280137" d="M320.661,2558.378l10.414,6.013-.543.313-10.414-6.012Z" transform="translate(11229 -10788.719)" fill="#c2b8b5"/>
      <path id="Trazado_280138" data-name="Trazado 280138" d="M322.654,2557.228l10.414,6.013-.543.314-10.414-6.013Z" transform="translate(11229 -10788.719)" fill="#c2b8b5"/>
      <path id="Trazado_280139" data-name="Trazado 280139" d="M324.646,2556.077l10.414,6.013-.543.314-10.414-6.013Z" transform="translate(11229 -10788.719)" fill="#c2b8b5"/>
      <path id="Trazado_280140" data-name="Trazado 280140" d="M277.683,2555.948l10.414,6.013-.543.314-10.414-6.013Z" transform="translate(11229 -10788.719)" fill="#c2b8b5"/>
      <path id="Trazado_280141" data-name="Trazado 280141" d="M279.675,2554.8l10.414,6.013-.543.314-10.414-6.013Z" transform="translate(11229 -10788.719)" fill="#c2b8b5"/>
      <path id="Trazado_280142" data-name="Trazado 280142" d="M281.668,2553.647l10.414,6.013-.543.313-10.414-6.012Z" transform="translate(11229 -10788.719)" fill="#c2b8b5"/>
      <path id="Trazado_280143" data-name="Trazado 280143" d="M350.358,2584.137l-28.7,16.572-37.8-21.822,28.681-16.571Z" transform="translate(11229 -10788.719)" fill="#13a4aa"/>
      <path id="Trazado_280144" data-name="Trazado 280144" d="M330.406,2573.6l18.56,10.716-27.015,15.6-18.561-10.716Z" transform="translate(11229 -10788.719)" fill="#fefefe"/>
      <path id="Trazado_280145" data-name="Trazado 280145" d="M312.258,2563.118l18.56,10.716-27.015,15.6-18.561-10.716Z" transform="translate(11229 -10788.719)" fill="#fefefe"/>
      <path id="Trazado_280146" data-name="Trazado 280146" d="M307.618,2588.9l13.688,7.9-.464.268-13.688-7.9Z" transform="translate(11229 -10788.719)" fill="#c2b8b5"/>
      <path id="Trazado_280147" data-name="Trazado 280147" d="M309.32,2587.913l13.688,7.9-.464.268-13.688-7.9Z" transform="translate(11229 -10788.719)" fill="#c2b8b5"/>
      <path id="Trazado_280148" data-name="Trazado 280148" d="M311.021,2586.931l13.689,7.9-.465.268-13.688-7.9Z" transform="translate(11229 -10788.719)" fill="#c2b8b5"/>
      <path id="Trazado_280149" data-name="Trazado 280149" d="M312.722,2585.949l13.689,7.9-.465.268-13.688-7.9Z" transform="translate(11229 -10788.719)" fill="#c2b8b5"/>
      <path id="Trazado_280150" data-name="Trazado 280150" d="M314.423,2584.966l13.689,7.9-.464.268-13.689-7.9Z" transform="translate(11229 -10788.719)" fill="#c2b8b5"/>
      <path id="Trazado_280151" data-name="Trazado 280151" d="M316.125,2583.984l13.688,7.9-.464.268-13.688-7.9Z" transform="translate(11229 -10788.719)" fill="#c2b8b5"/>
      <path id="Trazado_280152" data-name="Trazado 280152" d="M324.013,2585.234l8.893,5.135-.464.268-8.893-5.135Z" transform="translate(11229 -10788.719)" fill="#c2b8b5"/>
      <path id="Trazado_280153" data-name="Trazado 280153" d="M325.715,2584.252l8.893,5.135-.464.267-8.893-5.134Z" transform="translate(11229 -10788.719)" fill="#c2b8b5"/>
      <path id="Trazado_280154" data-name="Trazado 280154" d="M327.416,2583.27l8.893,5.135-.464.268-8.893-5.135Z" transform="translate(11229 -10788.719)" fill="#c2b8b5"/>
      <path id="Trazado_280155" data-name="Trazado 280155" d="M329.117,2582.287l8.893,5.135-.464.267-8.893-5.134Z" transform="translate(11229 -10788.719)" fill="#c2b8b5"/>
      <path id="Trazado_280156" data-name="Trazado 280156" d="M330.819,2581.3l8.893,5.135-.464.268-8.893-5.135Z" transform="translate(11229 -10788.719)" fill="#c2b8b5"/>
      <path id="Trazado_280157" data-name="Trazado 280157" d="M332.52,2580.323l8.893,5.135-.464.268-8.893-5.135Z" transform="translate(11229 -10788.719)" fill="#c2b8b5"/>
      <path id="Trazado_280158" data-name="Trazado 280158" d="M292.416,2580.212l8.893,5.135-.464.268-8.893-5.135Z" transform="translate(11229 -10788.719)" fill="#c2b8b5"/>
      <path id="Trazado_280159" data-name="Trazado 280159" d="M294.117,2579.23l8.893,5.135-.464.268-8.893-5.135Z" transform="translate(11229 -10788.719)" fill="#c2b8b5"/>
      <path id="Trazado_280160" data-name="Trazado 280160" d="M295.819,2578.248l8.893,5.135-.464.267-8.893-5.134Z" transform="translate(11229 -10788.719)" fill="#c2b8b5"/>
      <path id="Trazado_280161" data-name="Trazado 280161" d="M396.851,2604.387l-28.7,16.572-37.8-21.822,28.681-16.571Z" transform="translate(11229 -10788.719)" fill="#13a4aa"/>
      <path id="Trazado_280162" data-name="Trazado 280162" d="M376.9,2593.846l18.56,10.716-27.015,15.6-18.561-10.716Z" transform="translate(11229 -10788.719)" fill="#fefefe"/>
      <path id="Trazado_280163" data-name="Trazado 280163" d="M358.751,2583.368l18.56,10.716-27.015,15.6-18.561-10.716Z" transform="translate(11229 -10788.719)" fill="#fefefe"/>
      <path id="Trazado_280164" data-name="Trazado 280164" d="M354.111,2609.146l13.688,7.9-.464.268-13.688-7.9Z" transform="translate(11229 -10788.719)" fill="#c2b8b5"/>
      <path id="Trazado_280165" data-name="Trazado 280165" d="M355.813,2608.163l13.688,7.9-.464.268-13.688-7.9Z" transform="translate(11229 -10788.719)" fill="#c2b8b5"/>
      <path id="Trazado_280166" data-name="Trazado 280166" d="M357.514,2607.181l13.689,7.9-.464.268-13.689-7.9Z" transform="translate(11229 -10788.719)" fill="#c2b8b5"/>
      <path id="Trazado_280167" data-name="Trazado 280167" d="M359.215,2606.2l13.689,7.9-.465.268-13.688-7.9Z" transform="translate(11229 -10788.719)" fill="#c2b8b5"/>
      <path id="Trazado_280168" data-name="Trazado 280168" d="M360.917,2605.216l13.689,7.9-.465.268-13.688-7.9Z" transform="translate(11229 -10788.719)" fill="#c2b8b5"/>
      <path id="Trazado_280169" data-name="Trazado 280169" d="M362.618,2604.234l13.688,7.9-.464.268-13.688-7.9Z" transform="translate(11229 -10788.719)" fill="#c2b8b5"/>
      <path id="Trazado_280170" data-name="Trazado 280170" d="M370.506,2605.484l8.893,5.135-.464.268-8.893-5.135Z" transform="translate(11229 -10788.719)" fill="#c2b8b5"/>
      <path id="Trazado_280171" data-name="Trazado 280171" d="M372.208,2604.5l8.893,5.135-.464.267-8.893-5.134Z" transform="translate(11229 -10788.719)" fill="#c2b8b5"/>
      <path id="Trazado_280172" data-name="Trazado 280172" d="M373.909,2603.52l8.893,5.135-.464.268-8.893-5.135Z" transform="translate(11229 -10788.719)" fill="#c2b8b5"/>
      <path id="Trazado_280173" data-name="Trazado 280173" d="M375.611,2602.538l8.893,5.135-.464.267-8.893-5.134Z" transform="translate(11229 -10788.719)" fill="#c2b8b5"/>
      <path id="Trazado_280174" data-name="Trazado 280174" d="M377.312,2601.555l8.893,5.135-.464.268-8.893-5.135Z" transform="translate(11229 -10788.719)" fill="#c2b8b5"/>
      <path id="Trazado_280175" data-name="Trazado 280175" d="M379.013,2600.573l8.893,5.135-.464.268-8.893-5.135Z" transform="translate(11229 -10788.719)" fill="#c2b8b5"/>
      <path id="Trazado_280176" data-name="Trazado 280176" d="M338.909,2600.462l8.893,5.135-.464.268-8.893-5.135Z" transform="translate(11229 -10788.719)" fill="#c2b8b5"/>
      <path id="Trazado_280177" data-name="Trazado 280177" d="M340.611,2599.48l8.893,5.135-.464.268-8.893-5.135Z" transform="translate(11229 -10788.719)" fill="#c2b8b5"/>
      <path id="Trazado_280178" data-name="Trazado 280178" d="M342.312,2598.5l8.893,5.135-.464.267-8.893-5.134Z" transform="translate(11229 -10788.719)" fill="#c2b8b5"/>
      <path id="Trazado_280179" data-name="Trazado 280179" d="M357.471,2526.991l-28.7,16.572-37.8-21.822,28.681-16.571Z" transform="translate(11229 -10788.719)" fill="#13a4aa"/>
      <path id="Trazado_280180" data-name="Trazado 280180" d="M337.52,2516.45l18.56,10.716-27.015,15.6L310.5,2532.047Z" transform="translate(11229 -10788.719)" fill="#fefefe"/>
      <path id="Trazado_280181" data-name="Trazado 280181" d="M319.372,2505.972l18.56,10.716-27.015,15.6-18.561-10.716Z" transform="translate(11229 -10788.719)" fill="#fefefe"/>
      <path id="Trazado_280182" data-name="Trazado 280182" d="M314.732,2531.75l13.688,7.9-.464.268-13.688-7.9Z" transform="translate(11229 -10788.719)" fill="#c2b8b5"/>
      <path id="Trazado_280183" data-name="Trazado 280183" d="M316.433,2530.767l13.688,7.9-.464.268-13.688-7.9Z" transform="translate(11229 -10788.719)" fill="#c2b8b5"/>
      <path id="Trazado_280184" data-name="Trazado 280184" d="M318.135,2529.785l13.689,7.9-.465.268-13.688-7.9Z" transform="translate(11229 -10788.719)" fill="#c2b8b5"/>
      <path id="Trazado_280185" data-name="Trazado 280185" d="M319.836,2528.8l13.689,7.9-.465.268-13.688-7.9Z" transform="translate(11229 -10788.719)" fill="#c2b8b5"/>
      <path id="Trazado_280186" data-name="Trazado 280186" d="M321.537,2527.82l13.689,7.9-.464.268-13.689-7.9Z" transform="translate(11229 -10788.719)" fill="#c2b8b5"/>
      <path id="Trazado_280187" data-name="Trazado 280187" d="M323.239,2526.838l13.688,7.9-.464.268-13.688-7.9Z" transform="translate(11229 -10788.719)" fill="#c2b8b5"/>
      <path id="Trazado_280188" data-name="Trazado 280188" d="M331.127,2528.088l8.893,5.135-.464.268-8.893-5.135Z" transform="translate(11229 -10788.719)" fill="#c2b8b5"/>
      <path id="Trazado_280189" data-name="Trazado 280189" d="M332.828,2527.106l8.893,5.135-.464.267-8.893-5.134Z" transform="translate(11229 -10788.719)" fill="#c2b8b5"/>
      <path id="Trazado_280190" data-name="Trazado 280190" d="M334.53,2526.124l8.893,5.135-.464.268-8.893-5.135Z" transform="translate(11229 -10788.719)" fill="#c2b8b5"/>
      <path id="Trazado_280191" data-name="Trazado 280191" d="M336.231,2525.141l8.893,5.135-.464.267-8.893-5.134Z" transform="translate(11229 -10788.719)" fill="#c2b8b5"/>
      <path id="Trazado_280192" data-name="Trazado 280192" d="M337.933,2524.159l8.893,5.135-.464.268-8.893-5.135Z" transform="translate(11229 -10788.719)" fill="#c2b8b5"/>
      <path id="Trazado_280193" data-name="Trazado 280193" d="M339.634,2523.177l8.893,5.135-.464.268-8.893-5.135Z" transform="translate(11229 -10788.719)" fill="#c2b8b5"/>
      <path id="Trazado_280194" data-name="Trazado 280194" d="M299.53,2523.066l8.893,5.135-.464.268-8.893-5.135Z" transform="translate(11229 -10788.719)" fill="#c2b8b5"/>
      <path id="Trazado_280195" data-name="Trazado 280195" d="M301.231,2522.084l8.893,5.135-.464.268-8.893-5.135Z" transform="translate(11229 -10788.719)" fill="#c2b8b5"/>
      <path id="Trazado_280196" data-name="Trazado 280196" d="M302.933,2521.1l8.893,5.135-.464.267-8.893-5.134Z" transform="translate(11229 -10788.719)" fill="#c2b8b5"/>
      <path id="Trazado_280197" data-name="Trazado 280197" d="M326.9,2499.419l-28.7,16.572-37.8-21.822,28.681-16.571Z" transform="translate(11229 -10788.719)" fill="#13a4aa"/>
      <path id="Trazado_280198" data-name="Trazado 280198" d="M306.95,2488.878l18.56,10.716-27.015,15.6-18.561-10.716Z" transform="translate(11229 -10788.719)" fill="#fefefe"/>
      <path id="Trazado_280199" data-name="Trazado 280199" d="M288.8,2478.4l18.56,10.716-27.015,15.6L261.786,2494Z" transform="translate(11229 -10788.719)" fill="#fefefe"/>
      <path id="Trazado_280200" data-name="Trazado 280200" d="M284.162,2504.177l13.688,7.9-.464.268-13.688-7.9Z" transform="translate(11229 -10788.719)" fill="#c2b8b5"/>
      <path id="Trazado_280201" data-name="Trazado 280201" d="M285.863,2503.2l13.688,7.9-.464.268-13.688-7.9Z" transform="translate(11229 -10788.719)" fill="#c2b8b5"/>
      <path id="Trazado_280202" data-name="Trazado 280202" d="M287.565,2502.213l13.689,7.9-.464.268-13.689-7.9Z" transform="translate(11229 -10788.719)" fill="#c2b8b5"/>
      <path id="Trazado_280203" data-name="Trazado 280203" d="M289.266,2501.23l13.689,7.9-.465.268-13.688-7.9Z" transform="translate(11229 -10788.719)" fill="#c2b8b5"/>
      <path id="Trazado_280204" data-name="Trazado 280204" d="M290.967,2500.249l13.689,7.9-.465.268-13.688-7.9Z" transform="translate(11229 -10788.719)" fill="#c2b8b5"/>
      <path id="Trazado_280205" data-name="Trazado 280205" d="M292.669,2499.266l13.688,7.9-.464.268-13.688-7.9Z" transform="translate(11229 -10788.719)" fill="#c2b8b5"/>
      <path id="Trazado_280206" data-name="Trazado 280206" d="M300.557,2500.516l8.893,5.135-.464.268-8.893-5.135Z" transform="translate(11229 -10788.719)" fill="#c2b8b5"/>
      <path id="Trazado_280207" data-name="Trazado 280207" d="M302.258,2499.534l8.893,5.135-.464.267-8.893-5.134Z" transform="translate(11229 -10788.719)" fill="#c2b8b5"/>
      <path id="Trazado_280208" data-name="Trazado 280208" d="M303.96,2498.552l8.893,5.135-.464.268-8.893-5.135Z" transform="translate(11229 -10788.719)" fill="#c2b8b5"/>
      <path id="Trazado_280209" data-name="Trazado 280209" d="M305.661,2497.569l8.893,5.135-.464.267-8.893-5.134Z" transform="translate(11229 -10788.719)" fill="#c2b8b5"/>
      <path id="Trazado_280210" data-name="Trazado 280210" d="M307.362,2496.587l8.893,5.135-.464.268-8.893-5.135Z" transform="translate(11229 -10788.719)" fill="#c2b8b5"/>
      <path id="Trazado_280211" data-name="Trazado 280211" d="M309.064,2495.6l8.893,5.135-.464.268-8.893-5.135Z" transform="translate(11229 -10788.719)" fill="#c2b8b5"/>
      <path id="Trazado_280212" data-name="Trazado 280212" d="M268.96,2495.494l8.893,5.135-.464.268-8.893-5.135Z" transform="translate(11229 -10788.719)" fill="#c2b8b5"/>
      <path id="Trazado_280213" data-name="Trazado 280213" d="M270.661,2494.512l8.893,5.135-.464.268-8.893-5.135Z" transform="translate(11229 -10788.719)" fill="#c2b8b5"/>
      <path id="Trazado_280214" data-name="Trazado 280214" d="M272.362,2493.53l8.893,5.135-.464.267L271.9,2493.8Z" transform="translate(11229 -10788.719)" fill="#c2b8b5"/>
      <path id="Trazado_280215" data-name="Trazado 280215" d="M302.353,2511.613l22.186-11.817v-2.616l-38.185,3.522v2.617Z" transform="translate(11229 -10788.719)" fill="#f9869d"/>
      <path id="Trazado_280216" data-name="Trazado 280216" d="M302.353,2509l22.186-11.817-16-8.3L286.354,2500.7Z" transform="translate(11229 -10788.719)" fill="#fa708c"/>
      <path id="Trazado_280217" data-name="Trazado 280217" d="M302.006,2509.354v1.39l-15.653-7.927v-1.553Z" transform="translate(11229 -10788.719)" fill="#e7d7d1"/>
      <path id="Trazado_280218" data-name="Trazado 280218" d="M262.515,2553.831l36.937-19.674V2529.8l-63.574,5.863v4.356Z" transform="translate(11229 -10788.719)" fill="#0e7985"/>
      <path id="Trazado_280219" data-name="Trazado 280219" d="M262.515,2549.475l36.937-19.673-26.637-13.811-36.937,19.674Z" transform="translate(11229 -10788.719)" fill="#13a4aa"/>
      <path id="Trazado_280220" data-name="Trazado 280220" d="M261.938,2550.071v2.313l-26.06-13.2V2536.6Z" transform="translate(11229 -10788.719)" fill="#e7d7d1"/>
      <path id="Trazado_280221" data-name="Trazado 280221" d="M264.133,2548.4l36.937-19.674v-4.355L237.5,2530.23v4.356Z" transform="translate(11229 -10788.719)" fill="#0e7985"/>
      <path id="Trazado_280222" data-name="Trazado 280222" d="M264.133,2544.04l36.937-19.673-26.637-13.811L237.5,2530.23Z" transform="translate(11229 -10788.719)" fill="#13a4aa"/>
      <path id="Trazado_280223" data-name="Trazado 280223" d="M263.556,2544.636v2.313l-26.06-13.2v-2.585Z" transform="translate(11229 -10788.719)" fill="#e7d7d1"/>
      <path id="Trazado_280224" data-name="Trazado 280224" d="M265.974,2541.816l36.937-19.674v-4.355l-63.574,5.863v4.356Z" transform="translate(11229 -10788.719)" fill="#0e7985"/>
      <path id="Trazado_280225" data-name="Trazado 280225" d="M265.974,2537.46l36.937-19.673-26.637-13.811-36.937,19.674Z" transform="translate(11229 -10788.719)" fill="#13a4aa"/>
      <path id="Trazado_280226" data-name="Trazado 280226" d="M265.4,2538.057v2.313l-26.06-13.2v-2.585Z" transform="translate(11229 -10788.719)" fill="#e7d7d1"/>
      <path id="Trazado_280227" data-name="Trazado 280227" d="M261.81,2533.031l41.437-5.865,1.489-4.093-61.751-16.218-1.488,4.094Z" transform="translate(11229 -10788.719)" fill="#0e7985"/>
      <path id="Trazado_280228" data-name="Trazado 280228" d="M263.3,2528.937l41.437-5.864-20.314-22.083-41.436,5.865Z" transform="translate(11229 -10788.719)" fill="#13a4aa"/>
      <path id="Trazado_280229" data-name="Trazado 280229" d="M262.552,2529.3l-.79,2.174-19.981-21.31.884-2.429Z" transform="translate(11229 -10788.719)" fill="#e7d7d1"/>
      <path id="Trazado_280230" data-name="Trazado 280230" d="M324.022,2479.811s28.932,2.543,39.2-2.59c7.323-3.662,5.2-7.888,5.369-10.455s-7.871-10.608-9.753-10.1-8.726,8.213-10.437,9.753-18.68,1.817-18.68,1.817Z" transform="translate(11229 -10788.719)" fill="#e7d7d1"/>
      <path id="Trazado_280231" data-name="Trazado 280231" d="M339.046,2443.03s-11.724,15.489-14.8,20.451-3.935,12.833-1.711,15.741,8.726-2.566,11.293-6.844,7.357-26.007,7.357-26.007Z" transform="translate(11229 -10788.719)" fill="#ffbe9e"/>
      <path id="Trazado_280232" data-name="Trazado 280232" d="M355.391,2510.563s4.183,9.453,7.605,17.323,6.792,3.387,6.792,3.387,4.448,6.844,20.874,7.186,19.506-8.213,19.506-8.213-6.844-14.03-9.582-16.084-3.422-7.87-3.422-16.426-7.528-19.848-7.528-19.848l-27.377-19.5s-11.293,20.874-14.03,26.692,7.162,25.488,7.162,25.488" transform="translate(11229 -10788.719)" fill="#632059"/>
      <path id="Trazado_280233" data-name="Trazado 280233" d="M371.236,2459.016s-9.642.579-13.521,14.154a67.3,67.3,0,0,1-3.8,8.028s24.242-7.658,24.083-13.679-6.76-8.5-6.76-8.5" transform="translate(11229 -10788.719)" fill="#e7d7d1"/>
      <path id="Trazado_280234" data-name="Trazado 280234" d="M363.474,2463.571s-4.991,2.535-7.209,5.545-2.852,4.754-1.03,5.229a6.957,6.957,0,0,0,3.407,0s1.98,5.149,4.357,5.07,13.071-5.387,15.765-9.744-3.328-11.646-15.29-6.1" transform="translate(11229 -10788.719)" fill="#fff"/>
      <path id="Trazado_280235" data-name="Trazado 280235" d="M353.992,2457.7s6.338,4.753,6.259,9.745-4.358,7.446,2.455,7.05,13.31-7.288,13.31-9.427-9.19-9.982-9.428-10.141-11.645-4.436-11.645-4.436Z" transform="translate(11229 -10788.719)" fill="#ffbe9e"/>
      <path id="Trazado_280236" data-name="Trazado 280236" d="M338.818,2437.465s-.257,7.315,1.155,8.726.257,5.39.642,6.417,3.08,1.026,3.08,1.026,1.155,2.952,2.053,2.952h.9s.257,1.668,1.155,1.8,1.155-.641,1.155,1.155,1.155,3.85,3.978,3.208,13.86-5.261,17.838-13.345,1.411-21.431-4.492-25.153-22.842-1.155-27.462,13.218" transform="translate(11229 -10788.719)" fill="#ffbe9e"/>
      <path id="Trazado_280237" data-name="Trazado 280237" d="M338.3,2433.615s-.385,7.186,1.8,10.138,5,2.1,7.443,4.021,7.443,7.528,16.425,19.078,19.763,10.523,23.356,13.218,8.726,8.726,8.726,8.726a75.123,75.123,0,0,0-1.154-17.709c-1.8-9.625-13.09-13.86-15.4-22.2s-5.9-24.9-14.757-28.36-20.661-.9-26.436,13.089" transform="translate(11229 -10788.719)" fill="#8c3c1d"/>
      <path id="Trazado_280238" data-name="Trazado 280238" d="M338.006,2440s-.137-2.5.721-2.807,3.6-1.72,4.144-1.324.173,1.626-.262,2.084-4.286,2.5-4.6,2.047" transform="translate(11229 -10788.719)" fill="#ffbe9e"/>
      <path id="Trazado_280239" data-name="Trazado 280239" d="M336.936,2443.03s1.561,2.322,2.811,1.675,4.606-1.094,4.958-1.513.924-1.647,0-1.908-6.884.22-6.884.22-1.185.465-.88,1.526" transform="translate(11229 -10788.719)" fill="#ffbe9e"/>
      <path id="Trazado_280240" data-name="Trazado 280240" d="M337.7,2445.682c-.057,1.091.558,1.7,2.6,1.123s5.308-.573,5.383-1.363a1.665,1.665,0,0,0-1.65-1.877c-1.178.06-6.236.313-6.33,2.117" transform="translate(11229 -10788.719)" fill="#ffbe9e"/>
      <path id="Trazado_280241" data-name="Trazado 280241" d="M339.256,2449.363c.3.782.548,1.147,2.26.731s3.976-1.043,3.731-2.083-1.107-.528-2.327-.347-4.264.126-3.664,1.7" transform="translate(11229 -10788.719)" fill="#ffbe9e"/>
      <path id="Trazado_280242" data-name="Trazado 280242" d="M375.1,2479.431c-.981.3-4.791,8.555-4.106,15.741s-3.422,32.852-3.422,32.852-9.582,15.4-12.32,17.111-12.319,7.614-12.319,7.614-5.134,4.534-5.647,4.705-1.711,4.107-2.909,5.3.171,1.54,1.112,1.2,4.364-3.935,4.364-3.935l2.395-1.626s-1.625,4.021-2.31,5.219-3.593,6.93-3.336,9.667.941,2.909,1.711,2.054,5.475-11.55,5.475-11.55-3.679,11.036-3.251,11.892a1.174,1.174,0,0,0,1.8.342c.256-.342,1.625.513,1.8,0s5.219-10.523,5.219-10.523-1.2,10.352-.171,11.036,1.368-1.026,1.625-1.968,1.369-8.726,2.738-11.121,2.4-9.069,2.4-9.069,14.2-10.779,19.078-16.084,3.594-6.587,4.62-11.378,5.219-21.644,5.732-27.547,5.561-24.811-10.266-19.934" transform="translate(11229 -10788.719)" fill="#ffbe9e"/>
      <path id="Trazado_280243" data-name="Trazado 280243" d="M380.4,2475.667c-2.737.014-7.871,1.625-9.325,5.732a33.707,33.707,0,0,0-1.626,13.261c.343,4.106-3.165,22.842-3.165,22.842s-.6,3.679,7.1,4.021,10.18-1.283,10.18-1.283,4.107-21.217,4.706-29.345,1.457-15.274-7.871-15.228" transform="translate(11229 -10788.719)" fill="#e7d7d1"/>
      <path id="Trazado_280244" data-name="Trazado 280244" d="M356.227,2585.533h2.221l39.232-22.679a2.415,2.415,0,0,1,2.172.09l23.653,13.657h2.079v1.459a.644.644,0,0,1-.376.688l-41.077,23.745c-.557.321-2.369.736-3.012.365l-24.36-15c-.426-.246-.6-.574-.506-.862-.026,0-.026-1.459-.026-1.459" transform="translate(11229 -10788.719)" fill="#0495bc"/>
      <path id="Trazado_280245" data-name="Trazado 280245" d="M384.4,2600.867l41.077-23.746c.556-.321.486-.882-.156-1.254l-25.2-14.549a2.416,2.416,0,0,0-2.172-.09l-41.077,23.746c-.557.321-.487.882.156,1.254l24.36,15c.643.371,2.455-.043,3.012-.365" transform="translate(11229 -10788.719)" fill="#94d6e3"/>
      <path id="Trazado_280246" data-name="Trazado 280246" d="M383.371,2598.965l37.844-21.878c.476-.275.416-.755-.134-1.073l-16.459-9.454a2.06,2.06,0,0,0-1.858-.077l-37.844,21.879c-.476.274-.416.754.133,1.073l16.46,9.454a2.066,2.066,0,0,0,1.858.076" transform="translate(11229 -10788.719)" fill="#b7e5e6"/>
      <path id="Trazado_280247" data-name="Trazado 280247" d="M381.723,2577.2l6.415-3.7-5.09-2.939-6.415,3.7Z" transform="translate(11229 -10788.719)" fill="#50bcdb"/>
      <path id="Trazado_280248" data-name="Trazado 280248" d="M388.911,2573.05l1.8-1.038c.527-.3.461-.835-.148-1.188l-2.885-1.666a2.294,2.294,0,0,0-2.058-.085l-1.8,1.038Z" transform="translate(11229 -10788.719)" fill="#50bcdb"/>
      <path id="Trazado_280249" data-name="Trazado 280249" d="M380.949,2577.647l-1.8,1.038a2.29,2.29,0,0,1-2.057-.085l-2.886-1.667c-.609-.351-.675-.883-.148-1.187l1.8-1.038Z" transform="translate(11229 -10788.719)" fill="#50bcdb"/>
      <path id="Trazado_280250" data-name="Trazado 280250" d="M380.32,2597.529l1.535.887a1.635,1.635,0,0,0,1.468.06l1.766-1.019c.376-.217.329-.6-.106-.847l-1.535-.887a1.632,1.632,0,0,0-1.468-.061l-1.766,1.02c-.376.217-.328.6.106.847" transform="translate(11229 -10788.719)" fill="#25a6d2"/>
      <path id="Trazado_280251" data-name="Trazado 280251" d="M383.843,2595.5l1.536.887a1.63,1.63,0,0,0,1.467.06l1.766-1.019c.376-.217.329-.6-.106-.847l-1.535-.887a1.63,1.63,0,0,0-1.467-.061l-1.766,1.02c-.377.217-.329.6.1.847" transform="translate(11229 -10788.719)" fill="#25a6d2"/>
      <path id="Trazado_280252" data-name="Trazado 280252" d="M387.365,2593.462l1.536.886a1.629,1.629,0,0,0,1.467.061l1.766-1.019c.376-.217.329-.6-.105-.847l-1.536-.887a1.63,1.63,0,0,0-1.467-.061l-1.767,1.02c-.376.217-.328.6.106.847" transform="translate(11229 -10788.719)" fill="#25a6d2"/>
      <path id="Trazado_280253" data-name="Trazado 280253" d="M390.888,2591.428l1.536.887a1.633,1.633,0,0,0,1.467.061l1.766-1.02c.376-.217.328-.6-.106-.847l-1.535-.887a1.632,1.632,0,0,0-1.468-.061l-1.765,1.02c-.377.217-.329.6.105.847" transform="translate(11229 -10788.719)" fill="#25a6d2"/>
      <path id="Trazado_280254" data-name="Trazado 280254" d="M394.41,2589.394l1.535.887a1.635,1.635,0,0,0,1.468.06l1.766-1.019c.376-.217.328-.6-.106-.847l-1.535-.887a1.632,1.632,0,0,0-1.468-.061l-1.765,1.02c-.377.217-.33.6.105.847" transform="translate(11229 -10788.719)" fill="#25a6d2"/>
      <path id="Trazado_280255" data-name="Trazado 280255" d="M397.933,2587.36l1.536.887a1.634,1.634,0,0,0,1.467.061l1.766-1.02c.376-.217.329-.6-.106-.847l-1.535-.887a1.63,1.63,0,0,0-1.467-.061l-1.766,1.02c-.376.217-.329.6.105.847" transform="translate(11229 -10788.719)" fill="#25a6d2"/>
      <path id="Trazado_280256" data-name="Trazado 280256" d="M401.455,2585.327l1.536.886a1.629,1.629,0,0,0,1.467.061l1.766-1.019c.376-.217.329-.6-.106-.847l-1.535-.887a1.632,1.632,0,0,0-1.468-.061l-1.765,1.02c-.377.217-.329.6.1.847" transform="translate(11229 -10788.719)" fill="#25a6d2"/>
      <path id="Trazado_280257" data-name="Trazado 280257" d="M404.978,2583.293l1.536.887a1.633,1.633,0,0,0,1.467.061l1.766-1.02c.376-.217.329-.6-.106-.847l-1.535-.887a1.632,1.632,0,0,0-1.468-.061l-1.765,1.02c-.377.217-.329.6.105.847" transform="translate(11229 -10788.719)" fill="#25a6d2"/>
      <path id="Trazado_280258" data-name="Trazado 280258" d="M408.5,2581.259l1.535.887a1.635,1.635,0,0,0,1.468.061l1.766-1.02c.376-.217.328-.6-.106-.847l-1.535-.887a1.632,1.632,0,0,0-1.468-.061l-1.765,1.02c-.377.217-.33.6.105.847" transform="translate(11229 -10788.719)" fill="#25a6d2"/>
      <path id="Trazado_280259" data-name="Trazado 280259" d="M412.023,2579.225l1.536.887a1.634,1.634,0,0,0,1.467.061l1.766-1.02c.376-.217.329-.6-.106-.847l-1.535-.887a1.633,1.633,0,0,0-1.468-.061l-1.765,1.02c-.377.217-.329.6.105.847" transform="translate(11229 -10788.719)" fill="#25a6d2"/>
      <path id="Trazado_280260" data-name="Trazado 280260" d="M415.546,2577.192l1.535.887a1.633,1.633,0,0,0,1.467.06l1.766-1.019c.376-.217.329-.6-.106-.847l-1.535-.887a1.63,1.63,0,0,0-1.467-.061l-1.766,1.02c-.377.217-.329.6.106.847" transform="translate(11229 -10788.719)" fill="#25a6d2"/>
      <path id="Trazado_280261" data-name="Trazado 280261" d="M376.736,2595.46l1.535.887a1.635,1.635,0,0,0,1.468.06l2.815-1.624c.376-.218.329-.6-.106-.848l-1.535-.886a1.632,1.632,0,0,0-1.468-.061l-2.814,1.625c-.377.217-.329.6.1.847" transform="translate(11229 -10788.719)" fill="#25a6d2"/>
      <path id="Trazado_280262" data-name="Trazado 280262" d="M381,2593l1.536.887a1.631,1.631,0,0,0,1.467.061l1.766-1.02c.376-.217.322-.592-.112-.843l-1.536-.887a1.618,1.618,0,0,0-1.461-.064l-1.765,1.019c-.376.217-.329.6.105.847" transform="translate(11229 -10788.719)" fill="#25a6d2"/>
      <path id="Trazado_280263" data-name="Trazado 280263" d="M384.125,2591.193l1.536.887a1.619,1.619,0,0,0,1.46.065l1.766-1.02c.376-.217.322-.593-.112-.843l-1.536-.887a1.616,1.616,0,0,0-1.46-.065l-1.766,1.02c-.376.217-.322.592.112.843" transform="translate(11229 -10788.719)" fill="#25a6d2"/>
      <path id="Trazado_280264" data-name="Trazado 280264" d="M387.24,2589.4l1.536.887a1.616,1.616,0,0,0,1.46.064l1.766-1.019c.376-.217.322-.593-.112-.843l-1.536-.887a1.616,1.616,0,0,0-1.46-.065l-1.766,1.02c-.376.217-.322.592.112.843" transform="translate(11229 -10788.719)" fill="#25a6d2"/>
      <path id="Trazado_280265" data-name="Trazado 280265" d="M390.354,2587.6l1.536.887a1.619,1.619,0,0,0,1.46.064l1.766-1.019c.376-.217.322-.593-.112-.843l-1.536-.887a1.616,1.616,0,0,0-1.46-.065l-1.766,1.02c-.376.217-.322.592.112.843" transform="translate(11229 -10788.719)" fill="#25a6d2"/>
      <path id="Trazado_280266" data-name="Trazado 280266" d="M393.468,2585.8l1.535.886a1.618,1.618,0,0,0,1.461.065l1.766-1.019c.376-.217.322-.593-.112-.843l-1.536-.887a1.618,1.618,0,0,0-1.461-.065l-1.765,1.02c-.377.217-.323.592.112.843" transform="translate(11229 -10788.719)" fill="#25a6d2"/>
      <path id="Trazado_280267" data-name="Trazado 280267" d="M396.582,2584l1.536.886a1.616,1.616,0,0,0,1.46.065l1.766-1.019c.376-.218.322-.593-.112-.843l-1.536-.887a1.616,1.616,0,0,0-1.46-.065l-1.766,1.02c-.376.217-.322.592.112.843" transform="translate(11229 -10788.719)" fill="#25a6d2"/>
      <path id="Trazado_280268" data-name="Trazado 280268" d="M399.7,2582.2l1.536.887a1.616,1.616,0,0,0,1.46.064l1.766-1.019c.376-.217.322-.593-.112-.843l-1.536-.887a1.616,1.616,0,0,0-1.46-.065l-1.766,1.02c-.376.217-.322.592.112.843" transform="translate(11229 -10788.719)" fill="#25a6d2"/>
      <path id="Trazado_280269" data-name="Trazado 280269" d="M402.81,2580.406l1.536.886a1.616,1.616,0,0,0,1.46.065l1.766-1.019c.376-.217.322-.593-.112-.843l-1.536-.887a1.616,1.616,0,0,0-1.46-.065l-1.766,1.02c-.376.217-.322.592.112.843" transform="translate(11229 -10788.719)" fill="#25a6d2"/>
      <path id="Trazado_280270" data-name="Trazado 280270" d="M405.925,2578.608l1.536.886a1.616,1.616,0,0,0,1.46.065l1.766-1.019c.376-.217.322-.593-.112-.843l-1.536-.887a1.618,1.618,0,0,0-1.461-.065l-1.765,1.02c-.376.217-.322.592.112.843" transform="translate(11229 -10788.719)" fill="#25a6d2"/>
      <path id="Trazado_280271" data-name="Trazado 280271" d="M409.039,2576.81l1.536.887a1.616,1.616,0,0,0,1.46.064l1.766-1.019c.376-.217.329-.6-.106-.847l-1.535-.887a1.632,1.632,0,0,0-1.468-.061l-1.765,1.02c-.376.217-.322.592.112.843" transform="translate(11229 -10788.719)" fill="#25a6d2"/>
      <path id="Trazado_280272" data-name="Trazado 280272" d="M378.115,2590.525l1.536.887a1.649,1.649,0,0,0,1.475.056l1.766-1.02c.376-.217.329-.6-.105-.847l-1.536-.887a1.633,1.633,0,0,0-1.467-.061l-1.766,1.02c-.376.217-.337.6.1.852" transform="translate(11229 -10788.719)" fill="#25a6d2"/>
      <path id="Trazado_280273" data-name="Trazado 280273" d="M381.213,2588.736l1.536.887a1.634,1.634,0,0,0,1.467.061l1.766-1.02c.376-.217.329-.6-.106-.847l-1.535-.887a1.633,1.633,0,0,0-1.468-.061l-1.765,1.02c-.376.217-.329.6.105.847" transform="translate(11229 -10788.719)" fill="#25a6d2"/>
      <path id="Trazado_280274" data-name="Trazado 280274" d="M384.3,2586.952l1.536.886a1.629,1.629,0,0,0,1.467.062l1.766-1.02c.376-.217.329-.6-.105-.847l-1.536-.887a1.632,1.632,0,0,0-1.468-.061l-1.765,1.02c-.376.217-.329.6.1.847" transform="translate(11229 -10788.719)" fill="#25a6d2"/>
      <path id="Trazado_280275" data-name="Trazado 280275" d="M387.394,2585.168l1.536.887a1.633,1.633,0,0,0,1.467.06l1.766-1.019c.376-.217.329-.6-.106-.847l-1.535-.887a1.632,1.632,0,0,0-1.468-.061l-1.765,1.02c-.377.217-.329.6.105.847" transform="translate(11229 -10788.719)" fill="#25a6d2"/>
      <path id="Trazado_280276" data-name="Trazado 280276" d="M390.484,2583.384l1.536.887a1.633,1.633,0,0,0,1.467.061l1.766-1.02c.376-.217.329-.6-.1-.847l-1.536-.887a1.632,1.632,0,0,0-1.468-.061l-1.765,1.02c-.377.217-.329.6.105.847" transform="translate(11229 -10788.719)" fill="#25a6d2"/>
      <path id="Trazado_280277" data-name="Trazado 280277" d="M393.574,2581.6l1.536.886a1.628,1.628,0,0,0,1.467.061l1.766-1.019c.376-.217.329-.6-.1-.847l-1.536-.887a1.633,1.633,0,0,0-1.468-.061l-1.765,1.02c-.376.217-.329.6.105.847" transform="translate(11229 -10788.719)" fill="#25a6d2"/>
      <path id="Trazado_280278" data-name="Trazado 280278" d="M396.664,2579.816l1.536.886a1.63,1.63,0,0,0,1.467.061l1.766-1.019c.376-.218.329-.6-.105-.847l-1.536-.887a1.63,1.63,0,0,0-1.467-.061l-1.766,1.019c-.376.218-.329.6.105.848" transform="translate(11229 -10788.719)" fill="#25a6d2"/>
      <path id="Trazado_280279" data-name="Trazado 280279" d="M399.755,2578.031l1.536.887a1.633,1.633,0,0,0,1.467.061l1.766-1.02c.376-.217.329-.6-.1-.847l-1.536-.887a1.632,1.632,0,0,0-1.468-.061l-1.765,1.02c-.377.217-.329.6.105.847" transform="translate(11229 -10788.719)" fill="#25a6d2"/>
      <path id="Trazado_280280" data-name="Trazado 280280" d="M376.084,2587.559l1.536.887a1.633,1.633,0,0,0,1.467.061l1.766-1.02c.376-.217.329-.6-.105-.847l-1.536-.887a1.633,1.633,0,0,0-1.468-.061l-1.765,1.02c-.376.217-.329.6.105.847" transform="translate(11229 -10788.719)" fill="#25a6d2"/>
      <path id="Trazado_280281" data-name="Trazado 280281" d="M379.174,2585.775l1.536.886a1.629,1.629,0,0,0,1.467.061l1.766-1.019c.376-.217.329-.6-.1-.847l-1.536-.887a1.63,1.63,0,0,0-1.467-.061l-1.766,1.02c-.376.217-.329.6.105.847" transform="translate(11229 -10788.719)" fill="#25a6d2"/>
      <path id="Trazado_280282" data-name="Trazado 280282" d="M382.265,2583.99l1.536.888a1.63,1.63,0,0,0,1.467.061l1.766-1.02c.376-.217.329-.6-.106-.847l-1.535-.887a1.629,1.629,0,0,0-1.468-.06l-1.765,1.019c-.376.217-.329.6.105.846" transform="translate(11229 -10788.719)" fill="#25a6d2"/>
      <path id="Trazado_280283" data-name="Trazado 280283" d="M365.925,2589.286l1.536.887a1.633,1.633,0,0,0,1.467.06l1.766-1.019c.376-.217.329-.6-.106-.847l-1.535-.887a1.632,1.632,0,0,0-1.468-.061l-1.765,1.02c-.376.217-.329.6.1.847" transform="translate(11229 -10788.719)" fill="#25a6d2"/>
      <path id="Trazado_280284" data-name="Trazado 280284" d="M369.015,2587.5l1.536.887a1.633,1.633,0,0,0,1.467.061l1.766-1.02c.376-.217.329-.6-.105-.847l-1.536-.887a1.632,1.632,0,0,0-1.468-.061l-1.765,1.02c-.376.217-.329.6.105.847" transform="translate(11229 -10788.719)" fill="#25a6d2"/>
      <path id="Trazado_280285" data-name="Trazado 280285" d="M372.106,2585.717l1.536.887a1.633,1.633,0,0,0,1.467.06l1.766-1.018c.376-.218.329-.6-.105-.848l-1.536-.887a1.633,1.633,0,0,0-1.467-.061L372,2584.87c-.377.218-.329.6.1.847" transform="translate(11229 -10788.719)" fill="#25a6d2"/>
      <path id="Trazado_280286" data-name="Trazado 280286" d="M395.029,2572.483l1.536.886a1.626,1.626,0,0,0,1.467.061l1.766-1.019c.376-.217.328-.6-.106-.847l-1.535-.887a1.632,1.632,0,0,0-1.468-.061l-1.766,1.02c-.376.217-.328.6.106.847" transform="translate(11229 -10788.719)" fill="#25a6d2"/>
      <path id="Trazado_280287" data-name="Trazado 280287" d="M398.119,2570.7l1.536.886a1.63,1.63,0,0,0,1.467.061l1.766-1.019c.376-.217.329-.6-.105-.847l-1.536-.887a1.63,1.63,0,0,0-1.467-.061l-1.766,1.02c-.376.217-.329.6.1.847" transform="translate(11229 -10788.719)" fill="#25a6d2"/>
      <path id="Trazado_280288" data-name="Trazado 280288" d="M401.209,2568.914l1.536.888a1.636,1.636,0,0,0,1.467.061l1.766-1.02c.376-.218.329-.6-.105-.848l-1.536-.886a1.63,1.63,0,0,0-1.467-.062l-1.766,1.021c-.376.217-.329.6.105.846" transform="translate(11229 -10788.719)" fill="#25a6d2"/>
      <path id="Trazado_280289" data-name="Trazado 280289" d="M385.355,2582.207l1.536.887a1.63,1.63,0,0,0,1.467.06l1.766-1.019c.376-.217.329-.6-.106-.847l-1.535-.887a1.632,1.632,0,0,0-1.468-.061l-1.765,1.02c-.377.217-.329.6.105.847" transform="translate(11229 -10788.719)" fill="#25a6d2"/>
      <path id="Trazado_280290" data-name="Trazado 280290" d="M388.445,2580.422l1.535.887a1.633,1.633,0,0,0,1.468.061l1.766-1.019c.376-.217.329-.6-.106-.847l-1.535-.887a1.633,1.633,0,0,0-1.468-.061l-1.765,1.02c-.377.217-.329.6.105.846" transform="translate(11229 -10788.719)" fill="#25a6d2"/>
      <path id="Trazado_280291" data-name="Trazado 280291" d="M391.535,2578.638l1.536.887a1.63,1.63,0,0,0,1.467.061l1.766-1.02c.376-.217.329-.6-.106-.847l-1.535-.887a1.635,1.635,0,0,0-1.468-.061l-1.765,1.02c-.376.217-.329.6.105.847" transform="translate(11229 -10788.719)" fill="#25a6d2"/>
      <path id="Trazado_280292" data-name="Trazado 280292" d="M394.625,2576.854l1.536.887a1.63,1.63,0,0,0,1.467.06l1.766-1.019c.376-.217.329-.6-.106-.847l-1.535-.887a1.63,1.63,0,0,0-1.467-.061l-1.766,1.02c-.376.217-.329.6.105.847" transform="translate(11229 -10788.719)" fill="#25a6d2"/>
      <path id="Trazado_280293" data-name="Trazado 280293" d="M397.716,2575.07l1.535.887a1.636,1.636,0,0,0,1.468.06l1.766-1.019c.376-.217.328-.6-.106-.847l-1.535-.887a1.633,1.633,0,0,0-1.468-.061l-1.766,1.02c-.376.217-.328.6.106.847" transform="translate(11229 -10788.719)" fill="#25a6d2"/>
      <path id="Trazado_280294" data-name="Trazado 280294" d="M402.845,2576.247l1.536.887a1.63,1.63,0,0,0,1.467.06l1.766-1.019c.376-.217.32-.592-.114-.842l-1.536-.887a1.615,1.615,0,0,0-1.459-.066l-1.765,1.02c-.377.217-.329.6.105.847" transform="translate(11229 -10788.719)" fill="#25a6d2"/>
      <path id="Trazado_280295" data-name="Trazado 280295" d="M411.961,2575.122l1.536.888a1.636,1.636,0,0,0,1.467.061l1.766-1.02c.376-.218.329-.6-.106-.848l-1.535-.886a1.633,1.633,0,0,0-1.468-.062l-1.765,1.021c-.377.217-.329.6.105.846" transform="translate(11229 -10788.719)" fill="#25a6d2"/>
      <path id="Trazado_280296" data-name="Trazado 280296" d="M373.152,2593.391l1.536.887a1.63,1.63,0,0,0,1.467.06l3.592-2.074c.377-.217.338-.6-.1-.852l-1.536-.886a1.644,1.644,0,0,0-1.476-.056l-3.592,2.074c-.377.217-.329.6.105.847" transform="translate(11229 -10788.719)" fill="#25a6d2"/>
      <path id="Trazado_280297" data-name="Trazado 280297" d="M401,2573.174l1.536.886a1.627,1.627,0,0,0,1.467.061l5.56-3.209c.376-.218.329-.6-.106-.847l-1.535-.887a1.632,1.632,0,0,0-1.468-.061l-5.559,3.21c-.376.217-.329.6.1.847" transform="translate(11229 -10788.719)" fill="#25a6d2"/>
      <path id="Trazado_280298" data-name="Trazado 280298" d="M375.411,2583.809l1.536.887a1.633,1.633,0,0,0,1.467.061l18.013-10.4c.376-.217.329-.6-.106-.847l-1.535-.887a1.632,1.632,0,0,0-1.468-.061l-18.012,10.4c-.376.217-.329.6.105.847" transform="translate(11229 -10788.719)" fill="#25a6d2"/>
      <path id="Trazado_280299" data-name="Trazado 280299" d="M369.568,2591.321l1.536.887a1.633,1.633,0,0,0,1.467.06l4.733-2.732c.376-.217.329-.6-.1-.848l-1.536-.886a1.633,1.633,0,0,0-1.467-.061l-4.733,2.733c-.376.218-.329.6.1.847" transform="translate(11229 -10788.719)" fill="#25a6d2"/>
      <path id="Trazado_280300" data-name="Trazado 280300" d="M405.964,2574.446l1.536.887a1.617,1.617,0,0,0,1.459.065l4.187-2.417c.376-.217.329-.6-.106-.847l-1.535-.887a1.632,1.632,0,0,0-1.468-.061l-4.187,2.418c-.376.217-.32.591.114.842" transform="translate(11229 -10788.719)" fill="#25a6d2"/>
      <path id="Trazado_280301" data-name="Trazado 280301" d="M382.005,2595.547l-1.738,1c-.278.16-.243.441.078.626l1.565.9a1.2,1.2,0,0,0,1.085.045l1.738-1c.278-.161.243-.441-.078-.627l-1.565-.9a1.205,1.205,0,0,0-1.085-.045" transform="translate(11229 -10788.719)" fill="#94d6e3"/>
      <path id="Trazado_280302" data-name="Trazado 280302" d="M385.527,2593.514l-1.738,1c-.278.16-.243.44.078.626l1.565.9a1.2,1.2,0,0,0,1.085.045l1.738-1c.278-.161.243-.441-.078-.626l-1.565-.9a1.206,1.206,0,0,0-1.085-.045" transform="translate(11229 -10788.719)" fill="#94d6e3"/>
      <path id="Trazado_280303" data-name="Trazado 280303" d="M389.05,2591.48l-1.738,1c-.278.16-.243.44.078.626l1.565.9a1.2,1.2,0,0,0,1.085.045l1.738-1c.278-.161.243-.441-.078-.627l-1.565-.9a1.207,1.207,0,0,0-1.085-.045" transform="translate(11229 -10788.719)" fill="#94d6e3"/>
      <path id="Trazado_280304" data-name="Trazado 280304" d="M392.572,2589.446l-1.738,1c-.278.16-.243.44.078.626l1.565.9a1.208,1.208,0,0,0,1.085.045l1.738-1c.278-.161.243-.441-.078-.626l-1.565-.9a1.208,1.208,0,0,0-1.085-.045" transform="translate(11229 -10788.719)" fill="#94d6e3"/>
      <path id="Trazado_280305" data-name="Trazado 280305" d="M396.1,2587.413l-1.738,1c-.278.161-.243.441.078.626l1.565.9a1.206,1.206,0,0,0,1.085.045l1.738-1c.278-.161.243-.441-.078-.627l-1.565-.9a1.2,1.2,0,0,0-1.085-.045" transform="translate(11229 -10788.719)" fill="#94d6e3"/>
      <path id="Trazado_280306" data-name="Trazado 280306" d="M399.618,2585.379l-1.738,1c-.278.161-.243.441.078.627l1.565.9a1.2,1.2,0,0,0,1.084.045l1.739-1c.278-.161.243-.441-.078-.626l-1.566-.9a1.2,1.2,0,0,0-1.084-.045" transform="translate(11229 -10788.719)" fill="#94d6e3"/>
      <path id="Trazado_280307" data-name="Trazado 280307" d="M403.14,2583.345l-1.738,1c-.278.161-.243.441.078.626l1.565.9a1.2,1.2,0,0,0,1.085.045l1.738-1c.278-.161.243-.441-.078-.627l-1.565-.9a1.2,1.2,0,0,0-1.085-.045" transform="translate(11229 -10788.719)" fill="#94d6e3"/>
      <path id="Trazado_280308" data-name="Trazado 280308" d="M406.663,2581.311l-1.738,1c-.278.16-.243.44.077.626l1.566.9a1.2,1.2,0,0,0,1.084.045l1.739-1c.277-.161.243-.441-.078-.626l-1.566-.9a1.206,1.206,0,0,0-1.084-.045" transform="translate(11229 -10788.719)" fill="#94d6e3"/>
      <path id="Trazado_280309" data-name="Trazado 280309" d="M410.185,2579.277l-1.738,1c-.278.16-.243.441.078.626l1.565.9a1.2,1.2,0,0,0,1.085.045l1.738-1c.278-.16.243-.441-.078-.626l-1.565-.9a1.208,1.208,0,0,0-1.085-.045" transform="translate(11229 -10788.719)" fill="#94d6e3"/>
      <path id="Trazado_280310" data-name="Trazado 280310" d="M413.708,2577.244l-1.738,1c-.278.161-.243.441.078.627l1.565.9a1.2,1.2,0,0,0,1.085.045l1.738-1c.278-.161.243-.441-.078-.626l-1.565-.9a1.2,1.2,0,0,0-1.085-.045" transform="translate(11229 -10788.719)" fill="#94d6e3"/>
      <path id="Trazado_280311" data-name="Trazado 280311" d="M417.23,2575.21l-1.738,1c-.278.161-.243.441.078.627l1.565.9a1.2,1.2,0,0,0,1.085.045l1.738-1c.278-.161.243-.441-.078-.627l-1.566-.9a1.2,1.2,0,0,0-1.084-.045" transform="translate(11229 -10788.719)" fill="#94d6e3"/>
      <path id="Trazado_280312" data-name="Trazado 280312" d="M379.47,2592.872l-2.787,1.609c-.278.161-.243.441.078.627l1.565.9a1.205,1.205,0,0,0,1.085.045l2.787-1.609c.278-.16.243-.441-.078-.626l-1.566-.9a1.206,1.206,0,0,0-1.084-.045" transform="translate(11229 -10788.719)" fill="#94d6e3"/>
      <path id="Trazado_280313" data-name="Trazado 280313" d="M382.689,2591.014l-1.738,1c-.278.161-.243.441.078.627l1.565.9a1.2,1.2,0,0,0,1.085.045l1.738-1c.278-.161.243-.441-.078-.626l-1.565-.9a1.2,1.2,0,0,0-1.085-.045" transform="translate(11229 -10788.719)" fill="#94d6e3"/>
      <path id="Trazado_280314" data-name="Trazado 280314" d="M385.8,2589.215l-1.738,1c-.278.161-.243.442.078.626l1.565.9a1.2,1.2,0,0,0,1.084.044l1.739-1c.278-.161.243-.442-.078-.626l-1.566-.905a1.212,1.212,0,0,0-1.084-.045" transform="translate(11229 -10788.719)" fill="#94d6e3"/>
      <path id="Trazado_280315" data-name="Trazado 280315" d="M388.917,2587.418l-1.738,1c-.278.16-.243.44.078.626l1.565.9a1.2,1.2,0,0,0,1.085.045l1.738-1c.278-.161.243-.441-.078-.626l-1.565-.9a1.207,1.207,0,0,0-1.085-.045" transform="translate(11229 -10788.719)" fill="#94d6e3"/>
      <path id="Trazado_280316" data-name="Trazado 280316" d="M392.032,2585.62l-1.738,1c-.278.161-.243.441.078.627l1.565.9a1.2,1.2,0,0,0,1.085.045l1.738-1c.277-.161.243-.441-.078-.626l-1.566-.9a1.2,1.2,0,0,0-1.084-.045" transform="translate(11229 -10788.719)" fill="#94d6e3"/>
      <path id="Trazado_280317" data-name="Trazado 280317" d="M395.146,2583.822l-1.738,1c-.278.161-.243.441.078.627l1.565.9a1.2,1.2,0,0,0,1.085.045l1.738-1c.278-.161.243-.441-.078-.627l-1.565-.9a1.205,1.205,0,0,0-1.085-.045" transform="translate(11229 -10788.719)" fill="#94d6e3"/>
      <path id="Trazado_280318" data-name="Trazado 280318" d="M398.26,2582.024l-1.738,1c-.278.16-.243.441.078.626l1.565.9a1.2,1.2,0,0,0,1.085.045l1.738-1c.278-.161.243-.441-.078-.626l-1.565-.9a1.206,1.206,0,0,0-1.085-.045" transform="translate(11229 -10788.719)" fill="#94d6e3"/>
      <path id="Trazado_280319" data-name="Trazado 280319" d="M401.374,2580.226l-1.738,1c-.278.161-.243.442.078.627l1.565.9a1.2,1.2,0,0,0,1.085.045l1.738-1c.278-.161.243-.441-.078-.626l-1.565-.9a1.208,1.208,0,0,0-1.085-.045" transform="translate(11229 -10788.719)" fill="#94d6e3"/>
      <path id="Trazado_280320" data-name="Trazado 280320" d="M404.488,2578.428l-1.738,1c-.278.161-.243.441.078.627l1.565.9a1.2,1.2,0,0,0,1.085.045l1.738-1c.278-.161.243-.441-.078-.626l-1.565-.9a1.207,1.207,0,0,0-1.085-.045" transform="translate(11229 -10788.719)" fill="#94d6e3"/>
      <path id="Trazado_280321" data-name="Trazado 280321" d="M407.6,2576.63l-1.738,1c-.278.161-.243.441.078.626l1.565.9a1.2,1.2,0,0,0,1.085.045l1.738-1c.278-.161.243-.441-.078-.626l-1.566-.9a1.2,1.2,0,0,0-1.084-.045" transform="translate(11229 -10788.719)" fill="#94d6e3"/>
      <path id="Trazado_280322" data-name="Trazado 280322" d="M410.717,2574.832l-1.738,1c-.278.16-.243.44.078.626l1.565.9a1.2,1.2,0,0,0,1.084.045l1.739-1c.278-.161.243-.441-.078-.626l-1.566-.9a1.2,1.2,0,0,0-1.084-.045" transform="translate(11229 -10788.719)" fill="#94d6e3"/>
      <path id="Trazado_280323" data-name="Trazado 280323" d="M379.808,2588.538l-1.738,1c-.278.161-.243.442.078.626l1.565.9a1.2,1.2,0,0,0,1.085.044l1.738-1c.277-.161.243-.442-.078-.627l-1.566-.9a1.209,1.209,0,0,0-1.084-.045" transform="translate(11229 -10788.719)" fill="#94d6e3"/>
      <path id="Trazado_280324" data-name="Trazado 280324" d="M382.9,2586.754l-1.738,1c-.278.16-.243.44.078.626l1.565.9a1.207,1.207,0,0,0,1.085.046l1.738-1c.278-.161.243-.441-.078-.626l-1.566-.9a1.2,1.2,0,0,0-1.084-.045" transform="translate(11229 -10788.719)" fill="#94d6e3"/>
      <path id="Trazado_280325" data-name="Trazado 280325" d="M385.988,2584.97l-1.738,1c-.278.16-.243.44.078.626l1.565.9a1.2,1.2,0,0,0,1.085.045l1.738-1c.278-.161.243-.441-.078-.626l-1.565-.9a1.2,1.2,0,0,0-1.085-.045" transform="translate(11229 -10788.719)" fill="#94d6e3"/>
      <path id="Trazado_280326" data-name="Trazado 280326" d="M389.078,2583.186l-1.738,1c-.278.161-.243.441.078.626l1.565.9a1.2,1.2,0,0,0,1.085.045l1.738-1c.278-.161.243-.441-.078-.627l-1.565-.9a1.2,1.2,0,0,0-1.085-.045" transform="translate(11229 -10788.719)" fill="#94d6e3"/>
      <path id="Trazado_280327" data-name="Trazado 280327" d="M392.169,2581.4l-1.738,1c-.278.16-.243.44.078.626l1.565.9a1.2,1.2,0,0,0,1.085.045l1.738-1c.278-.16.243-.441-.078-.626l-1.565-.9a1.208,1.208,0,0,0-1.085-.045" transform="translate(11229 -10788.719)" fill="#94d6e3"/>
      <path id="Trazado_280328" data-name="Trazado 280328" d="M395.259,2579.618l-1.738,1c-.278.161-.243.441.078.627l1.565.9a1.2,1.2,0,0,0,1.085.045l1.738-1c.278-.161.243-.441-.078-.626l-1.566-.9a1.2,1.2,0,0,0-1.084-.045" transform="translate(11229 -10788.719)" fill="#94d6e3"/>
      <path id="Trazado_280329" data-name="Trazado 280329" d="M398.349,2577.834l-1.738,1c-.278.16-.243.44.078.626l1.565.9a1.2,1.2,0,0,0,1.085.045l1.738-1c.278-.161.243-.441-.078-.626l-1.565-.9a1.207,1.207,0,0,0-1.085-.045" transform="translate(11229 -10788.719)" fill="#94d6e3"/>
      <path id="Trazado_280330" data-name="Trazado 280330" d="M401.439,2576.05l-1.738,1c-.278.161-.243.441.078.627l1.565.9a1.2,1.2,0,0,0,1.084.045l1.739-1c.278-.161.243-.441-.078-.626l-1.565-.9a1.2,1.2,0,0,0-1.085-.045" transform="translate(11229 -10788.719)" fill="#94d6e3"/>
      <path id="Trazado_280331" data-name="Trazado 280331" d="M377.769,2585.577l-1.738,1c-.278.16-.243.44.078.626l1.565.9a1.2,1.2,0,0,0,1.085.045l1.738-1c.278-.16.243-.441-.078-.626l-1.565-.9a1.209,1.209,0,0,0-1.085-.045" transform="translate(11229 -10788.719)" fill="#94d6e3"/>
      <path id="Trazado_280332" data-name="Trazado 280332" d="M380.859,2583.793l-1.738,1c-.278.16-.243.44.078.626l1.565.9a1.2,1.2,0,0,0,1.084.045l1.739-1c.278-.161.243-.441-.078-.626l-1.565-.9a1.207,1.207,0,0,0-1.085-.045" transform="translate(11229 -10788.719)" fill="#94d6e3"/>
      <path id="Trazado_280333" data-name="Trazado 280333" d="M383.949,2582.009l-1.738,1c-.278.161-.243.441.078.627l1.565.9a1.2,1.2,0,0,0,1.085.045l1.738-1c.278-.161.243-.441-.078-.626l-1.565-.9a1.2,1.2,0,0,0-1.085-.045" transform="translate(11229 -10788.719)" fill="#94d6e3"/>
      <path id="Trazado_280334" data-name="Trazado 280334" d="M367.61,2587.3l-1.738,1c-.278.16-.243.44.078.626l1.565.9a1.2,1.2,0,0,0,1.085.045l1.738-1c.278-.161.243-.441-.078-.626l-1.566-.9a1.2,1.2,0,0,0-1.084-.045" transform="translate(11229 -10788.719)" fill="#94d6e3"/>
      <path id="Trazado_280335" data-name="Trazado 280335" d="M370.7,2585.52l-1.738,1c-.278.161-.243.441.078.627l1.565.9a1.2,1.2,0,0,0,1.085.045l1.738-1c.278-.161.243-.441-.078-.626l-1.565-.9a1.2,1.2,0,0,0-1.085-.045" transform="translate(11229 -10788.719)" fill="#94d6e3"/>
      <path id="Trazado_280336" data-name="Trazado 280336" d="M373.79,2583.736l-1.738,1c-.278.161-.243.441.078.626l1.565.9a1.2,1.2,0,0,0,1.085.045l1.738-1c.278-.161.243-.441-.078-.626l-1.565-.9a1.2,1.2,0,0,0-1.085-.045" transform="translate(11229 -10788.719)" fill="#94d6e3"/>
      <path id="Trazado_280337" data-name="Trazado 280337" d="M396.713,2570.5l-1.738,1c-.278.16-.243.44.078.626l1.565.9a1.2,1.2,0,0,0,1.085.045l1.738-1c.278-.161.243-.441-.078-.626l-1.566-.9a1.2,1.2,0,0,0-1.084-.045" transform="translate(11229 -10788.719)" fill="#94d6e3"/>
      <path id="Trazado_280338" data-name="Trazado 280338" d="M399.8,2568.717l-1.738,1c-.278.161-.243.441.078.627l1.565.9a1.2,1.2,0,0,0,1.085.045l1.738-1c.278-.161.243-.441-.078-.626l-1.565-.9a1.205,1.205,0,0,0-1.085-.045" transform="translate(11229 -10788.719)" fill="#94d6e3"/>
      <path id="Trazado_280339" data-name="Trazado 280339" d="M402.894,2566.933l-1.738,1c-.278.16-.243.44.078.626l1.565.9a1.2,1.2,0,0,0,1.085.045l1.738-1c.278-.161.243-.441-.078-.626l-1.565-.9a1.208,1.208,0,0,0-1.085-.045" transform="translate(11229 -10788.719)" fill="#94d6e3"/>
      <path id="Trazado_280340" data-name="Trazado 280340" d="M387.039,2580.225l-1.738,1c-.278.161-.243.441.078.627l1.565.9a1.2,1.2,0,0,0,1.085.045l1.738-1c.278-.161.243-.441-.078-.626l-1.565-.9a1.208,1.208,0,0,0-1.085-.045" transform="translate(11229 -10788.719)" fill="#94d6e3"/>
      <path id="Trazado_280341" data-name="Trazado 280341" d="M390.13,2578.441l-1.738,1c-.278.16-.243.441.078.626l1.565.9a1.2,1.2,0,0,0,1.084.045l1.739-1c.278-.16.243-.441-.078-.627l-1.566-.9a1.2,1.2,0,0,0-1.084-.045" transform="translate(11229 -10788.719)" fill="#94d6e3"/>
      <path id="Trazado_280342" data-name="Trazado 280342" d="M393.22,2576.656l-1.738,1c-.278.161-.243.441.078.626l1.565.9a1.2,1.2,0,0,0,1.085.044l1.738-1c.278-.161.243-.441-.078-.626l-1.565-.9a1.207,1.207,0,0,0-1.085-.046" transform="translate(11229 -10788.719)" fill="#94d6e3"/>
      <path id="Trazado_280343" data-name="Trazado 280343" d="M396.31,2574.872l-1.738,1c-.278.16-.243.44.078.626l1.565.9a1.2,1.2,0,0,0,1.085.045l1.738-1c.278-.161.243-.441-.078-.626l-1.565-.9a1.205,1.205,0,0,0-1.085-.045" transform="translate(11229 -10788.719)" fill="#94d6e3"/>
      <path id="Trazado_280344" data-name="Trazado 280344" d="M399.4,2573.088l-1.738,1c-.278.161-.243.441.078.626l1.565.9a1.2,1.2,0,0,0,1.085.045l1.738-1c.278-.161.243-.441-.078-.626l-1.565-.9a1.2,1.2,0,0,0-1.085-.045" transform="translate(11229 -10788.719)" fill="#94d6e3"/>
      <path id="Trazado_280345" data-name="Trazado 280345" d="M404.53,2574.265l-1.738,1c-.278.161-.243.441.078.627l1.565.9a1.2,1.2,0,0,0,1.084.045l1.739-1c.278-.16.243-.441-.078-.626l-1.566-.9a1.207,1.207,0,0,0-1.084-.045" transform="translate(11229 -10788.719)" fill="#94d6e3"/>
      <path id="Trazado_280346" data-name="Trazado 280346" d="M413.646,2573.141l-1.738,1c-.278.161-.243.441.078.627l1.565.9a1.2,1.2,0,0,0,1.085.045l1.738-1c.278-.161.243-.441-.078-.626l-1.565-.9a1.2,1.2,0,0,0-1.085-.045" transform="translate(11229 -10788.719)" fill="#94d6e3"/>
      <path id="Trazado_280347" data-name="Trazado 280347" d="M376.663,2590.354l-3.565,2.058c-.278.161-.243.441.078.626l1.565.9a1.206,1.206,0,0,0,1.085.045l3.565-2.058c.278-.16.243-.441-.078-.627l-1.565-.9a1.207,1.207,0,0,0-1.085-.045" transform="translate(11229 -10788.719)" fill="#94d6e3"/>
      <path id="Trazado_280348" data-name="Trazado 280348" d="M406.478,2569l-5.533,3.194c-.278.16-.243.441.078.626l1.566.9a1.208,1.208,0,0,0,1.084.045l5.533-3.194c.277-.161.242-.441-.078-.626l-1.565-.9a1.206,1.206,0,0,0-1.085-.045" transform="translate(11229 -10788.719)" fill="#94d6e3"/>
      <path id="Trazado_280349" data-name="Trazado 280349" d="M393.343,2572.447l-17.985,10.384c-.278.16-.243.44.078.626l1.565.9a1.206,1.206,0,0,0,1.085.044l17.985-10.383c.278-.161.243-.441-.078-.626l-1.566-.9a1.2,1.2,0,0,0-1.084-.045" transform="translate(11229 -10788.719)" fill="#94d6e3"/>
      <path id="Trazado_280350" data-name="Trazado 280350" d="M374.22,2587.626l-4.7,2.717c-.279.16-.244.44.077.626l1.566.9a1.207,1.207,0,0,0,1.084.045l4.706-2.717c.278-.161.243-.441-.078-.626l-1.565-.9a1.207,1.207,0,0,0-1.085-.045" transform="translate(11229 -10788.719)" fill="#94d6e3"/>
      <path id="Trazado_280351" data-name="Trazado 280351" d="M410.062,2571.071l-4.159,2.4c-.279.161-.243.441.077.627l1.566.9a1.2,1.2,0,0,0,1.084.045l4.16-2.4c.278-.161.243-.441-.078-.625l-1.565-.905a1.205,1.205,0,0,0-1.085-.045" transform="translate(11229 -10788.719)" fill="#94d6e3"/>
      <path id="Trazado_280352" data-name="Trazado 280352" d="M385.47,2601.526l40.915-24.7a1.563,1.563,0,0,0,.711-1.225l.872-25.194c0-.451-1.19-1.04-1.583-.814l-41.545,24.053a1.565,1.565,0,0,0-.71,1.226v25.6c0,.45.947,1.277,1.34,1.05" transform="translate(11229 -10788.719)" fill="#94d6e3"/>
      <path id="Trazado_280353" data-name="Trazado 280353" d="M385.725,2601.433l41.545-24.052a1.567,1.567,0,0,0,.711-1.226v-25.6c0-.451-.318-.632-.711-.406L385.725,2574.2a1.565,1.565,0,0,0-.711,1.225v25.6c0,.45.318.632.711.405" transform="translate(11229 -10788.719)" fill="#50bcdb"/>
    </g>
  </g>
</svg>
