<svg id="Grupo_261806" data-name="Grupo 261806" xmlns="http://www.w3.org/2000/svg" xmlns:xlink="http://www.w3.org/1999/xlink" width="70.729" height="70.612" viewBox="0 0 70.729 70.612">
  <defs>
    <clipPath id="clip-path">
      <rect id="Rect치ngulo_325450" data-name="Rect치ngulo 325450" width="70.729" height="70.612" fill="none"/>
    </clipPath>
  </defs>
  <g id="Grupo_261644" data-name="Grupo 261644" clip-path="url(#clip-path)">
    <path id="Trazado_279361" data-name="Trazado 279361" d="M63.877,31.908c0,2.5-.01,4.927.018,7.354a.872.872,0,0,0,.407.589,3.784,3.784,0,0,1,1.83,3.559c-.008,3.489-.025,6.978.005,10.467a9.344,9.344,0,0,1-2.22,6.243c-.721.869-1.44,1.74-2.189,2.645a12.035,12.035,0,0,1,2.007,7.846H43.424A11.473,11.473,0,0,1,45.28,62.75c-.748-.954-1.508-1.9-2.236-2.864a1.517,1.517,0,0,0-1.364-.626c-12.636.018-25.271-.022-37.907.046A3.663,3.663,0,0,1,0,55.542Q.078,29.78.02,4.017a4.05,4.05,0,0,1,.8-2.81A3.687,3.687,0,0,1,3.836,0Q14.622,0,25.407,0H59.884A3.63,3.63,0,0,1,63.4,1.926a2.877,2.877,0,0,1,.3,1.168c.043.9.014,1.8.014,2.706,0,1.2,0,1.2,1.155,1.2a15.539,15.539,0,0,0,2.254-.018,3.39,3.39,0,0,1,3.582,3.448q.042,8.978,0,17.957a3.531,3.531,0,0,1-3.618,3.528c-1.044-.045-2.091-.008-3.209-.008m-11.347.182q0,2.253.006,4.506a1.911,1.911,0,0,0,.529.357c2.645.665,5.3,1.311,7.945,1.961l.522-.328V31.926c-2.982,0-5.908,0-8.835.007-.056,0-.112.1-.167.158M13.9,4.526h6.487c0,.989-.005,1.978.008,2.967.025,1.853-.357,1.661,1.752,1.682.536.005.728-.192.719-.743-.021-1.285.022-2.572.039-3.858h6.709V9.148c2.306,0,4.409.016,6.51-.02a1.035,1.035,0,0,0,.735-.45,3.538,3.538,0,0,1,3.328-1.838c2.855.018,5.71.009,8.565,0q6.31-.011,12.62-.033l.155-.165c.01-.841.025-1.682.027-2.523,0-1.549-.268-1.819-1.818-1.819H4.083a1.711,1.711,0,0,0-.713.023c-.369.19-.97.468-.98.729-.081,2.026-.045,4.057-.045,6.116.531,0,.953-.029,1.369.006.688.059.957-.17.924-.913-.053-1.227.015-2.46.032-3.69h6.708c.017.806.047,1.611.049,2.417.007,2.173,0,2.173,2.131,1.976.044,0,.082-.071.152-.135,0-.72-.024-1.467.007-2.212.029-.7.117-1.4.179-2.094M59.941,61.332a30.754,30.754,0,0,0,2.793-3.521,15.689,15.689,0,0,0,1.1-3.346q0-5.771,0-11.542a1.738,1.738,0,0,0-.03-.335c-.279-.975-1.224-.793-1.9-1.085-.11.241-.314.481-.316.724-.029,3-.028,6-.035,9l-2.273-.007L59.236,40.92l-2.017-.561-.119-.2-.059.243c0,3.355,0,6.71-.032,10.064,0,.3-.26.836-.44.855a10.743,10.743,0,0,1-1.892-.1l.007-.177q0-5.6,0-11.191l-.176-.155-1.8-.4-.163-.1-.024.294q-.028,5.77-.055,11.54l-.134.165-2.152.3V50.461q0-10.639-.01-21.277A2.1,2.1,0,0,0,49.927,28a1.6,1.6,0,0,0-1.062-.571.744.744,0,0,0-.869.861c-.029.355-.082.71-.083,1.065q-.009,10.937-.006,21.875l-2.264.237c0-1.705-.039-3.261.01-4.814.063-2.022-1.154-4.152-3.324-4.3a6.643,6.643,0,0,0-1.2.129,3.954,3.954,0,0,0,.205,1.1c1.131,2.223,2.185,4.445,2.015,7.053a30.12,30.12,0,0,0,.017,4.143A5.41,5.41,0,0,0,44,57.18c.9,1.446,2,2.771,3.036,4.129a.762.762,0,0,0,.544.212q6.083,0,12.166-.031l.194-.158M41.047,55.185l-.04-5.789a6.657,6.657,0,0,0-1.272-3.6l-.206-.158c-.209-.012-.418-.035-.627-.035q-17.879,0-35.758,0c-.209,0-.418.025-.627.038l-.15.159q-.017,4.915-.031,9.83c0,1.085.283,1.358,1.374,1.358q15.744,0,31.488,0c1.984,0,3.969-.016,5.953-.025l.159-.147-.261-1.631m-1.34-25.63c1.829.022,3.657.048,5.486.057.091,0,.182-.15.273-.231a7.457,7.457,0,0,1,.217-1.653c.309-.852.771-1.646,0-2.494-.093-.1-.034-.349-.034-.529,0-3.544-.007-7.088.009-10.632a2.312,2.312,0,0,1,.224-1.017c.868-1.683,2.438-2,4.252-1.157,3.156,1.472,6.262,3.058,9.336,4.694a4.4,4.4,0,0,1,1.846,1.8c.665,1.392-.008,3-1.847,3.922-2.618,1.319-5.249,2.61-7.815,3.883l.724,1.746v1.686h1.005q6.029,0,12.058,0c.686,0,1.373-.044,2.059-.068.775-.158.913-.729.912-1.4q0-2.384,0-4.768,0-6.3,0-12.6c0-.767-.143-1.467-1.089-1.608-.33-.012-.66-.035-.99-.035q-10.6,0-21.21,0c-1.744,0-3.488.023-5.232.035-.853-.008-1.1.5-1.1,1.255q.01,7.826,0,15.652c0,.81-.034,1.622.017,2.428.033.524.1,1.123.893,1.034m-3.253-1.076q.014-8.423.024-16.845c0-.052-.052-.1-.115-.222H21.9q-9.327,0-18.655.012a3.189,3.189,0,0,0-.879.269c-.011.18-.032.359-.032.539q0,15.2,0,30.408c0,.2.025.4.04.619H5.655c.229-.732.413-1.464.684-2.163A9.032,9.032,0,0,1,12.7,35.331c1.351-.363,2.746-.56,4.1-.909.816-.21.867-.785.323-1.388a11.15,11.15,0,0,1-1.866-2.453c-.309-.637-.53-.923-1.243-.854a3.546,3.546,0,0,1-3.537-4.745,1.936,1.936,0,0,0,.076-.653A21.33,21.33,0,0,1,10.5,20.2a7.412,7.412,0,0,1,6.432-6.268,70.476,70.476,0,0,1,8.495-.059,7.272,7.272,0,0,1,5.946,3.142,7.79,7.79,0,0,1,1.512,6.229,12.463,12.463,0,0,0,.084,2.4,5.109,5.109,0,0,1-.06,1.406,3.568,3.568,0,0,1-3.578,2.7c-.4.006-.972-.244-1.113.394a6,6,0,0,1-2.055,2.94.939.939,0,0,0-.308.705.975.975,0,0,0,.554.638c1.132.289,2.283.51,3.431.737a9.377,9.377,0,0,1,5.708,3.417,11.137,11.137,0,0,1,2.04,4.734l1.108-.049a6.284,6.284,0,0,1,.306-1.61c.861-1.74,1.989-1.874,4.178-1.459a14.781,14.781,0,0,1,2.46.936V31.915c-1.865,0-3.646-.135-5.4.036a3.578,3.578,0,0,1-3.792-3.473m-5.722-5.611a15.977,15.977,0,0,0-.2-2.376c-.694-2.948-2.907-4.422-5.881-4.49-1.983-.046-3.969-.042-5.952,0-3.246.067-4.972,1.587-5.989,4.454a2.489,2.489,0,0,0-.017,2.471,2.937,2.937,0,0,0,3.126-1.548,1.546,1.546,0,0,1,.56-.442c1.369-.863,2.546-.114,3.8.383a20.987,20.987,0,0,0,4.693,1.49,44.134,44.134,0,0,0,5.853.06M35.2,43.256a7.156,7.156,0,0,0-6.241-5.948l-2.164,5.3c-1.607-.8-3.1-1.58-4.63-2.286a1.472,1.472,0,0,0-1.1.014c-1.525.706-3.019,1.479-4.569,2.251l-2.144-5.281c-3.725.925-6.047,3.178-6.161,5.947ZM48.063,13.679a4.472,4.472,0,0,0-.155.646c-.007,3.275-.024,6.55,0,9.824.006.931.4,1.119,1.29.676,3.037-1.517,6.076-3.032,9.1-4.577a4.813,4.813,0,0,0,.914-.813c-.3-.315-.539-.74-.9-.929q-4.011-2.075-8.068-4.059a20.071,20.071,0,0,0-2.174-.77M45.639,68.331H61.37a8.07,8.07,0,0,0-1.3-4,1.108,1.108,0,0,0-.8-.48q-5.678-.047-11.357-.006a1.109,1.109,0,0,0-.841.348,9.93,9.93,0,0,0-1.44,4.135m-28.487-42c0,.722,0,1.443,0,2.165a3.239,3.239,0,0,0,3.44,3.408c.752,0,1.5,0,2.256,0a3.146,3.146,0,0,0,3.121-2.485,23.2,23.2,0,0,0,.166-3.646c0-.182-.374-.468-.616-.524-.686-.16-1.425-.127-2.086-.346-1.706-.566-3.389-1.207-5.066-1.857-.931-.36-1.2-.221-1.216.759-.01.842,0,1.684,0,2.526m4.452,10.9c.647-.686,1.27-1.327,1.865-1.994a.7.7,0,0,0,.163-.547c-.029-.114-.293-.236-.455-.239-1.02-.022-2.041-.026-3.061,0-.2.005-.518.127-.576.275s.084.446.225.6c.565.62,1.164,1.21,1.839,1.9m3.544-28.14h2.218V6.879H25.149Zm1.474,27.849c-1.342-.463-1.735-.252-2.989,1.543a9.928,9.928,0,0,0,1.4.679.839.839,0,0,0,.763-.21,20.3,20.3,0,0,0,.826-2.012m1.954-9.34a8.994,8.994,0,0,0,1.972-.787c.2-.137.176-.906-.018-1.217-.448-.718-1.225-.531-1.954-.483Zm-11.9,9.285,1.048,2.576c.51-.256.957-.485,1.408-.706s.491-.488.135-.826c-.717-.679-1.261-1.76-2.59-1.045M16.1,9.207l2.079-.27c.142-2.134.079-2.188-2.079-1.844ZM14.777,27.139c.047-1.979.047-1.953-1.284-1.92a.967.967,0,0,0-1.013,1.075c-.011.821.834,1.112,2.3.845M9.129,6.9h-2.2V9.1h2.2Z" transform="translate(0 0)" fill="#010101"/>
    <path id="Trazado_279362" data-name="Trazado 279362" d="M47.049,81.513a3.577,3.577,0,0,0,3.792,3.472c1.751-.171,3.533-.035,5.4-.035v9.214a14.8,14.8,0,0,0-2.46-.936c-2.19-.415-3.317-.281-4.178,1.459a6.278,6.278,0,0,0-.306,1.61l-1.108.049a11.139,11.139,0,0,0-2.04-4.734,9.379,9.379,0,0,0-5.708-3.417c-1.148-.227-2.3-.448-3.431-.737a.974.974,0,0,1-.554-.637.939.939,0,0,1,.308-.706,6,6,0,0,0,2.055-2.94c.141-.638.714-.388,1.113-.394a3.568,3.568,0,0,0,3.578-2.7,5.115,5.115,0,0,0,.06-1.406,12.464,12.464,0,0,1-.084-2.4,7.79,7.79,0,0,0-1.512-6.229A7.273,7.273,0,0,0,36.024,66.9a70.44,70.44,0,0,0-8.495.06A7.412,7.412,0,0,0,21.1,73.23a21.345,21.345,0,0,0,.05,4.131,1.932,1.932,0,0,1-.076.653,3.546,3.546,0,0,0,3.537,4.745c.714-.069.934.218,1.243.854a11.16,11.16,0,0,0,1.866,2.453c.544.6.493,1.178-.323,1.388-1.355.35-2.75.546-4.1.909a9.033,9.033,0,0,0-6.361,5.763c-.271.7-.455,1.432-.684,2.163H12.968c-.015-.22-.04-.42-.04-.619q0-15.2,0-30.408c0-.18.021-.359.032-.539q16.454,0,32.908-.015c.773,0,1.03.173,1.023.992-.039,4.927-.023,9.855-.012,14.783a6.252,6.252,0,0,0,.17,1.027" transform="translate(-10.594 -53.034)" fill="#69d6f4"/>
    <path id="Trazado_279363" data-name="Trazado 279363" d="M243.48,50.907c.946.14,1.088.84,1.09,1.608q.01,6.3,0,12.6,0,2.384,0,4.768c0,.668-.137,1.239-.912,1.4a6.446,6.446,0,0,0-1.028-.166c-4.261-.012-8.521-.02-12.782,0-.683,0-1.106-.087-1.009-.908.02-.168-.2-.364-.3-.547l-.724-1.746c2.566-1.273,5.2-2.564,7.815-3.883,1.839-.927,2.512-2.53,1.847-3.922a4.4,4.4,0,0,0-1.846-1.8c-3.075-1.636-6.181-3.221-9.336-4.694-1.814-.846-3.384-.525-4.252,1.157a2.315,2.315,0,0,0-.224,1.017c-.016,3.544-.01,7.088-.009,10.632,0,.18-.059.426.034.529.767.848.306,1.642,0,2.494a7.444,7.444,0,0,0-.218,1.653c-1.52,0-3.04-.012-4.559.008a9.361,9.361,0,0,0-1.2.166c-.8.089-.86-.51-.893-1.034-.051-.806-.017-1.618-.017-2.428q0-7.826,0-15.652c0-.758.244-1.262,1.1-1.255a5.826,5.826,0,0,0,.947.155q12.769.013,25.538,0a5.83,5.83,0,0,0,.947-.155" transform="translate(-176.157 -41.721)" fill="#ffeaa7"/>
    <path id="Trazado_279364" data-name="Trazado 279364" d="M50.34,252.911a6.657,6.657,0,0,1,1.273,3.6c-.071.154-.2.307-.205.462q-.023,2.454,0,4.909c0,.14.159.279.245.418l.261,1.63-.159.147c-1.984.009-3.969.025-5.953.025q-15.744,0-31.488,0c-1.09,0-1.375-.272-1.374-1.358q.008-4.915.031-9.83l.15-.159c.209-.013.418-.038.627-.038q17.879,0,35.759,0c.209,0,.418.023.627.035l.206.158m-1.111,4.379c-.33-.011-.66-.031-.99-.031q-10.552,0-21.1-.018a1.22,1.22,0,0,1-.934-.385,3.518,3.518,0,0,0-6.343.431H15.29l-.15.144V259.6H19.8l.154.174a3.573,3.573,0,0,1,.321.424,3.146,3.146,0,0,0,4.439,1.159,9.351,9.351,0,0,0,1.769-1.738l.177-.022c.329-.014.657-.04.986-.04q10.351,0,20.7,0H49.37v-2.123l-.141-.141" transform="translate(-10.605 -207.114)" fill="#ccd1d9"/>
    <path id="Trazado_279365" data-name="Trazado 279365" d="M239.518,163.876l1.8.4.176.155q0,5.6,0,11.191c-.023.016-.068.039-.065.048a.79.79,0,0,0,.058.129,10.76,10.76,0,0,0,1.892.1c.18-.018.437-.554.44-.855.035-3.354.028-6.709.032-10.064l.178-.045,2.017.561a2.29,2.29,0,0,0-.2.644q-.02,4.527,0,9.054a1.773,1.773,0,0,0,.249.6l2.273.007a2.825,2.825,0,0,0,.337-.891c.025-2.943.015-5.886.014-8.828.673.292,1.618.11,1.9,1.085a1.741,1.741,0,0,1,.03.335,2.347,2.347,0,0,0-.284.748q-.029,5.023,0,10.046a2.347,2.347,0,0,0,.284.748,15.681,15.681,0,0,1-1.1,3.346,30.73,30.73,0,0,1-2.793,3.521l-.194.158q-6.083.02-12.166.031a.761.761,0,0,1-.544-.212c-1.039-1.358-2.135-2.683-3.036-4.129a5.411,5.411,0,0,1-.632-2.4,30.116,30.116,0,0,1-.017-4.143c.17-2.608-.884-4.831-2.015-7.053a3.953,3.953,0,0,1-.206-1.1,6.646,6.646,0,0,1,1.2-.129c2.17.151,3.387,2.282,3.324,4.3-.048,1.553-.01,3.109-.01,4.814l2.264-.237a3.656,3.656,0,0,0,.27-.953q.024-10.53,0-21.059a4.767,4.767,0,0,0-.185-.927.744.744,0,0,1,.868-.861,1.6,1.6,0,0,1,1.062.57,2.1,2.1,0,0,1,.246,1.179q.02,10.639.01,21.277v1.037l2.152-.3.134-.165q.028-5.77.055-11.54l.187-.2" transform="translate(-186.807 -124.586)" fill="#f0d0b4"/>
    <path id="Trazado_279366" data-name="Trazado 279366" d="M33.518,14.908c-.017,1.286-.06,2.572-.039,3.858.009.551-.184.749-.719.743-2.109-.021-1.727.171-1.752-1.682-.014-.989-.006-1.978-.008-2.967-.145-.077-.289-.221-.434-.222q-2.809-.023-5.619,0c-.145,0-.29.145-.435.222-.062.7-.15,1.395-.179,2.094-.031.745-.007,1.492-.007,2.212-.071.065-.109.131-.152.135-2.128.2-2.124.2-2.131-1.976,0-.806-.032-1.611-.049-2.417-.2-.094-.39-.267-.587-.269q-2.767-.031-5.535,0c-.2,0-.391.175-.587.269-.017,1.23-.085,2.462-.032,3.69.032.743-.236.971-.924.913-.416-.035-.838-.006-1.369-.006,0-2.059-.037-4.09.045-6.116.01-.261.612-.539.98-.729a1.712,1.712,0,0,1,.713-.023H70.349c1.55,0,1.822.27,1.818,1.819,0,.841-.018,1.682-.027,2.523l-.155.165q-6.31.017-12.62.033c-2.855.005-5.71.014-8.565,0a3.538,3.538,0,0,0-3.328,1.838,1.035,1.035,0,0,1-.735.45c-2.1.036-4.2.02-6.51.02V14.908c-.2-.094-.39-.267-.587-.269q-2.767-.031-5.535,0c-.2,0-.391.175-.587.269" transform="translate(-10.614 -10.333)" fill="#b4dd7f"/>
    <path id="Trazado_279367" data-name="Trazado 279367" d="M86.892,95.394a44.134,44.134,0,0,1-5.853-.06,20.987,20.987,0,0,1-4.693-1.49c-1.258-.5-2.434-1.246-3.8-.383a1.544,1.544,0,0,0-.56.442,2.937,2.937,0,0,1-3.126,1.548,2.488,2.488,0,0,1,.017-2.471c1.017-2.868,2.744-4.388,5.989-4.455,1.983-.041,3.969-.045,5.952,0C83.789,88.6,86,90.07,86.7,93.018a15.977,15.977,0,0,1,.2,2.376" transform="translate(-56.159 -72.526)" fill="#656d78"/>
    <path id="Trazado_279368" data-name="Trazado 279368" d="M72.417,212.7H45.408c.114-2.769,2.436-5.022,6.161-5.947l2.144,5.281c1.55-.772,3.044-1.546,4.569-2.251a1.472,1.472,0,0,1,1.1-.014c1.528.706,3.023,1.483,4.63,2.286l2.164-5.3a7.156,7.156,0,0,1,6.241,5.948" transform="translate(-37.214 -169.441)" fill="#fd826e"/>
    <path id="Trazado_279369" data-name="Trazado 279369" d="M265.592,75.808a20.032,20.032,0,0,1,2.173.77q4.057,1.984,8.068,4.059c.364.188.605.613.9.928a4.81,4.81,0,0,1-.914.813c-3.023,1.544-6.062,3.059-9.1,4.577-.886.443-1.284.254-1.29-.676-.02-3.275,0-6.55,0-9.824a4.46,4.46,0,0,1,.154-.646" transform="translate(-217.529 -62.129)" fill="#fd826e"/>
    <path id="Trazado_279370" data-name="Trazado 279370" d="M252.918,358.233a9.931,9.931,0,0,1,1.44-4.135,1.109,1.109,0,0,1,.841-.348q5.678-.034,11.357.006a1.108,1.108,0,0,1,.8.48,8.072,8.072,0,0,1,1.3,4Z" transform="translate(-207.279 -289.902)" fill="#fcd770"/>
    <path id="Trazado_279371" data-name="Trazado 279371" d="M95.03,130.169c0-.842-.008-1.684,0-2.526.011-.98.285-1.119,1.216-.759,1.677.649,3.36,1.291,5.066,1.857.66.219,1.4.186,2.085.346.243.056.616.342.616.524a23.226,23.226,0,0,1-.166,3.646,3.146,3.146,0,0,1-3.121,2.485c-.752,0-1.5,0-2.256,0a3.239,3.239,0,0,1-3.44-3.408c0-.722,0-1.443,0-2.165" transform="translate(-77.879 -103.84)" fill="#f0d0b4"/>
    <path id="Trazado_279372" data-name="Trazado 279372" d="M299.591,183.914c-2.649-.651-5.3-1.3-7.945-1.961a1.914,1.914,0,0,1-.529-.357q0-2.253-.006-4.506c.056-.055.111-.158.167-.158,2.926-.008,5.852-.007,8.835-.007v6.662l-.522.328" transform="translate(-238.581 -144.998)" fill="#69d6f4"/>
    <path id="Trazado_279373" data-name="Trazado 279373" d="M47.2,80.3a6.252,6.252,0,0,1-.17-1.027c-.011-4.928-.027-9.856.012-14.783.006-.819-.25-.993-1.023-.992q-16.454.035-32.908.015a3.194,3.194,0,0,1,.879-.269q9.327-.024,18.654-.012H47.107c.064.118.115.17.115.222Q47.214,71.882,47.2,80.3" transform="translate(-10.743 -51.826)" fill="#72e8ff"/>
    <path id="Trazado_279374" data-name="Trazado 279374" d="M265.579,156.8a4.769,4.769,0,0,1,.185.927q.016,10.53,0,21.059a3.65,3.65,0,0,1-.271.953q0-10.937.007-21.875c0-.355.054-.71.083-1.065" transform="translate(-217.583 -128.508)" fill="#ffe2c3"/>
    <path id="Trazado_279375" data-name="Trazado 279375" d="M110.288,193.6c-.675-.693-1.274-1.283-1.839-1.9-.14-.154-.284-.449-.225-.6s.371-.269.576-.275c1.02-.027,2.041-.023,3.061,0,.162,0,.427.125.455.239a.7.7,0,0,1-.163.547c-.594.667-1.218,1.308-1.865,1.994" transform="translate(-88.684 -156.37)" fill="#f0d0b4"/>
    <rect id="Rect치ngulo_325449" data-name="Rect치ngulo 325449" width="2.218" height="2.208" transform="translate(25.149 6.879)" fill="#e6e9ed"/>
    <path id="Trazado_279376" data-name="Trazado 279376" d="M248.5,50.738a5.829,5.829,0,0,1-.947.155q-12.769.013-25.538,0a5.826,5.826,0,0,1-.947-.155c1.744-.012,3.488-.034,5.232-.035q10.605-.006,21.21,0c.33,0,.66.023.99.035" transform="translate(-181.175 -41.552)" fill="#fff8b1"/>
    <path id="Trazado_279377" data-name="Trazado 279377" d="M133.961,203.732a20.343,20.343,0,0,1-.826,2.012.839.839,0,0,1-.763.21,9.927,9.927,0,0,1-1.4-.679c1.253-1.8,1.646-2.006,2.989-1.543" transform="translate(-107.338 -166.796)" fill="#f86c50"/>
    <path id="Trazado_279378" data-name="Trazado 279378" d="M158.364,141.371v-2.487c.729-.048,1.506-.235,1.954.483.194.311.214,1.08.018,1.217a8.993,8.993,0,0,1-1.972.787" transform="translate(-129.787 -113.776)" fill="#f0d0b4"/>
    <path id="Trazado_279379" data-name="Trazado 279379" d="M92.418,203.313c1.329-.715,1.873.366,2.59,1.045.356.337.3.611-.135.826s-.9.449-1.408.706l-1.048-2.577" transform="translate(-75.741 -166.432)" fill="#f86c50"/>
    <path id="Trazado_279380" data-name="Trazado 279380" d="M89.207,40.705V38.591c2.158-.344,2.221-.29,2.079,1.844l-2.079.27" transform="translate(-73.11 -31.498)" fill="#e6e9ed"/>
    <path id="Trazado_279381" data-name="Trazado 279381" d="M71.455,141.638c-1.463.267-2.308-.023-2.3-.845a.967.967,0,0,1,1.013-1.075c1.331-.033,1.33-.059,1.284,1.92" transform="translate(-56.678 -114.499)" fill="#f0d0b4"/>
    <path id="Trazado_279382" data-name="Trazado 279382" d="M352.394,249.408a2.351,2.351,0,0,1-.284-.748q-.029-5.023,0-10.046a2.352,2.352,0,0,1,.284-.748q0,5.771,0,11.542" transform="translate(-288.56 -194.943)" fill="#ffe2c3"/>
    <path id="Trazado_279383" data-name="Trazado 279383" d="M327.346,237.063a1.772,1.772,0,0,1-.249-.6q-.024-4.527,0-9.054a2.286,2.286,0,0,1,.2-.644l.047,10.295" transform="translate(-268.063 -185.848)" fill="#ffe2c3"/>
    <path id="Trazado_279384" data-name="Trazado 279384" d="M341.481,230c0,2.943.011,5.886-.014,8.828a2.832,2.832,0,0,1-.337.891c.007-3,.006-6,.035-9,0-.242.206-.483.316-.724" transform="translate(-279.574 -188.494)" fill="#ffe2c3"/>
    <path id="Trazado_279385" data-name="Trazado 279385" d="M290.283,154.831c.107.183.324.379.3.547-.1.821.326.912,1.009.908,4.26-.025,8.521-.016,12.782-.005a6.449,6.449,0,0,1,1.028.166c-.686.024-1.373.067-2.059.068q-6.029.01-12.058,0h-1.005Z" transform="translate(-237.902 -126.892)" fill="#fff8b1"/>
    <path id="Trazado_279386" data-name="Trazado 279386" d="M40.589,40.456h-2.2v-2.2h2.2ZM39.459,38.55c-.664-.134-.8.2-.806.8s.171.827.808.836c.684.01.86-.227.857-.88s-.256-.863-.859-.755" transform="translate(-31.459 -31.356)" fill="#f8fafb"/>
    <path id="Trazado_279387" data-name="Trazado 279387" d="M25.883,24.062c.2-.094.39-.267.587-.269q2.767-.031,5.535,0c.2,0,.391.175.587.269H25.883" transform="translate(-21.212 -19.487)" fill="#bfea86"/>
    <path id="Trazado_279388" data-name="Trazado 279388" d="M126.923,24.062c.2-.094.39-.267.587-.269q2.767-.031,5.535,0c.2,0,.391.175.587.269h-6.709" transform="translate(-104.02 -19.487)" fill="#bfea86"/>
    <path id="Trazado_279389" data-name="Trazado 279389" d="M77.014,24.024c.145-.077.289-.221.435-.222q2.809-.023,5.619,0c.145,0,.289.145.434.222H77.014" transform="translate(-63.117 -19.497)" fill="#bfea86"/>
    <path id="Trazado_279390" data-name="Trazado 279390" d="M226.308,279.528c-.085-.139-.243-.278-.245-.418q-.025-2.454,0-4.909c0-.154.134-.308.2-.462l.04,5.789" transform="translate(-185.26 -224.343)" fill="#dde2eb"/>
    <path id="Trazado_279391" data-name="Trazado 279391" d="M220.051,162.981a9.39,9.39,0,0,1,1.2-.165c1.519-.02,3.039-.008,4.559-.008-.091.08-.182.231-.273.231-1.829-.009-3.657-.035-5.486-.057" transform="translate(-180.343 -133.426)" fill="#fff8b1"/>
    <path id="Trazado_279392" data-name="Trazado 279392" d="M291.112,177.838q0,2.253.006,4.506,0-2.253-.006-4.506" transform="translate(-238.581 -145.747)" fill="#72e8ff"/>
    <path id="Trazado_279393" data-name="Trazado 279393" d="M338.1,214.172l.522-.328-.522.328" transform="translate(-277.093 -175.256)" fill="#72e8ff"/>
    <path id="Trazado_279394" data-name="Trazado 279394" d="M291.265,217.3l-.187.2.024-.294.163.1" transform="translate(-238.553 -178.011)" fill="#ffe2c3"/>
    <path id="Trazado_279395" data-name="Trazado 279395" d="M316.286,222.759l-.178.045.059-.243.119.2" transform="translate(-259.067 -182.4)" fill="#110f0d"/>
    <path id="Trazado_279396" data-name="Trazado 279396" d="M302.275,220.134l-.176-.155.176.155" transform="translate(-247.586 -180.284)" fill="#ffe2c3"/>
    <path id="Trazado_279397" data-name="Trazado 279397" d="M13.262,252.932l-.15.159.15-.159" transform="translate(-10.746 -207.291)" fill="#dde2eb"/>
    <path id="Trazado_279398" data-name="Trazado 279398" d="M219.265,253.075l-.206-.158.206.158" transform="translate(-179.53 -207.278)" fill="#dde2eb"/>
    <path id="Trazado_279399" data-name="Trazado 279399" d="M290.163,282.787l-.134.165.134-.165" transform="translate(-237.694 -231.758)" fill="#3c3d40"/>
    <path id="Trazado_279400" data-name="Trazado 279400" d="M302.743,283.031a.783.783,0,0,1-.058-.129c0-.009.042-.032.065-.048l-.007.177" transform="translate(-248.065 -231.813)" fill="#ffe2c3"/>
    <path id="Trazado_279401" data-name="Trazado 279401" d="M228.044,315l.159-.147-.159.147" transform="translate(-186.894 -258.041)" fill="#bdc1c9"/>
    <path id="Trazado_279402" data-name="Trazado 279402" d="M331.1,340.043l.194-.158-.194.158" transform="translate(-271.357 -278.553)" fill="#ffe2c3"/>
    <path id="Trazado_279403" data-name="Trazado 279403" d="M340.1,36.989l.155-.165-.155.165" transform="translate(-278.729 -30.179)" fill="#bfea86"/>
    <path id="Trazado_279404" data-name="Trazado 279404" d="M29.793,270.23H25.129v-2.169l.15-.144h4.567a3.518,3.518,0,0,1,6.343-.431,1.22,1.22,0,0,0,.934.385q10.552.033,21.1.018c.33,0,.66.02.99.031l.141.141v2.123H58.341q-10.351,0-20.7,0c-.329,0-.657.026-.986.04l-.177.022a9.346,9.346,0,0,1-1.769,1.738,3.146,3.146,0,0,1-4.439-1.159,3.572,3.572,0,0,0-.321-.424l-.154-.174m4.513-1.18a1.171,1.171,0,0,0-1.324-1.011c-.763.018-1.078.491-.974,1.035a1.624,1.624,0,0,0,.949,1.083,1.228,1.228,0,0,0,1.349-1.107" transform="translate(-20.595 -217.745)" fill="#010101"/>
    <path id="Trazado_279405" data-name="Trazado 279405" d="M25.279,278.044l-.15.144.15-.144" transform="translate(-20.595 -227.871)" fill="#110f0d"/>
    <path id="Trazado_279406" data-name="Trazado 279406" d="M214.186,278.2l-.141-.141.141.141" transform="translate(-175.421 -227.886)" fill="#110f0d"/>
    <path id="Trazado_279407" data-name="Trazado 279407" d="M50.977,290.862l.154.174-.154-.174" transform="translate(-41.778 -238.376)" fill="#dde2eb"/>
    <path id="Trazado_279408" data-name="Trazado 279408" d="M88.012,290.867l.177-.022-.177.022" transform="translate(-72.13 -238.362)" fill="#dde2eb"/>
    <path id="Trazado_279409" data-name="Trazado 279409" d="M40.673,39.736c.6-.108.856.1.859.755s-.173.89-.857.88c-.638-.009-.814-.226-.808-.836s.142-.933.806-.8" transform="translate(-32.673 -32.542)" fill="#e6e9ed"/>
    <path id="Trazado_279410" data-name="Trazado 279410" d="M65.46,279.728a1.228,1.228,0,0,1-1.349,1.107,1.624,1.624,0,0,1-.949-1.083c-.1-.544.211-1.017.974-1.035a1.171,1.171,0,0,1,1.324,1.011" transform="translate(-51.749 -228.422)" fill="#fd826e"/>
  </g>
</svg>
