<svg xmlns="http://www.w3.org/2000/svg" xmlns:xlink="http://www.w3.org/1999/xlink" width="148.29" height="148.29" viewBox="0 0 148.29 148.29">
  <defs>
    <clipPath id="clip-path">
      <rect id="Rectángulo_325505" data-name="Rectángulo 325505" width="148.29" height="148.29" fill="none"/>
    </clipPath>
  </defs>
  <g id="Grupo_261791" data-name="Grupo 261791" transform="translate(-244 -3173)">
    <g id="Grupo_261724" data-name="Grupo 261724" transform="translate(244 3173)">
      <g id="Grupo_261724-2" data-name="Grupo 261724" clip-path="url(#clip-path)">
        <path id="Trazado_279544" data-name="Trazado 279544" d="M148.29,74.145A74.145,74.145,0,1,1,74.145,0,74.145,74.145,0,0,1,148.29,74.145" fill="#e2e8ec"/>
        <path id="Trazado_279545" data-name="Trazado 279545" d="M78.609,19.765a4.82,4.82,0,0,1,3.58,3.708c.085.423.428.411.7.532,1.029.46,2.082.872,3.088,1.38.734.37,1.27.8,2.158.053.859-.726,2.256.123,2.2,1.342a3.407,3.407,0,0,0,1.333,2.777A23.945,23.945,0,0,1,98.753,43.57c.091.618.244.874.891.819a16.67,16.67,0,0,1,1.91-.005,3.862,3.862,0,0,1,3.81,3.78c.034.919.022,1.84.006,2.76a3.907,3.907,0,0,1-3.934,4c-.805.032-1.614.006-2.543.006a8.41,8.41,0,0,1,.633,5.083A7.9,7.9,0,0,1,92.991,66.3c-.687.146-1.054.354-1.182,1.13a17.053,17.053,0,0,1-6.348,10.8,1.533,1.533,0,0,0-.691,1.514,8.708,8.708,0,0,1,.008,1.06c0,2.564,0,2.556,2.432,3.494q9.918,3.83,19.83,7.674A16.472,16.472,0,0,1,117.5,106.854c.027,1.061-.011,2.124.027,3.184a1.7,1.7,0,0,1-1.492,1.968c-1.291-.257-1.682-.708-1.7-2-.016-1.061.006-2.124-.025-3.185a13.413,13.413,0,0,0-8.385-11.872c-3.915-1.525-7.848-3-11.739-4.584a1.426,1.426,0,0,0-2.009.538c-2.4,3.106-4.868,6.164-7.339,9.217a2.921,2.921,0,0,1-4.294.672c-1.6-1.225-3.14-2.528-4.691-3.814-.5-.415-2.82-.564-3.279-.115-1.27,1.24-2.719,2.259-4.092,3.371-2.256,1.828-3.622,1.648-5.442-.637q-3.572-4.482-7.153-8.957c-.267-.334-.459-.81-1.088-.557-3.732,1.5-7.473,2.976-11.211,4.461a13.268,13.268,0,0,0-9.576,12.238c-.089,5.652-.037,11.306-.032,16.959,0,1.09.468,1.574,1.53,1.582,1.836.015,3.673-.015,5.51-.026,1.273.011,2.55-.03,3.819.053.859.056,1.128-.159,1.117-1.075-.053-4.531-.025-9.062-.024-13.593,0-1.2-.038-2.409.021-3.609a1.532,1.532,0,0,1,1.671-1.542,1.516,1.516,0,0,1,1.489,1.6c.017.282.007.566.007.849,0,5.416.02,10.832-.02,16.247-.006.852.159,1.131,1.077,1.125q10.62-.063,21.239,0c.993.008,1.127-.311,1.122-1.184-.034-6.974-.02-13.947-.016-20.92a5.46,5.46,0,0,1,.078-1.16,1.562,1.562,0,0,1,3.078.158,8.7,8.7,0,0,1,.03,1.06c0,7.009.013,14.017-.016,21.026,0,.766.151,1.017.978,1.013q10.777-.054,21.557,0c.821,0,.98-.239.976-1.009-.034-5.487-.018-10.973-.017-16.46a8.212,8.212,0,0,1,.019-.955,1.567,1.567,0,0,1,3.059-.273,4.126,4.126,0,0,1,.106,1.152c.006,5.522.023,11.044-.017,16.566-.006.813.221.989,1,.977,3.079-.046,6.159-.013,9.239-.022,1.283,0,1.729-.442,1.738-1.706.013-1.769,0-3.539.006-5.309.007-1.378.339-1.784,1.7-2.133a1.827,1.827,0,0,1,1.5,2.1c-.051,1.875.006,3.752-.02,5.628a4.476,4.476,0,0,1-4.637,4.611q-38.712.014-77.423,0a4.461,4.461,0,0,1-4.663-4.581c-.022-5.664-.065-11.329.023-16.992A16.323,16.323,0,0,1,41.282,91.969q10.642-4.163,21.3-8.3c.757-.292.905-.693.967-1.462a5.661,5.661,0,0,0-2.153-5.363,14.762,14.762,0,0,1-4.885-9.286c-.134-.84-.477-1.12-1.286-1.272a7.8,7.8,0,0,1-6.007-10.6c.248-.672.1-.775-.524-.758a16.049,16.049,0,0,1-2.332-.054,3.826,3.826,0,0,1-3.424-3.712c-.038-1.025-.044-2.055,0-3.079a3.876,3.876,0,0,1,3.783-3.7c.877-.038,1.991.365,2.562-.166.5-.464.394-1.572.575-2.391a23.811,23.811,0,0,1,7.564-12.957c.639-.569.444-1.206.483-1.846.077-1.247.785-1.926,1.872-1.748.169.027.4.058.484.173.681.98,1.34.393,2.023.016a10.578,10.578,0,0,1,1.52-.744c1.3-.46,2.438-.89,2.821-2.541.3-1.308,1.7-1.832,2.851-2.408ZM94.754,55c-.6-.023-1.2-.009-1.789-.076-.733-.083-.876.253-.861.908.037,1.727-.015,3.455.025,5.182.017.708-.378,1.769.228,2.045.736.335,1.568-.378,2.265-.859a2.518,2.518,0,0,0,.36-.369,3.814,3.814,0,0,0,1.393-2.266c.451-1.739-.348-3.935-1.621-4.565M56.123,62.049q.028-3.3.054-6.6c0-.206.006-.433-.3-.45-2.367-.24-2.877,0-3.649,1.7a4.575,4.575,0,0,0,2.779,6.239c1.141.431,1.211.374,1.112-.9m.4-17.707c.488-.113,1.36.527,1.379-.507a53.039,53.039,0,0,0-.055-5.914V32.928a21.552,21.552,0,0,0-5.13,10.813c-.1.557.146.663.63.647,1.059-.035,2.118-.033,3.176-.046M74.358,82.225a20.371,20.371,0,0,1-7.022-1.387c-.583-.246-.636-.017-.646.481-.021,1.088.232,2.227-.276,3.241a1.022,1.022,0,0,0,.222,1.3c1.733,2.142,3.5,4.261,5.141,6.47a2.3,2.3,0,0,0,2.586,1.064,1.723,1.723,0,0,0,1.952-.821c1.444-1.916,2.96-3.778,4.485-5.63.782-.949,1.656-1.773.862-3.2-.257-.463-.063-1.178-.071-1.778-.005-.4,0-.805,0-1.336a20.342,20.342,0,0,1-7.232,1.6m0-37.89c1.341.014,2.684,0,4.024.054.608.023.681-.26.68-.762-.011-6.4,0-12.791-.015-19.186,0-1.01-.486-1.464-1.516-1.482-.988-.017-1.977.017-2.965.028-1.272-.011-2.543-.044-3.814-.027a1.325,1.325,0,0,0-1.512,1.485c-.024.777-.006,1.555-.006,2.332,0,5.511.022,11.023-.021,16.534-.007.9.254,1.141,1.122,1.085,1.337-.085,2.681-.047,4.023-.061m-20.8,7.347c.385.023.77.064,1.156.064q7.563.006,15.126.005c1.5,0,1.825.245,2.21,1.58a1.726,1.726,0,0,1-1.968,1.61c-.771-.007-1.543.037-2.314.058-2.577-.021-5.153-.028-7.73-.073-.608-.011-.683.28-.68.777.019,3-.076,6.01.039,9.009a14.636,14.636,0,0,0,17.079,14.07A14.473,14.473,0,0,0,88.812,66.007c.257-3.349.027-6.709.13-10.061.027-.883-.288-1.037-1.08-1.027-3.178.041-6.357.023-9.536.014-1.366,0-1.735-.3-2.085-1.6.38-1.333.705-1.579,2.217-1.58q10.609-.008,21.221,0c2.843,0,2.5.132,2.506-2.517.006-1.667,0-1.669-1.636-1.669q-22.971,0-45.943,0c-.353,0-.706.024-1.058.037-1.482-.015-2.963-.056-4.444-.041-3.472.036-2.956-.553-3,3.156,0,.035,0,.071,0,.106a.807.807,0,0,0,.9.927c2.185-.011,4.37-.044,6.555-.07M82.247,27.2c0,5.573.006,11.013-.009,16.453,0,.534.127.76.706.74,1.164-.039,2.333-.044,3.5,0,.629.024.768-.224.766-.8q-.027-6.517-.006-13.037a1.025,1.025,0,0,0-.447-.989A20.539,20.539,0,0,0,82.247,27.2m-16.2,8.6c0-2.579-.013-5.158.009-7.737.006-.634-.1-.824-.763-.526A23.112,23.112,0,0,0,61.609,29.6a1.037,1.037,0,0,0-.491.962q0,6.57-.029,13.141c0,.6.266.694.772.682,1.1-.026,2.194-.059,3.285.009.779.048.93-.252.919-.964-.04-2.543-.016-5.087-.016-7.63M58.413,88.7c2.458,3.081,4.864,6.084,7.248,9.1.3.377.486.23.752.014.988-.8,1.967-1.615,2.986-2.375.424-.315.413-.53.1-.914q-2.929-3.63-5.821-7.29a.66.66,0,0,0-.893-.267c-1.42.586-2.856,1.131-4.376,1.728m31.278.2c.017-.26-.139-.279-.263-.328-1.376-.538-2.755-1.071-4.128-1.617-.355-.141-.513.08-.693.305-1.936,2.428-3.866,4.861-5.817,7.276-.32.4-.287.608.116.913,1.014.764,2,1.564,2.975,2.38.358.3.538.25.82-.107,2.232-2.824,4.486-5.629,6.731-8.443.107-.134.195-.285.259-.379m.892-55.85c-.1.056-.153.073-.153.091-.02,3.568-.03,7.136-.057,10.7,0,.516.285.552.683.548,1.309-.011,2.619-.025,3.928.006.53.013.693-.166.6-.675a21.409,21.409,0,0,0-5-10.674" fill="#030303"/>
        <path id="Trazado_279546" data-name="Trazado 279546" d="M116.029,116.183c-1.36.349-1.692.755-1.7,2.133-.009,1.769.007,3.539-.006,5.309-.009,1.264-.455,1.7-1.738,1.706-3.08.009-6.16-.024-9.239.022-.778.012-1-.164-1-.977.04-5.522.023-11.044.017-16.566a4.133,4.133,0,0,0-.106-1.153,1.567,1.567,0,0,0-3.059.274,8.438,8.438,0,0,0-.02.955c0,5.486-.016,10.973.018,16.46,0,.77-.155,1.013-.976,1.009q-10.779-.054-21.558,0c-.826,0-.98-.247-.977-1.013.029-7.009.017-14.018.016-21.026a8.721,8.721,0,0,0-.03-1.061A1.562,1.562,0,0,0,72.6,102.1a5.451,5.451,0,0,0-.078,1.159c0,6.974-.018,13.947.016,20.92.005.874-.129,1.192-1.122,1.185q-10.619-.078-21.239,0c-.918.006-1.083-.273-1.077-1.125.04-5.415.02-10.831.02-16.247,0-.283.01-.567-.007-.85a1.515,1.515,0,0,0-1.489-1.6,1.531,1.531,0,0,0-1.671,1.541c-.059,1.2-.021,2.407-.021,3.61,0,4.531-.029,9.062.024,13.593.011.916-.258,1.131-1.117,1.075-1.269-.084-2.546-.042-3.82-.054a4.968,4.968,0,0,1-.219-1.56c.01-6.821-.008-13.642.018-20.462a15.738,15.738,0,0,1,.747-4.563,27.63,27.63,0,0,1,2.023-4.167c3.738-1.485,7.479-2.961,11.211-4.461.629-.253.821.223,1.088.557q3.586,4.47,7.153,8.957c1.82,2.285,3.186,2.465,5.442.637,1.373-1.113,2.822-2.131,4.092-3.371.459-.449,2.779-.3,3.279.115,1.551,1.286,3.092,2.588,4.691,3.814a2.921,2.921,0,0,0,4.294-.672c2.47-3.053,4.937-6.111,7.339-9.217a1.426,1.426,0,0,1,2.009-.538c3.891,1.58,7.824,3.059,11.739,4.584a13.413,13.413,0,0,1,8.385,11.872c.031,1.061.009,2.123.025,3.185.02,1.289.411,1.74,1.7,2l0,4.177m-55.282-2.9c1.591,0,3.182.013,4.772,0,1.19-.013,1.845-.589,1.847-1.57s-.665-1.6-1.832-1.61q-4.717-.031-9.437,0a1.669,1.669,0,0,0-1.873,1.6c-.007.934.716,1.571,1.858,1.584,1.555.018,3.11,0,4.665,0m26.568,0c1.661,0,3.321.019,4.982-.007a1.557,1.557,0,0,0,1.711-1.5,1.583,1.583,0,0,0-1.669-1.67q-4.875-.051-9.751,0a1.551,1.551,0,0,0-1.7,1.63c.015.959.63,1.525,1.759,1.542,1.555.023,3.109.006,4.664,0" fill="#5fb7fc"/>
        <path id="Trazado_279547" data-name="Trazado 279547" d="M76.241,53.332c.35,1.3.718,1.6,2.085,1.6,3.179.009,6.357.027,9.535-.014.793-.01,1.108.145,1.081,1.027-.1,3.353.126,6.712-.13,10.061A14.473,14.473,0,0,1,76.48,78.782c-.113-.079-.223-.167-.344-.237-5.318-3.1-8.2-7.695-8.348-13.887-.077-3.217-.015-6.438-.015-9.658.771-.021,1.542-.065,2.313-.058a1.726,1.726,0,0,0,1.968-1.61h4.187" fill="#fddccd"/>
        <path id="Trazado_279548" data-name="Trazado 279548" d="M76.241,53.332H72.054c-.385-1.336-.705-1.578-2.209-1.58q-7.563-.009-15.126,0c-.386,0-.77-.042-1.156-.064L53.548,47.6c.353-.013.7-.037,1.057-.038h45.944c1.637,0,1.642,0,1.636,1.668-.011,2.65.337,2.52-2.507,2.517q-10.611-.008-21.221,0c-1.512,0-1.837.247-2.216,1.58" fill="#fbcd84"/>
        <path id="Trazado_279549" data-name="Trazado 279549" d="M67.773,55c0,3.22-.061,6.441.015,9.658.147,6.192,3.03,10.782,8.348,13.887.12.07.23.158.345.237A14.637,14.637,0,0,1,59.4,64.713c-.114-3-.02-6.006-.038-9.009,0-.5.072-.788.68-.778,2.576.046,5.153.053,7.73.074" fill="#fcccbc"/>
        <path id="Trazado_279550" data-name="Trazado 279550" d="M43.583,94.547a27.646,27.646,0,0,0-2.024,4.168,15.73,15.73,0,0,0-.746,4.562c-.026,6.821-.008,13.642-.018,20.463a4.943,4.943,0,0,0,.219,1.56c-1.836.011-3.673.041-5.509.027-1.062-.009-1.529-.493-1.53-1.583,0-5.653-.057-11.307.032-16.959a13.267,13.267,0,0,1,9.576-12.238" fill="#1ca7fd"/>
        <path id="Trazado_279551" data-name="Trazado 279551" d="M74.36,44.335c-1.341.014-2.686-.023-4.023.062-.867.055-1.129-.187-1.122-1.086.043-5.511.022-11.023.022-16.534,0-.777-.018-1.555,0-2.331a1.327,1.327,0,0,1,1.513-1.486c1.271-.017,2.542.016,3.813.028a2.187,2.187,0,0,0-.207,1.335q0,10.006,0,20.012" fill="#fd9a00"/>
        <path id="Trazado_279552" data-name="Trazado 279552" d="M74.36,44.335q0-10.006,0-20.012a2.187,2.187,0,0,1,.207-1.335c.989-.012,1.977-.045,2.966-.028,1.029.017,1.514.472,1.516,1.481.014,6.4,0,12.791.015,19.186,0,.5-.072.786-.681.762-1.34-.052-2.682-.04-4.024-.054" fill="#fea80f"/>
        <path id="Trazado_279553" data-name="Trazado 279553" d="M82.247,27.2a20.579,20.579,0,0,1,4.507,2.368,1.028,1.028,0,0,1,.447.99q-.01,6.519.006,13.037c0,.575-.137.824-.766.8-1.164-.046-2.333-.041-3.5,0-.579.02-.708-.206-.706-.74.015-5.44.009-10.879.009-16.453" fill="#fbbf63"/>
        <path id="Trazado_279554" data-name="Trazado 279554" d="M66.049,35.8c0,2.544-.024,5.087.016,7.63.011.712-.14,1.012-.919.964-1.091-.068-2.19-.035-3.285-.009-.506.012-.775-.082-.772-.682q.042-6.572.029-13.141a1.037,1.037,0,0,1,.491-.962,23.19,23.19,0,0,1,3.686-2.063c.658-.3.769-.108.763.527-.022,2.578-.009,5.157-.009,7.736" fill="#fbbf63"/>
        <path id="Trazado_279555" data-name="Trazado 279555" d="M74.363,93.39a2.3,2.3,0,0,1-2.585-1.063c-1.643-2.21-3.409-4.329-5.141-6.471a1.023,1.023,0,0,1-.223-1.3c.508-1.014.256-2.153.276-3.24.01-.5.063-.728.646-.482a20.371,20.371,0,0,0,7.022,1.387q0,5.583,0,11.165" fill="#fcaf9e"/>
        <path id="Trazado_279556" data-name="Trazado 279556" d="M74.363,93.39q0-5.583,0-11.165a20.345,20.345,0,0,0,7.233-1.6c0,.53,0,.933,0,1.335.007.6-.187,1.316.07,1.778.794,1.424-.08,2.248-.861,3.2-1.526,1.852-3.042,3.715-4.485,5.63a1.723,1.723,0,0,1-1.953.821" fill="#fcccbc"/>
        <path id="Trazado_279557" data-name="Trazado 279557" d="M58.413,88.7c1.52-.6,2.956-1.142,4.376-1.728a.658.658,0,0,1,.892.268q2.9,3.656,5.822,7.29c.309.383.319.6-.1.913-1.019.76-2,1.574-2.986,2.375-.267.216-.454.364-.752-.014-2.385-3.02-4.79-6.023-7.248-9.1" fill="#88c6fa"/>
        <path id="Trazado_279558" data-name="Trazado 279558" d="M89.691,88.894c-.064.094-.152.244-.259.379-2.245,2.813-4.5,5.619-6.731,8.443-.282.357-.462.407-.82.106-.973-.816-1.961-1.615-2.975-2.38-.4-.305-.436-.518-.116-.913,1.951-2.415,3.881-4.847,5.817-7.275.18-.225.338-.447.693-.305,1.373.546,2.752,1.078,4.128,1.617.124.048.28.068.263.328" fill="#88c6fa"/>
        <path id="Trazado_279559" data-name="Trazado 279559" d="M90.583,33.043a21.409,21.409,0,0,1,5,10.674c.089.509-.074.688-.6.675-1.309-.031-2.619-.017-3.928-.006-.4,0-.686-.032-.683-.548.027-3.568.037-7.136.057-10.7,0-.018.057-.035.153-.091" fill="#f4ba61"/>
        <path id="Trazado_279560" data-name="Trazado 279560" d="M56.52,44.342c-1.059.013-2.118.011-3.176.046-.485.016-.725-.09-.63-.647a21.551,21.551,0,0,1,5.129-10.813V37.92c-.084.336-.162.674-.255,1.007a28.376,28.376,0,0,0-1.068,5.415" fill="#f7a40f"/>
        <path id="Trazado_279561" data-name="Trazado 279561" d="M53.548,47.6l.015,4.078c-2.186.025-4.371.059-6.556.07a.807.807,0,0,1-.9-.927c0-.035,0-.071,0-.106.043-3.709-.472-3.12,3-3.156,1.48-.015,2.962.026,4.444.041" fill="#ecb55f"/>
        <path id="Trazado_279562" data-name="Trazado 279562" d="M56.123,62.049c.1,1.273.028,1.33-1.113.9a4.576,4.576,0,0,1-2.779-6.24C53,55,53.514,54.764,55.881,55c.012.312-.22.506-.351.752a5.567,5.567,0,0,0,.593,6.293" fill="#fcaf9e"/>
        <path id="Trazado_279563" data-name="Trazado 279563" d="M94.982,61.836a2.622,2.622,0,0,1-.36.369c-.7.48-1.529,1.193-2.265.858-.606-.276-.211-1.337-.228-2.045-.041-1.726.012-3.455-.026-5.182-.014-.654.129-.991.861-.907.592.067,1.193.053,1.789.075,0,1.918,0,3.836.008,5.754,0,.366-.135.778.221,1.078" fill="#fcaf9e"/>
        <path id="Trazado_279564" data-name="Trazado 279564" d="M94.982,61.836c-.356-.3-.219-.712-.221-1.078-.013-1.918-.007-3.836-.008-5.754,1.274.63,2.073,2.826,1.621,4.566a3.818,3.818,0,0,1-1.392,2.266" fill="#fcccbc"/>
        <path id="Trazado_279565" data-name="Trazado 279565" d="M56.123,62.049a5.567,5.567,0,0,1-.593-6.293c.131-.246.363-.44.351-.752.3.017.3.244.3.451q-.022,3.3-.054,6.594" fill="#fcccbc"/>
        <path id="Trazado_279566" data-name="Trazado 279566" d="M56.52,44.342a28.376,28.376,0,0,1,1.068-5.415c.093-.333.171-.671.255-1.007a52.819,52.819,0,0,1,.055,5.915c-.019,1.035-.89.394-1.378.507" fill="#ecb55f"/>
        <path id="Trazado_279567" data-name="Trazado 279567" d="M60.747,113.283c-1.555,0-3.111.013-4.666,0-1.141-.014-1.864-.65-1.858-1.585a1.67,1.67,0,0,1,1.873-1.6q4.719-.028,9.438,0c1.167.007,1.834.633,1.832,1.61s-.657,1.557-1.847,1.57c-1.591.017-3.181,0-4.772,0" fill="#020507"/>
        <path id="Trazado_279568" data-name="Trazado 279568" d="M87.315,113.281c-1.555,0-3.109.018-4.664,0-1.129-.017-1.744-.582-1.759-1.542a1.551,1.551,0,0,1,1.7-1.63q4.875-.045,9.751,0a1.583,1.583,0,0,1,1.669,1.671,1.557,1.557,0,0,1-1.711,1.5c-1.661.026-3.321.007-4.982.008" fill="#020507"/>
      </g>
    </g>
  </g>
</svg>
