<svg xmlns="http://www.w3.org/2000/svg" xmlns:xlink="http://www.w3.org/1999/xlink" width="151.267" height="148.29" viewBox="0 0 151.267 148.29">
  <defs>
    <clipPath id="clip-path">
      <rect id="Rectángulo_325506" data-name="Rectángulo 325506" width="151.267" height="148.29" fill="none"/>
    </clipPath>
  </defs>
  <g id="Grupo_261792" data-name="Grupo 261792" transform="translate(-479.146 -3173)">
    <g id="Grupo_261726" data-name="Grupo 261726" transform="translate(479.146 3173)">
      <g id="Grupo_261725" data-name="Grupo 261725" clip-path="url(#clip-path)">
        <path id="Trazado_279569" data-name="Trazado 279569" d="M148.29,74.145A74.145,74.145,0,1,1,74.145,0,74.145,74.145,0,0,1,148.29,74.145" fill="#e2e8ec"/>
        <path id="Trazado_279570" data-name="Trazado 279570" d="M132.825,80.1a21.272,21.272,0,0,0-.88,4.439,90.3,90.3,0,0,1-4.237,16.142,11.169,11.169,0,0,1-4.744,5.636c-4.343,2.678-9.136,4.253-13.976,5.7-5.2,1.551-10.494,2.743-15.81,3.82a9.49,9.49,0,0,1-10.511-4.709,8.488,8.488,0,0,0-14.841-.069,9.581,9.581,0,0,1-8.71,5,22.64,22.64,0,0,1-4.747-.845A126.537,126.537,0,0,1,32.526,108.9c-.241-.1-.488-.19-.724-.3-7.926-3.784-8.261-4.88-10.765-12.949a107.1,107.1,0,0,1-3.378-16.482,4.01,4.01,0,0,1,.144-1.553q2.74-11.053,5.457-22.112a5.212,5.212,0,0,1,.692-1.524c6.171-9.845,14.915-16.545,25.582-20.873,1.624-.659,3.295-1.219,4.976-1.718,3.274-.973,5.792,1.451,5.022,4.79-1.188,5.155-4.633,8.311-9.264,10.4a14.516,14.516,0,0,1-2.3.872c-4.9,1.267-8.609,4.233-11.647,8.148-.757.975-1.4,2.039-2.151,3.016-.473.614-.366.882.322,1.212a62,62,0,0,0,13.237,4.513c11.2,2.529,22.556,3.017,33.978,2.6a105.425,105.425,0,0,0,24.525-3.488,55.429,55.429,0,0,0,9.746-3.652c.283-.14.958-.157.534-.817-3.134-4.876-6.808-9.149-12.551-11.046A29.064,29.064,0,0,1,97.868,45.4a14.262,14.262,0,0,1-7-9.335c-.692-3.14,1.8-5.659,4.855-4.73,12.994,3.949,23.608,11.172,30.862,22.865,1.113,1.794,1.219,3.986,1.732,6.007,1.48,5.835,2.893,11.688,4.339,17.532.012.049.111.077.169.115Zm-8.1.892c-.786.017-1.574.008-2.358.055q-19.14,1.161-38.313,1.318c-12.182.1-24.362.023-36.539-.414q-12.36-.444-24.7-1.21c-.817-.05-1.046.15-.9.966a105.6,105.6,0,0,0,2.906,13.145c2.2,7.027,2.076,7.46,9.634,10.65,6.853,2.892,14.1,4.51,21.337,6.092q.932.2,1.865.4c3.116.652,5.238-.307,6.948-3.014,2.9-4.6,7.079-6.67,12.49-5.929a11.779,11.779,0,0,1,8.725,5.889c1.705,2.793,3.85,3.722,7.028,3.036,1.975-.425,3.955-.827,5.92-1.3a103,103,0,0,0,15.355-4.537,28.946,28.946,0,0,0,6.9-3.117,7.138,7.138,0,0,0,3.071-3.716c2.258-5.695,3.37-11.669,4.437-17.659.116-.653-.035-.979-.791-.909a24.11,24.11,0,0,0-3.011.248M75.245,78.547c5.285-.092,10.57-.026,15.857-.147q11.973-.273,23.934-.8c4.154-.181,8.3-.467,12.457-.677.785-.04.942-.343.759-1.069-1.318-5.224-2.627-10.451-3.892-15.688-.192-.8-.378-.777-.971-.338a47.282,47.282,0,0,1-14.871,6.991A104.992,104.992,0,0,1,82.049,70.8c-11.407.416-22.781.006-33.99-2.417C40.545,66.754,33.305,64.395,27,59.793c-.545-.4-.73-.433-.911.318q-1.917,7.91-3.921,15.8c-.2.788.114,1,.831,1.019,1.272.042,2.542.156,3.814.214,8.347.377,16.691.839,25.042,1.1,7.794.239,15.592.416,23.393.311m47.427-23.3c-.138-.212-.273-.435-.424-.647A50.1,50.1,0,0,0,95.73,35.356c-.329-.1-.748-.466-1.03-.136-.24.281.053.715.167,1.049,1.075,3.149,3.374,5.127,6.277,6.542,1.693.825,3.532,1.231,5.265,1.931,5.508,2.224,9.4,6.29,12.634,11.1,1.119,1.667,1.111,1.686,2.691.361.333-.279.784-.461.938-.96M30.316,57.31c.353-.074.439-.49.625-.779A31.052,31.052,0,0,1,41.656,45.844,47.436,47.436,0,0,1,47.92,43.4c3.549-1.39,6.47-3.478,7.682-7.325.089-.283.4-.655.077-.922-.238-.2-.565.038-.846.126A50.429,50.429,0,0,0,28.151,54.67a1.782,1.782,0,0,0-.332.682,8.508,8.508,0,0,0,2.5,1.958" fill="#020303"/>
        <path id="Trazado_279571" data-name="Trazado 279571" d="M114.124,106.148a103,103,0,0,1-15.355,4.537c-1.964.468-3.945.87-5.92,1.3-3.177.685-5.322-.244-7.028-3.036a11.772,11.772,0,0,0-8.724-5.889c-5.411-.742-9.586,1.333-12.49,5.928-1.711,2.707-3.833,3.667-6.949,3.014-.622-.13-1.244-.265-1.865-.4-7.241-1.582-14.484-3.2-21.336-6.092-7.559-3.19-7.431-3.623-9.634-10.65a105.4,105.4,0,0,1-2.907-13.144c-.145-.817.085-1.017.9-.967q12.344.75,24.7,1.21c12.178.437,24.357.512,36.54.414q19.173-.153,38.312-1.317c.784-.048,1.572-.039,2.359-.056-.076.591-.13,1.186-.229,1.773a101.279,101.279,0,0,1-3.835,15.988,10.856,10.856,0,0,1-5.314,6.515c-.44.229-1.042.277-1.228.877M109.747,88.3a1.87,1.87,0,0,0-1.127-1.806,1.922,1.922,0,0,0-2.258.488q-6.589,6.588-13.174,13.183a1.931,1.931,0,1,0,2.745,2.692q6.568-6.531,13.105-13.092a2.128,2.128,0,0,0,.709-1.465M38.833,103.534a1.332,1.332,0,0,0,1.046-.373Q46.775,96.3,53.634,89.4a1.683,1.683,0,0,0,.064-2.28,1.867,1.867,0,0,0-2.205-.673,2.378,2.378,0,0,0-.991.716q-6.441,6.445-12.883,12.891a3.133,3.133,0,0,0-.564.693,1.9,1.9,0,0,0,1.778,2.79m49.794-5.717a2.506,2.506,0,0,0,1.7-.871c2.352-2.356,4.715-4.7,7.058-7.067,1-1.009,1.1-2.143.3-2.968-.822-.856-2-.762-3.051.272-1.437,1.419-2.859,2.854-4.287,4.283-1,1.006-2.023,2-3.007,3.024a1.833,1.833,0,0,0-.435,2.161,1.961,1.961,0,0,0,1.716,1.166M42.564,88.165A1.9,1.9,0,0,0,41.422,86.5a1.949,1.949,0,0,0-2.258.484c-2.451,2.467-4.921,4.917-7.368,7.387a1.92,1.92,0,0,0-.15,2.873,1.9,1.9,0,0,0,2.875-.194c2.446-2.42,4.868-4.864,7.305-7.292a2.306,2.306,0,0,0,.738-1.593" fill="#00bbd3"/>
        <path id="Trazado_279572" data-name="Trazado 279572" d="M75.245,78.547c-7.8.105-15.6-.072-23.393-.311-8.351-.256-16.695-.718-25.042-1.1-1.272-.058-2.542-.172-3.814-.214-.717-.024-1.03-.231-.831-1.019q1.989-7.891,3.921-15.8c.182-.751.366-.716.911-.318,6.308,4.6,13.548,6.961,21.062,8.586C59.268,70.8,70.642,71.212,82.049,70.8a104.992,104.992,0,0,0,26.469-3.975,47.282,47.282,0,0,0,14.871-6.991c.593-.439.779-.46.971.338,1.265,5.237,2.574,10.464,3.892,15.688.183.726.026,1.029-.759,1.069-4.153.21-8.3.5-12.457.677q-11.963.523-23.934.8c-5.287.121-10.572.055-15.857.147" fill="#00828e"/>
        <path id="Trazado_279573" data-name="Trazado 279573" d="M122.672,55.248c-.154.5-.6.681-.938.96-1.58,1.325-1.572,1.306-2.691-.361-3.231-4.815-7.126-8.881-12.634-11.1-1.734-.7-3.572-1.106-5.265-1.931-2.9-1.416-5.2-3.393-6.277-6.542-.114-.334-.407-.768-.167-1.049.282-.33.7.034,1.03.136A50.1,50.1,0,0,1,122.248,54.6c.151.211.285.435.424.647" fill="#5e7b88"/>
        <path id="Trazado_279574" data-name="Trazado 279574" d="M30.316,57.31a8.508,8.508,0,0,1-2.5-1.958,1.782,1.782,0,0,1,.332-.682A50.429,50.429,0,0,1,54.833,35.277c.281-.088.608-.324.846-.126.322.267.012.639-.077.922C54.39,39.92,51.469,42.008,47.92,43.4a47.436,47.436,0,0,0-6.264,2.446A31.052,31.052,0,0,0,30.941,56.531c-.186.289-.272.705-.625.779" fill="#5e7b88"/>
        <path id="Trazado_279575" data-name="Trazado 279575" d="M114.124,106.148c.186-.6.788-.648,1.228-.877a10.858,10.858,0,0,0,5.314-6.516A101.226,101.226,0,0,0,124.5,82.767c.1-.587.153-1.181.228-1.772a24.11,24.11,0,0,1,3.012-.248c.756-.07.906.256.79.909-1.067,5.99-2.178,11.964-4.437,17.659a7.134,7.134,0,0,1-3.071,3.716,28.929,28.929,0,0,1-6.9,3.117" fill="#00818d"/>
        <path id="Trazado_279576" data-name="Trazado 279576" d="M109.747,88.3a2.13,2.13,0,0,1-.709,1.465q-6.552,6.547-13.106,13.092a1.93,1.93,0,1,1-2.744-2.692q6.571-6.606,13.174-13.183a1.923,1.923,0,0,1,2.258-.488,1.871,1.871,0,0,1,1.127,1.806" fill="#eef3f3"/>
        <path id="Trazado_279577" data-name="Trazado 279577" d="M38.833,103.534a1.9,1.9,0,0,1-1.779-2.79,3.138,3.138,0,0,1,.565-.693Q44.057,93.6,50.5,87.16a2.374,2.374,0,0,1,.992-.716,1.867,1.867,0,0,1,2.205.673,1.683,1.683,0,0,1-.064,2.28q-6.843,6.917-13.756,13.764a1.325,1.325,0,0,1-1.045.373" fill="#f1f3f4"/>
        <path id="Trazado_279578" data-name="Trazado 279578" d="M88.627,97.817a1.961,1.961,0,0,1-1.716-1.166,1.833,1.833,0,0,1,.436-2.161c.983-1.026,2-2.018,3.006-3.024,1.428-1.429,2.85-2.864,4.288-4.283,1.048-1.034,2.228-1.128,3.051-.272.792.825.695,1.959-.3,2.968-2.344,2.365-4.707,4.711-7.059,7.067a2.5,2.5,0,0,1-1.7.871" fill="#f0f3f3"/>
        <path id="Trazado_279579" data-name="Trazado 279579" d="M42.564,88.165a2.306,2.306,0,0,1-.738,1.593c-2.437,2.428-4.859,4.872-7.305,7.292a1.9,1.9,0,0,1-2.875.194,1.92,1.92,0,0,1,.15-2.873c2.447-2.47,4.917-4.92,7.368-7.387a1.949,1.949,0,0,1,2.258-.484,1.9,1.9,0,0,1,1.142,1.665" fill="#f1f3f4"/>
      </g>
    </g>
  </g>
</svg>
