<svg xmlns="http://www.w3.org/2000/svg" width="345.416" height="283.419" viewBox="0 0 345.416 283.419">
  <g id="Grupo_262119" data-name="Grupo 262119" transform="translate(-364.677 -1137.674)">
    <g id="Grupo_261825" data-name="Grupo 261825">
      <path id="Trazado_279877" data-name="Trazado 279877" d="M406.381,489.376C350.648,453.739,343,453.253,292.814,475.467c-54.371,24.065-86.843,2.027-90.646-35.761-6.478-64.364,100.007-43.634,88.925-125.732-8.165-60.49,21.114-87.311,60.5-93.772,38.967-6.393,93.514,5.892,90.477,63.271-1.681,31.742-36.634,57.475-4.983,72.235,32.739,15.268,83.043,10.222,93.166,70.848,10.034,60.086-71.766,96.136-123.869,62.82" transform="translate(179 919)" fill="#e5f2f8"/>
      <path id="Trazado_279878" data-name="Trazado 279878" d="M470.547,287.394c17.716-9.5,38.974-4.341,47.483,11.524s1.046,36.43-16.67,45.93-50.058,12.258-58.567-3.607,10.039-44.347,27.754-53.847" transform="translate(179 919)" fill="#e7f4fa"/>
      <rect id="Rectángulo_325569" data-name="Rectángulo 325569" width="10.092" height="45.113" transform="translate(533.968 1179.297)" fill="#64b4d7"/>
      <rect id="Rectángulo_325570" data-name="Rectángulo 325570" width="10.092" height="45.113" transform="translate(533.968 1315.548)" fill="#64b4d7"/>
      <rect id="Rectángulo_325571" data-name="Rectángulo 325571" width="62.307" height="229.414" transform="translate(364.677 1159.877)" fill="#64b4d7"/>
      <rect id="Rectángulo_325572" data-name="Rectángulo 325572" width="110.01" height="229.414" transform="translate(426.984 1159.877)" fill="#c1e4fa"/>
      <rect id="Rectángulo_325573" data-name="Rectángulo 325573" width="67.247" height="229.414" transform="translate(541.033 1159.877)" fill="#c1e4fa"/>
      <rect id="Rectángulo_325574" data-name="Rectángulo 325574" width="29.252" height="49.331" transform="translate(381.206 1329.363)" fill="#848fb7"/>
      <rect id="Rectángulo_325575" data-name="Rectángulo 325575" width="22.022" height="2.145" transform="translate(384.821 1334.618)" fill="#464f72"/>
      <rect id="Rectángulo_325576" data-name="Rectángulo 325576" width="22.022" height="2.145" transform="translate(384.821 1338.363)" fill="#464f72"/>
      <rect id="Rectángulo_325577" data-name="Rectángulo 325577" width="22.022" height="2.148" transform="translate(384.821 1342.197)" fill="#464f72"/>
      <rect id="Rectángulo_325578" data-name="Rectángulo 325578" width="22.022" height="2.145" transform="translate(384.821 1345.945)" fill="#464f72"/>
      <rect id="Rectángulo_325579" data-name="Rectángulo 325579" width="22.022" height="2.145" transform="translate(384.821 1349.758)" fill="#464f72"/>
      <rect id="Rectángulo_325580" data-name="Rectángulo 325580" width="22.022" height="2.145" transform="translate(384.821 1353.503)" fill="#464f72"/>
      <rect id="Rectángulo_325581" data-name="Rectángulo 325581" width="22.022" height="2.145" transform="translate(384.821 1357.337)" fill="#464f72"/>
      <rect id="Rectángulo_325582" data-name="Rectángulo 325582" width="22.022" height="2.145" transform="translate(384.821 1361.085)" fill="#464f72"/>
      <rect id="Rectángulo_325583" data-name="Rectángulo 325583" width="22.022" height="2.145" transform="translate(384.821 1365.637)" fill="#464f72"/>
      <rect id="Rectángulo_325584" data-name="Rectángulo 325584" width="22.022" height="2.145" transform="translate(384.821 1369.472)" fill="#464f72"/>
      <rect id="Rectángulo_325585" data-name="Rectángulo 325585" width="22.022" height="2.144" transform="translate(384.821 1373.22)" fill="#464f72"/>
      <path id="Trazado_279879" data-name="Trazado 279879" d="M231.826,302.751H201.838l14.994-29.988Z" transform="translate(179 919)" fill="#6d76a1"/>
      <path id="Trazado_279880" data-name="Trazado 279880" d="M204.737,300.721l12.094-23.555,12.1,23.555Z" transform="translate(179 919)" fill="#ffcf03"/>
      <path id="Trazado_279881" data-name="Trazado 279881" d="M214.375,298.762l-.232-10.637,2.742,3.708.743-9.365.049,12.2-2.219-3.076Z" transform="translate(179 919)" fill="#6d76a1"/>
      <rect id="Rectángulo_325586" data-name="Rectángulo 325586" width="84.02" height="35.089" transform="translate(440.611 1178.845)" fill="#6d76a1"/>
      <rect id="Rectángulo_325587" data-name="Rectángulo 325587" width="60.875" height="17.544" transform="translate(459.473 1182.99)" fill="#464f72"/>
      <rect id="Rectángulo_325588" data-name="Rectángulo 325588" width="84.02" height="9.526" transform="translate(440.611 1222.575)" fill="#6d76a1"/>
      <rect id="Rectángulo_325589" data-name="Rectángulo 325589" width="6.295" height="34.919" transform="translate(440.61 1243.449)" fill="#6d76a1"/>
      <rect id="Rectángulo_325590" data-name="Rectángulo 325590" width="6.295" height="34.919" transform="translate(451.801 1243.449)" fill="#6d76a1"/>
      <rect id="Rectángulo_325591" data-name="Rectángulo 325591" width="6.298" height="34.919" transform="translate(462.992 1243.449)" fill="#6d76a1"/>
      <rect id="Rectángulo_325592" data-name="Rectángulo 325592" width="6.298" height="34.919" transform="translate(474.182 1243.449)" fill="#6d76a1"/>
      <rect id="Rectángulo_325593" data-name="Rectángulo 325593" width="6.298" height="34.919" transform="translate(483.625 1243.449)" fill="#6d76a1"/>
      <rect id="Rectángulo_325594" data-name="Rectángulo 325594" width="6.295" height="34.919" transform="translate(494.819 1243.449)" fill="#6d76a1"/>
      <rect id="Rectángulo_325595" data-name="Rectángulo 325595" width="6.295" height="34.919" transform="translate(506.009 1243.449)" fill="#6d76a1"/>
      <rect id="Rectángulo_325596" data-name="Rectángulo 325596" width="6.295" height="34.919" transform="translate(517.2 1243.449)" fill="#6d76a1"/>
      <rect id="Rectángulo_325597" data-name="Rectángulo 325597" width="0.792" height="69.763" transform="translate(519.951 1274.582)" fill="#6d76a1"/>
      <rect id="Rectángulo_325598" data-name="Rectángulo 325598" width="0.792" height="69.763" transform="translate(508.761 1274.582)" fill="#6d76a1"/>
      <rect id="Rectángulo_325599" data-name="Rectángulo 325599" width="0.792" height="69.763" transform="translate(497.57 1274.582)" fill="#6d76a1"/>
      <rect id="Rectángulo_325600" data-name="Rectángulo 325600" width="0.792" height="69.763" transform="translate(486.379 1274.582)" fill="#6d76a1"/>
      <rect id="Rectángulo_325601" data-name="Rectángulo 325601" width="0.792" height="69.763" transform="translate(476.938 1274.582)" fill="#6d76a1"/>
      <rect id="Rectángulo_325602" data-name="Rectángulo 325602" width="0.792" height="69.763" transform="translate(465.743 1274.582)" fill="#6d76a1"/>
      <rect id="Rectángulo_325603" data-name="Rectángulo 325603" width="0.792" height="69.763" transform="translate(454.553 1274.582)" fill="#6d76a1"/>
      <rect id="Rectángulo_325604" data-name="Rectángulo 325604" width="0.792" height="69.763" transform="translate(443.362 1274.582)" fill="#6d76a1"/>
      <rect id="Rectángulo_325605" data-name="Rectángulo 325605" width="84.02" height="4.224" transform="translate(440.611 1343.594)" fill="#6d76a1"/>
      <path id="Trazado_279882" data-name="Trazado 279882" d="M264.482,328.658l-1.585-.012.044-6.119a4.175,4.175,0,0,1,4.047-4.249h.028l10.48.077h.015a2.13,2.13,0,0,0,1.555-.69,2.565,2.565,0,0,0,.688-1.757l.056-7.589,1.585.012-.056,7.589a4.152,4.152,0,0,1-1.122,2.835,3.705,3.705,0,0,1-2.734,1.185L267,319.863h-.016a2.593,2.593,0,0,0-2.463,2.677Z" transform="translate(179 919)" fill="#6d76a1"/>
      <path id="Trazado_279883" data-name="Trazado 279883" d="M287.074,328.649l-1.584-.012.046-6.122a4.383,4.383,0,0,1,1.187-3,3.9,3.9,0,0,1,2.855-1.25h.034l10.476.074a2.353,2.353,0,0,0,1.572-.689,2.575,2.575,0,0,0,.69-1.756l.056-7.591,1.584.012-.055,7.592a4.162,4.162,0,0,1-1.124,2.833,3.7,3.7,0,0,1-2.7,1.184h-.034l-10.475-.075h-.018a2.338,2.338,0,0,0-1.707.755,2.812,2.812,0,0,0-.753,1.919Z" transform="translate(179 919)" fill="#6d76a1"/>
      <path id="Trazado_279884" data-name="Trazado 279884" d="M308.3,328.642l-1.584-.012.046-6.118a4,4,0,0,1,3.806-4.249l9.61.07h.009a2.276,2.276,0,0,0,2-2.45l.056-7.591,1.584.011-.055,7.593a3.848,3.848,0,0,1-3.586,4.022h-.018l-9.611-.072h-.014a2.491,2.491,0,0,0-2.2,2.677Z" transform="translate(179 919)" fill="#6d76a1"/>
      <path id="Trazado_279885" data-name="Trazado 279885" d="M330.225,328.651l-1.584-.012.043-6.117a4.962,4.962,0,0,1,.933-2.931,3.1,3.1,0,0,1,2.448-1.323h.023l8.322.063h.005a1.414,1.414,0,0,0,1.066-.625,3.131,3.131,0,0,0,.563-1.83l.056-7.587,1.585.012-.056,7.588a4.687,4.687,0,0,1-.881,2.767,2.948,2.948,0,0,1-2.332,1.259H340.4l-8.322-.061h-.009a1.564,1.564,0,0,0-1.183.69,3.415,3.415,0,0,0-.615,1.99Z" transform="translate(179 919)" fill="#6d76a1"/>
      <rect id="Rectángulo_325606" data-name="Rectángulo 325606" width="84.02" height="13.209" transform="translate(440.611 1354.573)" fill="#6d76a1"/>
      <rect id="Rectángulo_325607" data-name="Rectángulo 325607" width="6.295" height="9.083" transform="translate(440.61 1292.406)" fill="#6d76a1"/>
      <rect id="Rectángulo_325608" data-name="Rectángulo 325608" width="6.295" height="9.083" transform="translate(451.801 1318.142)" fill="#6d76a1"/>
      <rect id="Rectángulo_325609" data-name="Rectángulo 325609" width="6.298" height="9.083" transform="translate(462.992 1296.945)" fill="#6d76a1"/>
      <rect id="Rectángulo_325610" data-name="Rectángulo 325610" width="6.295" height="9.083" transform="translate(474.182 1331.148)" fill="#6d76a1"/>
      <rect id="Rectángulo_325611" data-name="Rectángulo 325611" width="6.295" height="9.083" transform="translate(483.628 1287.863)" fill="#6d76a1"/>
      <rect id="Rectángulo_325612" data-name="Rectángulo 325612" width="6.295" height="9.083" transform="translate(505.285 1292.406)" fill="#6d76a1"/>
      <rect id="Rectángulo_325613" data-name="Rectángulo 325613" width="6.295" height="9.086" transform="translate(517.2 1326.605)" fill="#6d76a1"/>
      <rect id="Rectángulo_325614" data-name="Rectángulo 325614" width="40.161" height="229.414" transform="translate(425.978 1159.813)" fill="#4ca1bf"/>
      <rect id="Rectángulo_325615" data-name="Rectángulo 325615" width="4.036" height="55.456" transform="translate(425.979 1182.011)" fill="#c1e4fa"/>
      <rect id="Rectángulo_325616" data-name="Rectángulo 325616" width="4.036" height="55.458" transform="translate(425.979 1309.177)" fill="#c1e4fa"/>
      <path id="Trazado_279886" data-name="Trazado 279886" d="M340.578,306.713l26.152-20.645,5.569,17.416,42.555-55.049-40.113,31.671-5.49-16.159Z" transform="translate(179 919)" fill="#ffd500"/>
      <path id="Trazado_279887" data-name="Trazado 279887" d="M331.941,298.223l4.66-28.088,13.535,7.807-4.754-59.268-7.145,43.086L325.475,254.7Z" transform="translate(179 919)" fill="#ffd500"/>
      <path id="Trazado_279888" data-name="Trazado 279888" d="M454.773,317.85s-14.628-20.047-24.588-21.916-13.3,5.71-13.3,5.71S438.361,312,443.843,321.489s10.93-3.639,10.93-3.639" transform="translate(179 919)" fill="#e9b79c"/>
      <path id="Trazado_279889" data-name="Trazado 279889" d="M437.021,323.774c-.13.311-2.19.7-2.5.8-2.728.878-5.327,2.182-8.227,2.428a8.021,8.021,0,0,1-4.006-.6,10.023,10.023,0,0,1-2.009-1.3c-.244-.192-.56-.4-.839-.264a.642.642,0,0,0-.255.711c.13.675.743,1.127,1.155,1.676.259.345.685.973.586,1.437-.091.434-.643.736-1.009.89a13.221,13.221,0,0,1-3.72.818c-1.021.116-2.22.037-2.217,1.367a3.485,3.485,0,0,1-.373,1.272.862.862,0,0,0-.026.655,1.4,1.4,0,0,0,.181.258,1.727,1.727,0,0,1,.3.622,1.438,1.438,0,0,0,.145.444.684.684,0,0,0,.506.273,12.923,12.923,0,0,0,1.5.09c.59-.008,1.179.078,1.768.031.486-.04.935-.172,1.426-.206a61.181,61.181,0,0,0,6.9-1.271,43.014,43.014,0,0,0,6.605-2.648c1.271-.727,4.1-7.489,4.1-7.489" transform="translate(179 919)" fill="#e9b79c"/>
      <path id="Trazado_279890" data-name="Trazado 279890" d="M453.9,324.394c-6.275,5.122-27.582,9.517-27.582,9.517l1.778-6.055,22.275-13.089s9.8,4.5,3.529,9.627" transform="translate(179 919)" fill="#e9b79c"/>
      <path id="Trazado_279891" data-name="Trazado 279891" d="M440.684,298.654s3.242.668,2.3,2.63a2.119,2.119,0,0,1-2.665,1.3,2.075,2.075,0,0,1-.053,3.173,1.809,1.809,0,0,1-2.495-.071,2.023,2.023,0,0,1,.176,3.11c-1.041,1.257-2.612-.1-2.612-.1s2.027,1.269.631,2.879-2.874-.75-2.874-.75,1.6,2.149.217,3.47-2.7-2.185-2.7-2.185Z" transform="translate(179 919)" fill="#fbfcfb"/>
      <path id="Trazado_279892" data-name="Trazado 279892" d="M441.077,298.8s-18.964-15.39-25.7-7.085c-7.611,9.389,15.964,21.849,15.964,21.849s9.093-7.621,9.732-14.764" transform="translate(179 919)" fill="#3f8fd8"/>
      <path id="Trazado_279893" data-name="Trazado 279893" d="M489.076,448.962s6.014,6.657,6.2,8.217c.54,4.652-11.739,14.707-17.7,15.631-.832.129-2.259-.505-2-2.827s6.065-9.406,3.373-12.015,10.13-9.006,10.13-9.006" transform="translate(179 919)" fill="#e8a32b"/>
      <path id="Trazado_279894" data-name="Trazado 279894" d="M429.543,334.853s15.364-1.692,21.63,17.041c14.026,41.926,38.613,85.964,44.421,98.272a3.928,3.928,0,0,1-.155,3.652c-1.857,3.287-6.953,9.67-19.383,12.307a5.1,5.1,0,0,1-5.631-2.716l-61.96-122.946Z" transform="translate(179 919)" fill="#632059"/>
      <path id="Trazado_279895" data-name="Trazado 279895" d="M385.79,460.311s1.314,8.427.672,9.767c-1.913,3.993-16.447,5.668-21.516,3.324-.709-.328-1.494-1.572-.132-3.293s9.4-4.373,8.629-7.849,12.347-1.949,12.347-1.949" transform="translate(179 919)" fill="#e8a32b"/>
      <path id="Trazado_279896" data-name="Trazado 279896" d="M431.7,342.333s15.134,14.36,3.143,29.577c-7.453,9.459-24.507,21.323-30.95,37.035-9.979,24.335-8.08,53.347-10.75,61.717a4.159,4.159,0,0,1-4.076,2.938c-5.023-.132-15.074-1.081-23-6.162a4.422,4.422,0,0,1-1.659-5.393s6.644-53.891,13.692-70.076c6.145-14.112,35.185-47.924,35.185-47.924Z" transform="translate(179 919)" fill="#632059"/>
      <path id="Trazado_279897" data-name="Trazado 279897" d="M383.569,276.716c.133,4.691,4.75,21.769,13.2,18.553,3.607-1.369,6.886-10.624,4.943-17.383-.784-2.789-4.864-5.592-10.058-5.635-2.345-.025-8.295-.968-8.089,4.465" transform="translate(179 919)" fill="#e9b79c"/>
      <path id="Trazado_279898" data-name="Trazado 279898" d="M390.41,290.572s7.252,3.466,4.635,10.212,13.42-3.221,13.42-3.221l-9.49-15.722Z" transform="translate(179 919)" fill="#e9b79c"/>
      <path id="Trazado_279899" data-name="Trazado 279899" d="M392.4,301.479a44.989,44.989,0,0,1,25.313-9.427c13.979-.6,11.755,23.309,12,26.874,1.252,18.566,12.517,13.508,12.255,17.945-.471,7.969-18.782,17.79-30.759,18.88-4.682.427-9.162-.289-8.973-2.535,1.339-15.988-7.034-21.995-10.506-30.573-3.559-8.793-6.232-15.784.674-21.164" transform="translate(179 919)" fill="#56a0fd"/>
      <path id="Trazado_279900" data-name="Trazado 279900" d="M412.759,358.375c-2.356,3.932-8.69,13.57-14.316,9.995-.753-.479-.152-1.753.612-1.267,4.668,2.967,10.452-6.026,12.437-9.34.461-.768,1.734-.167,1.267.612" transform="translate(179 919)" fill="#9c67d3"/>
      <path id="Trazado_279901" data-name="Trazado 279901" d="M433.133,363.279a18.348,18.348,0,0,1-3.99,13.374c-.646.809.5,1.967,1.149,1.149a19.925,19.925,0,0,0,4.466-14.523c-.129-1.024-1.755-1.037-1.625,0" transform="translate(179 919)" fill="#9c67d3"/>
      <path id="Trazado_279902" data-name="Trazado 279902" d="M386.951,347.751s13.327-20.934,11.432-30.889-10.169-10.3-10.169-10.3-1.8,23.774-8.639,32.341,7.376,8.848,7.376,8.848" transform="translate(179 919)" fill="#e9b79c"/>
      <path id="Trazado_279903" data-name="Trazado 279903" d="M370.726,337.214c-.3.151-2.118-.894-2.418-1.02-2.643-1.109-5.465-1.811-7.826-3.512a8.027,8.027,0,0,1-2.652-3.061,10.045,10.045,0,0,1-.682-2.293c-.059-.3-.164-.667-.464-.746a.644.644,0,0,0-.657.374,4.618,4.618,0,0,0-.214,2.024,2.207,2.207,0,0,1-.49,1.472,1.617,1.617,0,0,1-1.346.02,13.279,13.279,0,0,1-3.357-1.8c-.849-.577-1.709-1.417-2.572-.4a3.511,3.511,0,0,1-1.111.723.867.867,0,0,0-.447.48,1.43,1.43,0,0,0-.029.314,1.711,1.711,0,0,1-.175.669,1.444,1.444,0,0,0-.179.431.685.685,0,0,0,.206.538,13.036,13.036,0,0,0,1.082,1.045c.452.378.844.828,1.323,1.175.4.287.821.479,1.215.772a61.169,61.169,0,0,0,6.069,3.53,43.128,43.128,0,0,0,6.738,2.29c1.439.276,7.985-3.018,7.986-3.018" transform="translate(179 919)" fill="#e9b79c"/>
      <path id="Trazado_279904" data-name="Trazado 279904" d="M383.135,348.673c-8.1-.2-27.133-10.731-27.133-10.731l5.292-3.438,25.429,4.564s4.511,9.794-3.588,9.605" transform="translate(179 919)" fill="#e9b79c"/>
      <path id="Trazado_279905" data-name="Trazado 279905" d="M399.682,327.629s.561,3.261-1.611,3.1a2.118,2.118,0,0,1-2.184-2.006,2.076,2.076,0,0,1-2.974,1.108,1.811,1.811,0,0,1-.843-2.35,2.025,2.025,0,0,1-2.833,1.3c-1.548-.511-.863-2.467-.863-2.467s-.442,2.351-2.449,1.638-.35-2.949-.35-2.949-1.417,2.276-3.154,1.468,1.051-3.311,1.051-3.311Z" transform="translate(179 919)" fill="#fbfcfb"/>
      <path id="Trazado_279906" data-name="Trazado 279906" d="M399.693,328.047s7.409-23.272-2.78-26.51c-11.519-3.66-14.517,22.836-14.517,22.836s10.414,5.685,17.3,3.674" transform="translate(179 919)" fill="#3f8fd8"/>
      <path id="Trazado_279907" data-name="Trazado 279907" d="M388.292,265.706c-6.23,5.113-5.468,12.468-3.468,14.972,4.445,5.567,3.364,11.393,7.294,15.842,4.714,5.338,9.324,7.741,10.777,10.943,1.7,3.737.354,13.464,2.945,16.649s7.728,2.18,11.153,7.324a10.648,10.648,0,0,0,9.866,5.118,17.105,17.105,0,0,0,11.623-6.688A9.071,9.071,0,0,0,440.16,324c-.243-2.246-1.582-4.2-2.734-6.139-1.933-3.261-.539-8.023-1.6-11.665-1.129-3.9-6.163-6.129-7.582-9.932-2.134-5.721-2.632-11.219-8.345-15.75-4.446-3.527-7.545-9.15-12.063-12.957-4.979-4.2-12.321-7.782-19.549-1.85" transform="translate(179 919)" fill="#282738"/>
      <path id="Trazado_279908" data-name="Trazado 279908" d="M353.735,348.484l5.454,12.04-7.237.482,17.136,21.638-8.368-18.467,6.746-.572Z" transform="translate(179 919)" fill="#ffd500"/>
    </g>
  </g>
</svg>
