<svg xmlns="http://www.w3.org/2000/svg" xmlns:xlink="http://www.w3.org/1999/xlink" width="798.786" height="677.545" viewBox="0 0 798.786 677.545">
  <defs>
    <clipPath id="clip-path">
      <rect id="Rectángulo_325001" data-name="Rectángulo 325001" width="798.786" height="677.545" fill="none"/>
    </clipPath>
  </defs>
  <g id="Grupo_261794" data-name="Grupo 261794" transform="translate(-401 -4290)">
    <g id="Grupo_260740" data-name="Grupo 260740" transform="translate(401 4290)">
      <g id="Grupo_260723" data-name="Grupo 260723">
        <g id="Grupo_260722" data-name="Grupo 260722" clip-path="url(#clip-path)">
          <path id="Trazado_278444" data-name="Trazado 278444" d="M493.845,90.747h-194.4a16.492,16.492,0,0,1-16.492-16.491V16.491A16.492,16.492,0,0,1,299.441,0h194.4a16.491,16.491,0,0,1,16.491,16.491V74.256a16.491,16.491,0,0,1-16.491,16.491" fill="#632059"/>
          <path id="Trazado_278445" data-name="Trazado 278445" d="M631.9,128.8H429.962a12.722,12.722,0,0,1-12.722-12.723V87.508a12.722,12.722,0,0,1,12.722-12.722H631.9a12.723,12.723,0,0,1,12.723,12.722v28.565A12.723,12.723,0,0,1,631.9,128.8" fill="#fffad0"/>
          <line id="Línea_795" data-name="Línea 795" y2="108.67" transform="translate(395.4 399.599)" fill="none" stroke="#12263f" stroke-miterlimit="10" stroke-width="4.115"/>
          <line id="Línea_796" data-name="Línea 796" y2="259.511" transform="translate(395.4 91.733)" fill="none" stroke="#12263f" stroke-miterlimit="10" stroke-width="4.115"/>
          <line id="Línea_797" data-name="Línea 797" y2="47.695" transform="translate(531.81 510.567)" fill="none" stroke="#12263f" stroke-miterlimit="10" stroke-width="4.518"/>
          <line id="Línea_798" data-name="Línea 798" y2="51.994" transform="translate(267.858 506.269)" fill="none" stroke="#12263f" stroke-miterlimit="10" stroke-width="4.115"/>
        </g>
      </g>
      <path id="Trazado_279876" data-name="Trazado 279876" d="M8.842-5.546H3.779v3.428H9.721V0H1.143V-12.8H9.7v2.136H3.779v3.05H8.842Zm4.6-3.964.079,1.1a3.32,3.32,0,0,1,2.733-1.274A2.759,2.759,0,0,1,18.5-8.8a4.142,4.142,0,0,1,.756,2.654V0h-2.54V-6.082a1.648,1.648,0,0,0-.352-1.173A1.574,1.574,0,0,0,15.2-7.62a1.747,1.747,0,0,0-1.608.914V0h-2.54V-9.51ZM25.559.176a4.668,4.668,0,0,1-3.406-1.283,4.561,4.561,0,0,1-1.314-3.419v-.246a5.745,5.745,0,0,1,.554-2.562,4.064,4.064,0,0,1,1.569-1.74,4.4,4.4,0,0,1,2.316-.611,3.947,3.947,0,0,1,3.072,1.23A5,5,0,0,1,29.47-4.966v1.037H23.414a2.36,2.36,0,0,0,.743,1.494,2.245,2.245,0,0,0,1.569.563A2.742,2.742,0,0,0,28.02-2.936l1.248,1.4A3.813,3.813,0,0,1,27.721-.277,5.075,5.075,0,0,1,25.559.176Zm-.29-7.813a1.587,1.587,0,0,0-1.226.512,2.651,2.651,0,0,0-.6,1.466h3.533v-.2a1.891,1.891,0,0,0-.457-1.311A1.638,1.638,0,0,0,25.269-7.638Zm10.986.51a6.9,6.9,0,0,0-.914-.07,1.86,1.86,0,0,0-1.89.976V0h-2.54V-9.51h2.4l.07,1.134A2.354,2.354,0,0,1,35.5-9.686a2.662,2.662,0,0,1,.791.114Zm.506,2.3A5.573,5.573,0,0,1,37.8-8.35,3.375,3.375,0,0,1,40.61-9.686a2.96,2.96,0,0,1,2.435,1.072l.105-.9h2.3V-.316a4.064,4.064,0,0,1-.567,2.171,3.641,3.641,0,0,1-1.6,1.406,5.608,5.608,0,0,1-2.408.483,5.215,5.215,0,0,1-2.039-.417,3.619,3.619,0,0,1-1.5-1.077L38.466.7a2.975,2.975,0,0,0,2.3,1.063,2.178,2.178,0,0,0,1.573-.541A2.027,2.027,0,0,0,42.9-.308v-.51a2.938,2.938,0,0,1-2.312.993,3.366,3.366,0,0,1-2.773-1.34A5.572,5.572,0,0,1,36.76-4.72Zm2.54.189a3.47,3.47,0,0,0,.519,2.029,1.65,1.65,0,0,0,1.424.735A1.764,1.764,0,0,0,42.9-2.744V-6.749A1.76,1.76,0,0,0,41.26-7.62a1.66,1.66,0,0,0-1.437.748A3.911,3.911,0,0,0,39.3-4.636ZM50.146,0h-2.54V-9.51h2.54ZM49.4-13.368h2.769l-2.435,2.725H47.668ZM57.845,0a2.821,2.821,0,0,1-.255-.853,3.073,3.073,0,0,1-2.4,1.028,3.376,3.376,0,0,1-2.316-.809,2.6,2.6,0,0,1-.918-2.039,2.687,2.687,0,0,1,1.121-2.32,5.529,5.529,0,0,1,3.239-.817h1.169v-.545a1.567,1.567,0,0,0-.338-1.055,1.331,1.331,0,0,0-1.068-.4,1.513,1.513,0,0,0-1.006.308,1.045,1.045,0,0,0-.365.844h-2.54a2.551,2.551,0,0,1,.51-1.529,3.37,3.37,0,0,1,1.441-1.1,5.253,5.253,0,0,1,2.092-.4A4.15,4.15,0,0,1,59-8.8a3.09,3.09,0,0,1,1.033,2.483V-2.2a4.546,4.546,0,0,0,.378,2.048V0Zm-2.1-1.767a2.188,2.188,0,0,0,1.037-.25,1.645,1.645,0,0,0,.7-.672V-4.324h-.949q-1.907,0-2.03,1.318l-.009.149a1.017,1.017,0,0,0,.334.782A1.3,1.3,0,0,0,55.745-1.767Zm19.292-2.9A5.758,5.758,0,0,1,74.061-1.1,3.231,3.231,0,0,1,71.337.176a2.969,2.969,0,0,1-2.47-1.187L68.753,0H66.467V-13.5h2.54v4.843a2.893,2.893,0,0,1,2.312-1.028,3.258,3.258,0,0,1,2.729,1.279,5.767,5.767,0,0,1,.989,3.6ZM72.5-4.852a3.783,3.783,0,0,0-.457-2.1,1.545,1.545,0,0,0-1.362-.664,1.676,1.676,0,0,0-1.67.993v3.753a1.7,1.7,0,0,0,1.688,1,1.568,1.568,0,0,0,1.617-1.213A6.257,6.257,0,0,0,72.5-4.852Zm9.448-2.276a6.9,6.9,0,0,0-.914-.07,1.86,1.86,0,0,0-1.89.976V0H76.6V-9.51H79l.07,1.134a2.354,2.354,0,0,1,2.118-1.31,2.662,2.662,0,0,1,.791.114ZM88.862-.967A3.185,3.185,0,0,1,86.26.176,3,3,0,0,1,83.927-.7a3.752,3.752,0,0,1-.822-2.575V-9.51h2.54v6.151q0,1.487,1.354,1.487a1.834,1.834,0,0,0,1.775-.9V-9.51h2.549V0H88.932ZM96.28-11.848V-9.51h1.626v1.863H96.28V-2.9a1.133,1.133,0,0,0,.2.756,1.015,1.015,0,0,0,.773.229A4.051,4.051,0,0,0,98-1.978V-.053a5.229,5.229,0,0,1-1.538.229,2.425,2.425,0,0,1-2.725-2.7V-7.646H92.351V-9.51H93.74v-2.338ZM104.832,0a2.821,2.821,0,0,1-.255-.853,3.073,3.073,0,0,1-2.4,1.028,3.376,3.376,0,0,1-2.316-.809,2.6,2.6,0,0,1-.918-2.039,2.687,2.687,0,0,1,1.121-2.32A5.529,5.529,0,0,1,103.3-5.81h1.169v-.545a1.567,1.567,0,0,0-.338-1.055,1.331,1.331,0,0,0-1.068-.4,1.513,1.513,0,0,0-1.006.308,1.045,1.045,0,0,0-.365.844h-2.54a2.551,2.551,0,0,1,.51-1.529,3.37,3.37,0,0,1,1.441-1.1,5.253,5.253,0,0,1,2.092-.4,4.15,4.15,0,0,1,2.791.883,3.09,3.09,0,0,1,1.033,2.483V-2.2A4.546,4.546,0,0,0,107.4-.149V0Zm-2.1-1.767a2.188,2.188,0,0,0,1.037-.25,1.645,1.645,0,0,0,.7-.672V-4.324h-.949q-1.907,0-2.03,1.318l-.009.149a1.017,1.017,0,0,0,.334.782A1.3,1.3,0,0,0,102.731-1.767Z" transform="translate(343.313 49.553)" fill="#def1f0"/>
      <path id="Trazado_279877" data-name="Trazado 279877" d="M10.063,0H8.555L2.828-8.766V0H1.32V-11.375H2.828L8.57-2.57v-8.8h1.492Zm2.055-4.3a4.993,4.993,0,0,1,.488-2.234A3.643,3.643,0,0,1,13.965-8.07a3.7,3.7,0,0,1,1.988-.539,3.565,3.565,0,0,1,2.793,1.2,4.6,4.6,0,0,1,1.066,3.18v.1a5.036,5.036,0,0,1-.473,2.215A3.589,3.589,0,0,1,17.988-.391a3.743,3.743,0,0,1-2.02.547,3.556,3.556,0,0,1-2.785-1.2A4.575,4.575,0,0,1,12.117-4.2Zm1.453.172a3.616,3.616,0,0,0,.652,2.258,2.088,2.088,0,0,0,1.746.852,2.075,2.075,0,0,0,1.75-.863A3.955,3.955,0,0,0,18.367-4.3a3.61,3.61,0,0,0-.66-2.254,2.1,2.1,0,0,0-1.754-.863,2.075,2.075,0,0,0-1.727.852A3.925,3.925,0,0,0,13.57-4.133ZM29.094.156A3.693,3.693,0,0,1,26.3-.973a4.19,4.19,0,0,1-1.078-3.02v-.266A5.073,5.073,0,0,1,25.7-6.5a3.748,3.748,0,0,1,1.344-1.547,3.378,3.378,0,0,1,1.871-.559,3.166,3.166,0,0,1,2.563,1.086,4.7,4.7,0,0,1,.914,3.109v.6H26.664a3,3,0,0,0,.73,2.02,2.3,2.3,0,0,0,1.777.77,2.517,2.517,0,0,0,1.3-.312,3.259,3.259,0,0,0,.93-.828l.883.688A3.55,3.55,0,0,1,29.094.156Zm-.18-7.578a1.928,1.928,0,0,0-1.469.637A3.1,3.1,0,0,0,26.711-5h4.234v-.109a2.753,2.753,0,0,0-.594-1.707A1.815,1.815,0,0,0,28.914-7.422Zm10.07,5.18a1.064,1.064,0,0,0-.441-.91A4.249,4.249,0,0,0,37-3.711a7.277,7.277,0,0,1-1.742-.562,2.479,2.479,0,0,1-.953-.781A1.869,1.869,0,0,1,34-6.133a2.193,2.193,0,0,1,.879-1.758,3.432,3.432,0,0,1,2.246-.719,3.532,3.532,0,0,1,2.332.742,2.357,2.357,0,0,1,.895,1.9H38.9a1.3,1.3,0,0,0-.5-1.023,1.888,1.888,0,0,0-1.27-.43,1.976,1.976,0,0,0-1.234.344,1.082,1.082,0,0,0-.445.9.877.877,0,0,0,.414.789,5.1,5.1,0,0,0,1.5.508,7.8,7.8,0,0,1,1.754.578,2.558,2.558,0,0,1,1,.809,1.988,1.988,0,0,1,.324,1.152,2.163,2.163,0,0,1-.906,1.816,3.8,3.8,0,0,1-2.352.684,4.257,4.257,0,0,1-1.8-.359,2.922,2.922,0,0,1-1.223-1A2.42,2.42,0,0,1,33.711-2.6h1.445a1.5,1.5,0,0,0,.582,1.152,2.258,2.258,0,0,0,1.434.426,2.331,2.331,0,0,0,1.316-.332A1.02,1.02,0,0,0,38.984-2.242ZM45.922-4.3a4.952,4.952,0,0,1,.922-3.129,2.915,2.915,0,0,1,2.414-1.184,2.932,2.932,0,0,1,2.352,1.016V-12h1.445V0H51.727l-.07-.906A2.943,2.943,0,0,1,49.242.156a2.887,2.887,0,0,1-2.395-1.2,5.008,5.008,0,0,1-.926-3.141Zm1.445.164a3.749,3.749,0,0,0,.594,2.25A1.92,1.92,0,0,0,49.6-1.07,2.108,2.108,0,0,0,51.609-2.3V-6.187a2.125,2.125,0,0,0-1.992-1.2,1.929,1.929,0,0,0-1.656.82A4.128,4.128,0,0,0,47.367-4.133ZM56.867,0H55.422V-8.453h1.445ZM55.3-10.7a.863.863,0,0,1,.215-.594.807.807,0,0,1,.637-.242.819.819,0,0,1,.641.242.854.854,0,0,1,.219.594.826.826,0,0,1-.219.586.834.834,0,0,1-.641.234.821.821,0,0,1-.637-.234A.834.834,0,0,1,55.3-10.7Zm3.531,6.4a4.968,4.968,0,0,1,.914-3.145,2.923,2.923,0,0,1,2.422-1.168,2.908,2.908,0,0,1,2.414,1.094l.07-.937h1.32V-.2A3.439,3.439,0,0,1,65,2.383a3.589,3.589,0,0,1-2.613.945A4.348,4.348,0,0,1,60.6,2.938a3.08,3.08,0,0,1-1.336-1.07L60.016,1a2.826,2.826,0,0,0,2.273,1.148,2.214,2.214,0,0,0,1.645-.594,2.269,2.269,0,0,0,.59-1.672V-.844a2.971,2.971,0,0,1-2.367,1,2.887,2.887,0,0,1-2.4-1.2A5.224,5.224,0,0,1,58.836-4.3Zm1.453.164a3.79,3.79,0,0,0,.586,2.246,1.9,1.9,0,0,0,1.641.816,2.117,2.117,0,0,0,2.008-1.242V-6.172a2.142,2.142,0,0,0-1.992-1.211,1.921,1.921,0,0,0-1.648.82A4.128,4.128,0,0,0,60.289-4.133ZM71.664.156a3.693,3.693,0,0,1-2.8-1.129,4.19,4.19,0,0,1-1.078-3.02v-.266A5.073,5.073,0,0,1,68.27-6.5a3.748,3.748,0,0,1,1.344-1.547,3.378,3.378,0,0,1,1.871-.559,3.166,3.166,0,0,1,2.563,1.086,4.7,4.7,0,0,1,.914,3.109v.6H69.234a3,3,0,0,0,.73,2.02,2.3,2.3,0,0,0,1.777.77,2.517,2.517,0,0,0,1.3-.312,3.259,3.259,0,0,0,.93-.828l.883.688A3.55,3.55,0,0,1,71.664.156Zm-.18-7.578a1.928,1.928,0,0,0-1.469.637A3.1,3.1,0,0,0,69.281-5h4.234v-.109a2.753,2.753,0,0,0-.594-1.707A1.815,1.815,0,0,0,71.484-7.422Zm9.234.266a4.331,4.331,0,0,0-.711-.055A1.9,1.9,0,0,0,78.078-6V0H76.633V-8.453h1.406l.023.977a2.251,2.251,0,0,1,2.016-1.133,1.477,1.477,0,0,1,.641.109ZM83.617,0H82.172V-8.453h1.445ZM82.055-10.7a.863.863,0,0,1,.215-.594.807.807,0,0,1,.637-.242.819.819,0,0,1,.641.242.854.854,0,0,1,.219.594.826.826,0,0,1-.219.586.834.834,0,0,1-.641.234.821.821,0,0,1-.637-.234A.834.834,0,0,1,82.055-10.7ZM93.086-4.133A5.026,5.026,0,0,1,92.2-1.02,2.846,2.846,0,0,1,89.8.156,2.947,2.947,0,0,1,87.328-.977L87.258,0H85.93V-12h1.445v4.477a2.93,2.93,0,0,1,2.414-1.086,2.863,2.863,0,0,1,2.418,1.164,5.177,5.177,0,0,1,.879,3.188ZM91.641-4.3a3.906,3.906,0,0,0-.57-2.281,1.888,1.888,0,0,0-1.641-.8,2.122,2.122,0,0,0-2.055,1.328V-2.4a2.181,2.181,0,0,0,2.07,1.328,1.878,1.878,0,0,0,1.617-.8A4.153,4.153,0,0,0,91.641-4.3ZM96.477,0H95.031V-12h1.445Zm5.82.156A3.693,3.693,0,0,1,99.5-.973a4.19,4.19,0,0,1-1.078-3.02v-.266A5.073,5.073,0,0,1,98.9-6.5a3.748,3.748,0,0,1,1.344-1.547,3.378,3.378,0,0,1,1.871-.559,3.166,3.166,0,0,1,2.563,1.086,4.7,4.7,0,0,1,.914,3.109v.6H99.867a3,3,0,0,0,.73,2.02,2.3,2.3,0,0,0,1.777.77,2.517,2.517,0,0,0,1.3-.312,3.259,3.259,0,0,0,.93-.828l.883.688A3.55,3.55,0,0,1,102.3.156Zm-.18-7.578a1.928,1.928,0,0,0-1.469.637A3.1,3.1,0,0,0,99.914-5h4.234v-.109a2.753,2.753,0,0,0-.594-1.707A1.815,1.815,0,0,0,102.117-7.422Z" transform="translate(478.709 106.259)" fill="#12263f"/>
      <g id="Grupo_260725" data-name="Grupo 260725">
        <g id="Grupo_260724" data-name="Grupo 260724" clip-path="url(#clip-path)">
          <path id="Trazado_278446" data-name="Trazado 278446" d="M630.838,649.01h-194.4a16.492,16.492,0,0,1-16.492-16.491V574.754a16.492,16.492,0,0,1,16.492-16.491h194.4a16.491,16.491,0,0,1,16.491,16.491v57.765a16.491,16.491,0,0,1-16.491,16.491" fill="#632059"/>
        </g>
      </g>
      <path id="Trazado_279884" data-name="Trazado 279884" d="M4.436-12.373,7.614-3.4l3.161-8.974h3.348V0H11.566V-3.382L11.82-9.22,8.481,0H6.73L3.4-9.212l.255,5.829V0H1.1V-12.373ZM21.516,0a2.727,2.727,0,0,1-.246-.824A2.972,2.972,0,0,1,18.95.17a3.265,3.265,0,0,1-2.239-.782,2.514,2.514,0,0,1-.888-1.971,2.6,2.6,0,0,1,1.083-2.243,5.346,5.346,0,0,1,3.131-.79h1.13v-.527a1.515,1.515,0,0,0-.327-1.02,1.287,1.287,0,0,0-1.032-.382,1.463,1.463,0,0,0-.973.3,1.01,1.01,0,0,0-.353.816H16.027a2.467,2.467,0,0,1,.493-1.479,3.258,3.258,0,0,1,1.394-1.066,5.079,5.079,0,0,1,2.022-.387,4.013,4.013,0,0,1,2.7.854,2.988,2.988,0,0,1,1,2.4v3.985A4.4,4.4,0,0,0,24-.144V0ZM19.485-1.708a2.115,2.115,0,0,0,1-.242,1.591,1.591,0,0,0,.68-.65V-4.181H20.25q-1.844,0-1.963,1.275l-.008.144a.983.983,0,0,0,.323.756A1.254,1.254,0,0,0,19.485-1.708Zm8.294-7.487.076,1.062A3.21,3.21,0,0,1,30.5-9.365a2.668,2.668,0,0,1,2.175.858A4,4,0,0,1,33.4-5.94V0H30.949V-5.88a1.593,1.593,0,0,0-.34-1.134,1.522,1.522,0,0,0-1.13-.353,1.69,1.69,0,0,0-1.555.884V0H25.468V-9.195Zm10.427-2.26v2.26h1.572v1.8H38.206V-2.8a1.1,1.1,0,0,0,.2.731.982.982,0,0,0,.748.221,3.916,3.916,0,0,0,.722-.059V-.051A5.056,5.056,0,0,1,38.385.17,2.345,2.345,0,0,1,35.75-2.439V-7.393H34.408v-1.8H35.75v-2.26ZM45.378.17a4.514,4.514,0,0,1-3.293-1.241,4.41,4.41,0,0,1-1.27-3.306v-.238a5.554,5.554,0,0,1,.535-2.477,3.929,3.929,0,0,1,1.517-1.683,4.257,4.257,0,0,1,2.239-.591,3.816,3.816,0,0,1,2.97,1.19A4.834,4.834,0,0,1,49.16-4.8v1H43.3a2.281,2.281,0,0,0,.718,1.445,2.171,2.171,0,0,0,1.517.544,2.651,2.651,0,0,0,2.218-1.028l1.207,1.351a3.687,3.687,0,0,1-1.5,1.219A4.907,4.907,0,0,1,45.378.17ZM45.1-7.385a1.535,1.535,0,0,0-1.185.5,2.564,2.564,0,0,0-.582,1.417h3.416v-.2A1.828,1.828,0,0,0,46.3-6.936,1.583,1.583,0,0,0,45.1-7.385Zm7.716-1.81.076,1.062a3.21,3.21,0,0,1,2.643-1.232,2.668,2.668,0,0,1,2.175.858,4,4,0,0,1,.731,2.566V0H55.984V-5.88a1.593,1.593,0,0,0-.34-1.134,1.522,1.522,0,0,0-1.13-.353,1.69,1.69,0,0,0-1.555.884V0H50.5V-9.195ZM62.892,0H60.428V-9.195h2.464ZM60.283-11.574a1.209,1.209,0,0,1,.37-.909,1.389,1.389,0,0,1,1.007-.357,1.392,1.392,0,0,1,1,.357,1.2,1.2,0,0,1,.374.909,1.206,1.206,0,0,1-.378.918,1.4,1.4,0,0,1-1,.357,1.4,1.4,0,0,1-1-.357A1.206,1.206,0,0,1,60.283-11.574Zm6.934,2.379.076,1.028a3.231,3.231,0,0,1,2.643-1.2,2.452,2.452,0,0,1,2.439,1.4,3.157,3.157,0,0,1,2.762-1.4,2.742,2.742,0,0,1,2.226.871,4,4,0,0,1,.731,2.622V0H75.63V-5.863a1.751,1.751,0,0,0-.306-1.143,1.356,1.356,0,0,0-1.079-.361,1.533,1.533,0,0,0-1.53,1.054L72.724,0H70.268V-5.855a1.73,1.73,0,0,0-.314-1.156,1.369,1.369,0,0,0-1.071-.357,1.592,1.592,0,0,0-1.513.867V0H64.915V-9.195ZM82.573,0H80.109V-9.195h2.464ZM79.964-11.574a1.209,1.209,0,0,1,.37-.909,1.389,1.389,0,0,1,1.007-.357,1.392,1.392,0,0,1,1,.357,1.2,1.2,0,0,1,.374.909,1.206,1.206,0,0,1-.378.918,1.4,1.4,0,0,1-1,.357,1.4,1.4,0,0,1-1-.357A1.206,1.206,0,0,1,79.964-11.574ZM88.828.17a4.514,4.514,0,0,1-3.293-1.241,4.41,4.41,0,0,1-1.27-3.306v-.238A5.554,5.554,0,0,1,84.8-7.091a3.929,3.929,0,0,1,1.517-1.683,4.257,4.257,0,0,1,2.239-.591,3.816,3.816,0,0,1,2.97,1.19A4.834,4.834,0,0,1,92.609-4.8v1H86.754a2.281,2.281,0,0,0,.718,1.445,2.171,2.171,0,0,0,1.517.544,2.651,2.651,0,0,0,2.218-1.028l1.207,1.351a3.687,3.687,0,0,1-1.5,1.219A4.907,4.907,0,0,1,88.828.17Zm-.28-7.555a1.535,1.535,0,0,0-1.185.5,2.564,2.564,0,0,0-.582,1.417H90.2v-.2a1.828,1.828,0,0,0-.442-1.268A1.583,1.583,0,0,0,88.547-7.385Zm7.716-1.81.076,1.062a3.21,3.21,0,0,1,2.643-1.232,2.668,2.668,0,0,1,2.175.858,4,4,0,0,1,.731,2.566V0H99.433V-5.88a1.593,1.593,0,0,0-.34-1.134,1.522,1.522,0,0,0-1.13-.353,1.689,1.689,0,0,0-1.555.884V0H93.952V-9.195Zm10.427-2.26v2.26h1.572v1.8H106.69V-2.8a1.1,1.1,0,0,0,.2.731.982.982,0,0,0,.748.221,3.916,3.916,0,0,0,.722-.059V-.051a5.056,5.056,0,0,1-1.487.221,2.345,2.345,0,0,1-2.634-2.609V-7.393h-1.343v-1.8h1.343v-2.26Zm2.059,6.773a5.453,5.453,0,0,1,.527-2.439,3.857,3.857,0,0,1,1.517-1.657,4.425,4.425,0,0,1,2.3-.586,4.187,4.187,0,0,1,3.038,1.139,4.57,4.57,0,0,1,1.313,3.093l.017.629a4.806,4.806,0,0,1-1.181,3.395A4.106,4.106,0,0,1,113.109.17,4.126,4.126,0,0,1,109.935-1.1a4.89,4.89,0,0,1-1.185-3.467Zm2.456.174a3.437,3.437,0,0,0,.493,2,1.626,1.626,0,0,0,1.411.694A1.63,1.63,0,0,0,114.5-2.5a3.761,3.761,0,0,0,.5-2.192,3.4,3.4,0,0,0-.5-1.992,1.63,1.63,0,0,0-1.411-.706,1.6,1.6,0,0,0-1.394.7A3.824,3.824,0,0,0,111.205-4.508Z" transform="translate(475.949 606.939)" fill="#def1f0"/>
      <g id="Grupo_260727" data-name="Grupo 260727">
        <g id="Grupo_260726" data-name="Grupo 260726" clip-path="url(#clip-path)">
          <path id="Trazado_278447" data-name="Trazado 278447" d="M361.272,649.01h-194.4a16.491,16.491,0,0,1-16.492-16.491V574.754a16.491,16.491,0,0,1,16.492-16.491h194.4a16.491,16.491,0,0,1,16.491,16.491v57.765a16.491,16.491,0,0,1-16.491,16.491" fill="#632059"/>
        </g>
      </g>
      <path id="Trazado_279883" data-name="Trazado 279883" d="M3.654-4.359V0H1.1V-12.373H5.931a5.584,5.584,0,0,1,2.452.51,3.757,3.757,0,0,1,1.627,1.449,4.04,4.04,0,0,1,.569,2.137A3.553,3.553,0,0,1,9.335-5.409,5.185,5.185,0,0,1,5.889-4.359Zm0-2.065H5.931A2.239,2.239,0,0,0,7.474-6.9,1.731,1.731,0,0,0,8-8.26,2.041,2.041,0,0,0,7.47-9.73a2,2,0,0,0-1.479-.578H3.654Zm13.681-.467a6.672,6.672,0,0,0-.884-.068,1.8,1.8,0,0,0-1.827.943V0H12.169V-9.195h2.32l.068,1.1A2.276,2.276,0,0,1,16.6-9.365a2.573,2.573,0,0,1,.765.11Zm.2,2.209a5.453,5.453,0,0,1,.527-2.439,3.857,3.857,0,0,1,1.517-1.657,4.425,4.425,0,0,1,2.3-.586,4.187,4.187,0,0,1,3.038,1.139,4.57,4.57,0,0,1,1.313,3.093l.017.629a4.806,4.806,0,0,1-1.181,3.395A4.106,4.106,0,0,1,21.892.17,4.126,4.126,0,0,1,18.718-1.1a4.89,4.89,0,0,1-1.185-3.467Zm2.456.174a3.437,3.437,0,0,0,.493,2,1.626,1.626,0,0,0,1.411.694A1.63,1.63,0,0,0,23.286-2.5a3.761,3.761,0,0,0,.5-2.192,3.4,3.4,0,0,0-.5-1.992,1.63,1.63,0,0,0-1.411-.706,1.6,1.6,0,0,0-1.394.7A3.824,3.824,0,0,0,19.988-4.508Zm7.385-.157a5.541,5.541,0,0,1,.965-3.425,3.129,3.129,0,0,1,2.639-1.275,2.816,2.816,0,0,1,2.218,1v-4.691h2.464V0H33.44l-.119-.977A2.89,2.89,0,0,1,30.959.17a3.121,3.121,0,0,1-2.6-1.279A5.72,5.72,0,0,1,27.373-4.665Zm2.456.183a3.63,3.63,0,0,0,.45,1.983,1.467,1.467,0,0,0,1.309.689,1.643,1.643,0,0,0,1.606-.962V-6.406A1.62,1.62,0,0,0,31.6-7.368Q29.829-7.368,29.829-4.482ZM43.068-.935A3.08,3.08,0,0,1,40.553.17,2.9,2.9,0,0,1,38.3-.68,3.628,3.628,0,0,1,37.5-3.17V-9.195h2.456v5.947q0,1.438,1.309,1.438a1.773,1.773,0,0,0,1.717-.868V-9.195h2.464V0H43.136Zm8.056-.875a1.611,1.611,0,0,0,1.1-.374,1.31,1.31,0,0,0,.442-.994h2.3a3.15,3.15,0,0,1-.51,1.712A3.364,3.364,0,0,1,53.092-.259,4.3,4.3,0,0,1,51.167.17a3.992,3.992,0,0,1-3.11-1.253,4.96,4.96,0,0,1-1.139-3.463v-.161A4.9,4.9,0,0,1,48.048-8.1a3.945,3.945,0,0,1,3.1-1.266,3.867,3.867,0,0,1,2.766.981A3.475,3.475,0,0,1,54.974-5.77h-2.3a1.688,1.688,0,0,0-.442-1.166,1.473,1.473,0,0,0-1.122-.449,1.479,1.479,0,0,0-1.3.626,3.625,3.625,0,0,0-.438,2.03v.255a3.671,3.671,0,0,0,.433,2.043A1.5,1.5,0,0,0,51.124-1.81Zm9.076,0a1.611,1.611,0,0,0,1.1-.374,1.31,1.31,0,0,0,.442-.994h2.3a3.15,3.15,0,0,1-.51,1.712A3.364,3.364,0,0,1,62.167-.259,4.3,4.3,0,0,1,60.242.17a3.992,3.992,0,0,1-3.11-1.253,4.96,4.96,0,0,1-1.139-3.463v-.161A4.9,4.9,0,0,1,57.124-8.1a3.945,3.945,0,0,1,3.1-1.266,3.867,3.867,0,0,1,2.766.981A3.475,3.475,0,0,1,64.049-5.77h-2.3A1.688,1.688,0,0,0,61.3-6.936a1.473,1.473,0,0,0-1.122-.449,1.479,1.479,0,0,0-1.3.626,3.625,3.625,0,0,0-.438,2.03v.255a3.671,3.671,0,0,0,.433,2.043A1.5,1.5,0,0,0,60.2-1.81ZM68.043,0H65.579V-9.195h2.464ZM65.435-11.574a1.209,1.209,0,0,1,.37-.909,1.389,1.389,0,0,1,1.007-.357,1.392,1.392,0,0,1,1,.357,1.2,1.2,0,0,1,.374.909,1.206,1.206,0,0,1-.378.918,1.4,1.4,0,0,1-1,.357,1.4,1.4,0,0,1-1-.357A1.206,1.206,0,0,1,65.435-11.574Zm4.249,6.892a5.453,5.453,0,0,1,.527-2.439,3.857,3.857,0,0,1,1.517-1.657,4.425,4.425,0,0,1,2.3-.586,4.187,4.187,0,0,1,3.038,1.139,4.57,4.57,0,0,1,1.313,3.093l.017.629a4.806,4.806,0,0,1-1.181,3.395A4.106,4.106,0,0,1,74.043.17,4.126,4.126,0,0,1,70.869-1.1a4.89,4.89,0,0,1-1.185-3.467Zm2.456.174a3.437,3.437,0,0,0,.493,2,1.626,1.626,0,0,0,1.411.694A1.63,1.63,0,0,0,75.437-2.5a3.761,3.761,0,0,0,.5-2.192,3.4,3.4,0,0,0-.5-1.992,1.63,1.63,0,0,0-1.411-.706,1.6,1.6,0,0,0-1.394.7A3.824,3.824,0,0,0,72.139-4.508Zm2.371-8.545h2.677l-2.354,2.634h-2Zm7.657,3.858.076,1.062a3.21,3.21,0,0,1,2.643-1.232,2.668,2.668,0,0,1,2.175.858,4,4,0,0,1,.731,2.566V0H85.336V-5.88A1.593,1.593,0,0,0,85-7.015a1.522,1.522,0,0,0-1.13-.353,1.689,1.689,0,0,0-1.555.884V0H79.855V-9.195Z" transform="translate(223.355 606.852)" fill="#def1f0"/>
      <g id="Grupo_260729" data-name="Grupo 260729">
        <g id="Grupo_260728" data-name="Grupo 260728" clip-path="url(#clip-path)">
          <path id="Trazado_278448" data-name="Trazado 278448" d="M492.6,411.013H298.2a16.492,16.492,0,0,1-16.492-16.491V336.757A16.492,16.492,0,0,1,298.2,320.266H492.6a16.491,16.491,0,0,1,16.491,16.491v57.765A16.491,16.491,0,0,1,492.6,411.013" fill="#632059"/>
        </g>
      </g>
      <path id="Trazado_279880" data-name="Trazado 279880" d="M8.549-5.362H3.654v3.314H9.4V0H1.1V-12.373H9.382v2.065H3.654v2.949H8.549Zm4.444-3.833.076,1.062a3.21,3.21,0,0,1,2.643-1.232,2.668,2.668,0,0,1,2.175.858,4,4,0,0,1,.731,2.566V0H16.163V-5.88a1.593,1.593,0,0,0-.34-1.134,1.522,1.522,0,0,0-1.13-.353,1.69,1.69,0,0,0-1.555.884V0H10.682V-9.195ZM24.712.17a4.514,4.514,0,0,1-3.293-1.241,4.41,4.41,0,0,1-1.27-3.306v-.238a5.554,5.554,0,0,1,.535-2.477A3.929,3.929,0,0,1,22.2-8.774a4.257,4.257,0,0,1,2.239-.591,3.816,3.816,0,0,1,2.97,1.19A4.834,4.834,0,0,1,28.493-4.8v1H22.638a2.281,2.281,0,0,0,.718,1.445,2.171,2.171,0,0,0,1.517.544,2.651,2.651,0,0,0,2.218-1.028L28.3-1.487A3.687,3.687,0,0,1,26.8-.268,4.907,4.907,0,0,1,24.712.17Zm-.28-7.555a1.535,1.535,0,0,0-1.185.5,2.564,2.564,0,0,0-.582,1.417H26.08v-.2a1.828,1.828,0,0,0-.442-1.268A1.583,1.583,0,0,0,24.431-7.385Zm10.622.493a6.672,6.672,0,0,0-.884-.068,1.8,1.8,0,0,0-1.827.943V0H29.887V-9.195h2.32l.068,1.1a2.276,2.276,0,0,1,2.048-1.266,2.573,2.573,0,0,1,.765.11Zm.506,2.226a5.389,5.389,0,0,1,1.007-3.408,3.263,3.263,0,0,1,2.715-1.292,2.862,2.862,0,0,1,2.354,1.037l.1-.867h2.226V-.306a3.93,3.93,0,0,1-.548,2.1,3.52,3.52,0,0,1-1.542,1.36,5.422,5.422,0,0,1-2.328.467,5.042,5.042,0,0,1-1.971-.4A3.5,3.5,0,0,1,36.12,2.175L37.208.68a2.877,2.877,0,0,0,2.226,1.028,2.106,2.106,0,0,0,1.521-.523A1.96,1.96,0,0,0,41.5-.3V-.79a2.841,2.841,0,0,1-2.235.96,3.254,3.254,0,0,1-2.681-1.3A5.387,5.387,0,0,1,35.56-4.563Zm2.456.183a3.355,3.355,0,0,0,.5,1.962,1.6,1.6,0,0,0,1.377.711A1.705,1.705,0,0,0,41.5-2.653V-6.525a1.7,1.7,0,0,0-1.589-.843,1.605,1.605,0,0,0-1.389.723A3.782,3.782,0,0,0,38.015-4.482ZM48.5,0H46.046V-9.195H48.5Zm-.722-12.925h2.677L48.1-10.291h-2ZM55.946,0A2.727,2.727,0,0,1,55.7-.824,2.972,2.972,0,0,1,53.38.17,3.265,3.265,0,0,1,51.14-.612a2.514,2.514,0,0,1-.888-1.971,2.6,2.6,0,0,1,1.083-2.243,5.346,5.346,0,0,1,3.131-.79H55.6v-.527a1.515,1.515,0,0,0-.327-1.02,1.287,1.287,0,0,0-1.032-.382,1.463,1.463,0,0,0-.973.3,1.01,1.01,0,0,0-.353.816H50.456a2.467,2.467,0,0,1,.493-1.479,3.258,3.258,0,0,1,1.394-1.066,5.079,5.079,0,0,1,2.022-.387,4.013,4.013,0,0,1,2.7.854,2.988,2.988,0,0,1,1,2.4v3.985a4.4,4.4,0,0,0,.365,1.98V0ZM53.915-1.708a2.115,2.115,0,0,0,1-.242,1.591,1.591,0,0,0,.68-.65V-4.181H54.68q-1.844,0-1.963,1.275l-.008.144a.983.983,0,0,0,.323.756A1.254,1.254,0,0,0,53.915-1.708Z" transform="translate(363.818 368.887)" fill="#def1f0"/>
      <g id="Grupo_260731" data-name="Grupo 260731">
        <g id="Grupo_260730" data-name="Grupo 260730" clip-path="url(#clip-path)">
          <path id="Trazado_278449" data-name="Trazado 278449" d="M293.1,246.2H98.7a16.491,16.491,0,0,1-16.492-16.491V171.948A16.491,16.491,0,0,1,98.7,155.457H293.1a16.491,16.491,0,0,1,16.491,16.491v57.765A16.491,16.491,0,0,1,293.1,246.2" fill="#632059"/>
        </g>
      </g>
      <path id="Trazado_279878" data-name="Trazado 279878" d="M8.549-5.362H3.654v3.314H9.4V0H1.1V-12.373H9.382v2.065H3.654v2.949H8.549Zm4.444-3.833.076,1.062a3.21,3.21,0,0,1,2.643-1.232,2.668,2.668,0,0,1,2.175.858,4,4,0,0,1,.731,2.566V0H16.163V-5.88a1.593,1.593,0,0,0-.34-1.134,1.522,1.522,0,0,0-1.13-.353,1.69,1.69,0,0,0-1.555.884V0H10.682V-9.195ZM24.712.17a4.514,4.514,0,0,1-3.293-1.241,4.41,4.41,0,0,1-1.27-3.306v-.238a5.554,5.554,0,0,1,.535-2.477A3.929,3.929,0,0,1,22.2-8.774a4.257,4.257,0,0,1,2.239-.591,3.816,3.816,0,0,1,2.97,1.19A4.834,4.834,0,0,1,28.493-4.8v1H22.638a2.281,2.281,0,0,0,.718,1.445,2.171,2.171,0,0,0,1.517.544,2.651,2.651,0,0,0,2.218-1.028L28.3-1.487A3.687,3.687,0,0,1,26.8-.268,4.907,4.907,0,0,1,24.712.17Zm-.28-7.555a1.535,1.535,0,0,0-1.185.5,2.564,2.564,0,0,0-.582,1.417H26.08v-.2a1.828,1.828,0,0,0-.442-1.268A1.583,1.583,0,0,0,24.431-7.385Zm10.622.493a6.672,6.672,0,0,0-.884-.068,1.8,1.8,0,0,0-1.827.943V0H29.887V-9.195h2.32l.068,1.1a2.276,2.276,0,0,1,2.048-1.266,2.573,2.573,0,0,1,.765.11Zm.506,2.226a5.389,5.389,0,0,1,1.007-3.408,3.263,3.263,0,0,1,2.715-1.292,2.862,2.862,0,0,1,2.354,1.037l.1-.867h2.226V-.306a3.93,3.93,0,0,1-.548,2.1,3.52,3.52,0,0,1-1.542,1.36,5.422,5.422,0,0,1-2.328.467,5.042,5.042,0,0,1-1.971-.4A3.5,3.5,0,0,1,36.12,2.175L37.208.68a2.877,2.877,0,0,0,2.226,1.028,2.106,2.106,0,0,0,1.521-.523A1.96,1.96,0,0,0,41.5-.3V-.79a2.841,2.841,0,0,1-2.235.96,3.254,3.254,0,0,1-2.681-1.3A5.387,5.387,0,0,1,35.56-4.563Zm2.456.183a3.355,3.355,0,0,0,.5,1.962,1.6,1.6,0,0,0,1.377.711A1.705,1.705,0,0,0,41.5-2.653V-6.525a1.7,1.7,0,0,0-1.589-.843,1.605,1.605,0,0,0-1.389.723A3.782,3.782,0,0,0,38.015-4.482ZM48.5,0H46.046V-9.195H48.5Zm-.722-12.925h2.677L48.1-10.291h-2ZM55.946,0A2.727,2.727,0,0,1,55.7-.824,2.972,2.972,0,0,1,53.38.17,3.265,3.265,0,0,1,51.14-.612a2.514,2.514,0,0,1-.888-1.971,2.6,2.6,0,0,1,1.083-2.243,5.346,5.346,0,0,1,3.131-.79H55.6v-.527a1.515,1.515,0,0,0-.327-1.02,1.287,1.287,0,0,0-1.032-.382,1.463,1.463,0,0,0-.973.3,1.01,1.01,0,0,0-.353.816H50.456a2.467,2.467,0,0,1,.493-1.479,3.258,3.258,0,0,1,1.394-1.066,5.079,5.079,0,0,1,2.022-.387,4.013,4.013,0,0,1,2.7.854,2.988,2.988,0,0,1,1,2.4v3.985a4.4,4.4,0,0,0,.365,1.98V0ZM53.915-1.708a2.115,2.115,0,0,0,1-.242,1.591,1.591,0,0,0,.68-.65V-4.181H54.68q-1.844,0-1.963,1.275l-.008.144a.983.983,0,0,0,.323.756A1.254,1.254,0,0,0,53.915-1.708ZM63.9-4.665a5.541,5.541,0,0,1,.964-3.425A3.129,3.129,0,0,1,67.5-9.365a2.816,2.816,0,0,1,2.218,1v-4.691h2.464V0H69.967l-.119-.977A2.89,2.89,0,0,1,67.486.17a3.121,3.121,0,0,1-2.6-1.279A5.72,5.72,0,0,1,63.9-4.665Zm2.456.183a3.63,3.63,0,0,0,.45,1.983,1.467,1.467,0,0,0,1.309.689,1.643,1.643,0,0,0,1.606-.962V-6.406a1.62,1.62,0,0,0-1.589-.962Q66.356-7.368,66.356-4.482ZM76.681,0H74.216V-9.195h2.464ZM74.072-11.574a1.209,1.209,0,0,1,.37-.909,1.389,1.389,0,0,1,1.007-.357,1.392,1.392,0,0,1,1,.357,1.2,1.2,0,0,1,.374.909,1.206,1.206,0,0,1-.378.918,1.4,1.4,0,0,1-1,.357,1.4,1.4,0,0,1-1-.357A1.206,1.206,0,0,1,74.072-11.574Zm4.274,6.909a5.389,5.389,0,0,1,1.007-3.408,3.263,3.263,0,0,1,2.715-1.292,2.862,2.862,0,0,1,2.354,1.037l.1-.867H86.75V-.306a3.93,3.93,0,0,1-.548,2.1,3.52,3.52,0,0,1-1.542,1.36,5.422,5.422,0,0,1-2.328.467,5.042,5.042,0,0,1-1.971-.4,3.5,3.5,0,0,1-1.453-1.041L79.995.68a2.877,2.877,0,0,0,2.226,1.028,2.106,2.106,0,0,0,1.521-.523A1.96,1.96,0,0,0,84.286-.3V-.79a2.841,2.841,0,0,1-2.235.96,3.254,3.254,0,0,1-2.681-1.3,5.387,5.387,0,0,1-1.024-3.437Zm2.456.183a3.355,3.355,0,0,0,.5,1.962,1.6,1.6,0,0,0,1.377.711,1.705,1.705,0,0,0,1.606-.843V-6.525A1.7,1.7,0,0,0,82.7-7.368a1.6,1.6,0,0,0-1.389.723A3.782,3.782,0,0,0,80.8-4.482ZM92.869.17a4.514,4.514,0,0,1-3.293-1.241,4.41,4.41,0,0,1-1.27-3.306v-.238a5.554,5.554,0,0,1,.535-2.477,3.929,3.929,0,0,1,1.517-1.683A4.257,4.257,0,0,1,92.6-9.365a3.816,3.816,0,0,1,2.97,1.19A4.834,4.834,0,0,1,96.65-4.8v1H90.8a2.281,2.281,0,0,0,.718,1.445,2.171,2.171,0,0,0,1.517.544,2.651,2.651,0,0,0,2.218-1.028l1.207,1.351a3.687,3.687,0,0,1-1.5,1.219A4.907,4.907,0,0,1,92.869.17Zm-.28-7.555a1.535,1.535,0,0,0-1.185.5,2.564,2.564,0,0,0-.582,1.417h3.416v-.2A1.828,1.828,0,0,0,93.8-6.936,1.583,1.583,0,0,0,92.588-7.385Zm10.435,4.844a.791.791,0,0,0-.446-.71,5.068,5.068,0,0,0-1.432-.463Q97.866-4.4,97.866-6.5a2.526,2.526,0,0,1,1.015-2.044,4.1,4.1,0,0,1,2.656-.82,4.409,4.409,0,0,1,2.8.824A2.6,2.6,0,0,1,105.386-6.4H102.93a1.188,1.188,0,0,0-.34-.871,1.438,1.438,0,0,0-1.062-.344,1.47,1.47,0,0,0-.96.28.885.885,0,0,0-.34.714.757.757,0,0,0,.387.659,3.978,3.978,0,0,0,1.3.433,10.655,10.655,0,0,1,1.547.412,2.541,2.541,0,0,1,1.946,2.473,2.4,2.4,0,0,1-1.079,2.035,4.655,4.655,0,0,1-2.787.778,4.863,4.863,0,0,1-2.052-.412,3.443,3.443,0,0,1-1.406-1.13,2.626,2.626,0,0,1-.51-1.551H99.9a1.282,1.282,0,0,0,.484,1,1.921,1.921,0,0,0,1.207.348,1.778,1.778,0,0,0,1.066-.268A.833.833,0,0,0,103.024-2.541Zm6.909-8.914v2.26H111.5v1.8h-1.572V-2.8a1.1,1.1,0,0,0,.2.731.982.982,0,0,0,.748.221,3.916,3.916,0,0,0,.722-.059V-.051a5.056,5.056,0,0,1-1.487.221,2.345,2.345,0,0,1-2.634-2.609V-7.393h-1.343v-1.8h1.343v-2.26ZM115.464,0H113V-9.195h2.464Zm-2.609-11.574a1.209,1.209,0,0,1,.37-.909,1.389,1.389,0,0,1,1.007-.357,1.392,1.392,0,0,1,1,.357,1.2,1.2,0,0,1,.374.909,1.206,1.206,0,0,1-.378.918,1.4,1.4,0,0,1-1,.357,1.4,1.4,0,0,1-1-.357A1.206,1.206,0,0,1,112.856-11.574Zm12.917,7.062a5.568,5.568,0,0,1-.943,3.446A3.124,3.124,0,0,1,122.195.17a2.871,2.871,0,0,1-2.388-1.147L119.7,0h-2.209V-13.053h2.456V-8.37a2.8,2.8,0,0,1,2.235-.994,3.15,3.15,0,0,1,2.639,1.236,5.576,5.576,0,0,1,.956,3.48Zm-2.456-.178a3.658,3.658,0,0,0-.442-2.035,1.494,1.494,0,0,0-1.317-.642,1.62,1.62,0,0,0-1.615.96v3.629a1.642,1.642,0,0,0,1.632.969,1.516,1.516,0,0,0,1.564-1.173A6.049,6.049,0,0,0,123.316-4.691ZM129.877,0h-2.464V-13.053h2.464Zm6.254.17a4.514,4.514,0,0,1-3.293-1.241,4.41,4.41,0,0,1-1.27-3.306v-.238a5.554,5.554,0,0,1,.535-2.477,3.929,3.929,0,0,1,1.517-1.683,4.257,4.257,0,0,1,2.239-.591,3.816,3.816,0,0,1,2.97,1.19A4.834,4.834,0,0,1,139.913-4.8v1h-5.855a2.281,2.281,0,0,0,.718,1.445,2.171,2.171,0,0,0,1.517.544,2.651,2.651,0,0,0,2.218-1.028l1.207,1.351a3.687,3.687,0,0,1-1.5,1.219A4.907,4.907,0,0,1,136.131.17Zm-.28-7.555a1.535,1.535,0,0,0-1.185.5,2.564,2.564,0,0,0-.582,1.417H137.5v-.2a1.828,1.828,0,0,0-.442-1.268A1.583,1.583,0,0,0,135.851-7.385Z" transform="translate(125.862 204.243)" fill="#def1f0"/>
      <g id="Grupo_260733" data-name="Grupo 260733">
        <g id="Grupo_260732" data-name="Grupo 260732" clip-path="url(#clip-path)">
          <line id="Línea_799" data-name="Línea 799" x2="265.574" transform="translate(267.858 508.27)" fill="none" stroke="#12263f" stroke-miterlimit="10" stroke-width="4.136"/>
          <line id="Línea_800" data-name="Línea 800" x2="84.689" transform="translate(309.594 202.868)" fill="none" stroke="#12263f" stroke-miterlimit="10" stroke-width="4.153"/>
          <path id="Trazado_278450" data-name="Trazado 278450" d="M215.72,287.073H13.778A12.722,12.722,0,0,1,1.056,274.35V245.785a12.722,12.722,0,0,1,12.722-12.722H215.72a12.722,12.722,0,0,1,12.723,12.722V274.35a12.723,12.723,0,0,1-12.723,12.723" fill="#fffad0"/>
        </g>
      </g>
      <path id="Trazado_279879" data-name="Trazado 279879" d="M7.75-5.258H2.82v4.031H8.547V0H1.32V-11.375H8.469v1.227H2.82v3.664H7.75Zm3.8-3.2L11.6-7.391a3.08,3.08,0,0,1,2.531-1.219q2.68,0,2.7,3.023V0H15.391V-5.594a1.946,1.946,0,0,0-.418-1.352A1.675,1.675,0,0,0,13.7-7.383a2.086,2.086,0,0,0-1.234.375,2.546,2.546,0,0,0-.828.984V0H10.188V-8.453ZM22.523.156a3.693,3.693,0,0,1-2.8-1.129,4.19,4.19,0,0,1-1.078-3.02v-.266a5.073,5.073,0,0,1,.48-2.246,3.748,3.748,0,0,1,1.344-1.547,3.378,3.378,0,0,1,1.871-.559,3.166,3.166,0,0,1,2.563,1.086,4.7,4.7,0,0,1,.914,3.109v.6H20.094a3,3,0,0,0,.73,2.02,2.3,2.3,0,0,0,1.777.77,2.517,2.517,0,0,0,1.3-.312,3.259,3.259,0,0,0,.93-.828l.883.688A3.55,3.55,0,0,1,22.523.156Zm-.18-7.578a1.928,1.928,0,0,0-1.469.637A3.1,3.1,0,0,0,20.141-5h4.234v-.109a2.753,2.753,0,0,0-.594-1.707A1.815,1.815,0,0,0,22.344-7.422Zm9.234.266a4.331,4.331,0,0,0-.711-.055A1.9,1.9,0,0,0,28.938-6V0H27.492V-8.453H28.9l.023.977a2.251,2.251,0,0,1,2.016-1.133,1.477,1.477,0,0,1,.641.109ZM32.27-4.3a4.968,4.968,0,0,1,.914-3.145,2.923,2.923,0,0,1,2.422-1.168A2.908,2.908,0,0,1,38.02-7.516l.07-.937h1.32V-.2a3.439,3.439,0,0,1-.973,2.586,3.589,3.589,0,0,1-2.613.945,4.348,4.348,0,0,1-1.789-.391A3.08,3.08,0,0,1,32.7,1.867L33.45,1a2.826,2.826,0,0,0,2.273,1.148,2.214,2.214,0,0,0,1.645-.594,2.269,2.269,0,0,0,.59-1.672V-.844a2.971,2.971,0,0,1-2.367,1,2.887,2.887,0,0,1-2.4-1.2A5.224,5.224,0,0,1,32.27-4.3Zm1.453.164a3.79,3.79,0,0,0,.586,2.246,1.9,1.9,0,0,0,1.641.816,2.117,2.117,0,0,0,2.008-1.242V-6.172a2.142,2.142,0,0,0-1.992-1.211,1.921,1.921,0,0,0-1.648.82A4.128,4.128,0,0,0,33.723-4.133ZM43.161,0H41.708V-8.453h1.453Zm.016-11.992h1.75L42.833-9.7l-1.164,0ZM50.762,0a3.036,3.036,0,0,1-.2-.891A3.225,3.225,0,0,1,48.153.156,2.984,2.984,0,0,1,46.1-.551a2.287,2.287,0,0,1-.8-1.793,2.39,2.39,0,0,1,1-2.051,4.733,4.733,0,0,1,2.824-.73h1.406v-.664A1.623,1.623,0,0,0,50.083-7a1.821,1.821,0,0,0-1.336-.449,2.107,2.107,0,0,0-1.3.391,1.151,1.151,0,0,0-.523.945H45.473a2,2,0,0,1,.449-1.223,3.066,3.066,0,0,1,1.219-.934,4.1,4.1,0,0,1,1.691-.344,3.342,3.342,0,0,1,2.289.73,2.635,2.635,0,0,1,.859,2.012v3.891a4.757,4.757,0,0,0,.3,1.852V0Zm-2.4-1.1a2.54,2.54,0,0,0,1.289-.352,2.127,2.127,0,0,0,.883-.914V-4.1H49.4q-2.656,0-2.656,1.555A1.316,1.316,0,0,0,47.2-1.484,1.742,1.742,0,0,0,48.364-1.1ZM58.918,0V-7.336H57.583V-8.453h1.336V-9.32a2.878,2.878,0,0,1,.727-2.1,2.745,2.745,0,0,1,2.055-.742,3.816,3.816,0,0,1,.992.132l-.078,1.165a4.151,4.151,0,0,0-.781-.07,1.41,1.41,0,0,0-1.086.411,1.669,1.669,0,0,0-.383,1.18v.893h1.8v1.117h-1.8V0Zm7.972.156a3.693,3.693,0,0,1-2.8-1.129,4.19,4.19,0,0,1-1.078-3.02v-.266A5.073,5.073,0,0,1,63.5-6.5,3.748,3.748,0,0,1,64.84-8.051a3.378,3.378,0,0,1,1.871-.559,3.166,3.166,0,0,1,2.563,1.086,4.7,4.7,0,0,1,.914,3.109v.6H64.461a3,3,0,0,0,.73,2.02,2.3,2.3,0,0,0,1.777.77,2.517,2.517,0,0,0,1.3-.312,3.259,3.259,0,0,0,.93-.828l.883.688A3.55,3.55,0,0,1,66.891.156Zm-.18-7.578a1.928,1.928,0,0,0-1.469.637A3.1,3.1,0,0,0,64.508-5h4.234v-.109a2.753,2.753,0,0,0-.594-1.707A1.815,1.815,0,0,0,66.711-7.422Zm8.539,6.4A2.082,2.082,0,0,0,76.6-1.492a1.649,1.649,0,0,0,.641-1.172h1.367a2.621,2.621,0,0,1-.5,1.383,3.293,3.293,0,0,1-1.23,1.047A3.55,3.55,0,0,1,75.25.156,3.482,3.482,0,0,1,72.5-1a4.59,4.59,0,0,1-1.02-3.152v-.242a5.089,5.089,0,0,1,.453-2.2,3.451,3.451,0,0,1,1.3-1.492,3.7,3.7,0,0,1,2-.531,3.39,3.39,0,0,1,2.363.852,3.043,3.043,0,0,1,1,2.211H77.242a1.992,1.992,0,0,0-.621-1.348,1.932,1.932,0,0,0-1.379-.527,2.023,2.023,0,0,0-1.707.793,3.724,3.724,0,0,0-.605,2.293v.273a3.65,3.65,0,0,0,.6,2.25A2.033,2.033,0,0,0,75.25-1.023ZM85.453,0a3.036,3.036,0,0,1-.2-.891A3.225,3.225,0,0,1,82.844.156a2.984,2.984,0,0,1-2.051-.707,2.288,2.288,0,0,1-.8-1.793,2.39,2.39,0,0,1,1-2.051,4.733,4.733,0,0,1,2.824-.73h1.406v-.664A1.623,1.623,0,0,0,84.773-7a1.821,1.821,0,0,0-1.336-.449,2.108,2.108,0,0,0-1.3.391,1.151,1.151,0,0,0-.523.945H80.164a2,2,0,0,1,.449-1.223,3.066,3.066,0,0,1,1.219-.934,4.1,4.1,0,0,1,1.691-.344,3.342,3.342,0,0,1,2.289.73,2.635,2.635,0,0,1,.859,2.012v3.891a4.757,4.757,0,0,0,.3,1.852V0Zm-2.4-1.1a2.54,2.54,0,0,0,1.289-.352,2.127,2.127,0,0,0,.883-.914V-4.1H84.094q-2.656,0-2.656,1.555a1.316,1.316,0,0,0,.453,1.063A1.742,1.742,0,0,0,83.055-1.1ZM90.508,0H89.062V-12h1.445Z" transform="translate(69.752 264.456)" fill="#12263f"/>
      <g id="Grupo_260735" data-name="Grupo 260735">
        <g id="Grupo_260734" data-name="Grupo 260734" clip-path="url(#clip-path)">
          <path id="Trazado_278451" data-name="Trazado 278451" d="M631.781,440.143H429.839a12.722,12.722,0,0,1-12.722-12.723V398.855a12.722,12.722,0,0,1,12.722-12.722H631.781A12.722,12.722,0,0,1,644.5,398.855V427.42a12.723,12.723,0,0,1-12.723,12.723" fill="#fffad0"/>
        </g>
      </g>
      <path id="Trazado_279881" data-name="Trazado 279881" d="M1.039-4.617a12.079,12.079,0,0,1,.473-3.391,9.85,9.85,0,0,1,1.41-2.953,6,6,0,0,1,1.945-1.875l.3.953A6.222,6.222,0,0,0,3.293-9.211a11.583,11.583,0,0,0-.8,4.023l-.008.664A11.643,11.643,0,0,0,3.586.711,6.252,6.252,0,0,0,5.164,2.789l-.3.883A6.192,6.192,0,0,1,2.883,1.734,10.859,10.859,0,0,1,1.039-4.617Zm8.531.375H5.758v-1.18H9.57Zm4.742-.3a12.084,12.084,0,0,1-.457,3.34,9.876,9.876,0,0,1-1.4,2.949,6.127,6.127,0,0,1-1.973,1.922l-.3-.883A6.281,6.281,0,0,0,12.113-.074a12.387,12.387,0,0,0,.746-4.309v-.25a12.861,12.861,0,0,0-.344-3.051,10.3,10.3,0,0,0-.957-2.527,5.838,5.838,0,0,0-1.379-1.742l.3-.883a6.1,6.1,0,0,1,1.965,1.906,9.9,9.9,0,0,1,1.4,2.945A12.363,12.363,0,0,1,14.313-4.539Zm5.8.234a4.993,4.993,0,0,1,.488-2.234A3.643,3.643,0,0,1,21.965-8.07a3.7,3.7,0,0,1,1.988-.539,3.565,3.565,0,0,1,2.793,1.2,4.6,4.6,0,0,1,1.066,3.18v.1a5.036,5.036,0,0,1-.473,2.215A3.589,3.589,0,0,1,25.988-.391a3.743,3.743,0,0,1-2.02.547,3.556,3.556,0,0,1-2.785-1.2A4.575,4.575,0,0,1,20.117-4.2Zm1.453.172a3.616,3.616,0,0,0,.652,2.258,2.088,2.088,0,0,0,1.746.852,2.075,2.075,0,0,0,1.75-.863A3.955,3.955,0,0,0,26.367-4.3a3.61,3.61,0,0,0-.66-2.254,2.1,2.1,0,0,0-1.754-.863,2.075,2.075,0,0,0-1.727.852A3.925,3.925,0,0,0,21.57-4.133ZM33.711-7.156A4.331,4.331,0,0,0,33-7.211,1.9,1.9,0,0,0,31.07-6V0H29.625V-8.453h1.406l.023.977A2.251,2.251,0,0,1,33.07-8.609a1.477,1.477,0,0,1,.641.109ZM36.609,0H35.164V-8.453h1.445ZM35.047-10.7a.863.863,0,0,1,.215-.594.807.807,0,0,1,.637-.242.819.819,0,0,1,.641.242.854.854,0,0,1,.219.594.826.826,0,0,1-.219.586.834.834,0,0,1-.641.234.821.821,0,0,1-.637-.234A.834.834,0,0,1,35.047-10.7Zm5.242,2.242.047,1.063a3.08,3.08,0,0,1,2.531-1.219q2.68,0,2.7,3.023V0H44.125V-5.594a1.946,1.946,0,0,0-.418-1.352,1.675,1.675,0,0,0-1.277-.437,2.086,2.086,0,0,0-1.234.375,2.546,2.546,0,0,0-.828.984V0H38.922V-8.453ZM52.969,0a3.036,3.036,0,0,1-.2-.891A3.225,3.225,0,0,1,50.359.156a2.984,2.984,0,0,1-2.051-.707,2.287,2.287,0,0,1-.8-1.793,2.39,2.39,0,0,1,1-2.051,4.733,4.733,0,0,1,2.824-.73h1.406v-.664A1.623,1.623,0,0,0,52.289-7a1.821,1.821,0,0,0-1.336-.449,2.107,2.107,0,0,0-1.3.391,1.151,1.151,0,0,0-.523.945H47.68a2,2,0,0,1,.449-1.223,3.066,3.066,0,0,1,1.219-.934,4.1,4.1,0,0,1,1.691-.344,3.342,3.342,0,0,1,2.289.73,2.635,2.635,0,0,1,.859,2.012v3.891a4.757,4.757,0,0,0,.3,1.852V0Zm-2.4-1.1a2.54,2.54,0,0,0,1.289-.352,2.127,2.127,0,0,0,.883-.914V-4.1H51.609q-2.656,0-2.656,1.555a1.316,1.316,0,0,0,.453,1.063A1.742,1.742,0,0,0,50.57-1.1ZM63.18-2.117l1.969-6.336H66.7L63.3,1.3q-.789,2.109-2.508,2.109l-.273-.023-.539-.1V2.117l.391.031a1.923,1.923,0,0,0,1.145-.3A2.148,2.148,0,0,0,62.188.766l.32-.859L59.492-8.453H61.07ZM71.6-4.3a4.968,4.968,0,0,1,.914-3.145,2.923,2.923,0,0,1,2.422-1.168,2.908,2.908,0,0,1,2.414,1.094l.07-.937h1.32V-.2a3.439,3.439,0,0,1-.973,2.586,3.589,3.589,0,0,1-2.613.945,4.348,4.348,0,0,1-1.789-.391,3.08,3.08,0,0,1-1.336-1.07L72.781,1a2.826,2.826,0,0,0,2.273,1.148A2.214,2.214,0,0,0,76.7,1.555a2.269,2.269,0,0,0,.59-1.672V-.844a2.971,2.971,0,0,1-2.367,1,2.887,2.887,0,0,1-2.4-1.2A5.224,5.224,0,0,1,71.6-4.3Zm1.453.164a3.79,3.79,0,0,0,.586,2.246,1.9,1.9,0,0,0,1.641.816,2.117,2.117,0,0,0,2.008-1.242V-6.172A2.142,2.142,0,0,0,75.3-7.383a1.921,1.921,0,0,0-1.648.82A4.128,4.128,0,0,0,73.055-4.133ZM86.141,0a3.036,3.036,0,0,1-.2-.891A3.225,3.225,0,0,1,83.531.156,2.984,2.984,0,0,1,81.48-.551a2.288,2.288,0,0,1-.8-1.793,2.39,2.39,0,0,1,1-2.051,4.733,4.733,0,0,1,2.824-.73h1.406v-.664A1.623,1.623,0,0,0,85.461-7a1.821,1.821,0,0,0-1.336-.449,2.108,2.108,0,0,0-1.3.391,1.151,1.151,0,0,0-.523.945H80.852A2,2,0,0,1,81.3-7.332a3.066,3.066,0,0,1,1.219-.934,4.1,4.1,0,0,1,1.691-.344,3.342,3.342,0,0,1,2.289.73,2.635,2.635,0,0,1,.859,2.012v3.891a4.757,4.757,0,0,0,.3,1.852V0Zm-2.4-1.1a2.54,2.54,0,0,0,1.289-.352,2.127,2.127,0,0,0,.883-.914V-4.1H84.781q-2.656,0-2.656,1.555a1.316,1.316,0,0,0,.453,1.063A1.742,1.742,0,0,0,83.742-1.1Zm10.8-1.141a1.064,1.064,0,0,0-.441-.91,4.249,4.249,0,0,0-1.539-.559,7.277,7.277,0,0,1-1.742-.562,2.479,2.479,0,0,1-.953-.781,1.869,1.869,0,0,1-.309-1.078,2.193,2.193,0,0,1,.879-1.758,3.432,3.432,0,0,1,2.246-.719,3.532,3.532,0,0,1,2.332.742,2.357,2.357,0,0,1,.895,1.9H94.461a1.3,1.3,0,0,0-.5-1.023,1.888,1.888,0,0,0-1.27-.43,1.976,1.976,0,0,0-1.234.344,1.082,1.082,0,0,0-.445.9.877.877,0,0,0,.414.789,5.1,5.1,0,0,0,1.5.508,7.8,7.8,0,0,1,1.754.578,2.558,2.558,0,0,1,1,.809,1.988,1.988,0,0,1,.324,1.152,2.163,2.163,0,0,1-.906,1.816,3.8,3.8,0,0,1-2.352.684,4.257,4.257,0,0,1-1.8-.359,2.922,2.922,0,0,1-1.223-1A2.42,2.42,0,0,1,89.273-2.6h1.445A1.5,1.5,0,0,0,91.3-1.449a2.258,2.258,0,0,0,1.434.426,2.331,2.331,0,0,0,1.316-.332A1.02,1.02,0,0,0,94.547-2.242Zm6.836,2.4a3.693,3.693,0,0,1-2.8-1.129,4.19,4.19,0,0,1-1.078-3.02v-.266a5.073,5.073,0,0,1,.48-2.246,3.748,3.748,0,0,1,1.344-1.547,3.378,3.378,0,0,1,1.871-.559,3.166,3.166,0,0,1,2.563,1.086,4.7,4.7,0,0,1,.914,3.109v.6H98.953a3,3,0,0,0,.73,2.02,2.3,2.3,0,0,0,1.777.77,2.517,2.517,0,0,0,1.3-.312,3.259,3.259,0,0,0,.93-.828l.883.688A3.55,3.55,0,0,1,101.383.156Zm-.18-7.578a1.928,1.928,0,0,0-1.469.637A3.1,3.1,0,0,0,99-5h4.234v-.109a2.753,2.753,0,0,0-.594-1.707A1.815,1.815,0,0,0,101.2-7.422Zm10.07,5.18a1.064,1.064,0,0,0-.441-.91,4.249,4.249,0,0,0-1.539-.559,7.277,7.277,0,0,1-1.742-.562,2.479,2.479,0,0,1-.953-.781,1.869,1.869,0,0,1-.309-1.078,2.193,2.193,0,0,1,.879-1.758,3.432,3.432,0,0,1,2.246-.719,3.532,3.532,0,0,1,2.332.742,2.357,2.357,0,0,1,.895,1.9h-1.453a1.3,1.3,0,0,0-.5-1.023,1.888,1.888,0,0,0-1.27-.43,1.976,1.976,0,0,0-1.234.344,1.082,1.082,0,0,0-.445.9.877.877,0,0,0,.414.789,5.1,5.1,0,0,0,1.5.508A7.8,7.8,0,0,1,111.4-4.3a2.558,2.558,0,0,1,1,.809,1.988,1.988,0,0,1,.324,1.152,2.163,2.163,0,0,1-.906,1.816,3.8,3.8,0,0,1-2.352.684,4.257,4.257,0,0,1-1.8-.359,2.922,2.922,0,0,1-1.223-1A2.42,2.42,0,0,1,106-2.6h1.445a1.5,1.5,0,0,0,.582,1.152,2.258,2.258,0,0,0,1.434.426,2.331,2.331,0,0,0,1.316-.332A1.02,1.02,0,0,0,111.273-2.242ZM118.211-4.3a4.952,4.952,0,0,1,.922-3.129,2.915,2.915,0,0,1,2.414-1.184A2.932,2.932,0,0,1,123.9-7.594V-12h1.445V0h-1.328l-.07-.906A2.943,2.943,0,0,1,121.531.156a2.887,2.887,0,0,1-2.395-1.2,5.008,5.008,0,0,1-.926-3.141Zm1.445.164a3.749,3.749,0,0,0,.594,2.25,1.92,1.92,0,0,0,1.641.813A2.109,2.109,0,0,0,123.9-2.3V-6.187a2.125,2.125,0,0,0-1.992-1.2,1.929,1.929,0,0,0-1.656.82A4.128,4.128,0,0,0,119.656-4.133ZM131.094.156a3.693,3.693,0,0,1-2.8-1.129,4.19,4.19,0,0,1-1.078-3.02v-.266A5.073,5.073,0,0,1,127.7-6.5a3.748,3.748,0,0,1,1.344-1.547,3.378,3.378,0,0,1,1.871-.559,3.166,3.166,0,0,1,2.563,1.086,4.7,4.7,0,0,1,.914,3.109v.6h-5.727a3,3,0,0,0,.73,2.02,2.3,2.3,0,0,0,1.777.77,2.517,2.517,0,0,0,1.3-.312,3.258,3.258,0,0,0,.93-.828l.883.688A3.55,3.55,0,0,1,131.094.156Zm-.18-7.578a1.928,1.928,0,0,0-1.469.637A3.1,3.1,0,0,0,128.711-5h4.234v-.109a2.753,2.753,0,0,0-.594-1.707A1.815,1.815,0,0,0,130.914-7.422ZM141.594,0h-1.445V-12h1.445Zm7.531,0a3.036,3.036,0,0,1-.2-.891A3.225,3.225,0,0,1,146.516.156a2.984,2.984,0,0,1-2.051-.707,2.287,2.287,0,0,1-.8-1.793,2.39,2.39,0,0,1,1-2.051,4.733,4.733,0,0,1,2.824-.73H148.9v-.664A1.623,1.623,0,0,0,148.445-7a1.821,1.821,0,0,0-1.336-.449,2.107,2.107,0,0,0-1.3.391,1.151,1.151,0,0,0-.523.945h-1.453a2,2,0,0,1,.449-1.223,3.066,3.066,0,0,1,1.219-.934,4.1,4.1,0,0,1,1.691-.344,3.342,3.342,0,0,1,2.289.73,2.635,2.635,0,0,1,.859,2.012v3.891a4.757,4.757,0,0,0,.3,1.852V0Zm-2.4-1.1a2.54,2.54,0,0,0,1.289-.352,2.127,2.127,0,0,0,.883-.914V-4.1h-1.133q-2.656,0-2.656,1.555a1.316,1.316,0,0,0,.453,1.063A1.742,1.742,0,0,0,146.727-1.1Z" transform="translate(457.691 410.198)" fill="#12263f"/>
      <path id="Trazado_279882" data-name="Trazado 279882" d="M.742-4.3a4.952,4.952,0,0,1,.922-3.129A2.915,2.915,0,0,1,4.078-8.609,2.932,2.932,0,0,1,6.43-7.594V-12H7.875V0H6.547l-.07-.906A2.943,2.943,0,0,1,4.063.156a2.887,2.887,0,0,1-2.395-1.2A5.008,5.008,0,0,1,.742-4.187Zm1.445.164a3.749,3.749,0,0,0,.594,2.25,1.92,1.92,0,0,0,1.641.813A2.108,2.108,0,0,0,6.43-2.3V-6.187a2.125,2.125,0,0,0-1.992-1.2,1.929,1.929,0,0,0-1.656.82A4.128,4.128,0,0,0,2.188-4.133ZM11.688,0H10.242V-8.453h1.445ZM10.125-10.7a.863.863,0,0,1,.215-.594.807.807,0,0,1,.637-.242.819.819,0,0,1,.641.242.854.854,0,0,1,.219.594.826.826,0,0,1-.219.586.834.834,0,0,1-.641.234.821.821,0,0,1-.637-.234A.834.834,0,0,1,10.125-10.7Zm3.531,6.4a4.968,4.968,0,0,1,.914-3.145,2.923,2.923,0,0,1,2.422-1.168,2.908,2.908,0,0,1,2.414,1.094l.07-.937H20.8V-.2a3.439,3.439,0,0,1-.973,2.586,3.589,3.589,0,0,1-2.613.945,4.348,4.348,0,0,1-1.789-.391,3.08,3.08,0,0,1-1.336-1.07L14.836,1a2.826,2.826,0,0,0,2.273,1.148,2.214,2.214,0,0,0,1.645-.594,2.269,2.269,0,0,0,.59-1.672V-.844a2.971,2.971,0,0,1-2.367,1,2.887,2.887,0,0,1-2.4-1.2A5.224,5.224,0,0,1,13.656-4.3Zm1.453.164A3.79,3.79,0,0,0,15.7-1.887a1.9,1.9,0,0,0,1.641.816,2.117,2.117,0,0,0,2.008-1.242V-6.172a2.142,2.142,0,0,0-1.992-1.211,1.921,1.921,0,0,0-1.648.82A4.128,4.128,0,0,0,15.109-4.133ZM26.484.156a3.693,3.693,0,0,1-2.8-1.129,4.19,4.19,0,0,1-1.078-3.02v-.266A5.073,5.073,0,0,1,23.09-6.5a3.748,3.748,0,0,1,1.344-1.547A3.378,3.378,0,0,1,26.3-8.609a3.166,3.166,0,0,1,2.563,1.086,4.7,4.7,0,0,1,.914,3.109v.6H24.055a3,3,0,0,0,.73,2.02,2.3,2.3,0,0,0,1.777.77,2.517,2.517,0,0,0,1.3-.312,3.259,3.259,0,0,0,.93-.828l.883.688A3.55,3.55,0,0,1,26.484.156ZM26.3-7.422a1.928,1.928,0,0,0-1.469.637A3.1,3.1,0,0,0,24.1-5h4.234v-.109a2.753,2.753,0,0,0-.594-1.707A1.815,1.815,0,0,0,26.3-7.422Zm10.07,5.18a1.064,1.064,0,0,0-.441-.91,4.249,4.249,0,0,0-1.539-.559,7.277,7.277,0,0,1-1.742-.562,2.479,2.479,0,0,1-.953-.781,1.869,1.869,0,0,1-.309-1.078,2.193,2.193,0,0,1,.879-1.758,3.432,3.432,0,0,1,2.246-.719,3.532,3.532,0,0,1,2.332.742,2.357,2.357,0,0,1,.895,1.9H36.289a1.3,1.3,0,0,0-.5-1.023,1.888,1.888,0,0,0-1.27-.43,1.976,1.976,0,0,0-1.234.344,1.082,1.082,0,0,0-.445.9.877.877,0,0,0,.414.789,5.1,5.1,0,0,0,1.5.508A7.8,7.8,0,0,1,36.5-4.3a2.558,2.558,0,0,1,1,.809,1.988,1.988,0,0,1,.324,1.152,2.163,2.163,0,0,1-.906,1.816,3.8,3.8,0,0,1-2.352.684,4.257,4.257,0,0,1-1.8-.359,2.922,2.922,0,0,1-1.223-1A2.42,2.42,0,0,1,31.1-2.6h1.445a1.5,1.5,0,0,0,.582,1.152,2.258,2.258,0,0,0,1.434.426,2.331,2.331,0,0,0,1.316-.332A1.02,1.02,0,0,0,36.375-2.242ZM41.664-10.5v2.047h1.578v1.117H41.664v5.249a1.173,1.173,0,0,0,.211.763.888.888,0,0,0,.719.254,3.5,3.5,0,0,0,.688-.094V0a4.215,4.215,0,0,1-1.109.155A1.8,1.8,0,0,1,40.711-.43a2.517,2.517,0,0,1-.492-1.664V-7.336H38.68V-8.453h1.539V-10.5ZM46.5,0H45.055V-8.453H46.5ZM44.938-10.7a.863.863,0,0,1,.215-.594.807.807,0,0,1,.637-.242.819.819,0,0,1,.641.242.854.854,0,0,1,.219.594.826.826,0,0,1-.219.586.834.834,0,0,1-.641.234.821.821,0,0,1-.637-.234A.834.834,0,0,1,44.938-10.7ZM48.43-4.3a4.993,4.993,0,0,1,.488-2.234A3.643,3.643,0,0,1,50.277-8.07a3.7,3.7,0,0,1,1.988-.539,3.565,3.565,0,0,1,2.793,1.2,4.6,4.6,0,0,1,1.066,3.18v.1a5.036,5.036,0,0,1-.473,2.215A3.589,3.589,0,0,1,54.3-.391a3.743,3.743,0,0,1-2.02.547,3.556,3.556,0,0,1-2.785-1.2A4.575,4.575,0,0,1,48.43-4.2Zm1.453.172a3.616,3.616,0,0,0,.652,2.258,2.088,2.088,0,0,0,1.746.852,2.075,2.075,0,0,0,1.75-.863A3.955,3.955,0,0,0,54.68-4.3a3.61,3.61,0,0,0-.66-2.254,2.1,2.1,0,0,0-1.754-.863,2.075,2.075,0,0,0-1.727.852A3.925,3.925,0,0,0,49.883-4.133ZM52.922-12h1.75L52.578-9.7l-1.164,0ZM59.3-8.453l.047,1.063a3.08,3.08,0,0,1,2.531-1.219q2.68,0,2.7,3.023V0H63.141V-5.594a1.946,1.946,0,0,0-.418-1.352,1.675,1.675,0,0,0-1.277-.437,2.086,2.086,0,0,0-1.234.375,2.546,2.546,0,0,0-.828.984V0H57.938V-8.453Z" transform="translate(502.588 429.398)" fill="#12263f"/>
      <g id="Grupo_260737" data-name="Grupo 260737">
        <g id="Grupo_260736" data-name="Grupo 260736" clip-path="url(#clip-path)">
          <path id="Trazado_278452" data-name="Trazado 278452" d="M786.064,676.015H584.122A12.722,12.722,0,0,1,571.4,663.292V634.727a12.722,12.722,0,0,1,12.722-12.722H786.064a12.722,12.722,0,0,1,12.723,12.722v28.565a12.723,12.723,0,0,1-12.723,12.723" fill="#fffad0"/>
        </g>
      </g>
      <path id="Trazado_279885" data-name="Trazado 279885" d="M1.32,0V-11.375H4.531a5.169,5.169,0,0,1,2.625.656A4.438,4.438,0,0,1,8.918-8.852,6.078,6.078,0,0,1,9.547-6.07v.727a6.1,6.1,0,0,1-.621,2.82A4.369,4.369,0,0,1,7.152-.664,5.5,5.5,0,0,1,4.469,0Zm1.5-10.148v8.922H4.4A3.434,3.434,0,0,0,7.1-2.306a4.458,4.458,0,0,0,.965-3.073v-.665a4.529,4.529,0,0,0-.91-3.014A3.239,3.239,0,0,0,4.57-10.148ZM13.156,0H11.711V-8.453h1.445ZM11.594-10.7a.863.863,0,0,1,.215-.594.807.807,0,0,1,.637-.242.819.819,0,0,1,.641.242.854.854,0,0,1,.219.594.826.826,0,0,1-.219.586.834.834,0,0,1-.641.234.821.821,0,0,1-.637-.234A.834.834,0,0,1,11.594-10.7Zm3.531,6.4a4.968,4.968,0,0,1,.914-3.145,2.923,2.923,0,0,1,2.422-1.168,2.908,2.908,0,0,1,2.414,1.094l.07-.937h1.32V-.2a3.439,3.439,0,0,1-.973,2.586,3.589,3.589,0,0,1-2.613.945,4.348,4.348,0,0,1-1.789-.391,3.08,3.08,0,0,1-1.336-1.07L16.3,1a2.826,2.826,0,0,0,2.273,1.148,2.214,2.214,0,0,0,1.645-.594,2.269,2.269,0,0,0,.59-1.672V-.844a2.971,2.971,0,0,1-2.367,1,2.887,2.887,0,0,1-2.4-1.2A5.224,5.224,0,0,1,15.125-4.3Zm1.453.164a3.79,3.79,0,0,0,.586,2.246A1.9,1.9,0,0,0,18.8-1.07a2.117,2.117,0,0,0,2.008-1.242V-6.172A2.142,2.142,0,0,0,18.82-7.383a1.921,1.921,0,0,0-1.648.82A4.128,4.128,0,0,0,16.578-4.133ZM27.953.156a3.693,3.693,0,0,1-2.8-1.129,4.19,4.19,0,0,1-1.078-3.02v-.266a5.073,5.073,0,0,1,.48-2.246A3.748,3.748,0,0,1,25.9-8.051a3.378,3.378,0,0,1,1.871-.559,3.166,3.166,0,0,1,2.563,1.086,4.7,4.7,0,0,1,.914,3.109v.6H25.523a3,3,0,0,0,.73,2.02,2.3,2.3,0,0,0,1.777.77,2.517,2.517,0,0,0,1.3-.312,3.259,3.259,0,0,0,.93-.828l.883.688A3.55,3.55,0,0,1,27.953.156Zm-.18-7.578a1.928,1.928,0,0,0-1.469.637A3.1,3.1,0,0,0,25.57-5H29.8v-.109a2.753,2.753,0,0,0-.594-1.707A1.815,1.815,0,0,0,27.773-7.422Zm10.07,5.18a1.064,1.064,0,0,0-.441-.91,4.249,4.249,0,0,0-1.539-.559,7.277,7.277,0,0,1-1.742-.562,2.479,2.479,0,0,1-.953-.781,1.869,1.869,0,0,1-.309-1.078,2.193,2.193,0,0,1,.879-1.758,3.432,3.432,0,0,1,2.246-.719,3.532,3.532,0,0,1,2.332.742,2.357,2.357,0,0,1,.895,1.9H37.758a1.3,1.3,0,0,0-.5-1.023,1.888,1.888,0,0,0-1.27-.43,1.976,1.976,0,0,0-1.234.344,1.082,1.082,0,0,0-.445.9.877.877,0,0,0,.414.789,5.1,5.1,0,0,0,1.5.508,7.8,7.8,0,0,1,1.754.578,2.558,2.558,0,0,1,1,.809,1.988,1.988,0,0,1,.324,1.152,2.163,2.163,0,0,1-.906,1.816,3.8,3.8,0,0,1-2.352.684,4.257,4.257,0,0,1-1.8-.359,2.922,2.922,0,0,1-1.223-1A2.42,2.42,0,0,1,32.57-2.6h1.445A1.5,1.5,0,0,0,34.6-1.449a2.258,2.258,0,0,0,1.434.426,2.331,2.331,0,0,0,1.316-.332A1.02,1.02,0,0,0,37.844-2.242ZM43.133-10.5v2.047h1.578v1.117H43.133v5.249a1.173,1.173,0,0,0,.211.763.888.888,0,0,0,.719.254,3.5,3.5,0,0,0,.688-.094V0a4.215,4.215,0,0,1-1.109.155A1.8,1.8,0,0,1,42.18-.43a2.517,2.517,0,0,1-.492-1.664V-7.336H40.148V-8.453h1.539V-10.5ZM47.969,0H46.523V-8.453h1.445ZM46.406-10.7a.863.863,0,0,1,.215-.594.807.807,0,0,1,.637-.242.819.819,0,0,1,.641.242.854.854,0,0,1,.219.594.826.826,0,0,1-.219.586.834.834,0,0,1-.641.234.821.821,0,0,1-.637-.234A.834.834,0,0,1,46.406-10.7ZM49.9-4.3a4.993,4.993,0,0,1,.488-2.234A3.643,3.643,0,0,1,51.746-8.07a3.7,3.7,0,0,1,1.988-.539,3.565,3.565,0,0,1,2.793,1.2,4.6,4.6,0,0,1,1.066,3.18v.1a5.036,5.036,0,0,1-.473,2.215A3.589,3.589,0,0,1,55.77-.391a3.743,3.743,0,0,1-2.02.547,3.556,3.556,0,0,1-2.785-1.2A4.575,4.575,0,0,1,49.9-4.2Zm1.453.172A3.616,3.616,0,0,0,52-1.875a2.088,2.088,0,0,0,1.746.852,2.075,2.075,0,0,0,1.75-.863A3.955,3.955,0,0,0,56.148-4.3a3.61,3.61,0,0,0-.66-2.254,2.1,2.1,0,0,0-1.754-.863,2.075,2.075,0,0,0-1.727.852A3.925,3.925,0,0,0,51.352-4.133ZM54.391-12h1.75L54.047-9.7l-1.164,0Zm6.383,3.547.047,1.063a3.08,3.08,0,0,1,2.531-1.219q2.68,0,2.7,3.023V0H64.609V-5.594a1.946,1.946,0,0,0-.418-1.352,1.675,1.675,0,0,0-1.277-.437,2.086,2.086,0,0,0-1.234.375,2.546,2.546,0,0,0-.828.984V0H59.406V-8.453ZM71.242-4.242H67.43v-1.18h3.813Zm5.492-2.914a4.331,4.331,0,0,0-.711-.055A1.9,1.9,0,0,0,74.094-6V0H72.648V-8.453h1.406l.023.977a2.251,2.251,0,0,1,2.016-1.133,1.477,1.477,0,0,1,.641.109ZM79.633,0H78.188V-8.453h1.445ZM78.07-10.7a.863.863,0,0,1,.215-.594.807.807,0,0,1,.637-.242.819.819,0,0,1,.641.242.854.854,0,0,1,.219.594.826.826,0,0,1-.219.586.834.834,0,0,1-.641.234.821.821,0,0,1-.637-.234A.834.834,0,0,1,78.07-10.7Zm5.836.2v2.047h1.578v1.117H83.906v5.249a1.173,1.173,0,0,0,.211.763.888.888,0,0,0,.719.254,3.5,3.5,0,0,0,.688-.094V0a4.215,4.215,0,0,1-1.109.155A1.8,1.8,0,0,1,82.953-.43a2.517,2.517,0,0,1-.492-1.664V-7.336H80.922V-8.453h1.539V-10.5Zm4.625,2.047.039.938a3.122,3.122,0,0,1,2.508-1.094A2.417,2.417,0,0,1,93.492-7.25a3.2,3.2,0,0,1,1.1-.984,3.242,3.242,0,0,1,1.6-.375q2.781,0,2.828,2.945V0H97.57V-5.578a1.941,1.941,0,0,0-.414-1.355,1.823,1.823,0,0,0-1.391-.449,1.916,1.916,0,0,0-1.336.48,1.949,1.949,0,0,0-.617,1.293V0H92.359V-5.539a1.613,1.613,0,0,0-1.8-1.844,1.934,1.934,0,0,0-1.945,1.211V0H87.164V-8.453ZM100.813-4.3a4.993,4.993,0,0,1,.488-2.234A3.643,3.643,0,0,1,102.66-8.07a3.7,3.7,0,0,1,1.988-.539,3.565,3.565,0,0,1,2.793,1.2,4.6,4.6,0,0,1,1.066,3.18v.1a5.036,5.036,0,0,1-.473,2.215,3.589,3.589,0,0,1-1.352,1.527,3.743,3.743,0,0,1-2.02.547,3.556,3.556,0,0,1-2.785-1.2A4.575,4.575,0,0,1,100.813-4.2Zm1.453.172a3.616,3.616,0,0,0,.652,2.258,2.088,2.088,0,0,0,1.746.852,2.075,2.075,0,0,0,1.75-.863,3.955,3.955,0,0,0,.648-2.418,3.61,3.61,0,0,0-.66-2.254,2.1,2.1,0,0,0-1.754-.863,2.075,2.075,0,0,0-1.727.852A3.925,3.925,0,0,0,102.266-4.133Zm15.406,3.109a2.082,2.082,0,0,0,1.352-.469,1.649,1.649,0,0,0,.641-1.172h1.367a2.621,2.621,0,0,1-.5,1.383A3.293,3.293,0,0,1,119.3-.234a3.55,3.55,0,0,1-1.629.391A3.482,3.482,0,0,1,114.926-1a4.59,4.59,0,0,1-1.02-3.152v-.242a5.089,5.089,0,0,1,.453-2.2,3.451,3.451,0,0,1,1.3-1.492,3.7,3.7,0,0,1,2-.531,3.39,3.39,0,0,1,2.363.852,3.043,3.043,0,0,1,1,2.211h-1.367a1.992,1.992,0,0,0-.621-1.348,1.932,1.932,0,0,0-1.379-.527,2.023,2.023,0,0,0-1.707.793,3.724,3.724,0,0,0-.605,2.293v.273a3.65,3.65,0,0,0,.6,2.25A2.033,2.033,0,0,0,117.672-1.023ZM127.875,0a3.036,3.036,0,0,1-.2-.891A3.225,3.225,0,0,1,125.266.156a2.984,2.984,0,0,1-2.051-.707,2.288,2.288,0,0,1-.8-1.793,2.39,2.39,0,0,1,1-2.051,4.733,4.733,0,0,1,2.824-.73h1.406v-.664A1.623,1.623,0,0,0,127.2-7a1.821,1.821,0,0,0-1.336-.449,2.108,2.108,0,0,0-1.3.391,1.151,1.151,0,0,0-.523.945h-1.453a2,2,0,0,1,.449-1.223,3.066,3.066,0,0,1,1.219-.934,4.1,4.1,0,0,1,1.691-.344,3.342,3.342,0,0,1,2.289.73,2.635,2.635,0,0,1,.859,2.012v3.891a4.757,4.757,0,0,0,.3,1.852V0Zm-2.4-1.1a2.54,2.54,0,0,0,1.289-.352,2.127,2.127,0,0,0,.883-.914V-4.1h-1.133q-2.656,0-2.656,1.555a1.316,1.316,0,0,0,.453,1.063A1.742,1.742,0,0,0,125.477-1.1Zm9.969-6.055a4.331,4.331,0,0,0-.711-.055A1.9,1.9,0,0,0,132.8-6V0h-1.445V-8.453h1.406l.023.977A2.251,2.251,0,0,1,134.8-8.609a1.477,1.477,0,0,1,.641.109Zm.668,2.859a4.952,4.952,0,0,1,.922-3.129,2.915,2.915,0,0,1,2.414-1.184A2.932,2.932,0,0,1,141.8-7.594V-12h1.445V0h-1.328l-.07-.906A2.943,2.943,0,0,1,139.434.156a2.887,2.887,0,0,1-2.395-1.2,5.008,5.008,0,0,1-.926-3.141Zm1.445.164a3.749,3.749,0,0,0,.594,2.25,1.919,1.919,0,0,0,1.641.813A2.108,2.108,0,0,0,141.8-2.3V-6.187a2.125,2.125,0,0,0-1.992-1.2,1.929,1.929,0,0,0-1.656.82A4.128,4.128,0,0,0,137.559-4.133ZM147.059,0h-1.445V-8.453h1.445ZM145.5-10.7a.863.863,0,0,1,.215-.594.807.807,0,0,1,.637-.242.819.819,0,0,1,.641.242.854.854,0,0,1,.219.594.826.826,0,0,1-.219.586.834.834,0,0,1-.641.234.821.821,0,0,1-.637-.234A.834.834,0,0,1,145.5-10.7ZM154.59,0a3.036,3.036,0,0,1-.2-.891A3.225,3.225,0,0,1,151.981.156a2.984,2.984,0,0,1-2.051-.707,2.287,2.287,0,0,1-.8-1.793,2.39,2.39,0,0,1,1-2.051,4.733,4.733,0,0,1,2.824-.73h1.406v-.664A1.623,1.623,0,0,0,153.91-7a1.821,1.821,0,0,0-1.336-.449,2.107,2.107,0,0,0-1.3.391,1.151,1.151,0,0,0-.523.945H149.3a2,2,0,0,1,.449-1.223,3.066,3.066,0,0,1,1.219-.934,4.1,4.1,0,0,1,1.691-.344,3.342,3.342,0,0,1,2.289.73,2.635,2.635,0,0,1,.859,2.012v3.891a4.757,4.757,0,0,0,.3,1.852V0Zm-2.4-1.1a2.54,2.54,0,0,0,1.289-.352,2.127,2.127,0,0,0,.883-.914V-4.1h-1.133q-2.656,0-2.656,1.555a1.316,1.316,0,0,0,.453,1.063A1.742,1.742,0,0,0,152.192-1.1Zm9.273.078a2.082,2.082,0,0,0,1.352-.469,1.649,1.649,0,0,0,.641-1.172h1.367a2.621,2.621,0,0,1-.5,1.383,3.293,3.293,0,0,1-1.23,1.047,3.55,3.55,0,0,1-1.629.391A3.482,3.482,0,0,1,158.719-1a4.59,4.59,0,0,1-1.02-3.152v-.242a5.089,5.089,0,0,1,.453-2.2,3.451,3.451,0,0,1,1.3-1.492,3.7,3.7,0,0,1,2-.531,3.39,3.39,0,0,1,2.363.852,3.043,3.043,0,0,1,1,2.211h-1.367a1.992,1.992,0,0,0-.621-1.348,1.932,1.932,0,0,0-1.379-.527,2.023,2.023,0,0,0-1.707.793,3.724,3.724,0,0,0-.605,2.293v.273a3.65,3.65,0,0,0,.6,2.25A2.033,2.033,0,0,0,161.465-1.023Zm4.6-3.281a4.993,4.993,0,0,1,.488-2.234,3.642,3.642,0,0,1,1.359-1.531,3.7,3.7,0,0,1,1.988-.539,3.565,3.565,0,0,1,2.793,1.2,4.6,4.6,0,0,1,1.066,3.18v.1a5.036,5.036,0,0,1-.473,2.215,3.589,3.589,0,0,1-1.352,1.527,3.743,3.743,0,0,1-2.02.547,3.556,3.556,0,0,1-2.785-1.2A4.575,4.575,0,0,1,166.067-4.2Zm1.453.172a3.616,3.616,0,0,0,.652,2.258,2.088,2.088,0,0,0,1.746.852,2.075,2.075,0,0,0,1.75-.863,3.954,3.954,0,0,0,.648-2.418,3.61,3.61,0,0,0-.66-2.254,2.1,2.1,0,0,0-1.754-.863,2.075,2.075,0,0,0-1.727.852A3.925,3.925,0,0,0,167.52-4.133Zm11.063-.109H174.77v-1.18h3.813Z" transform="translate(598.205 646.071)" fill="#12263f"/>
      <path id="Trazado_279886" data-name="Trazado 279886" d="M5.18-7.156a4.331,4.331,0,0,0-.711-.055A1.9,1.9,0,0,0,2.539-6V0H1.094V-8.453H2.5l.023.977A2.251,2.251,0,0,1,4.539-8.609,1.477,1.477,0,0,1,5.18-8.5ZM9.723.156a3.693,3.693,0,0,1-2.8-1.129,4.19,4.19,0,0,1-1.078-3.02v-.266A5.073,5.073,0,0,1,6.329-6.5,3.748,3.748,0,0,1,7.672-8.051a3.378,3.378,0,0,1,1.871-.559,3.166,3.166,0,0,1,2.563,1.086,4.7,4.7,0,0,1,.914,3.109v.6H7.293a3,3,0,0,0,.73,2.02,2.3,2.3,0,0,0,1.777.77,2.517,2.517,0,0,0,1.3-.312,3.259,3.259,0,0,0,.93-.828l.883.688A3.55,3.55,0,0,1,9.723.156Zm-.18-7.578a1.928,1.928,0,0,0-1.469.637A3.1,3.1,0,0,0,7.34-5h4.234v-.109a2.753,2.753,0,0,0-.594-1.707A1.815,1.815,0,0,0,9.543-7.422Zm10.07,5.18a1.064,1.064,0,0,0-.441-.91,4.249,4.249,0,0,0-1.539-.559,7.277,7.277,0,0,1-1.742-.562,2.479,2.479,0,0,1-.953-.781,1.869,1.869,0,0,1-.309-1.078,2.193,2.193,0,0,1,.879-1.758,3.432,3.432,0,0,1,2.246-.719,3.532,3.532,0,0,1,2.332.742,2.357,2.357,0,0,1,.895,1.9H19.528a1.3,1.3,0,0,0-.5-1.023,1.888,1.888,0,0,0-1.27-.43,1.976,1.976,0,0,0-1.234.344,1.082,1.082,0,0,0-.445.9.877.877,0,0,0,.414.789,5.1,5.1,0,0,0,1.5.508,7.8,7.8,0,0,1,1.754.578,2.558,2.558,0,0,1,1,.809,1.988,1.988,0,0,1,.324,1.152,2.163,2.163,0,0,1-.906,1.816A3.8,3.8,0,0,1,17.8.156,4.257,4.257,0,0,1,16-.2a2.922,2.922,0,0,1-1.223-1A2.42,2.42,0,0,1,14.34-2.6h1.445a1.5,1.5,0,0,0,.582,1.152,2.258,2.258,0,0,0,1.434.426,2.331,2.331,0,0,0,1.316-.332A1.02,1.02,0,0,0,19.614-2.242ZM30.083-4.133A5.062,5.062,0,0,1,29.2-1.023,2.829,2.829,0,0,1,26.809.156,3.1,3.1,0,0,1,24.387-.82V3.25H22.942v-11.7h1.32l.07.938a2.977,2.977,0,0,1,2.453-1.094A2.882,2.882,0,0,1,29.2-7.461a5.117,5.117,0,0,1,.887,3.2ZM28.637-4.3a3.735,3.735,0,0,0-.609-2.258,1.963,1.963,0,0,0-1.672-.828,2.125,2.125,0,0,0-1.969,1.164V-2.18a2.129,2.129,0,0,0,1.984,1.156,1.954,1.954,0,0,0,1.652-.824A4.077,4.077,0,0,0,28.637-4.3ZM33.489,0H32.043V-8.453h1.445ZM31.926-10.7a.863.863,0,0,1,.215-.594.807.807,0,0,1,.637-.242.819.819,0,0,1,.641.242.854.854,0,0,1,.219.594.826.826,0,0,1-.219.586.834.834,0,0,1-.641.234.821.821,0,0,1-.637-.234A.834.834,0,0,1,31.926-10.7Zm7.961,3.539a4.331,4.331,0,0,0-.711-.055A1.9,1.9,0,0,0,37.247-6V0H35.8V-8.453h1.406l.023.977a2.251,2.251,0,0,1,2.016-1.133,1.477,1.477,0,0,1,.641.109ZM45.8,0a3.036,3.036,0,0,1-.2-.891A3.225,3.225,0,0,1,43.192.156a2.984,2.984,0,0,1-2.051-.707,2.287,2.287,0,0,1-.8-1.793,2.39,2.39,0,0,1,1-2.051,4.733,4.733,0,0,1,2.824-.73h1.406v-.664A1.623,1.623,0,0,0,45.122-7a1.821,1.821,0,0,0-1.336-.449,2.107,2.107,0,0,0-1.3.391,1.151,1.151,0,0,0-.523.945H40.513a2,2,0,0,1,.449-1.223,3.066,3.066,0,0,1,1.219-.934,4.1,4.1,0,0,1,1.691-.344,3.342,3.342,0,0,1,2.289.73,2.635,2.635,0,0,1,.859,2.012v3.891a4.757,4.757,0,0,0,.3,1.852V0ZM43.4-1.1a2.54,2.54,0,0,0,1.289-.352,2.127,2.127,0,0,0,.883-.914V-4.1H44.442q-2.656,0-2.656,1.555a1.316,1.316,0,0,0,.453,1.063A1.742,1.742,0,0,0,43.4-1.1Zm9.273.078a2.082,2.082,0,0,0,1.352-.469,1.649,1.649,0,0,0,.641-1.172h1.367a2.621,2.621,0,0,1-.5,1.383,3.293,3.293,0,0,1-1.23,1.047,3.55,3.55,0,0,1-1.629.391A3.482,3.482,0,0,1,49.931-1a4.59,4.59,0,0,1-1.02-3.152v-.242a5.089,5.089,0,0,1,.453-2.2,3.451,3.451,0,0,1,1.3-1.492,3.7,3.7,0,0,1,2-.531,3.39,3.39,0,0,1,2.363.852,3.043,3.043,0,0,1,1,2.211H54.669a1.992,1.992,0,0,0-.621-1.348,1.932,1.932,0,0,0-1.379-.527,2.023,2.023,0,0,0-1.707.793,3.724,3.724,0,0,0-.605,2.293v.273a3.65,3.65,0,0,0,.6,2.25A2.033,2.033,0,0,0,52.677-1.023ZM59.231,0H57.786V-8.453h1.445ZM57.669-10.7a.863.863,0,0,1,.215-.594.807.807,0,0,1,.637-.242.819.819,0,0,1,.641.242.854.854,0,0,1,.219.594.826.826,0,0,1-.219.586.834.834,0,0,1-.641.234.821.821,0,0,1-.637-.234A.834.834,0,0,1,57.669-10.7ZM61.161-4.3a4.993,4.993,0,0,1,.488-2.234A3.643,3.643,0,0,1,63.009-8.07,3.7,3.7,0,0,1,65-8.609a3.565,3.565,0,0,1,2.793,1.2,4.6,4.6,0,0,1,1.066,3.18v.1a5.036,5.036,0,0,1-.473,2.215A3.589,3.589,0,0,1,67.032-.391a3.743,3.743,0,0,1-2.02.547,3.556,3.556,0,0,1-2.785-1.2A4.575,4.575,0,0,1,61.161-4.2Zm1.453.172a3.616,3.616,0,0,0,.652,2.258,2.088,2.088,0,0,0,1.746.852,2.075,2.075,0,0,0,1.75-.863A3.955,3.955,0,0,0,67.411-4.3a3.61,3.61,0,0,0-.66-2.254A2.1,2.1,0,0,0,65-7.422a2.075,2.075,0,0,0-1.727.852A3.925,3.925,0,0,0,62.614-4.133ZM65.653-12H67.4L65.309-9.7l-1.164,0Zm6.383,3.547.047,1.063a3.08,3.08,0,0,1,2.531-1.219q2.68,0,2.7,3.023V0H75.872V-5.594a1.946,1.946,0,0,0-.418-1.352,1.675,1.675,0,0,0-1.277-.437,2.086,2.086,0,0,0-1.234.375,2.546,2.546,0,0,0-.828.984V0H70.669V-8.453Z" transform="translate(650.285 665.271)" fill="#12263f"/>
      <g id="Grupo_260739" data-name="Grupo 260739">
        <g id="Grupo_260738" data-name="Grupo 260738" clip-path="url(#clip-path)">
          <path id="Trazado_278453" data-name="Trazado 278453" d="M214.664,677.545H12.722A12.722,12.722,0,0,1,0,664.822V636.257a12.722,12.722,0,0,1,12.722-12.722H214.664a12.722,12.722,0,0,1,12.723,12.722v28.565a12.723,12.723,0,0,1-12.723,12.723" fill="#fffad0"/>
        </g>
      </g>
      <path id="Trazado_279887" data-name="Trazado 279887" d="M2.828-1.227H8.219V0H1.32V-11.375H2.828ZM13.211.156a3.693,3.693,0,0,1-2.8-1.129,4.19,4.19,0,0,1-1.078-3.02v-.266A5.073,5.073,0,0,1,9.816-6.5,3.748,3.748,0,0,1,11.16-8.051a3.378,3.378,0,0,1,1.871-.559,3.166,3.166,0,0,1,2.563,1.086,4.7,4.7,0,0,1,.914,3.109v.6H10.781a3,3,0,0,0,.73,2.02,2.3,2.3,0,0,0,1.777.77,2.517,2.517,0,0,0,1.3-.312,3.259,3.259,0,0,0,.93-.828l.883.688A3.55,3.55,0,0,1,13.211.156Zm-.18-7.578a1.928,1.928,0,0,0-1.469.637A3.1,3.1,0,0,0,10.828-5h4.234v-.109a2.753,2.753,0,0,0-.594-1.707A1.815,1.815,0,0,0,13.031-7.422Zm8.539,6.4a2.082,2.082,0,0,0,1.352-.469,1.649,1.649,0,0,0,.641-1.172H24.93a2.621,2.621,0,0,1-.5,1.383A3.293,3.293,0,0,1,23.2-.234,3.55,3.55,0,0,1,21.57.156,3.482,3.482,0,0,1,18.824-1,4.59,4.59,0,0,1,17.8-4.148v-.242a5.089,5.089,0,0,1,.453-2.2,3.451,3.451,0,0,1,1.3-1.492,3.7,3.7,0,0,1,2-.531,3.39,3.39,0,0,1,2.363.852,3.043,3.043,0,0,1,1,2.211H23.563a1.992,1.992,0,0,0-.621-1.348,1.932,1.932,0,0,0-1.379-.527,2.023,2.023,0,0,0-1.707.793,3.724,3.724,0,0,0-.605,2.293v.273a3.65,3.65,0,0,0,.6,2.25A2.033,2.033,0,0,0,21.57-1.023ZM28-7.43a3.073,3.073,0,0,1,2.5-1.18q2.68,0,2.7,3.023V0H31.758V-5.594a1.946,1.946,0,0,0-.418-1.352,1.675,1.675,0,0,0-1.277-.437,2.086,2.086,0,0,0-1.234.375A2.546,2.546,0,0,0,28-6.023V0H26.555V-12H28ZM38.875.156a3.693,3.693,0,0,1-2.8-1.129A4.19,4.19,0,0,1,35-3.992v-.266A5.073,5.073,0,0,1,35.48-6.5a3.748,3.748,0,0,1,1.344-1.547A3.378,3.378,0,0,1,38.7-8.609a3.166,3.166,0,0,1,2.563,1.086,4.7,4.7,0,0,1,.914,3.109v.6H36.445a3,3,0,0,0,.73,2.02,2.3,2.3,0,0,0,1.777.77,2.517,2.517,0,0,0,1.3-.312,3.259,3.259,0,0,0,.93-.828l.883.688A3.55,3.55,0,0,1,38.875.156ZM38.7-7.422a1.928,1.928,0,0,0-1.469.637A3.1,3.1,0,0,0,36.492-5h4.234v-.109a2.753,2.753,0,0,0-.594-1.707A1.815,1.815,0,0,0,38.7-7.422Zm8.156,3.18H43.039v-1.18h3.813Zm8.758,3.219a2.082,2.082,0,0,0,1.352-.469A1.649,1.649,0,0,0,57.6-2.664h1.367a2.621,2.621,0,0,1-.5,1.383,3.293,3.293,0,0,1-1.23,1.047,3.55,3.55,0,0,1-1.629.391A3.482,3.482,0,0,1,52.863-1a4.59,4.59,0,0,1-1.02-3.152v-.242a5.089,5.089,0,0,1,.453-2.2,3.451,3.451,0,0,1,1.3-1.492,3.7,3.7,0,0,1,2-.531,3.39,3.39,0,0,1,2.363.852,3.043,3.043,0,0,1,1,2.211H57.6a1.992,1.992,0,0,0-.621-1.348A1.932,1.932,0,0,0,55.6-7.422a2.023,2.023,0,0,0-1.707.793,3.724,3.724,0,0,0-.605,2.293v.273a3.65,3.65,0,0,0,.6,2.25A2.033,2.033,0,0,0,55.609-1.023ZM65.813,0a3.036,3.036,0,0,1-.2-.891A3.225,3.225,0,0,1,63.2.156a2.984,2.984,0,0,1-2.051-.707,2.287,2.287,0,0,1-.8-1.793,2.39,2.39,0,0,1,1-2.051,4.733,4.733,0,0,1,2.824-.73h1.406v-.664A1.623,1.623,0,0,0,65.133-7,1.821,1.821,0,0,0,63.8-7.445a2.107,2.107,0,0,0-1.3.391,1.151,1.151,0,0,0-.523.945H60.523a2,2,0,0,1,.449-1.223,3.066,3.066,0,0,1,1.219-.934,4.1,4.1,0,0,1,1.691-.344,3.342,3.342,0,0,1,2.289.73,2.635,2.635,0,0,1,.859,2.012v3.891a4.757,4.757,0,0,0,.3,1.852V0Zm-2.4-1.1A2.54,2.54,0,0,0,64.7-1.453a2.127,2.127,0,0,0,.883-.914V-4.1H64.453Q61.8-4.1,61.8-2.547a1.316,1.316,0,0,0,.453,1.063A1.742,1.742,0,0,0,63.414-1.1Zm9.969-6.055a4.331,4.331,0,0,0-.711-.055A1.9,1.9,0,0,0,70.742-6V0H69.3V-8.453H70.7l.023.977a2.251,2.251,0,0,1,2.016-1.133,1.477,1.477,0,0,1,.641.109Zm2.7-1.3.047,1.063a3.08,3.08,0,0,1,2.531-1.219q2.68,0,2.7,3.023V0H79.914V-5.594A1.946,1.946,0,0,0,79.5-6.945a1.675,1.675,0,0,0-1.277-.437,2.086,2.086,0,0,0-1.234.375,2.546,2.546,0,0,0-.828.984V0H74.711V-8.453ZM87.047.156a3.693,3.693,0,0,1-2.8-1.129,4.19,4.19,0,0,1-1.078-3.02v-.266a5.073,5.073,0,0,1,.48-2.246A3.748,3.748,0,0,1,85-8.051a3.378,3.378,0,0,1,1.871-.559A3.166,3.166,0,0,1,89.43-7.523a4.7,4.7,0,0,1,.914,3.109v.6H84.617a3,3,0,0,0,.73,2.02,2.3,2.3,0,0,0,1.777.77,2.517,2.517,0,0,0,1.3-.312,3.259,3.259,0,0,0,.93-.828l.883.688A3.55,3.55,0,0,1,87.047.156Zm-.18-7.578a1.928,1.928,0,0,0-1.469.637A3.1,3.1,0,0,0,84.664-5H88.9v-.109A2.753,2.753,0,0,0,88.3-6.816,1.815,1.815,0,0,0,86.867-7.422Zm8.156,3.18H91.211v-1.18h3.813Zm9.453-2.914a4.331,4.331,0,0,0-.711-.055A1.9,1.9,0,0,0,101.836-6V0h-1.445V-8.453H101.8l.023.977a2.251,2.251,0,0,1,2.016-1.133,1.477,1.477,0,0,1,.641.109ZM109,.156a3.693,3.693,0,0,1-2.8-1.129,4.19,4.19,0,0,1-1.078-3.02v-.266a5.073,5.073,0,0,1,.48-2.246,3.748,3.748,0,0,1,1.344-1.547,3.378,3.378,0,0,1,1.871-.559,3.166,3.166,0,0,1,2.563,1.086,4.7,4.7,0,0,1,.914,3.109v.6h-5.727a3,3,0,0,0,.73,2.02,2.3,2.3,0,0,0,1.777.77,2.517,2.517,0,0,0,1.3-.312,3.259,3.259,0,0,0,.93-.828l.883.688A3.55,3.55,0,0,1,109,.156Zm-.18-7.578a1.928,1.928,0,0,0-1.469.637A3.1,3.1,0,0,0,106.621-5h4.234v-.109a2.753,2.753,0,0,0-.594-1.707A1.815,1.815,0,0,0,108.824-7.422Zm12.289,3.289a5.062,5.062,0,0,1-.883,3.109A2.829,2.829,0,0,1,117.84.156a3.1,3.1,0,0,1-2.422-.977V3.25h-1.445v-11.7h1.32l.07.938a2.977,2.977,0,0,1,2.453-1.094,2.882,2.882,0,0,1,2.41,1.148,5.117,5.117,0,0,1,.887,3.2ZM119.668-4.3a3.735,3.735,0,0,0-.609-2.258,1.963,1.963,0,0,0-1.672-.828,2.125,2.125,0,0,0-1.969,1.164V-2.18A2.129,2.129,0,0,0,117.4-1.023a1.954,1.954,0,0,0,1.652-.824A4.077,4.077,0,0,0,119.668-4.3Zm7.367-2.859a4.331,4.331,0,0,0-.711-.055A1.9,1.9,0,0,0,124.395-6V0h-1.445V-8.453h1.406l.023.977a2.251,2.251,0,0,1,2.016-1.133,1.477,1.477,0,0,1,.641.109ZM127.68-4.3a4.993,4.993,0,0,1,.488-2.234,3.642,3.642,0,0,1,1.359-1.531,3.7,3.7,0,0,1,1.988-.539,3.565,3.565,0,0,1,2.793,1.2,4.6,4.6,0,0,1,1.066,3.18v.1a5.036,5.036,0,0,1-.473,2.215,3.589,3.589,0,0,1-1.352,1.527,3.743,3.743,0,0,1-2.02.547,3.556,3.556,0,0,1-2.785-1.2A4.575,4.575,0,0,1,127.68-4.2Zm1.453.172a3.616,3.616,0,0,0,.652,2.258,2.088,2.088,0,0,0,1.746.852,2.075,2.075,0,0,0,1.75-.863A3.954,3.954,0,0,0,133.93-4.3a3.61,3.61,0,0,0-.66-2.254,2.1,2.1,0,0,0-1.754-.863,2.075,2.075,0,0,0-1.727.852A3.925,3.925,0,0,0,129.133-4.133Zm7.7-.164a4.952,4.952,0,0,1,.922-3.129,2.915,2.915,0,0,1,2.414-1.184,2.932,2.932,0,0,1,2.352,1.016V-12h1.445V0h-1.328l-.07-.906A2.943,2.943,0,0,1,140.157.156a2.887,2.887,0,0,1-2.395-1.2,5.008,5.008,0,0,1-.926-3.141Zm1.445.164a3.749,3.749,0,0,0,.594,2.25,1.919,1.919,0,0,0,1.641.813A2.108,2.108,0,0,0,142.524-2.3V-6.187a2.125,2.125,0,0,0-1.992-1.2,1.929,1.929,0,0,0-1.656.82A4.128,4.128,0,0,0,138.282-4.133Zm13.148,3.3a3.07,3.07,0,0,1-2.477.992A2.628,2.628,0,0,1,146.9-.629a3.4,3.4,0,0,1-.715-2.324v-5.5h1.445v5.461q0,1.922,1.563,1.922a2.163,2.163,0,0,0,2.2-1.234V-8.453h1.445V0h-1.375Zm6.992-.187a2.082,2.082,0,0,0,1.352-.469,1.649,1.649,0,0,0,.641-1.172h1.367a2.621,2.621,0,0,1-.5,1.383,3.293,3.293,0,0,1-1.23,1.047,3.55,3.55,0,0,1-1.629.391A3.482,3.482,0,0,1,155.676-1a4.59,4.59,0,0,1-1.02-3.152v-.242a5.089,5.089,0,0,1,.453-2.2,3.451,3.451,0,0,1,1.3-1.492,3.7,3.7,0,0,1,2-.531,3.39,3.39,0,0,1,2.363.852,3.043,3.043,0,0,1,1,2.211h-1.367a1.992,1.992,0,0,0-.621-1.348,1.932,1.932,0,0,0-1.379-.527,2.023,2.023,0,0,0-1.707.793,3.724,3.724,0,0,0-.605,2.293v.273a3.65,3.65,0,0,0,.6,2.25A2.033,2.033,0,0,0,158.423-1.023Zm8.375,0a2.082,2.082,0,0,0,1.352-.469,1.649,1.649,0,0,0,.641-1.172h1.367a2.621,2.621,0,0,1-.5,1.383,3.293,3.293,0,0,1-1.23,1.047A3.55,3.55,0,0,1,166.8.156,3.482,3.482,0,0,1,164.051-1a4.59,4.59,0,0,1-1.02-3.152v-.242a5.089,5.089,0,0,1,.453-2.2,3.451,3.451,0,0,1,1.3-1.492,3.7,3.7,0,0,1,2-.531,3.39,3.39,0,0,1,2.363.852,3.043,3.043,0,0,1,1,2.211H168.79a1.992,1.992,0,0,0-.621-1.348,1.932,1.932,0,0,0-1.379-.527,2.023,2.023,0,0,0-1.707.793,3.724,3.724,0,0,0-.605,2.293v.273a3.65,3.65,0,0,0,.6,2.25A2.033,2.033,0,0,0,166.8-1.023ZM173.352,0h-1.445V-8.453h1.445ZM171.79-10.7a.863.863,0,0,1,.215-.594.807.807,0,0,1,.637-.242.819.819,0,0,1,.641.242.854.854,0,0,1,.219.594.826.826,0,0,1-.219.586.834.834,0,0,1-.641.234.821.821,0,0,1-.637-.234A.834.834,0,0,1,171.79-10.7ZM175.282-4.3a4.993,4.993,0,0,1,.488-2.234A3.642,3.642,0,0,1,177.13-8.07a3.7,3.7,0,0,1,1.988-.539,3.565,3.565,0,0,1,2.793,1.2,4.6,4.6,0,0,1,1.066,3.18v.1a5.036,5.036,0,0,1-.473,2.215,3.589,3.589,0,0,1-1.352,1.527,3.743,3.743,0,0,1-2.02.547,3.556,3.556,0,0,1-2.785-1.2A4.575,4.575,0,0,1,175.282-4.2Zm1.453.172a3.616,3.616,0,0,0,.652,2.258,2.088,2.088,0,0,0,1.746.852,2.075,2.075,0,0,0,1.75-.863,3.954,3.954,0,0,0,.648-2.418,3.61,3.61,0,0,0-.66-2.254,2.1,2.1,0,0,0-1.754-.863,2.075,2.075,0,0,0-1.727.852A3.925,3.925,0,0,0,176.735-4.133ZM179.774-12h1.75L179.43-9.7l-1.164,0Zm6.383,3.547.047,1.063a3.08,3.08,0,0,1,2.531-1.219q2.68,0,2.7,3.023V0h-1.445V-5.594a1.946,1.946,0,0,0-.418-1.352,1.675,1.675,0,0,0-1.277-.437,2.086,2.086,0,0,0-1.234.375,2.546,2.546,0,0,0-.828.984V0H184.79V-8.453Z" transform="translate(18.28 656.606)" fill="#12263f"/>
    </g>
  </g>
</svg>
