<svg xmlns="http://www.w3.org/2000/svg" xmlns:xlink="http://www.w3.org/1999/xlink" width="1030" height="443" viewBox="0 0 1030 443">
  <defs>
    <clipPath id="clip-path">
      <path id="Trazado_815334" data-name="Trazado 815334" d="M0,0H961.98V392.373H0Z" fill="none"/>
    </clipPath>
    <clipPath id="clip-path-2">
      <rect id="Rectángulo_325013" data-name="Rectángulo 325013" width="961.98" height="392.373" fill="none"/>
    </clipPath>
    <clipPath id="clip-path-3">
      <rect id="Rectángulo_325012" data-name="Rectángulo 325012" width="408.489" height="241" transform="translate(116.883 63.574)" fill="none"/>
    </clipPath>
  </defs>
  <g id="Grupo_1071226" data-name="Grupo 1071226" transform="translate(-285 -5360)">
    <g id="Grupo_1071143" data-name="Grupo 1071143">
      <rect id="Rectángulo_376035" data-name="Rectángulo 376035" width="1030" height="443" transform="translate(285 5360)" fill="#fff"/>
      <g id="Grupo_1071142" data-name="Grupo 1071142" transform="translate(319 5390.813)">
        <g id="Enmascarar_grupo_117" data-name="Enmascarar grupo 117" clip-path="url(#clip-path)">
          <g id="Grupo_260747" data-name="Grupo 260747">
            <g id="Grupo_260746" data-name="Grupo 260746" clip-path="url(#clip-path-2)">
              <g id="Grupo_260745" data-name="Grupo 260745" opacity="0.6" style="isolation: isolate">
                <g id="Grupo_260744" data-name="Grupo 260744">
                  <g id="Grupo_260743" data-name="Grupo 260743" clip-path="url(#clip-path-3)">
                    <path id="Trazado_278536" data-name="Trazado 278536" d="M503.936,304.074H138.319a20.936,20.936,0,0,1-20.936-20.936V85.01a20.936,20.936,0,0,1,20.936-20.936H503.936A20.936,20.936,0,0,1,524.872,85.01V283.138a20.936,20.936,0,0,1-20.936,20.936" fill="#dbf9bd"/>
                    <rect id="Rectángulo_325011" data-name="Rectángulo 325011" width="407.489" height="240" rx="20.936" transform="translate(117.383 64.074)" fill="none" stroke="#04294f" stroke-miterlimit="10" stroke-width="1" stroke-dasharray="6.994 6.994"/>
                  </g>
                </g>
              </g>
            </g>
          </g>
          <path id="Trazado_815339" data-name="Trazado 815339" d="M8.367-2.637H3.744L2.865,0H.062L4.825-12.8H7.269L12.059,0h-2.8ZM4.456-4.772h3.2L6.047-9.562ZM15.768,0H13.219V-13.5h2.549ZM20.54,0H17.991V-9.51H20.54Zm-2.7-11.971a1.251,1.251,0,0,1,.382-.94,1.436,1.436,0,0,1,1.042-.369,1.44,1.44,0,0,1,1.037.369,1.244,1.244,0,0,1,.387.94,1.247,1.247,0,0,1-.391.949,1.443,1.443,0,0,1-1.033.369,1.443,1.443,0,0,1-1.033-.369A1.247,1.247,0,0,1,17.842-11.971ZM25.014-9.51l.079,1.063a3.342,3.342,0,0,1,2.733-1.239,2.536,2.536,0,0,1,2.522,1.45,3.265,3.265,0,0,1,2.856-1.45,2.836,2.836,0,0,1,2.3.9,4.141,4.141,0,0,1,.756,2.711V0H33.715V-6.064A1.811,1.811,0,0,0,33.4-7.247a1.4,1.4,0,0,0-1.116-.374A1.585,1.585,0,0,0,30.7-6.53L30.709,0h-2.54V-6.056a1.789,1.789,0,0,0-.325-1.2,1.416,1.416,0,0,0-1.107-.369,1.646,1.646,0,0,0-1.564.9V0h-2.54V-9.51ZM42.592.176a4.668,4.668,0,0,1-3.406-1.283,4.561,4.561,0,0,1-1.314-3.419v-.246a5.745,5.745,0,0,1,.554-2.562,4.064,4.064,0,0,1,1.569-1.74,4.4,4.4,0,0,1,2.316-.611,3.947,3.947,0,0,1,3.072,1.23A5,5,0,0,1,46.5-4.966v1.037H40.447a2.36,2.36,0,0,0,.743,1.494,2.245,2.245,0,0,0,1.569.563,2.742,2.742,0,0,0,2.294-1.063l1.248,1.4A3.813,3.813,0,0,1,44.754-.277,5.075,5.075,0,0,1,42.592.176ZM42.3-7.638a1.587,1.587,0,0,0-1.226.512,2.651,2.651,0,0,0-.6,1.466h3.533v-.2a1.891,1.891,0,0,0-.457-1.311A1.638,1.638,0,0,0,42.3-7.638Zm7.98-1.872.079,1.1a3.32,3.32,0,0,1,2.733-1.274,2.759,2.759,0,0,1,2.25.888A4.142,4.142,0,0,1,56.1-6.144V0h-2.54V-6.082a1.648,1.648,0,0,0-.352-1.173A1.574,1.574,0,0,0,52.04-7.62a1.747,1.747,0,0,0-1.608.914V0h-2.54V-9.51Zm10.784-2.338V-9.51h1.626v1.863H61.066V-2.9a1.133,1.133,0,0,0,.2.756,1.015,1.015,0,0,0,.773.229,4.051,4.051,0,0,0,.747-.062V-.053a5.229,5.229,0,0,1-1.538.229,2.425,2.425,0,0,1-2.725-2.7V-7.646H57.138V-9.51h1.389v-2.338Zm2.112,7a5.64,5.64,0,0,1,.545-2.522,3.989,3.989,0,0,1,1.569-1.714,4.577,4.577,0,0,1,2.377-.606,4.33,4.33,0,0,1,3.142,1.178,4.727,4.727,0,0,1,1.358,3.2l.018.65a4.97,4.97,0,0,1-1.222,3.511A4.247,4.247,0,0,1,67.687.176,4.268,4.268,0,0,1,64.4-1.143a5.058,5.058,0,0,1-1.226-3.586Zm2.54.18a3.555,3.555,0,0,0,.51,2.073,1.682,1.682,0,0,0,1.459.717,1.686,1.686,0,0,0,1.441-.709,3.89,3.89,0,0,0,.519-2.267,3.519,3.519,0,0,0-.519-2.06,1.686,1.686,0,0,0-1.459-.731,1.658,1.658,0,0,0-1.441.726A3.955,3.955,0,0,0,65.718-4.662ZM78.9-2.628a.818.818,0,0,0-.461-.734,5.241,5.241,0,0,0-1.481-.479q-3.393-.712-3.393-2.883a2.613,2.613,0,0,1,1.05-2.114,4.237,4.237,0,0,1,2.747-.848,4.56,4.56,0,0,1,2.9.853,2.687,2.687,0,0,1,1.085,2.215h-2.54a1.229,1.229,0,0,0-.352-.9,1.488,1.488,0,0,0-1.1-.356,1.52,1.52,0,0,0-.993.29.916.916,0,0,0-.352.738.783.783,0,0,0,.4.681,4.114,4.114,0,0,0,1.349.448,11.019,11.019,0,0,1,1.6.426,2.628,2.628,0,0,1,2.013,2.558,2.481,2.481,0,0,1-1.116,2.1,4.815,4.815,0,0,1-2.883.8A5.029,5.029,0,0,1,75.25-.25,3.561,3.561,0,0,1,73.8-1.419a2.716,2.716,0,0,1-.527-1.6h2.408a1.326,1.326,0,0,0,.5,1.037,1.987,1.987,0,0,0,1.248.36,1.839,1.839,0,0,0,1.1-.277A.861.861,0,0,0,78.9-2.628Z" transform="translate(17.541 25.635)" fill="#12263f"/>
          <text id="_7_50_" data-name="7,50 %" transform="translate(157.256 129.261)" fill="#12263f" font-size="18" font-family="Roboto-Regular, Roboto"><tspan x="0" y="0">7,50 %</tspan></text>
          <text id="_36_80_" data-name="36,80 %" transform="translate(152.199 250.797)" fill="#12263f" font-size="18" font-family="Roboto-Regular, Roboto"><tspan x="0" y="0">36,80 %</tspan></text>
          <text id="_18_8_" data-name="18,8 %" transform="translate(436.059 129.261)" fill="#12263f" font-size="18" font-family="Roboto-Regular, Roboto"><tspan x="0" y="0">18,8 %</tspan></text>
          <text id="_18_" data-name="18 %" transform="translate(314.991 182.685)" fill="#12263f" font-size="18" font-family="Roboto-Regular, Roboto"><tspan x="0" y="0">18 %</tspan></text>
          <text id="_10_5_" data-name="10,5 %" transform="translate(436.059 250.797)" fill="#12263f" font-size="18" font-family="Roboto-Regular, Roboto"><tspan x="0" y="0">10,5 %</tspan></text>
          <text id="_18_-_7_5_10_5" data-name="18 - 7,5 = 10,5" transform="translate(674.666 129.261)" fill="#12263f" font-size="18" font-family="Roboto-Regular, Roboto"><tspan x="0" y="0">18 - 7,5 = 10,5</tspan></text>
          <text id="_36_80_-_18_18_8" data-name="36,80 - 18 = 18,8" transform="translate(674.666 250.797)" fill="#12263f" font-size="18" font-family="Roboto-Regular, Roboto"><tspan x="0" y="0">36,80 - 18 = 18,8</tspan></text>
          <text id="_64_20_" data-name="64,20 %" transform="translate(556.154 129.261)" fill="#12263f" font-size="18" font-family="Roboto-Bold, Roboto" font-weight="700"><tspan x="0" y="0">64,20 %</tspan></text>
          <text id="_29_3" data-name="29,3" transform="translate(909.063 187.329)" fill="#12263f" font-size="18" font-family="Roboto-Bold, Roboto" font-weight="700"><tspan x="0" y="0">29,3</tspan></text>
          <text id="_35_80_" data-name="35,80 %" transform="translate(556.154 250.797)" fill="#12263f" font-size="18" font-family="Roboto-Bold, Roboto" font-weight="700"><tspan x="0" y="0">35,80 %</tspan></text>
          <path id="Trazado_815338" data-name="Trazado 815338" d="M4.588-12.8,7.875-3.516l3.27-9.281h3.463V0H11.962V-3.5l.264-6.038L8.771,0H6.961L3.516-9.527,3.779-3.5V0H1.143V-12.8ZM22.254,0A2.821,2.821,0,0,1,22-.853,3.073,3.073,0,0,1,19.6.176a3.376,3.376,0,0,1-2.316-.809,2.6,2.6,0,0,1-.918-2.039,2.687,2.687,0,0,1,1.121-2.32,5.529,5.529,0,0,1,3.239-.817h1.169v-.545a1.567,1.567,0,0,0-.338-1.055,1.331,1.331,0,0,0-1.068-.4,1.513,1.513,0,0,0-1.006.308,1.045,1.045,0,0,0-.365.844h-2.54a2.551,2.551,0,0,1,.51-1.529,3.37,3.37,0,0,1,1.441-1.1,5.253,5.253,0,0,1,2.092-.4A4.15,4.15,0,0,1,23.41-8.8a3.09,3.09,0,0,1,1.033,2.483V-2.2A4.546,4.546,0,0,0,24.82-.149V0Zm-2.1-1.767a2.188,2.188,0,0,0,1.037-.25,1.645,1.645,0,0,0,.7-.672V-4.324h-.949q-1.907,0-2.03,1.318l-.009.149a1.017,1.017,0,0,0,.334.782A1.3,1.3,0,0,0,20.153-1.767ZM29.136,0H26.6V-9.51h2.54Zm-.747-13.368h2.769l-2.435,2.725H26.657Zm5.854,11.32h4.649V0H31V-1.547l4.474-5.915H31.131V-9.51h7.62v1.5Z" transform="translate(38.924 129.045)" fill="#12263f"/>
          <path id="Trazado_815337" data-name="Trazado 815337" d="M3.313-9.51l.079,1.1A3.32,3.32,0,0,1,6.126-9.686a2.759,2.759,0,0,1,2.25.888,4.142,4.142,0,0,1,.756,2.654V0H6.592V-6.082A1.648,1.648,0,0,0,6.24-7.255,1.574,1.574,0,0,0,5.071-7.62a1.747,1.747,0,0,0-1.608.914V0H.923V-9.51ZM16.567,0a2.821,2.821,0,0,1-.255-.853,3.073,3.073,0,0,1-2.4,1.028A3.376,3.376,0,0,1,11.6-.633a2.6,2.6,0,0,1-.918-2.039A2.687,2.687,0,0,1,11.8-4.992a5.529,5.529,0,0,1,3.239-.817h1.169v-.545a1.567,1.567,0,0,0-.338-1.055A1.331,1.331,0,0,0,14.8-7.8a1.513,1.513,0,0,0-1.006.308,1.045,1.045,0,0,0-.365.844H10.89a2.551,2.551,0,0,1,.51-1.529,3.37,3.37,0,0,1,1.441-1.1,5.253,5.253,0,0,1,2.092-.4,4.15,4.15,0,0,1,2.791.883,3.09,3.09,0,0,1,1.033,2.483V-2.2a4.546,4.546,0,0,0,.378,2.048V0Zm-2.1-1.767a2.188,2.188,0,0,0,1.037-.25,1.645,1.645,0,0,0,.7-.672V-4.324h-.949q-1.907,0-2.03,1.318l-.009.149a1.017,1.017,0,0,0,.334.782A1.3,1.3,0,0,0,14.467-1.767Zm10.2-.105A1.666,1.666,0,0,0,25.8-2.259a1.355,1.355,0,0,0,.457-1.028h2.382a3.258,3.258,0,0,1-.527,1.771A3.48,3.48,0,0,1,26.7-.268a4.442,4.442,0,0,1-1.991.444,4.129,4.129,0,0,1-3.217-1.3A5.13,5.13,0,0,1,20.312-4.7v-.167A5.071,5.071,0,0,1,21.48-8.376a4.08,4.08,0,0,1,3.208-1.31A4,4,0,0,1,27.549-8.67a3.594,3.594,0,0,1,1.094,2.7H26.262A1.745,1.745,0,0,0,25.8-7.174a1.524,1.524,0,0,0-1.16-.464,1.53,1.53,0,0,0-1.34.647,3.749,3.749,0,0,0-.453,2.1v.264A3.8,3.8,0,0,0,23.3-2.515,1.549,1.549,0,0,0,24.662-1.872ZM32.774,0H30.226V-9.51h2.549Zm-2.7-11.971a1.251,1.251,0,0,1,.382-.94A1.436,1.436,0,0,1,31.5-13.28a1.44,1.44,0,0,1,1.037.369,1.244,1.244,0,0,1,.387.94,1.247,1.247,0,0,1-.391.949,1.443,1.443,0,0,1-1.033.369,1.443,1.443,0,0,1-1.033-.369A1.247,1.247,0,0,1,30.076-11.971Zm4.395,7.128a5.64,5.64,0,0,1,.545-2.522,3.989,3.989,0,0,1,1.569-1.714,4.577,4.577,0,0,1,2.377-.606A4.33,4.33,0,0,1,42.1-8.508a4.727,4.727,0,0,1,1.358,3.2l.018.65a4.97,4.97,0,0,1-1.222,3.511A4.247,4.247,0,0,1,38.979.176,4.268,4.268,0,0,1,35.7-1.143a5.058,5.058,0,0,1-1.226-3.586Zm2.54.18a3.555,3.555,0,0,0,.51,2.073,1.682,1.682,0,0,0,1.459.717,1.686,1.686,0,0,0,1.441-.709,3.89,3.89,0,0,0,.519-2.267,3.519,3.519,0,0,0-.519-2.06,1.686,1.686,0,0,0-1.459-.731,1.658,1.658,0,0,0-1.441.726A3.955,3.955,0,0,0,37.011-4.662ZM47.382-9.51l.079,1.1a3.32,3.32,0,0,1,2.733-1.274,2.759,2.759,0,0,1,2.25.888A4.142,4.142,0,0,1,53.2-6.144V0H50.66V-6.082a1.648,1.648,0,0,0-.352-1.173A1.574,1.574,0,0,0,49.14-7.62a1.747,1.747,0,0,0-1.608.914V0h-2.54V-9.51ZM60.636,0a2.821,2.821,0,0,1-.255-.853,3.073,3.073,0,0,1-2.4,1.028,3.376,3.376,0,0,1-2.316-.809,2.6,2.6,0,0,1-.918-2.039,2.687,2.687,0,0,1,1.121-2.32,5.529,5.529,0,0,1,3.239-.817h1.169v-.545a1.567,1.567,0,0,0-.338-1.055,1.331,1.331,0,0,0-1.068-.4,1.513,1.513,0,0,0-1.006.308,1.045,1.045,0,0,0-.365.844h-2.54a2.551,2.551,0,0,1,.51-1.529,3.37,3.37,0,0,1,1.441-1.1A5.253,5.253,0,0,1,59-9.686a4.15,4.15,0,0,1,2.791.883,3.09,3.09,0,0,1,1.033,2.483V-2.2A4.546,4.546,0,0,0,63.2-.149V0Zm-2.1-1.767a2.188,2.188,0,0,0,1.037-.25,1.645,1.645,0,0,0,.7-.672V-4.324h-.949q-1.907,0-2.03,1.318l-.009.149a1.017,1.017,0,0,0,.334.782A1.3,1.3,0,0,0,58.535-1.767ZM67.456,0H64.907V-13.5h2.549Z" transform="translate(24.398 150.644)" fill="#12263f"/>
          <path id="Trazado_815335" data-name="Trazado 815335" d="M7.778-3.357A1.353,1.353,0,0,0,7.251-4.5a6.917,6.917,0,0,0-1.9-.844,13.458,13.458,0,0,1-2.171-.875A3.547,3.547,0,0,1,1-9.4a3.09,3.09,0,0,1,.584-1.85,3.812,3.812,0,0,1,1.679-1.27,6.318,6.318,0,0,1,2.457-.457,5.751,5.751,0,0,1,2.443.5,3.891,3.891,0,0,1,1.666,1.4,3.668,3.668,0,0,1,.593,2.057H7.787a1.726,1.726,0,0,0-.554-1.367,2.276,2.276,0,0,0-1.556-.488,2.432,2.432,0,0,0-1.5.409,1.289,1.289,0,0,0-.536,1.077,1.235,1.235,0,0,0,.628,1.046,7.1,7.1,0,0,0,1.85.791A7.994,7.994,0,0,1,9.4-5.871a3.343,3.343,0,0,1,1.028,2.5A3.08,3.08,0,0,1,9.167-.769,5.5,5.5,0,0,1,5.783.176,6.534,6.534,0,0,1,3.094-.365a4.256,4.256,0,0,1-1.85-1.481,3.793,3.793,0,0,1-.637-2.18H3.252q0,2.118,2.531,2.118A2.462,2.462,0,0,0,7.251-2.29,1.244,1.244,0,0,0,7.778-3.357Zm3.867-1.485a5.64,5.64,0,0,1,.545-2.522,3.989,3.989,0,0,1,1.569-1.714,4.577,4.577,0,0,1,2.377-.606,4.33,4.33,0,0,1,3.142,1.178,4.727,4.727,0,0,1,1.358,3.2l.018.65a4.97,4.97,0,0,1-1.222,3.511A4.247,4.247,0,0,1,16.154.176a4.268,4.268,0,0,1-3.283-1.318,5.058,5.058,0,0,1-1.226-3.586Zm2.54.18a3.555,3.555,0,0,0,.51,2.073,1.682,1.682,0,0,0,1.459.717A1.686,1.686,0,0,0,17.6-2.581a3.89,3.89,0,0,0,.519-2.267,3.519,3.519,0,0,0-.519-2.06,1.686,1.686,0,0,0-1.459-.731,1.658,1.658,0,0,0-1.441.726A3.955,3.955,0,0,0,14.186-4.662ZM24.908-9.51V.519a3.4,3.4,0,0,1-.835,2.448,3.174,3.174,0,0,1-2.408.875,5.165,5.165,0,0,1-1.257-.149V1.679a4.768,4.768,0,0,0,.8.079q1.151,0,1.151-1.222V-9.51Zm-2.751-2.461a1.251,1.251,0,0,1,.382-.94,1.436,1.436,0,0,1,1.042-.369,1.436,1.436,0,0,1,1.042.369,1.251,1.251,0,0,1,.382.94,1.247,1.247,0,0,1-.391.949,1.443,1.443,0,0,1-1.033.369,1.443,1.443,0,0,1-1.033-.369A1.247,1.247,0,0,1,22.157-11.971ZM32.405,0a2.821,2.821,0,0,1-.255-.853,3.073,3.073,0,0,1-2.4,1.028,3.376,3.376,0,0,1-2.316-.809,2.6,2.6,0,0,1-.918-2.039,2.687,2.687,0,0,1,1.121-2.32,5.529,5.529,0,0,1,3.239-.817h1.169v-.545a1.567,1.567,0,0,0-.338-1.055,1.331,1.331,0,0,0-1.068-.4,1.513,1.513,0,0,0-1.006.308,1.045,1.045,0,0,0-.365.844h-2.54a2.551,2.551,0,0,1,.51-1.529,3.37,3.37,0,0,1,1.441-1.1,5.253,5.253,0,0,1,2.092-.4,4.15,4.15,0,0,1,2.791.883,3.09,3.09,0,0,1,1.033,2.483V-2.2a4.546,4.546,0,0,0,.378,2.048V0ZM30.3-1.767a2.188,2.188,0,0,0,1.037-.25,1.645,1.645,0,0,0,.7-.672V-4.324H31.1q-1.907,0-2.03,1.318l-.009.149a1.017,1.017,0,0,0,.334.782A1.3,1.3,0,0,0,30.3-1.767Z" transform="translate(40.904 245.973)" fill="#12263f"/>
          <path id="Trazado_815336" data-name="Trazado 815336" d="M4.017-11.848V-9.51H5.643v1.863H4.017V-2.9a1.133,1.133,0,0,0,.2.756,1.015,1.015,0,0,0,.773.229,4.051,4.051,0,0,0,.747-.062V-.053A5.229,5.229,0,0,1,4.2.176a2.425,2.425,0,0,1-2.725-2.7V-7.646H.088V-9.51H1.477v-2.338Zm2.13,7a5.64,5.64,0,0,1,.545-2.522A3.989,3.989,0,0,1,8.26-9.079a4.577,4.577,0,0,1,2.377-.606A4.33,4.33,0,0,1,13.78-8.508a4.727,4.727,0,0,1,1.358,3.2l.018.65a4.97,4.97,0,0,1-1.222,3.511A4.247,4.247,0,0,1,10.655.176,4.268,4.268,0,0,1,7.373-1.143,5.058,5.058,0,0,1,6.146-4.729Zm2.54.18A3.555,3.555,0,0,0,9.2-2.589a1.682,1.682,0,0,0,1.459.717A1.686,1.686,0,0,0,12.1-2.581a3.89,3.89,0,0,0,.519-2.267,3.519,3.519,0,0,0-.519-2.06,1.686,1.686,0,0,0-1.459-.731A1.658,1.658,0,0,0,9.2-6.911,3.955,3.955,0,0,0,8.686-4.662ZM21.87-2.628a.818.818,0,0,0-.461-.734,5.241,5.241,0,0,0-1.481-.479q-3.393-.712-3.393-2.883a2.613,2.613,0,0,1,1.05-2.114,4.237,4.237,0,0,1,2.747-.848,4.56,4.56,0,0,1,2.9.853,2.687,2.687,0,0,1,1.085,2.215h-2.54a1.229,1.229,0,0,0-.352-.9,1.488,1.488,0,0,0-1.1-.356,1.52,1.52,0,0,0-.993.29.916.916,0,0,0-.352.738.783.783,0,0,0,.4.681,4.114,4.114,0,0,0,1.349.448,11.019,11.019,0,0,1,1.6.426A2.628,2.628,0,0,1,24.34-2.733a2.481,2.481,0,0,1-1.116,2.1,4.815,4.815,0,0,1-2.883.8A5.029,5.029,0,0,1,18.218-.25a3.561,3.561,0,0,1-1.455-1.169,2.716,2.716,0,0,1-.527-1.6h2.408a1.326,1.326,0,0,0,.5,1.037,1.987,1.987,0,0,0,1.248.36A1.839,1.839,0,0,0,21.5-1.9.861.861,0,0,0,21.87-2.628Zm7.146-9.22V-9.51h1.626v1.863H29.016V-2.9a1.133,1.133,0,0,0,.2.756,1.015,1.015,0,0,0,.773.229,4.051,4.051,0,0,0,.747-.062V-.053A5.229,5.229,0,0,1,29.2.176a2.425,2.425,0,0,1-2.725-2.7V-7.646H25.087V-9.51h1.389v-2.338ZM37.567,0a2.821,2.821,0,0,1-.255-.853,3.073,3.073,0,0,1-2.4,1.028A3.376,3.376,0,0,1,32.6-.633a2.6,2.6,0,0,1-.918-2.039A2.687,2.687,0,0,1,32.8-4.992a5.529,5.529,0,0,1,3.239-.817h1.169v-.545a1.567,1.567,0,0,0-.338-1.055A1.331,1.331,0,0,0,35.8-7.8a1.513,1.513,0,0,0-1.006.308,1.045,1.045,0,0,0-.365.844H31.89a2.551,2.551,0,0,1,.51-1.529,3.37,3.37,0,0,1,1.441-1.1,5.253,5.253,0,0,1,2.092-.4,4.15,4.15,0,0,1,2.791.883,3.09,3.09,0,0,1,1.033,2.483V-2.2a4.546,4.546,0,0,0,.378,2.048V0Zm-2.1-1.767a2.188,2.188,0,0,0,1.037-.25,1.645,1.645,0,0,0,.7-.672V-4.324h-.949q-1.907,0-2.03,1.318l-.009.149a1.017,1.017,0,0,0,.334.782A1.3,1.3,0,0,0,35.467-1.767Zm5.845-3.059a5.731,5.731,0,0,1,1-3.542,3.237,3.237,0,0,1,2.729-1.318,2.913,2.913,0,0,1,2.294,1.037V-13.5h2.549V0H47.587l-.123-1.011A2.989,2.989,0,0,1,45.02.176a3.228,3.228,0,0,1-2.694-1.323A5.916,5.916,0,0,1,41.311-4.825Zm2.54.189a3.754,3.754,0,0,0,.466,2.051,1.517,1.517,0,0,0,1.354.713,1.7,1.7,0,0,0,1.661-.995V-6.625a1.675,1.675,0,0,0-1.644-.995Q43.852-7.62,43.852-4.636ZM57.36,0a2.821,2.821,0,0,1-.255-.853,3.073,3.073,0,0,1-2.4,1.028A3.376,3.376,0,0,1,52.39-.633a2.6,2.6,0,0,1-.918-2.039,2.687,2.687,0,0,1,1.121-2.32,5.529,5.529,0,0,1,3.239-.817H57v-.545a1.567,1.567,0,0,0-.338-1.055,1.331,1.331,0,0,0-1.068-.4,1.513,1.513,0,0,0-1.006.308,1.045,1.045,0,0,0-.365.844h-2.54a2.551,2.551,0,0,1,.51-1.529,3.37,3.37,0,0,1,1.441-1.1,5.253,5.253,0,0,1,2.092-.4,4.15,4.15,0,0,1,2.791.883,3.09,3.09,0,0,1,1.033,2.483V-2.2a4.546,4.546,0,0,0,.378,2.048V0Zm-2.1-1.767a2.188,2.188,0,0,0,1.037-.25,1.645,1.645,0,0,0,.7-.672V-4.324h-.949q-1.907,0-2.03,1.318l-.009.149a1.017,1.017,0,0,0,.334.782A1.3,1.3,0,0,0,55.26-1.767Z" transform="translate(28.305 267.572)" fill="#12263f"/>
          <path id="Trazado_815340" data-name="Trazado 815340" d="M3.779-4.509V0H1.143V-12.8H6.135a5.776,5.776,0,0,1,2.536.527,3.886,3.886,0,0,1,1.683,1.5,4.178,4.178,0,0,1,.589,2.21A3.674,3.674,0,0,1,9.655-5.594,5.363,5.363,0,0,1,6.091-4.509Zm0-2.136H6.135a2.316,2.316,0,0,0,1.6-.492,1.79,1.79,0,0,0,.549-1.406,2.111,2.111,0,0,0-.554-1.521,2.068,2.068,0,0,0-1.529-.6H3.779ZM17.91,0a2.821,2.821,0,0,1-.255-.853,3.073,3.073,0,0,1-2.4,1.028A3.376,3.376,0,0,1,12.94-.633a2.6,2.6,0,0,1-.918-2.039,2.687,2.687,0,0,1,1.121-2.32,5.529,5.529,0,0,1,3.239-.817H17.55v-.545a1.567,1.567,0,0,0-.338-1.055,1.331,1.331,0,0,0-1.068-.4,1.513,1.513,0,0,0-1.006.308,1.045,1.045,0,0,0-.365.844h-2.54a2.551,2.551,0,0,1,.51-1.529,3.37,3.37,0,0,1,1.441-1.1,5.253,5.253,0,0,1,2.092-.4,4.15,4.15,0,0,1,2.791.883A3.09,3.09,0,0,1,20.1-6.319V-2.2a4.546,4.546,0,0,0,.378,2.048V0Zm-2.1-1.767a2.188,2.188,0,0,0,1.037-.25,1.645,1.645,0,0,0,.7-.672V-4.324H16.6q-1.907,0-2.03,1.318l-.009.149a1.017,1.017,0,0,0,.334.782A1.3,1.3,0,0,0,15.809-1.767ZM27.393-7.128a6.9,6.9,0,0,0-.914-.07,1.86,1.86,0,0,0-1.89.976V0H22.05V-9.51h2.4l.07,1.134a2.354,2.354,0,0,1,2.118-1.31,2.662,2.662,0,0,1,.791.114Zm5.134-4.72V-9.51h1.626v1.863H32.528V-2.9a1.133,1.133,0,0,0,.2.756,1.015,1.015,0,0,0,.773.229,4.051,4.051,0,0,0,.747-.062V-.053a5.229,5.229,0,0,1-1.538.229,2.425,2.425,0,0,1-2.725-2.7V-7.646H28.6V-9.51h1.389v-2.338ZM39.946.176A4.668,4.668,0,0,1,36.54-1.107a4.561,4.561,0,0,1-1.314-3.419v-.246a5.745,5.745,0,0,1,.554-2.562,4.064,4.064,0,0,1,1.569-1.74,4.4,4.4,0,0,1,2.316-.611,3.947,3.947,0,0,1,3.072,1.23,5,5,0,0,1,1.121,3.489v1.037H37.8a2.36,2.36,0,0,0,.743,1.494,2.245,2.245,0,0,0,1.569.563,2.742,2.742,0,0,0,2.294-1.063l1.248,1.4A3.813,3.813,0,0,1,42.108-.277,5.075,5.075,0,0,1,39.946.176Zm-.29-7.813a1.587,1.587,0,0,0-1.226.512,2.651,2.651,0,0,0-.6,1.466h3.533v-.2A1.891,1.891,0,0,0,40.9-7.174,1.638,1.638,0,0,0,39.655-7.638Zm10.793,5.01a.818.818,0,0,0-.461-.734,5.241,5.241,0,0,0-1.481-.479q-3.393-.712-3.393-2.883a2.613,2.613,0,0,1,1.05-2.114,4.237,4.237,0,0,1,2.747-.848,4.56,4.56,0,0,1,2.9.853,2.687,2.687,0,0,1,1.085,2.215h-2.54a1.229,1.229,0,0,0-.352-.9,1.488,1.488,0,0,0-1.1-.356,1.52,1.52,0,0,0-.993.29.916.916,0,0,0-.352.738.783.783,0,0,0,.4.681,4.114,4.114,0,0,0,1.349.448,11.019,11.019,0,0,1,1.6.426,2.628,2.628,0,0,1,2.013,2.558A2.481,2.481,0,0,1,51.8-.628a4.815,4.815,0,0,1-2.883.8A5.029,5.029,0,0,1,46.8-.25a3.561,3.561,0,0,1-1.455-1.169,2.716,2.716,0,0,1-.527-1.6h2.408a1.326,1.326,0,0,0,.5,1.037,1.987,1.987,0,0,0,1.248.36,1.839,1.839,0,0,0,1.1-.277A.861.861,0,0,0,50.448-2.628Z" transform="translate(439.497 25.617)" fill="#12263f"/>
          <g id="Grupo_260749" data-name="Grupo 260749">
            <g id="Grupo_260748" data-name="Grupo 260748" clip-path="url(#clip-path-2)">
              <path id="Trazado_815344" data-name="Trazado 815344" d="M3.779-4.509V0H1.143V-12.8H6.135a5.776,5.776,0,0,1,2.536.527,3.886,3.886,0,0,1,1.683,1.5,4.178,4.178,0,0,1,.589,2.21A3.674,3.674,0,0,1,9.655-5.594,5.363,5.363,0,0,1,6.091-4.509Zm0-2.136H6.135a2.316,2.316,0,0,0,1.6-.492,1.79,1.79,0,0,0,.549-1.406,2.111,2.111,0,0,0-.554-1.521,2.068,2.068,0,0,0-1.529-.6H3.779Zm14.15-.483a6.9,6.9,0,0,0-.914-.07,1.86,1.86,0,0,0-1.89.976V0h-2.54V-9.51h2.4l.07,1.134a2.354,2.354,0,0,1,2.118-1.31,2.662,2.662,0,0,1,.791.114Zm.2,2.285a5.64,5.64,0,0,1,.545-2.522,3.989,3.989,0,0,1,1.569-1.714,4.577,4.577,0,0,1,2.377-.606,4.33,4.33,0,0,1,3.142,1.178,4.727,4.727,0,0,1,1.358,3.2l.018.65a4.97,4.97,0,0,1-1.222,3.511A4.247,4.247,0,0,1,22.642.176,4.268,4.268,0,0,1,19.36-1.143a5.058,5.058,0,0,1-1.226-3.586Zm2.54.18a3.555,3.555,0,0,0,.51,2.073,1.682,1.682,0,0,0,1.459.717,1.686,1.686,0,0,0,1.441-.709A3.89,3.89,0,0,0,24.6-4.847a3.519,3.519,0,0,0-.519-2.06,1.686,1.686,0,0,0-1.459-.731,1.658,1.658,0,0,0-1.441.726A3.955,3.955,0,0,0,20.673-4.662Zm11.074-7.185V-9.51h1.626v1.863H31.748V-2.9a1.133,1.133,0,0,0,.2.756,1.015,1.015,0,0,0,.773.229,4.051,4.051,0,0,0,.747-.062V-.053a5.229,5.229,0,0,1-1.538.229,2.425,2.425,0,0,1-2.725-2.7V-7.646H27.819V-9.51h1.389v-2.338ZM39.166.176A4.668,4.668,0,0,1,35.76-1.107a4.561,4.561,0,0,1-1.314-3.419v-.246A5.745,5.745,0,0,1,35-7.334a4.064,4.064,0,0,1,1.569-1.74,4.4,4.4,0,0,1,2.316-.611,3.947,3.947,0,0,1,3.072,1.23,5,5,0,0,1,1.121,3.489v1.037H37.021a2.36,2.36,0,0,0,.743,1.494,2.245,2.245,0,0,0,1.569.563,2.742,2.742,0,0,0,2.294-1.063l1.248,1.4A3.813,3.813,0,0,1,41.328-.277,5.075,5.075,0,0,1,39.166.176Zm-.29-7.813a1.587,1.587,0,0,0-1.226.512,2.651,2.651,0,0,0-.6,1.466h3.533v-.2a1.891,1.891,0,0,0-.457-1.311A1.638,1.638,0,0,0,38.876-7.638ZM47.26,0H44.72V-9.51h2.54Zm-.747-13.368h2.769l-2.435,2.725H44.782ZM51.787-9.51l.079,1.1A3.32,3.32,0,0,1,54.6-9.686a2.759,2.759,0,0,1,2.25.888,4.142,4.142,0,0,1,.756,2.654V0h-2.54V-6.082a1.648,1.648,0,0,0-.352-1.173,1.574,1.574,0,0,0-1.169-.365,1.747,1.747,0,0,0-1.608.914V0H49.4V-9.51ZM65.041,0a2.821,2.821,0,0,1-.255-.853,3.073,3.073,0,0,1-2.4,1.028A3.376,3.376,0,0,1,60.07-.633a2.6,2.6,0,0,1-.918-2.039,2.687,2.687,0,0,1,1.121-2.32,5.529,5.529,0,0,1,3.239-.817H64.68v-.545a1.567,1.567,0,0,0-.338-1.055,1.331,1.331,0,0,0-1.068-.4,1.513,1.513,0,0,0-1.006.308,1.045,1.045,0,0,0-.365.844h-2.54a2.551,2.551,0,0,1,.51-1.529,3.37,3.37,0,0,1,1.441-1.1,5.253,5.253,0,0,1,2.092-.4A4.15,4.15,0,0,1,66.2-8.8a3.09,3.09,0,0,1,1.033,2.483V-2.2a4.546,4.546,0,0,0,.378,2.048V0Zm-2.1-1.767a2.188,2.188,0,0,0,1.037-.25,1.645,1.645,0,0,0,.7-.672V-4.324h-.949q-1.907,0-2.03,1.318l-.009.149a1.017,1.017,0,0,0,.334.782A1.3,1.3,0,0,0,62.94-1.767Z" transform="translate(146.521 15.399)" fill="#12263f"/>
            </g>
          </g>
          <path id="Trazado_815341" data-name="Trazado 815341" d="M9.545-4.667A5.758,5.758,0,0,1,8.569-1.1,3.231,3.231,0,0,1,5.845.176a2.969,2.969,0,0,1-2.47-1.187L3.261,0H.976V-13.5h2.54v4.843A2.893,2.893,0,0,1,5.827-9.686,3.258,3.258,0,0,1,8.556-8.407a5.767,5.767,0,0,1,.989,3.6ZM7-4.852a3.783,3.783,0,0,0-.457-2.1A1.545,1.545,0,0,0,5.186-7.62a1.676,1.676,0,0,0-1.67.993v3.753a1.7,1.7,0,0,0,1.688,1A1.568,1.568,0,0,0,6.82-3.085,6.257,6.257,0,0,0,7-4.852Zm9.448-2.276a6.9,6.9,0,0,0-.914-.07,1.86,1.86,0,0,0-1.89.976V0h-2.54V-9.51h2.4l.07,1.134A2.354,2.354,0,0,1,15.7-9.686a2.662,2.662,0,0,1,.791.114ZM23.37-.967a3.185,3.185,0,0,1-2.6,1.143A3,3,0,0,1,18.435-.7a3.752,3.752,0,0,1-.822-2.575V-9.51h2.54v6.151q0,1.487,1.354,1.487a1.834,1.834,0,0,0,1.775-.9V-9.51h2.549V0H23.44Zm7.418-10.881V-9.51h1.626v1.863H30.788V-2.9a1.133,1.133,0,0,0,.2.756,1.015,1.015,0,0,0,.773.229,4.051,4.051,0,0,0,.747-.062V-.053a5.229,5.229,0,0,1-1.538.229,2.425,2.425,0,0,1-2.725-2.7V-7.646H26.859V-9.51h1.389v-2.338ZM39.34,0a2.821,2.821,0,0,1-.255-.853,3.073,3.073,0,0,1-2.4,1.028A3.376,3.376,0,0,1,34.37-.633a2.6,2.6,0,0,1-.918-2.039,2.687,2.687,0,0,1,1.121-2.32,5.529,5.529,0,0,1,3.239-.817h1.169v-.545a1.567,1.567,0,0,0-.338-1.055,1.331,1.331,0,0,0-1.068-.4,1.513,1.513,0,0,0-1.006.308,1.045,1.045,0,0,0-.365.844h-2.54a2.551,2.551,0,0,1,.51-1.529,3.37,3.37,0,0,1,1.441-1.1,5.253,5.253,0,0,1,2.092-.4A4.15,4.15,0,0,1,40.5-8.8a3.09,3.09,0,0,1,1.033,2.483V-2.2a4.546,4.546,0,0,0,.378,2.048V0Zm-2.1-1.767a2.188,2.188,0,0,0,1.037-.25,1.645,1.645,0,0,0,.7-.672V-4.324H38.03q-1.907,0-2.03,1.318l-.009.149a1.017,1.017,0,0,0,.334.782A1.3,1.3,0,0,0,37.239-1.767Z" transform="translate(159.525 36.999)" fill="#12263f"/>
          <g id="Grupo_260751" data-name="Grupo 260751">
            <g id="Grupo_260750" data-name="Grupo 260750" clip-path="url(#clip-path-2)">
              <path id="Trazado_815345" data-name="Trazado 815345" d="M11.188-4.263A4.528,4.528,0,0,1,9.664-1.011,5.355,5.355,0,0,1,6.038.176,4.816,4.816,0,0,1,2.167-1.481,6.793,6.793,0,0,1,.756-6.029v-.782a7.671,7.671,0,0,1,.65-3.252,4.874,4.874,0,0,1,1.859-2.158,5.207,5.207,0,0,1,2.808-.751,5.217,5.217,0,0,1,3.568,1.187,4.866,4.866,0,0,1,1.564,3.331H8.569a2.673,2.673,0,0,0-.69-1.8,2.555,2.555,0,0,0-1.806-.558A2.24,2.24,0,0,0,4.1-9.866a5.3,5.3,0,0,0-.672,2.931v.967a5.667,5.667,0,0,0,.628,3.032,2.2,2.2,0,0,0,1.982.958,2.6,2.6,0,0,0,1.824-.558,2.521,2.521,0,0,0,.69-1.727Zm1.169-.58A5.64,5.64,0,0,1,12.9-7.365a3.989,3.989,0,0,1,1.569-1.714,4.577,4.577,0,0,1,2.377-.606,4.33,4.33,0,0,1,3.142,1.178,4.727,4.727,0,0,1,1.358,3.2l.018.65a4.97,4.97,0,0,1-1.222,3.511A4.247,4.247,0,0,1,16.866.176a4.268,4.268,0,0,1-3.283-1.318,5.058,5.058,0,0,1-1.226-3.586Zm2.54.18a3.555,3.555,0,0,0,.51,2.073,1.682,1.682,0,0,0,1.459.717,1.686,1.686,0,0,0,1.441-.709,3.89,3.89,0,0,0,.519-2.267,3.519,3.519,0,0,0-.519-2.06,1.686,1.686,0,0,0-1.459-.731,1.658,1.658,0,0,0-1.441.726A3.955,3.955,0,0,0,14.9-4.662ZM25.269-9.51l.079,1.1a3.32,3.32,0,0,1,2.733-1.274,2.759,2.759,0,0,1,2.25.888,4.142,4.142,0,0,1,.756,2.654V0h-2.54V-6.082A1.648,1.648,0,0,0,28.2-7.255a1.574,1.574,0,0,0-1.169-.365,1.747,1.747,0,0,0-1.608.914V0h-2.54V-9.51Zm11.7,7.638a1.666,1.666,0,0,0,1.143-.387,1.355,1.355,0,0,0,.457-1.028h2.382a3.258,3.258,0,0,1-.527,1.771A3.48,3.48,0,0,1,39-.268a4.442,4.442,0,0,1-1.991.444,4.129,4.129,0,0,1-3.217-1.3A5.13,5.13,0,0,1,32.616-4.7v-.167a5.071,5.071,0,0,1,1.169-3.507,4.08,4.08,0,0,1,3.208-1.31A4,4,0,0,1,39.854-8.67a3.594,3.594,0,0,1,1.094,2.7H38.566a1.745,1.745,0,0,0-.457-1.206,1.524,1.524,0,0,0-1.16-.464,1.53,1.53,0,0,0-1.34.647,3.749,3.749,0,0,0-.453,2.1v.264A3.8,3.8,0,0,0,35.6-2.515,1.549,1.549,0,0,0,36.967-1.872ZM46.775.176A4.668,4.668,0,0,1,43.37-1.107a4.561,4.561,0,0,1-1.314-3.419v-.246a5.745,5.745,0,0,1,.554-2.562,4.064,4.064,0,0,1,1.569-1.74,4.4,4.4,0,0,1,2.316-.611,3.947,3.947,0,0,1,3.072,1.23,5,5,0,0,1,1.121,3.489v1.037H44.631a2.36,2.36,0,0,0,.743,1.494,2.245,2.245,0,0,0,1.569.563,2.742,2.742,0,0,0,2.294-1.063l1.248,1.4A3.813,3.813,0,0,1,48.938-.277,5.075,5.075,0,0,1,46.775.176Zm-.29-7.813a1.587,1.587,0,0,0-1.226.512,2.651,2.651,0,0,0-.6,1.466H48.19v-.2a1.891,1.891,0,0,0-.457-1.311A1.638,1.638,0,0,0,46.485-7.638Zm7.98-1.872.079,1.1a3.32,3.32,0,0,1,2.733-1.274,2.759,2.759,0,0,1,2.25.888,4.142,4.142,0,0,1,.756,2.654V0h-2.54V-6.082a1.648,1.648,0,0,0-.352-1.173,1.574,1.574,0,0,0-1.169-.365,1.747,1.747,0,0,0-1.608.914V0h-2.54V-9.51ZM65.25-11.848V-9.51h1.626v1.863H65.25V-2.9a1.133,1.133,0,0,0,.2.756,1.015,1.015,0,0,0,.773.229,4.051,4.051,0,0,0,.747-.062V-.053a5.229,5.229,0,0,1-1.538.229,2.425,2.425,0,0,1-2.725-2.7V-7.646H61.321V-9.51H62.71v-2.338Zm8.385,4.72a6.9,6.9,0,0,0-.914-.07,1.86,1.86,0,0,0-1.89.976V0h-2.54V-9.51h2.4l.07,1.134a2.354,2.354,0,0,1,2.118-1.31,2.662,2.662,0,0,1,.791.114ZM79.87,0a2.821,2.821,0,0,1-.255-.853,3.073,3.073,0,0,1-2.4,1.028A3.376,3.376,0,0,1,74.9-.633a2.6,2.6,0,0,1-.918-2.039A2.687,2.687,0,0,1,75.1-4.992,5.529,5.529,0,0,1,78.34-5.81h1.169v-.545a1.567,1.567,0,0,0-.338-1.055A1.331,1.331,0,0,0,78.1-7.8,1.513,1.513,0,0,0,77.1-7.5a1.045,1.045,0,0,0-.365.844h-2.54a2.551,2.551,0,0,1,.51-1.529,3.37,3.37,0,0,1,1.441-1.1,5.253,5.253,0,0,1,2.092-.4,4.15,4.15,0,0,1,2.791.883,3.09,3.09,0,0,1,1.033,2.483V-2.2a4.546,4.546,0,0,0,.378,2.048V0Zm-2.1-1.767a2.188,2.188,0,0,0,1.037-.25,1.645,1.645,0,0,0,.7-.672V-4.324H78.56q-1.907,0-2.03,1.318l-.009.149a1.017,1.017,0,0,0,.334.782A1.3,1.3,0,0,0,77.769-1.767Zm10.2-.105a1.666,1.666,0,0,0,1.143-.387,1.355,1.355,0,0,0,.457-1.028h2.382a3.258,3.258,0,0,1-.527,1.771A3.48,3.48,0,0,1,90-.268a4.442,4.442,0,0,1-1.991.444,4.129,4.129,0,0,1-3.217-1.3A5.13,5.13,0,0,1,83.614-4.7v-.167a5.071,5.071,0,0,1,1.169-3.507,4.08,4.08,0,0,1,3.208-1.31A4,4,0,0,1,90.851-8.67a3.594,3.594,0,0,1,1.094,2.7H89.564a1.745,1.745,0,0,0-.457-1.206,1.524,1.524,0,0,0-1.16-.464,1.53,1.53,0,0,0-1.34.647,3.749,3.749,0,0,0-.453,2.1v.264A3.8,3.8,0,0,0,86.6-2.515,1.549,1.549,0,0,0,87.964-1.872ZM96.077,0H93.528V-9.51h2.549Zm-2.7-11.971a1.251,1.251,0,0,1,.382-.94A1.436,1.436,0,0,1,94.8-13.28a1.44,1.44,0,0,1,1.037.369,1.244,1.244,0,0,1,.387.94,1.247,1.247,0,0,1-.391.949,1.443,1.443,0,0,1-1.033.369,1.443,1.443,0,0,1-1.033-.369A1.247,1.247,0,0,1,93.378-11.971Zm4.395,7.128a5.64,5.64,0,0,1,.545-2.522,3.989,3.989,0,0,1,1.569-1.714,4.577,4.577,0,0,1,2.377-.606,4.33,4.33,0,0,1,3.142,1.178,4.727,4.727,0,0,1,1.358,3.2l.018.65a4.97,4.97,0,0,1-1.222,3.511A4.247,4.247,0,0,1,102.282.176,4.268,4.268,0,0,1,99-1.143a5.058,5.058,0,0,1-1.226-3.586Zm2.54.18a3.555,3.555,0,0,0,.51,2.073,1.682,1.682,0,0,0,1.459.717,1.686,1.686,0,0,0,1.441-.709,3.89,3.89,0,0,0,.519-2.267,3.519,3.519,0,0,0-.519-2.06,1.686,1.686,0,0,0-1.459-.731,1.658,1.658,0,0,0-1.441.726A3.955,3.955,0,0,0,100.313-4.662Zm2.452-8.838h2.769L103.1-10.775h-2.065Zm7.919,3.99.079,1.1A3.32,3.32,0,0,1,113.5-9.686a2.759,2.759,0,0,1,2.25.888,4.142,4.142,0,0,1,.756,2.654V0h-2.54V-6.082a1.648,1.648,0,0,0-.352-1.173,1.574,1.574,0,0,0-1.169-.365,1.747,1.747,0,0,0-1.608.914V0h-2.54V-9.51Z" transform="translate(268.173 15.399)" fill="#12263f"/>
            </g>
          </g>
          <path id="Trazado_815342" data-name="Trazado 815342" d="M9.545-4.667A5.758,5.758,0,0,1,8.569-1.1,3.231,3.231,0,0,1,5.845.176a2.969,2.969,0,0,1-2.47-1.187L3.261,0H.976V-13.5h2.54v4.843A2.893,2.893,0,0,1,5.827-9.686,3.258,3.258,0,0,1,8.556-8.407a5.767,5.767,0,0,1,.989,3.6ZM7-4.852a3.783,3.783,0,0,0-.457-2.1A1.545,1.545,0,0,0,5.186-7.62a1.676,1.676,0,0,0-1.67.993v3.753a1.7,1.7,0,0,0,1.688,1A1.568,1.568,0,0,0,6.82-3.085,6.257,6.257,0,0,0,7-4.852Zm9.448-2.276a6.9,6.9,0,0,0-.914-.07,1.86,1.86,0,0,0-1.89.976V0h-2.54V-9.51h2.4l.07,1.134A2.354,2.354,0,0,1,15.7-9.686a2.662,2.662,0,0,1,.791.114ZM23.37-.967a3.185,3.185,0,0,1-2.6,1.143A3,3,0,0,1,18.435-.7a3.752,3.752,0,0,1-.822-2.575V-9.51h2.54v6.151q0,1.487,1.354,1.487a1.834,1.834,0,0,0,1.775-.9V-9.51h2.549V0H23.44Zm7.418-10.881V-9.51h1.626v1.863H30.788V-2.9a1.133,1.133,0,0,0,.2.756,1.015,1.015,0,0,0,.773.229,4.051,4.051,0,0,0,.747-.062V-.053a5.229,5.229,0,0,1-1.538.229,2.425,2.425,0,0,1-2.725-2.7V-7.646H26.859V-9.51h1.389v-2.338ZM39.34,0a2.821,2.821,0,0,1-.255-.853,3.073,3.073,0,0,1-2.4,1.028A3.376,3.376,0,0,1,34.37-.633a2.6,2.6,0,0,1-.918-2.039,2.687,2.687,0,0,1,1.121-2.32,5.529,5.529,0,0,1,3.239-.817h1.169v-.545a1.567,1.567,0,0,0-.338-1.055,1.331,1.331,0,0,0-1.068-.4,1.513,1.513,0,0,0-1.006.308,1.045,1.045,0,0,0-.365.844h-2.54a2.551,2.551,0,0,1,.51-1.529,3.37,3.37,0,0,1,1.441-1.1,5.253,5.253,0,0,1,2.092-.4A4.15,4.15,0,0,1,40.5-8.8a3.09,3.09,0,0,1,1.033,2.483V-2.2a4.546,4.546,0,0,0,.378,2.048V0Zm-2.1-1.767a2.188,2.188,0,0,0,1.037-.25,1.645,1.645,0,0,0,.7-.672V-4.324H38.03q-1.907,0-2.03,1.318l-.009.149a1.017,1.017,0,0,0,.334.782A1.3,1.3,0,0,0,37.239-1.767Z" transform="translate(305.764 36.999)" fill="#12263f"/>
          <g id="Grupo_260753" data-name="Grupo 260753">
            <g id="Grupo_260752" data-name="Grupo 260752" clip-path="url(#clip-path-2)">
              <path id="Trazado_815346" data-name="Trazado 815346" d="M3.779-4.509V0H1.143V-12.8H6.135a5.776,5.776,0,0,1,2.536.527,3.886,3.886,0,0,1,1.683,1.5,4.178,4.178,0,0,1,.589,2.21A3.674,3.674,0,0,1,9.655-5.594,5.363,5.363,0,0,1,6.091-4.509Zm0-2.136H6.135a2.316,2.316,0,0,0,1.6-.492,1.79,1.79,0,0,0,.549-1.406,2.111,2.111,0,0,0-.554-1.521,2.068,2.068,0,0,0-1.529-.6H3.779Zm14.15-.483a6.9,6.9,0,0,0-.914-.07,1.86,1.86,0,0,0-1.89.976V0h-2.54V-9.51h2.4l.07,1.134a2.354,2.354,0,0,1,2.118-1.31,2.662,2.662,0,0,1,.791.114Zm.2,2.285a5.64,5.64,0,0,1,.545-2.522,3.989,3.989,0,0,1,1.569-1.714,4.577,4.577,0,0,1,2.377-.606,4.33,4.33,0,0,1,3.142,1.178,4.727,4.727,0,0,1,1.358,3.2l.018.65a4.97,4.97,0,0,1-1.222,3.511A4.247,4.247,0,0,1,22.642.176,4.268,4.268,0,0,1,19.36-1.143a5.058,5.058,0,0,1-1.226-3.586Zm2.54.18a3.555,3.555,0,0,0,.51,2.073,1.682,1.682,0,0,0,1.459.717,1.686,1.686,0,0,0,1.441-.709A3.89,3.89,0,0,0,24.6-4.847a3.519,3.519,0,0,0-.519-2.06,1.686,1.686,0,0,0-1.459-.731,1.658,1.658,0,0,0-1.441.726A3.955,3.955,0,0,0,20.673-4.662Zm16.594,0a5.7,5.7,0,0,1-1,3.52A3.2,3.2,0,0,1,33.576.176a2.963,2.963,0,0,1-2.329-1V3.656h-2.54V-9.51h2.355l.088.932a2.985,2.985,0,0,1,2.408-1.107,3.22,3.22,0,0,1,2.733,1.3A5.858,5.858,0,0,1,37.267-4.8Zm-2.54-.185a3.743,3.743,0,0,0-.47-2.048A1.532,1.532,0,0,0,32.89-7.62a1.663,1.663,0,0,0-1.644.914v3.894a1.692,1.692,0,0,0,1.661.94Q34.727-1.872,34.727-4.852Zm3.718.009a5.64,5.64,0,0,1,.545-2.522,3.989,3.989,0,0,1,1.569-1.714,4.577,4.577,0,0,1,2.377-.606,4.33,4.33,0,0,1,3.142,1.178,4.727,4.727,0,0,1,1.358,3.2l.018.65a4.97,4.97,0,0,1-1.222,3.511A4.247,4.247,0,0,1,42.954.176a4.268,4.268,0,0,1-3.283-1.318,5.058,5.058,0,0,1-1.226-3.586Zm2.54.18a3.555,3.555,0,0,0,.51,2.073,1.682,1.682,0,0,0,1.459.717A1.686,1.686,0,0,0,44.4-2.581a3.89,3.89,0,0,0,.519-2.267,3.519,3.519,0,0,0-.519-2.06,1.686,1.686,0,0,0-1.459-.731,1.658,1.658,0,0,0-1.441.726A3.955,3.955,0,0,0,40.985-4.662ZM54.362-7.128a6.9,6.9,0,0,0-.914-.07,1.86,1.86,0,0,0-1.89.976V0h-2.54V-9.51h2.4l.07,1.134a2.354,2.354,0,0,1,2.118-1.31,2.662,2.662,0,0,1,.791.114Zm4.866,5.256a1.666,1.666,0,0,0,1.143-.387,1.355,1.355,0,0,0,.457-1.028h2.382a3.258,3.258,0,0,1-.527,1.771A3.48,3.48,0,0,1,61.262-.268a4.442,4.442,0,0,1-1.991.444,4.129,4.129,0,0,1-3.217-1.3A5.13,5.13,0,0,1,54.877-4.7v-.167a5.071,5.071,0,0,1,1.169-3.507,4.08,4.08,0,0,1,3.208-1.31A4,4,0,0,1,62.115-8.67a3.594,3.594,0,0,1,1.094,2.7H60.827a1.745,1.745,0,0,0-.457-1.206,1.524,1.524,0,0,0-1.16-.464,1.53,1.53,0,0,0-1.34.647,3.749,3.749,0,0,0-.453,2.1v.264a3.8,3.8,0,0,0,.448,2.113A1.549,1.549,0,0,0,59.228-1.872ZM67.34,0H64.791V-9.51H67.34Zm-2.7-11.971a1.251,1.251,0,0,1,.382-.94,1.436,1.436,0,0,1,1.042-.369,1.44,1.44,0,0,1,1.037.369,1.244,1.244,0,0,1,.387.94,1.247,1.247,0,0,1-.391.949,1.443,1.443,0,0,1-1.033.369,1.443,1.443,0,0,1-1.033-.369A1.247,1.247,0,0,1,64.642-11.971Zm4.395,7.128a5.64,5.64,0,0,1,.545-2.522A3.989,3.989,0,0,1,71.15-9.079a4.577,4.577,0,0,1,2.377-.606A4.33,4.33,0,0,1,76.67-8.508a4.727,4.727,0,0,1,1.358,3.2l.018.65a4.97,4.97,0,0,1-1.222,3.511A4.247,4.247,0,0,1,73.545.176a4.268,4.268,0,0,1-3.283-1.318,5.058,5.058,0,0,1-1.226-3.586Zm2.54.18a3.555,3.555,0,0,0,.51,2.073,1.682,1.682,0,0,0,1.459.717,1.686,1.686,0,0,0,1.441-.709,3.89,3.89,0,0,0,.519-2.267,3.519,3.519,0,0,0-.519-2.06,1.686,1.686,0,0,0-1.459-.731,1.658,1.658,0,0,0-1.441.726A3.955,3.955,0,0,0,71.576-4.662ZM74.029-13.5H76.8l-2.435,2.725H72.3Zm7.919,3.99.079,1.1A3.32,3.32,0,0,1,84.76-9.686a2.759,2.759,0,0,1,2.25.888,4.142,4.142,0,0,1,.756,2.654V0h-2.54V-6.082a1.648,1.648,0,0,0-.352-1.173,1.574,1.574,0,0,0-1.169-.365,1.747,1.747,0,0,0-1.608.914V0h-2.54V-9.51Zm11.83,4.685a5.731,5.731,0,0,1,1-3.542A3.237,3.237,0,0,1,97.5-9.686,2.913,2.913,0,0,1,99.8-8.648V-13.5h2.549V0h-2.294L99.93-1.011A2.989,2.989,0,0,1,97.487.176a3.228,3.228,0,0,1-2.694-1.323A5.916,5.916,0,0,1,93.778-4.825Zm2.54.189a3.754,3.754,0,0,0,.466,2.051,1.517,1.517,0,0,0,1.354.713A1.7,1.7,0,0,0,99.8-2.867V-6.625a1.675,1.675,0,0,0-1.644-.995Q96.318-7.62,96.318-4.636ZM108.693.176a4.668,4.668,0,0,1-3.406-1.283,4.561,4.561,0,0,1-1.314-3.419v-.246a5.745,5.745,0,0,1,.554-2.562,4.064,4.064,0,0,1,1.569-1.74,4.4,4.4,0,0,1,2.316-.611,3.947,3.947,0,0,1,3.072,1.23A5,5,0,0,1,112.6-4.966v1.037h-6.056a2.36,2.36,0,0,0,.743,1.494,2.245,2.245,0,0,0,1.569.563,2.742,2.742,0,0,0,2.294-1.063l1.248,1.4a3.813,3.813,0,0,1-1.547,1.261A5.075,5.075,0,0,1,108.693.176Zm-.29-7.813a1.587,1.587,0,0,0-1.226.512,2.651,2.651,0,0,0-.6,1.466h3.533v-.2a1.891,1.891,0,0,0-.457-1.311A1.638,1.638,0,0,0,108.4-7.638Z" transform="translate(527.075 16.425)" fill="#12263f"/>
            </g>
          </g>
          <path id="Trazado_815343" data-name="Trazado 815343" d="M1.67,0V-7.646H.255V-9.51H1.67v-.809A3.283,3.283,0,0,1,2.588-12.8a3.557,3.557,0,0,1,2.571-.883,5.938,5.938,0,0,1,1.292.176L6.425-11.54a3.238,3.238,0,0,0-.773-.079q-1.433,0-1.433,1.345v.765h1.89v1.863H4.219V0ZM13.122-.967a3.185,3.185,0,0,1-2.6,1.143A3,3,0,0,1,8.187-.7a3.752,3.752,0,0,1-.822-2.575V-9.51h2.54v6.151q0,1.487,1.354,1.487a1.834,1.834,0,0,0,1.775-.9V-9.51h2.549V0H13.192ZM21.876.176A4.668,4.668,0,0,1,18.47-1.107a4.561,4.561,0,0,1-1.314-3.419v-.246a5.745,5.745,0,0,1,.554-2.562,4.064,4.064,0,0,1,1.569-1.74,4.4,4.4,0,0,1,2.316-.611,3.947,3.947,0,0,1,3.072,1.23,5,5,0,0,1,1.121,3.489v1.037H19.731a2.36,2.36,0,0,0,.743,1.494,2.245,2.245,0,0,0,1.569.563,2.742,2.742,0,0,0,2.294-1.063l1.248,1.4A3.813,3.813,0,0,1,24.038-.277,5.075,5.075,0,0,1,21.876.176Zm-.29-7.813a1.587,1.587,0,0,0-1.226.512,2.651,2.651,0,0,0-.6,1.466h3.533v-.2a1.891,1.891,0,0,0-.457-1.311A1.638,1.638,0,0,0,21.586-7.638Zm7.98-1.872.079,1.1a3.32,3.32,0,0,1,2.733-1.274,2.759,2.759,0,0,1,2.25.888,4.142,4.142,0,0,1,.756,2.654V0h-2.54V-6.082a1.648,1.648,0,0,0-.352-1.173,1.574,1.574,0,0,0-1.169-.365,1.747,1.747,0,0,0-1.608.914V0h-2.54V-9.51Zm10.784-2.338V-9.51h1.626v1.863H40.351V-2.9a1.133,1.133,0,0,0,.2.756,1.015,1.015,0,0,0,.773.229,4.051,4.051,0,0,0,.747-.062V-.053a5.229,5.229,0,0,1-1.538.229,2.425,2.425,0,0,1-2.725-2.7V-7.646H36.422V-9.51h1.389v-2.338ZM47.769.176a4.668,4.668,0,0,1-3.406-1.283,4.561,4.561,0,0,1-1.314-3.419v-.246A5.745,5.745,0,0,1,43.6-7.334a4.064,4.064,0,0,1,1.569-1.74,4.4,4.4,0,0,1,2.316-.611,3.947,3.947,0,0,1,3.072,1.23A5,5,0,0,1,51.68-4.966v1.037H45.624a2.36,2.36,0,0,0,.743,1.494,2.245,2.245,0,0,0,1.569.563,2.742,2.742,0,0,0,2.294-1.063l1.248,1.4A3.813,3.813,0,0,1,49.931-.277,5.075,5.075,0,0,1,47.769.176Zm-.29-7.813a1.587,1.587,0,0,0-1.226.512,2.651,2.651,0,0,0-.6,1.466h3.533v-.2a1.891,1.891,0,0,0-.457-1.311A1.638,1.638,0,0,0,47.479-7.638Zm10.793,5.01a.818.818,0,0,0-.461-.734,5.241,5.241,0,0,0-1.481-.479q-3.393-.712-3.393-2.883a2.613,2.613,0,0,1,1.05-2.114,4.237,4.237,0,0,1,2.747-.848,4.56,4.56,0,0,1,2.9.853,2.687,2.687,0,0,1,1.085,2.215h-2.54a1.229,1.229,0,0,0-.352-.9,1.488,1.488,0,0,0-1.1-.356,1.52,1.52,0,0,0-.993.29.916.916,0,0,0-.352.738.783.783,0,0,0,.4.681,4.114,4.114,0,0,0,1.349.448,11.019,11.019,0,0,1,1.6.426,2.628,2.628,0,0,1,2.013,2.558,2.481,2.481,0,0,1-1.116,2.1,4.815,4.815,0,0,1-2.883.8A5.029,5.029,0,0,1,54.62-.25a3.561,3.561,0,0,1-1.455-1.169,2.716,2.716,0,0,1-.527-1.6h2.408a1.326,1.326,0,0,0,.5,1.037,1.987,1.987,0,0,0,1.248.36A1.839,1.839,0,0,0,57.9-1.9.861.861,0,0,0,58.271-2.628Z" transform="translate(553.135 38.025)" fill="#12263f"/>
          <text id="_18_8_x_100_" data-name="18,8 x 100 " transform="translate(124.159 358.839)" fill="#12263f" font-size="18" font-family="Roboto-Regular, Roboto"><tspan x="0" y="0">18,8 x 100 </tspan></text>
          <text id="_29_3_" data-name="29,3 " transform="translate(149.179 385.389)" fill="#12263f" font-size="18" font-family="Roboto-Regular, Roboto"><tspan x="0" y="0">29,3 </tspan></text>
          <text id="_" data-name="=  " transform="translate(228.001 367.011)" fill="#12263f" font-size="18" font-family="Roboto-Regular, Roboto"><tspan x="0" y="0" xml:space="preserve">=  </tspan></text>
          <text id="_64_2_" data-name="   64,2 %" transform="translate(246.793 367.011)" fill="#12263f" font-size="18" font-family="Roboto-Bold, Roboto" font-weight="700"><tspan x="0" y="0" xml:space="preserve">   64,2 %</tspan></text>
          <line id="Línea_801" data-name="Línea 801" x2="97.532" transform="translate(117.646 363.754)" fill="none" stroke="#12263f" stroke-miterlimit="10" stroke-width="1"/>
          <text id="_2" data-name="=  " transform="translate(457.135 367.018)" fill="#12263f" font-size="18" font-family="Roboto-Regular, Roboto"><tspan x="0" y="0" xml:space="preserve">=  </tspan></text>
          <text id="_35_8_" data-name="  35,8 %" transform="translate(475.927 367.018)" fill="#12263f" font-size="18" font-family="Roboto-Bold, Roboto" font-weight="700"><tspan x="0" y="0" xml:space="preserve">  35,8 %</tspan></text>
          <text id="_29_3_2" data-name="29,3 " transform="translate(389.131 385.395)" fill="#12263f" font-size="18" font-family="Roboto-Regular, Roboto"><tspan x="0" y="0">29,3 </tspan></text>
          <text id="_10_5_x_100" data-name="10,5 x 100" transform="translate(364.327 358.846)" fill="#12263f" font-size="18" font-family="Roboto-Regular, Roboto"><tspan x="0" y="0">10,5 x 100</tspan></text>
          <line id="Línea_802" data-name="Línea 802" x2="97.532" transform="translate(356.581 363.754)" fill="none" stroke="#12263f" stroke-miterlimit="10" stroke-width="1"/>
          <rect id="Rectángulo_325017" data-name="Rectángulo 325017" width="4.17" height="23.83" transform="translate(729.383 172.159)" fill="#12263f"/>
          <rect id="Rectángulo_325018" data-name="Rectángulo 325018" width="23.83" height="4.17" transform="translate(719.553 181.989)" fill="#12263f"/>
          <line id="Línea_803" data-name="Línea 803" x2="57.016" y2="31.134" transform="translate(828.289 126.003)" fill="none" stroke="#12263f" stroke-linecap="round" stroke-linejoin="round" stroke-width="2"/>
          <g id="Grupo_260755" data-name="Grupo 260755">
            <g id="Grupo_260754" data-name="Grupo 260754" clip-path="url(#clip-path-2)">
              <path id="Trazado_278537" data-name="Trazado 278537" d="M884.6,156.752c-.833-2.836.274-6.94,1.576-9.5a27.266,27.266,0,0,0,5.38,13.295c-4.818-.577-9.648.842-14.093,2.661,1.688-2.577,4.132-5.488,7.137-6.46" fill="#12263f"/>
              <line id="Línea_804" data-name="Línea 804" x2="57.016" y2="31.134" transform="translate(227.997 126.003)" fill="none" stroke="#12263f" stroke-linecap="round" stroke-linejoin="round" stroke-width="2"/>
              <path id="Trazado_278538" data-name="Trazado 278538" d="M284.306,156.752c-.833-2.836.274-6.94,1.576-9.5a27.267,27.267,0,0,0,5.38,13.295c-4.818-.577-9.648.842-14.093,2.661,1.688-2.577,4.132-5.488,7.137-6.46" fill="#12263f"/>
              <line id="Línea_805" data-name="Línea 805" x2="57.016" y2="31.134" transform="translate(362.131 204.749)" fill="none" stroke="#12263f" stroke-linecap="round" stroke-linejoin="round" stroke-width="2"/>
              <path id="Trazado_278539" data-name="Trazado 278539" d="M418.44,235.5c-.833-2.836.274-6.94,1.576-9.5A27.267,27.267,0,0,0,425.4,239.3c-4.818-.577-9.648.842-14.093,2.661,1.688-2.577,4.132-5.488,7.137-6.46" fill="#12263f"/>
              <line id="Línea_806" data-name="Línea 806" y1="39.086" x2="51.889" transform="translate(835.477 204.621)" fill="none" stroke="#12263f" stroke-linecap="round" stroke-linejoin="round" stroke-width="2"/>
              <path id="Trazado_278540" data-name="Trazado 278540" d="M886.723,205.106c-2.927-.412-6.209-3.114-8-5.354a27.262,27.262,0,0,0,14.33.585c-2.514,4.151-3.215,9.136-3.392,13.936-1.651-2.6-3.294-6.029-2.939-9.167" fill="#12263f"/>
              <line id="Línea_807" data-name="Línea 807" y1="39.086" x2="51.889" transform="translate(233.855 204.621)" fill="none" stroke="#12263f" stroke-linecap="round" stroke-linejoin="round" stroke-width="2"/>
              <path id="Trazado_278541" data-name="Trazado 278541" d="M285.1,205.106c-2.927-.412-6.209-3.114-8-5.354a27.262,27.262,0,0,0,14.33.585c-2.514,4.151-3.215,9.136-3.392,13.936-1.651-2.6-3.294-6.029-2.939-9.167" fill="#12263f"/>
              <line id="Línea_808" data-name="Línea 808" y1="39.086" x2="51.889" transform="translate(364.975 125.876)" fill="none" stroke="#12263f" stroke-linecap="round" stroke-linejoin="round" stroke-width="2"/>
              <path id="Trazado_278542" data-name="Trazado 278542" d="M416.221,126.36c-2.927-.412-6.209-3.114-8-5.353a27.272,27.272,0,0,0,14.33.584c-2.514,4.151-3.215,9.136-3.392,13.936-1.651-2.6-3.294-6.029-2.939-9.167" fill="#12263f"/>
            </g>
          </g>
        </g>
      </g>
    </g>
  </g>
</svg>
