<svg id="Grupo_260757" data-name="Grupo 260757" xmlns="http://www.w3.org/2000/svg" xmlns:xlink="http://www.w3.org/1999/xlink" width="961.98" height="392.373" viewBox="0 0 961.98 392.373">
  <defs>
    <clipPath id="clip-path">
      <rect id="Rectángulo_325020" data-name="Rectángulo 325020" width="961.98" height="392.373" fill="none"/>
    </clipPath>
    <clipPath id="clip-path-3">
      <rect id="Rectángulo_325012" data-name="Rectángulo 325012" width="408.489" height="241" transform="translate(116.883 63.574)" fill="none"/>
    </clipPath>
  </defs>
  <g id="Grupo_260756" data-name="Grupo 260756" clip-path="url(#clip-path)">
    <g id="Grupo_260747" data-name="Grupo 260747">
      <g id="Grupo_260746" data-name="Grupo 260746" clip-path="url(#clip-path)">
        <g id="Grupo_260745" data-name="Grupo 260745" opacity="0.6" style="isolation: isolate">
          <g id="Grupo_260744" data-name="Grupo 260744">
            <g id="Grupo_260743" data-name="Grupo 260743" clip-path="url(#clip-path-3)">
              <path id="Trazado_278536" data-name="Trazado 278536" d="M503.936,304.074H138.319a20.936,20.936,0,0,1-20.936-20.936V85.01a20.936,20.936,0,0,1,20.936-20.936H503.936A20.936,20.936,0,0,1,524.872,85.01V283.138a20.936,20.936,0,0,1-20.936,20.936" fill="#dbf9bd"/>
              <rect id="Rectángulo_325011" data-name="Rectángulo 325011" width="407.489" height="240" rx="20.936" transform="translate(117.383 64.074)" fill="none" stroke="#04294f" stroke-miterlimit="10" stroke-width="1" stroke-dasharray="6.994 6.994"/>
            </g>
          </g>
        </g>
      </g>
    </g>
    <text id="Alimentos" transform="translate(17.541 25.635)" fill="#12263f" font-size="18" font-family="Roboto-Bold, Roboto" font-weight="700"><tspan x="0" y="0">Alimen</tspan><tspan y="0" letter-spacing="-0.015em">t</tspan><tspan y="0">os</tspan></text>
    <text id="_7_50_" data-name="7,50%" transform="translate(157.256 129.261)" fill="#12263f" font-size="18" font-family="Roboto-Regular, Roboto"><tspan x="0" y="0">7,50%</tspan></text>
    <text id="_36_80_" data-name="36,80%" transform="translate(152.199 250.797)" fill="#12263f" font-size="18" font-family="Roboto-Regular, Roboto"><tspan x="0" y="0">36,80%</tspan></text>
    <text id="_18_8_" data-name="18,8%" transform="translate(436.059 129.261)" fill="#12263f" font-size="18" font-family="Roboto-Regular, Roboto"><tspan x="0" y="0">18,8%</tspan></text>
    <text id="_18_" data-name="18%" transform="translate(314.991 182.685)" fill="#12263f" font-size="18" font-family="Roboto-Regular, Roboto"><tspan x="0" y="0">18%</tspan></text>
    <text id="_10_5_" data-name="10,5%" transform="translate(436.059 250.797)" fill="#12263f" font-size="18" font-family="Roboto-Regular, Roboto"><tspan x="0" y="0">10,5%</tspan></text>
    <text id="_18_-_7_5_10_5" data-name="18 - 7,5 = 10,5" transform="translate(674.666 129.261)" fill="#12263f" font-size="18" font-family="Roboto-Regular, Roboto"><tspan x="0" y="0">18 - 7,5 = 10,5</tspan></text>
    <text id="_36_80_-_18_18_8" data-name="36,80 - 18 = 18,8" transform="translate(674.666 250.797)" fill="#12263f" font-size="18" font-family="Roboto-Regular, Roboto"><tspan x="0" y="0">36,80 - 18 = 18,8</tspan></text>
    <text id="_64_20_" data-name="64,20%" transform="translate(556.154 129.261)" fill="#12263f" font-size="18" font-family="Roboto-Bold, Roboto" font-weight="700"><tspan x="0" y="0">64,20%</tspan></text>
    <text id="_29_3" data-name="29,3" transform="translate(909.063 187.329)" fill="#12263f" font-size="18" font-family="Roboto-Bold, Roboto" font-weight="700"><tspan x="0" y="0">29,3</tspan></text>
    <text id="_35_80_" data-name="35,80%" transform="translate(556.154 250.797)" fill="#12263f" font-size="18" font-family="Roboto-Bold, Roboto" font-weight="700"><tspan x="0" y="0">35,80%</tspan></text>
    <text id="Maíz_" data-name="Maíz " transform="translate(38.924 129.045)" fill="#12263f" font-size="18" font-family="Roboto-Bold, Roboto" font-weight="700"><tspan x="0" y="0">Maíz </tspan></text>
    <text id="nacional" transform="translate(24.398 150.644)" fill="#12263f" font-size="18" font-family="Roboto-Bold, Roboto" font-weight="700"><tspan x="0" y="0">nacional</tspan></text>
    <text id="Soja_" data-name="Soja " transform="translate(40.904 245.973)" fill="#12263f" font-size="18" font-family="Roboto-Bold, Roboto" font-weight="700"><tspan x="0" y="0">Soja </tspan></text>
    <text id="tostada" transform="translate(28.305 267.572)" fill="#12263f" font-size="18" font-family="Roboto-Bold, Roboto" font-weight="700"><tspan x="0" y="0" letter-spacing="-0.014em">t</tspan><tspan y="0">ostada</tspan></text>
    <text id="Partes" transform="translate(439.497 25.617)" fill="#12263f" font-size="18" font-family="Roboto-Bold, Roboto" font-weight="700"><tspan x="0" y="0" letter-spacing="-0.005em">P</tspan><tspan y="0">a</tspan><tspan y="0" letter-spacing="0.024em">r</tspan><tspan y="0">tes</tspan></text>
    <g id="Grupo_260749" data-name="Grupo 260749">
      <g id="Grupo_260748" data-name="Grupo 260748" clip-path="url(#clip-path)">
        <text id="Proteína_" data-name="Proteína " transform="translate(146.521 15.399)" fill="#12263f" font-size="18" font-family="Roboto-Bold, Roboto" font-weight="700"><tspan x="0" y="0">P</tspan><tspan y="0" letter-spacing="-0.017em">r</tspan><tspan y="0">oteína </tspan></text>
      </g>
    </g>
    <text id="bruta" transform="translate(159.525 36.999)" fill="#12263f" font-size="18" font-family="Roboto-Bold, Roboto" font-weight="700"><tspan x="0" y="0">bruta</tspan></text>
    <g id="Grupo_260751" data-name="Grupo 260751">
      <g id="Grupo_260750" data-name="Grupo 260750" clip-path="url(#clip-path)">
        <text id="Concentración_" data-name="Concentración " transform="translate(268.173 15.399)" fill="#12263f" font-size="18" font-family="Roboto-Bold, Roboto" font-weight="700"><tspan x="0" y="0">Concent</tspan><tspan y="0" letter-spacing="-0.013em">r</tspan><tspan y="0">ación </tspan></text>
      </g>
    </g>
    <text id="bruta-2" data-name="bruta" transform="translate(305.764 36.999)" fill="#12263f" font-size="18" font-family="Roboto-Bold, Roboto" font-weight="700"><tspan x="0" y="0">bruta</tspan></text>
    <g id="Grupo_260753" data-name="Grupo 260753">
      <g id="Grupo_260752" data-name="Grupo 260752" clip-path="url(#clip-path)">
        <text id="Proporción_de_" data-name="Proporción de " transform="translate(527.075 16.425)" fill="#12263f" font-size="18" font-family="Roboto-Bold, Roboto" font-weight="700"><tspan x="0" y="0">P</tspan><tspan y="0" letter-spacing="-0.017em">r</tspan><tspan y="0">opo</tspan><tspan y="0" letter-spacing="-0.008em">r</tspan><tspan y="0">ción de </tspan></text>
      </g>
    </g>
    <text id="fuentes" transform="translate(553.135 38.025)" fill="#12263f" font-size="18" font-family="Roboto-Bold, Roboto" font-weight="700"><tspan x="0" y="0">fuentes</tspan></text>
    <text id="_18_8_x_100_" data-name="18,8 x 100 " transform="translate(124.159 358.839)" fill="#12263f" font-size="18" font-family="Roboto-Regular, Roboto"><tspan x="0" y="0">18,8 x 100 </tspan></text>
    <text id="_29_3_" data-name="29,3 " transform="translate(149.179 385.389)" fill="#12263f" font-size="18" font-family="Roboto-Regular, Roboto"><tspan x="0" y="0">29,3 </tspan></text>
    <text id="_" data-name="=  " transform="translate(228.001 367.011)" fill="#12263f" font-size="18" font-family="Roboto-Regular, Roboto"><tspan x="0" y="0" xml:space="preserve">=  </tspan></text>
    <text id="_64_2_" data-name="   64,2%" transform="translate(246.793 367.011)" fill="#12263f" font-size="18" font-family="Roboto-Bold, Roboto" font-weight="700"><tspan x="0" y="0" xml:space="preserve">   64,2%</tspan></text>
    <line id="Línea_801" data-name="Línea 801" x2="97.532" transform="translate(117.646 363.754)" fill="none" stroke="#12263f" stroke-miterlimit="10" stroke-width="1"/>
    <text id="_2" data-name="=  " transform="translate(457.135 367.018)" fill="#12263f" font-size="18" font-family="Roboto-Regular, Roboto"><tspan x="0" y="0" xml:space="preserve">=  </tspan></text>
    <text id="_35_8_" data-name="  35,8%" transform="translate(475.927 367.018)" fill="#12263f" font-size="18" font-family="Roboto-Bold, Roboto" font-weight="700"><tspan x="0" y="0" xml:space="preserve">  35,8%</tspan></text>
    <text id="_29_3_2" data-name="29,3 " transform="translate(389.131 385.395)" fill="#12263f" font-size="18" font-family="Roboto-Regular, Roboto"><tspan x="0" y="0">29,3 </tspan></text>
    <text id="_10_5_x_100" data-name="10,5 x 100" transform="translate(364.327 358.846)" fill="#12263f" font-size="18" font-family="Roboto-Regular, Roboto"><tspan x="0" y="0">10,5 x 100</tspan></text>
    <line id="Línea_802" data-name="Línea 802" x2="97.532" transform="translate(356.581 363.754)" fill="none" stroke="#12263f" stroke-miterlimit="10" stroke-width="1"/>
    <rect id="Rectángulo_325017" data-name="Rectángulo 325017" width="4.17" height="23.83" transform="translate(729.383 172.159)" fill="#12263f"/>
    <rect id="Rectángulo_325018" data-name="Rectángulo 325018" width="23.83" height="4.17" transform="translate(719.553 181.989)" fill="#12263f"/>
    <line id="Línea_803" data-name="Línea 803" x2="57.016" y2="31.134" transform="translate(828.289 126.003)" fill="none" stroke="#12263f" stroke-linecap="round" stroke-linejoin="round" stroke-width="2"/>
    <g id="Grupo_260755" data-name="Grupo 260755">
      <g id="Grupo_260754" data-name="Grupo 260754" clip-path="url(#clip-path)">
        <path id="Trazado_278537" data-name="Trazado 278537" d="M884.6,156.752c-.833-2.836.274-6.94,1.576-9.5a27.266,27.266,0,0,0,5.38,13.295c-4.818-.577-9.648.842-14.093,2.661,1.688-2.577,4.132-5.488,7.137-6.46" fill="#12263f"/>
        <line id="Línea_804" data-name="Línea 804" x2="57.016" y2="31.134" transform="translate(227.997 126.003)" fill="none" stroke="#12263f" stroke-linecap="round" stroke-linejoin="round" stroke-width="2"/>
        <path id="Trazado_278538" data-name="Trazado 278538" d="M284.306,156.752c-.833-2.836.274-6.94,1.576-9.5a27.267,27.267,0,0,0,5.38,13.295c-4.818-.577-9.648.842-14.093,2.661,1.688-2.577,4.132-5.488,7.137-6.46" fill="#12263f"/>
        <line id="Línea_805" data-name="Línea 805" x2="57.016" y2="31.134" transform="translate(362.131 204.749)" fill="none" stroke="#12263f" stroke-linecap="round" stroke-linejoin="round" stroke-width="2"/>
        <path id="Trazado_278539" data-name="Trazado 278539" d="M418.44,235.5c-.833-2.836.274-6.94,1.576-9.5A27.267,27.267,0,0,0,425.4,239.3c-4.818-.577-9.648.842-14.093,2.661,1.688-2.577,4.132-5.488,7.137-6.46" fill="#12263f"/>
        <line id="Línea_806" data-name="Línea 806" y1="39.086" x2="51.889" transform="translate(835.477 204.621)" fill="none" stroke="#12263f" stroke-linecap="round" stroke-linejoin="round" stroke-width="2"/>
        <path id="Trazado_278540" data-name="Trazado 278540" d="M886.723,205.106c-2.927-.412-6.209-3.114-8-5.354a27.262,27.262,0,0,0,14.33.585c-2.514,4.151-3.215,9.136-3.392,13.936-1.651-2.6-3.294-6.029-2.939-9.167" fill="#12263f"/>
        <line id="Línea_807" data-name="Línea 807" y1="39.086" x2="51.889" transform="translate(233.855 204.621)" fill="none" stroke="#12263f" stroke-linecap="round" stroke-linejoin="round" stroke-width="2"/>
        <path id="Trazado_278541" data-name="Trazado 278541" d="M285.1,205.106c-2.927-.412-6.209-3.114-8-5.354a27.262,27.262,0,0,0,14.33.585c-2.514,4.151-3.215,9.136-3.392,13.936-1.651-2.6-3.294-6.029-2.939-9.167" fill="#12263f"/>
        <line id="Línea_808" data-name="Línea 808" y1="39.086" x2="51.889" transform="translate(364.975 125.876)" fill="none" stroke="#12263f" stroke-linecap="round" stroke-linejoin="round" stroke-width="2"/>
        <path id="Trazado_278542" data-name="Trazado 278542" d="M416.221,126.36c-2.927-.412-6.209-3.114-8-5.353a27.272,27.272,0,0,0,14.33.584c-2.514,4.151-3.215,9.136-3.392,13.936-1.651-2.6-3.294-6.029-2.939-9.167" fill="#12263f"/>
      </g>
    </g>
  </g>
</svg>
