<svg xmlns="http://www.w3.org/2000/svg" xmlns:xlink="http://www.w3.org/1999/xlink" width="85" height="71.591" viewBox="0 0 85 71.591">
  <defs>
    <clipPath id="clip-path">
      <rect id="Rectángulo_325029" data-name="Rectángulo 325029" width="85" height="71.591" fill="none"/>
    </clipPath>
  </defs>
  <g id="Grupo_261796" data-name="Grupo 261796" transform="translate(-180 -6068.824)">
    <g id="Grupo_260763" data-name="Grupo 260763" transform="translate(180 6068.824)">
      <g id="Grupo_260762" data-name="Grupo 260762" clip-path="url(#clip-path)">
        <path id="Trazado_278543" data-name="Trazado 278543" d="M78.3,52.888A2,2,0,0,1,79.556,55.1c-.01.385.031.774-.007,1.155-.141,1.4-.058,2.509,1.617,3.134a3.26,3.26,0,0,1,1.474,2.3,4.029,4.029,0,0,0,1.225,2.932,3.73,3.73,0,0,1,.687,4.5,4.064,4.064,0,0,1-3.777,2.438c-.175.005-.35,0-.525,0H20.383c-1.365,0-1.773-.287-2.029-1.4l1.083-1.115,35.3,0c.277.021.554.058.831.059,1.248,0,1.932-.618,1.93-1.74,0-1.28-.444-1.672-1.919-1.681-.417,0-.835.033-1.252.051-1.324-.019-2.648-.079-3.97-.042a1.93,1.93,0,0,1-2.154-1.215,1.46,1.46,0,0,1,1.734-1.31c.616.044,1.239-.022,1.859-.039h3.708c.12-1.322-.624-2.23-1.83-2.034a14.807,14.807,0,0,1-2.084.056c-.482-.013-.965-.009-1.445-.044a1.835,1.835,0,0,1-1.815-1.18c-.1-.351.346-.862.545-1.3h3.516a36.631,36.631,0,0,0-1.165-11.458,37.593,37.593,0,0,0-4.015-10.235l-.236-.316H43.834a10.88,10.88,0,0,0-1.452-.047,1.255,1.255,0,0,1-1.573-1.3c.135-1.229,1.094-1.173,1.961-1.259,2.449.016,4.9.052,7.347.039,1.182-.006,1.686-.534,1.691-1.624a1.539,1.539,0,0,0-1.7-1.755c-2.449-.018-4.9.017-7.348.03-.139-.013-.278-.038-.417-.038q-16.01,0-32.021,0c-.244,0-.551-.066-.721.053-.458.317-1.093.654-1.217,1.1A1.91,1.91,0,0,0,8.8,33.456a3.022,3.022,0,0,0,1.861.58c8.294.036,16.588.023,24.882.025,1.523,0,1.716.177,1.812,1.623-.249.869-.952.874-1.66.874-7.108,0-14.217.025-21.325-.028a1.821,1.821,0,0,0-1.97,1.235c-.5,1.2-1.07,2.366-1.565,3.565A40.184,40.184,0,0,0,7.667,55.873c-.059,2.7-.013,2.72,2.672,2.713.816,0,1.539.151,1.51,1.105-.026.859-.662,1.22-1.507,1.213-1.226-.01-2.451-.018-3.677,0-1.485.024-2.011.643-1.875,2.273,1.732,0,3.477.029,5.219-.011a1.637,1.637,0,0,1,1.91,1.309,1.759,1.759,0,0,1-1.931,1.217c-1.912-.044-3.826-.016-5.739-.005a1.451,1.451,0,0,0-1.63,1.238A1.64,1.64,0,0,0,3.844,68.98l10.33.059,1.038,1.3a1.682,1.682,0,0,1-1.833,1.252c-3.185-.064-6.373,0-9.559-.062A3.676,3.676,0,0,1,.252,68.683a3.628,3.628,0,0,1,.821-4.008,3.172,3.172,0,0,0,1.171-2.589,3.127,3.127,0,0,1,1.956-3,1.36,1.36,0,0,0,.955-1.558A43.3,43.3,0,0,1,8.786,39.732c.415-.968.867-1.919,1.332-2.944A4.959,4.959,0,0,1,6.065,34a4.133,4.133,0,0,1,2.958-5.683,8.211,8.211,0,0,0,1.613-.238,1.579,1.579,0,0,0,.79-.79,11.689,11.689,0,0,1,7.164-6.416c.793-.275,1.662-.326,2.473-.562a6.3,6.3,0,0,0,1.739-.748,12.921,12.921,0,0,1,5.5-2.176c.506-.069,1.006-.177,1.61-.285.494-2.71,1.015-5.473,1.47-8.247.037-.226-.323-.631-.593-.774A4.149,4.149,0,0,1,28.321,4.15,4.12,4.12,0,0,1,32.334.022,7.6,7.6,0,0,1,33.174,0Q53.713,0,74.252,0a4.525,4.525,0,0,1,4.583,3.461c.307,1.423-.631,3.709-1.912,4.284a12.284,12.284,0,0,0-1.112.635c.345,2.078.672,4.089,1.012,6.1.466,2.754.975,5.5,1.4,8.261.288,1.859.491,3.734.693,5.605.706,6.537.323,13.1.447,19.649.017.914-.2,1.508-1.1,1.761-1.1-.137-1.211-.905-1.238-1.813-.192-6.374-.354-12.75-.648-19.119a68.5,68.5,0,0,0-.847-7.4c-.63-4.031-1.378-8.044-2.067-12.066-.095-.553-.32-.841-.948-.809-.943.048-1.89.008-2.835.005a7.665,7.665,0,0,0-1.1-.155q-16.795-.013-33.59-.007H34c-.137.721-.278,1.384-.387,2.053-.321,1.964-.628,3.931-.941,5.9-.331.627-.444,1.032.508,1.3a14.746,14.746,0,0,1,3.384,1.452,6.921,6.921,0,0,0,3.1,1.407,17.574,17.574,0,0,1,2.49.493V17.4c.016-.627.041-1.255.046-1.883.012-1.616.621-2.269,2.241-2.273q9.175-.02,18.35,0A2.184,2.184,0,0,1,65.208,15.7c.013,1.363-.053,2.729.02,4.088.062,1.152-.22,1.983-1.45,2.256a1.375,1.375,0,0,1-1.067-1.536c0-1.461-.03-2.922-.047-4.382l-.345-.343H45.078l-.343.343q0,1.158.005,2.316v3.566a3.086,3.086,0,0,0,.534.915,11.875,11.875,0,0,1,3.66,4.858c.108.271.638.444,1,.525a10.756,10.756,0,0,1,1.811.239c2.26.957,3.06,2.823,2.4,5.458h8.564c0-2.416.024-4.721-.012-7.025-.014-.878.166-1.553,1.109-1.8a1.62,1.62,0,0,1,1.409,1.74c-.029,2.477.01,4.955-.017,7.431a2.021,2.021,0,0,1-2.273,2.206l-6.275.066-6.523-.046-.179.163c.975,2.338,1.979,4.665,2.9,7.024.2.519.358.825.969.791,1.008-.055,2.02-.048,3.029-.067,3.421.02,6.841.034,10.262.062a2.123,2.123,0,0,1,2.321,2.34c.01,1.816.015,3.632,0,5.448a2.051,2.051,0,0,1-2.308,2.276q-4.19.022-8.38.033l-.42-.025a20.172,20.172,0,0,0-2.115-.207,3.378,3.378,0,0,0-1.048.363c-.069,1.05-.195,2.1-.172,3.149a1.382,1.382,0,0,0,.671.91c1.3.76,2.3,1.756,2.207,3.339a2.069,2.069,0,0,0,1.266,2.316c.995,1.252.939,2.714.842,4.186.048.124.092.353.146.355.446.02.894,0,1.341-.011l2.537.007H79.548c.381.016.763.062,1.142.041A1.916,1.916,0,0,0,82.505,67.4a1.675,1.675,0,0,0-1.811-1.7c-.519-.018-1.04.023-1.56.038q-2.15-.025-4.3-.05c-.84-.009-1.537-.208-1.642-1.211.059-.981.586-1.369,1.553-1.3.615.042,1.237-.02,1.856-.036h3.727c.065-1.377-.609-2.172-1.839-2.211-.7-.023-1.4.026-2.1.042a9.832,9.832,0,0,1-1.752-.077c-.459-.1-1.119-.324-1.242-.658-.162-.443.111-1.046.2-1.58a21,21,0,0,1,2.3-.038c.956.082,1.224-.312,1.157-1.2-.065-.867.039-1.746-.028-2.612a1.564,1.564,0,0,1,1.28-1.907M57.486,47.044c-1.128-.049-2.256-.1-3.385-.131-.061,0-.127.219-.19.337.212,1.442.4,2.89.666,4.321a.954.954,0,0,0,.73.515c1.074.045,2.151-.005,3.227-.02h8.341V47.075H57.7l-.215-.03M73.661,2.552H70.313l-.856-.006c-.209-.016-.417-.045-.626-.045q-17.9,0-35.8,0a3.474,3.474,0,0,0-.93.106,1.648,1.648,0,0,0-.921,2.6c.5.739,1.24.673,1.964.673q17.74.005,35.48,0c.279,0,.557-.03.836-.046,1.779.013,3.558.035,5.338.036a1.526,1.526,0,0,0,1.582-1.253,1.547,1.547,0,0,0-1.077-1.976,6.812,6.812,0,0,0-1.647-.1M36.484,22.22a7.977,7.977,0,0,0-6.326-2.269,8.468,8.468,0,0,0-6.6,2.227,2.1,2.1,0,0,1-1.092.454A11.393,11.393,0,0,0,16.1,25.066a7.027,7.027,0,0,0-2.234,3.087h1.313q10.6,0,21.19,0c1.992,0,3.983-.029,5.975-.045h3.937c-1.091-2.929-4.968-5.438-8.35-5.212l-1.449-.674" transform="translate(0 -0.001)" fill="#010101"/>
        <path id="Trazado_278544" data-name="Trazado 278544" d="M57.891,306.721a1.929,1.929,0,0,0,2.154,1.215c1.322-.037,2.646.024,3.97.042l.413,2.952q-17.117,0-34.234.012a3.686,3.686,0,0,0-1.071.35l-1.083,1.115-3.142.173-1.038-1.3a2.664,2.664,0,0,0-.861-.338q-4.268-.038-8.537,0a3.453,3.453,0,0,0-.932.281,1.64,1.64,0,0,1-1.224-2.053,1.451,1.451,0,0,1,1.63-1.238c1.913-.011,3.827-.039,5.739.005a1.759,1.759,0,0,0,1.931-1.217l36.285,0" transform="translate(-9.685 -242.242)" fill="#eaa978"/>
        <path id="Trazado_278545" data-name="Trazado 278545" d="M331.465,40.667c.945,0,1.892.043,2.835-.005.628-.032.853.255.948.809.689,4.022,1.437,8.035,2.067,12.066a68.507,68.507,0,0,1,.847,7.4c.293,6.369.456,12.745.648,19.119.027.908.14,1.676,1.238,1.813q.02,1.567.039,3.133a1.564,1.564,0,0,0-1.28,1.907c.067.866-.037,1.746.028,2.612.068.893-.2,1.287-1.157,1.2a21.213,21.213,0,0,0-2.3.037,6.133,6.133,0,0,1-.331-1.333c-.193-9.147.4-18.307-.442-27.442-.249-2.7-.486-5.4-.9-8.075-.678-4.425-1.491-8.83-2.248-13.243" transform="translate(-261.786 -32.112)" fill="#cb7d50"/>
        <path id="Trazado_278546" data-name="Trazado 278546" d="M66.127,196.846l-36.285,0a1.637,1.637,0,0,0-1.91-1.308c-1.743.04-3.487.011-5.219.011-.136-1.63.39-2.249,1.875-2.273,1.225-.02,2.451-.012,3.677,0,.845.007,1.48-.354,1.507-1.213.029-.954-.693-1.107-1.51-1.105-2.685.007-2.731-.009-2.672-2.713A40.181,40.181,0,0,1,28.753,173.7c.495-1.2,1.066-2.368,1.565-3.566a1.822,1.822,0,0,1,1.97-1.235c7.108.053,14.216.028,21.324.028.708,0,1.411-.005,1.66-.874,1.076-.775,2.3-.292,3.457-.418a1.255,1.255,0,0,0,1.573,1.3,10.914,10.914,0,0,1,1.452.048c.342.873.687,1.745,1.026,2.62.618,1.594,1.314,3.162,1.833,4.788a47.891,47.891,0,0,1,2.185,14.6c-.2.439-.647.95-.545,1.3a1.835,1.835,0,0,0,1.815,1.18c.48.035.963.03,1.445.044l.206,1.979c-.62.017-1.244.083-1.859.038a1.46,1.46,0,0,0-1.734,1.31m-18.175-9.864q6.671,0,13.341,0c1.684,0,2.465-.791,2.472-2.5.007-1.646,0-3.292,0-4.937,0-1.869-.77-2.628-2.661-2.629q-13.026,0-26.052,0c-.315,0-.632-.007-.944.024a1.671,1.671,0,0,0-1.716,1.887q-.011,2.836-.008,5.672c0,1.981.511,2.479,2.541,2.48q6.513,0,13.026,0" transform="translate(-17.921 -132.367)" fill="#f4b887"/>
        <path id="Trazado_278547" data-name="Trazado 278547" d="M192.446,40.089c.757,4.413,1.57,8.818,2.248,13.243.41,2.675.647,5.379.9,8.075.843,9.135.249,18.3.442,27.442a6.133,6.133,0,0,0,.331,1.333c-.086.535-.36,1.138-.2,1.581.123.334.783.56,1.242.658a9.832,9.832,0,0,0,1.752.077l.209,2.169c-.619.016-1.241.078-1.856.036-.967-.066-1.494.322-1.553,1.3l-9.614.01q-.1,0-.2-.009c-.459-.771-.926-1.537-1.373-2.315a6.509,6.509,0,0,1-.315-.745c-.5-1.2-.929-2.449-1.538-3.6-.545-1.03-1.825-1.712-1.4-3.17q4.19-.016,8.38-.033a2.05,2.05,0,0,0,2.308-2.276c.016-1.816.012-3.632,0-5.447a2.123,2.123,0,0,0-2.321-2.34c-3.421-.028-6.841-.042-10.262-.062-.451-1.588-.85-3.194-1.375-4.757a1.384,1.384,0,0,1,.364-1.722,5.391,5.391,0,0,0,.811-1.387l6.275-.066a2.021,2.021,0,0,0,2.273-2.206c.027-2.477-.012-4.955.017-7.431a1.62,1.62,0,0,0-1.409-1.74q-.016-1.566-.033-3.132c1.23-.273,1.512-1.1,1.45-2.256-.073-1.359-.007-2.725-.02-4.088a2.184,2.184,0,0,0-2.419-2.462q-9.175-.018-18.35,0c-1.62,0-2.229.657-2.241,2.273,0,.628-.03,1.256-.046,1.884a3.139,3.139,0,0,0-.692-.206c-2.524-.154-5.05-.276-7.573-.449a5.065,5.065,0,0,1-1.211-.4c.313-1.966.621-3.932.941-5.9.109-.669.25-1.332.387-2.053h.988q16.8,0,33.59.007a7.665,7.665,0,0,1,1.1.155" transform="translate(-122.768 -31.534)" fill="#de955e"/>
        <path id="Trazado_278548" data-name="Trazado 278548" d="M231.852,81.358q.017,1.566.033,3.131c-.943.249-1.122.923-1.108,1.8.036,2.3.012,4.61.012,7.026h-4.6c0-.56-.047-1.125.009-1.68.376-3.71-3.237-7.417-6.406-7.807a1.637,1.637,0,0,1-1.017-.615,18.273,18.273,0,0,0-5.618-5.25l-.339-.209q0-1.158-.005-2.316l.343-.343h17.241l.345.343c.017,1.461.044,2.921.047,4.382a1.375,1.375,0,0,0,1.067,1.536" transform="translate(-168.074 -59.31)" fill="#f5f8f9"/>
        <path id="Trazado_278549" data-name="Trazado 278549" d="M94.45,102.871c-1.992.016-3.983.044-5.975.045q-10.6.008-21.19,0H65.972a7.026,7.026,0,0,1,2.234-3.087A11.4,11.4,0,0,1,74.569,97.4a2.1,2.1,0,0,0,1.092-.454,8.466,8.466,0,0,1,6.6-2.227c1.733,1.8,4.042,2,6.326,2.269l1.449.674c.183.152.355.321.551.454a10.2,10.2,0,0,1,3.862,4.757m-8.61-3.228a1.069,1.069,0,0,0,1.144,1.293,1.124,1.124,0,0,0,1.172-1.267c-.038-.8-.428-1.215-1.2-1.189-.723.024-1.285.3-1.119,1.163m-8.5,1.124a1.072,1.072,0,0,0,1.292-1.136,1.144,1.144,0,0,0-1.286-1.159,1.067,1.067,0,0,0-1.17,1.144c-.014.742.3,1.268,1.164,1.151m5.968-3.452c.076-.814-.289-1.182-1.143-1.176-.758.005-1.2.246-1.175,1.068.024.778.4,1.261,1.191,1.242.667-.016,1.233-.258,1.127-1.134" transform="translate(-52.104 -74.766)" fill="#fee177"/>
        <path id="Trazado_278550" data-name="Trazado 278550" d="M185.387,15.229c-.279.016-.557.046-.836.046q-17.74,0-35.48,0c-.724,0-1.462.065-1.964-.673a1.648,1.648,0,0,1,.921-2.6,3.466,3.466,0,0,1,.93-.106q17.9-.008,35.8,0c.209,0,.417.029.626.045l.008,3.294" transform="translate(-115.921 -9.389)" fill="#cc7d50"/>
        <path id="Trazado_278551" data-name="Trazado 278551" d="M72.147,150.388c-1.154.126-2.382-.357-3.457.418-.1-1.446-.289-1.623-1.812-1.624-8.294,0-16.588.011-24.882-.025a3.019,3.019,0,0,1-1.861-.58,1.91,1.91,0,0,1-.411-1.639c.124-.45.759-.787,1.217-1.1.171-.118.477-.052.721-.052q16.01,0,32.021,0c.139,0,.278.024.417.037l.008,3.311c-.868.086-1.827.03-1.961,1.258" transform="translate(-31.339 -115.121)" fill="#eaa978"/>
        <path id="Trazado_278552" data-name="Trazado 278552" d="M213.564,196.2a47.893,47.893,0,0,0-2.185-14.6c-.519-1.625-1.215-3.194-1.833-4.788-.339-.874-.684-1.746-1.026-2.62h3.144l.236.316a37.587,37.587,0,0,1,4.016,10.235A36.624,36.624,0,0,1,217.08,196.2Z" transform="translate(-164.686 -137.569)" fill="#eaa978"/>
        <path id="Trazado_278553" data-name="Trazado 278553" d="M213.178,88.738a18.277,18.277,0,0,1,5.618,5.25,1.635,1.635,0,0,0,1.017.615c3.169.39,6.782,4.1,6.406,7.807-.056.555-.009,1.12-.009,1.68H222.25c.659-2.634-.142-4.5-2.4-5.458a10.775,10.775,0,0,0-1.811-.239c-.365-.081-.894-.254-1-.525a11.875,11.875,0,0,0-3.66-4.858,3.087,3.087,0,0,1-.534-.915,3.145,3.145,0,0,0,.32-.871c.045-.827.017-1.657.018-2.486" transform="translate(-168.098 -70.084)" fill="#e8edf2"/>
        <path id="Trazado_278554" data-name="Trazado 278554" d="M302.443,306.709l9.614-.01c.105,1,.8,1.2,1.642,1.211q2.15.023,4.3.05l.413,3.294H302.872l-.429-4.546" transform="translate(-238.865 -242.227)" fill="#cb7d50"/>
        <path id="Trazado_278555" data-name="Trazado 278555" d="M274.454,223.935h9.174v4.992h-8.341l-.842-4.825q0-.083.009-.167" transform="translate(-216.753 -176.861)" fill="#fee177"/>
        <path id="Trazado_278556" data-name="Trazado 278556" d="M265.363,259.859c-.423,1.458.857,2.14,1.4,3.17.608,1.149,1.033,2.395,1.537,3.6a6.543,6.543,0,0,0,.315.745c.447.778.914,1.544,1.373,2.315l-4.237.017a2.069,2.069,0,0,1-1.265-2.316c.089-1.584-.9-2.579-2.207-3.339a1.382,1.382,0,0,1-.671-.91c-.023-1.048.1-2.1.172-3.149l3.163-.156.42.025" transform="translate(-206.613 -205.213)" fill="#cb7d50"/>
        <path id="Trazado_278557" data-name="Trazado 278557" d="M244.337,174.043a5.39,5.39,0,0,1-.811,1.387,1.384,1.384,0,0,0-.364,1.723c.526,1.563.925,3.169,1.375,4.757-1.01.019-2.021.012-3.029.067-.612.034-.765-.272-.969-.792-.925-2.358-1.929-4.685-2.9-7.024l.179-.163,6.523.045" transform="translate(-187.681 -137.421)" fill="#cb7d50"/>
        <path id="Trazado_278558" data-name="Trazado 278558" d="M203.428,149.21l-.008-3.311c2.449-.013,4.9-.048,7.348-.03a1.539,1.539,0,0,1,1.7,1.755c0,1.089-.508,1.618-1.691,1.624-2.449.013-4.9-.023-7.347-.039" transform="translate(-160.658 -115.202)" fill="#de955e"/>
        <path id="Trazado_278559" data-name="Trazado 278559" d="M154.547,77.742a5.063,5.063,0,0,0,1.211.4c2.523.173,5.049.295,7.573.449a3.129,3.129,0,0,1,.693.206v3.592a17.585,17.585,0,0,0-2.49-.493,6.926,6.926,0,0,1-3.1-1.407,14.737,14.737,0,0,0-3.384-1.452c-.951-.266-.839-.67-.507-1.3" transform="translate(-121.87 -61.4)" fill="#cb7d50"/>
        <path id="Trazado_278560" data-name="Trazado 278560" d="M330.421,15.4l-.008-3.294.856.006a4.068,4.068,0,0,0,3.348,0,6.812,6.812,0,0,1,1.647.1,1.547,1.547,0,0,1,1.077,1.976,1.526,1.526,0,0,1-1.583,1.253c-1.779,0-3.558-.023-5.338-.036" transform="translate(-260.956 -9.564)" fill="#bf7049"/>
        <path id="Trazado_278561" data-name="Trazado 278561" d="M260.241,224.66l.842,4.825c-1.076.015-2.154.064-3.228.02a.953.953,0,0,1-.73-.515c-.269-1.431-.453-2.879-.666-4.321l3.545-.027.235.019" transform="translate(-202.549 -177.418)" fill="#fed15b"/>
        <path id="Trazado_278562" data-name="Trazado 278562" d="M184.865,114.064A10.2,10.2,0,0,0,181,109.307c-.2-.133-.368-.3-.551-.454,3.382-.226,7.259,2.283,8.35,5.212Z" transform="translate(-142.518 -85.959)" fill="#fed15b"/>
        <path id="Trazado_278563" data-name="Trazado 278563" d="M281.332,306.722l4.237-.017.2.008.429,4.546-2.537-.007-1.487-.345c.1-1.471.153-2.934-.842-4.186" transform="translate(-222.192 -242.231)" fill="#bf7049"/>
        <path id="Trazado_278564" data-name="Trazado 278564" d="M92.462,327.11a3.686,3.686,0,0,1,1.071-.35q17.117-.027,34.234-.013l0,.36-35.3,0" transform="translate(-73.025 -258.06)" fill="#f6b27e"/>
        <path id="Trazado_278565" data-name="Trazado 278565" d="M376.864,315.833q-.206-1.647-.413-3.294c.52-.014,1.041-.056,1.56-.038a1.675,1.675,0,0,1,1.811,1.7,1.916,1.916,0,0,1-1.815,1.669c-.379.021-.761-.025-1.142-.041" transform="translate(-297.316 -246.805)" fill="#bf7049"/>
        <path id="Trazado_278566" data-name="Trazado 278566" d="M258.858,315.832l0-.36-.413-2.952c.417-.018.835-.053,1.252-.05,1.475.009,1.917.4,1.919,1.681,0,1.122-.682,1.743-1.93,1.74-.277,0-.554-.038-.831-.059" transform="translate(-204.118 -246.784)" fill="#de955e"/>
        <path id="Trazado_278567" data-name="Trazado 278567" d="M363.612,292l-.209-2.169c.7-.016,1.4-.065,2.1-.042,1.23.04,1.9.834,1.839,2.211Z" transform="translate(-287.011 -228.868)" fill="#cb7d50"/>
        <path id="Trazado_278568" data-name="Trazado 278568" d="M245.638,292.568l-.206-1.978a14.807,14.807,0,0,0,2.084-.056c1.206-.2,1.95.712,1.83,2.035Z" transform="translate(-193.839 -229.438)" fill="#eaa978"/>
        <path id="Trazado_278569" data-name="Trazado 278569" d="M149.792,97.082c-2.284-.267-4.593-.465-6.326-2.269a7.978,7.978,0,0,1,6.326,2.269" transform="translate(-113.307 -74.862)" fill="#fed15b"/>
        <path id="Trazado_278570" data-name="Trazado 278570" d="M18.289,327.02a3.452,3.452,0,0,1,.932-.281q4.268-.033,8.537,0a2.668,2.668,0,0,1,.861.339l-10.33-.059" transform="translate(-14.444 -258.04)" fill="#f6b27e"/>
        <path id="Trazado_278571" data-name="Trazado 278571" d="M260.006,223.477l-3.545.027c.063-.117.129-.338.19-.337,1.129.028,2.256.082,3.384.131a.664.664,0,0,1-.029.179" transform="translate(-202.549 -176.254)" fill="#0f0b08"/>
        <path id="Trazado_278572" data-name="Trazado 278572" d="M213.174,87.955c0,.829.027,1.66-.018,2.486a3.145,3.145,0,0,1-.32.871q0-1.783,0-3.566l.339.209" transform="translate(-168.094 -69.301)" fill="#feffff"/>
        <path id="Trazado_278573" data-name="Trazado 278573" d="M337.832,12.138a4.069,4.069,0,0,1-3.348,0h3.348" transform="translate(-264.171 -9.586)" fill="#cc7d50"/>
        <path id="Trazado_278574" data-name="Trazado 278574" d="M265.6,259.056l-3.163.156a3.375,3.375,0,0,1,1.048-.363,20.108,20.108,0,0,1,2.115.207" transform="translate(-207.268 -204.435)" fill="#0f0b08"/>
        <path id="Trazado_278575" data-name="Trazado 278575" d="M285.337,326.7l1.487.345c-.447.009-.9.031-1.341.011-.054,0-.1-.231-.146-.355" transform="translate(-225.355 -258.023)" fill="#cb7d50"/>
        <path id="Trazado_278576" data-name="Trazado 278576" d="M296.8,75.441l-.345-.343.345.343" transform="translate(-234.138 -59.311)" fill="#feffff"/>
        <path id="Trazado_278577" data-name="Trazado 278577" d="M213.152,75.1l-.343.343.343-.343" transform="translate(-168.074 -59.31)" fill="#feffff"/>
        <path id="Trazado_278578" data-name="Trazado 278578" d="M223.709,174.505l-.236-.316.236.316" transform="translate(-176.496 -137.572)" fill="#f4b887"/>
        <path id="Trazado_278579" data-name="Trazado 278579" d="M273.325,223.968a.665.665,0,0,0,.029-.179l.215.03c0,.056-.006.112-.009.167l-.235-.018" transform="translate(-215.868 -176.745)" fill="#cd9a71"/>
        <path id="Trazado_278580" data-name="Trazado 278580" d="M237.814,174l-.179.163.179-.163" transform="translate(-187.681 -137.42)" fill="#9a5e3c"/>
        <path id="Trazado_278581" data-name="Trazado 278581" d="M84.375,221.985q-6.513,0-13.026,0c-2.03,0-2.54-.5-2.541-2.48q0-2.836.008-5.672a1.671,1.671,0,0,1,1.715-1.887c.313-.031.63-.024.944-.024q13.026,0,26.052,0c1.891,0,2.658.76,2.661,2.629,0,1.646.006,3.292,0,4.937-.007,1.707-.788,2.5-2.472,2.5q-6.671.005-13.341,0m-13.089-7.363c-.011,1.413-.038,2.827-.014,4.239,0,.193.263.383.4.574q8.637.024,17.275.044c2.791,0,5.582-.029,8.373-.044l.182-.193q0-2.312,0-4.623l-.186-.171-25.211,0-.82.173" transform="translate(-54.344 -167.371)"/>
        <path id="Trazado_278582" data-name="Trazado 278582" d="M160.378,113.97c-.166-.865.4-1.139,1.119-1.163.769-.025,1.159.384,1.2,1.189a1.123,1.123,0,0,1-1.172,1.267,1.069,1.069,0,0,1-1.144-1.293" transform="translate(-126.641 -89.092)" fill="#010101"/>
        <path id="Trazado_278583" data-name="Trazado 278583" d="M115.686,115.07c-.866.117-1.178-.409-1.164-1.151a1.067,1.067,0,0,1,1.17-1.144,1.144,1.144,0,0,1,1.286,1.159,1.073,1.073,0,0,1-1.292,1.136" transform="translate(-90.448 -89.068)" fill="#010101"/>
        <path id="Trazado_278584" data-name="Trazado 278584" d="M139.74,102.851c.107.876-.46,1.118-1.127,1.134-.791.019-1.167-.464-1.191-1.242-.026-.823.416-1.063,1.175-1.068.854-.006,1.219.362,1.143,1.176" transform="translate(-108.533 -80.301)" fill="#010101"/>
        <path id="Trazado_278585" data-name="Trazado 278585" d="M108.058,228.936c-2.791.016-5.582.047-8.373.044q-8.638-.008-17.275-.044c0-1.241-.031-2.483.02-3.722a3.746,3.746,0,0,1,.4-1.084.576.576,0,0,0,.007-.18l25.211,0,.186.171q0,2.312,0,4.624l-.182.193" transform="translate(-65.079 -176.871)" fill="#f5f8f9"/>
        <path id="Trazado_278586" data-name="Trazado 278586" d="M81.317,224.787a3.738,3.738,0,0,0-.4,1.084c-.051,1.239-.02,2.481-.02,3.721-.141-.191-.4-.38-.4-.574-.024-1.413,0-2.826.015-4.239l.812.007" transform="translate(-63.562 -177.528)" fill="#feffff"/>
        <path id="Trazado_278587" data-name="Trazado 278587" d="M81.407,224.136l-.812-.007.82-.173a.577.577,0,0,1-.007.18" transform="translate(-63.653 -176.877)" fill="#cacccd"/>
        <path id="Trazado_278588" data-name="Trazado 278588" d="M204.61,224.119l-.186-.171.186.171" transform="translate(-161.451 -176.871)" fill="#cacccd"/>
        <path id="Trazado_278589" data-name="Trazado 278589" d="M204.455,246.95l.182-.193-.182.193" transform="translate(-161.476 -194.885)" fill="#feffff"/>
      </g>
    </g>
  </g>
</svg>
