<svg xmlns="http://www.w3.org/2000/svg" xmlns:xlink="http://www.w3.org/1999/xlink" width="85.162" height="95.463" viewBox="0 0 85.162 95.463">
  <defs>
    <clipPath id="clip-path">
      <rect id="Rectángulo_325030" data-name="Rectángulo 325030" width="85.162" height="95.463" fill="none"/>
    </clipPath>
  </defs>
  <g id="Grupo_261798" data-name="Grupo 261798" transform="translate(-180 -6247.824)">
    <g id="Grupo_261797" data-name="Grupo 261797">
      <g id="Grupo_260765" data-name="Grupo 260765" transform="translate(180 6247.824)">
        <g id="Grupo_260764" data-name="Grupo 260764" clip-path="url(#clip-path)">
          <path id="Trazado_278590" data-name="Trazado 278590" d="M18.472,263.879c-.12,1.373-.221,2.678-.35,3.981a1.763,1.763,0,0,1-1.888,1.662c-4.676.049-9.353.03-14.029-.012a1.991,1.991,0,0,1-1.982-1.638,6.611,6.611,0,0,1-.185-1.624C.028,254.693.063,243.138,0,231.582c-.012-2.119.809-3.172,3.132-3.163,4.127.016,8.254-.035,12.379.02,2.29.03,2.721.87,2.836,2.769a13.86,13.86,0,0,1-.012,2.473c-.1.864.311,1.151,1.033,1.366,3.466,1.029,6.912,2.128,10.385,3.129a24.206,24.206,0,0,0,7.342,1.046c5.027-.119,10.066-.186,15.088.03,3.309.142,5.774,1.308,6.886,4.906a21.442,21.442,0,0,1,.474,2.768c4.826-2.365,9.508-4.656,14.188-6.953,2.945-1.446,5.81-1.734,8.679.287,3.118,2.2,3.785,7.447.969,10.049a56.815,56.815,0,0,1-6.353,4.747q-8.113,5.614-16.3,11.124a19.568,19.568,0,0,1-9.535,3.564c-3.076.216-6.168.216-9.254.262-2.554.038-5.109-.015-7.663.006a22.576,22.576,0,0,1-13.816-4.845q-.789-.581-1.6-1.133a1.814,1.814,0,0,0-.39-.153m.134-24.254-.184.209c-.008,5.7-.033,11.4.008,17.1a2.039,2.039,0,0,0,.732,1.29c1.172,1.017,2.408,1.962,3.637,2.911A18.292,18.292,0,0,0,34.58,265.4c4.518-.083,9.04-.091,13.557.022a13.628,13.628,0,0,0,7.11-1.576c3.206-1.8,6.285-3.83,9.344-5.872,5.022-3.353,9.988-6.791,14.971-10.2a2.279,2.279,0,0,0,.31-3.628c-.992-.987-1.939-1.078-3.6-.26-5.94,2.92-11.861,5.879-17.817,8.764a14.467,14.467,0,0,1-3.39,1.076c-2.185.447-4.388.837-6.6,1.116a35.809,35.809,0,0,1-5.011.275c-1.5-.022-3-.3-4.506-.416a3.035,3.035,0,0,1-2.412-1.889c-.271-1.222.532-2.864,1.963-2.643a34.312,34.312,0,0,0,3.492.264,47.976,47.976,0,0,0,12.137-1.2c.191-.039.488-.262.492-.408a21.064,21.064,0,0,0-.041-3.636c-.06-.421-.749-.9-1.248-1.074a6.678,6.678,0,0,0-2.165-.288c-4.4-.024-8.8-.083-13.2.012a30.432,30.432,0,0,1-9.281-1.175c-3.365-.986-6.716-2.023-10.072-3.037M4.75,232.992v31.951h9.022V233.076a5.505,5.505,0,0,0-.637-.081c-2.747,0-5.494,0-8.385,0" transform="translate(0 -174.556)" fill="#231f20"/>
          <path id="Trazado_278591" data-name="Trazado 278591" d="M195.659,169.838a10.839,10.839,0,1,1-21.667-.443,10.708,10.708,0,0,1,10.9-10.528,10.6,10.6,0,0,1,10.763,10.97m-10.8-6.281c-3.5-.3-6.222,3.115-6.245,6.259-.021,2.872,2.8,6.373,6.335,6.275a6.5,6.5,0,0,0,6.229-6.254,6.129,6.129,0,0,0-6.319-6.28" transform="translate(-132.964 -121.408)" fill="#242021"/>
          <path id="Trazado_278592" data-name="Trazado 278592" d="M194.694,10.9c.328,5.979-5.165,11.152-11.247,10.94A10.857,10.857,0,0,1,173.032,10.7,10.589,10.589,0,0,1,183.534,0c6.37-.113,11.223,4.433,11.16,10.9M177.7,10.81c-.347,3.236,3.03,6.391,5.921,6.371a6.4,6.4,0,0,0,6.581-6.12,6.141,6.141,0,0,0-5.989-6.4A6.043,6.043,0,0,0,177.7,10.81" transform="translate(-132.23 0)" fill="#242021"/>
          <path id="Trazado_278593" data-name="Trazado 278593" d="M104.863,79.619A10.472,10.472,0,0,1,115.9,90.259c-.061,6.313-4.789,11.18-11.617,10.991-5.632-.156-10.127-4.939-10.213-11.014-.075-5.287,4.376-11.023,10.795-10.617M105,84.108c-3.18-.425-6.587,3.153-6.3,6.55.243,2.84,2.83,6.128,6.487,5.981a6.413,6.413,0,0,0,6.072-6.727,6.168,6.168,0,0,0-6.263-5.8" transform="translate(-71.887 -60.825)" fill="#242020"/>
          <path id="Trazado_278594" data-name="Trazado 278594" d="M78.262,275.965c3.357,1.015,6.707,2.052,10.072,3.037a30.433,30.433,0,0,0,9.281,1.175c4.4-.094,8.8-.035,13.2-.012a6.682,6.682,0,0,1,2.165.288c.5.177,1.188.653,1.248,1.074a21.065,21.065,0,0,1,.041,3.636c0,.145-.3.369-.492.408a47.978,47.978,0,0,1-12.138,1.2,34.328,34.328,0,0,1-3.492-.264c-1.43-.222-2.233,1.421-1.963,2.643a3.035,3.035,0,0,0,2.412,1.889c1.5.117,3,.394,4.506.416a35.817,35.817,0,0,0,5.011-.275c2.212-.28,4.414-.669,6.6-1.116a14.464,14.464,0,0,0,3.39-1.076c5.957-2.885,11.877-5.845,17.817-8.764,1.665-.818,2.611-.727,3.6.26a2.279,2.279,0,0,1-.31,3.628c-4.983,3.411-9.949,6.849-14.971,10.2-3.06,2.043-6.138,4.077-9.344,5.872a13.629,13.629,0,0,1-7.11,1.577c-4.517-.113-9.039-.105-13.557-.022a18.291,18.291,0,0,1-11.782-4.267c-1.229-.95-2.465-1.895-3.637-2.911a2.039,2.039,0,0,1-.731-1.29c-.041-5.7-.016-11.4-.008-17.1l.184-.209" transform="translate(-59.657 -210.895)" fill="#ffc798"/>
          <path id="Trazado_278595" data-name="Trazado 278595" d="M20.145,247.833c2.891,0,5.638,0,8.385,0a5.509,5.509,0,0,1,.637.081v31.867H20.145Z" transform="translate(-15.395 -189.397)" fill="#127481"/>
          <path id="Trazado_278596" data-name="Trazado 278596" d="M78.311,275.965l-.184.209.184-.209" transform="translate(-59.706 -210.895)" fill="#c59c79"/>
          <path id="Trazado_278597" data-name="Trazado 278597" d="M199.832,178.694a6.129,6.129,0,0,1,6.319,6.28,6.5,6.5,0,0,1-6.229,6.254c-3.539.1-6.356-3.4-6.335-6.275.023-3.144,2.743-6.563,6.245-6.259" transform="translate(-147.941 -136.545)" fill="#f4a026"/>
          <path id="Trazado_278598" data-name="Trazado 278598" d="M192.779,25.9a6.043,6.043,0,0,1,6.513-6.153,6.141,6.141,0,0,1,5.989,6.4,6.4,6.4,0,0,1-6.581,6.12c-2.891.02-6.268-3.135-5.921-6.371" transform="translate(-147.305 -15.091)" fill="#f3a026"/>
          <path id="Trazado_278599" data-name="Trazado 278599" d="M119.961,98.633a6.168,6.168,0,0,1,6.263,5.8,6.413,6.413,0,0,1-6.072,6.727c-3.658.147-6.244-3.141-6.487-5.981-.291-3.4,3.117-6.975,6.3-6.55" transform="translate(-86.85 -75.35)" fill="#f3a026"/>
        </g>
      </g>
    </g>
  </g>
</svg>
