<svg xmlns="http://www.w3.org/2000/svg" xmlns:xlink="http://www.w3.org/1999/xlink" width="201.483" height="218.97" viewBox="0 0 201.483 218.97">
  <defs>
    <clipPath id="clip-path">
      <rect id="Rectángulo_325113" data-name="Rectángulo 325113" width="201.483" height="218.796" transform="translate(65.134 114.913)" fill="none"/>
    </clipPath>
    <clipPath id="clip-path-2">
      <rect id="Rectángulo_325114" data-name="Rectángulo 325114" width="24.913" height="32.898" transform="translate(222.121 300.983)" fill="none"/>
    </clipPath>
    <clipPath id="clip-path-3">
      <rect id="Rectángulo_325115" data-name="Rectángulo 325115" width="7.972" height="25.287" transform="translate(192.848 294.558)" fill="none"/>
    </clipPath>
  </defs>
  <g id="Grupo_261805" data-name="Grupo 261805" transform="translate(-285.134 -11640.934)">
    <g id="Grupo_260939" data-name="Grupo 260939" transform="translate(0 201.021)">
      <g id="Grupo_260915" data-name="Grupo 260915" transform="translate(220 11325)" opacity="0.8" style="isolation: isolate">
        <g id="Grupo_260914" data-name="Grupo 260914">
          <g id="Grupo_260913" data-name="Grupo 260913" clip-path="url(#clip-path)">
            <path id="Trazado_278687" data-name="Trazado 278687" d="M67.172,181.781c-6.041,15.833,1.977,34.063,15.816,45.162,4.275,3.429,9.272,6.575,11.363,11.392,4.114,9.483-4.8,19.008-11.317,27.31-10.676,13.6-16.037,31.964-8.541,47.209s30.754,23.847,45.646,14.035c10.782-7.1,15.489-21.639,28.377-24.714,8.336-1.989,16.89,1.778,24.511,5.432l41.717,20c9.187,4.4,20.481,8.812,29.429,4.017,6.511-3.49,9.239-10.741,10.4-17.519a66.751,66.751,0,0,0-1.433-28.88c-3.7-13.472-11.682-26.8-8.768-40.432,2.213-10.352,10.34-18.685,16.17-27.809s9.166-21.387,2.026-29.71c-6.352-7.4-18.045-8.427-27.288-12.643-23.127-10.55-28.4-39.551-49.407-53.276-22.625-14.787-59.887-2.709-67.051,21.735-6.8,23.218-2.521,15.055-24.319,18.6-12.1,1.968-23.216,9.3-27.329,20.087" fill="#dbf9bd"/>
          </g>
        </g>
      </g>
      <path id="Trazado_278688" data-name="Trazado 278688" d="M174.06,148.831a4.467,4.467,0,0,1,1.7,4.164,17.06,17.06,0,0,0,.127,1.923q-.025,18.111-.05,36.222l-17.306-.011-.022-.022c0-3.779.015-7.558,0-11.337q-.03-12.5-.08-25.008c.061-2.093-.553-4.361,1.532-5.931Z" transform="translate(220 11325)" fill="#fea73e"/>
      <path id="Trazado_278689" data-name="Trazado 278689" d="M186.005,272.564c-.71,1.147-2.131,1.579-2.792,2.776-1.383.479-2.39,1.562-3.648,2.253-7.559,4.154-15.266,4.767-23.233,1.194-2.305-1.034-4.235-2.656-6.459-3.8-1.7-2.129-3.968-3.636-5.912-5.495-6.894-6.6-13.37-13.471-15.989-23.044-.863-3.155-.437-6.3-.176-9.455q.035-8.426.07-16.851c.54-.026,1.08-.074,1.62-.074q33.93-.006,67.862,0c.54,0,1.08.047,1.62.072.009,1.925.024,3.851.027,5.777.008,4.333-.349,8.705.115,12.988a29.141,29.141,0,0,1-1.437,12,61.643,61.643,0,0,1-11.1,20.03,2.031,2.031,0,0,0-.567,1.629M166.592,261.25c5.825.377,10.926-4.04,12.366-9.13a2.547,2.547,0,0,0-1.342-3.188,2.482,2.482,0,0,0-3.369.69,6.43,6.43,0,0,0-.856,1.768,7.257,7.257,0,0,1-11.128,3.057,8.171,8.171,0,0,1-2.691-3.94,2.716,2.716,0,0,0-3.444-1.8c-1.476.491-2.078,1.739-1.658,3.436a12.268,12.268,0,0,0,12.122,9.1" transform="translate(220 11325)" fill="#fed8bf"/>
      <path id="Trazado_278690" data-name="Trazado 278690" d="M198.969,220.141c-.541-.025-1.08-.072-1.621-.072q-33.932-.006-67.862,0c-.539,0-1.079.048-1.62.074q-4.174-.048-8.348-.093c-5.336-.8-8.706-4.575-8.812-9.89-.03-1.5-.038-3,0-4.5.055-2.049.952-2.952,2.985-2.981,2.517-.036,5.035-.015,7.553-.019l37.282.013,17.321-.015,28.946.009,7.209.006.431-.015.679.064a3.6,3.6,0,0,1,1.808,3.636c-.1,1.2.028,2.407-.028,3.607a10.218,10.218,0,0,1-2.929,7.121c-1.37,1.369-3.067,2.032-4.653,2.957l-1.47.086-6.872.008" transform="translate(220 11325)" fill="#fec63b"/>
      <path id="Trazado_278691" data-name="Trazado 278691" d="M132.818,296.318l17.671-3.92c.01.3.021.6.03.9a16.154,16.154,0,1,0,32.294-.894l10.05,2.151q0,12.585,0,25.171c-.781.02-1.561.057-2.341.057q-28.837.009-57.676.011-.015-11.739-.029-23.479" transform="translate(220 11325)" fill="#632059"/>
      <path id="Trazado_278692" data-name="Trazado 278692" d="M158.433,154.762q.041,12.5.08,25.008c.009,3.779,0,7.558-.005,11.337l-37.153.02c.258-13.655,6.357-24.006,17.86-31.177a33.347,33.347,0,0,1,17.609-5.045c.536-.005,1.073-.093,1.609-.143" transform="translate(220 11325)" fill="#fec63b"/>
      <path id="Trazado_278693" data-name="Trazado 278693" d="M132.847,319.8q28.838,0,57.676-.011c.78,0,1.56-.038,2.34-.057l-.015.115q.009,6.99.019,13.98c-6.744.02-13.489.055-20.233.057q-19.875.006-39.75-.015-.028-7.025-.058-14.048Z" transform="translate(220 11325)" fill="#668ea2"/>
      <path id="Trazado_278694" data-name="Trazado 278694" d="M175.835,191.14l.051-36.222c1.8.1,3.64-.221,5.4.4.138.11.262.284.417.321,6.28,1.5,10.938,5.4,14.793,10.306,5.786,7.36,8.053,15.952,8.29,25.177h0l-28.941.021Z" transform="translate(220 11325)" fill="#fec63b"/>
      <path id="Trazado_278695" data-name="Trazado 278695" d="M114.326,333.82c-7.94.021-15.879.064-23.819.049-2.267,0-3.519-1.306-3.718-3.78-1.217-15.161,6.875-25.77,20.722-28.325,2.3-.424,4.579-.951,6.868-1.431q.011,9.738.021,19.474-.036,7.006-.074,14.013" transform="translate(220 11325)" fill="#632059"/>
      <path id="Trazado_278696" data-name="Trazado 278696" d="M182.813,292.407a16.154,16.154,0,1,1-32.294.894c-.009-.3-.02-.6-.03-.9a17.756,17.756,0,0,0,1.933-6.968c.319.155.653.285.954.469a25.016,25.016,0,0,0,19.849,3.051c2.715-.679,5.064-2.169,7.63-3.168a20.486,20.486,0,0,0,1.958,6.625" transform="translate(220 11325)" fill="#fed8bf"/>
      <path id="Trazado_278697" data-name="Trazado 278697" d="M221.942,300.954a.107.107,0,0,1,.179.029c.449.285.88.6,1.349.851a26.892,26.892,0,0,1,12.727,14.7c1.639,4.194,1.458,8.556,1.521,12.928a4.486,4.486,0,0,1-2.205,4.363l-16.237.016q-.041-7.027-.079-14.057.024-9.725.05-19.449l1.828.374a.922.922,0,0,0,.867.241" transform="translate(220 11325)" fill="#632059"/>
      <path id="Trazado_278698" data-name="Trazado 278698" d="M121.355,191.127l37.152-.02.022.022q0,5.773,0,11.548l-37.282-.014.111-11.536" transform="translate(220 11325)" fill="#fea73e"/>
      <path id="Trazado_278699" data-name="Trazado 278699" d="M114.4,319.807q-.011-9.736-.022-19.474c6.116-1.479,12.241-2.917,18.44-4.015q.015,11.739.029,23.479l-.021.021-18.426-.011" transform="translate(220 11325)" fill="#668ea2"/>
      <path id="Trazado_278700" data-name="Trazado 278700" d="M198.969,220.141l6.872-.009q.014,8.435.022,16.87c.177,3.944.483,7.857-.907,11.726a42.538,42.538,0,0,1-7.679,12.732,74.01,74.01,0,0,1-11.272,11.1,2.033,2.033,0,0,1,.567-1.628,61.633,61.633,0,0,0,11.1-20.03,29.156,29.156,0,0,0,1.438-12c-.465-4.283-.108-8.655-.116-12.988,0-1.926-.016-3.851-.026-5.777" transform="translate(220 11325)" fill="#febca1"/>
      <g id="Grupo_260918" data-name="Grupo 260918" transform="translate(220 11325)" opacity="0.71" style="isolation: isolate">
        <g id="Grupo_260917" data-name="Grupo 260917">
          <g id="Grupo_260916" data-name="Grupo 260916" clip-path="url(#clip-path-2)">
            <path id="Trazado_278701" data-name="Trazado 278701" d="M235.514,333.828a4.49,4.49,0,0,0,2.2-4.363c-.063-4.371.117-8.733-1.522-12.927a26.9,26.9,0,0,0-12.726-14.7c-.469-.246-.9-.566-1.349-.851,10.24,1.247,18.651,5.233,22.988,15.333,1.949,4.541,2.082,9.332,1.827,14.141-.117,2.211-1.635,3.416-3.857,3.423-2.522.008-5.044-.032-7.566-.051" fill="#632059"/>
          </g>
        </g>
      </g>
      <path id="Trazado_278702" data-name="Trazado 278702" d="M180.855,285.782c-2.566,1-4.915,2.489-7.63,3.168a25.013,25.013,0,0,1-19.849-3.052c-.3-.183-.635-.313-.954-.468.191-3.735-1.373-7.041-2.549-10.442,2.224,1.143,4.155,2.765,6.459,3.8,7.967,3.574,15.675,2.961,23.234-1.193,1.257-.691,2.264-1.775,3.648-2.254-1.057,3.42-2.534,6.745-2.359,10.443" transform="translate(220 11325)" fill="#febca1"/>
      <path id="Trazado_278703" data-name="Trazado 278703" d="M114.4,319.807l18.426.011q.028,7.025.058,14.048l-18.558-.046q.036-7.007.074-14.013" transform="translate(220 11325)" fill="#d3eefe"/>
      <path id="Trazado_278704" data-name="Trazado 278704" d="M200.795,296.329a117.5,117.5,0,0,1,11.59,2.492c-1.236-.071-1.1.8-1.094,1.587q.014,9.665.021,19.331l-10.507.07q0-11.74-.01-23.48" transform="translate(220 11325)" fill="#668ea2"/>
      <path id="Trazado_278705" data-name="Trazado 278705" d="M204.791,191.126c-.237-9.225-2.5-17.817-8.29-25.177-3.855-4.9-8.513-8.805-14.792-10.306-.156-.037-.279-.211-.418-.321a33.3,33.3,0,0,1,17.543,7.695,35.934,35.934,0,0,1,13.054,22.929,18.326,18.326,0,0,1,.367,5.2l-7.464-.015" transform="translate(220 11325)" fill="#fea740"/>
      <g id="Grupo_260921" data-name="Grupo 260921" transform="translate(220 11325)" opacity="0.71" style="isolation: isolate">
        <g id="Grupo_260920" data-name="Grupo 260920">
          <g id="Grupo_260919" data-name="Grupo 260919" clip-path="url(#clip-path-3)">
            <path id="Trazado_278706" data-name="Trazado 278706" d="M200.795,296.329q0,11.74.01,23.48l.015-.031-7.972.067.016-.115q0-12.587,0-25.172a58.463,58.463,0,0,1,7.932,1.771" fill="#632059"/>
          </g>
        </g>
      </g>
      <path id="Trazado_278707" data-name="Trazado 278707" d="M211.312,319.738q-.009-9.666-.021-19.331c0-.788-.141-1.658,1.094-1.587a38.637,38.637,0,0,1,6.862,1.519q-.024,9.725-.05,19.449l-7.926.03Z" transform="translate(220 11325)" fill="#4c7889"/>
      <path id="Trazado_278708" data-name="Trazado 278708" d="M200.8,319.809l10.507-.07-.041.079q.021,7.019.043,14.036H200.753q.033-7.038.067-14.075Z" transform="translate(220 11325)" fill="#d3eefe"/>
      <path id="Trazado_278709" data-name="Trazado 278709" d="M207.312,220.047a20.75,20.75,0,0,0,4.652-2.957,10.21,10.21,0,0,0,2.928-7.121c.058-1.2-.066-2.412.029-3.607a3.6,3.6,0,0,0-1.808-3.636c2.34-.02,4.68-.075,7.019-.05a2.675,2.675,0,0,1,2.99,2.86,29.386,29.386,0,0,1-.247,6.635,9.931,9.931,0,0,1-8.681,7.89c-2.294-.087-4.59.848-6.882-.014" transform="translate(220 11325)" fill="#fea740"/>
      <path id="Trazado_278710" data-name="Trazado 278710" d="M119.518,220.05l8.348.092q-.034,8.427-.069,16.852c-6.582-.778-9.731-8.052-8.868-13.587.175-1.122.392-2.238.589-3.357" transform="translate(220 11325)" fill="#feab8a"/>
      <path id="Trazado_278711" data-name="Trazado 278711" d="M207.312,220.047c2.292.862,4.588-.073,6.882.014a12.127,12.127,0,0,0,.567,3.353c.882,4.911-1.816,10.68-5.972,12.722a12.33,12.33,0,0,1-2.926.866q-.011-8.436-.021-16.871c.49-.027.98-.056,1.47-.084" transform="translate(220 11325)" fill="#feab8a"/>
      <path id="Trazado_278712" data-name="Trazado 278712" d="M200.82,319.777q-.033,7.038-.067,14.075l-7.886-.027q-.009-6.992-.019-13.981,3.985-.031,7.972-.067" transform="translate(220 11325)" fill="#4c7889"/>
      <path id="Trazado_278713" data-name="Trazado 278713" d="M211.314,333.854q-.021-7.019-.043-14.036l7.926-.03q.04,7.029.08,14.057l-7.963.009" transform="translate(220 11325)" fill="#b7d4e2"/>
      <path id="Trazado_278714" data-name="Trazado 278714" d="M204.791,191.126l7.464.015.048.715c-.458.509-.276,1.133-.28,1.71-.02,3.037-.016,6.074-.02,9.11l-7.208,0q0-5.772-.005-11.544Z" transform="translate(220 11325)" fill="#fe8440"/>
      <path id="Trazado_278715" data-name="Trazado 278715" d="M212,202.676c0-3.037,0-6.073.02-9.11,0-.577-.178-1.2.28-1.71q.066,5.4.131,10.806l-.431.014" transform="translate(220 11325)" fill="#fea740"/>
      <path id="Trazado_278716" data-name="Trazado 278716" d="M221.942,300.954a.922.922,0,0,1-.867-.241.846.846,0,0,1,.867.241" transform="translate(220 11325)" fill="#4491fe"/>
      <path id="Trazado_278717" data-name="Trazado 278717" d="M158.526,202.676q0-5.773,0-11.548,8.653.007,17.306.011l.014.008q0,5.757,0,11.514-8.661.009-17.321.015" transform="translate(220 11325)" fill="#fe8440"/>
      <path id="Trazado_278718" data-name="Trazado 278718" d="M166.592,261.25a12.268,12.268,0,0,1-12.122-9.1c-.42-1.7.182-2.945,1.658-3.436a2.716,2.716,0,0,1,3.444,1.8,8.171,8.171,0,0,0,2.691,3.94,7.257,7.257,0,0,0,11.128-3.057,6.43,6.43,0,0,1,.856-1.768,2.482,2.482,0,0,1,3.369-.69,2.547,2.547,0,0,1,1.342,3.188c-1.44,5.09-6.541,9.507-12.366,9.13" transform="translate(220 11325)" fill="#feab8a"/>
      <path id="Trazado_278719" data-name="Trazado 278719" d="M175.847,202.661q0-5.757,0-11.514l28.941-.02q0,5.772.005,11.544l-28.948-.01" transform="translate(220 11325)" fill="#fea73e"/>
    </g>
  </g>
</svg>
