<svg xmlns="http://www.w3.org/2000/svg" xmlns:xlink="http://www.w3.org/1999/xlink" width="201.484" height="235.961" viewBox="0 0 201.484 235.961">
  <defs>
    <clipPath id="clip-path">
      <rect id="Rectángulo_325138" data-name="Rectángulo 325138" width="201.484" height="218.796" transform="translate(55.319 100.454)" fill="none"/>
    </clipPath>
  </defs>
  <g id="Grupo_261808" data-name="Grupo 261808" transform="translate(1986.681 -596.454)">
    <g id="Grupo_260965" data-name="Grupo 260965">
      <g id="Grupo_260964" data-name="Grupo 260964" transform="translate(-2042 496)" opacity="0.8" style="isolation: isolate">
        <g id="Grupo_260963" data-name="Grupo 260963">
          <g id="Grupo_260962" data-name="Grupo 260962" clip-path="url(#clip-path)">
            <path id="Trazado_278759" data-name="Trazado 278759" d="M57.357,167.322c-6.041,15.833,1.978,34.063,15.817,45.162,4.275,3.429,9.272,6.575,11.362,11.392,4.115,9.483-4.8,19.008-11.317,27.31-10.675,13.6-16.036,31.963-8.541,47.209s30.755,23.847,45.647,14.035c10.781-7.1,15.488-21.639,28.376-24.714,8.337-1.989,16.89,1.778,24.511,5.432l41.718,20c9.187,4.4,20.481,8.812,29.428,4.017,6.512-3.49,9.24-10.741,10.4-17.519a66.751,66.751,0,0,0-1.433-28.88c-3.7-13.472-11.682-26.8-8.768-40.432,2.213-10.352,10.34-18.685,16.17-27.809s9.166-21.387,2.026-29.71c-6.353-7.4-18.045-8.427-27.288-12.643-23.127-10.55-28.4-39.551-49.407-53.276-22.625-14.787-59.887-2.709-67.051,21.735-6.8,23.218-2.521,15.055-24.319,18.6-12.1,1.968-23.216,9.3-27.33,20.087" fill="#dbf9bd"/>
          </g>
        </g>
      </g>
      <path id="Trazado_278760" data-name="Trazado 278760" d="M237.092,243.429a9.414,9.414,0,0,1-2.794,7.431,7,7,0,0,0-2,5.211q-.022,24.507.007,49.016a7.129,7.129,0,0,0,1.936,5.234,9.414,9.414,0,0,1,2.86,7.418q-19.738,0-39.477.018c-.709,0-1.725-.394-2.062.289-.308.626.555,1.251.946,1.853,2.133,3.28,5.1,5.879,7.364,9.053-2.8,2.873-5.256,6.19-9.341,7.462h-2.988a12.617,12.617,0,0,1-4.484-2.459q-1.12-1.111-2.236-2.228c-2.96-2.957-2.973-2.97-5.853-.057-1.908,1.93-3.734,3.954-6.472,4.744h-3.361A14.163,14.163,0,0,1,166.2,334.9a67.434,67.434,0,0,1-5.236-5.007c-.923-.976-1.477-.873-2.362.037-2.157,2.218-4.424,4.331-6.646,6.486h-1.868a5.5,5.5,0,0,1-1.5-4.371c.079-4.759,0-9.52-.015-14.281l.1-.086c.31.022.619.062.929.062q22.087.006,44.175,0c.282,0,.623.112.922-.4a86.476,86.476,0,0,1-4.864-9.042,90.327,90.327,0,0,1-3.539-9.967,11.367,11.367,0,0,0-2.218-11.569c-.005-1.915-.076-3.834.007-5.745.078-1.826-.372-3.685.3-5.477a20.1,20.1,0,0,0,4.711,1.622,6.764,6.764,0,0,0,7.114-2.009c2.2-2.311,2.418-4.916,1.386-7.917-1.7-4.941-3.01-10.056-8.3-12.6a46.758,46.758,0,0,1,4.787-9.618c.469-.759,1.21-1.625-.7-1.617-14.9.063-29.81.056-44.714.07-.024-4.932.005-9.866-.1-14.8a4.016,4.016,0,0,1,1.887-3.9,3.414,3.414,0,0,1,2.951,1.249c1.687,1.728,3.484,3.356,5.092,5.153,1.032,1.152,1.7.992,2.633-.063,1.146-1.3,2.4-2.5,3.668-3.687a9.01,9.01,0,0,1,6.139-2.656,10.147,10.147,0,0,1,7.026,3.745c.938,1.072,2.042,2,3.005,3.048.663.725,1.147.7,1.812-.007q1.911-2.035,3.946-3.952c4.02-3.79,8.616-3.725,12.517.139q2.314,2.292,4.634,4.58c-.051.544-.455.858-.789,1.222-1.295,1.415-2.66,2.775-3.854,4.271-1.364,1.71-2.923,3.313-3.828,5.62Zm-14.94,44.3a10.009,10.009,0,0,0-.261-2.748,10.662,10.662,0,0,0-9.67-7.519,10.02,10.02,0,0,0-9.81,5.82A40.406,40.406,0,0,0,199.192,292a6.749,6.749,0,0,0,2.257,7.058,6.666,6.666,0,0,0,6.919,1.459c1.818-.617,3.653-1.187,5.456-1.845,5.556-2.026,8.607-5.615,8.328-10.937" transform="translate(-2042 496)" fill="#fbe2a0"/>
      <path id="Trazado_278761" data-name="Trazado 278761" d="M203.869,328.952c-2.263-3.174-5.231-5.773-7.364-9.052-.392-.6-1.255-1.228-.946-1.853.337-.684,1.353-.288,2.062-.289q19.738-.031,39.477-.018c0,5.2-.049,10.392.043,15.586a3.181,3.181,0,0,1-1.535,3.089h-1.868c-2.108-2.168-4.259-4.3-6.307-6.521-.9-.975-1.468-.9-2.36.018-2.436,2.5-4.671,5.283-8.137,6.5H213.2c-1-.707-2.18-1.063-3.2-1.805-2.271-1.661-3.879-4.006-6.135-5.658" transform="translate(-2042 496)" fill="#fef0d3"/>
      <path id="Trazado_278762" data-name="Trazado 278762" d="M82.508,299.075a9.664,9.664,0,0,1,2.973-7.564,6.576,6.576,0,0,0,1.811-4.717q.021-24.7,0-49.4a7,7,0,0,0-2.009-5.211,9.412,9.412,0,0,1-2.786-7.438l46.308.014a59.57,59.57,0,0,0-6.352,12.171c-1.137,2.937-2.429,5.839-2.632,9.053l-.381.091c-1.861,0-3.73-.119-5.582.012-4.031.285-6.06,1.926-6.632,5.278a28.081,28.081,0,0,0,1.429,14.821,29.688,29.688,0,0,0,11.564,14.185l.4.383.018-.076c.2,3.14,1.533,5.941,2.813,8.713,1.518,3.288,3.312,6.449,4.987,9.664l-45.93.019" transform="translate(-2042 496)" fill="#632059"/>
      <path id="Trazado_278763" data-name="Trazado 278763" d="M203.885,232.316q-2.317-2.289-4.634-4.58c-3.9-3.863-8.5-3.928-12.517-.138q-2.031,1.914-3.946,3.952c-.664.708-1.149.732-1.812.007-.962-1.052-2.067-1.977-3.005-3.049a10.145,10.145,0,0,0-7.026-3.745q.006-7.716.013-15.433a2.721,2.721,0,0,0-1.593-2.874,2.662,2.662,0,0,0-3.144.894c-1.785,1.809-3.628,3.562-5.373,5.407-.777.823-1.29.845-2.09.014-1.713-1.781-3.53-3.463-5.3-5.185l-.006-23.887a2.563,2.563,0,0,0,.034-.338,42.894,42.894,0,0,1,17.649,1.308A255.108,255.108,0,0,1,209.4,199.025q-.016,13.985-.032,27.968a29.294,29.294,0,0,1-5.485,5.323m-25.307-30.385a2.923,2.923,0,0,0,2.857-2.859,2.994,2.994,0,0,0-2.925-3.019,2.94,2.94,0,1,0,.068,5.878M156.062,195.5a2.907,2.907,0,0,0,2.725,3,2.927,2.927,0,0,0,.124-5.851,2.884,2.884,0,0,0-2.849,2.851m26.993,18.023a2.579,2.579,0,0,0-2.735,2.825,2.82,2.82,0,1,0,5.635-.167,2.581,2.581,0,0,0-2.9-2.658m16.729-6.525a2.761,2.761,0,0,0-2.815-2.784,2.873,2.873,0,0,0-2.817,3.032,2.646,2.646,0,0,0,2.955,2.608,2.566,2.566,0,0,0,2.677-2.856" transform="translate(-2042 496)" fill="#70dbb9"/>
      <path id="Trazado_278764" data-name="Trazado 278764" d="M209.4,199.024a255.11,255.11,0,0,0-38.272-14.356,42.911,42.911,0,0,0-17.649-1.309c-.495-7.836,1.623-14.576,8.157-19.465l.407-.042,28.76-.012a18.7,18.7,0,0,1,18.656,19.135c-.046,5.349-.041,10.7-.059,16.049" transform="translate(-2042 496)" fill="#b8effe"/>
      <path id="Trazado_278765" data-name="Trazado 278765" d="M161.637,163.894c-6.534,4.89-8.652,11.63-8.157,19.466a2.545,2.545,0,0,1-.033.338c-1.032.194-2.075.339-3.092.59-13.914,3.438-27.075,8.934-40.13,14.715.011-6.449-.564-12.925.277-19.34a18.2,18.2,0,0,1,17.524-15.8c.248-.008.495-.039.742-.059.8.02,1.608.057,2.412.058q15.228.022,30.457.035" transform="translate(-2042 496)" fill="#7ce2fe"/>
      <path id="Trazado_278766" data-name="Trazado 278766" d="M82.508,299.075l45.93-.018.684.1c.712,2.393,2.669,3.946,3.979,5.934,1.259,1.912,3.393,3.078,4.33,5.239-1.567,1.594-3.11,3.211-4.705,4.776a8.315,8.315,0,0,1-12.155.1q-2.166-2.049-4.211-4.222c-.627-.669-1.026-.622-1.628.019-1.276,1.357-2.611,2.66-3.947,3.96-3.9,3.791-8.717,3.785-12.557-.005-1.326-1.31-2.673-2.6-3.946-3.961-.62-.662-1.011-.625-1.634.005-1.966,1.986-4.008,3.9-5.991,5.865a2.38,2.38,0,0,1-4.224-1.763c.043-5.342.053-10.685.075-16.027" transform="translate(-2042 496)" fill="#b244a8"/>
      <path id="Trazado_278767" data-name="Trazado 278767" d="M128.806,224.761,82.5,224.747c-.018-3.728-.046-7.456-.048-11.183a4.11,4.11,0,0,1,2.5-4.021,4.3,4.3,0,0,1,5,.815c.279.246.531.522.8.785,2.73,2.708,2.728,2.707,5.519-.071,1.013-1.008,1.979-2.073,3.065-3,3.054-2.6,6.727-2.5,10.786.216,1.517,1.559,3.058,3.1,4.541,4.687.681.729,1.182.651,1.834-.034,1.33-1.4,2.71-2.745,4.088-4.094,3.612-3.534,8.367-3.571,11.966-.077,1.651,1.6,3.258,3.253,4.884,4.88-.965,1.752-2.579,2.964-3.768,4.536-1.6,2.112-3.522,3.989-4.519,6.515a1.7,1.7,0,0,0-.332.057" transform="translate(-2042 496)" fill="#b244a8"/>
      <path id="Trazado_278768" data-name="Trazado 278768" d="M137.425,213.654c-1.627-1.628-3.233-3.277-4.885-4.881-3.6-3.494-8.354-3.457-11.965.077-1.378,1.349-2.758,2.7-4.088,4.094-.652.685-1.153.763-1.834.034-1.483-1.591-3.024-3.128-4.541-4.687q.056-4.644.113-9.288c13.055-5.781,26.216-11.277,40.13-14.715,1.017-.251,2.061-.4,3.092-.59l.006,23.887c-4.7-2.313-7.656-1.794-11.4,1.848-1.5,1.452-2.72,3.214-4.625,4.221m2.549-14.761a3.56,3.56,0,0,0-2.97-2.872,3.478,3.478,0,0,0-2.951,3.071,3.353,3.353,0,0,0,3.13,2.846,3.561,3.561,0,0,0,2.791-3.045" transform="translate(-2042 496)" fill="#31cc9c"/>
      <path id="Trazado_278769" data-name="Trazado 278769" d="M161.637,163.894q-15.228-.017-30.457-.035c-.8,0-1.608-.038-2.412-.058.222-2.53-.246-5.078.369-7.607A14.044,14.044,0,0,1,143,145.2q15.111,0,30.224.008a3.02,3.02,0,0,1-.62.346,13.992,13.992,0,0,0-10.054,9.46c-.977,2.9-.325,5.891-.5,8.835l-.407.042" transform="translate(-2042 496)" fill="#d3d3fe"/>
      <path id="Trazado_278770" data-name="Trazado 278770" d="M203.885,232.316a29.321,29.321,0,0,0,5.484-5.323c2.82-2.083,5.88-2.963,9.182-1.366a20,20,0,0,1,5.137,4.21c2.576,2.57,2.574,2.572,5.1.051q2.041-2.04,4.083-4.079a2.363,2.363,0,0,1,2.818-.743A2.315,2.315,0,0,1,237.1,227.6q0,7.914-.009,15.826H195.414c.9-2.307,2.464-3.91,3.828-5.619,1.194-1.5,2.559-2.857,3.855-4.271.333-.365.737-.678.788-1.223" transform="translate(-2042 496)" fill="#fef0d3"/>
      <path id="Trazado_278771" data-name="Trazado 278771" d="M162.044,163.852c.179-2.944-.473-5.931.5-8.835a13.991,13.991,0,0,1,10.054-9.46,3.068,3.068,0,0,0,.62-.346c3.535-.086,7.018-.079,10.272,1.731,4.628,2.575,6.84,6.586,7.275,11.7.147,1.723.03,3.468.034,5.2l-28.759.011" transform="translate(-2042 496)" fill="#eeecfe"/>
      <path id="Trazado_278772" data-name="Trazado 278772" d="M137.431,310.325c-.937-2.161-3.071-3.327-4.33-5.239-1.31-1.988-3.266-3.541-3.979-5.935l24.317-.084c.006,2.424-.025,4.849.031,7.272a4.834,4.834,0,0,1-1.482,3.685,11.355,11.355,0,0,0-3.311,7.653l-.1.085a8.221,8.221,0,0,1-5.752-2.522c-1.767-1.668-3.13-3.792-5.394-4.915" transform="translate(-2042 496)" fill="#ad77aa"/>
      <path id="Trazado_278773" data-name="Trazado 278773" d="M148.677,317.677a11.353,11.353,0,0,1,3.311-7.653,4.835,4.835,0,0,0,1.482-3.685c-.056-2.423-.026-4.847-.031-7.271q.012-22.119.047-44.237a5.232,5.232,0,0,0-1.672-3.808,11.549,11.549,0,0,1-3.138-7.556c14.9-.015,29.809-.007,44.714-.071,1.906-.008,1.165.858.7,1.617a46.766,46.766,0,0,0-4.787,9.619q-.182.014-.363.03a11.432,11.432,0,0,0-6.407-.148,10.46,10.46,0,0,0-7.732,10.744,10.718,10.718,0,0,0,9.6,9.957c0,.105,0,.211-.009.316-.672,1.793-.221,3.652-.3,5.477-.083,1.912-.012,3.83-.008,5.745a29.086,29.086,0,0,0-11.683-5.1,7.043,7.043,0,0,0-8.7,7.836,37.353,37.353,0,0,0,3.492,9.785c3.27,6.532,12.267,7.145,16.785,2.379.965-1.018,1.459-2.29,2.328-3.332a90.534,90.534,0,0,0,3.539,9.967,86.375,86.375,0,0,0,4.864,9.042c-.3.518-.64.406-.922.406q-22.088.009-44.175,0c-.31,0-.619-.041-.929-.062" transform="translate(-2042 496)" fill="#fec501"/>
      <path id="Trazado_278774" data-name="Trazado 278774" d="M148.676,243.467a11.554,11.554,0,0,0,3.138,7.556,5.228,5.228,0,0,1,1.672,3.808q-.07,22.119-.047,44.237-12.159.041-24.317.084l-.684-.1c-1.675-3.216-3.468-6.377-4.987-9.665-1.28-2.771-2.61-5.573-2.813-8.712.676.309,1.36.6,2.025.928a28.75,28.75,0,0,0,18.518,2.4c1.779-.334,3.375-1.009,3.571-3.184a23.014,23.014,0,0,0,.221-12.118c-2.87-12.655-12.036-20.885-25.151-22.717.2-3.213,1.5-6.116,2.632-9.052a59.62,59.62,0,0,1,6.352-12.171,1.7,1.7,0,0,1,.332-.057l21.324.062a4.017,4.017,0,0,0-1.887,3.9c.107,4.931.077,9.865.1,14.8" transform="translate(-2042 496)" fill="#a350a3"/>
      <path id="Trazado_278775" data-name="Trazado 278775" d="M150.462,224.767l-21.324-.062c1-2.527,2.921-4.4,4.519-6.515,1.189-1.572,2.8-2.785,3.768-4.536,1.9-1.007,3.131-2.769,4.625-4.221,3.747-3.641,6.7-4.161,11.4-1.848,1.775,1.723,3.592,3.4,5.3,5.186.8.831,1.313.808,2.09-.014,1.745-1.846,3.588-3.6,5.373-5.407a2.662,2.662,0,0,1,3.144-.894,2.721,2.721,0,0,1,1.593,2.874q-.016,7.716-.013,15.433a9.005,9.005,0,0,0-6.138,2.656c-1.263,1.187-2.522,2.39-3.669,3.687-.932,1.055-1.6,1.216-2.633.063-1.608-1.8-3.4-3.424-5.092-5.153a3.411,3.411,0,0,0-2.951-1.249" transform="translate(-2042 496)" fill="#ad77aa"/>
      <path id="Trazado_278776" data-name="Trazado 278776" d="M222.152,287.731c.279,5.322-2.772,8.911-8.328,10.937-1.8.658-3.638,1.228-5.456,1.845a6.666,6.666,0,0,1-6.919-1.459A6.749,6.749,0,0,1,199.192,292a40.406,40.406,0,0,1,3.219-8.712,10.02,10.02,0,0,1,9.81-5.82,10.662,10.662,0,0,1,9.67,7.519,10.009,10.009,0,0,1,.261,2.748" transform="translate(-2042 496)" fill="#e7b4b0"/>
      <path id="Trazado_278777" data-name="Trazado 278777" d="M186.3,298.322c-.869,1.042-1.363,2.314-2.328,3.332-4.518,4.765-13.516,4.152-16.785-2.38a37.359,37.359,0,0,1-3.492-9.784,7.043,7.043,0,0,1,8.7-7.836,29.086,29.086,0,0,1,11.683,5.1,11.365,11.365,0,0,1,2.219,11.569" transform="translate(-2042 496)" fill="#d5948c"/>
      <path id="Trazado_278778" data-name="Trazado 278778" d="M188.937,254.662q.182-.017.363-.03c5.292,2.539,6.6,7.654,8.3,12.595,1.032,3,.81,5.606-1.387,7.918a6.762,6.762,0,0,1-7.114,2.008,20.082,20.082,0,0,1-4.711-1.622c0-.106.007-.211.009-.317a50.988,50.988,0,0,1,1.422-10.07c.713-3.605,2.223-6.947,3.116-10.482" transform="translate(-2042 496)" fill="#e7b4b0"/>
      <path id="Trazado_278779" data-name="Trazado 278779" d="M144.752,280.82c-.2,2.175-1.792,2.85-3.571,3.184a28.75,28.75,0,0,1-18.518-2.4c-.665-.329-1.349-.619-2.025-.928l-.018.075c-.008-.259-.185-.34-.4-.383a29.694,29.694,0,0,1-11.564-14.185,28.07,28.07,0,0,1-1.428-14.821c.571-3.352,2.6-4.993,6.631-5.278,1.852-.131,3.721-.016,5.582-.012.01,1.429-.051,2.862.041,4.286a21.367,21.367,0,0,0,5.791,13.942c4.226,4.383,8.552,8.672,12.915,12.918a11.586,11.586,0,0,0,6.564,3.6" transform="translate(-2042 496)" fill="#31cc9c"/>
      <path id="Trazado_278780" data-name="Trazado 278780" d="M144.752,280.82a11.586,11.586,0,0,1-6.564-3.6c-4.363-4.246-8.689-8.535-12.915-12.918a21.367,21.367,0,0,1-5.791-13.942c-.092-1.424-.031-2.857-.041-4.286l.381-.091c13.115,1.832,22.281,10.062,25.151,22.717a23.014,23.014,0,0,1-.221,12.118" transform="translate(-2042 496)" fill="#70dbb9"/>
      <path id="Trazado_278781" data-name="Trazado 278781" d="M120.22,280.372c.214.043.392.124.4.383l-.4-.383" transform="translate(-2042 496)" fill="#f1d3d2"/>
      <path id="Trazado_278782" data-name="Trazado 278782" d="M178.577,201.931a2.94,2.94,0,1,1-.068-5.879,3,3,0,0,1,2.926,3.019,2.923,2.923,0,0,1-2.858,2.86" transform="translate(-2042 496)" fill="#0eaf7c"/>
      <path id="Trazado_278783" data-name="Trazado 278783" d="M156.062,195.5a2.883,2.883,0,0,1,2.848-2.851,2.927,2.927,0,0,1-.123,5.851,2.906,2.906,0,0,1-2.725-3" transform="translate(-2042 496)" fill="#0eaf7c"/>
      <path id="Trazado_278784" data-name="Trazado 278784" d="M183.055,213.519a2.582,2.582,0,0,1,2.9,2.659,2.82,2.82,0,1,1-5.635.166,2.58,2.58,0,0,1,2.735-2.825" transform="translate(-2042 496)" fill="#0eaf7c"/>
      <path id="Trazado_278785" data-name="Trazado 278785" d="M199.784,206.995a2.566,2.566,0,0,1-2.677,2.856,2.646,2.646,0,0,1-2.955-2.608,2.873,2.873,0,0,1,2.817-3.032,2.761,2.761,0,0,1,2.815,2.784" transform="translate(-2042 496)" fill="#0eaf7c"/>
      <path id="Trazado_278786" data-name="Trazado 278786" d="M139.974,198.893a3.561,3.561,0,0,1-2.791,3.045,3.353,3.353,0,0,1-3.13-2.846A3.478,3.478,0,0,1,137,196.021a3.56,3.56,0,0,1,2.97,2.872" transform="translate(-2042 496)" fill="#0eaf7c"/>
      <path id="Trazado_278787" data-name="Trazado 278787" d="M188.937,254.662c-.893,3.535-2.4,6.877-3.116,10.482a50.988,50.988,0,0,0-1.422,10.07,10.716,10.716,0,0,1-9.6-9.956,10.458,10.458,0,0,1,7.731-10.744,11.426,11.426,0,0,1,6.408.148" transform="translate(-2042 496)" fill="#d5948c"/>
    </g>
  </g>
</svg>
