<svg xmlns="http://www.w3.org/2000/svg" xmlns:xlink="http://www.w3.org/1999/xlink" width="505" height="737" viewBox="0 0 505 737">
  <defs>
    <linearGradient id="linear-gradient" x1="0.5" x2="0.5" y2="1" gradientUnits="objectBoundingBox">
      <stop offset="0" stop-color="#f9fef5"/>
      <stop offset="1" stop-color="#e7f7f8"/>
    </linearGradient>
    <clipPath id="clip-path">
      <rect id="Rect치ngulo_325012" data-name="Rect치ngulo 325012" width="349.672" height="241" fill="none"/>
    </clipPath>
  </defs>
  <g id="Grupo_1071238" data-name="Grupo 1071238" transform="translate(1311 6143)">
    <g id="Grupo_1071184" data-name="Grupo 1071184" transform="translate(32 162)">
      <path id="Trazado_815299" data-name="Trazado 815299" d="M0,0H505V737H0Z" transform="translate(-1343 -6305)" fill="url(#linear-gradient)"/>
      <g id="Grupo_1071176" data-name="Grupo 1071176" transform="translate(-1362.9 -6260.187)" opacity="0.6" style="isolation: isolate">
        <g id="Grupo_260744" data-name="Grupo 260744" transform="translate(116.883 63.574)">
          <g id="Grupo_260743" data-name="Grupo 260743" clip-path="url(#clip-path)">
            <path id="Trazado_278536" data-name="Trazado 278536" d="M448.278,304.074H135.3c-9.9,0-17.922-9.373-17.922-20.936V85.01c0-11.563,8.023-20.936,17.922-20.936H448.278c9.9,0,17.922,9.373,17.922,20.936V283.138c0,11.563-8.023,20.936-17.922,20.936" transform="translate(-116.955 -63.574)" fill="#dbf9bd"/>
            <rect id="Rect치ngulo_325011" data-name="Rect치ngulo 325011" width="348.816" height="240" rx="20.936" transform="translate(0.428 0.5)" fill="none" stroke="#04294f" stroke-miterlimit="10" stroke-width="1" stroke-dasharray="6.994 6.994"/>
          </g>
        </g>
      </g>
      <path id="Trazado_815379" data-name="Trazado 815379" d="M8.367-2.637H3.744L2.865,0H.062L4.825-12.8H7.269L12.059,0h-2.8ZM4.456-4.772h3.2L6.047-9.562ZM15.768,0H13.219V-13.5h2.549ZM20.54,0H17.991V-9.51H20.54Zm-2.7-11.971a1.251,1.251,0,0,1,.382-.94,1.436,1.436,0,0,1,1.042-.369,1.44,1.44,0,0,1,1.037.369,1.244,1.244,0,0,1,.387.94,1.247,1.247,0,0,1-.391.949,1.443,1.443,0,0,1-1.033.369,1.443,1.443,0,0,1-1.033-.369A1.247,1.247,0,0,1,17.842-11.971ZM25.014-9.51l.079,1.063a3.342,3.342,0,0,1,2.733-1.239,2.536,2.536,0,0,1,2.522,1.45,3.265,3.265,0,0,1,2.856-1.45,2.836,2.836,0,0,1,2.3.9,4.141,4.141,0,0,1,.756,2.711V0H33.715V-6.064A1.811,1.811,0,0,0,33.4-7.247a1.4,1.4,0,0,0-1.116-.374A1.585,1.585,0,0,0,30.7-6.53L30.709,0h-2.54V-6.056a1.789,1.789,0,0,0-.325-1.2,1.416,1.416,0,0,0-1.107-.369,1.646,1.646,0,0,0-1.564.9V0h-2.54V-9.51ZM42.592.176a4.668,4.668,0,0,1-3.406-1.283,4.561,4.561,0,0,1-1.314-3.419v-.246a5.745,5.745,0,0,1,.554-2.562,4.064,4.064,0,0,1,1.569-1.74,4.4,4.4,0,0,1,2.316-.611,3.947,3.947,0,0,1,3.072,1.23A5,5,0,0,1,46.5-4.966v1.037H40.447a2.36,2.36,0,0,0,.743,1.494,2.245,2.245,0,0,0,1.569.563,2.742,2.742,0,0,0,2.294-1.063l1.248,1.4A3.813,3.813,0,0,1,44.754-.277,5.075,5.075,0,0,1,42.592.176ZM42.3-7.638a1.587,1.587,0,0,0-1.226.512,2.651,2.651,0,0,0-.6,1.466h3.533v-.2a1.891,1.891,0,0,0-.457-1.311A1.638,1.638,0,0,0,42.3-7.638Zm7.98-1.872.079,1.1a3.32,3.32,0,0,1,2.733-1.274,2.759,2.759,0,0,1,2.25.888A4.142,4.142,0,0,1,56.1-6.144V0h-2.54V-6.082a1.648,1.648,0,0,0-.352-1.173A1.574,1.574,0,0,0,52.04-7.62a1.747,1.747,0,0,0-1.608.914V0h-2.54V-9.51Zm10.784-2.338V-9.51h1.626v1.863H61.066V-2.9a1.133,1.133,0,0,0,.2.756,1.015,1.015,0,0,0,.773.229,4.051,4.051,0,0,0,.747-.062V-.053a5.229,5.229,0,0,1-1.538.229,2.425,2.425,0,0,1-2.725-2.7V-7.646H57.138V-9.51h1.389v-2.338Zm2.112,7a5.64,5.64,0,0,1,.545-2.522,3.989,3.989,0,0,1,1.569-1.714,4.577,4.577,0,0,1,2.377-.606,4.33,4.33,0,0,1,3.142,1.178,4.727,4.727,0,0,1,1.358,3.2l.018.65a4.97,4.97,0,0,1-1.222,3.511A4.247,4.247,0,0,1,67.687.176,4.268,4.268,0,0,1,64.4-1.143a5.058,5.058,0,0,1-1.226-3.586Zm2.54.18a3.555,3.555,0,0,0,.51,2.073,1.682,1.682,0,0,0,1.459.717,1.686,1.686,0,0,0,1.441-.709,3.89,3.89,0,0,0,.519-2.267,3.519,3.519,0,0,0-.519-2.06,1.686,1.686,0,0,0-1.459-.731,1.658,1.658,0,0,0-1.441.726A3.955,3.955,0,0,0,65.718-4.662ZM78.9-2.628a.818.818,0,0,0-.461-.734,5.241,5.241,0,0,0-1.481-.479q-3.393-.712-3.393-2.883a2.613,2.613,0,0,1,1.05-2.114,4.237,4.237,0,0,1,2.747-.848,4.56,4.56,0,0,1,2.9.853,2.687,2.687,0,0,1,1.085,2.215h-2.54a1.229,1.229,0,0,0-.352-.9,1.488,1.488,0,0,0-1.1-.356,1.52,1.52,0,0,0-.993.29.916.916,0,0,0-.352.738.783.783,0,0,0,.4.681,4.114,4.114,0,0,0,1.349.448,11.019,11.019,0,0,1,1.6.426,2.628,2.628,0,0,1,2.013,2.558,2.481,2.481,0,0,1-1.116,2.1,4.815,4.815,0,0,1-2.883.8A5.029,5.029,0,0,1,75.25-.25,3.561,3.561,0,0,1,73.8-1.419a2.716,2.716,0,0,1-.527-1.6h2.408a1.326,1.326,0,0,0,.5,1.037,1.987,1.987,0,0,0,1.248.36,1.839,1.839,0,0,0,1.1-.277A.861.861,0,0,0,78.9-2.628Z" transform="translate(-1335.341 -6222.408)" fill="#12263f"/>
      <path id="Trazado_815390" data-name="Trazado 815390" d="M9.325-11.883,4.025,0H2.32L7.6-11.461H.677V-12.8H9.325Zm1.96,14.432-.923-.633a4.241,4.241,0,0,0,.861-2.373V-1.925h1.591V-.65a4,4,0,0,1-.435,1.775A4.156,4.156,0,0,1,11.285,2.549Zm4.166-8.965L16.1-12.8h6.557v1.5H17.481L17.095-7.8a4.13,4.13,0,0,1,2.136-.554A3.531,3.531,0,0,1,22.008-7.2a4.53,4.53,0,0,1,1.028,3.125A4.372,4.372,0,0,1,21.968-.962,3.892,3.892,0,0,1,18.984.176a4.045,4.045,0,0,1-2.769-.94,3.754,3.754,0,0,1-1.222-2.6h1.538a2.582,2.582,0,0,0,.782,1.657,2.432,2.432,0,0,0,1.67.558,2.194,2.194,0,0,0,1.78-.773,3.233,3.233,0,0,0,.646-2.136,2.968,2.968,0,0,0-.7-2.061A2.377,2.377,0,0,0,18.853-6.9a2.681,2.681,0,0,0-1.67.466l-.431.352Zm17.385.958a7.436,7.436,0,0,1-.976,4.245A3.47,3.47,0,0,1,28.811.176a3.5,3.5,0,0,1-3.032-1.358,7.058,7.058,0,0,1-1.02-4.056V-7.409a7.271,7.271,0,0,1,.976-4.192,3.5,3.5,0,0,1,3.059-1.371,3.528,3.528,0,0,1,3.041,1.323,7.017,7.017,0,0,1,1,4.083ZM31.21-7.682a5.958,5.958,0,0,0-.58-3.01,2,2,0,0,0-1.837-.945,1.97,1.97,0,0,0-1.819.94A5.817,5.817,0,0,0,26.385-7.8v2.6a6.053,6.053,0,0,0,.6,3.063,1.993,1.993,0,0,0,1.824.989A1.966,1.966,0,0,0,30.6-2.083a5.834,5.834,0,0,0,.611-2.936Zm3.568-2.654a2.6,2.6,0,0,1,.734-1.9,2.528,2.528,0,0,1,1.885-.747,2.513,2.513,0,0,1,1.894.751,2.687,2.687,0,0,1,.725,1.947v.624a2.563,2.563,0,0,1-.734,1.894,2.53,2.53,0,0,1-1.868.734,2.586,2.586,0,0,1-1.89-.734,2.617,2.617,0,0,1-.747-1.956Zm1.213.673a1.663,1.663,0,0,0,.387,1.132,1.3,1.3,0,0,0,1.037.445,1.28,1.28,0,0,0,1.006-.432A1.717,1.717,0,0,0,38.8-9.7v-.643a1.7,1.7,0,0,0-.378-1.136,1.273,1.273,0,0,0-1.028-.449,1.273,1.273,0,0,0-1.028.449,1.759,1.759,0,0,0-.378,1.172ZM41.01-3.138a2.582,2.582,0,0,1,.734-1.894,2.536,2.536,0,0,1,1.885-.743,2.559,2.559,0,0,1,1.89.738,2.649,2.649,0,0,1,.738,1.96v.624a2.582,2.582,0,0,1-.734,1.894,2.525,2.525,0,0,1-1.876.743,2.586,2.586,0,0,1-1.89-.734A2.617,2.617,0,0,1,41.01-2.5Zm1.213.682a1.676,1.676,0,0,0,.387,1.141,1.3,1.3,0,0,0,1.037.445,1.27,1.27,0,0,0,1.011-.436,1.748,1.748,0,0,0,.378-1.185v-.652a1.671,1.671,0,0,0-.382-1.136,1.288,1.288,0,0,0-1.024-.44,1.3,1.3,0,0,0-1.015.436,1.7,1.7,0,0,0-.391,1.176ZM37.784-.967l-.923-.58,6.249-10,.923.58Z" transform="translate(-1226.017 -6130.926)" fill="#12263f"/>
      <path id="Trazado_815389" data-name="Trazado 815389" d="M3.428-7.189H4.649A2.685,2.685,0,0,0,6.46-7.8a2.026,2.026,0,0,0,.659-1.591,1.985,1.985,0,0,0-2.241-2.25,2.331,2.331,0,0,0-1.683.6,2.107,2.107,0,0,0-.628,1.6H.94a3.264,3.264,0,0,1,1.112-2.527,4.05,4.05,0,0,1,2.826-1.006,4,4,0,0,1,2.839.958A3.461,3.461,0,0,1,8.745-9.352,2.809,2.809,0,0,1,8.2-7.734,3.264,3.264,0,0,1,6.732-6.565a3.145,3.145,0,0,1,1.63,1.107,3.076,3.076,0,0,1,.576,1.89A3.491,3.491,0,0,1,7.813-.835,4.213,4.213,0,0,1,4.887.176,4.324,4.324,0,0,1,1.956-.8,3.236,3.236,0,0,1,.826-3.375H2.461A2.092,2.092,0,0,0,3.12-1.758a2.507,2.507,0,0,0,1.767.606,2.46,2.46,0,0,0,1.8-.615,2.371,2.371,0,0,0,.624-1.767,2.151,2.151,0,0,0-.686-1.714,2.987,2.987,0,0,0-1.978-.615H3.428Zm14.124-5.616v1.38h-.3A4.281,4.281,0,0,0,14.229-10.3a4.681,4.681,0,0,0-1.3,3.067,3.471,3.471,0,0,1,2.76-1.16,3.319,3.319,0,0,1,2.667,1.178,4.543,4.543,0,0,1,1,3.041,4.528,4.528,0,0,1-1.077,3.164A3.707,3.707,0,0,1,15.39.176,3.653,3.653,0,0,1,12.41-1.235a5.591,5.591,0,0,1-1.143-3.634v-.624a8.424,8.424,0,0,1,1.507-5.4,5.536,5.536,0,0,1,4.487-1.912ZM15.416-7.04a2.594,2.594,0,0,0-1.538.5A2.61,2.61,0,0,0,12.9-5.282v.6a4.2,4.2,0,0,0,.712,2.549,2.133,2.133,0,0,0,1.775.967,2.067,2.067,0,0,0,1.727-.809A3.355,3.355,0,0,0,17.745-4.1a3.356,3.356,0,0,0-.637-2.131A2.042,2.042,0,0,0,15.416-7.04Zm5.977,9.589-.923-.633a4.241,4.241,0,0,0,.861-2.373V-1.925h1.591V-.65a4,4,0,0,1-.435,1.775A4.156,4.156,0,0,1,21.393,2.549ZM32.572-9.457a2.972,2.972,0,0,1-.505,1.705A3.439,3.439,0,0,1,30.7-6.583a3.668,3.668,0,0,1,1.586,1.257,3.163,3.163,0,0,1,.584,1.872A3.344,3.344,0,0,1,31.75-.809,4.305,4.305,0,0,1,28.8.176a4.286,4.286,0,0,1-2.958-.989,3.36,3.36,0,0,1-1.112-2.641A3.257,3.257,0,0,1,25.3-5.326a3.528,3.528,0,0,1,1.569-1.266,3.354,3.354,0,0,1-1.345-1.169,3.014,3.014,0,0,1-.492-1.7,3.308,3.308,0,0,1,1.037-2.566,3.89,3.89,0,0,1,2.733-.949,3.894,3.894,0,0,1,2.729.949A3.3,3.3,0,0,1,32.572-9.457ZM31.245-3.489a2.359,2.359,0,0,0-.681-1.749,2.416,2.416,0,0,0-1.78-.677,2.373,2.373,0,0,0-1.762.668,2.385,2.385,0,0,0-.664,1.758A2.271,2.271,0,0,0,27-1.775a2.48,2.48,0,0,0,1.8.624,2.472,2.472,0,0,0,1.793-.628A2.266,2.266,0,0,0,31.245-3.489ZM28.8-11.637a2.1,2.1,0,0,0-1.551.593,2.179,2.179,0,0,0-.593,1.613,2.169,2.169,0,0,0,.584,1.578,2.074,2.074,0,0,0,1.56.6,2.074,2.074,0,0,0,1.56-.6,2.169,2.169,0,0,0,.584-1.578,2.17,2.17,0,0,0-.606-1.591A2.068,2.068,0,0,0,28.8-11.637ZM42.943-5.458a7.436,7.436,0,0,1-.976,4.245A3.47,3.47,0,0,1,38.918.176a3.5,3.5,0,0,1-3.032-1.358,7.058,7.058,0,0,1-1.02-4.056V-7.409a7.271,7.271,0,0,1,.976-4.192A3.5,3.5,0,0,1,38.9-12.973a3.528,3.528,0,0,1,3.041,1.323,7.017,7.017,0,0,1,1,4.083ZM41.317-7.682a5.958,5.958,0,0,0-.58-3.01,2,2,0,0,0-1.837-.945,1.97,1.97,0,0,0-1.819.94A5.817,5.817,0,0,0,36.492-7.8v2.6a6.053,6.053,0,0,0,.6,3.063,1.993,1.993,0,0,0,1.824.989,1.966,1.966,0,0,0,1.789-.932,5.834,5.834,0,0,0,.611-2.936Zm3.568-2.654a2.6,2.6,0,0,1,.734-1.9,2.528,2.528,0,0,1,1.885-.747,2.513,2.513,0,0,1,1.894.751,2.687,2.687,0,0,1,.725,1.947v.624a2.563,2.563,0,0,1-.734,1.894,2.53,2.53,0,0,1-1.868.734,2.586,2.586,0,0,1-1.89-.734,2.617,2.617,0,0,1-.747-1.956Zm1.213.673a1.663,1.663,0,0,0,.387,1.132,1.3,1.3,0,0,0,1.037.445,1.28,1.28,0,0,0,1.006-.432,1.717,1.717,0,0,0,.382-1.18v-.643a1.7,1.7,0,0,0-.378-1.136,1.273,1.273,0,0,0-1.028-.449,1.273,1.273,0,0,0-1.028.449,1.759,1.759,0,0,0-.378,1.172Zm5.019,6.525a2.582,2.582,0,0,1,.734-1.894,2.536,2.536,0,0,1,1.885-.743,2.559,2.559,0,0,1,1.89.738,2.649,2.649,0,0,1,.738,1.96v.624A2.582,2.582,0,0,1,55.63-.558a2.525,2.525,0,0,1-1.876.743,2.586,2.586,0,0,1-1.89-.734A2.617,2.617,0,0,1,51.117-2.5Zm1.213.682a1.676,1.676,0,0,0,.387,1.141,1.3,1.3,0,0,0,1.037.445,1.27,1.27,0,0,0,1.011-.436,1.748,1.748,0,0,0,.378-1.185v-.652a1.671,1.671,0,0,0-.382-1.136,1.288,1.288,0,0,0-1.024-.44,1.3,1.3,0,0,0-1.015.436,1.7,1.7,0,0,0-.391,1.176ZM47.892-.967l-.923-.58,6.249-10,.923.58Z" transform="translate(-1231.017 -6009.39)" fill="#12263f"/>
      <path id="Trazado_815392" data-name="Trazado 815392" d="M6.407,0H4.772V-10.837l-3.278,1.2v-1.477l4.658-1.749h.255ZM18.932-9.457a2.972,2.972,0,0,1-.505,1.705A3.439,3.439,0,0,1,17.06-6.583a3.668,3.668,0,0,1,1.586,1.257,3.163,3.163,0,0,1,.584,1.872A3.344,3.344,0,0,1,18.11-.809a4.305,4.305,0,0,1-2.949.984A4.286,4.286,0,0,1,12.2-.813a3.36,3.36,0,0,1-1.112-2.641,3.257,3.257,0,0,1,.567-1.872,3.528,3.528,0,0,1,1.569-1.266,3.354,3.354,0,0,1-1.345-1.169,3.014,3.014,0,0,1-.492-1.7,3.308,3.308,0,0,1,1.037-2.566,3.89,3.89,0,0,1,2.733-.949,3.894,3.894,0,0,1,2.729.949A3.3,3.3,0,0,1,18.932-9.457ZM17.6-3.489a2.359,2.359,0,0,0-.681-1.749,2.416,2.416,0,0,0-1.78-.677,2.373,2.373,0,0,0-1.762.668,2.385,2.385,0,0,0-.664,1.758,2.271,2.271,0,0,0,.646,1.714,2.48,2.48,0,0,0,1.8.624,2.472,2.472,0,0,0,1.793-.628A2.266,2.266,0,0,0,17.6-3.489Zm-2.443-8.147a2.1,2.1,0,0,0-1.551.593,2.179,2.179,0,0,0-.593,1.613A2.169,2.169,0,0,0,13.6-7.853a2.074,2.074,0,0,0,1.56.6,2.074,2.074,0,0,0,1.56-.6,2.169,2.169,0,0,0,.584-1.578,2.17,2.17,0,0,0-.606-1.591A2.068,2.068,0,0,0,15.161-11.637ZM21.393,2.549l-.923-.633a4.241,4.241,0,0,0,.861-2.373V-1.925h1.591V-.65a4,4,0,0,1-.435,1.775A4.156,4.156,0,0,1,21.393,2.549ZM32.572-9.457a2.972,2.972,0,0,1-.505,1.705A3.439,3.439,0,0,1,30.7-6.583a3.668,3.668,0,0,1,1.586,1.257,3.163,3.163,0,0,1,.584,1.872A3.344,3.344,0,0,1,31.75-.809,4.305,4.305,0,0,1,28.8.176a4.286,4.286,0,0,1-2.958-.989,3.36,3.36,0,0,1-1.112-2.641A3.257,3.257,0,0,1,25.3-5.326a3.528,3.528,0,0,1,1.569-1.266,3.354,3.354,0,0,1-1.345-1.169,3.014,3.014,0,0,1-.492-1.7,3.308,3.308,0,0,1,1.037-2.566,3.89,3.89,0,0,1,2.733-.949,3.894,3.894,0,0,1,2.729.949A3.3,3.3,0,0,1,32.572-9.457ZM31.245-3.489a2.359,2.359,0,0,0-.681-1.749,2.416,2.416,0,0,0-1.78-.677,2.373,2.373,0,0,0-1.762.668,2.385,2.385,0,0,0-.664,1.758A2.271,2.271,0,0,0,27-1.775a2.48,2.48,0,0,0,1.8.624,2.472,2.472,0,0,0,1.793-.628A2.266,2.266,0,0,0,31.245-3.489ZM28.8-11.637a2.1,2.1,0,0,0-1.551.593,2.179,2.179,0,0,0-.593,1.613,2.169,2.169,0,0,0,.584,1.578,2.074,2.074,0,0,0,1.56.6,2.074,2.074,0,0,0,1.56-.6,2.169,2.169,0,0,0,.584-1.578,2.17,2.17,0,0,0-.606-1.591A2.068,2.068,0,0,0,28.8-11.637Zm5.977,1.3a2.6,2.6,0,0,1,.734-1.9,2.528,2.528,0,0,1,1.885-.747,2.513,2.513,0,0,1,1.894.751,2.687,2.687,0,0,1,.725,1.947v.624a2.563,2.563,0,0,1-.734,1.894,2.53,2.53,0,0,1-1.868.734,2.586,2.586,0,0,1-1.89-.734,2.617,2.617,0,0,1-.747-1.956Zm1.213.673a1.663,1.663,0,0,0,.387,1.132,1.3,1.3,0,0,0,1.037.445,1.28,1.28,0,0,0,1.006-.432A1.717,1.717,0,0,0,38.8-9.7v-.643a1.7,1.7,0,0,0-.378-1.136,1.273,1.273,0,0,0-1.028-.449,1.273,1.273,0,0,0-1.028.449,1.759,1.759,0,0,0-.378,1.172ZM41.01-3.138a2.582,2.582,0,0,1,.734-1.894,2.536,2.536,0,0,1,1.885-.743,2.559,2.559,0,0,1,1.89.738,2.649,2.649,0,0,1,.738,1.96v.624a2.582,2.582,0,0,1-.734,1.894,2.525,2.525,0,0,1-1.876.743,2.586,2.586,0,0,1-1.89-.734A2.617,2.617,0,0,1,41.01-2.5Zm1.213.682a1.676,1.676,0,0,0,.387,1.141,1.3,1.3,0,0,0,1.037.445,1.27,1.27,0,0,0,1.011-.436,1.748,1.748,0,0,0,.378-1.185v-.652a1.671,1.671,0,0,0-.382-1.136,1.288,1.288,0,0,0-1.024-.44,1.3,1.3,0,0,0-1.015.436,1.7,1.7,0,0,0-.391,1.176ZM37.784-.967l-.923-.58,6.249-10,.923.58Z" transform="translate(-969.392 -6130.926)" fill="#12263f"/>
      <path id="Trazado_815391" data-name="Trazado 815391" d="M6.407,0H4.772V-10.837l-3.278,1.2v-1.477l4.658-1.749h.255ZM18.932-9.457a2.972,2.972,0,0,1-.505,1.705A3.439,3.439,0,0,1,17.06-6.583a3.668,3.668,0,0,1,1.586,1.257,3.163,3.163,0,0,1,.584,1.872A3.344,3.344,0,0,1,18.11-.809a4.305,4.305,0,0,1-2.949.984A4.286,4.286,0,0,1,12.2-.813a3.36,3.36,0,0,1-1.112-2.641,3.257,3.257,0,0,1,.567-1.872,3.528,3.528,0,0,1,1.569-1.266,3.354,3.354,0,0,1-1.345-1.169,3.014,3.014,0,0,1-.492-1.7,3.308,3.308,0,0,1,1.037-2.566,3.89,3.89,0,0,1,2.733-.949,3.894,3.894,0,0,1,2.729.949A3.3,3.3,0,0,1,18.932-9.457ZM17.6-3.489a2.359,2.359,0,0,0-.681-1.749,2.416,2.416,0,0,0-1.78-.677,2.373,2.373,0,0,0-1.762.668,2.385,2.385,0,0,0-.664,1.758,2.271,2.271,0,0,0,.646,1.714,2.48,2.48,0,0,0,1.8.624,2.472,2.472,0,0,0,1.793-.628A2.266,2.266,0,0,0,17.6-3.489Zm-2.443-8.147a2.1,2.1,0,0,0-1.551.593,2.179,2.179,0,0,0-.593,1.613A2.169,2.169,0,0,0,13.6-7.853a2.074,2.074,0,0,0,1.56.6,2.074,2.074,0,0,0,1.56-.6,2.169,2.169,0,0,0,.584-1.578,2.17,2.17,0,0,0-.606-1.591A2.068,2.068,0,0,0,15.161-11.637Zm5.977,1.3a2.6,2.6,0,0,1,.734-1.9,2.528,2.528,0,0,1,1.885-.747,2.513,2.513,0,0,1,1.894.751,2.687,2.687,0,0,1,.725,1.947v.624a2.563,2.563,0,0,1-.734,1.894,2.53,2.53,0,0,1-1.868.734,2.586,2.586,0,0,1-1.89-.734,2.617,2.617,0,0,1-.747-1.956Zm1.213.673a1.663,1.663,0,0,0,.387,1.132,1.3,1.3,0,0,0,1.037.445,1.28,1.28,0,0,0,1.006-.432,1.717,1.717,0,0,0,.382-1.18v-.643a1.7,1.7,0,0,0-.378-1.136,1.273,1.273,0,0,0-1.028-.449,1.273,1.273,0,0,0-1.028.449,1.759,1.759,0,0,0-.378,1.172Zm5.019,6.525A2.582,2.582,0,0,1,28.1-5.032a2.536,2.536,0,0,1,1.885-.743,2.559,2.559,0,0,1,1.89.738,2.649,2.649,0,0,1,.738,1.96v.624a2.582,2.582,0,0,1-.734,1.894,2.525,2.525,0,0,1-1.876.743,2.586,2.586,0,0,1-1.89-.734A2.617,2.617,0,0,1,27.369-2.5Zm1.213.682a1.676,1.676,0,0,0,.387,1.141,1.3,1.3,0,0,0,1.037.445,1.27,1.27,0,0,0,1.011-.436,1.748,1.748,0,0,0,.378-1.185v-.652a1.671,1.671,0,0,0-.382-1.136,1.288,1.288,0,0,0-1.024-.44,1.3,1.3,0,0,0-1.015.436,1.7,1.7,0,0,0-.391,1.176ZM24.144-.967l-.923-.58,6.249-10,.923.58Z" transform="translate(-1093.319 -6077.502)" fill="#12263f"/>
      <path id="Trazado_815393" data-name="Trazado 815393" d="M6.407,0H4.772V-10.837l-3.278,1.2v-1.477l4.658-1.749h.255ZM19.2-5.458a7.436,7.436,0,0,1-.976,4.245A3.47,3.47,0,0,1,15.17.176a3.5,3.5,0,0,1-3.032-1.358,7.058,7.058,0,0,1-1.02-4.056V-7.409a7.271,7.271,0,0,1,.976-4.192,3.5,3.5,0,0,1,3.059-1.371,3.528,3.528,0,0,1,3.041,1.323,7.017,7.017,0,0,1,1,4.083ZM17.569-7.682a5.958,5.958,0,0,0-.58-3.01,2,2,0,0,0-1.837-.945,1.97,1.97,0,0,0-1.819.94A5.817,5.817,0,0,0,12.744-7.8v2.6a6.053,6.053,0,0,0,.6,3.063,1.993,1.993,0,0,0,1.824.989,1.966,1.966,0,0,0,1.789-.932,5.834,5.834,0,0,0,.611-2.936Zm3.823,10.23-.923-.633a4.241,4.241,0,0,0,.861-2.373V-1.925h1.591V-.65a4,4,0,0,1-.435,1.775A4.156,4.156,0,0,1,21.393,2.549Zm4.166-8.965.65-6.381h6.557v1.5H27.589L27.2-7.8a4.13,4.13,0,0,1,2.136-.554A3.531,3.531,0,0,1,32.115-7.2a4.53,4.53,0,0,1,1.028,3.125A4.372,4.372,0,0,1,32.076-.962,3.892,3.892,0,0,1,29.092.176a4.045,4.045,0,0,1-2.769-.94,3.754,3.754,0,0,1-1.222-2.6H26.64a2.582,2.582,0,0,0,.782,1.657,2.432,2.432,0,0,0,1.67.558,2.194,2.194,0,0,0,1.78-.773,3.233,3.233,0,0,0,.646-2.136,2.968,2.968,0,0,0-.7-2.061A2.377,2.377,0,0,0,28.96-6.9a2.681,2.681,0,0,0-1.67.466l-.431.352Zm9.22-3.92a2.6,2.6,0,0,1,.734-1.9,2.528,2.528,0,0,1,1.885-.747,2.513,2.513,0,0,1,1.894.751,2.687,2.687,0,0,1,.725,1.947v.624a2.563,2.563,0,0,1-.734,1.894,2.53,2.53,0,0,1-1.868.734,2.586,2.586,0,0,1-1.89-.734,2.617,2.617,0,0,1-.747-1.956Zm1.213.673a1.663,1.663,0,0,0,.387,1.132,1.3,1.3,0,0,0,1.037.445,1.28,1.28,0,0,0,1.006-.432A1.717,1.717,0,0,0,38.8-9.7v-.643a1.7,1.7,0,0,0-.378-1.136,1.273,1.273,0,0,0-1.028-.449,1.273,1.273,0,0,0-1.028.449,1.759,1.759,0,0,0-.378,1.172ZM41.01-3.138a2.582,2.582,0,0,1,.734-1.894,2.536,2.536,0,0,1,1.885-.743,2.559,2.559,0,0,1,1.89.738,2.649,2.649,0,0,1,.738,1.96v.624a2.582,2.582,0,0,1-.734,1.894,2.525,2.525,0,0,1-1.876.743,2.586,2.586,0,0,1-1.89-.734A2.617,2.617,0,0,1,41.01-2.5Zm1.213.682a1.676,1.676,0,0,0,.387,1.141,1.3,1.3,0,0,0,1.037.445,1.27,1.27,0,0,0,1.011-.436,1.748,1.748,0,0,0,.378-1.185v-.652a1.671,1.671,0,0,0-.382-1.136,1.288,1.288,0,0,0-1.024-.44,1.3,1.3,0,0,0-1.015.436,1.7,1.7,0,0,0-.391,1.176ZM37.784-.967l-.923-.58,6.249-10,.923.58Z" transform="translate(-969.392 -6009.39)" fill="#12263f"/>
      <path id="Trazado_815385" data-name="Trazado 815385" d="M4.588-12.8,7.875-3.516l3.27-9.281h3.463V0H11.962V-3.5l.264-6.038L8.771,0H6.961L3.516-9.527,3.779-3.5V0H1.143V-12.8ZM22.254,0A2.821,2.821,0,0,1,22-.853,3.073,3.073,0,0,1,19.6.176a3.376,3.376,0,0,1-2.316-.809,2.6,2.6,0,0,1-.918-2.039,2.687,2.687,0,0,1,1.121-2.32,5.529,5.529,0,0,1,3.239-.817h1.169v-.545a1.567,1.567,0,0,0-.338-1.055,1.331,1.331,0,0,0-1.068-.4,1.513,1.513,0,0,0-1.006.308,1.045,1.045,0,0,0-.365.844h-2.54a2.551,2.551,0,0,1,.51-1.529,3.37,3.37,0,0,1,1.441-1.1,5.253,5.253,0,0,1,2.092-.4A4.15,4.15,0,0,1,23.41-8.8a3.09,3.09,0,0,1,1.033,2.483V-2.2A4.546,4.546,0,0,0,24.82-.149V0Zm-2.1-1.767a2.188,2.188,0,0,0,1.037-.25,1.645,1.645,0,0,0,.7-.672V-4.324h-.949q-1.907,0-2.03,1.318l-.009.149a1.017,1.017,0,0,0,.334.782A1.3,1.3,0,0,0,20.153-1.767ZM29.136,0H26.6V-9.51h2.54Zm-.747-13.368h2.769l-2.435,2.725H26.657Zm5.854,11.32h4.649V0H31V-1.547l4.474-5.915H31.131V-9.51h7.62v1.5Z" transform="translate(-1316.341 -6131.142)" fill="#12263f"/>
      <path id="Trazado_815386" data-name="Trazado 815386" d="M3.313-9.51l.079,1.1A3.32,3.32,0,0,1,6.126-9.686a2.759,2.759,0,0,1,2.25.888,4.142,4.142,0,0,1,.756,2.654V0H6.592V-6.082A1.648,1.648,0,0,0,6.24-7.255,1.574,1.574,0,0,0,5.071-7.62a1.747,1.747,0,0,0-1.608.914V0H.923V-9.51ZM16.567,0a2.821,2.821,0,0,1-.255-.853,3.073,3.073,0,0,1-2.4,1.028A3.376,3.376,0,0,1,11.6-.633a2.6,2.6,0,0,1-.918-2.039A2.687,2.687,0,0,1,11.8-4.992a5.529,5.529,0,0,1,3.239-.817h1.169v-.545a1.567,1.567,0,0,0-.338-1.055A1.331,1.331,0,0,0,14.8-7.8a1.513,1.513,0,0,0-1.006.308,1.045,1.045,0,0,0-.365.844H10.89a2.551,2.551,0,0,1,.51-1.529,3.37,3.37,0,0,1,1.441-1.1,5.253,5.253,0,0,1,2.092-.4,4.15,4.15,0,0,1,2.791.883,3.09,3.09,0,0,1,1.033,2.483V-2.2a4.546,4.546,0,0,0,.378,2.048V0Zm-2.1-1.767a2.188,2.188,0,0,0,1.037-.25,1.645,1.645,0,0,0,.7-.672V-4.324h-.949q-1.907,0-2.03,1.318l-.009.149a1.017,1.017,0,0,0,.334.782A1.3,1.3,0,0,0,14.467-1.767Zm10.2-.105A1.666,1.666,0,0,0,25.8-2.259a1.355,1.355,0,0,0,.457-1.028h2.382a3.258,3.258,0,0,1-.527,1.771A3.48,3.48,0,0,1,26.7-.268a4.442,4.442,0,0,1-1.991.444,4.129,4.129,0,0,1-3.217-1.3A5.13,5.13,0,0,1,20.312-4.7v-.167A5.071,5.071,0,0,1,21.48-8.376a4.08,4.08,0,0,1,3.208-1.31A4,4,0,0,1,27.549-8.67a3.594,3.594,0,0,1,1.094,2.7H26.262A1.745,1.745,0,0,0,25.8-7.174a1.524,1.524,0,0,0-1.16-.464,1.53,1.53,0,0,0-1.34.647,3.749,3.749,0,0,0-.453,2.1v.264A3.8,3.8,0,0,0,23.3-2.515,1.549,1.549,0,0,0,24.662-1.872ZM32.774,0H30.226V-9.51h2.549Zm-2.7-11.971a1.251,1.251,0,0,1,.382-.94A1.436,1.436,0,0,1,31.5-13.28a1.44,1.44,0,0,1,1.037.369,1.244,1.244,0,0,1,.387.94,1.247,1.247,0,0,1-.391.949,1.443,1.443,0,0,1-1.033.369,1.443,1.443,0,0,1-1.033-.369A1.247,1.247,0,0,1,30.076-11.971Zm4.395,7.128a5.64,5.64,0,0,1,.545-2.522,3.989,3.989,0,0,1,1.569-1.714,4.577,4.577,0,0,1,2.377-.606A4.33,4.33,0,0,1,42.1-8.508a4.727,4.727,0,0,1,1.358,3.2l.018.65a4.97,4.97,0,0,1-1.222,3.511A4.247,4.247,0,0,1,38.979.176,4.268,4.268,0,0,1,35.7-1.143a5.058,5.058,0,0,1-1.226-3.586Zm2.54.18a3.555,3.555,0,0,0,.51,2.073,1.682,1.682,0,0,0,1.459.717,1.686,1.686,0,0,0,1.441-.709,3.89,3.89,0,0,0,.519-2.267,3.519,3.519,0,0,0-.519-2.06,1.686,1.686,0,0,0-1.459-.731,1.658,1.658,0,0,0-1.441.726A3.955,3.955,0,0,0,37.011-4.662ZM47.382-9.51l.079,1.1a3.32,3.32,0,0,1,2.733-1.274,2.759,2.759,0,0,1,2.25.888A4.142,4.142,0,0,1,53.2-6.144V0H50.66V-6.082a1.648,1.648,0,0,0-.352-1.173A1.574,1.574,0,0,0,49.14-7.62a1.747,1.747,0,0,0-1.608.914V0h-2.54V-9.51ZM60.636,0a2.821,2.821,0,0,1-.255-.853,3.073,3.073,0,0,1-2.4,1.028,3.376,3.376,0,0,1-2.316-.809,2.6,2.6,0,0,1-.918-2.039,2.687,2.687,0,0,1,1.121-2.32,5.529,5.529,0,0,1,3.239-.817h1.169v-.545a1.567,1.567,0,0,0-.338-1.055,1.331,1.331,0,0,0-1.068-.4,1.513,1.513,0,0,0-1.006.308,1.045,1.045,0,0,0-.365.844h-2.54a2.551,2.551,0,0,1,.51-1.529,3.37,3.37,0,0,1,1.441-1.1A5.253,5.253,0,0,1,59-9.686a4.15,4.15,0,0,1,2.791.883,3.09,3.09,0,0,1,1.033,2.483V-2.2A4.546,4.546,0,0,0,63.2-.149V0Zm-2.1-1.767a2.188,2.188,0,0,0,1.037-.25,1.645,1.645,0,0,0,.7-.672V-4.324h-.949q-1.907,0-2.03,1.318l-.009.149a1.017,1.017,0,0,0,.334.782A1.3,1.3,0,0,0,58.535-1.767ZM67.456,0H64.907V-13.5h2.549Z" transform="translate(-1329.341 -6109.542)" fill="#12263f"/>
      <path id="Trazado_815387" data-name="Trazado 815387" d="M7.778-3.357A1.353,1.353,0,0,0,7.251-4.5a6.917,6.917,0,0,0-1.9-.844,13.458,13.458,0,0,1-2.171-.875A3.547,3.547,0,0,1,1-9.4a3.09,3.09,0,0,1,.584-1.85,3.812,3.812,0,0,1,1.679-1.27,6.318,6.318,0,0,1,2.457-.457,5.751,5.751,0,0,1,2.443.5,3.891,3.891,0,0,1,1.666,1.4,3.668,3.668,0,0,1,.593,2.057H7.787a1.726,1.726,0,0,0-.554-1.367,2.276,2.276,0,0,0-1.556-.488,2.432,2.432,0,0,0-1.5.409,1.289,1.289,0,0,0-.536,1.077,1.235,1.235,0,0,0,.628,1.046,7.1,7.1,0,0,0,1.85.791A7.994,7.994,0,0,1,9.4-5.871a3.343,3.343,0,0,1,1.028,2.5A3.08,3.08,0,0,1,9.167-.769,5.5,5.5,0,0,1,5.783.176,6.534,6.534,0,0,1,3.094-.365a4.256,4.256,0,0,1-1.85-1.481,3.793,3.793,0,0,1-.637-2.18H3.252q0,2.118,2.531,2.118A2.462,2.462,0,0,0,7.251-2.29,1.244,1.244,0,0,0,7.778-3.357Zm3.867-1.485a5.64,5.64,0,0,1,.545-2.522,3.989,3.989,0,0,1,1.569-1.714,4.577,4.577,0,0,1,2.377-.606,4.33,4.33,0,0,1,3.142,1.178,4.727,4.727,0,0,1,1.358,3.2l.018.65a4.97,4.97,0,0,1-1.222,3.511A4.247,4.247,0,0,1,16.154.176a4.268,4.268,0,0,1-3.283-1.318,5.058,5.058,0,0,1-1.226-3.586Zm2.54.18a3.555,3.555,0,0,0,.51,2.073,1.682,1.682,0,0,0,1.459.717A1.686,1.686,0,0,0,17.6-2.581a3.89,3.89,0,0,0,.519-2.267,3.519,3.519,0,0,0-.519-2.06,1.686,1.686,0,0,0-1.459-.731,1.658,1.658,0,0,0-1.441.726A3.955,3.955,0,0,0,14.186-4.662ZM24.908-9.51V.519a3.4,3.4,0,0,1-.835,2.448,3.174,3.174,0,0,1-2.408.875,5.165,5.165,0,0,1-1.257-.149V1.679a4.768,4.768,0,0,0,.8.079q1.151,0,1.151-1.222V-9.51Zm-2.751-2.461a1.251,1.251,0,0,1,.382-.94,1.436,1.436,0,0,1,1.042-.369,1.436,1.436,0,0,1,1.042.369,1.251,1.251,0,0,1,.382.94,1.247,1.247,0,0,1-.391.949,1.443,1.443,0,0,1-1.033.369,1.443,1.443,0,0,1-1.033-.369A1.247,1.247,0,0,1,22.157-11.971ZM32.405,0a2.821,2.821,0,0,1-.255-.853,3.073,3.073,0,0,1-2.4,1.028,3.376,3.376,0,0,1-2.316-.809,2.6,2.6,0,0,1-.918-2.039,2.687,2.687,0,0,1,1.121-2.32,5.529,5.529,0,0,1,3.239-.817h1.169v-.545a1.567,1.567,0,0,0-.338-1.055,1.331,1.331,0,0,0-1.068-.4,1.513,1.513,0,0,0-1.006.308,1.045,1.045,0,0,0-.365.844h-2.54a2.551,2.551,0,0,1,.51-1.529,3.37,3.37,0,0,1,1.441-1.1,5.253,5.253,0,0,1,2.092-.4,4.15,4.15,0,0,1,2.791.883,3.09,3.09,0,0,1,1.033,2.483V-2.2a4.546,4.546,0,0,0,.378,2.048V0ZM30.3-1.767a2.188,2.188,0,0,0,1.037-.25,1.645,1.645,0,0,0,.7-.672V-4.324H31.1q-1.907,0-2.03,1.318l-.009.149a1.017,1.017,0,0,0,.334.782A1.3,1.3,0,0,0,30.3-1.767Z" transform="translate(-1314.341 -6014.214)" fill="#12263f"/>
      <path id="Trazado_815388" data-name="Trazado 815388" d="M4.017-11.848V-9.51H5.643v1.863H4.017V-2.9a1.133,1.133,0,0,0,.2.756,1.015,1.015,0,0,0,.773.229,4.051,4.051,0,0,0,.747-.062V-.053A5.229,5.229,0,0,1,4.2.176a2.425,2.425,0,0,1-2.725-2.7V-7.646H.088V-9.51H1.477v-2.338Zm2.13,7a5.64,5.64,0,0,1,.545-2.522A3.989,3.989,0,0,1,8.26-9.079a4.577,4.577,0,0,1,2.377-.606A4.33,4.33,0,0,1,13.78-8.508a4.727,4.727,0,0,1,1.358,3.2l.018.65a4.97,4.97,0,0,1-1.222,3.511A4.247,4.247,0,0,1,10.655.176,4.268,4.268,0,0,1,7.373-1.143,5.058,5.058,0,0,1,6.146-4.729Zm2.54.18A3.555,3.555,0,0,0,9.2-2.589a1.682,1.682,0,0,0,1.459.717A1.686,1.686,0,0,0,12.1-2.581a3.89,3.89,0,0,0,.519-2.267,3.519,3.519,0,0,0-.519-2.06,1.686,1.686,0,0,0-1.459-.731A1.658,1.658,0,0,0,9.2-6.911,3.955,3.955,0,0,0,8.686-4.662ZM21.87-2.628a.818.818,0,0,0-.461-.734,5.241,5.241,0,0,0-1.481-.479q-3.393-.712-3.393-2.883a2.613,2.613,0,0,1,1.05-2.114,4.237,4.237,0,0,1,2.747-.848,4.56,4.56,0,0,1,2.9.853,2.687,2.687,0,0,1,1.085,2.215h-2.54a1.229,1.229,0,0,0-.352-.9,1.488,1.488,0,0,0-1.1-.356,1.52,1.52,0,0,0-.993.29.916.916,0,0,0-.352.738.783.783,0,0,0,.4.681,4.114,4.114,0,0,0,1.349.448,11.019,11.019,0,0,1,1.6.426A2.628,2.628,0,0,1,24.34-2.733a2.481,2.481,0,0,1-1.116,2.1,4.815,4.815,0,0,1-2.883.8A5.029,5.029,0,0,1,18.218-.25a3.561,3.561,0,0,1-1.455-1.169,2.716,2.716,0,0,1-.527-1.6h2.408a1.326,1.326,0,0,0,.5,1.037,1.987,1.987,0,0,0,1.248.36A1.839,1.839,0,0,0,21.5-1.9.861.861,0,0,0,21.87-2.628Zm7.146-9.22V-9.51h1.626v1.863H29.016V-2.9a1.133,1.133,0,0,0,.2.756,1.015,1.015,0,0,0,.773.229,4.051,4.051,0,0,0,.747-.062V-.053A5.229,5.229,0,0,1,29.2.176a2.425,2.425,0,0,1-2.725-2.7V-7.646H25.087V-9.51h1.389v-2.338ZM37.567,0a2.821,2.821,0,0,1-.255-.853,3.073,3.073,0,0,1-2.4,1.028A3.376,3.376,0,0,1,32.6-.633a2.6,2.6,0,0,1-.918-2.039A2.687,2.687,0,0,1,32.8-4.992a5.529,5.529,0,0,1,3.239-.817h1.169v-.545a1.567,1.567,0,0,0-.338-1.055A1.331,1.331,0,0,0,35.8-7.8a1.513,1.513,0,0,0-1.006.308,1.045,1.045,0,0,0-.365.844H31.89a2.551,2.551,0,0,1,.51-1.529,3.37,3.37,0,0,1,1.441-1.1,5.253,5.253,0,0,1,2.092-.4,4.15,4.15,0,0,1,2.791.883,3.09,3.09,0,0,1,1.033,2.483V-2.2a4.546,4.546,0,0,0,.378,2.048V0Zm-2.1-1.767a2.188,2.188,0,0,0,1.037-.25,1.645,1.645,0,0,0,.7-.672V-4.324h-.949q-1.907,0-2.03,1.318l-.009.149a1.017,1.017,0,0,0,.334.782A1.3,1.3,0,0,0,35.467-1.767Zm5.845-3.059a5.731,5.731,0,0,1,1-3.542,3.237,3.237,0,0,1,2.729-1.318,2.913,2.913,0,0,1,2.294,1.037V-13.5h2.549V0H47.587l-.123-1.011A2.989,2.989,0,0,1,45.02.176a3.228,3.228,0,0,1-2.694-1.323A5.916,5.916,0,0,1,41.311-4.825Zm2.54.189a3.754,3.754,0,0,0,.466,2.051,1.517,1.517,0,0,0,1.354.713,1.7,1.7,0,0,0,1.661-.995V-6.625a1.675,1.675,0,0,0-1.644-.995Q43.852-7.62,43.852-4.636ZM57.36,0a2.821,2.821,0,0,1-.255-.853,3.073,3.073,0,0,1-2.4,1.028A3.376,3.376,0,0,1,52.39-.633a2.6,2.6,0,0,1-.918-2.039,2.687,2.687,0,0,1,1.121-2.32,5.529,5.529,0,0,1,3.239-.817H57v-.545a1.567,1.567,0,0,0-.338-1.055,1.331,1.331,0,0,0-1.068-.4,1.513,1.513,0,0,0-1.006.308,1.045,1.045,0,0,0-.365.844h-2.54a2.551,2.551,0,0,1,.51-1.529,3.37,3.37,0,0,1,1.441-1.1,5.253,5.253,0,0,1,2.092-.4,4.15,4.15,0,0,1,2.791.883,3.09,3.09,0,0,1,1.033,2.483V-2.2a4.546,4.546,0,0,0,.378,2.048V0Zm-2.1-1.767a2.188,2.188,0,0,0,1.037-.25,1.645,1.645,0,0,0,.7-.672V-4.324h-.949q-1.907,0-2.03,1.318l-.009.149a1.017,1.017,0,0,0,.334.782A1.3,1.3,0,0,0,55.26-1.767Z" transform="translate(-1325.341 -5992.614)" fill="#12263f"/>
      <path id="Trazado_815384" data-name="Trazado 815384" d="M3.779-4.509V0H1.143V-12.8H6.135a5.776,5.776,0,0,1,2.536.527,3.886,3.886,0,0,1,1.683,1.5,4.178,4.178,0,0,1,.589,2.21A3.674,3.674,0,0,1,9.655-5.594,5.363,5.363,0,0,1,6.091-4.509Zm0-2.136H6.135a2.316,2.316,0,0,0,1.6-.492,1.79,1.79,0,0,0,.549-1.406,2.111,2.111,0,0,0-.554-1.521,2.068,2.068,0,0,0-1.529-.6H3.779ZM17.91,0a2.821,2.821,0,0,1-.255-.853,3.073,3.073,0,0,1-2.4,1.028A3.376,3.376,0,0,1,12.94-.633a2.6,2.6,0,0,1-.918-2.039,2.687,2.687,0,0,1,1.121-2.32,5.529,5.529,0,0,1,3.239-.817H17.55v-.545a1.567,1.567,0,0,0-.338-1.055,1.331,1.331,0,0,0-1.068-.4,1.513,1.513,0,0,0-1.006.308,1.045,1.045,0,0,0-.365.844h-2.54a2.551,2.551,0,0,1,.51-1.529,3.37,3.37,0,0,1,1.441-1.1,5.253,5.253,0,0,1,2.092-.4,4.15,4.15,0,0,1,2.791.883A3.09,3.09,0,0,1,20.1-6.319V-2.2a4.546,4.546,0,0,0,.378,2.048V0Zm-2.1-1.767a2.188,2.188,0,0,0,1.037-.25,1.645,1.645,0,0,0,.7-.672V-4.324H16.6q-1.907,0-2.03,1.318l-.009.149a1.017,1.017,0,0,0,.334.782A1.3,1.3,0,0,0,15.809-1.767ZM27.393-7.128a6.9,6.9,0,0,0-.914-.07,1.86,1.86,0,0,0-1.89.976V0H22.05V-9.51h2.4l.07,1.134a2.354,2.354,0,0,1,2.118-1.31,2.662,2.662,0,0,1,.791.114Zm5.134-4.72V-9.51h1.626v1.863H32.528V-2.9a1.133,1.133,0,0,0,.2.756,1.015,1.015,0,0,0,.773.229,4.051,4.051,0,0,0,.747-.062V-.053a5.229,5.229,0,0,1-1.538.229,2.425,2.425,0,0,1-2.725-2.7V-7.646H28.6V-9.51h1.389v-2.338ZM39.946.176A4.668,4.668,0,0,1,36.54-1.107a4.561,4.561,0,0,1-1.314-3.419v-.246a5.745,5.745,0,0,1,.554-2.562,4.064,4.064,0,0,1,1.569-1.74,4.4,4.4,0,0,1,2.316-.611,3.947,3.947,0,0,1,3.072,1.23,5,5,0,0,1,1.121,3.489v1.037H37.8a2.36,2.36,0,0,0,.743,1.494,2.245,2.245,0,0,0,1.569.563,2.742,2.742,0,0,0,2.294-1.063l1.248,1.4A3.813,3.813,0,0,1,42.108-.277,5.075,5.075,0,0,1,39.946.176Zm-.29-7.813a1.587,1.587,0,0,0-1.226.512,2.651,2.651,0,0,0-.6,1.466h3.533v-.2A1.891,1.891,0,0,0,40.9-7.174,1.638,1.638,0,0,0,39.655-7.638Zm10.793,5.01a.818.818,0,0,0-.461-.734,5.241,5.241,0,0,0-1.481-.479q-3.393-.712-3.393-2.883a2.613,2.613,0,0,1,1.05-2.114,4.237,4.237,0,0,1,2.747-.848,4.56,4.56,0,0,1,2.9.853,2.687,2.687,0,0,1,1.085,2.215h-2.54a1.229,1.229,0,0,0-.352-.9,1.488,1.488,0,0,0-1.1-.356,1.52,1.52,0,0,0-.993.29.916.916,0,0,0-.352.738.783.783,0,0,0,.4.681,4.114,4.114,0,0,0,1.349.448,11.019,11.019,0,0,1,1.6.426,2.628,2.628,0,0,1,2.013,2.558A2.481,2.481,0,0,1,51.8-.628a4.815,4.815,0,0,1-2.883.8A5.029,5.029,0,0,1,46.8-.25a3.561,3.561,0,0,1-1.455-1.169,2.716,2.716,0,0,1-.527-1.6h2.408a1.326,1.326,0,0,0,.5,1.037,1.987,1.987,0,0,0,1.248.36,1.839,1.839,0,0,0,1.1-.277A.861.861,0,0,0,50.448-2.628Z" transform="translate(-965.954 -6234.57)" fill="#12263f"/>
      <path id="Trazado_815380" data-name="Trazado 815380" d="M3.779-4.509V0H1.143V-12.8H6.135a5.776,5.776,0,0,1,2.536.527,3.886,3.886,0,0,1,1.683,1.5,4.178,4.178,0,0,1,.589,2.21A3.674,3.674,0,0,1,9.655-5.594,5.363,5.363,0,0,1,6.091-4.509Zm0-2.136H6.135a2.316,2.316,0,0,0,1.6-.492,1.79,1.79,0,0,0,.549-1.406,2.111,2.111,0,0,0-.554-1.521,2.068,2.068,0,0,0-1.529-.6H3.779Zm14.15-.483a6.9,6.9,0,0,0-.914-.07,1.86,1.86,0,0,0-1.89.976V0h-2.54V-9.51h2.4l.07,1.134a2.354,2.354,0,0,1,2.118-1.31,2.662,2.662,0,0,1,.791.114Zm.2,2.285a5.64,5.64,0,0,1,.545-2.522,3.989,3.989,0,0,1,1.569-1.714,4.577,4.577,0,0,1,2.377-.606,4.33,4.33,0,0,1,3.142,1.178,4.727,4.727,0,0,1,1.358,3.2l.018.65a4.97,4.97,0,0,1-1.222,3.511A4.247,4.247,0,0,1,22.642.176,4.268,4.268,0,0,1,19.36-1.143a5.058,5.058,0,0,1-1.226-3.586Zm2.54.18a3.555,3.555,0,0,0,.51,2.073,1.682,1.682,0,0,0,1.459.717,1.686,1.686,0,0,0,1.441-.709A3.89,3.89,0,0,0,24.6-4.847a3.519,3.519,0,0,0-.519-2.06,1.686,1.686,0,0,0-1.459-.731,1.658,1.658,0,0,0-1.441.726A3.955,3.955,0,0,0,20.673-4.662Zm11.074-7.185V-9.51h1.626v1.863H31.748V-2.9a1.133,1.133,0,0,0,.2.756,1.015,1.015,0,0,0,.773.229,4.051,4.051,0,0,0,.747-.062V-.053a5.229,5.229,0,0,1-1.538.229,2.425,2.425,0,0,1-2.725-2.7V-7.646H27.819V-9.51h1.389v-2.338ZM39.166.176A4.668,4.668,0,0,1,35.76-1.107a4.561,4.561,0,0,1-1.314-3.419v-.246A5.745,5.745,0,0,1,35-7.334a4.064,4.064,0,0,1,1.569-1.74,4.4,4.4,0,0,1,2.316-.611,3.947,3.947,0,0,1,3.072,1.23,5,5,0,0,1,1.121,3.489v1.037H37.021a2.36,2.36,0,0,0,.743,1.494,2.245,2.245,0,0,0,1.569.563,2.742,2.742,0,0,0,2.294-1.063l1.248,1.4A3.813,3.813,0,0,1,41.328-.277,5.075,5.075,0,0,1,39.166.176Zm-.29-7.813a1.587,1.587,0,0,0-1.226.512,2.651,2.651,0,0,0-.6,1.466h3.533v-.2a1.891,1.891,0,0,0-.457-1.311A1.638,1.638,0,0,0,38.876-7.638ZM47.26,0H44.72V-9.51h2.54Zm-.747-13.368h2.769l-2.435,2.725H44.782ZM51.787-9.51l.079,1.1A3.32,3.32,0,0,1,54.6-9.686a2.759,2.759,0,0,1,2.25.888,4.142,4.142,0,0,1,.756,2.654V0h-2.54V-6.082a1.648,1.648,0,0,0-.352-1.173,1.574,1.574,0,0,0-1.169-.365,1.747,1.747,0,0,0-1.608.914V0H49.4V-9.51ZM65.041,0a2.821,2.821,0,0,1-.255-.853,3.073,3.073,0,0,1-2.4,1.028A3.376,3.376,0,0,1,60.07-.633a2.6,2.6,0,0,1-.918-2.039,2.687,2.687,0,0,1,1.121-2.32,5.529,5.529,0,0,1,3.239-.817H64.68v-.545a1.567,1.567,0,0,0-.338-1.055,1.331,1.331,0,0,0-1.068-.4,1.513,1.513,0,0,0-1.006.308,1.045,1.045,0,0,0-.365.844h-2.54a2.551,2.551,0,0,1,.51-1.529,3.37,3.37,0,0,1,1.441-1.1,5.253,5.253,0,0,1,2.092-.4A4.15,4.15,0,0,1,66.2-8.8a3.09,3.09,0,0,1,1.033,2.483V-2.2a4.546,4.546,0,0,0,.378,2.048V0Zm-2.1-1.767a2.188,2.188,0,0,0,1.037-.25,1.645,1.645,0,0,0,.7-.672V-4.324h-.949q-1.907,0-2.03,1.318l-.009.149a1.017,1.017,0,0,0,.334.782A1.3,1.3,0,0,0,62.94-1.767Z" transform="translate(-1234.228 -6244.788)" fill="#12263f"/>
      <path id="Trazado_815381" data-name="Trazado 815381" d="M9.545-4.667A5.758,5.758,0,0,1,8.569-1.1,3.231,3.231,0,0,1,5.845.176a2.969,2.969,0,0,1-2.47-1.187L3.261,0H.976V-13.5h2.54v4.843A2.893,2.893,0,0,1,5.827-9.686,3.258,3.258,0,0,1,8.556-8.407a5.767,5.767,0,0,1,.989,3.6ZM7-4.852a3.783,3.783,0,0,0-.457-2.1A1.545,1.545,0,0,0,5.186-7.62a1.676,1.676,0,0,0-1.67.993v3.753a1.7,1.7,0,0,0,1.688,1A1.568,1.568,0,0,0,6.82-3.085,6.257,6.257,0,0,0,7-4.852Zm9.448-2.276a6.9,6.9,0,0,0-.914-.07,1.86,1.86,0,0,0-1.89.976V0h-2.54V-9.51h2.4l.07,1.134A2.354,2.354,0,0,1,15.7-9.686a2.662,2.662,0,0,1,.791.114ZM23.37-.967a3.185,3.185,0,0,1-2.6,1.143A3,3,0,0,1,18.435-.7a3.752,3.752,0,0,1-.822-2.575V-9.51h2.54v6.151q0,1.487,1.354,1.487a1.834,1.834,0,0,0,1.775-.9V-9.51h2.549V0H23.44Zm7.418-10.881V-9.51h1.626v1.863H30.788V-2.9a1.133,1.133,0,0,0,.2.756,1.015,1.015,0,0,0,.773.229,4.051,4.051,0,0,0,.747-.062V-.053a5.229,5.229,0,0,1-1.538.229,2.425,2.425,0,0,1-2.725-2.7V-7.646H26.859V-9.51h1.389v-2.338ZM39.34,0a2.821,2.821,0,0,1-.255-.853,3.073,3.073,0,0,1-2.4,1.028A3.376,3.376,0,0,1,34.37-.633a2.6,2.6,0,0,1-.918-2.039,2.687,2.687,0,0,1,1.121-2.32,5.529,5.529,0,0,1,3.239-.817h1.169v-.545a1.567,1.567,0,0,0-.338-1.055,1.331,1.331,0,0,0-1.068-.4,1.513,1.513,0,0,0-1.006.308,1.045,1.045,0,0,0-.365.844h-2.54a2.551,2.551,0,0,1,.51-1.529,3.37,3.37,0,0,1,1.441-1.1,5.253,5.253,0,0,1,2.092-.4A4.15,4.15,0,0,1,40.5-8.8a3.09,3.09,0,0,1,1.033,2.483V-2.2a4.546,4.546,0,0,0,.378,2.048V0Zm-2.1-1.767a2.188,2.188,0,0,0,1.037-.25,1.645,1.645,0,0,0,.7-.672V-4.324H38.03q-1.907,0-2.03,1.318l-.009.149a1.017,1.017,0,0,0,.334.782A1.3,1.3,0,0,0,37.239-1.767Z" transform="translate(-1219.228 -6223.188)" fill="#12263f"/>
      <path id="Trazado_815382" data-name="Trazado 815382" d="M11.188-4.263A4.528,4.528,0,0,1,9.664-1.011,5.355,5.355,0,0,1,6.038.176,4.816,4.816,0,0,1,2.167-1.481,6.793,6.793,0,0,1,.756-6.029v-.782a7.671,7.671,0,0,1,.65-3.252,4.874,4.874,0,0,1,1.859-2.158,5.207,5.207,0,0,1,2.808-.751,5.217,5.217,0,0,1,3.568,1.187,4.866,4.866,0,0,1,1.564,3.331H8.569a2.673,2.673,0,0,0-.69-1.8,2.555,2.555,0,0,0-1.806-.558A2.24,2.24,0,0,0,4.1-9.866a5.3,5.3,0,0,0-.672,2.931v.967a5.667,5.667,0,0,0,.628,3.032,2.2,2.2,0,0,0,1.982.958,2.6,2.6,0,0,0,1.824-.558,2.521,2.521,0,0,0,.69-1.727Zm1.169-.58A5.64,5.64,0,0,1,12.9-7.365a3.989,3.989,0,0,1,1.569-1.714,4.577,4.577,0,0,1,2.377-.606,4.33,4.33,0,0,1,3.142,1.178,4.727,4.727,0,0,1,1.358,3.2l.018.65a4.97,4.97,0,0,1-1.222,3.511A4.247,4.247,0,0,1,16.866.176a4.268,4.268,0,0,1-3.283-1.318,5.058,5.058,0,0,1-1.226-3.586Zm2.54.18a3.555,3.555,0,0,0,.51,2.073,1.682,1.682,0,0,0,1.459.717,1.686,1.686,0,0,0,1.441-.709,3.89,3.89,0,0,0,.519-2.267,3.519,3.519,0,0,0-.519-2.06,1.686,1.686,0,0,0-1.459-.731,1.658,1.658,0,0,0-1.441.726A3.955,3.955,0,0,0,14.9-4.662ZM25.269-9.51l.079,1.1a3.32,3.32,0,0,1,2.733-1.274,2.759,2.759,0,0,1,2.25.888,4.142,4.142,0,0,1,.756,2.654V0h-2.54V-6.082A1.648,1.648,0,0,0,28.2-7.255a1.574,1.574,0,0,0-1.169-.365,1.747,1.747,0,0,0-1.608.914V0h-2.54V-9.51Zm11.7,7.638a1.666,1.666,0,0,0,1.143-.387,1.355,1.355,0,0,0,.457-1.028h2.382a3.258,3.258,0,0,1-.527,1.771A3.48,3.48,0,0,1,39-.268a4.442,4.442,0,0,1-1.991.444,4.129,4.129,0,0,1-3.217-1.3A5.13,5.13,0,0,1,32.616-4.7v-.167a5.071,5.071,0,0,1,1.169-3.507,4.08,4.08,0,0,1,3.208-1.31A4,4,0,0,1,39.854-8.67a3.594,3.594,0,0,1,1.094,2.7H38.566a1.745,1.745,0,0,0-.457-1.206,1.524,1.524,0,0,0-1.16-.464,1.53,1.53,0,0,0-1.34.647,3.749,3.749,0,0,0-.453,2.1v.264A3.8,3.8,0,0,0,35.6-2.515,1.549,1.549,0,0,0,36.967-1.872ZM46.775.176A4.668,4.668,0,0,1,43.37-1.107a4.561,4.561,0,0,1-1.314-3.419v-.246a5.745,5.745,0,0,1,.554-2.562,4.064,4.064,0,0,1,1.569-1.74,4.4,4.4,0,0,1,2.316-.611,3.947,3.947,0,0,1,3.072,1.23,5,5,0,0,1,1.121,3.489v1.037H44.631a2.36,2.36,0,0,0,.743,1.494,2.245,2.245,0,0,0,1.569.563,2.742,2.742,0,0,0,2.294-1.063l1.248,1.4A3.813,3.813,0,0,1,48.938-.277,5.075,5.075,0,0,1,46.775.176Zm-.29-7.813a1.587,1.587,0,0,0-1.226.512,2.651,2.651,0,0,0-.6,1.466H48.19v-.2a1.891,1.891,0,0,0-.457-1.311A1.638,1.638,0,0,0,46.485-7.638Zm7.98-1.872.079,1.1a3.32,3.32,0,0,1,2.733-1.274,2.759,2.759,0,0,1,2.25.888,4.142,4.142,0,0,1,.756,2.654V0h-2.54V-6.082a1.648,1.648,0,0,0-.352-1.173,1.574,1.574,0,0,0-1.169-.365,1.747,1.747,0,0,0-1.608.914V0h-2.54V-9.51ZM65.25-11.848V-9.51h1.626v1.863H65.25V-2.9a1.133,1.133,0,0,0,.2.756,1.015,1.015,0,0,0,.773.229,4.051,4.051,0,0,0,.747-.062V-.053a5.229,5.229,0,0,1-1.538.229,2.425,2.425,0,0,1-2.725-2.7V-7.646H61.321V-9.51H62.71v-2.338Zm8.385,4.72a6.9,6.9,0,0,0-.914-.07,1.86,1.86,0,0,0-1.89.976V0h-2.54V-9.51h2.4l.07,1.134a2.354,2.354,0,0,1,2.118-1.31,2.662,2.662,0,0,1,.791.114ZM79.87,0a2.821,2.821,0,0,1-.255-.853,3.073,3.073,0,0,1-2.4,1.028A3.376,3.376,0,0,1,74.9-.633a2.6,2.6,0,0,1-.918-2.039A2.687,2.687,0,0,1,75.1-4.992,5.529,5.529,0,0,1,78.34-5.81h1.169v-.545a1.567,1.567,0,0,0-.338-1.055A1.331,1.331,0,0,0,78.1-7.8,1.513,1.513,0,0,0,77.1-7.5a1.045,1.045,0,0,0-.365.844h-2.54a2.551,2.551,0,0,1,.51-1.529,3.37,3.37,0,0,1,1.441-1.1,5.253,5.253,0,0,1,2.092-.4,4.15,4.15,0,0,1,2.791.883,3.09,3.09,0,0,1,1.033,2.483V-2.2a4.546,4.546,0,0,0,.378,2.048V0Zm-2.1-1.767a2.188,2.188,0,0,0,1.037-.25,1.645,1.645,0,0,0,.7-.672V-4.324H78.56q-1.907,0-2.03,1.318l-.009.149a1.017,1.017,0,0,0,.334.782A1.3,1.3,0,0,0,77.769-1.767Zm10.2-.105a1.666,1.666,0,0,0,1.143-.387,1.355,1.355,0,0,0,.457-1.028h2.382a3.258,3.258,0,0,1-.527,1.771A3.48,3.48,0,0,1,90-.268a4.442,4.442,0,0,1-1.991.444,4.129,4.129,0,0,1-3.217-1.3A5.13,5.13,0,0,1,83.614-4.7v-.167a5.071,5.071,0,0,1,1.169-3.507,4.08,4.08,0,0,1,3.208-1.31A4,4,0,0,1,90.851-8.67a3.594,3.594,0,0,1,1.094,2.7H89.564a1.745,1.745,0,0,0-.457-1.206,1.524,1.524,0,0,0-1.16-.464,1.53,1.53,0,0,0-1.34.647,3.749,3.749,0,0,0-.453,2.1v.264A3.8,3.8,0,0,0,86.6-2.515,1.549,1.549,0,0,0,87.964-1.872ZM96.077,0H93.528V-9.51h2.549Zm-2.7-11.971a1.251,1.251,0,0,1,.382-.94A1.436,1.436,0,0,1,94.8-13.28a1.44,1.44,0,0,1,1.037.369,1.244,1.244,0,0,1,.387.94,1.247,1.247,0,0,1-.391.949,1.443,1.443,0,0,1-1.033.369,1.443,1.443,0,0,1-1.033-.369A1.247,1.247,0,0,1,93.378-11.971Zm4.395,7.128a5.64,5.64,0,0,1,.545-2.522,3.989,3.989,0,0,1,1.569-1.714,4.577,4.577,0,0,1,2.377-.606,4.33,4.33,0,0,1,3.142,1.178,4.727,4.727,0,0,1,1.358,3.2l.018.65a4.97,4.97,0,0,1-1.222,3.511A4.247,4.247,0,0,1,102.282.176,4.268,4.268,0,0,1,99-1.143a5.058,5.058,0,0,1-1.226-3.586Zm2.54.18a3.555,3.555,0,0,0,.51,2.073,1.682,1.682,0,0,0,1.459.717,1.686,1.686,0,0,0,1.441-.709,3.89,3.89,0,0,0,.519-2.267,3.519,3.519,0,0,0-.519-2.06,1.686,1.686,0,0,0-1.459-.731,1.658,1.658,0,0,0-1.441.726A3.955,3.955,0,0,0,100.313-4.662Zm2.452-8.838h2.769L103.1-10.775h-2.065Zm7.919,3.99.079,1.1A3.32,3.32,0,0,1,113.5-9.686a2.759,2.759,0,0,1,2.25.888,4.142,4.142,0,0,1,.756,2.654V0h-2.54V-6.082a1.648,1.648,0,0,0-.352-1.173,1.574,1.574,0,0,0-1.169-.365,1.747,1.747,0,0,0-1.608.914V0h-2.54V-9.51Z" transform="translate(-1133.468 -6244.787)" fill="#12263f"/>
      <path id="Trazado_815383" data-name="Trazado 815383" d="M9.545-4.667A5.758,5.758,0,0,1,8.569-1.1,3.231,3.231,0,0,1,5.845.176a2.969,2.969,0,0,1-2.47-1.187L3.261,0H.976V-13.5h2.54v4.843A2.893,2.893,0,0,1,5.827-9.686,3.258,3.258,0,0,1,8.556-8.407a5.767,5.767,0,0,1,.989,3.6ZM7-4.852a3.783,3.783,0,0,0-.457-2.1A1.545,1.545,0,0,0,5.186-7.62a1.676,1.676,0,0,0-1.67.993v3.753a1.7,1.7,0,0,0,1.688,1A1.568,1.568,0,0,0,6.82-3.085,6.257,6.257,0,0,0,7-4.852Zm9.448-2.276a6.9,6.9,0,0,0-.914-.07,1.86,1.86,0,0,0-1.89.976V0h-2.54V-9.51h2.4l.07,1.134A2.354,2.354,0,0,1,15.7-9.686a2.662,2.662,0,0,1,.791.114ZM23.37-.967a3.185,3.185,0,0,1-2.6,1.143A3,3,0,0,1,18.435-.7a3.752,3.752,0,0,1-.822-2.575V-9.51h2.54v6.151q0,1.487,1.354,1.487a1.834,1.834,0,0,0,1.775-.9V-9.51h2.549V0H23.44Zm7.418-10.881V-9.51h1.626v1.863H30.788V-2.9a1.133,1.133,0,0,0,.2.756,1.015,1.015,0,0,0,.773.229,4.051,4.051,0,0,0,.747-.062V-.053a5.229,5.229,0,0,1-1.538.229,2.425,2.425,0,0,1-2.725-2.7V-7.646H26.859V-9.51h1.389v-2.338ZM39.34,0a2.821,2.821,0,0,1-.255-.853,3.073,3.073,0,0,1-2.4,1.028A3.376,3.376,0,0,1,34.37-.633a2.6,2.6,0,0,1-.918-2.039,2.687,2.687,0,0,1,1.121-2.32,5.529,5.529,0,0,1,3.239-.817h1.169v-.545a1.567,1.567,0,0,0-.338-1.055,1.331,1.331,0,0,0-1.068-.4,1.513,1.513,0,0,0-1.006.308,1.045,1.045,0,0,0-.365.844h-2.54a2.551,2.551,0,0,1,.51-1.529,3.37,3.37,0,0,1,1.441-1.1,5.253,5.253,0,0,1,2.092-.4A4.15,4.15,0,0,1,40.5-8.8a3.09,3.09,0,0,1,1.033,2.483V-2.2a4.546,4.546,0,0,0,.378,2.048V0Zm-2.1-1.767a2.188,2.188,0,0,0,1.037-.25,1.645,1.645,0,0,0,.7-.672V-4.324H38.03q-1.907,0-2.03,1.318l-.009.149a1.017,1.017,0,0,0,.334.782A1.3,1.3,0,0,0,37.239-1.767Z" transform="translate(-1093.468 -6223.187)" fill="#12263f"/>
      <path id="Trazado_815394" data-name="Trazado 815394" d="M6.407,0H4.772V-10.837l-3.278,1.2v-1.477l4.658-1.749h.255ZM18.932-9.457a2.972,2.972,0,0,1-.505,1.705A3.439,3.439,0,0,1,17.06-6.583a3.668,3.668,0,0,1,1.586,1.257,3.163,3.163,0,0,1,.584,1.872A3.344,3.344,0,0,1,18.11-.809a4.305,4.305,0,0,1-2.949.984A4.286,4.286,0,0,1,12.2-.813a3.36,3.36,0,0,1-1.112-2.641,3.257,3.257,0,0,1,.567-1.872,3.528,3.528,0,0,1,1.569-1.266,3.354,3.354,0,0,1-1.345-1.169,3.014,3.014,0,0,1-.492-1.7,3.308,3.308,0,0,1,1.037-2.566,3.89,3.89,0,0,1,2.733-.949,3.894,3.894,0,0,1,2.729.949A3.3,3.3,0,0,1,18.932-9.457ZM17.6-3.489a2.359,2.359,0,0,0-.681-1.749,2.416,2.416,0,0,0-1.78-.677,2.373,2.373,0,0,0-1.762.668,2.385,2.385,0,0,0-.664,1.758,2.271,2.271,0,0,0,.646,1.714,2.48,2.48,0,0,0,1.8.624,2.472,2.472,0,0,0,1.793-.628A2.266,2.266,0,0,0,17.6-3.489Zm-2.443-8.147a2.1,2.1,0,0,0-1.551.593,2.179,2.179,0,0,0-.593,1.613A2.169,2.169,0,0,0,13.6-7.853a2.074,2.074,0,0,0,1.56.6,2.074,2.074,0,0,0,1.56-.6,2.169,2.169,0,0,0,.584-1.578,2.17,2.17,0,0,0-.606-1.591A2.068,2.068,0,0,0,15.161-11.637ZM21.393,2.549l-.923-.633a4.241,4.241,0,0,0,.861-2.373V-1.925h1.591V-.65a4,4,0,0,1-.435,1.775A4.156,4.156,0,0,1,21.393,2.549ZM32.572-9.457a2.972,2.972,0,0,1-.505,1.705A3.439,3.439,0,0,1,30.7-6.583a3.668,3.668,0,0,1,1.586,1.257,3.163,3.163,0,0,1,.584,1.872A3.344,3.344,0,0,1,31.75-.809,4.305,4.305,0,0,1,28.8.176a4.286,4.286,0,0,1-2.958-.989,3.36,3.36,0,0,1-1.112-2.641A3.257,3.257,0,0,1,25.3-5.326a3.528,3.528,0,0,1,1.569-1.266,3.354,3.354,0,0,1-1.345-1.169,3.014,3.014,0,0,1-.492-1.7,3.308,3.308,0,0,1,1.037-2.566,3.89,3.89,0,0,1,2.733-.949,3.894,3.894,0,0,1,2.729.949A3.3,3.3,0,0,1,32.572-9.457ZM31.245-3.489a2.359,2.359,0,0,0-.681-1.749,2.416,2.416,0,0,0-1.78-.677,2.373,2.373,0,0,0-1.762.668,2.385,2.385,0,0,0-.664,1.758A2.271,2.271,0,0,0,27-1.775a2.48,2.48,0,0,0,1.8.624,2.472,2.472,0,0,0,1.793-.628A2.266,2.266,0,0,0,31.245-3.489ZM28.8-11.637a2.1,2.1,0,0,0-1.551.593,2.179,2.179,0,0,0-.593,1.613,2.169,2.169,0,0,0,.584,1.578,2.074,2.074,0,0,0,1.56.6,2.074,2.074,0,0,0,1.56-.6,2.169,2.169,0,0,0,.584-1.578,2.17,2.17,0,0,0-.606-1.591A2.068,2.068,0,0,0,28.8-11.637Zm13.931,5.6L44.842-9.51h1.9l-3.111,4.7L46.837,0H44.956l-2.2-3.56L40.562,0h-1.89L41.88-4.808l-3.111-4.7h1.881ZM58.1,0H56.461V-10.837l-3.278,1.2v-1.477l4.658-1.749H58.1ZM70.884-5.458a7.436,7.436,0,0,1-.976,4.245A3.47,3.47,0,0,1,66.858.176a3.5,3.5,0,0,1-3.032-1.358,7.058,7.058,0,0,1-1.02-4.056V-7.409a7.271,7.271,0,0,1,.976-4.192,3.5,3.5,0,0,1,3.059-1.371,3.528,3.528,0,0,1,3.041,1.323,7.017,7.017,0,0,1,1,4.083ZM69.258-7.682a5.958,5.958,0,0,0-.58-3.01,2,2,0,0,0-1.837-.945,1.97,1.97,0,0,0-1.819.94A5.817,5.817,0,0,0,64.433-7.8v2.6a6.053,6.053,0,0,0,.6,3.063,1.993,1.993,0,0,0,1.824.989,1.966,1.966,0,0,0,1.789-.932,5.834,5.834,0,0,0,.611-2.936ZM80.991-5.458a7.436,7.436,0,0,1-.976,4.245A3.47,3.47,0,0,1,76.966.176a3.5,3.5,0,0,1-3.032-1.358,7.058,7.058,0,0,1-1.02-4.056V-7.409A7.271,7.271,0,0,1,73.89-11.6a3.5,3.5,0,0,1,3.059-1.371,3.528,3.528,0,0,1,3.041,1.323,7.017,7.017,0,0,1,1,4.083ZM79.365-7.682a5.958,5.958,0,0,0-.58-3.01,2,2,0,0,0-1.837-.945,1.97,1.97,0,0,0-1.819.94A5.817,5.817,0,0,0,74.54-7.8v2.6a6.053,6.053,0,0,0,.6,3.063,1.993,1.993,0,0,0,1.824.989,1.966,1.966,0,0,0,1.789-.932,5.834,5.834,0,0,0,.611-2.936Z" transform="translate(-1253.341 -5901.348)" fill="#12263f"/>
      <path id="Trazado_815395" data-name="Trazado 815395" d="M9.448,0H1.063V-1.169l4.43-4.922A10.524,10.524,0,0,0,6.851-7.906a3.029,3.029,0,0,0,.374-1.446A2.3,2.3,0,0,0,6.618-11,2.12,2.12,0,0,0,5-11.637a2.511,2.511,0,0,0-1.885.69,2.635,2.635,0,0,0-.672,1.92H.817a3.774,3.774,0,0,1,1.138-2.856A4.219,4.219,0,0,1,5-12.973a4.054,4.054,0,0,1,2.821.936A3.193,3.193,0,0,1,8.859-9.545q0,1.89-2.408,4.5L3.023-1.327H9.448ZM17.4-5.625a3.978,3.978,0,0,1-1.217.976,3.3,3.3,0,0,1-1.551.369A3.41,3.41,0,0,1,12.7-4.825a3.543,3.543,0,0,1-1.27-1.534,5.229,5.229,0,0,1-.448-2.184,5.327,5.327,0,0,1,.488-2.312,3.583,3.583,0,0,1,1.384-1.573,3.947,3.947,0,0,1,2.092-.545,3.574,3.574,0,0,1,2.993,1.419,6.191,6.191,0,0,1,1.094,3.872v.475q0,3.735-1.477,5.454A5.673,5.673,0,0,1,13.1.009h-.316v-1.38h.343a4.476,4.476,0,0,0,3.094-1.048A4.5,4.5,0,0,0,17.4-5.625Zm-2.5,0a2.511,2.511,0,0,0,1.507-.5,2.953,2.953,0,0,0,1.006-1.239v-.65a4.474,4.474,0,0,0-.694-2.6,2.072,2.072,0,0,0-1.758-1,2.088,2.088,0,0,0-1.723.822,3.39,3.39,0,0,0-.65,2.167,3.528,3.528,0,0,0,.628,2.158A1.99,1.99,0,0,0,14.9-5.625Zm6.5,8.174-.923-.633a4.241,4.241,0,0,0,.861-2.373V-1.925h1.591V-.65a4,4,0,0,1-.435,1.775A4.156,4.156,0,0,1,21.393,2.549Zm5.783-9.738H28.4A2.685,2.685,0,0,0,30.208-7.8a2.026,2.026,0,0,0,.659-1.591,1.985,1.985,0,0,0-2.241-2.25,2.331,2.331,0,0,0-1.683.6,2.107,2.107,0,0,0-.628,1.6H24.688A3.264,3.264,0,0,1,25.8-11.966a4.05,4.05,0,0,1,2.826-1.006,4,4,0,0,1,2.839.958,3.461,3.461,0,0,1,1.028,2.663,2.809,2.809,0,0,1-.541,1.617A3.264,3.264,0,0,1,30.48-6.565a3.145,3.145,0,0,1,1.63,1.107,3.076,3.076,0,0,1,.576,1.89A3.491,3.491,0,0,1,31.562-.835,4.213,4.213,0,0,1,28.635.176,4.324,4.324,0,0,1,25.7-.8a3.236,3.236,0,0,1-1.129-2.575h1.635a2.092,2.092,0,0,0,.659,1.617,2.507,2.507,0,0,0,1.767.606,2.46,2.46,0,0,0,1.8-.615,2.371,2.371,0,0,0,.624-1.767,2.151,2.151,0,0,0-.686-1.714A2.987,2.987,0,0,0,28.4-5.862H27.176Z" transform="translate(-1229.341 -5874.798)" fill="#12263f"/>
      <text id="_" data-name="=  " transform="translate(-1161.228 -5893.176)" fill="#12263f" font-size="18" font-family="Roboto-Regular, Roboto"><tspan x="0" y="0" xml:space="preserve">=  </tspan></text>
      <path id="Trazado_815396" data-name="Trazado 815396" d="M21.208-12.929v2.092h-.246a4.315,4.315,0,0,0-2.773.9,3.642,3.642,0,0,0-1.261,2.417A3.46,3.46,0,0,1,19.5-8.561a3.26,3.26,0,0,1,2.654,1.2,4.792,4.792,0,0,1,.984,3.146A4.713,4.713,0,0,1,22.6-1.96,3.877,3.877,0,0,1,21.072-.387a4.443,4.443,0,0,1-2.237.563A4.15,4.15,0,0,1,15.57-1.23a5.459,5.459,0,0,1-1.244-3.753V-5.9a8.215,8.215,0,0,1,.787-3.678,5.768,5.768,0,0,1,2.259-2.47,6.619,6.619,0,0,1,3.415-.883ZM18.729-6.513a2.029,2.029,0,0,0-1.116.32,1.929,1.929,0,0,0-.738.847v.772a3.42,3.42,0,0,0,.5,1.987,1.619,1.619,0,0,0,1.406.715A1.6,1.6,0,0,0,20.1-2.517a2.63,2.63,0,0,0,.505-1.671,2.625,2.625,0,0,0-.51-1.684A1.661,1.661,0,0,0,18.729-6.513Zm13.43,1.7h1.45v2.048h-1.45V0h-2.54V-2.769H24.372l-.114-1.6L29.593-12.8h2.566Zm-5.37,0h2.83V-9.334l-.167.29Zm8.947,8.024-1.327-.694.316-.571a4.567,4.567,0,0,0,.606-2.136V-2.162h2.145L37.468-.4a4.566,4.566,0,0,1-.492,1.969A5.047,5.047,0,0,1,35.736,3.208ZM48.138,0H39.366V-1.74l4.14-4.412a10.212,10.212,0,0,0,1.261-1.626A2.612,2.612,0,0,0,45.176-9.1a1.955,1.955,0,0,0-.431-1.34,1.555,1.555,0,0,0-1.23-.488,1.677,1.677,0,0,0-1.358.593,2.35,2.35,0,0,0-.5,1.56H39.111a4.2,4.2,0,0,1,.558-2.136,3.934,3.934,0,0,1,1.578-1.516,4.8,4.8,0,0,1,2.312-.549,4.54,4.54,0,0,1,3.072.949,3.358,3.358,0,0,1,1.094,2.681,4.3,4.3,0,0,1-.492,1.934,10.745,10.745,0,0,1-1.687,2.294L42.636-2.048h5.5Zm1.521-10.336a2.53,2.53,0,0,1,.765-1.912,2.773,2.773,0,0,1,2-.734,2.817,2.817,0,0,1,2.021.725,2.578,2.578,0,0,1,.765,1.964v.633a2.5,2.5,0,0,1-.765,1.907,2.8,2.8,0,0,1-2,.721,2.82,2.82,0,0,1-2.017-.725,2.559,2.559,0,0,1-.769-1.956Zm1.688.677a1.184,1.184,0,0,0,.3.848,1.044,1.044,0,0,0,.8.321,1,1,0,0,0,.782-.325,1.259,1.259,0,0,0,.29-.87v-.65a1.233,1.233,0,0,0-.29-.853,1.017,1.017,0,0,0-.8-.325,1.019,1.019,0,0,0-.782.321,1.258,1.258,0,0,0-.3.892Zm4.43,6.521a2.5,2.5,0,0,1,.773-1.912,2.812,2.812,0,0,1,2-.725,2.841,2.841,0,0,1,2.017.716,2.564,2.564,0,0,1,.769,1.973v.633a2.517,2.517,0,0,1-.756,1.9A2.786,2.786,0,0,1,58.57.176a2.819,2.819,0,0,1-2.03-.729,2.548,2.548,0,0,1-.765-1.934Zm1.688.686a1.175,1.175,0,0,0,.316.826,1.032,1.032,0,0,0,.791.343q1.072,0,1.072-1.187v-.668a1.194,1.194,0,0,0-.3-.848,1.03,1.03,0,0,0-.791-.321,1.03,1.03,0,0,0-.791.321,1.232,1.232,0,0,0-.3.875ZM52.945-.958l-1.239-.668,6.249-10,1.239.668Z" transform="translate(-1151.728 -5893.176)" fill="#12263f"/>
      <line id="L칤nea_801" data-name="L칤nea 801" x2="85" transform="translate(-1252.841 -5896.5)" fill="none" stroke="#12263f" stroke-miterlimit="10" stroke-width="1"/>
      <text id="_2" data-name="=  " transform="translate(-980.196 -5893.169)" fill="#12263f" font-size="18" font-family="Roboto-Regular, Roboto"><tspan x="0" y="0" xml:space="preserve">=  </tspan></text>
      <path id="Trazado_815399" data-name="Trazado 815399" d="M12.419-7.523h1.354a1.907,1.907,0,0,0,1.433-.483,1.771,1.771,0,0,0,.466-1.283,1.566,1.566,0,0,0-.461-1.2,1.788,1.788,0,0,0-1.27-.431,1.874,1.874,0,0,0-1.222.4,1.279,1.279,0,0,0-.492,1.042H9.686a3.124,3.124,0,0,1,.541-1.8,3.6,3.6,0,0,1,1.512-1.244,5.045,5.045,0,0,1,2.14-.448A4.785,4.785,0,0,1,17.06-12a3.314,3.314,0,0,1,1.151,2.676,2.693,2.693,0,0,1-.536,1.617,3.483,3.483,0,0,1-1.406,1.134,3.18,3.18,0,0,1,1.613,1.16,3.147,3.147,0,0,1,.532,1.828A3.369,3.369,0,0,1,17.169-.853,5,5,0,0,1,13.878.176,4.741,4.741,0,0,1,10.745-.835,3.3,3.3,0,0,1,9.527-3.507h2.54a1.472,1.472,0,0,0,.541,1.178,1.992,1.992,0,0,0,1.332.457,2,2,0,0,0,1.419-.479,1.654,1.654,0,0,0,.514-1.27q0-1.916-2.109-1.916H12.419Zm8.121,1.23.738-6.5H28.45v2.118H23.361l-.316,2.751a4.027,4.027,0,0,1,1.925-.483,3.689,3.689,0,0,1,2.865,1.134A4.529,4.529,0,0,1,28.872-4.1a4.64,4.64,0,0,1-.523,2.219,3.691,3.691,0,0,1-1.5,1.521,4.678,4.678,0,0,1-2.3.541,4.968,4.968,0,0,1-2.153-.47,3.819,3.819,0,0,1-1.569-1.323,3.605,3.605,0,0,1-.611-1.942h2.514a1.878,1.878,0,0,0,.558,1.244,1.769,1.769,0,0,0,1.252.444,1.562,1.562,0,0,0,1.327-.62,2.87,2.87,0,0,0,.466-1.753,2.374,2.374,0,0,0-.536-1.67,1.967,1.967,0,0,0-1.521-.58,2.2,2.2,0,0,0-1.468.475l-.246.229Zm10.714,9.5-1.327-.694.316-.571A4.567,4.567,0,0,0,30.85-.193V-2.162h2.145L32.985-.4a4.566,4.566,0,0,1-.492,1.969A5.047,5.047,0,0,1,31.254,3.208ZM43.225-9.4a2.977,2.977,0,0,1-.466,1.652,3.353,3.353,0,0,1-1.283,1.151,3.711,3.711,0,0,1,1.477,1.235,3.168,3.168,0,0,1,.545,1.85,3.354,3.354,0,0,1-1.16,2.694,4.706,4.706,0,0,1-3.155.989,4.727,4.727,0,0,1-3.164-.993,3.346,3.346,0,0,1-1.169-2.689,3.188,3.188,0,0,1,.545-1.854,3.644,3.644,0,0,1,1.468-1.23,3.318,3.318,0,0,1-1.279-1.151A3,3,0,0,1,35.121-9.4,3.317,3.317,0,0,1,36.211-12a4.291,4.291,0,0,1,2.962-.971,4.319,4.319,0,0,1,2.958.962A3.3,3.3,0,0,1,43.225-9.4Zm-2.276,5.7a1.843,1.843,0,0,0-.483-1.336,1.724,1.724,0,0,0-1.3-.5,1.72,1.72,0,0,0-1.292.5,1.839,1.839,0,0,0-.483,1.34,1.838,1.838,0,0,0,.475,1.318,1.729,1.729,0,0,0,1.318.5,1.725,1.725,0,0,0,1.3-.483A1.835,1.835,0,0,0,40.948-3.691Zm-.264-5.581a1.758,1.758,0,0,0-.4-1.2,1.4,1.4,0,0,0-1.116-.453,1.413,1.413,0,0,0-1.107.439,1.748,1.748,0,0,0-.4,1.213,1.837,1.837,0,0,0,.4,1.23,1.384,1.384,0,0,0,1.116.466,1.371,1.371,0,0,0,1.112-.466A1.85,1.85,0,0,0,40.685-9.272Zm4.491-1.063a2.53,2.53,0,0,1,.765-1.912,2.773,2.773,0,0,1,2-.734,2.817,2.817,0,0,1,2.021.725,2.578,2.578,0,0,1,.765,1.964v.633a2.5,2.5,0,0,1-.765,1.907,2.8,2.8,0,0,1-2,.721,2.82,2.82,0,0,1-2.017-.725,2.559,2.559,0,0,1-.769-1.956Zm1.688.677a1.184,1.184,0,0,0,.3.848,1.044,1.044,0,0,0,.8.321,1,1,0,0,0,.782-.325,1.259,1.259,0,0,0,.29-.87v-.65a1.233,1.233,0,0,0-.29-.853,1.017,1.017,0,0,0-.8-.325,1.019,1.019,0,0,0-.782.321,1.258,1.258,0,0,0-.3.892Zm4.43,6.521a2.5,2.5,0,0,1,.773-1.912,2.812,2.812,0,0,1,2-.725,2.841,2.841,0,0,1,2.017.716,2.564,2.564,0,0,1,.769,1.973v.633a2.517,2.517,0,0,1-.756,1.9,2.786,2.786,0,0,1-2.013.725,2.819,2.819,0,0,1-2.03-.729,2.548,2.548,0,0,1-.765-1.934Zm1.688.686a1.175,1.175,0,0,0,.316.826,1.032,1.032,0,0,0,.791.343q1.072,0,1.072-1.187v-.668a1.194,1.194,0,0,0-.3-.848,1.03,1.03,0,0,0-.791-.321,1.03,1.03,0,0,0-.791.321,1.232,1.232,0,0,0-.3.875ZM48.463-.958l-1.239-.668,6.249-10,1.239.668Z" transform="translate(-972.404 -5893.169)" fill="#12263f"/>
      <path id="Trazado_815398" data-name="Trazado 815398" d="M9.448,0H1.063V-1.169l4.43-4.922A10.524,10.524,0,0,0,6.851-7.906a3.029,3.029,0,0,0,.374-1.446A2.3,2.3,0,0,0,6.618-11,2.12,2.12,0,0,0,5-11.637a2.511,2.511,0,0,0-1.885.69,2.635,2.635,0,0,0-.672,1.92H.817a3.774,3.774,0,0,1,1.138-2.856A4.219,4.219,0,0,1,5-12.973a4.054,4.054,0,0,1,2.821.936A3.193,3.193,0,0,1,8.859-9.545q0,1.89-2.408,4.5L3.023-1.327H9.448ZM17.4-5.625a3.978,3.978,0,0,1-1.217.976,3.3,3.3,0,0,1-1.551.369A3.41,3.41,0,0,1,12.7-4.825a3.543,3.543,0,0,1-1.27-1.534,5.229,5.229,0,0,1-.448-2.184,5.327,5.327,0,0,1,.488-2.312,3.583,3.583,0,0,1,1.384-1.573,3.947,3.947,0,0,1,2.092-.545,3.574,3.574,0,0,1,2.993,1.419,6.191,6.191,0,0,1,1.094,3.872v.475q0,3.735-1.477,5.454A5.673,5.673,0,0,1,13.1.009h-.316v-1.38h.343a4.476,4.476,0,0,0,3.094-1.048A4.5,4.5,0,0,0,17.4-5.625Zm-2.5,0a2.511,2.511,0,0,0,1.507-.5,2.953,2.953,0,0,0,1.006-1.239v-.65a4.474,4.474,0,0,0-.694-2.6,2.072,2.072,0,0,0-1.758-1,2.088,2.088,0,0,0-1.723.822,3.39,3.39,0,0,0-.65,2.167,3.528,3.528,0,0,0,.628,2.158A1.99,1.99,0,0,0,14.9-5.625Zm6.5,8.174-.923-.633a4.241,4.241,0,0,0,.861-2.373V-1.925h1.591V-.65a4,4,0,0,1-.435,1.775A4.156,4.156,0,0,1,21.393,2.549Zm5.783-9.738H28.4A2.685,2.685,0,0,0,30.208-7.8a2.026,2.026,0,0,0,.659-1.591,1.985,1.985,0,0,0-2.241-2.25,2.331,2.331,0,0,0-1.683.6,2.107,2.107,0,0,0-.628,1.6H24.688A3.264,3.264,0,0,1,25.8-11.966a4.05,4.05,0,0,1,2.826-1.006,4,4,0,0,1,2.839.958,3.461,3.461,0,0,1,1.028,2.663,2.809,2.809,0,0,1-.541,1.617A3.264,3.264,0,0,1,30.48-6.565a3.145,3.145,0,0,1,1.63,1.107,3.076,3.076,0,0,1,.576,1.89A3.491,3.491,0,0,1,31.562-.835,4.213,4.213,0,0,1,28.635.176,4.324,4.324,0,0,1,25.7-.8a3.236,3.236,0,0,1-1.129-2.575h1.635a2.092,2.092,0,0,0,.659,1.617,2.507,2.507,0,0,0,1.767.606,2.46,2.46,0,0,0,1.8-.615,2.371,2.371,0,0,0,.624-1.767,2.151,2.151,0,0,0-.686-1.714A2.987,2.987,0,0,0,28.4-5.862H27.176Z" transform="translate(-1041.655 -5874.791)" fill="#12263f"/>
      <path id="Trazado_815397" data-name="Trazado 815397" d="M6.407,0H4.772V-10.837l-3.278,1.2v-1.477l4.658-1.749h.255ZM19.2-5.458a7.436,7.436,0,0,1-.976,4.245A3.47,3.47,0,0,1,15.17.176a3.5,3.5,0,0,1-3.032-1.358,7.058,7.058,0,0,1-1.02-4.056V-7.409a7.271,7.271,0,0,1,.976-4.192,3.5,3.5,0,0,1,3.059-1.371,3.528,3.528,0,0,1,3.041,1.323,7.017,7.017,0,0,1,1,4.083ZM17.569-7.682a5.958,5.958,0,0,0-.58-3.01,2,2,0,0,0-1.837-.945,1.97,1.97,0,0,0-1.819.94A5.817,5.817,0,0,0,12.744-7.8v2.6a6.053,6.053,0,0,0,.6,3.063,1.993,1.993,0,0,0,1.824.989,1.966,1.966,0,0,0,1.789-.932,5.834,5.834,0,0,0,.611-2.936Zm3.823,10.23-.923-.633a4.241,4.241,0,0,0,.861-2.373V-1.925h1.591V-.65a4,4,0,0,1-.435,1.775A4.156,4.156,0,0,1,21.393,2.549Zm4.166-8.965.65-6.381h6.557v1.5H27.589L27.2-7.8a4.13,4.13,0,0,1,2.136-.554A3.531,3.531,0,0,1,32.115-7.2a4.53,4.53,0,0,1,1.028,3.125A4.372,4.372,0,0,1,32.076-.962,3.892,3.892,0,0,1,29.092.176a4.045,4.045,0,0,1-2.769-.94,3.754,3.754,0,0,1-1.222-2.6H26.64a2.582,2.582,0,0,0,.782,1.657,2.432,2.432,0,0,0,1.67.558,2.194,2.194,0,0,0,1.78-.773,3.233,3.233,0,0,0,.646-2.136,2.968,2.968,0,0,0-.7-2.061A2.377,2.377,0,0,0,28.96-6.9a2.681,2.681,0,0,0-1.67.466l-.431.352Zm17.174.378L44.842-9.51h1.9l-3.111,4.7L46.837,0H44.956l-2.2-3.56L40.562,0h-1.89L41.88-4.808l-3.111-4.7h1.881ZM58.1,0H56.461V-10.837l-3.278,1.2v-1.477l4.658-1.749H58.1ZM70.884-5.458a7.436,7.436,0,0,1-.976,4.245A3.47,3.47,0,0,1,66.858.176a3.5,3.5,0,0,1-3.032-1.358,7.058,7.058,0,0,1-1.02-4.056V-7.409a7.271,7.271,0,0,1,.976-4.192,3.5,3.5,0,0,1,3.059-1.371,3.528,3.528,0,0,1,3.041,1.323,7.017,7.017,0,0,1,1,4.083ZM69.258-7.682a5.958,5.958,0,0,0-.58-3.01,2,2,0,0,0-1.837-.945,1.97,1.97,0,0,0-1.819.94A5.817,5.817,0,0,0,64.433-7.8v2.6a6.053,6.053,0,0,0,.6,3.063,1.993,1.993,0,0,0,1.824.989,1.966,1.966,0,0,0,1.789-.932,5.834,5.834,0,0,0,.611-2.936ZM80.991-5.458a7.436,7.436,0,0,1-.976,4.245A3.47,3.47,0,0,1,76.966.176a3.5,3.5,0,0,1-3.032-1.358,7.058,7.058,0,0,1-1.02-4.056V-7.409A7.271,7.271,0,0,1,73.89-11.6a3.5,3.5,0,0,1,3.059-1.371,3.528,3.528,0,0,1,3.041,1.323,7.017,7.017,0,0,1,1,4.083ZM79.365-7.682a5.958,5.958,0,0,0-.58-3.01,2,2,0,0,0-1.837-.945,1.97,1.97,0,0,0-1.819.94A5.817,5.817,0,0,0,74.54-7.8v2.6a6.053,6.053,0,0,0,.6,3.063,1.993,1.993,0,0,0,1.824.989,1.966,1.966,0,0,0,1.789-.932,5.834,5.834,0,0,0,.611-2.936Z" transform="translate(-1066.459 -5901.341)" fill="#12263f"/>
      <line id="L칤nea_802" data-name="L칤nea 802" x2="82" transform="translate(-1066.149 -5896.5)" fill="none" stroke="#12263f" stroke-miterlimit="10" stroke-width="1"/>
      <g id="Grupo_1071180" data-name="Grupo 1071180" transform="translate(461.913 -834)">
        <line id="L칤nea_804" data-name="L칤nea 804" x2="57.016" y2="31.134" transform="translate(-1627.099 -5300.184)" fill="none" stroke="#12263f" stroke-linecap="round" stroke-linejoin="round" stroke-width="2"/>
        <path id="Trazado_278538" data-name="Trazado 278538" d="M284.306,156.752c-.833-2.836.274-6.94,1.576-9.5a27.267,27.267,0,0,0,5.38,13.295c-4.818-.577-9.648.842-14.093,2.661,1.688-2.577,4.132-5.488,7.137-6.46" transform="translate(-1855.095 -5426.187)" fill="#12263f"/>
        <line id="L칤nea_807" data-name="L칤nea 807" y1="39.086" x2="51.889" transform="translate(-1621.24 -5221.565)" fill="none" stroke="#12263f" stroke-linecap="round" stroke-linejoin="round" stroke-width="2"/>
        <path id="Trazado_278541" data-name="Trazado 278541" d="M285.1,205.106c-2.927-.412-6.209-3.114-8-5.354a27.262,27.262,0,0,0,14.33.585c-2.514,4.151-3.215,9.136-3.392,13.936-1.651-2.6-3.294-6.029-2.939-9.167" transform="translate(-1855.095 -5426.187)" fill="#12263f"/>
      </g>
      <g id="Grupo_1071181" data-name="Grupo 1071181" transform="translate(416.194 -834)">
        <line id="L칤nea_805" data-name="L칤nea 805" x2="57.016" y2="31.134" transform="translate(-1462.682 -5221.438)" fill="none" stroke="#12263f" stroke-linecap="round" stroke-linejoin="round" stroke-width="2"/>
        <path id="Trazado_278539" data-name="Trazado 278539" d="M418.44,235.5c-.833-2.836.274-6.94,1.576-9.5A27.267,27.267,0,0,0,425.4,239.3c-4.818-.577-9.648.842-14.093,2.661,1.688-2.577,4.132-5.488,7.137-6.46" transform="translate(-1824.813 -5426.187)" fill="#12263f"/>
        <line id="L칤nea_808" data-name="L칤nea 808" y1="39.086" x2="51.889" transform="translate(-1459.838 -5300.311)" fill="none" stroke="#12263f" stroke-linecap="round" stroke-linejoin="round" stroke-width="2"/>
        <path id="Trazado_278542" data-name="Trazado 278542" d="M416.221,126.36c-2.927-.412-6.209-3.114-8-5.353a27.272,27.272,0,0,0,14.33.584c-2.514,4.151-3.215,9.136-3.392,13.936-1.651-2.6-3.294-6.029-2.939-9.167" transform="translate(-1824.813 -5426.187)" fill="#12263f"/>
      </g>
      <rect id="Rect치ngulo_376058" data-name="Rect치ngulo 376058" width="438" height="251" transform="translate(-1319 -5843)" fill="#fff"/>
      <path id="Trazado_815402" data-name="Trazado 815402" d="M6.407,0H4.772V-10.837l-3.278,1.2v-1.477l4.658-1.749h.255ZM18.932-9.457a2.972,2.972,0,0,1-.505,1.705A3.439,3.439,0,0,1,17.06-6.583a3.668,3.668,0,0,1,1.586,1.257,3.163,3.163,0,0,1,.584,1.872A3.344,3.344,0,0,1,18.11-.809a4.305,4.305,0,0,1-2.949.984A4.286,4.286,0,0,1,12.2-.813a3.36,3.36,0,0,1-1.112-2.641,3.257,3.257,0,0,1,.567-1.872,3.528,3.528,0,0,1,1.569-1.266,3.354,3.354,0,0,1-1.345-1.169,3.014,3.014,0,0,1-.492-1.7,3.308,3.308,0,0,1,1.037-2.566,3.89,3.89,0,0,1,2.733-.949,3.894,3.894,0,0,1,2.729.949A3.3,3.3,0,0,1,18.932-9.457ZM17.6-3.489a2.359,2.359,0,0,0-.681-1.749,2.416,2.416,0,0,0-1.78-.677,2.373,2.373,0,0,0-1.762.668,2.385,2.385,0,0,0-.664,1.758,2.271,2.271,0,0,0,.646,1.714,2.48,2.48,0,0,0,1.8.624,2.472,2.472,0,0,0,1.793-.628A2.266,2.266,0,0,0,17.6-3.489Zm-2.443-8.147a2.1,2.1,0,0,0-1.551.593,2.179,2.179,0,0,0-.593,1.613A2.169,2.169,0,0,0,13.6-7.853a2.074,2.074,0,0,0,1.56.6,2.074,2.074,0,0,0,1.56-.6,2.169,2.169,0,0,0,.584-1.578,2.17,2.17,0,0,0-.606-1.591A2.068,2.068,0,0,0,15.161-11.637ZM29.285-4.772H25V-6.1h4.289Zm14.133-7.11L38.118,0H36.413L41.7-11.461H34.77V-12.8h8.648Zm1.96,14.432-.923-.633a4.241,4.241,0,0,0,.861-2.373V-1.925h1.591V-.65a4,4,0,0,1-.435,1.775A4.156,4.156,0,0,1,45.378,2.549Zm4.166-8.965.65-6.381h6.557v1.5H51.574L51.188-7.8a4.13,4.13,0,0,1,2.136-.554A3.531,3.531,0,0,1,56.1-7.2a4.53,4.53,0,0,1,1.028,3.125A4.372,4.372,0,0,1,56.061-.962,3.892,3.892,0,0,1,53.077.176a4.045,4.045,0,0,1-2.769-.94,3.754,3.754,0,0,1-1.222-2.6h1.538a2.582,2.582,0,0,0,.782,1.657,2.432,2.432,0,0,0,1.67.558,2.194,2.194,0,0,0,1.78-.773A3.233,3.233,0,0,0,55.5-4.061a2.968,2.968,0,0,0-.7-2.061A2.377,2.377,0,0,0,52.945-6.9a2.681,2.681,0,0,0-1.67.466l-.431.352Zm21.419-.738h-7.33V-8.569h7.33Zm0,3.647h-7.33V-4.913h7.33ZM83.039,0H81.4V-10.837l-3.278,1.2v-1.477l4.658-1.749h.255ZM95.827-5.458a7.436,7.436,0,0,1-.976,4.245A3.47,3.47,0,0,1,91.8.176,3.5,3.5,0,0,1,88.77-1.182a7.058,7.058,0,0,1-1.02-4.056V-7.409a7.271,7.271,0,0,1,.976-4.192,3.5,3.5,0,0,1,3.059-1.371,3.528,3.528,0,0,1,3.041,1.323,7.017,7.017,0,0,1,1,4.083ZM94.2-7.682a5.958,5.958,0,0,0-.58-3.01,2,2,0,0,0-1.837-.945,1.97,1.97,0,0,0-1.819.94A5.817,5.817,0,0,0,89.376-7.8v2.6a6.053,6.053,0,0,0,.6,3.063,1.993,1.993,0,0,0,1.824.989,1.966,1.966,0,0,0,1.789-.932A5.834,5.834,0,0,0,94.2-5.019Zm3.823,10.23L97.1,1.916a4.241,4.241,0,0,0,.861-2.373V-1.925h1.591V-.65a4,4,0,0,1-.435,1.775A4.156,4.156,0,0,1,98.024,2.549Zm4.166-8.965.65-6.381H109.4v1.5h-5.177L103.834-7.8a4.13,4.13,0,0,1,2.136-.554A3.531,3.531,0,0,1,108.747-7.2a4.53,4.53,0,0,1,1.028,3.125,4.372,4.372,0,0,1-1.068,3.116A3.892,3.892,0,0,1,105.724.176a4.045,4.045,0,0,1-2.769-.94,3.754,3.754,0,0,1-1.222-2.6h1.538a2.582,2.582,0,0,0,.782,1.657,2.432,2.432,0,0,0,1.67.558,2.194,2.194,0,0,0,1.78-.773,3.233,3.233,0,0,0,.646-2.136,2.968,2.968,0,0,0-.7-2.061,2.377,2.377,0,0,0-1.859-.778,2.681,2.681,0,0,0-1.67.466l-.431.352Z" transform="translate(-1156.696 -5739.926)" fill="#12263f"/>
      <path id="Trazado_815405" data-name="Trazado 815405" d="M3.428-7.189H4.649A2.685,2.685,0,0,0,6.46-7.8a2.026,2.026,0,0,0,.659-1.591,1.985,1.985,0,0,0-2.241-2.25,2.331,2.331,0,0,0-1.683.6,2.107,2.107,0,0,0-.628,1.6H.94a3.264,3.264,0,0,1,1.112-2.527,4.05,4.05,0,0,1,2.826-1.006,4,4,0,0,1,2.839.958A3.461,3.461,0,0,1,8.745-9.352,2.809,2.809,0,0,1,8.2-7.734,3.264,3.264,0,0,1,6.732-6.565a3.145,3.145,0,0,1,1.63,1.107,3.076,3.076,0,0,1,.576,1.89A3.491,3.491,0,0,1,7.813-.835,4.213,4.213,0,0,1,4.887.176,4.324,4.324,0,0,1,1.956-.8,3.236,3.236,0,0,1,.826-3.375H2.461A2.092,2.092,0,0,0,3.12-1.758a2.507,2.507,0,0,0,1.767.606,2.46,2.46,0,0,0,1.8-.615,2.371,2.371,0,0,0,.624-1.767,2.151,2.151,0,0,0-.686-1.714,2.987,2.987,0,0,0-1.978-.615H3.428Zm14.124-5.616v1.38h-.3A4.281,4.281,0,0,0,14.229-10.3a4.681,4.681,0,0,0-1.3,3.067,3.471,3.471,0,0,1,2.76-1.16,3.319,3.319,0,0,1,2.667,1.178,4.543,4.543,0,0,1,1,3.041,4.528,4.528,0,0,1-1.077,3.164A3.707,3.707,0,0,1,15.39.176,3.653,3.653,0,0,1,12.41-1.235a5.591,5.591,0,0,1-1.143-3.634v-.624a8.424,8.424,0,0,1,1.507-5.4,5.536,5.536,0,0,1,4.487-1.912ZM15.416-7.04a2.594,2.594,0,0,0-1.538.5A2.61,2.61,0,0,0,12.9-5.282v.6a4.2,4.2,0,0,0,.712,2.549,2.133,2.133,0,0,0,1.775.967,2.067,2.067,0,0,0,1.727-.809A3.355,3.355,0,0,0,17.745-4.1a3.356,3.356,0,0,0-.637-2.131A2.042,2.042,0,0,0,15.416-7.04Zm5.977,9.589-.923-.633a4.241,4.241,0,0,0,.861-2.373V-1.925h1.591V-.65a4,4,0,0,1-.435,1.775A4.156,4.156,0,0,1,21.393,2.549ZM32.572-9.457a2.972,2.972,0,0,1-.505,1.705A3.439,3.439,0,0,1,30.7-6.583a3.668,3.668,0,0,1,1.586,1.257,3.163,3.163,0,0,1,.584,1.872A3.344,3.344,0,0,1,31.75-.809,4.305,4.305,0,0,1,28.8.176a4.286,4.286,0,0,1-2.958-.989,3.36,3.36,0,0,1-1.112-2.641A3.257,3.257,0,0,1,25.3-5.326a3.528,3.528,0,0,1,1.569-1.266,3.354,3.354,0,0,1-1.345-1.169,3.014,3.014,0,0,1-.492-1.7,3.308,3.308,0,0,1,1.037-2.566,3.89,3.89,0,0,1,2.733-.949,3.894,3.894,0,0,1,2.729.949A3.3,3.3,0,0,1,32.572-9.457ZM31.245-3.489a2.359,2.359,0,0,0-.681-1.749,2.416,2.416,0,0,0-1.78-.677,2.373,2.373,0,0,0-1.762.668,2.385,2.385,0,0,0-.664,1.758A2.271,2.271,0,0,0,27-1.775a2.48,2.48,0,0,0,1.8.624,2.472,2.472,0,0,0,1.793-.628A2.266,2.266,0,0,0,31.245-3.489ZM28.8-11.637a2.1,2.1,0,0,0-1.551.593,2.179,2.179,0,0,0-.593,1.613,2.169,2.169,0,0,0,.584,1.578,2.074,2.074,0,0,0,1.56.6,2.074,2.074,0,0,0,1.56-.6,2.169,2.169,0,0,0,.584-1.578,2.17,2.17,0,0,0-.606-1.591A2.068,2.068,0,0,0,28.8-11.637ZM42.943-5.458a7.436,7.436,0,0,1-.976,4.245A3.47,3.47,0,0,1,38.918.176a3.5,3.5,0,0,1-3.032-1.358,7.058,7.058,0,0,1-1.02-4.056V-7.409a7.271,7.271,0,0,1,.976-4.192A3.5,3.5,0,0,1,38.9-12.973a3.528,3.528,0,0,1,3.041,1.323,7.017,7.017,0,0,1,1,4.083ZM41.317-7.682a5.958,5.958,0,0,0-.58-3.01,2,2,0,0,0-1.837-.945,1.97,1.97,0,0,0-1.819.94A5.817,5.817,0,0,0,36.492-7.8v2.6a6.053,6.053,0,0,0,.6,3.063,1.993,1.993,0,0,0,1.824.989,1.966,1.966,0,0,0,1.789-.932,5.834,5.834,0,0,0,.611-2.936ZM53.033-4.772H48.744V-6.1h4.289ZM64.248,0H62.613V-10.837l-3.278,1.2v-1.477l4.658-1.749h.255ZM76.772-9.457a2.972,2.972,0,0,1-.505,1.705A3.439,3.439,0,0,1,74.9-6.583a3.668,3.668,0,0,1,1.586,1.257,3.163,3.163,0,0,1,.584,1.872A3.344,3.344,0,0,1,75.951-.809,4.305,4.305,0,0,1,73,.176a4.286,4.286,0,0,1-2.958-.989,3.36,3.36,0,0,1-1.112-2.641A3.257,3.257,0,0,1,69.5-5.326a3.528,3.528,0,0,1,1.569-1.266,3.354,3.354,0,0,1-1.345-1.169,3.014,3.014,0,0,1-.492-1.7,3.308,3.308,0,0,1,1.037-2.566A3.89,3.89,0,0,1,73-12.973a3.894,3.894,0,0,1,2.729.949A3.3,3.3,0,0,1,76.772-9.457ZM75.445-3.489a2.359,2.359,0,0,0-.681-1.749,2.416,2.416,0,0,0-1.78-.677,2.373,2.373,0,0,0-1.762.668,2.385,2.385,0,0,0-.664,1.758A2.271,2.271,0,0,0,71.2-1.775a2.48,2.48,0,0,0,1.8.624,2.472,2.472,0,0,0,1.793-.628A2.266,2.266,0,0,0,75.445-3.489ZM73-11.637a2.1,2.1,0,0,0-1.551.593,2.179,2.179,0,0,0-.593,1.613,2.169,2.169,0,0,0,.584,1.578,2.074,2.074,0,0,0,1.56.6,2.074,2.074,0,0,0,1.56-.6,2.169,2.169,0,0,0,.584-1.578,2.17,2.17,0,0,0-.606-1.591A2.068,2.068,0,0,0,73-11.637ZM91.178-7.154h-7.33V-8.569h7.33Zm0,3.647h-7.33V-4.913h7.33ZM103.254,0h-1.635V-10.837l-3.278,1.2v-1.477L103-12.858h.255Zm12.524-9.457a2.972,2.972,0,0,1-.505,1.705,3.439,3.439,0,0,1-1.367,1.169,3.668,3.668,0,0,1,1.586,1.257,3.163,3.163,0,0,1,.584,1.872,3.344,3.344,0,0,1-1.121,2.646,4.305,4.305,0,0,1-2.949.984,4.286,4.286,0,0,1-2.958-.989,3.36,3.36,0,0,1-1.112-2.641,3.257,3.257,0,0,1,.567-1.872,3.528,3.528,0,0,1,1.569-1.266,3.354,3.354,0,0,1-1.345-1.169,3.014,3.014,0,0,1-.492-1.7,3.308,3.308,0,0,1,1.037-2.566,3.89,3.89,0,0,1,2.733-.949,3.894,3.894,0,0,1,2.729.949A3.3,3.3,0,0,1,115.778-9.457Zm-1.327,5.968a2.359,2.359,0,0,0-.681-1.749,2.416,2.416,0,0,0-1.78-.677,2.373,2.373,0,0,0-1.762.668,2.385,2.385,0,0,0-.664,1.758,2.271,2.271,0,0,0,.646,1.714,2.48,2.48,0,0,0,1.8.624A2.472,2.472,0,0,0,113.8-1.78,2.266,2.266,0,0,0,114.451-3.489Zm-2.443-8.147a2.1,2.1,0,0,0-1.551.593,2.179,2.179,0,0,0-.593,1.613,2.169,2.169,0,0,0,.584,1.578,2.074,2.074,0,0,0,1.56.6,2.074,2.074,0,0,0,1.56-.6,2.169,2.169,0,0,0,.584-1.578,2.17,2.17,0,0,0-.606-1.591A2.068,2.068,0,0,0,112.008-11.637Zm6.231,14.186-.923-.633a4.241,4.241,0,0,0,.861-2.373V-1.925h1.591V-.65a4,4,0,0,1-.435,1.775A4.156,4.156,0,0,1,118.239,2.549Zm11.18-12.006a2.972,2.972,0,0,1-.505,1.705,3.439,3.439,0,0,1-1.367,1.169,3.668,3.668,0,0,1,1.586,1.257,3.163,3.163,0,0,1,.584,1.872A3.344,3.344,0,0,1,128.6-.809a4.305,4.305,0,0,1-2.949.984,4.286,4.286,0,0,1-2.958-.989,3.36,3.36,0,0,1-1.112-2.641,3.257,3.257,0,0,1,.567-1.872,3.528,3.528,0,0,1,1.569-1.266,3.354,3.354,0,0,1-1.345-1.169,3.014,3.014,0,0,1-.492-1.7,3.308,3.308,0,0,1,1.037-2.566,3.89,3.89,0,0,1,2.733-.949,3.894,3.894,0,0,1,2.729.949A3.3,3.3,0,0,1,129.419-9.457Zm-1.327,5.968a2.359,2.359,0,0,0-.681-1.749,2.416,2.416,0,0,0-1.78-.677,2.373,2.373,0,0,0-1.762.668,2.385,2.385,0,0,0-.664,1.758,2.271,2.271,0,0,0,.646,1.714,2.48,2.48,0,0,0,1.8.624,2.472,2.472,0,0,0,1.793-.628A2.266,2.266,0,0,0,128.092-3.489Zm-2.443-8.147a2.1,2.1,0,0,0-1.551.593,2.179,2.179,0,0,0-.593,1.613,2.169,2.169,0,0,0,.584,1.578,2.074,2.074,0,0,0,1.56.6,2.074,2.074,0,0,0,1.56-.6,2.169,2.169,0,0,0,.584-1.578,2.17,2.17,0,0,0-.606-1.591A2.068,2.068,0,0,0,125.648-11.637Z" transform="translate(-1156.696 -5618.39)" fill="#12263f"/>
      <path id="Trazado_815403" data-name="Trazado 815403" d="M7.761-12.929v2.092H7.515a4.315,4.315,0,0,0-2.773.9A3.642,3.642,0,0,0,3.48-7.523,3.46,3.46,0,0,1,6.056-8.561a3.26,3.26,0,0,1,2.654,1.2,4.792,4.792,0,0,1,.984,3.146A4.713,4.713,0,0,1,9.154-1.96,3.877,3.877,0,0,1,7.625-.387,4.443,4.443,0,0,1,5.388.176,4.15,4.15,0,0,1,2.123-1.23,5.459,5.459,0,0,1,.879-4.983V-5.9a8.215,8.215,0,0,1,.787-3.678,5.768,5.768,0,0,1,2.259-2.47,6.619,6.619,0,0,1,3.415-.883ZM5.282-6.513a2.029,2.029,0,0,0-1.116.32,1.929,1.929,0,0,0-.738.847v.772a3.42,3.42,0,0,0,.5,1.987,1.619,1.619,0,0,0,1.406.715,1.6,1.6,0,0,0,1.323-.645,2.63,2.63,0,0,0,.505-1.671,2.625,2.625,0,0,0-.51-1.684A1.661,1.661,0,0,0,5.282-6.513Zm13.43,1.7h1.45v2.048h-1.45V0h-2.54V-2.769H10.925l-.114-1.6L16.146-12.8h2.566Zm-5.37,0h2.83V-9.334L16-9.044Zm8.947,8.024-1.327-.694.316-.571a4.567,4.567,0,0,0,.606-2.136V-2.162h2.145L24.021-.4a4.566,4.566,0,0,1-.492,1.969A5.047,5.047,0,0,1,22.289,3.208ZM34.69,0H25.919V-1.74l4.14-4.412A10.212,10.212,0,0,0,31.32-7.778,2.612,2.612,0,0,0,31.729-9.1a1.955,1.955,0,0,0-.431-1.34,1.555,1.555,0,0,0-1.23-.488,1.677,1.677,0,0,0-1.358.593,2.35,2.35,0,0,0-.5,1.56H25.664a4.2,4.2,0,0,1,.558-2.136A3.934,3.934,0,0,1,27.8-12.423a4.8,4.8,0,0,1,2.312-.549,4.54,4.54,0,0,1,3.072.949,3.358,3.358,0,0,1,1.094,2.681,4.3,4.3,0,0,1-.492,1.934A10.745,10.745,0,0,1,32.1-5.115L29.188-2.048h5.5ZM44.859-5.291a6.483,6.483,0,0,1-1.1,4.061A3.835,3.835,0,0,1,40.544.176a3.862,3.862,0,0,1-3.2-1.38,6.293,6.293,0,0,1-1.134-3.955V-7.515a6.4,6.4,0,0,1,1.112-4.069,3.864,3.864,0,0,1,3.2-1.389,3.867,3.867,0,0,1,3.2,1.375,6.273,6.273,0,0,1,1.134,3.951Zm-2.54-2.59a4.686,4.686,0,0,0-.435-2.318,1.47,1.47,0,0,0-1.358-.726,1.444,1.444,0,0,0-1.323.691,4.385,4.385,0,0,0-.453,2.16V-4.96a4.919,4.919,0,0,0,.426,2.327,1.451,1.451,0,0,0,1.367.761,1.426,1.426,0,0,0,1.345-.73,4.8,4.8,0,0,0,.431-2.235Zm4.219-2.455a2.53,2.53,0,0,1,.765-1.912,2.773,2.773,0,0,1,2-.734,2.817,2.817,0,0,1,2.021.725,2.578,2.578,0,0,1,.765,1.964v.633a2.5,2.5,0,0,1-.765,1.907,2.8,2.8,0,0,1-2,.721,2.82,2.82,0,0,1-2.017-.725,2.559,2.559,0,0,1-.769-1.956Zm1.688.677a1.184,1.184,0,0,0,.3.848,1.044,1.044,0,0,0,.8.321,1,1,0,0,0,.782-.325,1.259,1.259,0,0,0,.29-.87v-.65a1.233,1.233,0,0,0-.29-.853,1.017,1.017,0,0,0-.8-.325,1.019,1.019,0,0,0-.782.321,1.258,1.258,0,0,0-.3.892Zm4.43,6.521a2.5,2.5,0,0,1,.773-1.912,2.812,2.812,0,0,1,2-.725,2.841,2.841,0,0,1,2.017.716,2.564,2.564,0,0,1,.769,1.973v.633a2.517,2.517,0,0,1-.756,1.9A2.786,2.786,0,0,1,55.45.176a2.819,2.819,0,0,1-2.03-.729,2.548,2.548,0,0,1-.765-1.934Zm1.688.686a1.175,1.175,0,0,0,.316.826,1.032,1.032,0,0,0,.791.343q1.072,0,1.072-1.187v-.668a1.194,1.194,0,0,0-.3-.848,1.03,1.03,0,0,0-.791-.321,1.03,1.03,0,0,0-.791.321,1.232,1.232,0,0,0-.3.875ZM49.825-.958l-1.239-.668,6.249-10,1.239.668Z" transform="translate(-996.617 -5739.926)" fill="#12263f"/>
      <path id="Trazado_815406" data-name="Trazado 815406" d="M9.642,0H.87V-1.74L5.01-6.152A10.212,10.212,0,0,0,6.271-7.778,2.612,2.612,0,0,0,6.68-9.1a1.955,1.955,0,0,0-.431-1.34,1.555,1.555,0,0,0-1.23-.488,1.677,1.677,0,0,0-1.358.593,2.35,2.35,0,0,0-.5,1.56H.615a4.2,4.2,0,0,1,.558-2.136,3.934,3.934,0,0,1,1.578-1.516,4.8,4.8,0,0,1,2.312-.549,4.54,4.54,0,0,1,3.072.949A3.358,3.358,0,0,1,9.229-9.343a4.3,4.3,0,0,1-.492,1.934A10.745,10.745,0,0,1,7.049-5.115L4.14-2.048h5.5Zm7.5-5.115a3.207,3.207,0,0,1-2.32.976A3.43,3.43,0,0,1,12.1-5.3a4.6,4.6,0,0,1-1.02-3.142,4.9,4.9,0,0,1,.549-2.307,4.029,4.029,0,0,1,1.534-1.635,4.255,4.255,0,0,1,2.215-.584,4.07,4.07,0,0,1,2.25.633,4.161,4.161,0,0,1,1.529,1.819A6.532,6.532,0,0,1,19.714-7.8v.94a7.4,7.4,0,0,1-1.591,5.027A6.014,6.014,0,0,1,13.614.114L12.99.123V-2L13.553-2Q16.866-2.153,17.139-5.115Zm-1.7-.967A1.777,1.777,0,0,0,16.5-6.4a2.114,2.114,0,0,0,.672-.765V-8.209a3.493,3.493,0,0,0-.492-2,1.528,1.528,0,0,0-1.318-.712,1.483,1.483,0,0,0-1.257.7,2.971,2.971,0,0,0-.492,1.753,2.891,2.891,0,0,0,.479,1.718A1.56,1.56,0,0,0,15.442-6.082Zm6.847,9.29-1.327-.694.316-.571a4.567,4.567,0,0,0,.606-2.136V-2.162h2.145L24.021-.4a4.566,4.566,0,0,1-.492,1.969A5.047,5.047,0,0,1,22.289,3.208ZM28.5-7.523h1.354a1.907,1.907,0,0,0,1.433-.483,1.771,1.771,0,0,0,.466-1.283,1.566,1.566,0,0,0-.461-1.2,1.788,1.788,0,0,0-1.27-.431,1.874,1.874,0,0,0-1.222.4,1.279,1.279,0,0,0-.492,1.042H25.77a3.124,3.124,0,0,1,.541-1.8,3.6,3.6,0,0,1,1.512-1.244,5.045,5.045,0,0,1,2.14-.448A4.785,4.785,0,0,1,33.144-12a3.314,3.314,0,0,1,1.151,2.676,2.693,2.693,0,0,1-.536,1.617,3.483,3.483,0,0,1-1.406,1.134,3.18,3.18,0,0,1,1.613,1.16A3.147,3.147,0,0,1,34.5-3.586,3.369,3.369,0,0,1,33.253-.853,5,5,0,0,1,29.962.176,4.741,4.741,0,0,1,26.829-.835a3.3,3.3,0,0,1-1.217-2.672h2.54a1.472,1.472,0,0,0,.541,1.178,1.992,1.992,0,0,0,1.332.457,2,2,0,0,0,1.419-.479,1.654,1.654,0,0,0,.514-1.27q0-1.916-2.109-1.916H28.5Z" transform="translate(-1294.341 -5685.353)" fill="#12263f"/>
      <path id="Trazado_815404" data-name="Trazado 815404" d="M3.454-7.523H4.808A1.907,1.907,0,0,0,6.24-8.007,1.771,1.771,0,0,0,6.706-9.29a1.566,1.566,0,0,0-.461-1.2,1.788,1.788,0,0,0-1.27-.431,1.874,1.874,0,0,0-1.222.4,1.279,1.279,0,0,0-.492,1.042H.721a3.124,3.124,0,0,1,.541-1.8,3.6,3.6,0,0,1,1.512-1.244,5.045,5.045,0,0,1,2.14-.448A4.785,4.785,0,0,1,8.095-12,3.314,3.314,0,0,1,9.246-9.325,2.693,2.693,0,0,1,8.71-7.708,3.483,3.483,0,0,1,7.3-6.574a3.18,3.18,0,0,1,1.613,1.16,3.147,3.147,0,0,1,.532,1.828A3.369,3.369,0,0,1,8.2-.853,5,5,0,0,1,4.913.176,4.741,4.741,0,0,1,1.78-.835,3.3,3.3,0,0,1,.563-3.507H3.1a1.472,1.472,0,0,0,.541,1.178,1.992,1.992,0,0,0,1.332.457,2,2,0,0,0,1.419-.479,1.654,1.654,0,0,0,.514-1.27q0-1.916-2.109-1.916H3.454Zm8.121,1.23.738-6.5h7.172v2.118H14.4L14.08-7.928A4.027,4.027,0,0,1,16-8.411,3.689,3.689,0,0,1,18.87-7.277,4.529,4.529,0,0,1,19.907-4.1a4.64,4.64,0,0,1-.523,2.219,3.691,3.691,0,0,1-1.5,1.521,4.678,4.678,0,0,1-2.3.541,4.968,4.968,0,0,1-2.153-.47,3.819,3.819,0,0,1-1.569-1.323A3.605,3.605,0,0,1,11.25-3.56h2.514a1.878,1.878,0,0,0,.558,1.244,1.769,1.769,0,0,0,1.252.444,1.562,1.562,0,0,0,1.327-.62,2.87,2.87,0,0,0,.466-1.753,2.374,2.374,0,0,0-.536-1.67,1.967,1.967,0,0,0-1.521-.58,2.2,2.2,0,0,0-1.468.475l-.246.229Zm10.714,9.5-1.327-.694.316-.571a4.567,4.567,0,0,0,.606-2.136V-2.162h2.145L24.021-.4a4.566,4.566,0,0,1-.492,1.969A5.047,5.047,0,0,1,22.289,3.208ZM34.26-9.4a2.977,2.977,0,0,1-.466,1.652,3.353,3.353,0,0,1-1.283,1.151,3.711,3.711,0,0,1,1.477,1.235,3.168,3.168,0,0,1,.545,1.85,3.354,3.354,0,0,1-1.16,2.694,4.706,4.706,0,0,1-3.155.989,4.727,4.727,0,0,1-3.164-.993,3.346,3.346,0,0,1-1.169-2.689,3.188,3.188,0,0,1,.545-1.854A3.644,3.644,0,0,1,27.9-6.592a3.318,3.318,0,0,1-1.279-1.151A3,3,0,0,1,26.156-9.4,3.317,3.317,0,0,1,27.246-12a4.291,4.291,0,0,1,2.962-.971,4.319,4.319,0,0,1,2.958.962A3.3,3.3,0,0,1,34.26-9.4Zm-2.276,5.7A1.843,1.843,0,0,0,31.5-5.027a1.724,1.724,0,0,0-1.3-.5,1.72,1.72,0,0,0-1.292.5,1.839,1.839,0,0,0-.483,1.34A1.838,1.838,0,0,0,28.9-2.373a1.729,1.729,0,0,0,1.318.5,1.725,1.725,0,0,0,1.3-.483A1.835,1.835,0,0,0,31.983-3.691ZM31.72-9.272a1.758,1.758,0,0,0-.4-1.2,1.4,1.4,0,0,0-1.116-.453,1.413,1.413,0,0,0-1.107.439,1.748,1.748,0,0,0-.4,1.213,1.837,1.837,0,0,0,.4,1.23,1.384,1.384,0,0,0,1.116.466,1.371,1.371,0,0,0,1.112-.466A1.85,1.85,0,0,0,31.72-9.272Zm13.14,3.981a6.483,6.483,0,0,1-1.1,4.061A3.835,3.835,0,0,1,40.544.176a3.862,3.862,0,0,1-3.2-1.38,6.293,6.293,0,0,1-1.134-3.955V-7.515a6.4,6.4,0,0,1,1.112-4.069,3.864,3.864,0,0,1,3.2-1.389,3.867,3.867,0,0,1,3.2,1.375,6.273,6.273,0,0,1,1.134,3.951Zm-2.54-2.59a4.686,4.686,0,0,0-.435-2.318,1.47,1.47,0,0,0-1.358-.726,1.444,1.444,0,0,0-1.323.691,4.385,4.385,0,0,0-.453,2.16V-4.96a4.919,4.919,0,0,0,.426,2.327,1.451,1.451,0,0,0,1.367.761,1.426,1.426,0,0,0,1.345-.73,4.8,4.8,0,0,0,.431-2.235Zm4.219-2.455a2.53,2.53,0,0,1,.765-1.912,2.773,2.773,0,0,1,2-.734,2.817,2.817,0,0,1,2.021.725,2.578,2.578,0,0,1,.765,1.964v.633a2.5,2.5,0,0,1-.765,1.907,2.8,2.8,0,0,1-2,.721,2.82,2.82,0,0,1-2.017-.725,2.559,2.559,0,0,1-.769-1.956Zm1.688.677a1.184,1.184,0,0,0,.3.848,1.044,1.044,0,0,0,.8.321,1,1,0,0,0,.782-.325,1.259,1.259,0,0,0,.29-.87v-.65a1.233,1.233,0,0,0-.29-.853,1.017,1.017,0,0,0-.8-.325,1.019,1.019,0,0,0-.782.321,1.258,1.258,0,0,0-.3.892Zm4.43,6.521a2.5,2.5,0,0,1,.773-1.912,2.812,2.812,0,0,1,2-.725,2.841,2.841,0,0,1,2.017.716,2.564,2.564,0,0,1,.769,1.973v.633a2.517,2.517,0,0,1-.756,1.9A2.786,2.786,0,0,1,55.45.176a2.819,2.819,0,0,1-2.03-.729,2.548,2.548,0,0,1-.765-1.934Zm1.688.686a1.175,1.175,0,0,0,.316.826,1.032,1.032,0,0,0,.791.343q1.072,0,1.072-1.187v-.668a1.194,1.194,0,0,0-.3-.848,1.03,1.03,0,0,0-.791-.321,1.03,1.03,0,0,0-.791.321,1.232,1.232,0,0,0-.3.875ZM49.825-.958l-1.239-.668,6.249-10,1.239.668Z" transform="translate(-996.617 -5618.39)" fill="#12263f"/>
      <path id="Trazado_815400" data-name="Trazado 815400" d="M3.779-4.509V0H1.143V-12.8H6.135a5.776,5.776,0,0,1,2.536.527,3.886,3.886,0,0,1,1.683,1.5,4.178,4.178,0,0,1,.589,2.21A3.674,3.674,0,0,1,9.655-5.594,5.363,5.363,0,0,1,6.091-4.509Zm0-2.136H6.135a2.316,2.316,0,0,0,1.6-.492,1.79,1.79,0,0,0,.549-1.406,2.111,2.111,0,0,0-.554-1.521,2.068,2.068,0,0,0-1.529-.6H3.779Zm14.15-.483a6.9,6.9,0,0,0-.914-.07,1.86,1.86,0,0,0-1.89.976V0h-2.54V-9.51h2.4l.07,1.134a2.354,2.354,0,0,1,2.118-1.31,2.662,2.662,0,0,1,.791.114Zm.2,2.285a5.64,5.64,0,0,1,.545-2.522,3.989,3.989,0,0,1,1.569-1.714,4.577,4.577,0,0,1,2.377-.606,4.33,4.33,0,0,1,3.142,1.178,4.727,4.727,0,0,1,1.358,3.2l.018.65a4.97,4.97,0,0,1-1.222,3.511A4.247,4.247,0,0,1,22.642.176,4.268,4.268,0,0,1,19.36-1.143a5.058,5.058,0,0,1-1.226-3.586Zm2.54.18a3.555,3.555,0,0,0,.51,2.073,1.682,1.682,0,0,0,1.459.717,1.686,1.686,0,0,0,1.441-.709A3.89,3.89,0,0,0,24.6-4.847a3.519,3.519,0,0,0-.519-2.06,1.686,1.686,0,0,0-1.459-.731,1.658,1.658,0,0,0-1.441.726A3.955,3.955,0,0,0,20.673-4.662Zm16.594,0a5.7,5.7,0,0,1-1,3.52A3.2,3.2,0,0,1,33.576.176a2.963,2.963,0,0,1-2.329-1V3.656h-2.54V-9.51h2.355l.088.932a2.985,2.985,0,0,1,2.408-1.107,3.22,3.22,0,0,1,2.733,1.3A5.858,5.858,0,0,1,37.267-4.8Zm-2.54-.185a3.743,3.743,0,0,0-.47-2.048A1.532,1.532,0,0,0,32.89-7.62a1.663,1.663,0,0,0-1.644.914v3.894a1.692,1.692,0,0,0,1.661.94Q34.727-1.872,34.727-4.852Zm3.718.009a5.64,5.64,0,0,1,.545-2.522,3.989,3.989,0,0,1,1.569-1.714,4.577,4.577,0,0,1,2.377-.606,4.33,4.33,0,0,1,3.142,1.178,4.727,4.727,0,0,1,1.358,3.2l.018.65a4.97,4.97,0,0,1-1.222,3.511A4.247,4.247,0,0,1,42.954.176a4.268,4.268,0,0,1-3.283-1.318,5.058,5.058,0,0,1-1.226-3.586Zm2.54.18a3.555,3.555,0,0,0,.51,2.073,1.682,1.682,0,0,0,1.459.717A1.686,1.686,0,0,0,44.4-2.581a3.89,3.89,0,0,0,.519-2.267,3.519,3.519,0,0,0-.519-2.06,1.686,1.686,0,0,0-1.459-.731,1.658,1.658,0,0,0-1.441.726A3.955,3.955,0,0,0,40.985-4.662ZM54.362-7.128a6.9,6.9,0,0,0-.914-.07,1.86,1.86,0,0,0-1.89.976V0h-2.54V-9.51h2.4l.07,1.134a2.354,2.354,0,0,1,2.118-1.31,2.662,2.662,0,0,1,.791.114Zm4.866,5.256a1.666,1.666,0,0,0,1.143-.387,1.355,1.355,0,0,0,.457-1.028h2.382a3.258,3.258,0,0,1-.527,1.771A3.48,3.48,0,0,1,61.262-.268a4.442,4.442,0,0,1-1.991.444,4.129,4.129,0,0,1-3.217-1.3A5.13,5.13,0,0,1,54.877-4.7v-.167a5.071,5.071,0,0,1,1.169-3.507,4.08,4.08,0,0,1,3.208-1.31A4,4,0,0,1,62.115-8.67a3.594,3.594,0,0,1,1.094,2.7H60.827a1.745,1.745,0,0,0-.457-1.206,1.524,1.524,0,0,0-1.16-.464,1.53,1.53,0,0,0-1.34.647,3.749,3.749,0,0,0-.453,2.1v.264a3.8,3.8,0,0,0,.448,2.113A1.549,1.549,0,0,0,59.228-1.872ZM67.34,0H64.791V-9.51H67.34Zm-2.7-11.971a1.251,1.251,0,0,1,.382-.94,1.436,1.436,0,0,1,1.042-.369,1.44,1.44,0,0,1,1.037.369,1.244,1.244,0,0,1,.387.94,1.247,1.247,0,0,1-.391.949,1.443,1.443,0,0,1-1.033.369,1.443,1.443,0,0,1-1.033-.369A1.247,1.247,0,0,1,64.642-11.971Zm4.395,7.128a5.64,5.64,0,0,1,.545-2.522A3.989,3.989,0,0,1,71.15-9.079a4.577,4.577,0,0,1,2.377-.606A4.33,4.33,0,0,1,76.67-8.508a4.727,4.727,0,0,1,1.358,3.2l.018.65a4.97,4.97,0,0,1-1.222,3.511A4.247,4.247,0,0,1,73.545.176a4.268,4.268,0,0,1-3.283-1.318,5.058,5.058,0,0,1-1.226-3.586Zm2.54.18a3.555,3.555,0,0,0,.51,2.073,1.682,1.682,0,0,0,1.459.717,1.686,1.686,0,0,0,1.441-.709,3.89,3.89,0,0,0,.519-2.267,3.519,3.519,0,0,0-.519-2.06,1.686,1.686,0,0,0-1.459-.731,1.658,1.658,0,0,0-1.441.726A3.955,3.955,0,0,0,71.576-4.662ZM74.029-13.5H76.8l-2.435,2.725H72.3Zm7.919,3.99.079,1.1A3.32,3.32,0,0,1,84.76-9.686a2.759,2.759,0,0,1,2.25.888,4.142,4.142,0,0,1,.756,2.654V0h-2.54V-6.082a1.648,1.648,0,0,0-.352-1.173,1.574,1.574,0,0,0-1.169-.365,1.747,1.747,0,0,0-1.608.914V0h-2.54V-9.51Zm11.83,4.685a5.731,5.731,0,0,1,1-3.542A3.237,3.237,0,0,1,97.5-9.686,2.913,2.913,0,0,1,99.8-8.648V-13.5h2.549V0h-2.294L99.93-1.011A2.989,2.989,0,0,1,97.487.176a3.228,3.228,0,0,1-2.694-1.323A5.916,5.916,0,0,1,93.778-4.825Zm2.54.189a3.754,3.754,0,0,0,.466,2.051,1.517,1.517,0,0,0,1.354.713A1.7,1.7,0,0,0,99.8-2.867V-6.625a1.675,1.675,0,0,0-1.644-.995Q96.318-7.62,96.318-4.636ZM108.693.176a4.668,4.668,0,0,1-3.406-1.283,4.561,4.561,0,0,1-1.314-3.419v-.246a5.745,5.745,0,0,1,.554-2.562,4.064,4.064,0,0,1,1.569-1.74,4.4,4.4,0,0,1,2.316-.611,3.947,3.947,0,0,1,3.072,1.23A5,5,0,0,1,112.6-4.966v1.037h-6.056a2.36,2.36,0,0,0,.743,1.494,2.245,2.245,0,0,0,1.569.563,2.742,2.742,0,0,0,2.294-1.063l1.248,1.4a3.813,3.813,0,0,1-1.547,1.261A5.075,5.075,0,0,1,108.693.176Zm-.29-7.813a1.587,1.587,0,0,0-1.226.512,2.651,2.651,0,0,0-.6,1.466h3.533v-.2a1.891,1.891,0,0,0-.457-1.311A1.638,1.638,0,0,0,108.4-7.638Z" transform="translate(-1025.696 -5808.762)" fill="#12263f"/>
      <path id="Trazado_815401" data-name="Trazado 815401" d="M1.67,0V-7.646H.255V-9.51H1.67v-.809A3.283,3.283,0,0,1,2.588-12.8a3.557,3.557,0,0,1,2.571-.883,5.938,5.938,0,0,1,1.292.176L6.425-11.54a3.238,3.238,0,0,0-.773-.079q-1.433,0-1.433,1.345v.765h1.89v1.863H4.219V0ZM13.122-.967a3.185,3.185,0,0,1-2.6,1.143A3,3,0,0,1,8.187-.7a3.752,3.752,0,0,1-.822-2.575V-9.51h2.54v6.151q0,1.487,1.354,1.487a1.834,1.834,0,0,0,1.775-.9V-9.51h2.549V0H13.192ZM21.876.176A4.668,4.668,0,0,1,18.47-1.107a4.561,4.561,0,0,1-1.314-3.419v-.246a5.745,5.745,0,0,1,.554-2.562,4.064,4.064,0,0,1,1.569-1.74,4.4,4.4,0,0,1,2.316-.611,3.947,3.947,0,0,1,3.072,1.23,5,5,0,0,1,1.121,3.489v1.037H19.731a2.36,2.36,0,0,0,.743,1.494,2.245,2.245,0,0,0,1.569.563,2.742,2.742,0,0,0,2.294-1.063l1.248,1.4A3.813,3.813,0,0,1,24.038-.277,5.075,5.075,0,0,1,21.876.176Zm-.29-7.813a1.587,1.587,0,0,0-1.226.512,2.651,2.651,0,0,0-.6,1.466h3.533v-.2a1.891,1.891,0,0,0-.457-1.311A1.638,1.638,0,0,0,21.586-7.638Zm7.98-1.872.079,1.1a3.32,3.32,0,0,1,2.733-1.274,2.759,2.759,0,0,1,2.25.888,4.142,4.142,0,0,1,.756,2.654V0h-2.54V-6.082a1.648,1.648,0,0,0-.352-1.173,1.574,1.574,0,0,0-1.169-.365,1.747,1.747,0,0,0-1.608.914V0h-2.54V-9.51Zm10.784-2.338V-9.51h1.626v1.863H40.351V-2.9a1.133,1.133,0,0,0,.2.756,1.015,1.015,0,0,0,.773.229,4.051,4.051,0,0,0,.747-.062V-.053a5.229,5.229,0,0,1-1.538.229,2.425,2.425,0,0,1-2.725-2.7V-7.646H36.422V-9.51h1.389v-2.338ZM47.769.176a4.668,4.668,0,0,1-3.406-1.283,4.561,4.561,0,0,1-1.314-3.419v-.246A5.745,5.745,0,0,1,43.6-7.334a4.064,4.064,0,0,1,1.569-1.74,4.4,4.4,0,0,1,2.316-.611,3.947,3.947,0,0,1,3.072,1.23A5,5,0,0,1,51.68-4.966v1.037H45.624a2.36,2.36,0,0,0,.743,1.494,2.245,2.245,0,0,0,1.569.563,2.742,2.742,0,0,0,2.294-1.063l1.248,1.4A3.813,3.813,0,0,1,49.931-.277,5.075,5.075,0,0,1,47.769.176Zm-.29-7.813a1.587,1.587,0,0,0-1.226.512,2.651,2.651,0,0,0-.6,1.466h3.533v-.2a1.891,1.891,0,0,0-.457-1.311A1.638,1.638,0,0,0,47.479-7.638Zm10.793,5.01a.818.818,0,0,0-.461-.734,5.241,5.241,0,0,0-1.481-.479q-3.393-.712-3.393-2.883a2.613,2.613,0,0,1,1.05-2.114,4.237,4.237,0,0,1,2.747-.848,4.56,4.56,0,0,1,2.9.853,2.687,2.687,0,0,1,1.085,2.215h-2.54a1.229,1.229,0,0,0-.352-.9,1.488,1.488,0,0,0-1.1-.356,1.52,1.52,0,0,0-.993.29.916.916,0,0,0-.352.738.783.783,0,0,0,.4.681,4.114,4.114,0,0,0,1.349.448,11.019,11.019,0,0,1,1.6.426,2.628,2.628,0,0,1,2.013,2.558,2.481,2.481,0,0,1-1.116,2.1,4.815,4.815,0,0,1-2.883.8A5.029,5.029,0,0,1,54.62-.25a3.561,3.561,0,0,1-1.455-1.169,2.716,2.716,0,0,1-.527-1.6h2.408a1.326,1.326,0,0,0,.5,1.037,1.987,1.987,0,0,0,1.248.36A1.839,1.839,0,0,0,57.9-1.9.861.861,0,0,0,58.271-2.628Z" transform="translate(-999.636 -5787.162)" fill="#12263f"/>
      <rect id="Rect치ngulo_376059" data-name="Rect치ngulo 376059" width="4.17" height="23.83" transform="translate(-1101.979 -5697.027)" fill="#12263f"/>
      <rect id="Rect치ngulo_376060" data-name="Rect치ngulo 376060" width="23.83" height="4.17" transform="translate(-1111.809 -5687.198)" fill="#12263f"/>
      <g id="Grupo_1071182" data-name="Grupo 1071182" transform="translate(-1239.046 -5746.679)">
        <line id="L칤nea_923" data-name="L칤nea 923" x1="57.016" y2="31.134" transform="translate(6.249)" fill="none" stroke="#12263f" stroke-linecap="round" stroke-linejoin="round" stroke-width="2"/>
        <path id="Trazado_815296" data-name="Trazado 815296" d="M884.417,156.752c.833-2.836-.274-6.94-1.576-9.5a27.266,27.266,0,0,1-5.38,13.3c4.818-.577,9.648.842,14.093,2.661-1.688-2.577-4.132-5.488-7.137-6.46" transform="translate(-877.461 -126.003)" fill="#12263f"/>
      </g>
      <g id="Grupo_1071183" data-name="Grupo 1071183" transform="translate(-1207.708 -5619.376) rotate(-120)">
        <line id="L칤nea_923-2" data-name="L칤nea 923" y1="31.134" x2="57.016" transform="translate(0 6.075)" fill="none" stroke="#12263f" stroke-linecap="round" stroke-linejoin="round" stroke-width="2"/>
        <path id="Trazado_815296-2" data-name="Trazado 815296" d="M7.137,6.46c-.833,2.836.274,6.94,1.576,9.5a27.266,27.266,0,0,1,5.38-13.3C9.275,3.238,4.445,1.819,0,0,1.688,2.577,4.132,5.488,7.137,6.46" transform="translate(49.173 0)" fill="#12263f"/>
      </g>
      <path id="Trazado_815297" data-name="Trazado 815297" d="M-896.345-6139.18h44v397.257H-922.3" fill="none" stroke="#12263f" stroke-width="1"/>
      <path id="Trazado_815298" data-name="Trazado 815298" d="M-912.563-6139.18H-874.7v397.257h-48.6" transform="translate(0 122.546)" fill="none" stroke="#12263f" stroke-width="1"/>
      <path id="Trazado_815300" data-name="Trazado 815300" d="M7.137,6.46c-.833,2.836.274,6.94,1.576,9.5a27.266,27.266,0,0,1,5.38-13.3C9.275,3.238,4.445,1.819,0,0,1.688,2.577,4.132,5.488,7.137,6.46" transform="translate(-918.795 -5610.62) rotate(-150)" fill="#12263f"/>
      <path id="Trazado_815301" data-name="Trazado 815301" d="M7.137,6.46c-.833,2.836.274,6.94,1.576,9.5a27.266,27.266,0,0,1,5.38-13.3C9.275,3.238,4.445,1.819,0,0,1.688,2.577,4.132,5.488,7.137,6.46" transform="translate(-918.795 -5733.62) rotate(-150)" fill="#12263f"/>
    </g>
  </g>
</svg>
