<svg xmlns="http://www.w3.org/2000/svg" width="99.407" height="88.012" viewBox="0 0 99.407 88.012">
  <g id="Grupo_261799" data-name="Grupo 261799" transform="translate(-5616.462 10964.832)">
    <g id="Grupo_261566" data-name="Grupo 261566">
      <path id="Trazado_279200" data-name="Trazado 279200" d="M886.462,125.127c.67-2.254,2.016-3.918,4.44-4.156a35.076,35.076,0,0,1,5.079.2c.29.014.58.038.87.038,3.459,0,6.918-.036,10.376.034a7.972,7.972,0,0,1,2.032.67,12.286,12.286,0,0,0,2.193.618c2.209.26,3.655,1.236,3.7,3.679h2.129v-1.051c0-2.3-.007-4.59.005-6.885.006-1.082.542-1.692,1.435-1.692s1.449.618,1.464,1.686c.021,1.541,0,3.083,0,4.669h18.643V100.767H920.187v1.017q0,4.413,0,8.825a3.785,3.785,0,0,1-.077.96,1.349,1.349,0,0,1-1.5,1.1,1.3,1.3,0,0,1-1.3-1.32c-.022-3.749-.043-7.5.025-11.248a2.532,2.532,0,0,1,2.586-2.289c.766-.04,1.536-.007,2.347-.007.176-1.211-.3-2.765,1.579-2.849.952-.042,1.255.6,1.464,2.777h2.024c.149-1.149-.3-2.812,1.564-2.746,1.681.059,1.329,1.584,1.431,2.748h2.06c.132-1.158-.306-2.816,1.559-2.747,1.669.06,1.351,1.571,1.407,2.747h3.542c0-.467-.018-.936.005-1.4a3.4,3.4,0,0,1,.165-1.519c.593-.944.159-1.684-.22-2.491-1.685-3.594-3.381-7.184-5.023-10.8-.325-.715-.692-1.064-1.505-.971a1.373,1.373,0,0,1-1.637-1.037,1.427,1.427,0,0,1,1.532-1.835,1.018,1.018,0,0,0,1.1-.788A6.4,6.4,0,0,1,938.67,72.7a1.544,1.544,0,0,0,.968-.72,8.467,8.467,0,0,1,7.544-4.808,8.369,8.369,0,0,1,7.884,4.541.786.786,0,0,0,1.041.48,7.07,7.07,0,0,1,8.66,4.786c.235.713.637.648,1.15.691a1.445,1.445,0,1,1-.07,2.888,2.446,2.446,0,0,1-.484,0,.861.861,0,0,0-1.029.638,20.869,20.869,0,0,1-.938,2.019,1.476,1.476,0,0,1-1.967.72,1.457,1.457,0,0,1-.669-1.9c.168-.445.381-.872.617-1.4h-4.286q-1.344,6.119-2.69,12.24a1.086,1.086,0,0,0,1.641-.708c.519-1.251,1.118-2.47,1.705-3.692a1.507,1.507,0,0,1,2.027-.947,1.478,1.478,0,0,1,.611,2.147c-.323.74-.676,1.466-1.013,2.2-.455.989-1.186,1.916-.387,3.1.2.3.093.821.094,1.24.006,2.65.022,5.3-.011,7.952a1.123,1.123,0,0,0,.74,1.177c3.244,1.6,6.469,3.232,9.7,4.85a6.18,6.18,0,0,1,3.676,5.987c-.013,1.778.01,3.556-.006,5.334a1.848,1.848,0,0,1-2.9,1.773c-3.671-1.823-7.329-3.671-11.112-5.569-.218,3.517-2.844,2.875-5.1,2.947v2.323c.738,0,1.495,0,2.253,0,1.857.011,2.746.862,2.752,2.717.015,5.173-.005,10.345.025,15.517a4.816,4.816,0,0,0,.411,1.308,5.536,5.536,0,0,1,.4,1.36c.053,1.356.037,2.715.014,4.072-.025,1.385-.659,1.988-2.045,2.009a3.269,3.269,0,0,1-.485,0c-1.792-.246-3.009.058-3.913,2.05-1.081,2.382-3.458,3.346-6.086,3.119a6.453,6.453,0,0,1-5.618-4.159c-.128-.294-.213-.608-.35-1.007-1.3,0-2.617.006-3.937,0-1.177-.006-1.787-.5-1.8-1.425s.625-1.467,1.763-1.479c1.322-.013,2.643,0,3.933,0,.318-.753.6-1.43.924-2.193H907.385c.309.749.6,1.448.9,2.193h1.256q10.038,0,20.075,0c.414,0,.954-.063,1.213.161a2.531,2.531,0,0,1,.9,1.423,1.225,1.225,0,0,1-1.186,1.3,6.642,6.642,0,0,1-.968.025H908.283c-.113.306-.218.6-.33.892a6.7,6.7,0,0,1-6.216,4.318,6.564,6.564,0,0,1-6.193-4.317c-.25-.69-.545-.978-1.3-.91a23.788,23.788,0,0,1-2.52.014,1.734,1.734,0,0,1-1.955-1.888q-.036-2.133,0-4.267a1.763,1.763,0,0,1,1.929-1.933c.609-.023,1.22,0,1.9,0v-1.982c-.581,0-1.151,0-1.722,0a5.112,5.112,0,0,1-5.232-3.779,1.787,1.787,0,0,0-.185-.318ZM936.686,80.6a2.788,2.788,0,0,0,.11.45c1.769,3.8,3.527,7.6,5.341,11.379a1.369,1.369,0,0,0,1.038.558c2.42.049,4.843-.011,7.263.046.787.019,1.037-.282,1.187-.99.739-3.5,1.526-6.991,2.29-10.487.065-.3.08-.6.125-.956Zm5.177,45.351V141.8H944.2c0-1.744-.012-3.418,0-5.092.014-1.544.63-2.163,2.189-2.182,1.713-.021,3.426-.017,5.139,0,1.666.015,2.262.628,2.267,2.3.006,1.641,0,3.281,0,4.984h2.319V125.951ZM920.234,141.8h6.718V125.949h-6.718Zm35.85-34.989V95.992H941.865V106.8H945c0-1.629-.032-3.2.01-4.775a2.471,2.471,0,0,1,2.524-2.516c.742-.028,1.485-.011,2.228-.01,2.384,0,3.241.871,3.243,3.279,0,1.341,0,2.681,0,4.029Zm5.747-29.194a4.184,4.184,0,0,0-4.947-2.649,5.786,5.786,0,0,1-1.893.207A3.342,3.342,0,0,1,952.5,73.1a5.5,5.5,0,0,0-5.143-3.03,5.3,5.3,0,0,0-4.993,3.091,3.924,3.924,0,0,1-3.564,2.5,3.193,3.193,0,0,0-2.655,1.948Zm-19.974,32.209v7.854h14.315v-7.842h-3.113c-.253,2.055-1.136,2.85-3.118,2.864-.485,0-.969,0-1.453,0-2.439,0-3.081-.5-3.612-2.876Zm-45.232,19.343v2.473c.421,0,.8,0,1.177,0,1.873.007,3.748-.016,5.62.038a1.351,1.351,0,0,1,1.372,1.447,1.382,1.382,0,0,1-1.34,1.4,11.484,11.484,0,0,1-1.259.024c-1.833,0-3.666,0-5.535,0v2.084h10.246V124.205H896.653v2.051h1.118c1.842,0,3.683-.016,5.524.013A1.4,1.4,0,0,1,904.8,127.7a1.473,1.473,0,0,1-1.407,1.454,7.9,7.9,0,0,1-.871.015c-1.935,0-3.869,0-5.9,0m73.649-9.137c0-1.386-.035-2.575.008-3.76a3.509,3.509,0,0,0-2.183-3.54c-2.69-1.321-5.359-2.685-8.04-4.026-.274-.138-.564-.242-.977-.416a36.572,36.572,0,0,1-.033,4.165c-.181,1.528.419,2.264,1.779,2.886,3.128,1.431,6.171,3.05,9.446,4.691M893.6,136.916v-13.14c-.516,0-.963,0-1.411,0-2.011.008-2.815.811-2.818,2.822,0,2.2.076,4.4-.018,6.593-.15,3.548.993,3.957,3.975,3.781a2.487,2.487,0,0,0,.272-.057m13.414,4.9h10.2v-7.195h-2.064c-.094,1.6-.674,2.834-2.256,3.316-1.959.6-3.932,1.145-5.882,1.709Zm-1.548,6.705a3.735,3.735,0,1,0-3.775,3.751,3.76,3.76,0,0,0,3.775-3.751m46.205.008a3.716,3.716,0,1,0-3.763,3.742,3.724,3.724,0,0,0,3.763-3.742m-21.727-6.717h8.892V138.9c-.976,0-1.9,0-2.83,0a2.09,2.09,0,0,1-1.878-.983c-.128-.192-.35-.448-.537-.454-1.209-.041-2.421-.021-3.647-.021Zm8.9-15.842H929.97v3.506c1.215,0,2.374.024,3.53-.021a1.038,1.038,0,0,0,.633-.462,2.122,2.122,0,0,1,1.9-.963c.926.013,1.853,0,2.818,0Zm-28.887-.706V135.55c.494-.084.9-.185,1.317-.215.711-.053.959-.366.945-1.108-.047-2.608-.006-5.217-.037-7.825,0-.283-.2-.736-.419-.811a10.681,10.681,0,0,0-1.806-.329m37.193,16.547h3.68v-4.288h-3.68Zm-50.495,0h7.314v-2.133h-7.314Zm51.332-32.1h2.031v-7.265h-2.031Zm-9.169,21.272H936.8v4.955h2.015Zm12.233-10.26h-4.107v2.2h4.107Zm-17.268,11.739h-3.816v2h3.816Zm23.183,12.378h-3.374l.9,2.167h2.473Zm-64.243,2.051c1.94.619,2.75.119,3.28-2.054h-3.28Zm22.437-15.336h2.066v-2.333h-2.066Zm26.685-8.623h2.059V120.72h-2.059Z" transform="translate(4730 -11032)" fill="#3b5620"/>
      <path id="Trazado_279201" data-name="Trazado 279201" d="M936.747,111.9c0,2.295.009,4.59,0,6.886-.008,1.461-.606,2.052-2.072,2.055q-5.141.012-10.28,0c-1.458,0-2.061-.607-2.063-2.065q-.01-6.935,0-13.869c0-1.453.606-2.056,2.073-2.06q5.139-.015,10.28,0c1.459,0,2.054.605,2.062,2.07.012,2.328,0,4.655,0,6.983m-2.966-6.078h-8.486v12.062h8.486Z" transform="translate(4730 -11032)" fill="#3b5620"/>
      <path id="Trazado_279202" data-name="Trazado 279202" d="M977.653,125.88a16.012,16.012,0,0,1-1.64-.01,1.391,1.391,0,0,1-1.3-1.512,1.332,1.332,0,0,1,1.36-1.353c1.06-.049,2.124-.041,3.185,0a1.431,1.431,0,0,1,1.425,1.413,1.5,1.5,0,0,1-1.387,1.47,1.559,1.559,0,0,1-.193.008h-1.448Z" transform="translate(4730 -11032)" fill="#3b5620"/>
      <path id="Trazado_279203" data-name="Trazado 279203" d="M985.869,122.293c-.236.318-.45.883-.837,1.052a1.748,1.748,0,0,1-1.5-.042,14.5,14.5,0,0,1-2.562-2.6,1.912,1.912,0,0,1,.112-1.647,1.1,1.1,0,0,1,1.685-.344,37.04,37.04,0,0,1,2.806,2.758c.14.145.155.412.3.819" transform="translate(4730 -11032)" fill="#3b5620"/>
      <path id="Trazado_279204" data-name="Trazado 279204" d="M980.674,114.608c.03,1.208-2.718,4.019-3.642,3.9a1.4,1.4,0,0,1-1.1-2.24,14.836,14.836,0,0,1,2.448-2.447,1.785,1.785,0,0,1,1.492-.122c.4.152.638.706.8.908" transform="translate(4730 -11032)" fill="#3b5620"/>
      <path id="Trazado_279205" data-name="Trazado 279205" d="M948.974,131.972a1.41,1.41,0,0,1-1.414-1.4,1.432,1.432,0,0,1,1.462-1.464,1.473,1.473,0,0,1,1.428,1.416,1.445,1.445,0,0,1-1.476,1.451" transform="translate(4730 -11032)" fill="#3b5620"/>
      <path id="Trazado_279206" data-name="Trazado 279206" d="M948.9,73.857a1.452,1.452,0,0,1-1.4,1.436,1.424,1.424,0,0,1-1.489-1.43,1.456,1.456,0,0,1,1.386-1.455,1.494,1.494,0,0,1,1.505,1.449" transform="translate(4730 -11032)" fill="#3b5620"/>
      <path id="Trazado_279207" data-name="Trazado 279207" d="M901.717,149.964a1.457,1.457,0,0,1-1.442-1.4,1.5,1.5,0,0,1,1.464-1.491,1.452,1.452,0,0,1,1.42,1.512,1.418,1.418,0,0,1-1.442,1.379" transform="translate(4730 -11032)" fill="#3b5620"/>
      <path id="Trazado_279208" data-name="Trazado 279208" d="M947.93,147.074a1.463,1.463,0,0,1,1.459,1.378,1.421,1.421,0,0,1-1.4,1.511,1.4,1.4,0,0,1-1.452-1.361,1.448,1.448,0,0,1,1.4-1.528" transform="translate(4730 -11032)" fill="#3b5620"/>
      <path id="Trazado_279209" data-name="Trazado 279209" d="M928.839,110.4a1.447,1.447,0,1,1-.04,2.894,1.436,1.436,0,0,1-1.415-1.512,1.452,1.452,0,0,1,1.455-1.382" transform="translate(4730 -11032)" fill="#3b5620"/>
    </g>
  </g>
</svg>
