<svg xmlns="http://www.w3.org/2000/svg" width="63.046" height="71.84" viewBox="0 0 63.046 71.84">
  <g id="Grupo_261793" data-name="Grupo 261793" transform="translate(-5013.217 10948.125)">
    <g id="Grupo_261563" data-name="Grupo 261563">
      <path id="Trazado_279184" data-name="Trazado 279184" d="M326.676,83.875a1.815,1.815,0,0,1,.622,1.583c-.034,1.684-.027,3.368,0,5.051a1.9,1.9,0,0,1-.565,1.439c-2.654,2.8-5.281,5.624-7.933,8.424a1.314,1.314,0,0,0-.412,1.046c.034.7.023,1.4,0,2.1a.5.5,0,0,0,.425.586,15.71,15.71,0,0,1,8.688,6.8,1.119,1.119,0,0,0,.708.5c4.284,1.29,8.563,2.6,12.845,3.89a4.576,4.576,0,0,1,3.59,4.99,1.057,1.057,0,1,1-2.1.024c-.117-2.08-.429-2.48-2.44-3.092q-5.352-1.629-10.7-3.246c-.108-.033-.219-.056-.31-.077-.166.12-.056.232-.027.321a14.611,14.611,0,0,1,.755,4.189c.01.55.238.734.731.88,2.032.6,4.05,1.256,6.073,1.889,1.036.324,1.157.489,1.158,1.6s.017,2.2-.008,3.3c-.009.422.055.621.555.6,1.238-.039,2.478-.027,3.717,0,.391.007.534-.1.507-.5-.034-.512-.018-1.029-.005-1.543.018-.751.437-1.206,1.078-1.194.617.011,1,.45,1.023,1.169.008.281,0,.561,0,.842.007.624-.254,1.369.892,1.3.454-.028.732.493.725.977a1.008,1.008,0,0,1-.814,1.013,2.509,2.509,0,0,1-.627.034h-9.328c-.141,0-.282.008-.421-.006a1.037,1.037,0,0,1-.992-1.062.97.97,0,0,1,1.014-1.018c.532.016.6-.187.585-.642-.034-.84-.025-1.683,0-2.524a.5.5,0,0,0-.433-.577c-1.7-.511-3.385-1.043-5.072-1.582-.362-.116-.489-.013-.542.354a14.636,14.636,0,0,1-1.907,5.369.693.693,0,0,0,.015.813q2.686,4.632,5.333,9.283a.8.8,0,0,0,.821.461c1.14-.015,1.375.2,1.617,1.3q1.56,7.071,3.121,14.145a.568.568,0,0,0,.688.538c1.1-.035,2.2-.015,3.3-.01.834,0,1.3.372,1.318,1.023.017.682-.466,1.08-1.333,1.08q-17.289,0-34.578,0H285.789c-.211,0-.422.01-.631,0a1.036,1.036,0,0,1-1.039-1.086,1.01,1.01,0,0,1,1.042-1.007c1.1-.024,2.2-.06,3.295.011.685.044.982-.18,1.019-.84a6.035,6.035,0,0,1,.123-.7c-2.853.306-4.975-.706-6.043-3.433a5.106,5.106,0,0,1,1.566-5.768c1.8-1.53,3.952-1.6,6.574-.188.3-1.325.592-2.628.885-3.933.2-.886.5-1.176,1.393-1.118a1.059,1.059,0,0,0,1.129-.682c.4-.764.842-1.507,1.28-2.25a1.061,1.061,0,1,1,1.825,1.033c-.322.591-.663,1.172-.995,1.756.151.217.354.119.519.119,3.881.007,7.762-.01,11.643.024.546.005.66-.216.739-.65.226-1.244.4-1.384,1.657-1.385q2.244,0,4.488,0c1.252,0,1.485.149,1.672,1.369.084.548.288.662.8.659,4.021-.02,8.041-.011,12.177-.011l-4.717-8.214c-6.48,7.8-18.331,7.115-24.31-.029-.509.88-1.005,1.742-1.506,2.6a1.051,1.051,0,0,1-1.171.575,1.013,1.013,0,0,1-.811-.781,1.133,1.133,0,0,1,.207-.926c.544-.951,1.067-1.916,1.647-2.846a.9.9,0,0,0,0-1.072,15.8,15.8,0,0,1,7.97-22.467c1.452-.572,1.38-.577,1.476-2.1a3.265,3.265,0,0,0-1.077-2.7c-2.47-2.522-4.849-5.132-7.278-7.693a1.989,1.989,0,0,1-.606-1.5c.029-1.706.032-3.414,0-5.12a1.57,1.57,0,0,1,.7-1.481h6.734c.475.342.871.734.636,1.388s-.763.729-1.367.721c-1.354-.017-2.709.006-4.064-.013-.367,0-.544.05-.529.483.033.98.031,1.963,0,2.943-.013.427.159.492.532.492q10.65-.014,21.3,0c.389,0,.534-.1.521-.5-.028-.911-.042-1.824,0-2.732.027-.542-.122-.691-.677-.688-4.088.026-8.175.009-12.262.019-.6,0-1.138-.082-1.367-.722s.161-1.046.638-1.387Zm-35.231,69.7c.2.012.353.031.51.031q22.025,0,44.051.015c.565,0,.575-.2.477-.629q-1.422-6.351-2.821-12.709c-.085-.386-.22-.562-.677-.56q-6.943.033-13.888,0c-.527,0-.629.128-.5.629a21.219,21.219,0,0,1,.656,6.453c-.046.906-.374,1.288-1.279,1.291q-3.963.017-7.926,0c-.87,0-1.25-.376-1.258-1.242a18.937,18.937,0,0,1,.351-5.087c.172-.65.27-1.32.4-1.979a.814.814,0,0,0-.169-.047q-7.226,0-14.45-.015c-.385,0-.456.185-.52.493-.244,1.164-.511,2.324-.769,3.485l-2.192,9.869m22.568-20.655a13.724,13.724,0,1,0-13.712-13.81,13.775,13.775,0,0,0,13.712,13.81m9.738-40.887H304.316c.215.237.364.407.518.572,2.015,2.146,4.011,4.311,6.059,6.425a2.629,2.629,0,0,1,.891,2.231c-.062.6,0,1.214-.017,1.821-.01.322.056.464.424.41a12.53,12.53,0,0,1,3.7,0c.3.044.414-.026.4-.35-.021-.747.03-1.5-.017-2.242a2.008,2.008,0,0,1,.647-1.614c2.268-2.378,4.508-4.785,6.826-7.255m-35.278,58.026c1.24,0,1.664-.342,1.944-1.562.208-.907.391-1.821.619-2.722a1.021,1.021,0,0,0-.307-1.059,3.147,3.147,0,0,0-5.274,3.059,3.2,3.2,0,0,0,3.018,2.284m22.656-7.39c1.826,0,3.624-.011,5.421.006.476,0,.317-.291.275-.508-.259-1.329-.555-2.65-.785-3.983-.071-.41-.245-.477-.6-.471-.935.017-1.871.029-2.805-.005-.407-.015-.569.105-.642.508-.266,1.468-.566,2.929-.865,4.453m2.907,2.1c-.909,0-1.819.026-2.727-.009-.509-.019-.428.3-.418.59s-.135.666.43.658c1.795-.023,3.59-.027,5.385,0,.56.008.435-.336.44-.64s.1-.643-.453-.614c-.883.047-1.771.012-2.657.012" transform="translate(4730 -11032)" fill="#3b5620"/>
      <path id="Trazado_279185" data-name="Trazado 279185" d="M324.873,118.4c-.014,6.448-4.42,11.219-9.949,11.623a10.842,10.842,0,0,1-11.638-9.255,10.546,10.546,0,0,1,4.768-10.639c.757-.526,1.4-.475,1.771.094s.164,1.139-.624,1.668a8.731,8.731,0,0,0-3.683,9.418,8.757,8.757,0,0,0,16.665,1.051,8.728,8.728,0,0,0-2.891-10.156c-.186-.14-.38-.271-.573-.4-.665-.453-.849-1.05-.487-1.589s.967-.61,1.656-.153a10.386,10.386,0,0,1,4.985,8.34" transform="translate(4730 -11032)" fill="#3b5620"/>
      <path id="Trazado_279186" data-name="Trazado 279186" d="M313.994,123.886a4.707,4.707,0,1,1,4.726-4.688,4.716,4.716,0,0,1-4.726,4.688m1.1-2.935c.062.1-.23.432.149.516.217.048,1.07-.791,1.052-1.035-.028-.369-.338-.18-.522-.2-.449-.056-.872-.042-.679.721m-.038-4.091c0,.322.015.6,0,.866-.021.29.069.445.381.406.286-.037.725.141.824-.1.117-.283-.247-.545-.471-.764a1.319,1.319,0,0,0-.73-.41m-2.167,4.646c.146-1.368.3-1.418-1.2-1.171a2.281,2.281,0,0,0,1.2,1.171m-1.227-3.407c1.468.077,1.529.009,1.181-1.224a2.567,2.567,0,0,0-1.181,1.224" transform="translate(4730 -11032)" fill="#3b5620"/>
      <path id="Trazado_279187" data-name="Trazado 279187" d="M289.521,146.914a1.06,1.06,0,0,1-1.031,1.163,1.092,1.092,0,0,1-1.073-1.141,1.077,1.077,0,0,1,1.084-1.189,1.053,1.053,0,0,1,1.02,1.167" transform="translate(4730 -11032)" fill="#3b5620"/>
    </g>
  </g>
</svg>
