<svg xmlns="http://www.w3.org/2000/svg" xmlns:xlink="http://www.w3.org/1999/xlink" width="148.587" height="148.586" viewBox="0 0 148.587 148.586">
  <defs>
    <clipPath id="clip-path">
      <rect id="Rectángulo_325185" data-name="Rectángulo 325185" width="3.042" height="2.995" transform="translate(176.789 88.715)" fill="none"/>
    </clipPath>
    <clipPath id="clip-path-2">
      <rect id="Rectángulo_325187" data-name="Rectángulo 325187" width="3.038" height="2.986" transform="translate(176.759 113.748)" fill="none"/>
    </clipPath>
    <clipPath id="clip-path-3">
      <rect id="Rectángulo_325189" data-name="Rectángulo 325189" width="2.986" height="3.037" transform="translate(204.959 113.688)" fill="none"/>
    </clipPath>
  </defs>
  <g id="Grupo_261814" data-name="Grupo 261814" transform="translate(-308.963 -481.091)">
    <g id="Grupo_261134" data-name="Grupo 261134">
      <path id="Trazado_278852" data-name="Trazado 278852" d="M276.06,79.384A74.293,74.293,0,1,1,201.767,5.091,74.293,74.293,0,0,1,276.06,79.384" transform="translate(181.49 476)" fill="#632059"/>
      <path id="Trazado_278857" data-name="Trazado 278857" d="M231.489,119.877h9.338V46.5c-3.879-.943-7.729-1.883-11.581-2.812-8.76-2.112-17.518-4.235-26.289-6.3a5.753,5.753,0,0,0-2.554.043q-18.417,4.383-36.815,8.845c-.281.068-.556.158-.917.261V66.686h-3.094V47.27c-.94.218-1.748.409-2.558.593a1.593,1.593,0,0,1-2.174-1.712c-.018-1.857-.009-3.715,0-5.572,0-1.315.324-1.724,1.612-2.036q18.118-4.381,36.239-8.758c2.783-.672,5.563-1.355,8.353-2a3.251,3.251,0,0,1,1.429-.006q22.253,5.337,44.5,10.713c1.442.349,1.722.741,1.724,2.257,0,1.76.01,3.52,0,5.28-.011,1.513-.805,2.137-2.259,1.8q-1.046-.24-2.093-.477a1.538,1.538,0,0,0-.265,0v72.526h4.541v3.1H217.464v-3.018H228.3V85.539H189.326V82.395h38.987v-3.11h-39v-3.11h38.984V73.031H189.329V69.887H228.31V66.74H174.4c-1.931,0-2.349-.418-2.35-2.344,0-1.727-.01-3.454,0-5.182.01-1.281.573-1.855,1.851-1.856q27.864-.008,55.727,0c1.365,0,1.86.591,1.86,2.146q0,24.294,0,48.59v11.783ZM245.534,41.4c-.245-.071-.429-.134-.618-.18q-21.2-5.122-42.4-10.225a3.593,3.593,0,0,0-1.617.033q-13.234,3.168-26.46,6.382-8.2,1.981-16.428,3.966v3c.388-.082.736-.146,1.079-.229q20.915-5.043,41.831-10.075a3.608,3.608,0,0,1,1.618-.015q17.743,4.242,35.476,8.531c2.487.6,4.975,1.2,7.517,1.807ZM175.221,63.545h53.06V60.532h-53.06Z" transform="translate(181.49 476)" fill="#e5dbd7"/>
      <path id="Trazado_278858" data-name="Trazado 278858" d="M186.125,94.9h25.934c1.746,0,2.222.466,2.222,2.178q0,11.875,0,23.752c0,1.747-.467,2.226-2.175,2.226h-55.13c-1.651,0-2.135-.493-2.136-2.165q0-24.438,0-48.874c0-1.662.485-2.144,2.154-2.145q13.49,0,26.978,0c1.663,0,2.151.488,2.151,2.15q0,10.851,0,21.7ZM158.038,73.046v21.77h24.9V73.066h-6.2c0,2.444,0,4.818,0,7.193,0,1.609-.5,2.12-2.083,2.123q-4.056.006-8.113,0c-1.878,0-2.316-.432-2.317-2.278,0-2.337,0-4.674,0-7.059Zm24.888,46.832v-21.8h-6.187v1c0,2.183.012,4.366-.005,6.549a1.573,1.573,0,0,1-1.726,1.784q-4.545.027-9.09,0a1.551,1.551,0,0,1-1.686-1.721c-.023-1.336-.006-2.672-.007-4.008V98.1h-6.208v21.78Zm21.97-21.8c0,2.537.008,5.007,0,7.477-.006,1.237-.572,1.847-1.756,1.853q-4.5.027-8.993,0a1.568,1.568,0,0,1-1.755-1.753c-.019-2.216,0-4.432-.008-6.647,0-.312-.028-.624-.042-.932h-6.154v21.782h24.923V98.074ZM173.567,73.066h-6.136V79.2h6.136ZM167.4,104.217h6.136V98.072H167.4Zm34.321-6.123h-6.136v6.138h6.136Z" transform="translate(181.49 476)" fill="#e5dbd7"/>
      <path id="Trazado_278859" data-name="Trazado 278859" d="M201.777,43.279c1.075,0,2.15-.024,3.223.005a4.684,4.684,0,0,1-.02,9.367q-3.222.06-6.446,0a4.684,4.684,0,0,1,.02-9.367c1.074-.027,2.149,0,3.223,0m-.04,6.253c1.01,0,2.02.019,3.03-.005a1.564,1.564,0,1,0-.039-3.115q-2.98-.03-5.962,0a1.555,1.555,0,0,0-1.683,1.526,1.573,1.573,0,0,0,1.722,1.589c.977.022,1.955.005,2.932,0" transform="translate(181.49 476)" fill="#e5dbd7"/>
      <g id="Grupo_261049" data-name="Grupo 261049" transform="translate(181.49 476)" style="isolation: isolate">
        <g id="Grupo_261048" data-name="Grupo 261048">
          <g id="Grupo_261047" data-name="Grupo 261047" clip-path="url(#clip-path)">
            <rect id="Rectángulo_325184" data-name="Rectángulo 325184" width="3.042" height="2.995" transform="translate(176.789 88.715)" fill="#e5dbd7"/>
          </g>
        </g>
      </g>
      <g id="Grupo_261052" data-name="Grupo 261052" transform="translate(181.49 476)" style="isolation: isolate">
        <g id="Grupo_261051" data-name="Grupo 261051">
          <g id="Grupo_261050" data-name="Grupo 261050" clip-path="url(#clip-path-2)">
            <rect id="Rectángulo_325186" data-name="Rectángulo 325186" width="3.037" height="2.986" transform="translate(176.759 113.748)" fill="#e5dbd7"/>
          </g>
        </g>
      </g>
      <g id="Grupo_261055" data-name="Grupo 261055" transform="translate(181.49 476)" style="isolation: isolate">
        <g id="Grupo_261054" data-name="Grupo 261054">
          <g id="Grupo_261053" data-name="Grupo 261053" clip-path="url(#clip-path-3)">
            <rect id="Rectángulo_325188" data-name="Rectángulo 325188" width="2.986" height="3.037" transform="translate(204.959 113.688)" fill="#e5dbd7"/>
          </g>
        </g>
      </g>
    </g>
  </g>
</svg>
