<svg xmlns="http://www.w3.org/2000/svg" width="148.587" height="148.586" viewBox="0 0 148.587 148.586">
  <g id="Grupo_261816" data-name="Grupo 261816" transform="translate(-1146.999 -481.091)">
    <g id="Grupo_261136" data-name="Grupo 261136">
      <path id="Trazado_278856" data-name="Trazado 278856" d="M1114.1,79.384A74.293,74.293,0,1,1,1039.8,5.091,74.293,74.293,0,0,1,1114.1,79.384" transform="translate(181.49 476)" fill="#632059"/>
      <path id="Trazado_278887" data-name="Trazado 278887" d="M1098.223,59.9c-.224,2.12-.473,4.238-.669,6.361-.609,6.58-1.193,13.163-1.8,19.743a7.82,7.82,0,0,1-.293,1.43,1.736,1.736,0,0,1-1.962,1.454,1.706,1.706,0,0,1-1.353-2.117c.244-2.085.542-4.166.735-6.256q.993-10.769,1.923-21.544c.142-1.627-.577-2.389-2.19-2.437-3.556-.106-5.17,1.222-5.51,4.743q-.831,8.577-1.513,17.17c-.292,3.62-1.9,6-4.863,6.815a9.984,9.984,0,0,1-2.558.31c-4.471.03-8.942,0-13.413.02a5.06,5.06,0,0,0-5.318,5.615,1.713,1.713,0,0,0,1.919,1.863c7.551.008,15.1.037,22.654-.057a11.416,11.416,0,0,0,3.656-.968c1.338-.5,2.227-.358,2.681.652.433.965.04,1.78-1.2,2.393-.7.347-1.427.637-2.224.989q1.761,5.763,3.513,11.5c.615,2.009,1.3,4,1.812,6.032a2.779,2.779,0,0,1-.3,2.067c-.786,1.071-2.3.626-2.778-.769-.615-1.81-1.161-3.645-1.7-5.48-.156-.536-.345-.817-.977-.815-7.364.023-14.728.017-22.092.023a2.094,2.094,0,0,0-.387.086c-.6,1.944-1.207,3.912-1.828,5.873-.415,1.308-1.206,1.869-2.172,1.577-1.05-.317-1.442-1.239-1.04-2.565q2.4-7.913,4.829-15.818c.119-.39.224-.784.379-1.326-1.016,0-1.937.014-2.857,0a5.073,5.073,0,0,1-5.275-5.353,8.413,8.413,0,0,1,8.8-8.9c4.471-.023,8.942,0,13.413-.007,2.464,0,3.7-1.178,3.92-3.658.526-6.061,1.024-12.125,1.6-18.18.6-6.236,6.541-8.307,11.24-6.757,1.781.587,2.619,2.131,3.2,3.813Zm-33.128,45.3h21.08c-.884-2.864-1.731-5.644-2.624-8.409-.055-.169-.474-.31-.725-.311q-7.2-.029-14.4,0c-.268,0-.708.213-.774.421-.876,2.735-1.7,5.486-2.555,8.295" transform="translate(181.49 476)" fill="#e5dbd7"/>
      <path id="Trazado_278888" data-name="Trazado 278888" d="M1034.555,106.059V75.315H1033.2c-6.35,0-12.7.017-19.049-.009-2.912-.012-4.811-2.183-4.271-4.783a7.525,7.525,0,0,1,6.1-5.891,27.812,27.812,0,0,1,4.493-.167,1.676,1.676,0,0,1,1.731,1.71,1.706,1.706,0,0,1-1.8,1.631c-1.013.035-2.03-.016-3.043.023a4.319,4.319,0,0,0-4.067,3.009c-.209.728,0,1.089.772,1.09.3,0,.6,0,.9,0h51.061c.3,0,.6,0,.9,0,.783,0,.962-.388.753-1.1a4.327,4.327,0,0,0-3.851-2.988c-.411-.032-.826-.019-1.24-.019h-33.364c-1.623-.006-2.451-.574-2.448-1.681s.851-1.7,2.455-1.7q16.908,0,33.816,0c3.817,0,6.777,2.021,7.819,5.285.988,3.1-.737,5.558-3.993,5.581-5.222.039-10.445.012-15.668.012h-4.765v30.71c.765.087,1.544.114,2.3.27,3.665.762,5.077,4.256,5.022,7.1-.033,1.724-1.551,2.858-3.557,2.863-5.185.014-10.37,0-15.555,0-1.315,0-2.63.018-3.945,0-2.582-.044-3.923-1.861-3.377-4.378.625-2.88,2.048-4.982,5.082-5.637a17.246,17.246,0,0,1,2.139-.184m3.515-.012h4.85V75.366h-4.85Zm12.269,6.833c-.493-2.714-1.256-3.372-3.762-3.373q-6.132,0-12.264,0c-2.411,0-3.349.865-3.611,3.373h19.637Z" transform="translate(181.49 476)" fill="#e5dbd7"/>
      <path id="Trazado_278889" data-name="Trazado 278889" d="M1016.778,96.457c.9,2.948,1.752,5.775,2.616,8.6q1.269,4.14,2.551,8.278c.066.215.133.431.183.65a1.728,1.728,0,0,1-1.1,2.17,1.645,1.645,0,0,1-2.112-1.18c-.61-1.851-1.164-3.722-1.711-5.593a.893.893,0,0,0-1.01-.768q-10.82.033-21.64,0a.884.884,0,0,0-1.023.755q-.8,2.814-1.725,5.59a1.667,1.667,0,0,1-1.992,1.233,1.689,1.689,0,0,1-1.218-2.1,6.362,6.362,0,0,1,.206-.759q1.443-4.734,2.89-9.468c.787-2.579,1.573-5.159,2.366-7.762a31.208,31.208,0,0,1-2.853-1.365,12.528,12.528,0,0,1-6.16-10.175c-.751-8.378-1.467-16.759-2.223-25.136-.34-3.781,1.9-6.26,5.732-6.281,4.826-.026,8.117,2.6,8.631,6.935.2,1.715.319,3.44.469,5.161.4,4.526.765,9.055,1.188,13.579.211,2.257,1.513,3.372,3.832,3.376,4.471.008,8.941-.013,13.412.006,5.449.024,9.083,3.856,8.845,9.294a5.043,5.043,0,0,1-4.988,4.946c-1.006.035-2.015.006-3.163.006m-8.633-3.375c3.795,0,7.59.01,11.386,0,1.391-.006,1.982-.617,2.022-1.99a5.037,5.037,0,0,0-5.331-5.492c-4.434-.019-8.867,0-13.3-.006-4.58,0-7.144-2.454-7.515-7.04-.473-5.839-1-11.674-1.541-17.508-.287-3.1-1.9-4.5-5.053-4.5-2.188,0-2.792.717-2.6,2.9.744,8.229,1.51,16.456,2.17,24.691.431,5.379,4.1,8.924,9.5,8.948,3.42.015,6.839,0,10.258,0m-13.311,12.085H1015.9c-.821-2.669-1.647-5.232-2.381-7.822-.21-.743-.566-.9-1.264-.892-3.488.03-6.976.013-10.464.013h-4.294l-2.659,8.7" transform="translate(181.49 476)" fill="#e5dbd7"/>
    </g>
  </g>
</svg>
