<svg xmlns="http://www.w3.org/2000/svg" xmlns:xlink="http://www.w3.org/1999/xlink" width="85" height="84.854" viewBox="0 0 85 84.854">
  <defs>
    <clipPath id="clip-path">
      <rect id="Rectángulo_325460" data-name="Rectángulo 325460" width="85" height="84.854" fill="none"/>
    </clipPath>
  </defs>
  <g id="Grupo_261817" data-name="Grupo 261817" transform="translate(-180 -1085)">
    <g id="Grupo_261660" data-name="Grupo 261660" transform="translate(180 1085)">
      <g id="Grupo_261660-2" data-name="Grupo 261660" clip-path="url(#clip-path)">
        <path id="Trazado_279432" data-name="Trazado 279432" d="M42.388,84.854H2.244C.191,84.854,0,84.669,0,82.659Q0,51.023.025,19.388a2.4,2.4,0,0,1,.6-1.462A54.067,54.067,0,0,1,13.564,7.613,59.914,59.914,0,0,1,30.308,1.136,46.983,46.983,0,0,1,37.125.244,51.351,51.351,0,0,1,43.8.04c2.76.135,5.506.545,8.259.822A43.14,43.14,0,0,1,62.315,3.49,52.1,52.1,0,0,1,77.262,11.7c2.46,1.96,4.723,4.173,7.009,6.341a2.567,2.567,0,0,1,.7,1.684q.053,31.581.028,63.163c0,1.459-.529,1.965-2.031,1.965q-20.289,0-40.579,0m25.95-39.7h-.226c-.286-.019-.573-.055-.86-.055q-24.861,0-49.722,0c-.286,0-.573.037-.86.057l-.183.217q0,1.743,0,3.485c.176.11.352.316.528.316q7.31,0,14.62-.039a2.113,2.113,0,0,1,1.3,2.284c-.032,4.647.01,9.294.025,13.941l.2.215c4.643.017,9.287.061,13.93.031a2.2,2.2,0,0,1,2.319,1.261q-.019,7.3-.026,14.608c0,.19.176.379.271.569l18.675,0,.172-.183c.011-1.551.032-3.1.031-4.653q-.009-15.913-.026-31.827l-.173-.227m11.489-27.77c-.066-.016-.131-.032-.2-.05-.706-.655-1.4-1.328-2.12-1.963A49.59,49.59,0,0,0,68.27,9.112,47.917,47.917,0,0,0,56.3,4.47a86.429,86.429,0,0,0-10.21-1.605,45.766,45.766,0,0,0-6.533-.024,35.266,35.266,0,0,0-5.767.488A79.788,79.788,0,0,0,24.08,5.785,46.838,46.838,0,0,0,11,12.548C9.06,14,7.241,15.611,5.368,17.15l-.311.444.54.1c.468.021.936.062,1.4.062q35.645,0,71.29,0c.434,0,.867-.015,1.3-.023l.459-.078-.224-.273M16.671,65.569l.216.007,13.023,0,.205-.218q0-6.517,0-13.034l-.194-.183H27.523a26.6,26.6,0,0,0,.018,2.683,2.474,2.474,0,0,1-1.109,2.582l-.2.057-.452.019H20.805c-1.512-.331-1.741-.616-1.741-2.177,0-1.038,0-2.076,0-3.13h-2.6c0,4.4,0,8.733.008,13.065,0,.108.129.217.2.325M33.159,82.045H46.547V68.468H43.8c0,1.266.006,2.454,0,3.643-.008,1.281-.453,1.726-1.756,1.735q-2.382.015-4.765,0c-1.291-.006-1.711-.434-1.719-1.748-.008-1.214,0-2.429,0-3.668H33.16l-.192.181V81.864l.191.181M68.475,39.751a6.428,6.428,0,0,0-1.023-.163q-24.953-.012-49.905,0a6.372,6.372,0,0,0-1.022.164v2.525h51.95Zm.026-3.268V34.171h-52v2.313l.366.341.677,0c.288.016.576.048.864.048q24.093,0,48.186,0c.288,0,.576-.031.864-.048l.679,0,.365-.341m-54-13.338H70.494c.112.088.214.23.339.256a3.341,3.341,0,0,1,2.909,3.052c.193,1.737.215,3.5.247,5.246.039,2.143-.007,2.159-2.176,2.407-.084.01-.156.117-.233.178a3.563,3.563,0,0,0-.267.937q-.02,22.96,0,45.92a3.312,3.312,0,0,0,.27.9H82.191V61.881a2.416,2.416,0,0,0-.806-.337c-2.105-.025-4.211-.009-6.316-.006A1.526,1.526,0,0,1,73.993,59.9q.032-6.59,0-13.179a1.528,1.528,0,0,1,1.075-1.642c2.141,0,4.283.018,6.424,0,.234,0,.466-.22.7-.337q0-11.946,0-23.892l-.185-.284c-.358-.025-.716-.073-1.074-.073q-38.434-.005-76.868,0c-.358,0-.716.048-1.074.073l-.185.283c-.013.18-.037.36-.037.539q0,29.978,0,59.956a6.534,6.534,0,0,0,.074.708H13.417a2.656,2.656,0,0,0,.27-.794q.02-23.062,0-46.124a2.6,2.6,0,0,0-.27-.784c-2.181.083-2.534-.894-2.431-2.6a25.209,25.209,0,0,0-.008-4.012,4.142,4.142,0,0,1,3.527-4.585m28,8.147H62.14c2.747,0,5.5-.024,8.242.015.768.011,1.054-.242.975-1-.082-.787-.113-1.579-.175-2.368-.154-1.957-.3-2.093-2.285-2.093H16.082c-.361,0-.811-.12-1.064.049-.458.306-1.032.734-1.14,1.206a27.714,27.714,0,0,0-.241,3.007c-.113.984.282,1.2,1.218,1.2,9.218-.034,18.437-.02,27.655-.02M19.062,68.481H16.521V82.013H30.069V68.478H27.3c0,1.347.005,2.61,0,3.872-.006,1.037-.451,1.485-1.508,1.493q-2.493.018-4.987,0a1.6,1.6,0,0,1-1.738-1.819c0-1.154,0-2.308,0-3.543M82.156,51.859V47.88h-5.3V58.729h5.311v-3.95c-.885-.059-1.952.176-2.45-.252-.451-.388-.28-1.5-.384-2.293l2.825-.374M38.412,71h2.5V68.432h-2.5Zm-13.75-2.542H22.155v2.488h2.508ZM21.9,52.154c-.086,2.973-.016,3.029,2.546,2.181V52.154Z" transform="translate(0 -0.001)"/>
        <path id="Trazado_279433" data-name="Trazado 279433" d="M81.572,108.187c.077-.062.15-.169.233-.178,2.169-.248,2.214-.264,2.176-2.407-.031-1.75-.054-3.51-.247-5.246A3.341,3.341,0,0,0,80.825,97.3c-.125-.026-.227-.168-.339-.256a2.965,2.965,0,0,0-.918-.328q-27.076-.024-54.153,0a2.978,2.978,0,0,0-.918.328,4.142,4.142,0,0,0-3.527,4.585,25.209,25.209,0,0,1,.008,4.012c-.1,1.707.25,2.684,2.431,2.6q0,23.851,0,47.7H12.838a6.583,6.583,0,0,1-.074-.708q-.005-29.978,0-59.956c0-.18.024-.359.037-.539l.185-.283c.358-.025.716-.072,1.074-.073q38.434-.005,76.868,0c.358,0,.716.048,1.074.073l.185.284q0,11.946,0,23.892c-2.037,0-4.075-.017-6.111.014a3.625,3.625,0,0,0-1.012.328,1.527,1.527,0,0,0-1.075,1.642q.032,6.59,0,13.179a1.526,1.526,0,0,0,1.076,1.641,3.6,3.6,0,0,0,1.01.329c2.037.031,4.075.014,6.112.014v20.164H81.576q0-23.88,0-47.76M16.707,122.954c.5.718,1.079.626,1.7.172l1.132-.056v-2.635H16.707Zm.053,11.009h2.793v-2.6H16.759Zm-.218-7.9c.156.889.034,2.011.512,2.406a2.352,2.352,0,0,0,2.306-.012c.474-.4.337-1.522.479-2.394Z" transform="translate(-9.992 -73.902)" fill="#a31f1f"/>
        <path id="Trazado_279434" data-name="Trazado 279434" d="M127.821,244.762l-18.675,0c0-4.654.007-9.308-.009-13.961a6.456,6.456,0,0,0-.235-1.215,2.2,2.2,0,0,0-2.319-1.261c-4.643.029-9.287-.014-13.93-.031l-.2-.215c-.015-4.647-.057-9.294-.025-13.94a2.114,2.114,0,0,0-1.3-2.285,4.582,4.582,0,0,0-1.07-.266c-4.693-.018-9.386-.011-14.078-.01q0-1.743,0-3.485l.183-.217c.286-.02.573-.057.86-.057q24.861,0,49.722,0c.287,0,.573.036.86.055l.222.225q.089,0,.177,0,.014,15.913.027,31.827c0,1.551-.02,3.1-.031,4.653l-.172.183" transform="translate(-59.486 -162.715)" fill="#e7e4dd"/>
        <path id="Trazado_279435" data-name="Trazado 279435" d="M98.958,27.593c-.434.008-.868.023-1.3.023q-35.645,0-71.29,0c-.468,0-.936-.04-1.4-.062l-.229-.547c1.873-1.539,3.692-3.151,5.632-4.6a46.832,46.832,0,0,1,13.081-6.762,79.748,79.748,0,0,1,9.707-2.457A35.242,35.242,0,0,1,58.92,12.7a45.737,45.737,0,0,1,6.533.024,86.433,86.433,0,0,1,10.21,1.605,47.926,47.926,0,0,1,11.972,4.643,49.589,49.589,0,0,1,9.242,6.262c.723.635,1.414,1.308,2.12,1.963-.006.079-.011.157-.016.236a.568.568,0,0,0-.023.164M48.189,22.067l-.178.168v2.514H75.5V22.235l-.177-.167H48.189m-.179-2.851H75.481V16.649H48.01Z" transform="translate(-19.366 -9.856)" fill="#933232"/>
        <path id="Trazado_279436" data-name="Trazado 279436" d="M91.643,124.417c-9.218,0-18.437-.013-27.655.02-.936,0-1.332-.214-1.218-1.2a27.827,27.827,0,0,1,.241-3.007c.108-.472.682-.9,1.14-1.206.253-.169.7-.049,1.064-.049h52.816c1.982,0,2.131.135,2.284,2.093.062.789.093,1.581.175,2.368.078.753-.208,1.006-.975,1-2.747-.039-5.495-.015-8.242-.015H91.643" transform="translate(-49.133 -93.124)" fill="#243242"/>
        <path id="Trazado_279437" data-name="Trazado 279437" d="M77.072,160.113l-.677,0-.366-.341v-2.313h52v2.313l-.365.341-.679,0a2.908,2.908,0,0,0-.911-.333q-24.047-.024-48.093,0a2.905,2.905,0,0,0-.911.333" transform="translate(-59.53 -123.285)" fill="#758190"/>
        <path id="Trazado_279438" data-name="Trazado 279438" d="M128.1,183.171V185.7H76.147v-2.525a8.147,8.147,0,0,0,1.259.194q24.716.015,49.432,0a8.092,8.092,0,0,0,1.259-.2" transform="translate(-59.622 -143.42)" fill="#74808f"/>
        <path id="Trazado_279439" data-name="Trazado 279439" d="M78.669,315.545c0,1.236,0,2.39,0,3.543a1.6,1.6,0,0,0,1.738,1.819q2.493.019,4.987,0c1.057-.008,1.5-.456,1.508-1.493.007-1.262,0-2.525,0-3.872h2.771v13.535H76.128V315.545Zm.053,10.741h8.1v-2.526h-8.1Z" transform="translate(-59.607 -247.065)" fill="#986947"/>
        <path id="Trazado_279440" data-name="Trazado 279440" d="M152.109,315.324H154.5c0,1.239-.006,2.454,0,3.668.009,1.313.429,1.741,1.719,1.748q2.382.012,4.765,0c1.3-.008,1.748-.453,1.756-1.735.007-1.188,0-2.377,0-3.643H165.5v13.577H152.108l-.191-.181V315.5l.192-.181m10.656,10.89V323.6H154.4l.325,2.681c.206.1.411.291.619.293q3.364.032,6.727,0c.232,0,.46-.229.69-.352" transform="translate(-118.949 -246.894)" fill="#c18e59"/>
        <path id="Trazado_279441" data-name="Trazado 279441" d="M89.313,253.715l-13.023,0-.216-.007c-.069-.108-.2-.216-.2-.325-.01-4.332-.009-8.664-.009-13.065h2.6c0,1.054,0,2.092,0,3.13,0,1.561.229,1.847,1.741,2.177,1.371.091,2.741.2,4.113.258a2.771,2.771,0,0,0,.858-.259l.452-.019.085.16.119-.216a2.475,2.475,0,0,0,1.109-2.582,26.536,26.536,0,0,1-.018-2.683h2.393l.194.183q0,6.517,0,13.034l-.205.218M78.5,248.5v2.483h8.427a15.422,15.422,0,0,1,.01-1.586c.092-.859-.238-1.143-1.1-1.122-2.385.06-4.771.039-7.158.05l-.175.174" transform="translate(-59.404 -188.137)" fill="#c18e59"/>
        <path id="Trazado_279442" data-name="Trazado 279442" d="M359.442,224.609l-2.825.374c.1.795-.067,1.9.384,2.293.5.428,1.565.194,2.45.253v3.95h-5.311V220.63h5.3Z" transform="translate(-277.286 -172.75)" fill="#c66b60"/>
        <path id="Trazado_279443" data-name="Trazado 279443" d="M66.842,105.427a2.972,2.972,0,0,1,.918-.328q27.076-.024,54.153,0a2.968,2.968,0,0,1,.918.328H66.842" transform="translate(-52.336 -82.282)" fill="#d4dbe5"/>
        <path id="Trazado_279444" data-name="Trazado 279444" d="M128.1,182.561a8.092,8.092,0,0,1-1.259.2q-24.716.015-49.432,0a8.147,8.147,0,0,1-1.259-.194,6.347,6.347,0,0,1,1.022-.164q24.953-.012,49.905,0a6.4,6.4,0,0,1,1.023.163" transform="translate(-59.622 -142.81)" fill="#7b8898"/>
        <path id="Trazado_279445" data-name="Trazado 279445" d="M80.837,168.456a2.905,2.905,0,0,1,.911-.333q24.046-.024,48.093,0a2.908,2.908,0,0,1,.911.333c-.288.016-.576.047-.864.047q-24.093,0-48.186,0c-.288,0-.576-.031-.864-.047" transform="translate(-63.294 -131.628)" fill="#7b8898"/>
        <path id="Trazado_279446" data-name="Trazado 279446" d="M61.824,205.953q0-23.851,0-47.7a2.6,2.6,0,0,1,.27.784q.02,23.062,0,46.124a2.658,2.658,0,0,1-.27.794" transform="translate(-48.407 -123.908)" fill="#d4dbe5"/>
        <path id="Trazado_279447" data-name="Trazado 279447" d="M328.843,157.983l0,47.76a3.312,3.312,0,0,1-.27-.9q-.02-22.96,0-45.92a3.563,3.563,0,0,1,.267-.937" transform="translate(-257.263 -123.698)" fill="#d4dbe5"/>
        <rect id="Rectángulo_325455" data-name="Rectángulo 325455" width="2.502" height="2.567" transform="translate(38.412 68.432)" fill="#f5d680"/>
        <rect id="Rectángulo_325456" data-name="Rectángulo 325456" width="2.508" height="2.488" transform="translate(22.155 68.457)" fill="#f5d680"/>
        <path id="Trazado_279448" data-name="Trazado 279448" d="M100.82,240.325h2.546v2.181c-2.562.848-2.632.791-2.546-2.181" transform="translate(-78.925 -188.171)" fill="#f5d680"/>
        <path id="Trazado_279449" data-name="Trazado 279449" d="M75.977,225.141c4.693,0,9.386-.007,14.078.01a4.576,4.576,0,0,1,1.07.266q-7.31.027-14.62.04c-.176,0-.352-.206-.528-.316" transform="translate(-59.489 -176.281)" fill="#fdfaf2"/>
        <path id="Trazado_279450" data-name="Trazado 279450" d="M227.612,308.127a6.474,6.474,0,0,1,.235,1.215c.016,4.654.01,9.307.009,13.961-.094-.19-.27-.379-.27-.569q0-7.3.026-14.607" transform="translate(-178.196 -241.259)" fill="#fdfaf2"/>
        <path id="Trazado_279451" data-name="Trazado 279451" d="M353.038,283.879c-2.038,0-4.075.017-6.112-.014a3.613,3.613,0,0,1-1.01-.329c2.106,0,4.211-.019,6.316.006a2.412,2.412,0,0,1,.806.337" transform="translate(-270.847 -221.998)" fill="#d4dbe5"/>
        <path id="Trazado_279452" data-name="Trazado 279452" d="M345.912,206.46a3.632,3.632,0,0,1,1.012-.328c2.037-.03,4.074-.014,6.111-.014-.233.118-.465.335-.7.337-2.141.023-4.283.008-6.424,0" transform="translate(-270.844 -161.385)" fill="#d4dbe5"/>
        <path id="Trazado_279453" data-name="Trazado 279453" d="M100.84,264.889a2.759,2.759,0,0,1-.858.259c-1.372-.058-2.742-.167-4.113-.258h4.971" transform="translate(-75.064 -207.404)" fill="#cf985f"/>
        <path id="Trazado_279454" data-name="Trazado 279454" d="M23.611,79.025l.229.547-.54-.1.311-.444" transform="translate(-18.244 -61.875)" fill="#8e98a7"/>
        <path id="Trazado_279455" data-name="Trazado 279455" d="M366.76,80.467a.568.568,0,0,1,.023-.164l.212-.186.224.273-.459.077" transform="translate(-287.168 -62.73)" fill="#5c636d"/>
        <path id="Trazado_279456" data-name="Trazado 279456" d="M76.029,168.113l.366.341-.366-.341" transform="translate(-59.53 -131.63)" fill="#7b8898"/>
        <path id="Trazado_279457" data-name="Trazado 279457" d="M378.078,95.017l-.185-.284.185.284" transform="translate(-295.885 -74.175)" fill="#c8cfd9"/>
        <path id="Trazado_279458" data-name="Trazado 279458" d="M13.123,94.733l-.185.283.185-.283" transform="translate(-10.13 -74.175)" fill="#c8cfd9"/>
        <path id="Trazado_279459" data-name="Trazado 279459" d="M121.061,264.541l-.119.216-.085-.16.2-.057" transform="translate(-94.629 -207.132)" fill="#cf985f"/>
        <path id="Trazado_279460" data-name="Trazado 279460" d="M313.971,168.454l.365-.341-.365.341" transform="translate(-245.835 -131.63)" fill="#7b8898"/>
        <path id="Trazado_279461" data-name="Trazado 279461" d="M315.06,208.31c-.059,0-.118,0-.177,0q0-.112,0-.224l.173.227" transform="translate(-246.549 -162.926)" fill="#c8cfd9"/>
        <path id="Trazado_279462" data-name="Trazado 279462" d="M137.822,301.4l.205-.218-.205.218" transform="translate(-107.913 -235.821)" fill="#cf985f"/>
        <path id="Trazado_279463" data-name="Trazado 279463" d="M151.908,301.183l.2.215-.2-.215" transform="translate(-118.942 -235.822)" fill="#fdfaf2"/>
        <path id="Trazado_279464" data-name="Trazado 279464" d="M76.818,302.138l.216.007-.216-.007" transform="translate(-60.147 -236.57)" fill="#cf985f"/>
        <path id="Trazado_279465" data-name="Trazado 279465" d="M138.051,240.464l-.194-.183.194.183" transform="translate(-107.94 -188.137)" fill="#cf985f"/>
        <path id="Trazado_279466" data-name="Trazado 279466" d="M152.109,315.324l-.192.181.192-.181" transform="translate(-118.949 -246.894)" fill="#cf985f"/>
        <path id="Trazado_279467" data-name="Trazado 279467" d="M314.087,208.079c0,.075,0,.149,0,.224l-.222-.225h.226" transform="translate(-245.749 -162.922)" fill="#fdfaf2"/>
        <path id="Trazado_279468" data-name="Trazado 279468" d="M76.156,208.085l-.183.217.183-.217" transform="translate(-59.486 -162.928)" fill="#fdfaf2"/>
        <path id="Trazado_279469" data-name="Trazado 279469" d="M367.08,79.936l-.212.186c.005-.079.011-.157.017-.236q.1.026.2.05" transform="translate(-287.253 -62.55)" fill="#8e98a7"/>
        <path id="Trazado_279470" data-name="Trazado 279470" d="M151.917,377.226l.191.181-.191-.181" transform="translate(-118.949 -295.363)" fill="#cf985f"/>
        <path id="Trazado_279471" data-name="Trazado 279471" d="M314.887,377.412l.172-.183-.172.183" transform="translate(-246.552 -295.365)" fill="#c8cfd9"/>
        <rect id="Rectángulo_325457" data-name="Rectángulo 325457" width="2.793" height="2.595" transform="translate(6.767 57.465)"/>
        <path id="Trazado_279472" data-name="Trazado 279472" d="M30.18,240.346h3.3c-.142.872,0,1.993-.479,2.394a2.352,2.352,0,0,1-2.306.012c-.478-.394-.356-1.517-.512-2.406" transform="translate(-23.631 -188.188)"/>
        <path id="Trazado_279473" data-name="Trazado 279473" d="M30.941,216.941v-2.519h2.828v2.635l-1.132.056-1.7-.172" transform="translate(-24.226 -167.889)"/>
        <path id="Trazado_279474" data-name="Trazado 279474" d="M30.941,226.031l1.7.172c-.617.454-1.2.546-1.7-.172" transform="translate(-24.226 -176.979)" fill="#535659"/>
        <path id="Trazado_279475" data-name="Trazado 279475" d="M159.493,56.435v2.514H132V56.435l.178-.168h27.136l.177.167" transform="translate(-103.356 -44.056)"/>
        <rect id="Rectángulo_325458" data-name="Rectángulo 325458" width="27.471" height="2.567" transform="translate(28.645 6.792)"/>
        <path id="Trazado_279476" data-name="Trazado 279476" d="M258.041,56.439l-.177-.167.177.167" transform="translate(-201.904 -44.06)" fill="#0d0e0f"/>
        <path id="Trazado_279477" data-name="Trazado 279477" d="M132.18,56.267l-.178.168.178-.168" transform="translate(-103.356 -44.056)" fill="#0d0e0f"/>
        <rect id="Rectángulo_325459" data-name="Rectángulo 325459" width="8.105" height="2.526" transform="translate(19.115 76.694)"/>
        <path id="Trazado_279478" data-name="Trazado 279478" d="M163.7,356.119l-.325-2.681h8.362v2.618l-8.036.063" transform="translate(-127.92 -276.737)"/>
        <path id="Trazado_279479" data-name="Trazado 279479" d="M164.874,365.565l8.036-.062c-.23.123-.459.35-.69.352q-3.363.04-6.727,0c-.207,0-.413-.191-.619-.293" transform="translate(-129.094 -286.184)" fill="#cf985f"/>
        <path id="Trazado_279480" data-name="Trazado 279480" d="M88.173,277.16c2.386-.011,4.773.01,7.158-.05.866-.022,1.2.262,1.1,1.122a15.482,15.482,0,0,0-.01,1.586H88v-2.483l.176-.174" transform="translate(-68.9 -216.972)"/>
        <path id="Trazado_279481" data-name="Trazado 279481" d="M88.173,277.344l-.176.174.176-.174" transform="translate(-68.9 -217.156)" fill="#0d0e0f"/>
      </g>
    </g>
  </g>
</svg>
