<svg xmlns="http://www.w3.org/2000/svg" width="199.254" height="199.254" viewBox="0 0 199.254 199.254">
  <g id="Grupo_261818" data-name="Grupo 261818" transform="translate(-385.801 -1937.965)">
    <g id="Grupo_261180" data-name="Grupo 261180">
      <path id="Trazado_278902" data-name="Trazado 278902" d="M406.055,138.216a99.627,99.627,0,1,1-99.627-99.627,99.627,99.627,0,0,1,99.627,99.627" transform="translate(179 1899.376)" fill="#e5dbd7"/>
      <path id="Trazado_278949" data-name="Trazado 278949" d="M256.062,129.03a2.138,2.138,0,0,1-1.975-2.435c.009-5.417.018-10.835-.008-16.252a2.691,2.691,0,0,1,1.571-2.587q26.367-14.748,52.7-29.558a2.964,2.964,0,0,1,3.26.063c5.671,3.223,11.37,6.4,17.138,9.632.357-1.246.637-2.442,1.04-3.6,3.568-10.212,13.8-16.991,24.269-16.1,11.316.961,20.4,9.048,22.082,20.044,1.457,9.547-1.863,17.351-9.487,23.283a2.015,2.015,0,0,0-.936,1.795q.038,34.065,0,68.13c0,1.016.25,1.324,1.283,1.289,2.338-.081,4.68-.041,7.02-.02,1.843.015,2.469.669,2.474,2.532.007,2.47.012,4.94,0,7.411-.009,1.656-.714,2.364-2.38,2.371q-5.655.021-11.311,0c-1.58-.005-2.11-.463-2.472-2.056a2.175,2.175,0,0,1,2.524-1.86c1.77.044,3.543-.017,5.314-.033.3.016.6.045.9.047,3.748.022,3.739.022,3.536-3.742-.027-.5-.064-.809-.688-.779-1.245.062-2.494.062-3.74.088-.56-.026-1.121-.075-1.681-.075q-58.167,0-116.333,0c-2.919,0-2.839,0-2.955,2.948-.053,1.33.327,1.6,1.614,1.6q51.8-.059,103.6-.031c1.891,0,2.249.241,2.793,1.845-.4,1.711-.876,2.059-2.862,2.059h-96.4c-3.291,0-6.583-.04-9.873.022a2.861,2.861,0,0,1-2.736-1.3V183.87a3.251,3.251,0,0,1,2.928-1.176c2.163.066,4.331-.043,6.492.044,1.075.044,1.364-.253,1.361-1.343-.04-13.118-.026-26.236-.026-39.355,0-1.818.011-3.636,0-5.455a2.125,2.125,0,0,1,1.973-2.43c1.68.462,1.963.876,1.963,2.966q0,22.1-.021,44.205c0,1.073.281,1.407,1.373,1.386,3.422-.067,6.848-.087,10.269.008,1.266.035,1.558-.321,1.555-1.568q-.066-26.587-.03-53.176c0-2.6.492-3.089,3.124-3.089h59.671c4.074,0,8.147-.011,12.221.006,1.756.007,2.46.71,2.463,2.441q.015,10.077,0,20.153c0,1.5-.471,2.032-1.995,2.4a2.138,2.138,0,0,1-1.918-2.471c.029-5.762-.016-11.526.037-17.288.011-1.085-.3-1.355-1.366-1.353q-33.47.048-66.939,0c-1.165,0-1.42.309-1.417,1.438q.057,25.478.026,50.956a5.637,5.637,0,0,1,0,.65c-.082.695.246.9.9.882,1.559-.032,3.121-.047,4.679.005.819.028,1.041-.294,1.02-1.062-.044-1.6-.027-3.207-.009-4.81.02-1.818.721-2.524,2.516-2.547,1.184-.015,2.369,0,3.838,0-1.235-1.494-1.421-2.861-.24-4.071,1.6-1.637,1.552-3.1-.015-4.734a2.379,2.379,0,0,1-.251-3.308c.638-.869,1.718-1.786,1.7-2.663-.02-.945-1.077-1.877-1.708-2.8a2.311,2.311,0,0,1-.351-2.324,8.1,8.1,0,0,1,8.007-5.319c9.618,0,19.238.08,28.855-.041,3.852-.048,6.553,1.416,8.348,4.793a2.5,2.5,0,0,1-.049,2.894c-.619.883-1.712,1.788-1.7,2.666.018.943,1.071,1.877,1.7,2.8a2.319,2.319,0,0,1,.032,2.888c-.645.917-1.743,1.858-1.743,2.789s1.105,1.866,1.742,2.788a2.285,2.285,0,0,1,.045,2.78c-.148.228-.448.446-.2.861,1.088,0,2.212-.007,3.336,0,1.913.016,2.605.678,2.632,2.566.024,1.646.028,3.293,0,4.939-.013.672.225.925.9.91,1.473-.034,2.95-.073,4.418.012,1.033.061,1.3-.284,1.295-1.3-.041-7.929,0-15.858-.04-23.788-.007-1.432.5-2.326,1.925-2.629,1.669.507,2,.932,2,2.678q.006,11.733,0,23.466c0,.3.017.606,0,.908-.032.492.168.709.673.694,2.372-.066,4.748.127,7.117-.1,1.29.232,2.6,0,3.884.124,1.144.106,1.552-.212,1.55-1.469q-.062-32.759-.03-65.518c0-1.427.007-1.393-1.382-.946-9.319,3-17.634,1.183-24.751-5.5a23.243,23.243,0,0,1-7.26-16.187c-.032-.531-.025-1.006-.618-1.293-1.047-.507-2.062-1.08-3.091-1.625-4.4-2.5-8.821-4.953-13.178-7.522a2.825,2.825,0,0,0-3.267-.023q-24.585,13.885-49.243,27.641a1.8,1.8,0,0,0-1.051,1.834c.042,4.767.03,9.534.013,14.3-.006,1.7-.369,2.135-1.956,2.581M372.586,92.119a20.124,20.124,0,1,0-20.12,20.194,20.169,20.169,0,0,0,20.12-20.194m-62.67,90.607h21.175c3.166,0,3.106,0,3.187-3.163.03-1.171-.31-1.416-1.439-1.413q-22.02.062-44.04.027c-3.235,0-3.187,0-3.247,3.21-.021,1.088.293,1.37,1.37,1.364,7.664-.046,15.329-.025,22.994-.025m.062-29.763c-5.024,0-10.048.009-15.073-.005a3.649,3.649,0,0,0-3.323,1.642.99.99,0,0,0-.006,1.273,3.951,3.951,0,0,0,3.718,1.656q14.617-.02,29.236-.014a7.534,7.534,0,0,0,1.8-.187c1.081-.27,2.079-1.025,2.129-2.032.052-1.037-.971-1.744-2-2.124a5.068,5.068,0,0,0-1.795-.211q-7.341.006-14.683,0m0,8.464q-7.54,0-15.081,0a3.806,3.806,0,0,0-2.132.429c-.679.428-1.4,1-1.4,1.765,0,.822.734,1.415,1.467,1.842a4.328,4.328,0,0,0,2.259.456q14.822-.009,29.641-.006c1.907,0,3.834-1.172,3.793-2.287-.041-1.138-1.82-2.194-3.722-2.2q-7.41-.006-14.82,0m-.03,12.849q7.011,0,14.023,0a18.533,18.533,0,0,0,1.945-.04,3.475,3.475,0,0,0,2.6-2.1c.079-.685-1.354-2.039-2.425-2.249a6.088,6.088,0,0,0-1.163-.062q-15,0-29.993,0c-1.795,0-3.709,1.192-3.659,2.265s1.871,2.188,3.607,2.189q7.53.008,15.061,0" transform="translate(179 1899.376)" fill="#040404"/>
      <path id="Trazado_278950" data-name="Trazado 278950" d="M256.062,129.031c1.588-.446,1.95-.884,1.956-2.582.017-4.766.029-9.533-.013-14.3a1.8,1.8,0,0,1,1.051-1.835Q283.7,96.536,308.3,82.675a2.825,2.825,0,0,1,3.267.022c4.357,2.569,8.78,5.024,13.178,7.522A28.1,28.1,0,0,0,326.19,101.3a29.633,29.633,0,0,0,5.629,9.5,28.158,28.158,0,0,0,8.377,6.383c3.944,2.028,8.234,2.681,12.6,2.965a3.672,3.672,0,0,1,3.657,3.893q.008,29.292-.015,58.586c-2.369.23-4.745.036-7.116.1-.506.014-.706-.2-.674-.7.02-.3,0-.6,0-.907q0-11.733,0-23.466c0-1.747-.328-2.172-2-2.679q0-2.55,0-5.1c1.524-.363,1.993-.894,2-2.4q.015-10.075,0-20.152c0-1.732-.706-2.434-2.463-2.442-4.073-.016-8.147,0-12.22,0H274.3c-2.632,0-3.123.486-3.123,3.089q0,26.589.029,53.176c0,1.248-.289,1.6-1.555,1.568-3.421-.1-6.847-.075-10.269-.008-1.092.022-1.375-.313-1.372-1.385q.049-22.1.02-44.206c0-2.09-.283-2.5-1.963-2.966v-5.124m51.561-20.46h0c0-.951.035-1.9-.009-2.852a1.907,1.907,0,0,0-3.775-.251,27.5,27.5,0,0,0-.016,5.948,1.756,1.756,0,0,0,2.015,1.614,1.79,1.79,0,0,0,1.784-1.866c.03-.863.006-1.728.006-2.593m4.579-.191h0c0,.951-.031,1.9.009,2.853a1.765,1.765,0,0,0,1.716,1.791,1.7,1.7,0,0,0,2.017-1.429,23.1,23.1,0,0,0,.021-6.193,1.7,1.7,0,0,0-1.985-1.472,1.764,1.764,0,0,0-1.776,1.857c-.031.863-.006,1.729-.006,2.593m-16.849-.049h.005c0,.951-.048,1.9.012,2.852a1.931,1.931,0,0,0,3.862-.032c.054-1.771.051-3.545,0-5.316a1.845,1.845,0,0,0-1.885-1.9,1.881,1.881,0,0,0-1.989,1.931c-.044.819-.008,1.642-.008,2.464m29.118.192h.005q0-1.231,0-2.464a2.472,2.472,0,0,0-.008-.259,1.9,1.9,0,0,0-1.932-1.867,1.838,1.838,0,0,0-1.941,1.839c-.057,1.771-.052,3.546-.006,5.317a1.937,1.937,0,0,0,1.984,1.967,1.963,1.963,0,0,0,1.888-1.94c.05-.861.01-1.728.01-2.593" transform="translate(179 1899.376)" fill="#db626d"/>
      <path id="Trazado_278951" data-name="Trazado 278951" d="M355.2,192.978c-.544-1.6-.9-1.845-2.793-1.845q-51.8,0-103.6.031c-1.287,0-1.667-.265-1.614-1.6.116-2.944.036-2.947,2.954-2.947q58.167,0,116.334,0c.56,0,1.12.048,1.68.074q0,2.193-.008,4.387c-1.772.016-3.544.077-5.314.033a2.175,2.175,0,0,0-2.525,1.86Z" transform="translate(179 1899.376)" fill="#ece9ec"/>
      <path id="Trazado_278952" data-name="Trazado 278952" d="M346.654,149.882q0,2.551,0,5.1c-1.425.3-1.931,1.2-1.925,2.629.037,7.929,0,15.859.04,23.788.005,1.018-.262,1.362-1.295,1.3-1.468-.086-2.945-.046-4.417-.013-.678.016-.916-.238-.9-.909.032-1.646.027-3.293,0-4.939-.028-1.888-.719-2.551-2.632-2.566-1.124-.01-2.248,0-3.336,0-.245-.415.055-.634.2-.861a2.288,2.288,0,0,0-.045-2.781c-.638-.921-1.742-1.858-1.742-2.788s1.1-1.871,1.742-2.788a2.318,2.318,0,0,0-.031-2.888c-.627-.921-1.681-1.854-1.7-2.8-.016-.879,1.078-1.783,1.7-2.667a2.5,2.5,0,0,0,.049-2.893c-1.795-3.377-4.495-4.841-8.348-4.793-9.617.12-19.236.038-28.855.041a8.1,8.1,0,0,0-8.007,5.319,2.314,2.314,0,0,0,.351,2.324c.632.919,1.688,1.851,1.708,2.8.019.876-1.062,1.793-1.7,2.663a2.379,2.379,0,0,0,.251,3.308c1.566,1.632,1.611,3.1.015,4.733-1.181,1.211-1,2.577.24,4.072-1.47,0-2.654-.012-3.838,0-1.8.023-2.5.728-2.517,2.547-.017,1.6-.035,3.207.009,4.809.021.769-.2,1.091-1.02,1.063-1.558-.052-3.119-.037-4.678-.005-.656.013-.985-.187-.9-.883a5.4,5.4,0,0,0,0-.649q0-25.479-.027-50.956c0-1.13.252-1.441,1.417-1.439q33.47.057,66.939.005c1.071,0,1.377.268,1.367,1.352-.054,5.763-.008,11.526-.038,17.289a2.139,2.139,0,0,0,1.918,2.471" transform="translate(179 1899.376)" fill="#5b8fb7"/>
      <path id="Trazado_278953" data-name="Trazado 278953" d="M372.587,92.12a20.125,20.125,0,1,1-20.112-20.067A20.177,20.177,0,0,1,372.587,92.12m-23.574,14.309c8.974.028,17.724-8.686,17.753-17.681a10.3,10.3,0,0,0-10.5-10.8c-8.554-.21-17.342,7.752-17.993,16.3-.55,7.221,3.8,12.156,10.741,12.178" transform="translate(179 1899.376)" fill="#f0f7fb"/>
      <path id="Trazado_278954" data-name="Trazado 278954" d="M356.442,182.628q.011-29.294.015-58.586a3.673,3.673,0,0,0-3.657-3.893c-4.37-.285-8.661-.937-12.6-2.965a28.166,28.166,0,0,1-8.376-6.383,29.635,29.635,0,0,1-5.63-9.5,28.123,28.123,0,0,1-1.445-11.079c1.029.545,2.044,1.118,3.091,1.625.593.287.586.762.617,1.294a23.251,23.251,0,0,0,7.26,16.186c7.118,6.679,15.433,8.5,24.752,5.5,1.389-.447,1.381-.481,1.381.947q0,32.758.031,65.517c0,1.258-.407,1.575-1.55,1.469-1.289-.12-2.594.108-3.884-.124" transform="translate(179 1899.376)" fill="#d54852"/>
      <path id="Trazado_278955" data-name="Trazado 278955" d="M309.916,182.727c-7.665,0-15.329-.022-22.994.025-1.077.006-1.39-.277-1.37-1.365.06-3.208.012-3.209,3.248-3.209q22.019,0,44.039-.027c1.129,0,1.47.242,1.439,1.413-.081,3.161-.021,3.163-3.187,3.163Z" transform="translate(179 1899.376)" fill="#f4c75f"/>
      <path id="Trazado_278956" data-name="Trazado 278956" d="M309.978,152.963q7.341,0,14.683,0a5.068,5.068,0,0,1,1.795.211c1.032.38,2.055,1.087,2,2.124-.05,1.007-1.048,1.761-2.129,2.032a7.586,7.586,0,0,1-1.8.187q-14.617.017-29.236.014a3.951,3.951,0,0,1-3.718-1.656.99.99,0,0,1,.006-1.273,3.65,3.65,0,0,1,3.323-1.643c5.025.015,10.049.006,15.073.006" transform="translate(179 1899.376)" fill="#cfa385"/>
      <path id="Trazado_278957" data-name="Trazado 278957" d="M309.981,161.427q7.41,0,14.82,0c1.9,0,3.681,1.059,3.722,2.2.041,1.115-1.886,2.287-3.793,2.287q-14.82.006-29.64.006a4.32,4.32,0,0,1-2.26-.456c-.733-.427-1.471-1.02-1.467-1.842,0-.763.727-1.337,1.4-1.765a3.816,3.816,0,0,1,2.133-.429q7.541.006,15.08,0" transform="translate(179 1899.376)" fill="#cc9674"/>
      <path id="Trazado_278958" data-name="Trazado 278958" d="M309.951,174.276q-7.53,0-15.061,0c-1.736,0-3.558-1.116-3.607-2.189s1.864-2.264,3.659-2.265q15,0,29.993,0a6.088,6.088,0,0,1,1.163.062c1.071.21,2.5,1.564,2.425,2.249a3.475,3.475,0,0,1-2.6,2.1,18.533,18.533,0,0,1-1.945.04q-7.012,0-14.023,0" transform="translate(179 1899.376)" fill="#d7a98a"/>
      <path id="Trazado_278959" data-name="Trazado 278959" d="M368.162,191.084l.009-4.386c1.246-.026,2.495-.026,3.74-.088.624-.03.661.281.688.779.2,3.764.212,3.764-3.536,3.742-.3,0-.6-.031-.9-.047" transform="translate(179 1899.376)" fill="#dad7e7"/>
      <path id="Trazado_278960" data-name="Trazado 278960" d="M307.623,108.571c0,.865.024,1.73-.006,2.593a1.79,1.79,0,0,1-1.783,1.866,1.756,1.756,0,0,1-2.016-1.614,27.5,27.5,0,0,1,.016-5.948,1.907,1.907,0,0,1,3.775.251c.044.949.009,1.9.009,2.852Z" transform="translate(179 1899.376)" fill="#040404"/>
      <path id="Trazado_278961" data-name="Trazado 278961" d="M312.2,108.38c0-.865-.026-1.73.005-2.593a1.767,1.767,0,0,1,1.777-1.858,1.7,1.7,0,0,1,1.985,1.473,23.1,23.1,0,0,1-.022,6.193,1.7,1.7,0,0,1-2.017,1.429,1.766,1.766,0,0,1-1.716-1.791c-.04-.95-.008-1.9-.008-2.853Z" transform="translate(179 1899.376)" fill="#040404"/>
      <path id="Trazado_278962" data-name="Trazado 278962" d="M295.353,108.331c0-.821-.035-1.645.008-2.464a1.882,1.882,0,0,1,1.989-1.931,1.847,1.847,0,0,1,1.886,1.9q.072,2.657,0,5.316a1.931,1.931,0,0,1-3.862.032c-.06-.947-.013-1.9-.013-2.852Z" transform="translate(179 1899.376)" fill="#030102"/>
      <path id="Trazado_278963" data-name="Trazado 278963" d="M324.471,108.523c0,.865.04,1.732-.01,2.593a1.963,1.963,0,0,1-1.888,1.94,1.937,1.937,0,0,1-1.984-1.967c-.046-1.771-.051-3.546.006-5.317a1.838,1.838,0,0,1,1.941-1.839,1.9,1.9,0,0,1,1.932,1.867,2.472,2.472,0,0,1,.008.259q0,1.231,0,2.464Z" transform="translate(179 1899.376)" fill="#030102"/>
      <path id="Trazado_278964" data-name="Trazado 278964" d="M349.013,106.428c-6.939-.022-11.292-4.957-10.742-12.178.652-8.55,9.44-16.512,17.994-16.3a10.3,10.3,0,0,1,10.5,10.8c-.029,8.995-8.78,17.71-17.753,17.681m-6.786-9.438a6.234,6.234,0,0,0,6.162,5.527c4,.2,7.2-1.534,9.958-4.195a12.822,12.822,0,0,0,4.131-7.3,5.943,5.943,0,0,0,.317-2.677,6.316,6.316,0,0,0-6.7-6.521c-4.143-.03-7.4,1.915-10.093,4.823-2.67,2.881-4.349,6.225-3.777,10.339" transform="translate(179 1899.376)" fill="#030303"/>
      <path id="Trazado_278965" data-name="Trazado 278965" d="M342.227,96.99c-.573-4.114,1.107-7.457,3.777-10.339,2.694-2.908,5.95-4.853,10.093-4.823a6.317,6.317,0,0,1,6.7,6.521,5.929,5.929,0,0,1-.318,2.677.707.707,0,0,0-.621.382,17.789,17.789,0,0,1-3.9,4.249c-3.582,2.746-7.5,4.112-12.05,3.151-1.391-.294-2.433-1.246-3.674-1.818m15.5-9.036a2.063,2.063,0,0,0-1.188-1.6,1.832,1.832,0,0,0-2.052.329,3.967,3.967,0,0,0-1.339,2.179,1.851,1.851,0,0,1-1.513,1.548,4.557,4.557,0,0,0-2.9,2.237c-.536.933-.806,1.984-1.346,2.93a1.645,1.645,0,0,0,.62,2.177,1.809,1.809,0,0,0,2.389-.044,3.854,3.854,0,0,0,1.373-2.155,2.115,2.115,0,0,1,1.616-1.633c1.942-.641,4.4-4.028,4.341-5.973" transform="translate(179 1899.376)" fill="#966953"/>
      <path id="Trazado_278966" data-name="Trazado 278966" d="M342.227,96.99c1.241.572,2.284,1.524,3.675,1.818,4.549.961,8.467-.4,12.05-3.151a17.806,17.806,0,0,0,3.9-4.249.708.708,0,0,1,.622-.382,12.822,12.822,0,0,1-4.131,7.3c-2.759,2.661-5.956,4.394-9.958,4.195a6.234,6.234,0,0,1-6.162-5.527" transform="translate(179 1899.376)" fill="#825b46"/>
      <path id="Trazado_278967" data-name="Trazado 278967" d="M357.726,87.954c.062,1.945-2.4,5.332-4.341,5.973a2.115,2.115,0,0,0-1.616,1.633,3.854,3.854,0,0,1-1.373,2.155,1.809,1.809,0,0,1-2.389.044,1.645,1.645,0,0,1-.62-2.177c.54-.946.81-2,1.346-2.93a4.557,4.557,0,0,1,2.9-2.237,1.851,1.851,0,0,0,1.513-1.548,3.967,3.967,0,0,1,1.339-2.179,1.832,1.832,0,0,1,2.052-.329,2.063,2.063,0,0,1,1.188,1.6" transform="translate(179 1899.376)" fill="#030102"/>
    </g>
  </g>
</svg>
