<svg xmlns="http://www.w3.org/2000/svg" width="199.254" height="199.254" viewBox="0 0 199.254 199.254">
  <g id="Grupo_261819" data-name="Grupo 261819" transform="translate(-1009.878 -1937.965)">
    <g id="Grupo_261179" data-name="Grupo 261179">
      <path id="Trazado_278901" data-name="Trazado 278901" d="M1030.132,138.216a99.627,99.627,0,1,1-99.627-99.627,99.627,99.627,0,0,1,99.627,99.627" transform="translate(179 1899.376)" fill="#e5dbd7"/>
      <path id="Trazado_278903" data-name="Trazado 278903" d="M878.483,115.462q0-2.172,0-4.345c1.732-.383,2.226-.968,2.227-2.725.005-9.672.016-19.344-.018-29.015,0-.993.211-1.363,1.281-1.336,3.252.082,6.507.052,9.761.066v4.32c-1.1.014-2.2.037-3.3.039-2.764.006-3.32.547-3.321,3.261v92.425c0,2.851.527,3.382,3.334,3.386l29.981.045a38.587,38.587,0,0,0,4.18,2.746c.752.457,1.671.7,2.153,1.538-1.768.482-2.214,1.025-2.22,2.767-.008,2.705-.02,5.411.006,8.116a2.2,2.2,0,1,0,4.388.03c.029-2.339.007-4.677.01-7.016a7.831,7.831,0,0,0-.306-2.982c1.713.086,3.044,1.272,4.665,1.62.014,2.744.018,5.489.045,8.233.015,1.537.825,2.469,2.128,2.51,1.36.042,2.249-.924,2.269-2.508.029-2.195.035-4.39.05-6.585,1.473.117,2.794,1.027,4.327.83.01,1.92.008,3.839.032,5.758.019,1.536.825,2.466,2.131,2.505,1.358.04,2.241-.925,2.267-2.507.026-1.553.033-3.106.048-4.66,1.445.014,2.862.471,4.321.278.012,1.507.006,3.015.041,4.522a2.2,2.2,0,1,0,4.393,0c.037-1.415.033-2.831.047-4.247h4.319c.014,1.416.011,2.832.047,4.247a2.2,2.2,0,1,0,4.393,0c.037-1.415.033-2.831.047-4.247h4.319c.014,1.416.011,2.832.047,4.247a2.2,2.2,0,1,0,4.393,0c.037-1.415.033-2.831.047-4.247h4.319c.014,1.416.011,2.832.047,4.247a2.2,2.2,0,1,0,4.393,0c.037-1.415.033-2.831.047-4.247h6.521c.014,2.383-.071,4.772.078,7.146.092,1.461-.424,1.7-1.761,1.7q-51.086-.056-102.171-.029c-1.775,0-1.776,0-1.776-1.756q0-40.567,0-81.133c0-2.045-.417-2.6-2.23-3m13.237,77.112c0-1.466.033-2.933-.01-4.4a2.191,2.191,0,1,0-4.38.008q-.057,4.328,0,8.657a2.2,2.2,0,1,0,4.385-.009c.035-1.419.007-2.839.007-4.259m8.806-.067c0-1.42.028-2.841-.007-4.26a2.2,2.2,0,1,0-4.385.005c-.032,2.84-.028,5.68,0,8.52a2.2,2.2,0,1,0,4.39-.005c.028-1.42.006-2.84.005-4.26m8.806,0c0-1.42.028-2.841-.007-4.26a2.2,2.2,0,1,0-4.385,0c-.032,2.84-.028,5.68,0,8.52a2.2,2.2,0,1,0,4.39,0c.029-1.419.006-2.839,0-4.259m8.806.074c0-1.466.033-2.932-.01-4.4a2.191,2.191,0,1,0-4.38-.008q-.055,4.327,0,8.657a2.2,2.2,0,1,0,4.385.007c.035-1.418.007-2.839.007-4.259" transform="translate(179 1899.376)" fill="#929899"/>
      <path id="Trazado_278904" data-name="Trazado 278904" d="M975.336,192.53h-4.319c-.014-1.409-.009-2.818-.048-4.227a2.2,2.2,0,1,0-4.391,0c-.039,1.409-.034,2.818-.048,4.227h-4.319c-.014-1.409-.009-2.818-.048-4.227a2.2,2.2,0,1,0-4.391,0c-.04,1.409-.034,2.818-.048,4.227h-4.319c-.014-1.409-.009-2.818-.048-4.226a2.2,2.2,0,1,0-4.392,0c-.037,1.318-.029,2.636-.042,3.954-1.458.194-2.875-.264-4.32-.277-.016-1.271,0-2.543-.056-3.812a2.193,2.193,0,1,0-4.385-.008c-.046.906-.027,1.816-.037,2.724-1.533.2-2.854-.714-4.327-.831-.016-.451-.04-.9-.045-1.353-.02-1.677-.7-2.618-1.991-2.745-1.34-.132-2.207.733-2.456,2.448-1.622-.348-2.952-1.534-4.665-1.62a3.351,3.351,0,0,0-1.878-.914c-.482-.841-1.4-1.081-2.154-1.539a38.527,38.527,0,0,1-4.18-2.746c.595-.015,1.19-.043,1.785-.043q29.427,0,58.852,0c2.129,0,2.914-.718,2.914-2.711q.008-42.42,0-84.839c0-1.75-.484-2.327-2.219-2.749V86.913c1.6-.4,2.339-1.23,2.205-2.475-.136-1.263-1.07-1.951-2.677-1.969-.367,0-.733,0-1.1,0q-42.335,0-84.669,0c-.6,0-1.19-.026-1.785-.04v-4.32c.458-.013.915-.039,1.373-.039q45.807,0,91.613-.039c1.442,0,1.7.411,1.694,1.749q-.06,39.479-.029,78.958c0,2.04.405,2.584,2.222,3.022q0,2.168,0,4.333c-1.732.414-2.217.993-2.221,2.732q-.028,11.853-.044,23.707h-6.521c-.014-1.409-.009-2.818-.048-4.227a2.2,2.2,0,1,0-4.391,0c-.039,1.409-.034,2.818-.048,4.227" transform="translate(179 1899.376)" fill="#adb5b6"/>
      <path id="Trazado_278905" data-name="Trazado 278905" d="M986.345,192.53q.021-11.854.044-23.708c0-1.738.489-2.317,2.22-2.731,1.73.469,2.177,1.023,2.178,2.8q.008,17.061,0,34.121c0,1.97-.776,2.742-2.754,2.742q-54.483,0-108.966,0c-1.98,0-2.752-.768-2.752-2.742q-.008-42.375,0-84.751c0-1.789.44-2.335,2.171-2.8,1.813.4,2.229.954,2.229,3q0,40.566,0,81.132c0,1.755,0,1.756,1.776,1.756q51.087,0,102.172.029c1.336,0,1.852-.242,1.761-1.7-.149-2.374-.064-4.763-.078-7.146" transform="translate(179 1899.376)" fill="#434951"/>
      <path id="Trazado_278906" data-name="Trazado 278906" d="M988.609,161.758c-1.818-.438-2.222-.982-2.222-3.023q0-39.479.029-78.958c0-1.337-.252-1.75-1.694-1.748q-45.807.074-91.613.039c-.458,0-.916.026-1.374.039-3.254-.013-6.509.017-9.761-.065-1.07-.027-1.284.342-1.281,1.335.034,9.672.023,19.344.018,29.016,0,1.756-.494,2.341-2.227,2.724-1.732-.465-2.17-1.01-2.171-2.8q-.008-15.891,0-31.781c0-2.156.725-2.873,2.9-2.874q35.908,0,71.818,0h36.6c2.533,0,3.166.631,3.166,3.16q0,40.931,0,81.861c0,2.067-.367,2.579-2.179,3.074" transform="translate(179 1899.376)" fill="#434951"/>
      <path id="Trazado_278907" data-name="Trazado 278907" d="M979.763,91.237c1.734.423,2.217,1,2.219,2.75q0,42.418,0,84.839c0,1.992-.785,2.71-2.914,2.71l-58.85,0c-.6,0-1.192.028-1.786.044l-29.982-.045c-2.807,0-3.333-.535-3.333-3.386V85.727c0-2.714.557-3.255,3.322-3.261,1.1,0,2.2-.025,3.3-.039.6.014,1.19.039,1.786.039q42.333,0,84.669,0c.367,0,.732,0,1.1,0,1.607.018,2.542.705,2.677,1.968.135,1.246-.607,2.079-2.205,2.475-4.537-.013-9.076-.039-13.613-.037q-20.426.006-40.848.03-17.383-.017-34.769-.054c-.916,0-1.044.345-1.026,1.122.045,1.877.016,3.756.016,5.634,0,8.338.018,16.676-.024,25.014-.005,1.01.22,1.361,1.276,1.3,1.6-.1,3.2-.033,4.808-.023,1.974.012,2.729.769,2.744,2.748.019,2.747.029,5.5.045,8.243q0,3.318,0,6.634c-.014.5-.037,1.006-.04,1.51-.018,2.154-.734,2.87-2.9,2.878-1.559.005-3.12.076-4.672-.025-1.08-.07-1.268.324-1.263,1.312.042,7.332.022,14.664.022,22,0,3.621-.006,7.241.01,10.861,0,.436-.261,1.083.609,1.08,2.591-.009,5.182,0,8.031,0-.344-.387-.51-.582-.687-.768-8.33-8.777-6.37-21.979,4.133-27.973a44.56,44.56,0,0,1,10.763-4.406c4.614-1.218,9.273-1.791,13.651.547,1.929,1.03,3.349.919,4.9-.353a2.317,2.317,0,0,1,.354-.209.551.551,0,0,0,.282-.694,9.48,9.48,0,0,1,.6-5.768,12.08,12.08,0,0,1,4.4-4.4h-1.322q-14.833,0-29.665,0c-1.891,0-2.448-.436-2.89-2.215.466-1.736,1.018-2.176,2.791-2.186,1.43-.009,2.86,0,4.548,0-5.681-5.179-8.053-11.252-7.029-18.6,1.419-10.178,11.742-17.919,21.88-16.453,2.229.322,4.476,1.6,6.763.173,7.984-1.267,14.6,1.119,19.825,7.342a4.32,4.32,0,0,0,4.266,1.29,14.722,14.722,0,0,1,8.172,1.134,2.564,2.564,0,0,1,1.8,2.992c-1.166,1.607-1.789,1.8-3.583,1.027a9.5,9.5,0,0,0-5.354-.854c-4.026.675-7.039-.774-9.666-3.8a15.387,15.387,0,1,0-12.193,25.708q11.691.192,23.387,0a10.818,10.818,0,0,0,10.43-10.973,8.18,8.18,0,0,0-.878-4.324,2.543,2.543,0,0,1,.649-3.381c1.851-.5,2.638-.165,3.362,1.574,2.357,5.656,1.565,10.913-2.084,15.783-.309.414-.645.811-1.088,1.366,2.657,0,5.081-.066,7.5.029,1.148.045,1.429-.273,1.424-1.421-.047-11.047-.029-22.094-.026-33.141,0-1.92.4-2.449,2.182-2.93m-85.878,42.13q.02-3.623.037-7.247c.005-1.868,0-1.869-1.919-1.814a2.674,2.674,0,0,0-.271.035c-.458-.014-.917-.005-1.37-.047-.675-.064-.854.25-.852.881q.031,5.765,0,11.529c0,.579.2.767.787.817,3.648.312,3.648.328,3.62-3.332,0-.274-.024-.548-.035-.822m83.654,4.16c.013-1.185.018-2.37.042-3.555.011-.51-.052-.876-.714-.873-3.71.017-7.421.008-11.13.008a11.854,11.854,0,0,1,4.419,4.4,12.64,12.64,0,0,1,.659,2.5,2.98,2.98,0,0,0,1.375,2.3,8.75,8.75,0,0,1-10.64,13.877c-1.094-.818-1.852-.867-2.844-.087a6.652,6.652,0,0,1-1.188.68.89.89,0,0,0-.565.975,20.564,20.564,0,0,1-.281,3.955,24.472,24.472,0,0,1-7.86,11.67c-1.45,1.257-2.015,1.241-3.625.1a2.506,2.506,0,0,1,.719-3.4,22.443,22.443,0,0,0,2.336-2.31c2.672-3.067,4.748-6.386,4.225-10.719a2.8,2.8,0,0,1,1.458-3.339c1.594-.9,3.193-1.785,4.781-2.691,2.372-1.354,2.747-1.293,4.463.794a4.381,4.381,0,0,0,6.154.677,4.255,4.255,0,0,0,.588-6.193,2.908,2.908,0,0,0-1.689-1.323,2.461,2.461,0,0,1-1.722-3,4.373,4.373,0,1,0-8.667-1.169,3.974,3.974,0,0,0,.383,2.519c.649,1.488.474,2.476-.528,3.169s-2.081.46-3.235-.724a9.648,9.648,0,0,1-.268-8.265,10.678,10.678,0,0,1,4.766-4.347H943.277a10.138,10.138,0,0,1,4.864,4.346,13.7,13.7,0,0,1,.8,3.421.854.854,0,0,0,.446.775,9.488,9.488,0,0,1,3.706,4.887,10.9,10.9,0,0,1-.131,5.172,9.68,9.68,0,0,1-5.974,5.795,10.118,10.118,0,0,1-7.356-1.126,1.717,1.717,0,0,0-2.86-.388c-.7.6-1.911.589-1.878,2.034a16.24,16.24,0,0,1-3.755,10.642,38.743,38.743,0,0,1-7.464,7.243c-.293.215-.888.348-.687.865.178.46.708.308,1.107.307.594,0,1.188-.031,1.782-.048h14.273q9.671.024,19.341.046c3.546,0,6.041-1.855,6.893-5.1.773-2.951-.622-5.908-3.662-7.5a2.583,2.583,0,0,1-1.59-2.738c1.1-1.744,1.945-1.993,3.757-1.1a10.91,10.91,0,0,1,5.857,11.914,14.021,14.021,0,0,1-1.943,4.52c2.815,0,5.454-.017,8.094.01.833.009.682-.545.68-1.022q-.009-18.484-.029-36.968,0-.812-.008-1.624M916.23,108.911c.232-.118.242-.327.226-.547a21.988,21.988,0,0,1,6.495-10.374c-5.972.086-10.649,2.307-13.641,7.534a2.614,2.614,0,0,0-.351.413,15.414,15.414,0,0,0,8.692,21.959,12.135,12.135,0,0,0,5.552.692c-.529-.475-.875-.768-1.2-1.079a19.6,19.6,0,0,1-5.623-9.88,24.69,24.69,0,0,1-.125-8.728Zm19.588,31.9a4.147,4.147,0,0,0,.445,2.653c.678,1.527.368,2.458-1.078,3.342a19.278,19.278,0,0,1-2.383,1.363c-1.068.458-1.258.956-.44,1.844.677.734.773,2.306,1.594,2.39.859.089,1.833-.863,2.744-1.384,2.365-1.352,2.73-1.291,4.457.806a4.375,4.375,0,0,0,6.151.669,4.256,4.256,0,0,0,.586-6.191,2.911,2.911,0,0,0-1.69-1.323,2.456,2.456,0,0,1-1.72-3,4.373,4.373,0,1,0-8.666-1.17M930.2,155.945a10.633,10.633,0,0,0-10.791-8.529,32.123,32.123,0,0,0-17.818,6.314,9.273,9.273,0,0,0-3.312,4.113,8.268,8.268,0,0,0-.484.811,13.187,13.187,0,0,0,18.148,17.036,35.805,35.805,0,0,0,11.591-9.534c2.344-2.981,3.747-6.294,2.666-10.211" transform="translate(179 1899.376)" fill="#444a51"/>
      <path id="Trazado_278908" data-name="Trazado 278908" d="M966.531,192.53c.013-1.409.008-2.818.047-4.227a2.2,2.2,0,1,1,4.391,0c.039,1.409.034,2.818.049,4.227-.015,1.416-.012,2.832-.048,4.248a2.2,2.2,0,1,1-4.392,0c-.036-1.416-.034-2.832-.047-4.248" transform="translate(179 1899.376)" fill="#444a51"/>
      <path id="Trazado_278909" data-name="Trazado 278909" d="M975.336,192.53c.014-1.409.009-2.818.048-4.227a2.2,2.2,0,1,1,4.391,0c.039,1.409.034,2.818.048,4.227-.014,1.416-.011,2.832-.047,4.248a2.2,2.2,0,1,1-4.393,0c-.036-1.416-.033-2.832-.047-4.248" transform="translate(179 1899.376)" fill="#444a51"/>
      <path id="Trazado_278910" data-name="Trazado 278910" d="M931.306,188.4c.249-1.715,1.117-2.58,2.456-2.448,1.291.127,1.971,1.068,1.991,2.744.006.452.029.9.045,1.354-.016,2.195-.021,4.39-.05,6.585-.02,1.584-.909,2.55-2.269,2.508-1.3-.04-2.113-.973-2.128-2.51-.027-2.744-.031-5.489-.045-8.233" transform="translate(179 1899.376)" fill="#444a51"/>
      <path id="Trazado_278911" data-name="Trazado 278911" d="M891.72,192.574c0,1.42.027,2.841-.007,4.26a2.2,2.2,0,1,1-4.385.008q-.048-4.327,0-8.656a2.191,2.191,0,1,1,4.38-.009c.043,1.465.01,2.931.01,4.4" transform="translate(179 1899.376)" fill="#444a51"/>
      <path id="Trazado_278912" data-name="Trazado 278912" d="M900.527,192.507c0,1.42.023,2.84-.006,4.26a2.2,2.2,0,1,1-4.389.005q-.039-4.26,0-8.52a2.2,2.2,0,1,1,4.385-.005c.035,1.419.008,2.84.008,4.26" transform="translate(179 1899.376)" fill="#444a51"/>
      <path id="Trazado_278913" data-name="Trazado 278913" d="M909.333,192.508c0,1.42.023,2.84-.006,4.26a2.2,2.2,0,1,1-4.389,0q-.039-4.26,0-8.519a2.2,2.2,0,1,1,4.385,0c.035,1.419.008,2.839.008,4.259" transform="translate(179 1899.376)" fill="#444a51"/>
      <path id="Trazado_278914" data-name="Trazado 278914" d="M918.138,192.582c0,1.42.028,2.841-.008,4.259a2.2,2.2,0,1,1-4.385-.007q-.047-4.329,0-8.657a2.191,2.191,0,1,1,4.38.008c.043,1.465.01,2.931.01,4.4" transform="translate(179 1899.376)" fill="#444a51"/>
      <path id="Trazado_278915" data-name="Trazado 278915" d="M924.763,185.868a3.346,3.346,0,0,1,1.878.915,7.849,7.849,0,0,1,.3,2.982c0,2.338.02,4.677-.009,7.015a2.2,2.2,0,1,1-4.388-.029c-.026-2.706-.014-5.411-.006-8.117.006-1.741.452-2.284,2.22-2.766" transform="translate(179 1899.376)" fill="#444a51"/>
      <path id="Trazado_278916" data-name="Trazado 278916" d="M940.125,190.883c.01-.908-.009-1.817.037-2.724a2.193,2.193,0,1,1,4.385.008c.055,1.269.04,2.541.056,3.812-.015,1.553-.022,3.107-.048,4.66-.027,1.582-.909,2.547-2.268,2.506-1.3-.039-2.111-.969-2.13-2.5-.024-1.919-.023-3.839-.032-5.758" transform="translate(179 1899.376)" fill="#444a51"/>
      <path id="Trazado_278917" data-name="Trazado 278917" d="M948.924,192.256c.012-1.318.005-2.637.042-3.954a2.2,2.2,0,1,1,4.392,0c.039,1.408.033,2.817.047,4.226-.014,1.416-.01,2.832-.046,4.247a2.2,2.2,0,1,1-4.393,0c-.035-1.507-.03-3.015-.042-4.522" transform="translate(179 1899.376)" fill="#444a51"/>
      <path id="Trazado_278918" data-name="Trazado 278918" d="M957.724,192.53c.014-1.409.008-2.818.048-4.227a2.2,2.2,0,1,1,4.391,0c.039,1.409.034,2.818.048,4.227-.014,1.416-.011,2.832-.047,4.248a2.2,2.2,0,1,1-4.393,0c-.036-1.416-.033-2.832-.047-4.248" transform="translate(179 1899.376)" fill="#444a51"/>
      <path id="Trazado_278919" data-name="Trazado 278919" d="M979.762,91.238c-1.779.481-2.181,1.01-2.181,2.93,0,11.047-.021,22.094.027,33.141,0,1.148-.277,1.466-1.425,1.421-2.417-.1-4.84-.029-7.5-.029.443-.555.778-.952,1.088-1.366,3.649-4.87,4.44-10.127,2.083-15.783-.724-1.739-1.51-2.071-3.361-1.574-.327-.371-.67-.728-.977-1.115-.6-.762-1.629-1.192-1.815-2.285a2.564,2.564,0,0,0-1.8-2.992,14.724,14.724,0,0,0-8.172-1.134,4.321,4.321,0,0,1-4.266-1.291c-5.227-6.222-11.842-8.608-19.826-7.341-1.632-2.041-3.649-3.708-5.422-5.612-.362-.388-.908-.66-.918-1.3q20.424-.017,40.847-.031c4.538,0,9.076.025,13.614.038Z" transform="translate(179 1899.376)" fill="#e5efef"/>
      <path id="Trazado_278920" data-name="Trazado 278920" d="M925.3,86.9c.01.642.556.914.918,1.3,1.773,1.9,3.79,3.57,5.422,5.611-2.287,1.425-4.534.149-6.762-.173C914.74,92.18,904.417,99.921,903,110.1c-1.024,7.349,1.347,13.422,7.028,18.6-1.688,0-3.118-.007-4.549,0-1.771.01-2.324.45-2.79,2.186h-4.319q-.021-4.122-.045-8.243c-.014-1.979-.77-2.736-2.743-2.748-1.6-.01-3.211-.073-4.809.023-1.055.063-1.281-.288-1.276-1.3.042-8.338.024-16.676.024-25.014,0-1.878.03-3.757-.015-5.634-.018-.777.111-1.125,1.026-1.122q17.385.064,34.769.054" transform="translate(179 1899.376)" fill="#cfd7d9"/>
      <path id="Trazado_278921" data-name="Trazado 278921" d="M932.168,137.507a9.487,9.487,0,0,0-.6,5.768.549.549,0,0,1-.281.693,2.358,2.358,0,0,0-.354.21c-1.554,1.272-2.974,1.383-4.9.353-4.378-2.338-9.037-1.765-13.651-.548a44.563,44.563,0,0,0-10.762,4.407c-10.505,5.994-12.464,19.2-4.134,27.973.177.185.342.381.687.768-2.849,0-5.44-.006-8.031,0-.87,0-.607-.644-.609-1.08-.017-3.62-.01-7.241-.01-10.861,0-7.332.019-14.664-.022-22-.005-.988.183-1.383,1.262-1.312,1.552.1,3.115.03,4.673.025,2.162-.008,2.877-.725,2.9-2.879,0-.5.027-1.006.041-1.509l33.8-.015" transform="translate(179 1899.376)" fill="#cfd6d8"/>
      <path id="Trazado_278922" data-name="Trazado 278922" d="M898.279,157.844a9.267,9.267,0,0,1,3.312-4.113,32.125,32.125,0,0,1,17.817-6.314,10.632,10.632,0,0,1,10.791,8.529,49.809,49.809,0,0,1-9.222,7.485c-5.915,3.555-11.813,3.784-17.647-.063a20.461,20.461,0,0,1-5.051-5.524" transform="translate(179 1899.376)" fill="#f8e009"/>
      <path id="Trazado_278923" data-name="Trazado 278923" d="M898.279,157.844a20.461,20.461,0,0,0,5.051,5.524c5.834,3.847,11.732,3.618,17.647.063a49.809,49.809,0,0,0,9.222-7.485c1.082,3.917-.321,7.23-2.665,10.211a35.8,35.8,0,0,1-11.591,9.534,13.188,13.188,0,0,1-18.148-17.036,8.08,8.08,0,0,1,.484-.811" transform="translate(179 1899.376)" fill="#fabb04"/>
      <path id="Trazado_278924" data-name="Trazado 278924" d="M968.724,117.682a10.818,10.818,0,0,1-10.429,10.974q-11.691.186-23.387,0a15.349,15.349,0,0,1-7.957-27.958,19.693,19.693,0,0,0,.84,4.953,1.382,1.382,0,0,1-.13.236c-3.091,3.672-3.9,7.755-1.8,12.121,2.118,4.408,5.846,6.326,10.687,6.3,6.823-.037,13.646-.008,20.47-.01,4.385,0,6.945-2.292,7.393-6.608l4.31-.007" transform="translate(179 1899.376)" fill="#fccaca"/>
      <path id="Trazado_278925" data-name="Trazado 278925" d="M956.673,161.711a20.641,20.641,0,0,0,.28-3.955.893.893,0,0,1,.565-.975,6.753,6.753,0,0,0,1.189-.679c.991-.781,1.749-.731,2.843.086a8.75,8.75,0,0,0,10.64-13.877,2.979,2.979,0,0,1-1.374-2.3,12.707,12.707,0,0,0-.659-2.5l5.509.013c.526.661.968,1.418,1.881,1.633q.016,18.483.03,36.967c0,.477.153,1.031-.682,1.022-2.638-.027-5.277-.01-8.093-.01a14.033,14.033,0,0,0,1.943-4.52,10.91,10.91,0,0,0-5.856-11.914c-1.813-.894-2.664-.645-3.758,1.1l-4.458-.085" transform="translate(179 1899.376)" fill="#cfd6d8"/>
      <path id="Trazado_278926" data-name="Trazado 278926" d="M952.467,157.051c.522,4.334-1.554,7.652-4.226,10.719a22.446,22.446,0,0,1-2.335,2.311,2.506,2.506,0,0,0-.72,3.4,60.91,60.91,0,0,1-5.037,3.605H925.877a37.74,37.74,0,0,0,7.835-7.422c1.885-2.468,3.438-5.162,3.366-8.364-.048-2.1.074-3.875,2.394-4.652.07-.024.107-.142.159-.216a10.115,10.115,0,0,0,7.355,1.125,5.081,5.081,0,0,0,2.783.253c.914-.179,1.8-.5,2.7-.757" transform="translate(179 1899.376)" fill="#fabb04"/>
      <path id="Trazado_278927" data-name="Trazado 278927" d="M968.724,117.682l-4.31.007c-.469-4.42-3.663-7.077-7.81-6.518a12.981,12.981,0,0,1-12.218-4.7,11.376,11.376,0,0,0-3.951-3.113c-4.729-2.109-8.894-1.042-12.644,2.289a19.693,19.693,0,0,1-.84-4.953,15.167,15.167,0,0,1,20.149,2.25c2.628,3.029,5.641,4.479,9.667,3.8a9.507,9.507,0,0,1,5.353.854c1.794.772,2.418.58,3.583-1.027.187,1.094,1.211,1.523,1.816,2.285.306.387.65.745.977,1.116a2.539,2.539,0,0,0-.649,3.38,8.193,8.193,0,0,1,.877,4.324" transform="translate(179 1899.376)" fill="#fbe6e6"/>
      <path id="Trazado_278928" data-name="Trazado 278928" d="M940.149,177.085a61.341,61.341,0,0,0,5.038-3.605c1.61,1.142,2.174,1.158,3.624-.1a24.468,24.468,0,0,0,7.862-11.67l4.458.085a2.584,2.584,0,0,0,1.591,2.738c3.04,1.59,4.435,4.547,3.66,7.5-.851,3.244-3.346,5.1-6.893,5.1q-9.669-.011-19.34-.046" transform="translate(179 1899.376)" fill="#e39630"/>
      <path id="Trazado_278929" data-name="Trazado 278929" d="M932.168,137.507l-33.8.015q0-3.316,0-6.634h4.319c.442,1.779,1,2.214,2.89,2.215q14.832,0,29.665,0h1.321a12.1,12.1,0,0,0-4.4,4.4" transform="translate(179 1899.376)" fill="#adb5b6"/>
      <path id="Trazado_278930" data-name="Trazado 278930" d="M916.252,108.9a24.7,24.7,0,0,0,.126,8.729A19.58,19.58,0,0,0,922,127.509c.327.311.672.6,1.2,1.08a12.166,12.166,0,0,1-5.553-.692,15.415,15.415,0,0,1-8.691-21.96,2.66,2.66,0,0,1,.35-.413c.51,3.877,1.6,7.5,4.544,10.544.395-2.665.831-5.114,2.4-7.167" transform="translate(179 1899.376)" fill="#f5654f"/>
      <path id="Trazado_278931" data-name="Trazado 278931" d="M969.912,146.3a4.257,4.257,0,0,1-.59,6.193,4.378,4.378,0,0,1-6.152-.678c-1.717-2.086-2.092-2.147-4.463-.793-1.589.906-3.187,1.794-4.781,2.691l-.966-1.952a10.877,10.877,0,0,0,.132-5.172l1.362-.817c1.153,1.184,2.223,1.424,3.234.724s1.178-1.681.528-3.17a3.957,3.957,0,0,1-.382-2.518c.364.343.752.666,1.091,1.033a13.236,13.236,0,0,0,10.987,4.459" transform="translate(179 1899.376)" fill="#fccaca"/>
      <path id="Trazado_278932" data-name="Trazado 278932" d="M947.894,146.3a4.255,4.255,0,0,1-.586,6.191,4.375,4.375,0,0,1-6.15-.669c-1.728-2.1-2.092-2.158-4.459-.806-.91.52-1.884,1.472-2.743,1.384-.822-.085-.917-1.656-1.594-2.39-.818-.888-.629-1.387.441-1.844a19.315,19.315,0,0,0,2.381-1.364c1.447-.884,1.758-1.814,1.078-3.341a4.145,4.145,0,0,1-.444-2.654c.364.344.752.666,1.09,1.033a13.242,13.242,0,0,0,10.986,4.46" transform="translate(179 1899.376)" fill="#fccaca"/>
      <path id="Trazado_278933" data-name="Trazado 278933" d="M916.252,108.9c-1.568,2.053-2,4.5-2.4,7.167-2.944-3.043-4.034-6.667-4.544-10.544,2.992-5.227,7.67-7.447,13.642-7.534a22.007,22.007,0,0,0-6.5,10.373.528.528,0,0,0-.225.548Z" transform="translate(179 1899.376)" fill="#f59a8c"/>
      <path id="Trazado_278934" data-name="Trazado 278934" d="M939.632,156.43c-.052.074-.09.193-.159.216-2.321.777-2.442,2.548-2.4,4.652.073,3.2-1.48,5.9-3.366,8.364a37.716,37.716,0,0,1-7.835,7.422c-.594.018-1.188.046-1.782.048-.4,0-.929.154-1.108-.306-.2-.517.4-.65.687-.865a38.688,38.688,0,0,0,7.464-7.243,16.24,16.24,0,0,0,3.756-10.643c-.033-1.444,1.179-1.439,1.877-2.034a1.718,1.718,0,0,1,2.861.389" transform="translate(179 1899.376)" fill="#e39630"/>
      <path id="Trazado_278935" data-name="Trazado 278935" d="M947.894,146.3a13.242,13.242,0,0,1-10.986-4.46c-.338-.367-.726-.689-1.09-1.033a4.372,4.372,0,1,1,8.665,1.17,2.458,2.458,0,0,0,1.722,3,2.908,2.908,0,0,1,1.689,1.323" transform="translate(179 1899.376)" fill="#fbe6e6"/>
      <path id="Trazado_278936" data-name="Trazado 278936" d="M969.912,146.3a13.236,13.236,0,0,1-10.987-4.459c-.339-.367-.727-.69-1.091-1.033a4.373,4.373,0,1,1,8.667,1.169,2.458,2.458,0,0,0,1.721,3,2.91,2.91,0,0,1,1.69,1.323" transform="translate(179 1899.376)" fill="#fbe6e6"/>
      <path id="Trazado_278937" data-name="Trazado 278937" d="M948.141,137.506a10.139,10.139,0,0,0-4.864-4.347H958.95a10.689,10.689,0,0,0-4.766,4.347h-6.043" transform="translate(179 1899.376)" fill="#adb5b6"/>
      <path id="Trazado_278938" data-name="Trazado 278938" d="M975.666,137.52l-5.509-.013a11.866,11.866,0,0,0-4.421-4.4c3.711,0,7.421.009,11.131-.008.662,0,.725.363.714.873-.024,1.185-.029,2.37-.042,3.555Z" transform="translate(179 1899.376)" fill="#adb5b6"/>
      <path id="Trazado_278939" data-name="Trazado 278939" d="M893.884,133.368c.013.274.034.548.036.821.027,3.661.028,3.644-3.619,3.333-.592-.051-.79-.238-.788-.817q.023-5.765,0-11.53c0-.631.175-.945.85-.881.454.043.913.034,1.37.048,0,1.552-.076,3.107.008,4.654a5.427,5.427,0,0,0,2.145,4.372" transform="translate(179 1899.376)" fill="#e39630"/>
      <path id="Trazado_278940" data-name="Trazado 278940" d="M948.141,137.506h6.043a9.654,9.654,0,0,0,.269,8.266l-1.361.816a9.5,9.5,0,0,0-3.706-4.887.854.854,0,0,1-.447-.775,13.693,13.693,0,0,0-.8-3.42" transform="translate(179 1899.376)" fill="#cfd6d8"/>
      <path id="Trazado_278941" data-name="Trazado 278941" d="M893.884,133.368A5.427,5.427,0,0,1,891.739,129c-.084-1.547-.011-3.1-.008-4.654a2.256,2.256,0,0,1,.271-.035c1.92-.055,1.925-.055,1.919,1.814q-.012,3.624-.037,7.247" transform="translate(179 1899.376)" fill="#fabb04"/>
      <path id="Trazado_278942" data-name="Trazado 278942" d="M952.96,151.76l.965,1.952a2.8,2.8,0,0,0-1.458,3.339c-.9.257-1.784.577-2.7.756a5.09,5.09,0,0,1-2.783-.252,9.676,9.676,0,0,0,5.974-5.795" transform="translate(179 1899.376)" fill="#e39630"/>
      <path id="Trazado_278943" data-name="Trazado 278943" d="M975.666,137.52l1.873.008q0,.812.008,1.624c-.913-.214-1.355-.971-1.881-1.632" transform="translate(179 1899.376)" fill="#e5efef"/>
      <path id="Trazado_278944" data-name="Trazado 278944" d="M916.231,108.912a.528.528,0,0,1,.225-.548c.017.221.007.43-.225.548" transform="translate(179 1899.376)" fill="#f5654f"/>
      <path id="Trazado_278945" data-name="Trazado 278945" d="M927.791,105.65c3.75-3.33,7.915-4.4,12.644-2.289a11.367,11.367,0,0,1,3.951,3.114,12.987,12.987,0,0,0,12.218,4.7c4.147-.559,7.341,2.1,7.81,6.518-.448,4.316-3.008,6.607-7.393,6.609-6.824,0-13.647-.027-20.47.009-4.841.026-8.569-1.893-10.687-6.3-2.1-4.366-1.293-8.449,1.8-12.123a1.3,1.3,0,0,0,.13-.235m2.217,4.587a6.454,6.454,0,0,0,5.35,9.617c7.428.125,14.859.049,22.288.03,1.417,0,2.05-.679,2.274-2.195-.28-1.765-1.135-2.408-2.954-2.133a17.229,17.229,0,0,1-10.235-1.71,20.9,20.9,0,0,1-6.137-4.966,6.4,6.4,0,0,0-10.586,1.357" transform="translate(179 1899.376)" fill="#454a52"/>
      <path id="Trazado_278946" data-name="Trazado 278946" d="M930.008,110.237a6.405,6.405,0,0,1,10.586-1.358,20.868,20.868,0,0,0,6.137,4.966,17.222,17.222,0,0,0,10.235,1.711c1.819-.276,2.674.369,2.954,2.133-5.48,0-10.962.059-16.441-.021a13.067,13.067,0,0,1-7.209-2.173,2.324,2.324,0,0,0,1.659-2.4,2.146,2.146,0,0,0-1.4-1.86,2.272,2.272,0,0,0-2.986,2.589,27.062,27.062,0,0,1-3.533-3.591" transform="translate(179 1899.376)" fill="#f59a8c"/>
      <path id="Trazado_278947" data-name="Trazado 278947" d="M936.27,115.494a13.065,13.065,0,0,0,7.208,2.174c5.48.08,10.961.022,16.442.02-.225,1.516-.858,2.191-2.274,2.195-7.43.019-14.861.1-22.288-.03a6.453,6.453,0,0,1-5.35-9.616,27.123,27.123,0,0,0,3.533,3.591,2.507,2.507,0,0,0,2.729,1.666" transform="translate(179 1899.376)" fill="#f5654f"/>
      <path id="Trazado_278948" data-name="Trazado 278948" d="M936.27,115.494a2.507,2.507,0,0,1-2.729-1.666,2.271,2.271,0,0,1,2.986-2.589,2.145,2.145,0,0,1,1.4,1.86,2.322,2.322,0,0,1-1.659,2.4" transform="translate(179 1899.376)" fill="#454a52"/>
    </g>
  </g>
</svg>
