<svg xmlns="http://www.w3.org/2000/svg" xmlns:xlink="http://www.w3.org/1999/xlink" width="1028.86" height="409.526" viewBox="0 0 1028.86 409.526">
  <defs>
    <clipPath id="clip-path">
      <rect id="Rectángulo_325228" data-name="Rectángulo 325228" width="163.34" height="100.341" fill="none"/>
    </clipPath>
    <clipPath id="clip-path-2">
      <rect id="Rectángulo_325229" data-name="Rectángulo 325229" width="163.34" height="100.341" transform="translate(218.131)" fill="none"/>
    </clipPath>
    <clipPath id="clip-path-3">
      <rect id="Rectángulo_325230" data-name="Rectángulo 325230" width="163.34" height="100.34" transform="translate(218.131 154.093)" fill="none"/>
    </clipPath>
    <clipPath id="clip-path-4">
      <rect id="Rectángulo_325231" data-name="Rectángulo 325231" width="163.34" height="100.34" transform="translate(218.131 309.186)" fill="none"/>
    </clipPath>
    <clipPath id="clip-path-5">
      <rect id="Rectángulo_325232" data-name="Rectángulo 325232" width="163.341" height="100.341" transform="translate(434.26)" fill="none"/>
    </clipPath>
    <clipPath id="clip-path-6">
      <rect id="Rectángulo_325233" data-name="Rectángulo 325233" width="163.341" height="100.34" transform="translate(434.26 154.093)" fill="none"/>
    </clipPath>
    <clipPath id="clip-path-7">
      <rect id="Rectángulo_325234" data-name="Rectángulo 325234" width="163.341" height="100.34" transform="translate(434.26 309.186)" fill="none"/>
    </clipPath>
    <clipPath id="clip-path-8">
      <rect id="Rectángulo_325235" data-name="Rectángulo 325235" width="163.34" height="100.341" transform="translate(651.391)" fill="none"/>
    </clipPath>
    <clipPath id="clip-path-9">
      <rect id="Rectángulo_325236" data-name="Rectángulo 325236" width="163.341" height="100.341" transform="translate(865.519)" fill="none"/>
    </clipPath>
    <clipPath id="clip-path-10">
      <rect id="Rectángulo_325237" data-name="Rectángulo 325237" width="163.341" height="100.34" transform="translate(865.519 154.093)" fill="none"/>
    </clipPath>
    <clipPath id="clip-path-11">
      <rect id="Rectángulo_325238" data-name="Rectángulo 325238" width="163.34" height="100.34" transform="translate(651.391 309.186)" fill="none"/>
    </clipPath>
    <clipPath id="clip-path-12">
      <rect id="Rectángulo_325240" data-name="Rectángulo 325240" width="122.776" height="22.16" transform="translate(20.282 197.949)" fill="none"/>
    </clipPath>
    <clipPath id="clip-path-13">
      <rect id="Rectángulo_325241" data-name="Rectángulo 325241" width="122.776" height="18.023" transform="translate(20.282 352.042)" fill="none"/>
    </clipPath>
    <clipPath id="clip-path-14">
      <rect id="Rectángulo_325243" data-name="Rectángulo 325243" width="139.172" height="18.023" transform="translate(667.477 198.644)" fill="none"/>
    </clipPath>
    <clipPath id="clip-path-15">
      <rect id="Rectángulo_325245" data-name="Rectángulo 325245" width="34.723" height="40.661" transform="translate(393.066 29.691)" fill="none"/>
    </clipPath>
    <clipPath id="clip-path-16">
      <rect id="Rectángulo_325246" data-name="Rectángulo 325246" width="34.724" height="40.661" transform="translate(173.934 29.691)" fill="none"/>
    </clipPath>
    <clipPath id="clip-path-17">
      <rect id="Rectángulo_325247" data-name="Rectángulo 325247" width="34.723" height="40.661" transform="translate(610.196 29.691)" fill="none"/>
    </clipPath>
    <clipPath id="clip-path-18">
      <rect id="Rectángulo_325248" data-name="Rectángulo 325248" width="34.724" height="40.661" transform="translate(826.325 29.691)" fill="none"/>
    </clipPath>
    <clipPath id="clip-path-19">
      <rect id="Rectángulo_325249" data-name="Rectángulo 325249" width="34.724" height="40.661" transform="translate(606.193 184.784)" fill="none"/>
    </clipPath>
    <clipPath id="clip-path-20">
      <rect id="Rectángulo_325250" data-name="Rectángulo 325250" width="34.723" height="40.661" transform="translate(823.324 184.784)" fill="none"/>
    </clipPath>
    <clipPath id="clip-path-21">
      <rect id="Rectángulo_325251" data-name="Rectángulo 325251" width="40.66" height="34.723" transform="translate(930.34 114.127)" fill="none"/>
    </clipPath>
    <clipPath id="clip-path-22">
      <rect id="Rectángulo_325252" data-name="Rectángulo 325252" width="34.723" height="40.661" transform="translate(390.064 184.784)" fill="none"/>
    </clipPath>
    <clipPath id="clip-path-23">
      <rect id="Rectángulo_325253" data-name="Rectángulo 325253" width="34.724" height="40.661" transform="translate(173.934 184.784)" fill="none"/>
    </clipPath>
    <clipPath id="clip-path-24">
      <rect id="Rectángulo_325254" data-name="Rectángulo 325254" width="40.66" height="34.724" transform="translate(61.34 267.449)" fill="none"/>
    </clipPath>
    <clipPath id="clip-path-25">
      <rect id="Rectángulo_325255" data-name="Rectángulo 325255" width="34.723" height="40.66" transform="translate(393.066 339.877)" fill="none"/>
    </clipPath>
    <clipPath id="clip-path-26">
      <rect id="Rectángulo_325256" data-name="Rectángulo 325256" width="34.724" height="40.66" transform="translate(173.934 339.877)" fill="none"/>
    </clipPath>
    <clipPath id="clip-path-27">
      <rect id="Rectángulo_325257" data-name="Rectángulo 325257" width="34.723" height="40.66" transform="translate(610.196 339.877)" fill="none"/>
    </clipPath>
  </defs>
  <g id="Grupo_261822" data-name="Grupo 261822" transform="translate(-285.57 -3440)">
    <g id="Grupo_261269" data-name="Grupo 261269" transform="translate(0 75)">
      <g id="Grupo_261184" data-name="Grupo 261184" transform="translate(285.57 3365)" style="isolation: isolate">
        <g id="Grupo_261183" data-name="Grupo 261183">
          <g id="Grupo_261182" data-name="Grupo 261182" clip-path="url(#clip-path)">
            <path id="Trazado_278968" data-name="Trazado 278968" d="M148.643,100.341H14.7A14.7,14.7,0,0,1,0,85.644V14.7A14.7,14.7,0,0,1,14.7,0H148.643a14.7,14.7,0,0,1,14.7,14.7V85.644a14.7,14.7,0,0,1-14.7,14.7" fill="#e5dbd7"/>
          </g>
        </g>
      </g>
      <path id="Trazado_278969" data-name="Trazado 278969" d="M148.643,254.433H14.7A14.7,14.7,0,0,1,0,239.736V168.79a14.7,14.7,0,0,1,14.7-14.7H148.643a14.7,14.7,0,0,1,14.7,14.7v70.946a14.7,14.7,0,0,1-14.7,14.7" transform="translate(285.57 3365)" fill="#632059"/>
      <path id="Trazado_278970" data-name="Trazado 278970" d="M148.643,409.526H14.7A14.7,14.7,0,0,1,0,394.829V323.883a14.7,14.7,0,0,1,14.7-14.7H148.643a14.7,14.7,0,0,1,14.7,14.7v70.946a14.7,14.7,0,0,1-14.7,14.7" transform="translate(285.57 3365)" fill="#632059"/>
      <g id="Grupo_261187" data-name="Grupo 261187" transform="translate(285.57 3365)" style="isolation: isolate">
        <g id="Grupo_261186" data-name="Grupo 261186">
          <g id="Grupo_261185" data-name="Grupo 261185" clip-path="url(#clip-path-2)">
            <path id="Trazado_278971" data-name="Trazado 278971" d="M366.774,100.341H232.828a14.7,14.7,0,0,1-14.7-14.7V14.7A14.7,14.7,0,0,1,232.828,0H366.774a14.7,14.7,0,0,1,14.7,14.7V85.644a14.7,14.7,0,0,1-14.7,14.7" fill="#e5dbd7"/>
          </g>
        </g>
      </g>
      <g id="Grupo_261190" data-name="Grupo 261190" transform="translate(285.57 3365)" style="isolation: isolate">
        <g id="Grupo_261189" data-name="Grupo 261189">
          <g id="Grupo_261188" data-name="Grupo 261188" clip-path="url(#clip-path-3)">
            <path id="Trazado_278972" data-name="Trazado 278972" d="M366.774,254.433H232.828a14.7,14.7,0,0,1-14.7-14.7V168.79a14.7,14.7,0,0,1,14.7-14.7H366.774a14.7,14.7,0,0,1,14.7,14.7v70.946a14.7,14.7,0,0,1-14.7,14.7" fill="#e5dbd7"/>
          </g>
        </g>
      </g>
      <g id="Grupo_261193" data-name="Grupo 261193" transform="translate(285.57 3365)" style="isolation: isolate">
        <g id="Grupo_261192" data-name="Grupo 261192">
          <g id="Grupo_261191" data-name="Grupo 261191" clip-path="url(#clip-path-4)">
            <path id="Trazado_278973" data-name="Trazado 278973" d="M366.774,409.526H232.828a14.7,14.7,0,0,1-14.7-14.7V323.883a14.7,14.7,0,0,1,14.7-14.7H366.774a14.7,14.7,0,0,1,14.7,14.7v70.946a14.7,14.7,0,0,1-14.7,14.7" fill="#e5dbd7"/>
          </g>
        </g>
      </g>
      <g id="Grupo_261196" data-name="Grupo 261196" transform="translate(285.57 3365)" style="isolation: isolate">
        <g id="Grupo_261195" data-name="Grupo 261195">
          <g id="Grupo_261194" data-name="Grupo 261194" clip-path="url(#clip-path-5)">
            <path id="Trazado_278974" data-name="Trazado 278974" d="M582.9,100.341H448.957a14.7,14.7,0,0,1-14.7-14.7V14.7A14.7,14.7,0,0,1,448.957,0H582.9a14.7,14.7,0,0,1,14.7,14.7V85.644a14.7,14.7,0,0,1-14.7,14.7" fill="#e5dbd7"/>
          </g>
        </g>
      </g>
      <g id="Grupo_261199" data-name="Grupo 261199" transform="translate(285.57 3365)" style="isolation: isolate">
        <g id="Grupo_261198" data-name="Grupo 261198">
          <g id="Grupo_261197" data-name="Grupo 261197" clip-path="url(#clip-path-6)">
            <path id="Trazado_278975" data-name="Trazado 278975" d="M582.9,254.433H448.957a14.7,14.7,0,0,1-14.7-14.7V168.79a14.7,14.7,0,0,1,14.7-14.7H582.9a14.7,14.7,0,0,1,14.7,14.7v70.946a14.7,14.7,0,0,1-14.7,14.7" fill="#e5dbd7"/>
          </g>
        </g>
      </g>
      <g id="Grupo_261202" data-name="Grupo 261202" transform="translate(285.57 3365)" style="isolation: isolate">
        <g id="Grupo_261201" data-name="Grupo 261201">
          <g id="Grupo_261200" data-name="Grupo 261200" clip-path="url(#clip-path-7)">
            <path id="Trazado_278976" data-name="Trazado 278976" d="M582.9,409.526H448.957a14.7,14.7,0,0,1-14.7-14.7V323.883a14.7,14.7,0,0,1,14.7-14.7H582.9a14.7,14.7,0,0,1,14.7,14.7v70.946a14.7,14.7,0,0,1-14.7,14.7" fill="#e5dbd7"/>
          </g>
        </g>
      </g>
      <g id="Grupo_261205" data-name="Grupo 261205" transform="translate(285.57 3365)" style="isolation: isolate">
        <g id="Grupo_261204" data-name="Grupo 261204">
          <g id="Grupo_261203" data-name="Grupo 261203" clip-path="url(#clip-path-8)">
            <path id="Trazado_278977" data-name="Trazado 278977" d="M800.034,100.341H666.089a14.7,14.7,0,0,1-14.7-14.7V14.7A14.7,14.7,0,0,1,666.089,0H800.034a14.7,14.7,0,0,1,14.7,14.7V85.644a14.7,14.7,0,0,1-14.7,14.7" fill="#e5dbd7"/>
          </g>
        </g>
      </g>
      <path id="Trazado_278978" data-name="Trazado 278978" d="M800.034,254.433H666.089a14.7,14.7,0,0,1-14.7-14.7V168.79a14.7,14.7,0,0,1,14.7-14.7H800.034a14.7,14.7,0,0,1,14.7,14.7v70.946a14.7,14.7,0,0,1-14.7,14.7" transform="translate(285.57 3365)" fill="#632059"/>
      <g id="Grupo_261208" data-name="Grupo 261208" transform="translate(285.57 3365)" style="isolation: isolate">
        <g id="Grupo_261207" data-name="Grupo 261207">
          <g id="Grupo_261206" data-name="Grupo 261206" clip-path="url(#clip-path-9)">
            <path id="Trazado_278979" data-name="Trazado 278979" d="M1014.162,100.341H880.216a14.7,14.7,0,0,1-14.7-14.7V14.7A14.7,14.7,0,0,1,880.216,0h133.946a14.7,14.7,0,0,1,14.7,14.7V85.644a14.7,14.7,0,0,1-14.7,14.7" fill="#e5dbd7"/>
          </g>
        </g>
      </g>
      <g id="Grupo_261211" data-name="Grupo 261211" transform="translate(285.57 3365)" style="isolation: isolate">
        <g id="Grupo_261210" data-name="Grupo 261210">
          <g id="Grupo_261209" data-name="Grupo 261209" clip-path="url(#clip-path-10)">
            <path id="Trazado_278980" data-name="Trazado 278980" d="M1014.162,254.433H880.216a14.7,14.7,0,0,1-14.7-14.7V168.79a14.7,14.7,0,0,1,14.7-14.7h133.946a14.7,14.7,0,0,1,14.7,14.7v70.946a14.7,14.7,0,0,1-14.7,14.7" fill="#e5dbd7"/>
          </g>
        </g>
      </g>
      <g id="Grupo_261214" data-name="Grupo 261214" transform="translate(285.57 3365)" style="isolation: isolate">
        <g id="Grupo_261213" data-name="Grupo 261213">
          <g id="Grupo_261212" data-name="Grupo 261212" clip-path="url(#clip-path-11)">
            <path id="Trazado_278981" data-name="Trazado 278981" d="M800.034,409.526H666.089a14.7,14.7,0,0,1-14.7-14.7V323.883a14.7,14.7,0,0,1,14.7-14.7H800.034a14.7,14.7,0,0,1,14.7,14.7v70.946a14.7,14.7,0,0,1-14.7,14.7" fill="#e5dbd7"/>
          </g>
        </g>
      </g>
      <path id="Trazado_279888" data-name="Trazado 279888" d="M7.438-2.344H3.328L2.547,0H.055L4.289-11.375H6.461L10.719,0H8.227Zm-3.477-1.9H6.8L5.375-8.5ZM14.016,0H11.75V-12h2.266Zm3.977-8.453.07.945a2.971,2.971,0,0,1,2.43-1.1A2.255,2.255,0,0,1,22.734-7.32a2.9,2.9,0,0,1,2.539-1.289,2.521,2.521,0,0,1,2.047.8,3.681,3.681,0,0,1,.672,2.41V0H25.727V-5.391a1.61,1.61,0,0,0-.281-1.051,1.246,1.246,0,0,0-.992-.332,1.409,1.409,0,0,0-1.406.969L23.055,0H20.8V-5.383a1.59,1.59,0,0,0-.289-1.062,1.259,1.259,0,0,0-.984-.328,1.463,1.463,0,0,0-1.391.8V0H15.875V-8.453ZM34.625,0A2.507,2.507,0,0,1,34.4-.758a2.732,2.732,0,0,1-2.133.914,3,3,0,0,1-2.059-.719,2.312,2.312,0,0,1-.816-1.812,2.389,2.389,0,0,1,1-2.062,4.915,4.915,0,0,1,2.879-.727H34.3v-.484a1.393,1.393,0,0,0-.3-.937,1.183,1.183,0,0,0-.949-.352,1.345,1.345,0,0,0-.895.273.929.929,0,0,0-.324.75H29.578a2.268,2.268,0,0,1,.453-1.359,3,3,0,0,1,1.281-.98,4.669,4.669,0,0,1,1.859-.355,3.689,3.689,0,0,1,2.48.785,2.747,2.747,0,0,1,.918,2.207v3.664a4.041,4.041,0,0,0,.336,1.82V0ZM32.758-1.57a1.945,1.945,0,0,0,.922-.223,1.462,1.462,0,0,0,.625-.6V-3.844h-.844q-1.7,0-1.8,1.172l-.008.133a.9.9,0,0,0,.3.7A1.153,1.153,0,0,0,32.758-1.57Zm9.063-.094a1.481,1.481,0,0,0,1.016-.344,1.2,1.2,0,0,0,.406-.914h2.117a2.9,2.9,0,0,1-.469,1.574A3.093,3.093,0,0,1,43.629-.238a3.949,3.949,0,0,1-1.77.395A3.67,3.67,0,0,1,39-1,4.56,4.56,0,0,1,37.953-4.18v-.148a4.508,4.508,0,0,1,1.039-3.117,3.627,3.627,0,0,1,2.852-1.164,3.555,3.555,0,0,1,2.543.9,3.2,3.2,0,0,1,.973,2.4H43.242a1.551,1.551,0,0,0-.406-1.072A1.354,1.354,0,0,0,41.8-6.789a1.36,1.36,0,0,0-1.191.575,3.333,3.333,0,0,0-.4,1.866v.235a3.375,3.375,0,0,0,.4,1.878A1.377,1.377,0,0,0,41.82-1.664ZM50.539.156A4.15,4.15,0,0,1,47.512-.984a4.054,4.054,0,0,1-1.168-3.039v-.219a5.106,5.106,0,0,1,.492-2.277A3.612,3.612,0,0,1,48.23-8.066a3.914,3.914,0,0,1,2.059-.543,3.508,3.508,0,0,1,2.73,1.094,4.444,4.444,0,0,1,1,3.1v.922H48.633a2.1,2.1,0,0,0,.66,1.328,2,2,0,0,0,1.395.5,2.437,2.437,0,0,0,2.039-.945l1.109,1.242A3.389,3.389,0,0,1,52.461-.246,4.511,4.511,0,0,1,50.539.156Zm-.258-6.945a1.411,1.411,0,0,0-1.09.455,2.357,2.357,0,0,0-.535,1.3H51.8v-.181a1.681,1.681,0,0,0-.406-1.165A1.456,1.456,0,0,0,50.281-6.789Zm7.094-1.664.07.977a2.951,2.951,0,0,1,2.43-1.133,2.453,2.453,0,0,1,2,.789,3.682,3.682,0,0,1,.672,2.359V0H60.289V-5.406a1.465,1.465,0,0,0-.312-1.043,1.4,1.4,0,0,0-1.039-.324,1.553,1.553,0,0,0-1.43.813V0H55.25V-8.453ZM69.156,0a2.507,2.507,0,0,1-.227-.758A2.732,2.732,0,0,1,66.8.156a3,3,0,0,1-2.059-.719,2.312,2.312,0,0,1-.816-1.812,2.389,2.389,0,0,1,1-2.062A4.915,4.915,0,0,1,67.8-5.164h1.039v-.484a1.393,1.393,0,0,0-.3-.937,1.183,1.183,0,0,0-.949-.352,1.345,1.345,0,0,0-.895.273.929.929,0,0,0-.324.75H64.109a2.268,2.268,0,0,1,.453-1.359,3,3,0,0,1,1.281-.98A4.669,4.669,0,0,1,67.7-8.609a3.689,3.689,0,0,1,2.48.785A2.747,2.747,0,0,1,71.1-5.617v3.664a4.041,4.041,0,0,0,.336,1.82V0ZM67.289-1.57a1.945,1.945,0,0,0,.922-.223,1.462,1.462,0,0,0,.625-.6V-3.844h-.844q-1.7,0-1.8,1.172l-.008.133a.9.9,0,0,0,.3.7A1.153,1.153,0,0,0,67.289-1.57Zm7.664-6.883.07.945a2.971,2.971,0,0,1,2.43-1.1A2.255,2.255,0,0,1,79.7-7.32a2.9,2.9,0,0,1,2.539-1.289,2.521,2.521,0,0,1,2.047.8,3.681,3.681,0,0,1,.672,2.41V0H82.688V-5.391a1.61,1.61,0,0,0-.281-1.051,1.246,1.246,0,0,0-.992-.332,1.409,1.409,0,0,0-1.406.969L80.016,0H77.758V-5.383a1.59,1.59,0,0,0-.289-1.062,1.259,1.259,0,0,0-.984-.328,1.463,1.463,0,0,0-1.391.8V0H72.836V-8.453ZM89.07,0H86.8V-8.453H89.07Zm-2.4-10.641a1.112,1.112,0,0,1,.34-.836,1.277,1.277,0,0,1,.926-.328,1.28,1.28,0,0,1,.922.328,1.105,1.105,0,0,1,.344.836,1.108,1.108,0,0,1-.348.844,1.283,1.283,0,0,1-.918.328A1.283,1.283,0,0,1,87.02-9.8,1.108,1.108,0,0,1,86.672-10.641ZM94.82.156A4.15,4.15,0,0,1,91.793-.984a4.054,4.054,0,0,1-1.168-3.039v-.219a5.106,5.106,0,0,1,.492-2.277,3.612,3.612,0,0,1,1.395-1.547,3.914,3.914,0,0,1,2.059-.543A3.508,3.508,0,0,1,97.3-7.516a4.444,4.444,0,0,1,1,3.1v.922H92.914a2.1,2.1,0,0,0,.66,1.328,2,2,0,0,0,1.395.5,2.437,2.437,0,0,0,2.039-.945l1.109,1.242A3.389,3.389,0,0,1,96.742-.246,4.511,4.511,0,0,1,94.82.156Zm-.258-6.945a1.411,1.411,0,0,0-1.09.455,2.357,2.357,0,0,0-.535,1.3h3.141v-.181a1.681,1.681,0,0,0-.406-1.165A1.456,1.456,0,0,0,94.563-6.789Zm7.094-1.664.07.977a2.951,2.951,0,0,1,2.43-1.133,2.453,2.453,0,0,1,2,.789,3.682,3.682,0,0,1,.672,2.359V0H104.57V-5.406a1.465,1.465,0,0,0-.312-1.043,1.4,1.4,0,0,0-1.039-.324,1.553,1.553,0,0,0-1.43.813V0H99.531V-8.453Zm9.586-2.078v2.078h1.445V-6.8h-1.445v4.219a1.007,1.007,0,0,0,.18.672.9.9,0,0,0,.688.2,3.6,3.6,0,0,0,.664-.055V-.047a4.648,4.648,0,0,1-1.367.2,2.156,2.156,0,0,1-2.422-2.4V-6.8H107.75V-8.453h1.234v-2.078ZM113.119-4.3a5.013,5.013,0,0,1,.484-2.242A3.546,3.546,0,0,1,115-8.07a4.069,4.069,0,0,1,2.113-.539A3.849,3.849,0,0,1,119.9-7.562a4.2,4.2,0,0,1,1.207,2.844l.016.578a4.418,4.418,0,0,1-1.086,3.121A3.775,3.775,0,0,1,117.127.156a3.793,3.793,0,0,1-2.918-1.172,4.5,4.5,0,0,1-1.09-3.187Zm2.258.16A3.16,3.16,0,0,0,115.83-2.3a1.5,1.5,0,0,0,1.3.638,1.5,1.5,0,0,0,1.281-.63,3.457,3.457,0,0,0,.461-2.015,3.128,3.128,0,0,0-.461-1.831,1.5,1.5,0,0,0-1.3-.649,1.474,1.474,0,0,0-1.281.646A3.516,3.516,0,0,0,115.377-4.144Z" transform="translate(306.295 3422.283)" fill="#12263f"/>
      <g id="Grupo_261219" data-name="Grupo 261219" transform="translate(285.57 3365)" style="isolation: isolate">
        <g id="Grupo_261218" data-name="Grupo 261218">
          <g id="Grupo_261217" data-name="Grupo 261217" clip-path="url(#clip-path-12)">
            <text id="Pelletizado" transform="translate(41.455 211.636)" fill="#e5dbd7" font-size="16" font-family="Roboto-Bold, Roboto" font-weight="700"><tspan x="0" y="0" letter-spacing="-0.006em">P</tspan><tspan y="0">elletizado</tspan></text>
          </g>
        </g>
      </g>
      <g id="Grupo_261222" data-name="Grupo 261222" transform="translate(285.57 3365)" style="isolation: isolate">
        <g id="Grupo_261221" data-name="Grupo 261221">
          <g id="Grupo_261220" data-name="Grupo 261220" clip-path="url(#clip-path-13)">
            <text id="Extruido" transform="translate(51.85 365.729)" fill="#e5dbd7" font-size="16" font-family="Roboto-Bold, Roboto" font-weight="700"><tspan x="0" y="0">Extruido</tspan></text>
          </g>
        </g>
      </g>
      <path id="Trazado_279889" data-name="Trazado 279889" d="M5.227-4.164H3.359V0H1.016V-11.375H5.242a4.778,4.778,0,0,1,3.109.9A3.1,3.1,0,0,1,9.445-7.937,3.5,3.5,0,0,1,8.941-6,3.437,3.437,0,0,1,7.414-4.758L9.875-.109V0H7.359Zm-1.867-1.9H5.25a1.936,1.936,0,0,0,1.367-.449A1.606,1.606,0,0,0,7.1-7.75a1.719,1.719,0,0,0-.457-1.266,1.9,1.9,0,0,0-1.4-.461H3.359ZM14.969.156A4.15,4.15,0,0,1,11.941-.984a4.054,4.054,0,0,1-1.168-3.039v-.219a5.106,5.106,0,0,1,.492-2.277A3.612,3.612,0,0,1,12.66-8.066a3.914,3.914,0,0,1,2.059-.543,3.508,3.508,0,0,1,2.73,1.094,4.444,4.444,0,0,1,1,3.1v.922H13.063a2.1,2.1,0,0,0,.66,1.328,2,2,0,0,0,1.395.5,2.437,2.437,0,0,0,2.039-.945l1.109,1.242A3.389,3.389,0,0,1,16.891-.246,4.511,4.511,0,0,1,14.969.156Zm-.258-6.945a1.411,1.411,0,0,0-1.09.455,2.357,2.357,0,0,0-.535,1.3h3.141v-.181a1.681,1.681,0,0,0-.406-1.165A1.456,1.456,0,0,0,14.711-6.789Zm8.531,5.125a1.481,1.481,0,0,0,1.016-.344,1.2,1.2,0,0,0,.406-.914h2.117a2.9,2.9,0,0,1-.469,1.574A3.093,3.093,0,0,1,25.051-.238a3.949,3.949,0,0,1-1.77.395A3.67,3.67,0,0,1,20.422-1,4.56,4.56,0,0,1,19.375-4.18v-.148a4.508,4.508,0,0,1,1.039-3.117,3.627,3.627,0,0,1,2.852-1.164,3.555,3.555,0,0,1,2.543.9,3.2,3.2,0,0,1,.973,2.4H24.664a1.551,1.551,0,0,0-.406-1.072,1.354,1.354,0,0,0-1.031-.412,1.36,1.36,0,0,0-1.191.575,3.333,3.333,0,0,0-.4,1.866v.235a3.375,3.375,0,0,0,.4,1.878A1.377,1.377,0,0,0,23.242-1.664ZM31.961.156A4.15,4.15,0,0,1,28.934-.984a4.054,4.054,0,0,1-1.168-3.039v-.219a5.106,5.106,0,0,1,.492-2.277,3.612,3.612,0,0,1,1.395-1.547,3.914,3.914,0,0,1,2.059-.543,3.508,3.508,0,0,1,2.73,1.094,4.444,4.444,0,0,1,1,3.1v.922H30.055a2.1,2.1,0,0,0,.66,1.328,2,2,0,0,0,1.395.5,2.437,2.437,0,0,0,2.039-.945l1.109,1.242A3.389,3.389,0,0,1,33.883-.246,4.511,4.511,0,0,1,31.961.156ZM31.7-6.789a1.411,1.411,0,0,0-1.09.455,2.357,2.357,0,0,0-.535,1.3h3.141v-.181a1.681,1.681,0,0,0-.406-1.165A1.456,1.456,0,0,0,31.7-6.789ZM44.328-4.148a5.07,5.07,0,0,1-.887,3.129A2.843,2.843,0,0,1,41.047.156a2.633,2.633,0,0,1-2.07-.891V3.25H36.719v-11.7h2.094l.078.828a2.654,2.654,0,0,1,2.141-.984,2.862,2.862,0,0,1,2.43,1.156,5.207,5.207,0,0,1,.867,3.188ZM42.07-4.312a3.327,3.327,0,0,0-.418-1.82,1.361,1.361,0,0,0-1.215-.641,1.479,1.479,0,0,0-1.461.813V-2.5a1.5,1.5,0,0,0,1.477.836Q42.07-1.664,42.07-4.312Zm7.172,2.648a1.481,1.481,0,0,0,1.016-.344,1.2,1.2,0,0,0,.406-.914h2.117a2.9,2.9,0,0,1-.469,1.574A3.093,3.093,0,0,1,51.051-.238a3.949,3.949,0,0,1-1.77.395A3.67,3.67,0,0,1,46.422-1,4.56,4.56,0,0,1,45.375-4.18v-.148a4.508,4.508,0,0,1,1.039-3.117,3.627,3.627,0,0,1,2.852-1.164,3.555,3.555,0,0,1,2.543.9,3.2,3.2,0,0,1,.973,2.4H50.664a1.551,1.551,0,0,0-.406-1.072,1.354,1.354,0,0,0-1.031-.412,1.36,1.36,0,0,0-1.191.575,3.333,3.333,0,0,0-.4,1.866v.235a3.375,3.375,0,0,0,.4,1.878A1.377,1.377,0,0,0,49.242-1.664ZM56.453,0H54.188V-8.453h2.266Zm-2.4-10.641a1.112,1.112,0,0,1,.34-.836,1.277,1.277,0,0,1,.926-.328,1.28,1.28,0,0,1,.922.328,1.105,1.105,0,0,1,.344.836,1.108,1.108,0,0,1-.348.844,1.283,1.283,0,0,1-.918.328A1.283,1.283,0,0,1,54.4-9.8,1.108,1.108,0,0,1,54.055-10.641ZM57.961-4.3a5.013,5.013,0,0,1,.484-2.242A3.546,3.546,0,0,1,59.84-8.07a4.069,4.069,0,0,1,2.113-.539,3.849,3.849,0,0,1,2.793,1.047,4.2,4.2,0,0,1,1.207,2.844l.016.578A4.418,4.418,0,0,1,64.883-1.02,3.775,3.775,0,0,1,61.969.156a3.793,3.793,0,0,1-2.918-1.172A4.5,4.5,0,0,1,57.961-4.2Zm2.258.16A3.16,3.16,0,0,0,60.672-2.3a1.5,1.5,0,0,0,1.3.638,1.5,1.5,0,0,0,1.281-.63,3.457,3.457,0,0,0,.461-2.015A3.128,3.128,0,0,0,63.25-6.14a1.5,1.5,0,0,0-1.3-.649,1.474,1.474,0,0,0-1.281.646A3.516,3.516,0,0,0,60.219-4.144ZM62.4-12h2.461L62.7-9.578H60.859Zm7.039,3.547.07.977a2.951,2.951,0,0,1,2.43-1.133,2.453,2.453,0,0,1,2,.789,3.682,3.682,0,0,1,.672,2.359V0H72.352V-5.406a1.465,1.465,0,0,0-.312-1.043A1.4,1.4,0,0,0,71-6.773a1.553,1.553,0,0,0-1.43.813V0H67.313V-8.453Z" transform="translate(550.646 3422.283)" fill="#12263f"/>
      <path id="Trazado_279898" data-name="Trazado 279898" d="M9.578-9.477H6.094V0H3.75V-9.477H.313v-1.9H9.578Zm4.934,3.141A6.134,6.134,0,0,0,13.7-6.4a1.654,1.654,0,0,0-1.68.867V0H9.762V-8.453h2.133l.063,1.008A2.092,2.092,0,0,1,13.84-8.609a2.366,2.366,0,0,1,.7.1ZM20.038,0a2.507,2.507,0,0,1-.227-.758,2.732,2.732,0,0,1-2.133.914A3,3,0,0,1,15.62-.562,2.312,2.312,0,0,1,14.8-2.375a2.389,2.389,0,0,1,1-2.062,4.915,4.915,0,0,1,2.879-.727h1.039v-.484a1.393,1.393,0,0,0-.3-.937,1.183,1.183,0,0,0-.949-.352,1.345,1.345,0,0,0-.895.273.929.929,0,0,0-.324.75H14.991a2.268,2.268,0,0,1,.453-1.359,3,3,0,0,1,1.281-.98,4.669,4.669,0,0,1,1.859-.355,3.689,3.689,0,0,1,2.48.785,2.747,2.747,0,0,1,.918,2.207v3.664a4.041,4.041,0,0,0,.336,1.82V0ZM18.171-1.57a1.945,1.945,0,0,0,.922-.223,1.462,1.462,0,0,0,.625-.6V-3.844h-.844q-1.7,0-1.8,1.172l-.008.133a.9.9,0,0,0,.3.7A1.153,1.153,0,0,0,18.171-1.57Zm8.25-8.961v2.078h1.445V-6.8H26.421v4.219a1.007,1.007,0,0,0,.18.672.9.9,0,0,0,.688.2,3.6,3.6,0,0,0,.664-.055V-.047a4.648,4.648,0,0,1-1.367.2,2.156,2.156,0,0,1-2.422-2.4V-6.8H22.928V-8.453h1.234v-2.078ZM34.022,0A2.507,2.507,0,0,1,33.8-.758a2.732,2.732,0,0,1-2.133.914A3,3,0,0,1,29.6-.562a2.312,2.312,0,0,1-.816-1.812,2.389,2.389,0,0,1,1-2.062,4.915,4.915,0,0,1,2.879-.727H33.7v-.484a1.393,1.393,0,0,0-.3-.937,1.183,1.183,0,0,0-.949-.352,1.345,1.345,0,0,0-.895.273.929.929,0,0,0-.324.75H28.975a2.268,2.268,0,0,1,.453-1.359,3,3,0,0,1,1.281-.98,4.669,4.669,0,0,1,1.859-.355,3.689,3.689,0,0,1,2.48.785,2.747,2.747,0,0,1,.918,2.207v3.664A4.041,4.041,0,0,0,36.3-.133V0ZM32.155-1.57a1.945,1.945,0,0,0,.922-.223,1.462,1.462,0,0,0,.625-.6V-3.844h-.844q-1.7,0-1.8,1.172l-.008.133a.9.9,0,0,0,.3.7A1.153,1.153,0,0,0,32.155-1.57Zm7.664-6.883.07.945a2.971,2.971,0,0,1,2.43-1.1A2.255,2.255,0,0,1,44.561-7.32,2.9,2.9,0,0,1,47.1-8.609a2.521,2.521,0,0,1,2.047.8,3.681,3.681,0,0,1,.672,2.41V0H47.553V-5.391a1.61,1.61,0,0,0-.281-1.051,1.246,1.246,0,0,0-.992-.332,1.409,1.409,0,0,0-1.406.969L44.882,0H42.624V-5.383a1.59,1.59,0,0,0-.289-1.062,1.259,1.259,0,0,0-.984-.328,1.463,1.463,0,0,0-1.391.8V0H37.7V-8.453ZM53.936,0H51.671V-8.453h2.266Zm-2.4-10.641a1.112,1.112,0,0,1,.34-.836A1.277,1.277,0,0,1,52.8-11.8a1.28,1.28,0,0,1,.922.328,1.105,1.105,0,0,1,.344.836,1.108,1.108,0,0,1-.348.844,1.283,1.283,0,0,1-.918.328,1.283,1.283,0,0,1-.918-.328A1.108,1.108,0,0,1,51.538-10.641ZM59.686.156A4.15,4.15,0,0,1,56.659-.984a4.054,4.054,0,0,1-1.168-3.039v-.219a5.106,5.106,0,0,1,.492-2.277,3.612,3.612,0,0,1,1.395-1.547,3.914,3.914,0,0,1,2.059-.543,3.508,3.508,0,0,1,2.73,1.094,4.444,4.444,0,0,1,1,3.1v.922H57.78a2.1,2.1,0,0,0,.66,1.328,2,2,0,0,0,1.395.5,2.437,2.437,0,0,0,2.039-.945l1.109,1.242A3.389,3.389,0,0,1,61.608-.246,4.511,4.511,0,0,1,59.686.156Zm-.258-6.945a1.411,1.411,0,0,0-1.09.455,2.357,2.357,0,0,0-.535,1.3h3.141v-.181a1.681,1.681,0,0,0-.406-1.165A1.456,1.456,0,0,0,59.428-6.789Zm7.094-1.664.07.977a2.951,2.951,0,0,1,2.43-1.133,2.453,2.453,0,0,1,2,.789,3.682,3.682,0,0,1,.672,2.359V0H69.436V-5.406a1.465,1.465,0,0,0-.312-1.043,1.4,1.4,0,0,0-1.039-.324,1.553,1.553,0,0,0-1.43.813V0H64.4V-8.453Zm9.586-2.078v2.078h1.445V-6.8H76.108v4.219a1.007,1.007,0,0,0,.18.672.9.9,0,0,0,.688.2,3.6,3.6,0,0,0,.664-.055V-.047a4.648,4.648,0,0,1-1.367.2,2.156,2.156,0,0,1-2.422-2.4V-6.8H72.616V-8.453H73.85v-2.078ZM78-4.3a5.013,5.013,0,0,1,.484-2.242A3.546,3.546,0,0,1,79.88-8.07a4.069,4.069,0,0,1,2.113-.539,3.849,3.849,0,0,1,2.793,1.047,4.2,4.2,0,0,1,1.207,2.844l.016.578A4.418,4.418,0,0,1,84.923-1.02,3.775,3.775,0,0,1,82.009.156a3.793,3.793,0,0,1-2.918-1.172A4.5,4.5,0,0,1,78-4.2Zm2.258.16A3.16,3.16,0,0,0,80.712-2.3a1.5,1.5,0,0,0,1.3.638,1.5,1.5,0,0,0,1.281-.63,3.457,3.457,0,0,0,.461-2.015A3.128,3.128,0,0,0,83.29-6.14a1.5,1.5,0,0,0-1.3-.649,1.474,1.474,0,0,0-1.281.646A3.516,3.516,0,0,0,80.259-4.144ZM88.111.977h-1.68l4.188-12.352H92.3Z" transform="translate(541.654 3558.779)" fill="#12263f"/>
      <path id="Trazado_279899" data-name="Trazado 279899" d="M3.25,0H.984V-12H3.25ZM7.492,0H5.227V-8.453H7.492Zm-2.4-10.641a1.112,1.112,0,0,1,.34-.836,1.277,1.277,0,0,1,.926-.328,1.28,1.28,0,0,1,.922.328,1.105,1.105,0,0,1,.344.836,1.108,1.108,0,0,1-.348.844,1.283,1.283,0,0,1-.918.328A1.283,1.283,0,0,1,5.441-9.8,1.108,1.108,0,0,1,5.094-10.641Zm6.375,2.188.07.945a2.971,2.971,0,0,1,2.43-1.1A2.255,2.255,0,0,1,16.211-7.32,2.9,2.9,0,0,1,18.75-8.609a2.521,2.521,0,0,1,2.047.8,3.681,3.681,0,0,1,.672,2.41V0H19.2V-5.391a1.61,1.61,0,0,0-.281-1.051,1.246,1.246,0,0,0-.992-.332,1.409,1.409,0,0,0-1.406.969L16.531,0H14.273V-5.383a1.59,1.59,0,0,0-.289-1.062A1.259,1.259,0,0,0,13-6.773a1.463,1.463,0,0,0-1.391.8V0H9.352V-8.453Zm19.344,4.3a5.07,5.07,0,0,1-.887,3.129A2.843,2.843,0,0,1,27.531.156a2.633,2.633,0,0,1-2.07-.891V3.25H23.2v-11.7H25.3l.078.828a2.654,2.654,0,0,1,2.141-.984,2.862,2.862,0,0,1,2.43,1.156,5.207,5.207,0,0,1,.867,3.188Zm-2.258-.164a3.327,3.327,0,0,0-.418-1.82,1.361,1.361,0,0,0-1.215-.641,1.478,1.478,0,0,0-1.461.813V-2.5a1.5,1.5,0,0,0,1.477.836Q28.555-1.664,28.555-4.312ZM34.594,0H32.328V-8.453h2.266ZM32.2-10.641a1.112,1.112,0,0,1,.34-.836,1.277,1.277,0,0,1,.926-.328,1.28,1.28,0,0,1,.922.328,1.105,1.105,0,0,1,.344.836,1.108,1.108,0,0,1-.348.844,1.283,1.283,0,0,1-.918.328,1.283,1.283,0,0,1-.918-.328A1.108,1.108,0,0,1,32.2-10.641ZM40.344.156A4.15,4.15,0,0,1,37.316-.984a4.054,4.054,0,0,1-1.168-3.039v-.219a5.106,5.106,0,0,1,.492-2.277,3.612,3.612,0,0,1,1.395-1.547,3.914,3.914,0,0,1,2.059-.543,3.508,3.508,0,0,1,2.73,1.094,4.444,4.444,0,0,1,1,3.1v.922H38.438a2.1,2.1,0,0,0,.66,1.328,2,2,0,0,0,1.395.5,2.437,2.437,0,0,0,2.039-.945l1.109,1.242A3.389,3.389,0,0,1,42.266-.246,4.511,4.511,0,0,1,40.344.156Zm-.258-6.945A1.411,1.411,0,0,0,39-6.334a2.357,2.357,0,0,0-.535,1.3H41.6v-.181A1.681,1.681,0,0,0,41.2-6.377,1.456,1.456,0,0,0,40.086-6.789ZM47.7-1.82h4.133V0H44.813V-1.375l3.977-5.258H44.93v-1.82H51.7v1.33ZM58.141,0a2.507,2.507,0,0,1-.227-.758,2.732,2.732,0,0,1-2.133.914,3,3,0,0,1-2.059-.719,2.312,2.312,0,0,1-.816-1.812,2.389,2.389,0,0,1,1-2.062,4.915,4.915,0,0,1,2.879-.727H57.82v-.484a1.393,1.393,0,0,0-.3-.937,1.183,1.183,0,0,0-.949-.352,1.345,1.345,0,0,0-.895.273.929.929,0,0,0-.324.75H53.094a2.268,2.268,0,0,1,.453-1.359,3,3,0,0,1,1.281-.98,4.669,4.669,0,0,1,1.859-.355,3.689,3.689,0,0,1,2.48.785,2.747,2.747,0,0,1,.918,2.207v3.664a4.041,4.041,0,0,0,.336,1.82V0ZM56.273-1.57a1.945,1.945,0,0,0,.922-.223,1.462,1.462,0,0,0,.625-.6V-3.844h-.844q-1.7,0-1.8,1.172l-.008.133a.9.9,0,0,0,.3.7A1.153,1.153,0,0,0,56.273-1.57Zm9.18-2.719a5.094,5.094,0,0,1,.887-3.148,2.877,2.877,0,0,1,2.426-1.172,2.589,2.589,0,0,1,2.039.922V-12H73.07V0H71.031l-.109-.9A2.657,2.657,0,0,1,68.75.156,2.869,2.869,0,0,1,66.355-1.02,5.258,5.258,0,0,1,65.453-4.289Zm2.258.168A3.337,3.337,0,0,0,68.125-2.3a1.349,1.349,0,0,0,1.2.634A1.511,1.511,0,0,0,70.8-2.548V-5.889a1.489,1.489,0,0,0-1.461-.884Q67.711-6.773,67.711-4.121Zm11,4.277A4.15,4.15,0,0,1,75.684-.984a4.054,4.054,0,0,1-1.168-3.039v-.219a5.106,5.106,0,0,1,.492-2.277A3.612,3.612,0,0,1,76.4-8.066a3.914,3.914,0,0,1,2.059-.543,3.508,3.508,0,0,1,2.73,1.094,4.444,4.444,0,0,1,1,3.1v.922H76.8a2.1,2.1,0,0,0,.66,1.328,2,2,0,0,0,1.395.5A2.437,2.437,0,0,0,80.9-2.609l1.109,1.242A3.389,3.389,0,0,1,80.633-.246,4.511,4.511,0,0,1,78.711.156Zm-.258-6.945a1.411,1.411,0,0,0-1.09.455,2.357,2.357,0,0,0-.535,1.3h3.141v-.181a1.681,1.681,0,0,0-.406-1.165A1.456,1.456,0,0,0,78.453-6.789ZM89.57-8.453l.07.945a2.971,2.971,0,0,1,2.43-1.1A2.255,2.255,0,0,1,94.313-7.32a2.9,2.9,0,0,1,2.539-1.289,2.521,2.521,0,0,1,2.047.8A3.681,3.681,0,0,1,99.57-5.4V0H97.3V-5.391a1.61,1.61,0,0,0-.281-1.051,1.246,1.246,0,0,0-.992-.332,1.409,1.409,0,0,0-1.406.969L94.633,0H92.375V-5.383a1.59,1.59,0,0,0-.289-1.062,1.259,1.259,0,0,0-.984-.328,1.463,1.463,0,0,0-1.391.8V0H87.453V-8.453ZM106.2,0a2.507,2.507,0,0,1-.227-.758,2.732,2.732,0,0,1-2.133.914,3,3,0,0,1-2.059-.719,2.312,2.312,0,0,1-.816-1.812,2.389,2.389,0,0,1,1-2.062,4.915,4.915,0,0,1,2.879-.727h1.039v-.484a1.393,1.393,0,0,0-.3-.937,1.183,1.183,0,0,0-.949-.352,1.345,1.345,0,0,0-.895.273.929.929,0,0,0-.324.75h-2.258a2.268,2.268,0,0,1,.453-1.359,3,3,0,0,1,1.281-.98,4.669,4.669,0,0,1,1.859-.355,3.689,3.689,0,0,1,2.48.785,2.747,2.747,0,0,1,.918,2.207v3.664a4.041,4.041,0,0,0,.336,1.82V0Zm-1.867-1.57a1.945,1.945,0,0,0,.922-.223,1.462,1.462,0,0,0,.625-.6V-3.844h-.844q-1.7,0-1.8,1.172l-.008.133a.9.9,0,0,0,.3.7A1.153,1.153,0,0,0,104.336-1.57Zm8.25-8.961v2.078h1.445V-6.8h-1.445v4.219a1.007,1.007,0,0,0,.18.672.9.9,0,0,0,.688.2,3.6,3.6,0,0,0,.664-.055V-.047a4.648,4.648,0,0,1-1.367.2,2.156,2.156,0,0,1-2.422-2.4V-6.8h-1.234V-8.453h1.234v-2.078ZM119.18.156a4.15,4.15,0,0,1-3.027-1.141,4.054,4.054,0,0,1-1.168-3.039v-.219a5.106,5.106,0,0,1,.492-2.277,3.612,3.612,0,0,1,1.395-1.547,3.914,3.914,0,0,1,2.059-.543,3.508,3.508,0,0,1,2.73,1.094,4.444,4.444,0,0,1,1,3.1v.922h-5.383a2.1,2.1,0,0,0,.66,1.328,2,2,0,0,0,1.395.5,2.437,2.437,0,0,0,2.039-.945l1.109,1.242A3.389,3.389,0,0,1,121.1-.246,4.511,4.511,0,0,1,119.18.156Zm-.258-6.945a1.411,1.411,0,0,0-1.09.455,2.357,2.357,0,0,0-.535,1.3h3.141v-.181a1.681,1.681,0,0,0-.406-1.165A1.456,1.456,0,0,0,118.922-6.789Zm9.766.453a6.134,6.134,0,0,0-.812-.062,1.654,1.654,0,0,0-1.68.867V0h-2.258V-8.453h2.133l.063,1.008a2.092,2.092,0,0,1,1.883-1.164,2.366,2.366,0,0,1,.7.1ZM132.156,0h-2.266V-8.453h2.266Zm-2.4-10.641a1.112,1.112,0,0,1,.34-.836,1.277,1.277,0,0,1,.926-.328,1.28,1.28,0,0,1,.922.328,1.105,1.105,0,0,1,.344.836,1.109,1.109,0,0,1-.348.844,1.283,1.283,0,0,1-.918.328,1.283,1.283,0,0,1-.918-.328A1.109,1.109,0,0,1,129.758-10.641ZM138.914,0a2.507,2.507,0,0,1-.227-.758,2.732,2.732,0,0,1-2.133.914A3,3,0,0,1,134.5-.562a2.312,2.312,0,0,1-.816-1.812,2.389,2.389,0,0,1,1-2.062,4.915,4.915,0,0,1,2.879-.727h1.039v-.484a1.393,1.393,0,0,0-.3-.937,1.183,1.183,0,0,0-.949-.352,1.345,1.345,0,0,0-.895.273.929.929,0,0,0-.324.75h-2.258a2.268,2.268,0,0,1,.453-1.359,3,3,0,0,1,1.281-.98,4.669,4.669,0,0,1,1.859-.355,3.689,3.689,0,0,1,2.48.785,2.747,2.747,0,0,1,.918,2.207v3.664a4.041,4.041,0,0,0,.336,1.82V0Zm-1.867-1.57a1.945,1.945,0,0,0,.922-.223,1.462,1.462,0,0,0,.625-.6V-3.844h-.844q-1.7,0-1.8,1.172l-.008.133a.9.9,0,0,0,.3.7A1.153,1.153,0,0,0,137.047-1.57Z" transform="translate(517.51 3577.979)" fill="#12263f"/>
      <path id="Trazado_279900" data-name="Trazado 279900" d="M8.477-4.148A5.07,5.07,0,0,1,7.59-1.02,2.843,2.843,0,0,1,5.2.156a2.633,2.633,0,0,1-2.07-.891V3.25H.867v-11.7H2.961l.078.828A2.654,2.654,0,0,1,5.18-8.609a2.862,2.862,0,0,1,2.43,1.156,5.207,5.207,0,0,1,.867,3.188ZM6.219-4.312A3.327,3.327,0,0,0,5.8-6.133a1.361,1.361,0,0,0-1.215-.641,1.478,1.478,0,0,0-1.461.813V-2.5A1.5,1.5,0,0,0,4.6-1.664Q6.219-1.664,6.219-4.312Zm8.406-2.023a6.134,6.134,0,0,0-.812-.062,1.654,1.654,0,0,0-1.68.867V0H9.875V-8.453h2.133l.063,1.008a2.092,2.092,0,0,1,1.883-1.164,2.366,2.366,0,0,1,.7.1ZM18.094,0H15.828V-8.453h2.266ZM15.7-10.641a1.112,1.112,0,0,1,.34-.836,1.277,1.277,0,0,1,.926-.328,1.28,1.28,0,0,1,.922.328,1.105,1.105,0,0,1,.344.836,1.108,1.108,0,0,1-.348.844,1.283,1.283,0,0,1-.918.328,1.283,1.283,0,0,1-.918-.328A1.108,1.108,0,0,1,15.7-10.641ZM22.07-8.453l.07.945a2.971,2.971,0,0,1,2.43-1.1A2.255,2.255,0,0,1,26.813-7.32a2.9,2.9,0,0,1,2.539-1.289,2.521,2.521,0,0,1,2.047.8A3.681,3.681,0,0,1,32.07-5.4V0H29.8V-5.391a1.61,1.61,0,0,0-.281-1.051,1.246,1.246,0,0,0-.992-.332,1.409,1.409,0,0,0-1.406.969L27.133,0H24.875V-5.383a1.59,1.59,0,0,0-.289-1.062,1.259,1.259,0,0,0-.984-.328,1.463,1.463,0,0,0-1.391.8V0H19.953V-8.453ZM38.7,0a2.507,2.507,0,0,1-.227-.758,2.732,2.732,0,0,1-2.133.914,3,3,0,0,1-2.059-.719,2.312,2.312,0,0,1-.816-1.812,2.389,2.389,0,0,1,1-2.062,4.915,4.915,0,0,1,2.879-.727h1.039v-.484a1.393,1.393,0,0,0-.3-.937,1.183,1.183,0,0,0-.949-.352,1.345,1.345,0,0,0-.895.273.929.929,0,0,0-.324.75H33.656a2.268,2.268,0,0,1,.453-1.359,3,3,0,0,1,1.281-.98,4.669,4.669,0,0,1,1.859-.355,3.689,3.689,0,0,1,2.48.785,2.747,2.747,0,0,1,.918,2.207v3.664a4.041,4.041,0,0,0,.336,1.82V0ZM36.836-1.57a1.945,1.945,0,0,0,.922-.223,1.462,1.462,0,0,0,.625-.6V-3.844h-.844q-1.7,0-1.8,1.172l-.008.133a.9.9,0,0,0,.3.7A1.153,1.153,0,0,0,36.836-1.57Z" transform="translate(567.622 3597.178)" fill="#12263f"/>
      <path id="Trazado_279901" data-name="Trazado 279901" d="M7.859-4.93h-4.5v3.047H8.641V0H1.016V-11.375H8.625v1.9H3.359v2.711h4.5Zm4.086-3.523.07.977a2.951,2.951,0,0,1,2.43-1.133,2.453,2.453,0,0,1,2,.789,3.682,3.682,0,0,1,.672,2.359V0H14.859V-5.406a1.465,1.465,0,0,0-.312-1.043,1.4,1.4,0,0,0-1.039-.324,1.553,1.553,0,0,0-1.43.813V0H9.82V-8.453ZM19.445,0V-6.8H18.188V-8.453h1.258v-.719a2.918,2.918,0,0,1,.816-2.207,3.162,3.162,0,0,1,2.285-.785,5.278,5.278,0,0,1,1.148.156l-.023,1.75a2.878,2.878,0,0,0-.687-.07q-1.273,0-1.273,1.2v.68h1.68V-6.8h-1.68V0Zm9.867-6.336A6.134,6.134,0,0,0,28.5-6.4a1.654,1.654,0,0,0-1.68.867V0H24.563V-8.453H26.7l.063,1.008a2.092,2.092,0,0,1,1.883-1.164,2.366,2.366,0,0,1,.7.1ZM32.781,0H30.516V-8.453h2.266Zm-2.4-10.641a1.112,1.112,0,0,1,.34-.836,1.277,1.277,0,0,1,.926-.328,1.28,1.28,0,0,1,.922.328,1.105,1.105,0,0,1,.344.836,1.108,1.108,0,0,1-.348.844,1.283,1.283,0,0,1-.918.328A1.283,1.283,0,0,1,30.73-9.8,1.108,1.108,0,0,1,30.383-10.641ZM39.539,0a2.507,2.507,0,0,1-.227-.758A2.732,2.732,0,0,1,37.18.156a3,3,0,0,1-2.059-.719A2.312,2.312,0,0,1,34.3-2.375a2.389,2.389,0,0,1,1-2.062,4.915,4.915,0,0,1,2.879-.727h1.039v-.484a1.393,1.393,0,0,0-.3-.937,1.183,1.183,0,0,0-.949-.352,1.345,1.345,0,0,0-.895.273.929.929,0,0,0-.324.75H34.492a2.268,2.268,0,0,1,.453-1.359,3,3,0,0,1,1.281-.98,4.669,4.669,0,0,1,1.859-.355,3.689,3.689,0,0,1,2.48.785,2.747,2.747,0,0,1,.918,2.207v3.664a4.041,4.041,0,0,0,.336,1.82V0ZM37.672-1.57a1.945,1.945,0,0,0,.922-.223,1.462,1.462,0,0,0,.625-.6V-3.844h-.844q-1.7,0-1.8,1.172l-.008.133a.9.9,0,0,0,.3.7A1.153,1.153,0,0,0,37.672-1.57Zm7.664-6.883.07.945a2.971,2.971,0,0,1,2.43-1.1A2.255,2.255,0,0,1,50.078-7.32a2.9,2.9,0,0,1,2.539-1.289,2.521,2.521,0,0,1,2.047.8,3.681,3.681,0,0,1,.672,2.41V0H53.07V-5.391a1.61,1.61,0,0,0-.281-1.051,1.246,1.246,0,0,0-.992-.332,1.409,1.409,0,0,0-1.406.969L50.4,0H48.141V-5.383a1.59,1.59,0,0,0-.289-1.062,1.259,1.259,0,0,0-.984-.328,1.463,1.463,0,0,0-1.391.8V0H43.219V-8.453ZM59.453,0H57.188V-8.453h2.266Zm-2.4-10.641a1.112,1.112,0,0,1,.34-.836,1.277,1.277,0,0,1,.926-.328,1.28,1.28,0,0,1,.922.328,1.105,1.105,0,0,1,.344.836,1.108,1.108,0,0,1-.348.844,1.283,1.283,0,0,1-.918.328A1.283,1.283,0,0,1,57.4-9.8,1.108,1.108,0,0,1,57.055-10.641ZM65.2.156A4.15,4.15,0,0,1,62.176-.984a4.054,4.054,0,0,1-1.168-3.039v-.219A5.106,5.106,0,0,1,61.5-6.52a3.612,3.612,0,0,1,1.395-1.547,3.914,3.914,0,0,1,2.059-.543,3.508,3.508,0,0,1,2.73,1.094,4.444,4.444,0,0,1,1,3.1v.922H63.3a2.1,2.1,0,0,0,.66,1.328,2,2,0,0,0,1.395.5,2.437,2.437,0,0,0,2.039-.945L68.5-1.367A3.389,3.389,0,0,1,67.125-.246,4.511,4.511,0,0,1,65.2.156Zm-.258-6.945a1.411,1.411,0,0,0-1.09.455,2.357,2.357,0,0,0-.535,1.3h3.141v-.181a1.681,1.681,0,0,0-.406-1.165A1.456,1.456,0,0,0,64.945-6.789Zm7.094-1.664.07.977a2.951,2.951,0,0,1,2.43-1.133,2.453,2.453,0,0,1,2,.789,3.682,3.682,0,0,1,.672,2.359V0H74.953V-5.406a1.465,1.465,0,0,0-.312-1.043A1.4,1.4,0,0,0,73.6-6.773a1.553,1.553,0,0,0-1.43.813V0H69.914V-8.453Zm9.586-2.078v2.078H83.07V-6.8H81.625v4.219a1.007,1.007,0,0,0,.18.672.9.9,0,0,0,.688.2,3.6,3.6,0,0,0,.664-.055V-.047a4.648,4.648,0,0,1-1.367.2,2.156,2.156,0,0,1-2.422-2.4V-6.8H78.133V-8.453h1.234v-2.078ZM83.5-4.3a5.013,5.013,0,0,1,.484-2.242A3.546,3.546,0,0,1,85.381-8.07a4.069,4.069,0,0,1,2.113-.539,3.849,3.849,0,0,1,2.793,1.047,4.2,4.2,0,0,1,1.207,2.844l.016.578A4.418,4.418,0,0,1,90.424-1.02,3.775,3.775,0,0,1,87.51.156a3.793,3.793,0,0,1-2.918-1.172A4.5,4.5,0,0,1,83.5-4.2Zm2.258.16A3.16,3.16,0,0,0,86.213-2.3a1.5,1.5,0,0,0,1.3.638,1.5,1.5,0,0,0,1.281-.63,3.457,3.457,0,0,0,.461-2.015,3.128,3.128,0,0,0-.461-1.831,1.5,1.5,0,0,0-1.3-.649,1.474,1.474,0,0,0-1.281.646A3.516,3.516,0,0,0,85.76-4.144Z" transform="translate(542.246 3730.731)" fill="#12263f"/>
      <path id="Trazado_279890" data-name="Trazado 279890" d="M7.859-4.648h-4.5V0H1.016V-11.375H8.422v1.9H3.359v2.938h4.5Zm1.1.344a5.013,5.013,0,0,1,.484-2.242A3.546,3.546,0,0,1,10.836-8.07a4.069,4.069,0,0,1,2.113-.539,3.849,3.849,0,0,1,2.793,1.047,4.2,4.2,0,0,1,1.207,2.844l.016.578A4.418,4.418,0,0,1,15.879-1.02,3.775,3.775,0,0,1,12.965.156a3.793,3.793,0,0,1-2.918-1.172A4.5,4.5,0,0,1,8.957-4.2Zm2.258.16A3.16,3.16,0,0,0,11.668-2.3a1.5,1.5,0,0,0,1.3.638,1.5,1.5,0,0,0,1.281-.63,3.457,3.457,0,0,0,.461-2.015,3.128,3.128,0,0,0-.461-1.831,1.5,1.5,0,0,0-1.3-.649,1.474,1.474,0,0,0-1.281.646A3.516,3.516,0,0,0,11.215-4.144ZM23.106-6.336a6.134,6.134,0,0,0-.812-.062,1.654,1.654,0,0,0-1.68.867V0H18.356V-8.453h2.133l.063,1.008a2.092,2.092,0,0,1,1.883-1.164,2.366,2.366,0,0,1,.7.1Zm3.2-2.117.07.945a2.971,2.971,0,0,1,2.43-1.1A2.255,2.255,0,0,1,31.051-7.32,2.9,2.9,0,0,1,33.59-8.609a2.521,2.521,0,0,1,2.047.8,3.681,3.681,0,0,1,.672,2.41V0H34.043V-5.391a1.61,1.61,0,0,0-.281-1.051,1.246,1.246,0,0,0-.992-.332,1.409,1.409,0,0,0-1.406.969L31.371,0H29.113V-5.383a1.59,1.59,0,0,0-.289-1.062,1.259,1.259,0,0,0-.984-.328,1.463,1.463,0,0,0-1.391.8V0H24.192V-8.453Zm16.8,7.594A2.831,2.831,0,0,1,40.793.156a2.67,2.67,0,0,1-2.074-.781,3.335,3.335,0,0,1-.73-2.289V-8.453h2.258v5.467q0,1.322,1.2,1.322a1.63,1.63,0,0,0,1.578-.8V-8.453h2.266V0H43.168ZM49.379,0H47.113V-12h2.266Zm6.758,0a2.507,2.507,0,0,1-.227-.758,2.732,2.732,0,0,1-2.133.914,3,3,0,0,1-2.059-.719A2.312,2.312,0,0,1,50.9-2.375a2.389,2.389,0,0,1,1-2.062,4.915,4.915,0,0,1,2.879-.727h1.039v-.484a1.393,1.393,0,0,0-.3-.937,1.183,1.183,0,0,0-.949-.352,1.345,1.345,0,0,0-.895.273.929.929,0,0,0-.324.75H51.09a2.268,2.268,0,0,1,.453-1.359,3,3,0,0,1,1.281-.98,4.669,4.669,0,0,1,1.859-.355,3.689,3.689,0,0,1,2.48.785,2.747,2.747,0,0,1,.918,2.207v3.664a4.041,4.041,0,0,0,.336,1.82V0ZM54.27-1.57a1.945,1.945,0,0,0,.922-.223,1.462,1.462,0,0,0,.625-.6V-3.844h-.844q-1.7,0-1.8,1.172l-.008.133a.9.9,0,0,0,.3.7A1.153,1.153,0,0,0,54.27-1.57Zm9.063-.094a1.481,1.481,0,0,0,1.016-.344,1.2,1.2,0,0,0,.406-.914h2.117A2.9,2.9,0,0,1,66.4-1.348,3.093,3.093,0,0,1,65.141-.238a3.949,3.949,0,0,1-1.77.395A3.67,3.67,0,0,1,60.512-1,4.56,4.56,0,0,1,59.465-4.18v-.148A4.508,4.508,0,0,1,60.5-7.445a3.627,3.627,0,0,1,2.852-1.164,3.555,3.555,0,0,1,2.543.9,3.2,3.2,0,0,1,.973,2.4H64.754a1.551,1.551,0,0,0-.406-1.072,1.354,1.354,0,0,0-1.031-.412,1.36,1.36,0,0,0-1.191.575,3.333,3.333,0,0,0-.4,1.866v.235a3.375,3.375,0,0,0,.4,1.878A1.377,1.377,0,0,0,63.332-1.664ZM70.543,0H68.277V-8.453h2.266Zm-2.4-10.641a1.112,1.112,0,0,1,.34-.836,1.277,1.277,0,0,1,.926-.328,1.28,1.28,0,0,1,.922.328,1.105,1.105,0,0,1,.344.836,1.108,1.108,0,0,1-.348.844,1.283,1.283,0,0,1-.918.328,1.283,1.283,0,0,1-.918-.328A1.108,1.108,0,0,1,68.145-10.641ZM72.051-4.3a5.013,5.013,0,0,1,.484-2.242A3.546,3.546,0,0,1,73.93-8.07a4.069,4.069,0,0,1,2.113-.539,3.849,3.849,0,0,1,2.793,1.047,4.2,4.2,0,0,1,1.207,2.844l.016.578A4.418,4.418,0,0,1,78.973-1.02,3.775,3.775,0,0,1,76.059.156a3.793,3.793,0,0,1-2.918-1.172A4.5,4.5,0,0,1,72.051-4.2Zm2.258.16A3.16,3.16,0,0,0,74.762-2.3a1.5,1.5,0,0,0,1.3.638,1.5,1.5,0,0,0,1.281-.63A3.457,3.457,0,0,0,77.8-4.309,3.128,3.128,0,0,0,77.34-6.14a1.5,1.5,0,0,0-1.3-.649,1.474,1.474,0,0,0-1.281.646A3.516,3.516,0,0,0,74.309-4.144ZM76.488-12h2.461L76.785-9.578H74.949Zm7.039,3.547.07.977a2.951,2.951,0,0,1,2.43-1.133,2.453,2.453,0,0,1,2,.789A3.682,3.682,0,0,1,88.7-5.461V0H86.442V-5.406a1.465,1.465,0,0,0-.312-1.043,1.4,1.4,0,0,0-1.039-.324,1.553,1.553,0,0,0-1.43.813V0H81.4V-8.453Z" transform="translate(757.654 3422.283)" fill="#12263f"/>
      <path id="Trazado_279897" data-name="Trazado 279897" d="M4.078-11.375,7-3.125l2.906-8.25h3.078V0H10.633V-3.109l.234-5.367L7.8,0H6.188L3.125-8.469l.234,5.359V0H1.016V-11.375ZM18.773.156A4.15,4.15,0,0,1,15.746-.984a4.054,4.054,0,0,1-1.168-3.039v-.219A5.106,5.106,0,0,1,15.07-6.52a3.612,3.612,0,0,1,1.395-1.547,3.914,3.914,0,0,1,2.059-.543,3.508,3.508,0,0,1,2.73,1.094,4.444,4.444,0,0,1,1,3.1v.922H16.867a2.1,2.1,0,0,0,.66,1.328,2,2,0,0,0,1.395.5,2.437,2.437,0,0,0,2.039-.945L22.07-1.367A3.389,3.389,0,0,1,20.7-.246,4.511,4.511,0,0,1,18.773.156Zm-.258-6.945a1.411,1.411,0,0,0-1.09.455,2.357,2.357,0,0,0-.535,1.3h3.141v-.181a1.681,1.681,0,0,0-.406-1.165A1.456,1.456,0,0,0,18.516-6.789ZM26.125-1.82h4.133V0H23.242V-1.375l3.977-5.258H23.359v-1.82h6.773v1.33Zm8.81.156a1.481,1.481,0,0,0,1.016-.344,1.2,1.2,0,0,0,.406-.914h2.117A2.9,2.9,0,0,1,38-1.348,3.093,3.093,0,0,1,36.743-.238a3.949,3.949,0,0,1-1.77.395A3.67,3.67,0,0,1,32.114-1,4.56,4.56,0,0,1,31.067-4.18v-.148a4.508,4.508,0,0,1,1.039-3.117,3.627,3.627,0,0,1,2.852-1.164,3.555,3.555,0,0,1,2.543.9,3.2,3.2,0,0,1,.973,2.4H36.356a1.552,1.552,0,0,0-.406-1.072,1.354,1.354,0,0,0-1.031-.412,1.36,1.36,0,0,0-1.191.575,3.333,3.333,0,0,0-.4,1.866v.235a3.375,3.375,0,0,0,.4,1.878A1.377,1.377,0,0,0,34.935-1.664ZM42.145,0H39.88V-12h2.266ZM48.9,0a2.507,2.507,0,0,1-.227-.758,2.732,2.732,0,0,1-2.133.914,3,3,0,0,1-2.059-.719,2.312,2.312,0,0,1-.816-1.812,2.389,2.389,0,0,1,1-2.062,4.915,4.915,0,0,1,2.879-.727h1.039v-.484a1.393,1.393,0,0,0-.3-.937,1.183,1.183,0,0,0-.949-.352,1.345,1.345,0,0,0-.895.273.929.929,0,0,0-.324.75H43.856a2.268,2.268,0,0,1,.453-1.359,3,3,0,0,1,1.281-.98,4.669,4.669,0,0,1,1.859-.355,3.689,3.689,0,0,1,2.48.785,2.747,2.747,0,0,1,.918,2.207v3.664a4.041,4.041,0,0,0,.336,1.82V0ZM47.036-1.57a1.945,1.945,0,0,0,.922-.223,1.462,1.462,0,0,0,.625-.6V-3.844h-.844q-1.7,0-1.8,1.172l-.008.133a.9.9,0,0,0,.3.7A1.153,1.153,0,0,0,47.036-1.57Zm5.2-2.719a5.094,5.094,0,0,1,.887-3.148,2.877,2.877,0,0,1,2.426-1.172,2.589,2.589,0,0,1,2.039.922V-12h2.266V0H57.81L57.7-.9A2.657,2.657,0,0,1,55.528.156,2.869,2.869,0,0,1,53.134-1.02,5.258,5.258,0,0,1,52.231-4.289Zm2.258.168A3.337,3.337,0,0,0,54.9-2.3a1.349,1.349,0,0,0,1.2.634,1.511,1.511,0,0,0,1.477-.884V-5.889a1.489,1.489,0,0,0-1.461-.884Q54.489-6.773,54.489-4.121ZM61.247-4.3a5.013,5.013,0,0,1,.484-2.242A3.546,3.546,0,0,1,63.126-8.07a4.069,4.069,0,0,1,2.113-.539,3.849,3.849,0,0,1,2.793,1.047,4.2,4.2,0,0,1,1.207,2.844l.016.578A4.418,4.418,0,0,1,68.169-1.02,3.775,3.775,0,0,1,65.255.156a3.793,3.793,0,0,1-2.918-1.172A4.5,4.5,0,0,1,61.247-4.2Zm2.258.16A3.16,3.16,0,0,0,63.958-2.3a1.5,1.5,0,0,0,1.3.638,1.5,1.5,0,0,0,1.281-.63A3.457,3.457,0,0,0,67-4.309a3.128,3.128,0,0,0-.461-1.831,1.5,1.5,0,0,0-1.3-.649,1.474,1.474,0,0,0-1.281.646A3.516,3.516,0,0,0,63.5-4.144Z" transform="translate(767.558 3577.323)" fill="#12263f"/>
      <path id="Trazado_279902" data-name="Trazado 279902" d="M6.914-2.984A1.2,1.2,0,0,0,6.445-4a6.148,6.148,0,0,0-1.687-.75,11.963,11.963,0,0,1-1.93-.777A3.153,3.153,0,0,1,.891-8.352,2.747,2.747,0,0,1,1.41-10,3.389,3.389,0,0,1,2.9-11.125a5.616,5.616,0,0,1,2.184-.406,5.112,5.112,0,0,1,2.172.441,3.458,3.458,0,0,1,1.48,1.246,3.261,3.261,0,0,1,.527,1.828H6.922A1.534,1.534,0,0,0,6.43-9.23a2.023,2.023,0,0,0-1.383-.434A2.162,2.162,0,0,0,3.711-9.3a1.146,1.146,0,0,0-.477.957,1.1,1.1,0,0,0,.559.93,6.311,6.311,0,0,0,1.645.7A7.106,7.106,0,0,1,8.352-5.219,2.972,2.972,0,0,1,9.266-3,2.737,2.737,0,0,1,8.148-.684a4.891,4.891,0,0,1-3.008.84A5.808,5.808,0,0,1,2.75-.324,3.783,3.783,0,0,1,1.105-1.641,3.371,3.371,0,0,1,.539-3.578H2.891q0,1.883,2.25,1.883a2.189,2.189,0,0,0,1.3-.34A1.106,1.106,0,0,0,6.914-2.984ZM14.594.156A4.15,4.15,0,0,1,11.566-.984,4.054,4.054,0,0,1,10.4-4.023v-.219a5.106,5.106,0,0,1,.492-2.277,3.612,3.612,0,0,1,1.395-1.547,3.914,3.914,0,0,1,2.059-.543,3.508,3.508,0,0,1,2.73,1.094,4.444,4.444,0,0,1,1,3.1v.922H12.688a2.1,2.1,0,0,0,.66,1.328,2,2,0,0,0,1.395.5,2.437,2.437,0,0,0,2.039-.945l1.109,1.242A3.389,3.389,0,0,1,16.516-.246,4.511,4.511,0,0,1,14.594.156Zm-.258-6.945a1.411,1.411,0,0,0-1.09.455,2.357,2.357,0,0,0-.535,1.3h3.141v-.181a1.681,1.681,0,0,0-.406-1.165A1.456,1.456,0,0,0,14.336-6.789Zm8.531,5.125a1.481,1.481,0,0,0,1.016-.344,1.2,1.2,0,0,0,.406-.914h2.117a2.9,2.9,0,0,1-.469,1.574A3.093,3.093,0,0,1,24.676-.238a3.949,3.949,0,0,1-1.77.395A3.67,3.67,0,0,1,20.047-1,4.56,4.56,0,0,1,19-4.18v-.148a4.508,4.508,0,0,1,1.039-3.117,3.627,3.627,0,0,1,2.852-1.164,3.555,3.555,0,0,1,2.543.9,3.2,3.2,0,0,1,.973,2.4H24.289a1.551,1.551,0,0,0-.406-1.072,1.354,1.354,0,0,0-1.031-.412,1.36,1.36,0,0,0-1.191.575,3.333,3.333,0,0,0-.4,1.866v.235a3.375,3.375,0,0,0,.4,1.878A1.377,1.377,0,0,0,22.867-1.664ZM32.594,0a2.507,2.507,0,0,1-.227-.758,2.732,2.732,0,0,1-2.133.914,3,3,0,0,1-2.059-.719,2.312,2.312,0,0,1-.816-1.812,2.389,2.389,0,0,1,1-2.062,4.915,4.915,0,0,1,2.879-.727h1.039v-.484a1.393,1.393,0,0,0-.3-.937,1.183,1.183,0,0,0-.949-.352,1.345,1.345,0,0,0-.895.273.929.929,0,0,0-.324.75H27.547A2.268,2.268,0,0,1,28-7.273a3,3,0,0,1,1.281-.98,4.669,4.669,0,0,1,1.859-.355,3.689,3.689,0,0,1,2.48.785,2.747,2.747,0,0,1,.918,2.207v3.664a4.041,4.041,0,0,0,.336,1.82V0ZM30.727-1.57a1.945,1.945,0,0,0,.922-.223,1.462,1.462,0,0,0,.625-.6V-3.844H31.43q-1.7,0-1.8,1.172l-.008.133a.9.9,0,0,0,.3.7A1.153,1.153,0,0,0,30.727-1.57Zm5.2-2.719a5.094,5.094,0,0,1,.887-3.148,2.877,2.877,0,0,1,2.426-1.172,2.589,2.589,0,0,1,2.039.922V-12h2.266V0H41.5l-.109-.9A2.657,2.657,0,0,1,39.219.156,2.869,2.869,0,0,1,36.824-1.02,5.258,5.258,0,0,1,35.922-4.289Zm2.258.168A3.337,3.337,0,0,0,38.594-2.3a1.349,1.349,0,0,0,1.2.634,1.511,1.511,0,0,0,1.477-.884V-5.889a1.489,1.489,0,0,0-1.461-.884Q38.18-6.773,38.18-4.121ZM44.938-4.3a5.013,5.013,0,0,1,.484-2.242A3.546,3.546,0,0,1,46.816-8.07a4.069,4.069,0,0,1,2.113-.539,3.849,3.849,0,0,1,2.793,1.047A4.2,4.2,0,0,1,52.93-4.719l.016.578A4.418,4.418,0,0,1,51.859-1.02,3.775,3.775,0,0,1,48.945.156a3.793,3.793,0,0,1-2.918-1.172A4.5,4.5,0,0,1,44.938-4.2Zm2.258.16A3.16,3.16,0,0,0,47.648-2.3a1.5,1.5,0,0,0,1.3.638,1.5,1.5,0,0,0,1.281-.63,3.457,3.457,0,0,0,.461-2.015,3.128,3.128,0,0,0-.461-1.831,1.5,1.5,0,0,0-1.3-.649,1.474,1.474,0,0,0-1.281.646A3.516,3.516,0,0,0,47.2-4.144Z" transform="translate(775.782 3730.714)" fill="#12263f"/>
      <path id="Trazado_279891" data-name="Trazado 279891" d="M3.359-4.008V0H1.016V-11.375H5.453a5.134,5.134,0,0,1,2.254.469A3.454,3.454,0,0,1,9.2-9.574a3.714,3.714,0,0,1,.523,1.965A3.266,3.266,0,0,1,8.582-4.973a4.767,4.767,0,0,1-3.168.965Zm0-1.9H5.453a2.059,2.059,0,0,0,1.418-.437,1.591,1.591,0,0,0,.488-1.25,1.876,1.876,0,0,0-.492-1.352,1.839,1.839,0,0,0-1.359-.531H3.359ZM14.881.156A4.15,4.15,0,0,1,11.853-.984a4.054,4.054,0,0,1-1.168-3.039v-.219a5.106,5.106,0,0,1,.492-2.277,3.612,3.612,0,0,1,1.395-1.547,3.914,3.914,0,0,1,2.059-.543,3.508,3.508,0,0,1,2.73,1.094,4.444,4.444,0,0,1,1,3.1v.922H12.974a2.1,2.1,0,0,0,.66,1.328,2,2,0,0,0,1.395.5,2.437,2.437,0,0,0,2.039-.945l1.109,1.242A3.389,3.389,0,0,1,16.8-.246,4.511,4.511,0,0,1,14.881.156Zm-.258-6.945a1.411,1.411,0,0,0-1.09.455A2.357,2.357,0,0,0,13-5.031h3.141v-.181a1.681,1.681,0,0,0-.406-1.165A1.456,1.456,0,0,0,14.623-6.789Zm9.594,4.453a.727.727,0,0,0-.41-.652,4.659,4.659,0,0,0-1.316-.426q-3.016-.633-3.016-2.562a2.323,2.323,0,0,1,.934-1.879,3.766,3.766,0,0,1,2.441-.754,4.053,4.053,0,0,1,2.574.758,2.388,2.388,0,0,1,.965,1.969H24.131a1.092,1.092,0,0,0-.312-.8A1.322,1.322,0,0,0,22.841-7a1.351,1.351,0,0,0-.883.258.814.814,0,0,0-.312.656A.7.7,0,0,0,22-5.48a3.657,3.657,0,0,0,1.2.4,9.8,9.8,0,0,1,1.422.379A2.336,2.336,0,0,1,26.412-2.43,2.2,2.2,0,0,1,25.42-.559a4.28,4.28,0,0,1-2.562.715A4.47,4.47,0,0,1,20.97-.223a3.166,3.166,0,0,1-1.293-1.039,2.414,2.414,0,0,1-.469-1.426h2.141a1.179,1.179,0,0,0,.445.922,1.766,1.766,0,0,0,1.109.32,1.635,1.635,0,0,0,.98-.246A.766.766,0,0,0,24.216-2.336ZM32.763,0a2.507,2.507,0,0,1-.227-.758A2.732,2.732,0,0,1,30.4.156a3,3,0,0,1-2.059-.719,2.312,2.312,0,0,1-.816-1.812,2.389,2.389,0,0,1,1-2.062A4.915,4.915,0,0,1,31.4-5.164h1.039v-.484a1.393,1.393,0,0,0-.3-.937,1.183,1.183,0,0,0-.949-.352,1.345,1.345,0,0,0-.895.273.929.929,0,0,0-.324.75H27.716a2.268,2.268,0,0,1,.453-1.359,3,3,0,0,1,1.281-.98,4.669,4.669,0,0,1,1.859-.355,3.689,3.689,0,0,1,2.48.785,2.747,2.747,0,0,1,.918,2.207v3.664a4.041,4.041,0,0,0,.336,1.82V0ZM30.9-1.57a1.945,1.945,0,0,0,.922-.223,1.462,1.462,0,0,0,.625-.6V-3.844H31.6q-1.7,0-1.8,1.172l-.008.133a.9.9,0,0,0,.3.7A1.153,1.153,0,0,0,30.9-1.57Zm7.938-6.883V.461a3.024,3.024,0,0,1-.742,2.176,2.821,2.821,0,0,1-2.141.777,4.591,4.591,0,0,1-1.117-.133V1.492a4.238,4.238,0,0,0,.711.07q1.023,0,1.023-1.086v-8.93Zm-2.445-2.187a1.112,1.112,0,0,1,.34-.836,1.277,1.277,0,0,1,.926-.328,1.277,1.277,0,0,1,.926.328,1.112,1.112,0,0,1,.34.836,1.108,1.108,0,0,1-.348.844,1.283,1.283,0,0,1-.918.328,1.283,1.283,0,0,1-.918-.328A1.108,1.108,0,0,1,36.388-10.641Zm8.1,10.8A4.15,4.15,0,0,1,41.463-.984a4.054,4.054,0,0,1-1.168-3.039v-.219a5.106,5.106,0,0,1,.492-2.277,3.612,3.612,0,0,1,1.395-1.547,3.914,3.914,0,0,1,2.059-.543,3.508,3.508,0,0,1,2.73,1.094,4.444,4.444,0,0,1,1,3.1v.922H42.584a2.1,2.1,0,0,0,.66,1.328,2,2,0,0,0,1.395.5,2.437,2.437,0,0,0,2.039-.945l1.109,1.242A3.389,3.389,0,0,1,46.412-.246,4.511,4.511,0,0,1,44.49.156Zm-.258-6.945a1.411,1.411,0,0,0-1.09.455,2.357,2.357,0,0,0-.535,1.3h3.141v-.181a1.681,1.681,0,0,0-.406-1.165A1.456,1.456,0,0,0,44.232-6.789Zm8.648,2.5a5.094,5.094,0,0,1,.887-3.148,2.877,2.877,0,0,1,2.426-1.172,2.589,2.589,0,0,1,2.039.922V-12H60.5V0H58.459l-.109-.9A2.657,2.657,0,0,1,56.177.156,2.869,2.869,0,0,1,53.783-1.02,5.258,5.258,0,0,1,52.881-4.289Zm2.258.168A3.337,3.337,0,0,0,55.552-2.3a1.349,1.349,0,0,0,1.2.634,1.511,1.511,0,0,0,1.477-.884V-5.889a1.489,1.489,0,0,0-1.461-.884Q55.138-6.773,55.138-4.121Zm11,4.277A4.15,4.15,0,0,1,63.111-.984a4.054,4.054,0,0,1-1.168-3.039v-.219a5.106,5.106,0,0,1,.492-2.277A3.612,3.612,0,0,1,63.83-8.066a3.914,3.914,0,0,1,2.059-.543,3.508,3.508,0,0,1,2.73,1.094,4.444,4.444,0,0,1,1,3.1v.922H64.232a2.1,2.1,0,0,0,.66,1.328,2,2,0,0,0,1.395.5,2.437,2.437,0,0,0,2.039-.945l1.109,1.242A3.389,3.389,0,0,1,68.06-.246,4.511,4.511,0,0,1,66.138.156Zm-.258-6.945a1.411,1.411,0,0,0-1.09.455,2.357,2.357,0,0,0-.535,1.3H67.4v-.181a1.681,1.681,0,0,0-.406-1.165A1.456,1.456,0,0,0,65.881-6.789ZM77-8.453l.07.945a2.971,2.971,0,0,1,2.43-1.1A2.255,2.255,0,0,1,81.74-7.32a2.9,2.9,0,0,1,2.539-1.289,2.521,2.521,0,0,1,2.047.8A3.681,3.681,0,0,1,87-5.4V0H84.732V-5.391a1.61,1.61,0,0,0-.281-1.051,1.246,1.246,0,0,0-.992-.332,1.409,1.409,0,0,0-1.406.969L82.06,0H79.8V-5.383a1.59,1.59,0,0,0-.289-1.062,1.259,1.259,0,0,0-.984-.328,1.463,1.463,0,0,0-1.391.8V0H74.881V-8.453ZM93.631,0A2.507,2.507,0,0,1,93.4-.758a2.732,2.732,0,0,1-2.133.914,3,3,0,0,1-2.059-.719A2.312,2.312,0,0,1,88.4-2.375a2.389,2.389,0,0,1,1-2.062,4.915,4.915,0,0,1,2.879-.727H93.31v-.484a1.393,1.393,0,0,0-.3-.937,1.183,1.183,0,0,0-.949-.352,1.345,1.345,0,0,0-.895.273.929.929,0,0,0-.324.75H88.584a2.268,2.268,0,0,1,.453-1.359,3,3,0,0,1,1.281-.98,4.669,4.669,0,0,1,1.859-.355,3.689,3.689,0,0,1,2.48.785,2.747,2.747,0,0,1,.918,2.207v3.664a4.041,4.041,0,0,0,.336,1.82V0ZM91.763-1.57a1.945,1.945,0,0,0,.922-.223,1.462,1.462,0,0,0,.625-.6V-3.844h-.844q-1.7,0-1.8,1.172l-.008.133a.9.9,0,0,0,.3.7A1.153,1.153,0,0,0,91.763-1.57Zm8.25-8.961v2.078h1.445V-6.8h-1.445v4.219a1.007,1.007,0,0,0,.18.672.9.9,0,0,0,.688.2,3.6,3.6,0,0,0,.664-.055V-.047a4.648,4.648,0,0,1-1.367.2,2.156,2.156,0,0,1-2.422-2.4V-6.8H96.521V-8.453h1.234v-2.078ZM106.607.156A4.15,4.15,0,0,1,103.58-.984a4.054,4.054,0,0,1-1.168-3.039v-.219A5.106,5.106,0,0,1,102.9-6.52,3.612,3.612,0,0,1,104.3-8.066a3.914,3.914,0,0,1,2.059-.543,3.508,3.508,0,0,1,2.73,1.094,4.444,4.444,0,0,1,1,3.1v.922H104.7a2.1,2.1,0,0,0,.66,1.328,2,2,0,0,0,1.395.5,2.437,2.437,0,0,0,2.039-.945L109.9-1.367a3.389,3.389,0,0,1-1.375,1.121A4.511,4.511,0,0,1,106.607.156Zm-.258-6.945a1.411,1.411,0,0,0-1.09.455,2.357,2.357,0,0,0-.535,1.3h3.141v-.181a1.681,1.681,0,0,0-.406-1.165A1.456,1.456,0,0,0,106.349-6.789Zm9.766.453A6.134,6.134,0,0,0,115.3-6.4a1.654,1.654,0,0,0-1.68.867V0h-2.258V-8.453H113.5l.063,1.008a2.092,2.092,0,0,1,1.883-1.164,2.366,2.366,0,0,1,.7.1ZM119.584,0h-2.266V-8.453h2.266Zm-2.4-10.641a1.112,1.112,0,0,1,.34-.836,1.277,1.277,0,0,1,.926-.328,1.28,1.28,0,0,1,.922.328,1.105,1.105,0,0,1,.344.836,1.108,1.108,0,0,1-.348.844,1.283,1.283,0,0,1-.918.328,1.283,1.283,0,0,1-.918-.328A1.108,1.108,0,0,1,117.185-10.641ZM126.341,0a2.507,2.507,0,0,1-.227-.758,2.732,2.732,0,0,1-2.133.914,3,3,0,0,1-2.059-.719,2.312,2.312,0,0,1-.816-1.812,2.389,2.389,0,0,1,1-2.062,4.915,4.915,0,0,1,2.879-.727h1.039v-.484a1.393,1.393,0,0,0-.3-.937,1.183,1.183,0,0,0-.949-.352,1.345,1.345,0,0,0-.895.273.929.929,0,0,0-.324.75h-2.258a2.268,2.268,0,0,1,.453-1.359,3,3,0,0,1,1.281-.98,4.669,4.669,0,0,1,1.859-.355,3.689,3.689,0,0,1,2.48.785,2.747,2.747,0,0,1,.918,2.207v3.664a4.041,4.041,0,0,0,.336,1.82V0Zm-1.867-1.57a1.945,1.945,0,0,0,.922-.223,1.462,1.462,0,0,0,.625-.6V-3.844h-.844q-1.7,0-1.8,1.172l-.008.133a.9.9,0,0,0,.3.7A1.153,1.153,0,0,0,124.474-1.57ZM134.6-2.336a.727.727,0,0,0-.41-.652,4.659,4.659,0,0,0-1.316-.426q-3.016-.633-3.016-2.562a2.323,2.323,0,0,1,.934-1.879,3.766,3.766,0,0,1,2.441-.754,4.053,4.053,0,0,1,2.574.758,2.388,2.388,0,0,1,.965,1.969h-2.258a1.092,1.092,0,0,0-.312-.8A1.322,1.322,0,0,0,133.224-7a1.351,1.351,0,0,0-.883.258.814.814,0,0,0-.312.656.7.7,0,0,0,.355.605,3.657,3.657,0,0,0,1.2.4,9.8,9.8,0,0,1,1.422.379,2.336,2.336,0,0,1,1.789,2.273A2.205,2.205,0,0,1,135.8-.559a4.28,4.28,0,0,1-2.562.715,4.47,4.47,0,0,1-1.887-.379,3.166,3.166,0,0,1-1.293-1.039,2.414,2.414,0,0,1-.469-1.426h2.141a1.179,1.179,0,0,0,.445.922,1.766,1.766,0,0,0,1.109.32,1.635,1.635,0,0,0,.98-.246A.766.766,0,0,0,134.6-2.336Z" transform="translate(951.91 3415.211)" fill="#12263f"/>
      <path id="Trazado_279892" data-name="Trazado 279892" d="M8.477-4.148A5.07,5.07,0,0,1,7.59-1.02,2.843,2.843,0,0,1,5.2.156a2.633,2.633,0,0,1-2.07-.891V3.25H.867v-11.7H2.961l.078.828A2.654,2.654,0,0,1,5.18-8.609a2.862,2.862,0,0,1,2.43,1.156,5.207,5.207,0,0,1,.867,3.188ZM6.219-4.312A3.327,3.327,0,0,0,5.8-6.133a1.361,1.361,0,0,0-1.215-.641,1.478,1.478,0,0,0-1.461.813V-2.5A1.5,1.5,0,0,0,4.6-1.664Q6.219-1.664,6.219-4.312Zm8.406-2.023a6.134,6.134,0,0,0-.812-.062,1.654,1.654,0,0,0-1.68.867V0H9.875V-8.453h2.133l.063,1.008a2.092,2.092,0,0,1,1.883-1.164,2.366,2.366,0,0,1,.7.1ZM18.094,0H15.828V-8.453h2.266ZM15.7-10.641a1.112,1.112,0,0,1,.34-.836,1.277,1.277,0,0,1,.926-.328,1.28,1.28,0,0,1,.922.328,1.105,1.105,0,0,1,.344.836,1.108,1.108,0,0,1-.348.844,1.283,1.283,0,0,1-.918.328,1.283,1.283,0,0,1-.918-.328A1.108,1.108,0,0,1,15.7-10.641ZM22.07-8.453l.07.945a2.971,2.971,0,0,1,2.43-1.1A2.255,2.255,0,0,1,26.813-7.32a2.9,2.9,0,0,1,2.539-1.289,2.521,2.521,0,0,1,2.047.8A3.681,3.681,0,0,1,32.07-5.4V0H29.8V-5.391a1.61,1.61,0,0,0-.281-1.051,1.246,1.246,0,0,0-.992-.332,1.409,1.409,0,0,0-1.406.969L27.133,0H24.875V-5.383a1.59,1.59,0,0,0-.289-1.062,1.259,1.259,0,0,0-.984-.328,1.463,1.463,0,0,0-1.391.8V0H19.953V-8.453ZM38.7,0a2.507,2.507,0,0,1-.227-.758,2.732,2.732,0,0,1-2.133.914,3,3,0,0,1-2.059-.719,2.312,2.312,0,0,1-.816-1.812,2.389,2.389,0,0,1,1-2.062,4.915,4.915,0,0,1,2.879-.727h1.039v-.484a1.393,1.393,0,0,0-.3-.937,1.183,1.183,0,0,0-.949-.352,1.345,1.345,0,0,0-.895.273.929.929,0,0,0-.324.75H33.656a2.268,2.268,0,0,1,.453-1.359,3,3,0,0,1,1.281-.98,4.669,4.669,0,0,1,1.859-.355,3.689,3.689,0,0,1,2.48.785,2.747,2.747,0,0,1,.918,2.207v3.664a4.041,4.041,0,0,0,.336,1.82V0ZM36.836-1.57a1.945,1.945,0,0,0,.922-.223,1.462,1.462,0,0,0,.625-.6V-3.844h-.844q-1.7,0-1.8,1.172l-.008.133a.9.9,0,0,0,.3.7A1.153,1.153,0,0,0,36.836-1.57Zm10.125-.766a.727.727,0,0,0-.41-.652,4.659,4.659,0,0,0-1.316-.426q-3.016-.633-3.016-2.562a2.323,2.323,0,0,1,.934-1.879,3.766,3.766,0,0,1,2.441-.754,4.053,4.053,0,0,1,2.574.758,2.388,2.388,0,0,1,.965,1.969H46.875a1.092,1.092,0,0,0-.312-.8A1.322,1.322,0,0,0,45.586-7a1.351,1.351,0,0,0-.883.258.814.814,0,0,0-.312.656.7.7,0,0,0,.355.605,3.657,3.657,0,0,0,1.2.4,9.8,9.8,0,0,1,1.422.379A2.336,2.336,0,0,1,49.156-2.43a2.2,2.2,0,0,1-.992,1.871A4.28,4.28,0,0,1,45.6.156a4.47,4.47,0,0,1-1.887-.379,3.166,3.166,0,0,1-1.293-1.039,2.414,2.414,0,0,1-.469-1.426h2.141a1.179,1.179,0,0,0,.445.922,1.766,1.766,0,0,0,1.109.32,1.635,1.635,0,0,0,.98-.246A.766.766,0,0,0,46.961-2.336Z" transform="translate(995.782 3434.41)" fill="#12263f"/>
      <path id="Trazado_279893" data-name="Trazado 279893" d="M9.945-3.789A4.025,4.025,0,0,1,8.59-.9,4.76,4.76,0,0,1,5.367.156,4.28,4.28,0,0,1,1.926-1.316,6.038,6.038,0,0,1,.672-5.359v-.7A6.819,6.819,0,0,1,1.25-8.945,4.332,4.332,0,0,1,2.9-10.863a4.629,4.629,0,0,1,2.5-.668A4.637,4.637,0,0,1,8.57-10.477,4.326,4.326,0,0,1,9.961-7.516H7.617A2.376,2.376,0,0,0,7-9.113a2.271,2.271,0,0,0-1.605-.5,1.991,1.991,0,0,0-1.754.84,4.707,4.707,0,0,0-.6,2.605V-5.3a5.038,5.038,0,0,0,.559,2.7,1.954,1.954,0,0,0,1.762.852,2.314,2.314,0,0,0,1.621-.5A2.241,2.241,0,0,0,7.6-3.789ZM13.719,0H11.453V-12h2.266Zm6.758,0a2.507,2.507,0,0,1-.227-.758,2.732,2.732,0,0,1-2.133.914,3,3,0,0,1-2.059-.719,2.312,2.312,0,0,1-.816-1.812,2.389,2.389,0,0,1,1-2.062,4.915,4.915,0,0,1,2.879-.727h1.039v-.484a1.393,1.393,0,0,0-.3-.937,1.183,1.183,0,0,0-.949-.352,1.345,1.345,0,0,0-.895.273.929.929,0,0,0-.324.75H15.43a2.268,2.268,0,0,1,.453-1.359,3,3,0,0,1,1.281-.98,4.669,4.669,0,0,1,1.859-.355,3.689,3.689,0,0,1,2.48.785,2.747,2.747,0,0,1,.918,2.207v3.664a4.041,4.041,0,0,0,.336,1.82V0ZM18.609-1.57a1.945,1.945,0,0,0,.922-.223,1.462,1.462,0,0,0,.625-.6V-3.844h-.844q-1.7,0-1.8,1.172l-.008.133a.9.9,0,0,0,.3.7A1.153,1.153,0,0,0,18.609-1.57Zm10.125-.766a.727.727,0,0,0-.41-.652,4.659,4.659,0,0,0-1.316-.426q-3.016-.633-3.016-2.562a2.323,2.323,0,0,1,.934-1.879,3.766,3.766,0,0,1,2.441-.754,4.053,4.053,0,0,1,2.574.758,2.388,2.388,0,0,1,.965,1.969H28.648a1.092,1.092,0,0,0-.312-.8A1.322,1.322,0,0,0,27.359-7a1.351,1.351,0,0,0-.883.258.814.814,0,0,0-.312.656.7.7,0,0,0,.355.605,3.657,3.657,0,0,0,1.2.4,9.8,9.8,0,0,1,1.422.379A2.336,2.336,0,0,1,30.93-2.43a2.2,2.2,0,0,1-.992,1.871,4.28,4.28,0,0,1-2.562.715,4.47,4.47,0,0,1-1.887-.379A3.166,3.166,0,0,1,24.2-1.262a2.414,2.414,0,0,1-.469-1.426h2.141a1.179,1.179,0,0,0,.445.922,1.766,1.766,0,0,0,1.109.32,1.635,1.635,0,0,0,.98-.246A.766.766,0,0,0,28.734-2.336ZM34.766,0H32.5V-8.453h2.266Zm-2.4-10.641a1.112,1.112,0,0,1,.34-.836,1.277,1.277,0,0,1,.926-.328,1.28,1.28,0,0,1,.922.328,1.105,1.105,0,0,1,.344.836,1.108,1.108,0,0,1-.348.844,1.283,1.283,0,0,1-.918.328,1.283,1.283,0,0,1-.918-.328A1.108,1.108,0,0,1,32.367-10.641ZM37.172,0V-6.8H35.914V-8.453h1.258v-.391a3.17,3.17,0,0,1,.98-2.457,3.945,3.945,0,0,1,2.723-.863,9.031,9.031,0,0,1,2.563.461l-.328,1.867a10,10,0,0,0-1.187-.293,5.835,5.835,0,0,0-.906-.066q-1.578,0-1.578,1.4v.344H41.1V-6.8H39.438V0Zm7.32,0H42.227V-8.453h2.266Zm5.383-1.664a1.481,1.481,0,0,0,1.016-.344,1.2,1.2,0,0,0,.406-.914h2.117a2.9,2.9,0,0,1-.469,1.574A3.093,3.093,0,0,1,51.684-.238a3.949,3.949,0,0,1-1.77.395A3.67,3.67,0,0,1,47.055-1,4.56,4.56,0,0,1,46.008-4.18v-.148a4.508,4.508,0,0,1,1.039-3.117A3.627,3.627,0,0,1,49.9-8.609a3.555,3.555,0,0,1,2.543.9,3.2,3.2,0,0,1,.973,2.4H51.3a1.551,1.551,0,0,0-.406-1.072,1.354,1.354,0,0,0-1.031-.412,1.36,1.36,0,0,0-1.191.575,3.333,3.333,0,0,0-.4,1.866v.235a3.375,3.375,0,0,0,.4,1.878A1.377,1.377,0,0,0,49.875-1.664ZM59.6,0a2.507,2.507,0,0,1-.227-.758,2.732,2.732,0,0,1-2.133.914,3,3,0,0,1-2.059-.719,2.312,2.312,0,0,1-.816-1.812,2.389,2.389,0,0,1,1-2.062,4.915,4.915,0,0,1,2.879-.727h1.039v-.484a1.393,1.393,0,0,0-.3-.937,1.183,1.183,0,0,0-.949-.352,1.345,1.345,0,0,0-.895.273.929.929,0,0,0-.324.75H54.555a2.268,2.268,0,0,1,.453-1.359,3,3,0,0,1,1.281-.98,4.669,4.669,0,0,1,1.859-.355,3.689,3.689,0,0,1,2.48.785,2.747,2.747,0,0,1,.918,2.207v3.664a4.041,4.041,0,0,0,.336,1.82V0ZM57.734-1.57a1.945,1.945,0,0,0,.922-.223,1.462,1.462,0,0,0,.625-.6V-3.844h-.844q-1.7,0-1.8,1.172l-.008.133a.9.9,0,0,0,.3.7A1.153,1.153,0,0,0,57.734-1.57ZM66.8-1.664a1.481,1.481,0,0,0,1.016-.344,1.2,1.2,0,0,0,.406-.914h2.117a2.9,2.9,0,0,1-.469,1.574A3.093,3.093,0,0,1,68.605-.238a3.949,3.949,0,0,1-1.77.395A3.67,3.67,0,0,1,63.977-1,4.56,4.56,0,0,1,62.93-4.18v-.148a4.508,4.508,0,0,1,1.039-3.117A3.627,3.627,0,0,1,66.82-8.609a3.555,3.555,0,0,1,2.543.9,3.2,3.2,0,0,1,.973,2.4H68.219a1.551,1.551,0,0,0-.406-1.072,1.354,1.354,0,0,0-1.031-.412,1.36,1.36,0,0,0-1.191.575,3.333,3.333,0,0,0-.4,1.866v.235a3.375,3.375,0,0,0,.4,1.878A1.377,1.377,0,0,0,66.8-1.664ZM74.008,0H71.742V-8.453h2.266Zm-2.4-10.641a1.112,1.112,0,0,1,.34-.836,1.277,1.277,0,0,1,.926-.328,1.28,1.28,0,0,1,.922.328,1.105,1.105,0,0,1,.344.836,1.108,1.108,0,0,1-.348.844,1.283,1.283,0,0,1-.918.328,1.283,1.283,0,0,1-.918-.328A1.108,1.108,0,0,1,71.609-10.641ZM75.516-4.3A5.013,5.013,0,0,1,76-6.547,3.546,3.546,0,0,1,77.395-8.07a4.069,4.069,0,0,1,2.113-.539A3.849,3.849,0,0,1,82.3-7.562a4.2,4.2,0,0,1,1.207,2.844l.016.578A4.418,4.418,0,0,1,82.438-1.02,3.775,3.775,0,0,1,79.523.156a3.793,3.793,0,0,1-2.918-1.172A4.5,4.5,0,0,1,75.516-4.2Zm2.258.16A3.16,3.16,0,0,0,78.227-2.3a1.5,1.5,0,0,0,1.3.638,1.5,1.5,0,0,0,1.281-.63,3.457,3.457,0,0,0,.461-2.015A3.128,3.128,0,0,0,80.8-6.14a1.5,1.5,0,0,0-1.3-.649,1.474,1.474,0,0,0-1.281.646A3.516,3.516,0,0,0,77.773-4.144ZM79.953-12h2.461L80.25-9.578H78.414Zm7.039,3.547.07.977a2.951,2.951,0,0,1,2.43-1.133,2.453,2.453,0,0,1,2,.789,3.682,3.682,0,0,1,.672,2.359V0H89.906V-5.406a1.465,1.465,0,0,0-.312-1.043,1.4,1.4,0,0,0-1.039-.324,1.553,1.553,0,0,0-1.43.813V0H84.867V-8.453ZM97.508-4.289a5.094,5.094,0,0,1,.887-3.148,2.877,2.877,0,0,1,2.426-1.172,2.589,2.589,0,0,1,2.039.922V-12h2.266V0h-2.039l-.109-.9A2.657,2.657,0,0,1,100.8.156,2.869,2.869,0,0,1,98.41-1.02,5.258,5.258,0,0,1,97.508-4.289Zm2.258.168A3.337,3.337,0,0,0,100.18-2.3a1.349,1.349,0,0,0,1.2.634,1.511,1.511,0,0,0,1.477-.884V-5.889a1.489,1.489,0,0,0-1.461-.884Q99.766-6.773,99.766-4.121Zm11,4.277a4.15,4.15,0,0,1-3.027-1.141,4.054,4.054,0,0,1-1.168-3.039v-.219a5.106,5.106,0,0,1,.492-2.277,3.612,3.612,0,0,1,1.395-1.547,3.914,3.914,0,0,1,2.059-.543,3.508,3.508,0,0,1,2.73,1.094,4.444,4.444,0,0,1,1,3.1v.922h-5.383a2.1,2.1,0,0,0,.66,1.328,2,2,0,0,0,1.395.5,2.437,2.437,0,0,0,2.039-.945l1.109,1.242a3.389,3.389,0,0,1-1.375,1.121A4.511,4.511,0,0,1,110.766.156Zm-.258-6.945a1.411,1.411,0,0,0-1.09.455,2.357,2.357,0,0,0-.535,1.3h3.141v-.181a1.681,1.681,0,0,0-.406-1.165A1.456,1.456,0,0,0,110.508-6.789Z" transform="translate(1177.334 3415.211)" fill="#12263f"/>
      <path id="Trazado_279894" data-name="Trazado 279894" d="M3.25,0H.984V-12H3.25ZM4.758-4.3a5.013,5.013,0,0,1,.484-2.242A3.546,3.546,0,0,1,6.637-8.07,4.069,4.069,0,0,1,8.75-8.609a3.849,3.849,0,0,1,2.793,1.047A4.2,4.2,0,0,1,12.75-4.719l.016.578A4.418,4.418,0,0,1,11.68-1.02,3.775,3.775,0,0,1,8.766.156,3.793,3.793,0,0,1,5.848-1.016,4.5,4.5,0,0,1,4.758-4.2Zm2.258.16A3.16,3.16,0,0,0,7.469-2.3a1.5,1.5,0,0,0,1.3.638,1.5,1.5,0,0,0,1.281-.63,3.457,3.457,0,0,0,.461-2.015,3.128,3.128,0,0,0-.461-1.831,1.5,1.5,0,0,0-1.3-.649,1.474,1.474,0,0,0-1.281.646A3.516,3.516,0,0,0,7.016-4.144ZM18.734-2.336a.727.727,0,0,0-.41-.652,4.659,4.659,0,0,0-1.316-.426q-3.016-.633-3.016-2.562a2.323,2.323,0,0,1,.934-1.879,3.766,3.766,0,0,1,2.441-.754,4.053,4.053,0,0,1,2.574.758,2.388,2.388,0,0,1,.965,1.969H18.648a1.092,1.092,0,0,0-.312-.8A1.322,1.322,0,0,0,17.359-7a1.351,1.351,0,0,0-.883.258.814.814,0,0,0-.312.656.7.7,0,0,0,.355.605,3.657,3.657,0,0,0,1.2.4,9.8,9.8,0,0,1,1.422.379A2.336,2.336,0,0,1,20.93-2.43a2.2,2.2,0,0,1-.992,1.871,4.28,4.28,0,0,1-2.562.715,4.47,4.47,0,0,1-1.887-.379A3.166,3.166,0,0,1,14.2-1.262a2.414,2.414,0,0,1-.469-1.426h2.141a1.179,1.179,0,0,0,.445.922,1.766,1.766,0,0,0,1.109.32,1.635,1.635,0,0,0,.98-.246A.766.766,0,0,0,18.734-2.336Zm7.3-1.953a4.954,4.954,0,0,1,.926-3.133,3,3,0,0,1,2.5-1.187,2.631,2.631,0,0,1,2.164.953l.094-.8h2.047V-.281a3.613,3.613,0,0,1-.5,1.93A3.236,3.236,0,0,1,31.844,2.9a4.985,4.985,0,0,1-2.141.43,4.635,4.635,0,0,1-1.812-.371A3.217,3.217,0,0,1,26.555,2l1-1.375A2.645,2.645,0,0,0,29.6,1.57,1.936,1.936,0,0,0,31,1.09a1.8,1.8,0,0,0,.5-1.363V-.727a2.612,2.612,0,0,1-2.055.883A2.992,2.992,0,0,1,26.98-1.035a4.953,4.953,0,0,1-.941-3.16Zm2.258.168a3.085,3.085,0,0,0,.461,1.8,1.466,1.466,0,0,0,1.266.653A1.568,1.568,0,0,0,31.5-2.439V-6a1.564,1.564,0,0,0-1.461-.775,1.476,1.476,0,0,0-1.277.665A3.477,3.477,0,0,0,28.3-4.121ZM40.25-6.336a6.134,6.134,0,0,0-.812-.062,1.654,1.654,0,0,0-1.68.867V0H35.5V-8.453h2.133L37.7-7.445a2.092,2.092,0,0,1,1.883-1.164,2.366,2.366,0,0,1,.7.1ZM45.776,0a2.507,2.507,0,0,1-.227-.758,2.732,2.732,0,0,1-2.133.914,3,3,0,0,1-2.059-.719,2.312,2.312,0,0,1-.816-1.812,2.389,2.389,0,0,1,1-2.062,4.915,4.915,0,0,1,2.879-.727h1.039v-.484a1.393,1.393,0,0,0-.3-.937,1.183,1.183,0,0,0-.949-.352,1.345,1.345,0,0,0-.895.273.929.929,0,0,0-.324.75H40.729a2.268,2.268,0,0,1,.453-1.359,3,3,0,0,1,1.281-.98,4.669,4.669,0,0,1,1.859-.355,3.689,3.689,0,0,1,2.48.785,2.747,2.747,0,0,1,.918,2.207v3.664a4.041,4.041,0,0,0,.336,1.82V0ZM43.909-1.57a1.945,1.945,0,0,0,.922-.223,1.462,1.462,0,0,0,.625-.6V-3.844h-.844q-1.7,0-1.8,1.172l-.008.133a.9.9,0,0,0,.3.7A1.153,1.153,0,0,0,43.909-1.57Zm7.625-6.883.07.977a2.951,2.951,0,0,1,2.43-1.133,2.453,2.453,0,0,1,2,.789,3.682,3.682,0,0,1,.672,2.359V0H54.448V-5.406a1.465,1.465,0,0,0-.312-1.043A1.4,1.4,0,0,0,53.1-6.773a1.553,1.553,0,0,0-1.43.813V0H49.409V-8.453ZM58.065-4.3a5.013,5.013,0,0,1,.484-2.242A3.546,3.546,0,0,1,59.944-8.07a4.069,4.069,0,0,1,2.113-.539A3.849,3.849,0,0,1,64.85-7.562a4.2,4.2,0,0,1,1.207,2.844l.016.578A4.418,4.418,0,0,1,64.987-1.02,3.775,3.775,0,0,1,62.073.156a3.793,3.793,0,0,1-2.918-1.172A4.5,4.5,0,0,1,58.065-4.2Zm2.258.16A3.16,3.16,0,0,0,60.776-2.3a1.5,1.5,0,0,0,1.3.638,1.5,1.5,0,0,0,1.281-.63,3.457,3.457,0,0,0,.461-2.015,3.128,3.128,0,0,0-.461-1.831,1.5,1.5,0,0,0-1.3-.649,1.474,1.474,0,0,0-1.281.646A3.516,3.516,0,0,0,60.323-4.144ZM72.042-2.336a.727.727,0,0,0-.41-.652,4.659,4.659,0,0,0-1.316-.426Q67.3-4.047,67.3-5.977a2.323,2.323,0,0,1,.934-1.879,3.766,3.766,0,0,1,2.441-.754,4.053,4.053,0,0,1,2.574.758,2.388,2.388,0,0,1,.965,1.969H71.956a1.092,1.092,0,0,0-.312-.8A1.322,1.322,0,0,0,70.667-7a1.351,1.351,0,0,0-.883.258.814.814,0,0,0-.312.656.7.7,0,0,0,.355.605,3.657,3.657,0,0,0,1.2.4,9.8,9.8,0,0,1,1.422.379A2.336,2.336,0,0,1,74.237-2.43a2.2,2.2,0,0,1-.992,1.871,4.28,4.28,0,0,1-2.562.715A4.47,4.47,0,0,1,68.8-.223,3.166,3.166,0,0,1,67.5-1.262a2.414,2.414,0,0,1-.469-1.426h2.141a1.179,1.179,0,0,0,.445.922,1.766,1.766,0,0,0,1.109.32,1.635,1.635,0,0,0,.98-.246A.766.766,0,0,0,72.042-2.336Z" transform="translate(1197.255 3434.41)" fill="#12263f"/>
      <path id="Trazado_279895" data-name="Trazado 279895" d="M5.2-5.031A4.848,4.848,0,0,1,4.961-3.35,3.266,3.266,0,0,1,4.1-2.13a9.105,9.105,0,0,0-.844.86A2.244,2.244,0,0,0,2.918-.7,1.725,1.725,0,0,0,2.8-.064a1.075,1.075,0,0,0,1.2,1.229A1.3,1.3,0,0,0,4.965.812a1.378,1.378,0,0,0,.371-.987H7.594a3.016,3.016,0,0,1-.961,2.342,3.753,3.753,0,0,1-2.586.841,3.841,3.841,0,0,1-2.586-.794A2.825,2.825,0,0,1,.539-.05a3.486,3.486,0,0,1,1.2-2.44l.758-.727a2,2,0,0,0,.543-.735A3.223,3.223,0,0,0,3.2-5.031Zm.281-2.387a1.119,1.119,0,0,1-.359.857,1.277,1.277,0,0,1-.906.335,1.277,1.277,0,0,1-.906-.335,1.119,1.119,0,0,1-.359-.857A1.137,1.137,0,0,1,3.3-8.275a1.268,1.268,0,0,1,.918-.335,1.268,1.268,0,0,1,.918.335A1.137,1.137,0,0,1,5.484-7.418Zm9.391,4.434A1.2,1.2,0,0,0,14.406-4a6.148,6.148,0,0,0-1.687-.75,11.963,11.963,0,0,1-1.93-.777,3.153,3.153,0,0,1-1.937-2.82A2.747,2.747,0,0,1,9.371-10a3.389,3.389,0,0,1,1.492-1.129,5.616,5.616,0,0,1,2.184-.406,5.112,5.112,0,0,1,2.172.441A3.458,3.458,0,0,1,16.7-9.844a3.261,3.261,0,0,1,.527,1.828H14.883a1.534,1.534,0,0,0-.492-1.215,2.023,2.023,0,0,0-1.383-.434,2.162,2.162,0,0,0-1.336.363,1.146,1.146,0,0,0-.477.957,1.1,1.1,0,0,0,.559.93,6.311,6.311,0,0,0,1.645.7,7.106,7.106,0,0,1,2.914,1.492A2.972,2.972,0,0,1,17.227-3,2.737,2.737,0,0,1,16.109-.684,4.891,4.891,0,0,1,13.1.156a5.808,5.808,0,0,1-2.391-.48A3.783,3.783,0,0,1,9.066-1.641,3.371,3.371,0,0,1,8.5-3.578h2.352q0,1.883,2.25,1.883a2.189,2.189,0,0,0,1.3-.34A1.106,1.106,0,0,0,14.875-2.984ZM22.555.156A4.15,4.15,0,0,1,19.527-.984a4.054,4.054,0,0,1-1.168-3.039v-.219a5.106,5.106,0,0,1,.492-2.277,3.612,3.612,0,0,1,1.395-1.547A3.914,3.914,0,0,1,22.3-8.609a3.508,3.508,0,0,1,2.73,1.094,4.444,4.444,0,0,1,1,3.1v.922H20.648a2.1,2.1,0,0,0,.66,1.328,2,2,0,0,0,1.395.5,2.437,2.437,0,0,0,2.039-.945l1.109,1.242A3.389,3.389,0,0,1,24.477-.246,4.511,4.511,0,0,1,22.555.156ZM22.3-6.789a1.411,1.411,0,0,0-1.09.455,2.357,2.357,0,0,0-.535,1.3h3.141v-.181a1.681,1.681,0,0,0-.406-1.165A1.456,1.456,0,0,0,22.3-6.789Zm13.75.453a6.134,6.134,0,0,0-.812-.062,1.654,1.654,0,0,0-1.68.867V0H31.3V-8.453H33.43l.063,1.008a2.092,2.092,0,0,1,1.883-1.164,2.366,2.366,0,0,1,.7.1ZM40.715.156A4.15,4.15,0,0,1,37.688-.984,4.054,4.054,0,0,1,36.52-4.023v-.219a5.106,5.106,0,0,1,.492-2.277,3.612,3.612,0,0,1,1.395-1.547,3.914,3.914,0,0,1,2.059-.543A3.508,3.508,0,0,1,43.2-7.516a4.444,4.444,0,0,1,1,3.1v.922H38.809a2.1,2.1,0,0,0,.66,1.328,2,2,0,0,0,1.395.5A2.437,2.437,0,0,0,42.9-2.609l1.109,1.242A3.389,3.389,0,0,1,42.637-.246,4.511,4.511,0,0,1,40.715.156Zm-.258-6.945a1.411,1.411,0,0,0-1.09.455,2.357,2.357,0,0,0-.535,1.3h3.141v-.181a1.681,1.681,0,0,0-.406-1.165A1.456,1.456,0,0,0,40.457-6.789ZM45.121-4.3a5.053,5.053,0,0,1,.887-3.148,2.9,2.9,0,0,1,2.434-1.156A2.6,2.6,0,0,1,50.606-7.57l.148-.883h1.984V3.25H50.473V-.727a2.6,2.6,0,0,1-2.047.883A2.878,2.878,0,0,1,46.02-1.016,5.3,5.3,0,0,1,45.121-4.3Zm2.258.16A3.314,3.314,0,0,0,47.8-2.3a1.363,1.363,0,0,0,1.2.634,1.518,1.518,0,0,0,1.469-.829v-3.5a1.506,1.506,0,0,0-1.453-.8,1.38,1.38,0,0,0-1.211.634A3.661,3.661,0,0,0,47.379-4.144Zm12.2,3.285A2.831,2.831,0,0,1,57.262.156a2.67,2.67,0,0,1-2.074-.781,3.335,3.335,0,0,1-.73-2.289V-8.453h2.258v5.467q0,1.322,1.2,1.322a1.63,1.63,0,0,0,1.578-.8V-8.453h2.266V0H59.637ZM65.848,0H63.582V-8.453h2.266Zm-2.4-10.641a1.112,1.112,0,0,1,.34-.836,1.277,1.277,0,0,1,.926-.328,1.28,1.28,0,0,1,.922.328,1.105,1.105,0,0,1,.344.836,1.108,1.108,0,0,1-.348.844,1.283,1.283,0,0,1-.918.328A1.283,1.283,0,0,1,63.8-9.8,1.108,1.108,0,0,1,63.449-10.641ZM71.6.156A4.15,4.15,0,0,1,68.57-.984,4.054,4.054,0,0,1,67.4-4.023v-.219a5.106,5.106,0,0,1,.492-2.277,3.612,3.612,0,0,1,1.395-1.547,3.914,3.914,0,0,1,2.059-.543,3.508,3.508,0,0,1,2.73,1.094,4.444,4.444,0,0,1,1,3.1v.922H69.692a2.1,2.1,0,0,0,.66,1.328,2,2,0,0,0,1.395.5,2.437,2.437,0,0,0,2.039-.945l1.109,1.242A3.389,3.389,0,0,1,73.52-.246,4.511,4.511,0,0,1,71.6.156ZM71.34-6.789a1.411,1.411,0,0,0-1.09.455,2.357,2.357,0,0,0-.535,1.3h3.141v-.181a1.681,1.681,0,0,0-.406-1.165A1.456,1.456,0,0,0,71.34-6.789Zm9.766.453a6.134,6.134,0,0,0-.812-.062,1.654,1.654,0,0,0-1.68.867V0H76.356V-8.453h2.133l.063,1.008a2.092,2.092,0,0,1,1.883-1.164,2.366,2.366,0,0,1,.7.1ZM85.774.156A4.15,4.15,0,0,1,82.746-.984a4.054,4.054,0,0,1-1.168-3.039v-.219a5.106,5.106,0,0,1,.492-2.277,3.612,3.612,0,0,1,1.395-1.547,3.914,3.914,0,0,1,2.059-.543,3.508,3.508,0,0,1,2.73,1.094,4.444,4.444,0,0,1,1,3.1v.922H83.867a2.1,2.1,0,0,0,.66,1.328,2,2,0,0,0,1.395.5,2.437,2.437,0,0,0,2.039-.945l1.109,1.242A3.389,3.389,0,0,1,87.7-.246,4.511,4.511,0,0,1,85.774.156Zm-.258-6.945a1.411,1.411,0,0,0-1.09.455,2.357,2.357,0,0,0-.535,1.3h3.141v-.181a1.681,1.681,0,0,0-.406-1.165A1.456,1.456,0,0,0,85.516-6.789ZM96.633-8.453l.07.945a2.971,2.971,0,0,1,2.43-1.1,2.255,2.255,0,0,1,2.242,1.289,2.9,2.9,0,0,1,2.539-1.289,2.521,2.521,0,0,1,2.047.8,3.681,3.681,0,0,1,.672,2.41V0h-2.266V-5.391a1.61,1.61,0,0,0-.281-1.051,1.246,1.246,0,0,0-.992-.332,1.409,1.409,0,0,0-1.406.969L101.7,0H99.438V-5.383a1.59,1.59,0,0,0-.289-1.062,1.259,1.259,0,0,0-.984-.328,1.463,1.463,0,0,0-1.391.8V0H94.516V-8.453ZM108.016-4.3a5.013,5.013,0,0,1,.484-2.242,3.546,3.546,0,0,1,1.395-1.523,4.069,4.069,0,0,1,2.113-.539A3.849,3.849,0,0,1,114.8-7.562a4.2,4.2,0,0,1,1.207,2.844l.016.578a4.418,4.418,0,0,1-1.086,3.121A3.775,3.775,0,0,1,112.024.156a3.793,3.793,0,0,1-2.918-1.172,4.5,4.5,0,0,1-1.09-3.187Zm2.258.16a3.16,3.16,0,0,0,.453,1.843,1.5,1.5,0,0,0,1.3.638,1.5,1.5,0,0,0,1.281-.63,3.457,3.457,0,0,0,.461-2.015A3.128,3.128,0,0,0,113.3-6.14a1.5,1.5,0,0,0-1.3-.649,1.474,1.474,0,0,0-1.281.646A3.516,3.516,0,0,0,110.274-4.144ZM119.8,0h-2.266V-12H119.8Zm5.75.156A4.15,4.15,0,0,1,122.52-.984a4.054,4.054,0,0,1-1.168-3.039v-.219a5.106,5.106,0,0,1,.492-2.277,3.612,3.612,0,0,1,1.395-1.547,3.914,3.914,0,0,1,2.059-.543,3.508,3.508,0,0,1,2.73,1.094,4.444,4.444,0,0,1,1,3.1v.922h-5.383a2.1,2.1,0,0,0,.66,1.328,2,2,0,0,0,1.395.5,2.437,2.437,0,0,0,2.039-.945l1.109,1.242a3.389,3.389,0,0,1-1.375,1.121A4.511,4.511,0,0,1,125.547.156Zm-.258-6.945a1.411,1.411,0,0,0-1.09.455,2.357,2.357,0,0,0-.535,1.3H126.8v-.181a1.681,1.681,0,0,0-.406-1.165A1.456,1.456,0,0,0,125.289-6.789Zm9.766.453a6.134,6.134,0,0,0-.812-.062,1.654,1.654,0,0,0-1.68.867V0H130.3V-8.453h2.133l.063,1.008a2.092,2.092,0,0,1,1.883-1.164,2.366,2.366,0,0,1,.7.1Z" transform="translate(1166.982 3566.299)" fill="#12263f"/>
      <path id="Trazado_279896" data-name="Trazado 279896" d="M.516-4.3A5.013,5.013,0,0,1,1-6.547,3.546,3.546,0,0,1,2.395-8.07a4.069,4.069,0,0,1,2.113-.539A3.849,3.849,0,0,1,7.3-7.562,4.2,4.2,0,0,1,8.508-4.719l.016.578A4.418,4.418,0,0,1,7.438-1.02,3.775,3.775,0,0,1,4.523.156,3.793,3.793,0,0,1,1.605-1.016,4.5,4.5,0,0,1,.516-4.2Zm2.258.16A3.16,3.16,0,0,0,3.227-2.3a1.5,1.5,0,0,0,1.3.638A1.5,1.5,0,0,0,5.8-2.294a3.457,3.457,0,0,0,.461-2.015A3.128,3.128,0,0,0,5.8-6.14a1.5,1.5,0,0,0-1.3-.649,1.474,1.474,0,0,0-1.281.646A3.516,3.516,0,0,0,2.773-4.144Zm13.2-4.309.07.977a2.951,2.951,0,0,1,2.43-1.133,2.453,2.453,0,0,1,2,.789,3.682,3.682,0,0,1,.672,2.359V0H18.891V-5.406a1.465,1.465,0,0,0-.312-1.043,1.4,1.4,0,0,0-1.039-.324,1.553,1.553,0,0,0-1.43.813V0H13.852V-8.453ZM22.508-4.3a5.013,5.013,0,0,1,.484-2.242A3.546,3.546,0,0,1,24.387-8.07,4.069,4.069,0,0,1,26.5-8.609a3.849,3.849,0,0,1,2.793,1.047A4.2,4.2,0,0,1,30.5-4.719l.016.578A4.418,4.418,0,0,1,29.43-1.02,3.775,3.775,0,0,1,26.516.156,3.793,3.793,0,0,1,23.6-1.016,4.5,4.5,0,0,1,22.508-4.2Zm2.258.16A3.16,3.16,0,0,0,25.219-2.3a1.5,1.5,0,0,0,1.3.638,1.5,1.5,0,0,0,1.281-.63,3.457,3.457,0,0,0,.461-2.015A3.128,3.128,0,0,0,27.8-6.14a1.5,1.5,0,0,0-1.3-.649,1.474,1.474,0,0,0-1.281.646A3.516,3.516,0,0,0,24.766-4.144Zm8.984.66a4.7,4.7,0,0,1,.266-1.744,3.578,3.578,0,0,1,.973-1.279,4.973,4.973,0,0,0,.941-1.025,1.609,1.609,0,0,0,.234-.833q0-1.323-1.219-1.323a1.235,1.235,0,0,0-.926.356,1.4,1.4,0,0,0-.363.983H31.391a3.013,3.013,0,0,1,.965-2.338,3.756,3.756,0,0,1,2.59-.845,3.772,3.772,0,0,1,2.57.8,2.851,2.851,0,0,1,.914,2.264,2.756,2.756,0,0,1-.3,1.255A5.171,5.171,0,0,1,37.094-5.9l-.633.6a2.145,2.145,0,0,0-.68,1.337l-.031.477ZM33.523-1.09a1.137,1.137,0,0,1,.355-.86,1.266,1.266,0,0,1,.91-.339,1.266,1.266,0,0,1,.91.339,1.137,1.137,0,0,1,.355.86,1.128,1.128,0,0,1-.348.849,1.268,1.268,0,0,1-.918.335,1.268,1.268,0,0,1-.918-.335A1.128,1.128,0,0,1,33.523-1.09Z" transform="translate(1215.286 3585.499)" fill="#12263f"/>
      <g id="Grupo_261227" data-name="Grupo 261227" transform="translate(285.57 3365)" style="isolation: isolate">
        <g id="Grupo_261226" data-name="Grupo 261226">
          <g id="Grupo_261225" data-name="Grupo 261225" clip-path="url(#clip-path-14)">
            <text id="Molienda" transform="translate(703.688 212.331)" fill="#e5dbd7" font-size="16" font-family="Roboto-Bold, Roboto" font-weight="700"><tspan x="0" y="0">Molienda</tspan></text>
          </g>
        </g>
      </g>
      <path id="Trazado_279903" data-name="Trazado 279903" d="M7.859-4.93h-4.5v3.047H8.641V0H1.016V-11.375H8.625v1.9H3.359v2.711h4.5Zm4.125-3.523.07.945a2.971,2.971,0,0,1,2.43-1.1A2.255,2.255,0,0,1,16.727-7.32a2.9,2.9,0,0,1,2.539-1.289,2.521,2.521,0,0,1,2.047.8,3.681,3.681,0,0,1,.672,2.41V0H19.719V-5.391a1.61,1.61,0,0,0-.281-1.051,1.246,1.246,0,0,0-.992-.332,1.409,1.409,0,0,0-1.406.969L17.047,0H14.789V-5.383A1.59,1.59,0,0,0,14.5-6.445a1.259,1.259,0,0,0-.984-.328,1.463,1.463,0,0,0-1.391.8V0H9.867V-8.453Zm19.344,4.3a5.07,5.07,0,0,1-.887,3.129A2.843,2.843,0,0,1,28.047.156a2.633,2.633,0,0,1-2.07-.891V3.25H23.719v-11.7h2.094l.078.828a2.654,2.654,0,0,1,2.141-.984,2.862,2.862,0,0,1,2.43,1.156,5.207,5.207,0,0,1,.867,3.188ZM29.07-4.312a3.327,3.327,0,0,0-.418-1.82,1.361,1.361,0,0,0-1.215-.641,1.478,1.478,0,0,0-1.461.813V-2.5a1.5,1.5,0,0,0,1.477.836Q29.07-1.664,29.07-4.312ZM37.625,0A2.507,2.507,0,0,1,37.4-.758a2.732,2.732,0,0,1-2.133.914,3,3,0,0,1-2.059-.719,2.312,2.312,0,0,1-.816-1.812,2.389,2.389,0,0,1,1-2.062,4.915,4.915,0,0,1,2.879-.727H37.3v-.484a1.393,1.393,0,0,0-.3-.937,1.183,1.183,0,0,0-.949-.352,1.345,1.345,0,0,0-.895.273.929.929,0,0,0-.324.75H32.578a2.268,2.268,0,0,1,.453-1.359,3,3,0,0,1,1.281-.98,4.669,4.669,0,0,1,1.859-.355,3.689,3.689,0,0,1,2.48.785,2.747,2.747,0,0,1,.918,2.207v3.664a4.041,4.041,0,0,0,.336,1.82V0ZM35.758-1.57a1.945,1.945,0,0,0,.922-.223,1.462,1.462,0,0,0,.625-.6V-3.844h-.844q-1.7,0-1.8,1.172l-.008.133a.9.9,0,0,0,.3.7A1.153,1.153,0,0,0,35.758-1.57Zm5.2-2.734a5.053,5.053,0,0,1,.887-3.148,2.9,2.9,0,0,1,2.434-1.156A2.6,2.6,0,0,1,46.438-7.57l.148-.883H48.57V3.25H46.3V-.727a2.6,2.6,0,0,1-2.047.883,2.878,2.878,0,0,1-2.406-1.172A5.3,5.3,0,0,1,40.953-4.3Zm2.258.16A3.314,3.314,0,0,0,43.637-2.3a1.363,1.363,0,0,0,1.2.634A1.518,1.518,0,0,0,46.3-2.493v-3.5a1.506,1.506,0,0,0-1.453-.8,1.38,1.38,0,0,0-1.211.634A3.661,3.661,0,0,0,43.211-4.144Zm12.2,3.285A2.831,2.831,0,0,1,53.094.156,2.67,2.67,0,0,1,51.02-.625a3.335,3.335,0,0,1-.73-2.289V-8.453h2.258v5.467q0,1.322,1.2,1.322a1.63,1.63,0,0,0,1.578-.8V-8.453h2.266V0H55.469ZM63.188.156A4.15,4.15,0,0,1,60.16-.984a4.054,4.054,0,0,1-1.168-3.039v-.219a5.106,5.106,0,0,1,.492-2.277,3.612,3.612,0,0,1,1.395-1.547,3.914,3.914,0,0,1,2.059-.543,3.508,3.508,0,0,1,2.73,1.094,4.444,4.444,0,0,1,1,3.1v.922H61.281a2.1,2.1,0,0,0,.66,1.328,2,2,0,0,0,1.395.5,2.437,2.437,0,0,0,2.039-.945l1.109,1.242A3.389,3.389,0,0,1,65.109-.246,4.511,4.511,0,0,1,63.188.156ZM62.93-6.789a1.411,1.411,0,0,0-1.09.455,2.357,2.357,0,0,0-.535,1.3h3.141v-.181a1.681,1.681,0,0,0-.406-1.165A1.456,1.456,0,0,0,62.93-6.789ZM71.578-4.3a5.013,5.013,0,0,1,.484-2.242A3.546,3.546,0,0,1,73.457-8.07a4.069,4.069,0,0,1,2.113-.539,3.849,3.849,0,0,1,2.793,1.047A4.2,4.2,0,0,1,79.57-4.719l.016.578A4.418,4.418,0,0,1,78.5-1.02,3.775,3.775,0,0,1,75.586.156a3.793,3.793,0,0,1-2.918-1.172A4.5,4.5,0,0,1,71.578-4.2Zm2.258.16A3.16,3.16,0,0,0,74.289-2.3a1.5,1.5,0,0,0,1.3.638,1.5,1.5,0,0,0,1.281-.63,3.457,3.457,0,0,0,.461-2.015,3.128,3.128,0,0,0-.461-1.831,1.5,1.5,0,0,0-1.3-.649,1.474,1.474,0,0,0-1.281.646A3.516,3.516,0,0,0,73.836-4.144Z" transform="translate(982.578 3725.138)" fill="#12263f"/>
      <path id="Trazado_279904" data-name="Trazado 279904" d="M4.383-1.664A1.481,1.481,0,0,0,5.4-2.008,1.2,1.2,0,0,0,5.8-2.922H7.922a2.9,2.9,0,0,1-.469,1.574A3.093,3.093,0,0,1,6.191-.238a3.949,3.949,0,0,1-1.77.395A3.67,3.67,0,0,1,1.563-1,4.56,4.56,0,0,1,.516-4.18v-.148A4.508,4.508,0,0,1,1.555-7.445,3.627,3.627,0,0,1,4.406-8.609a3.555,3.555,0,0,1,2.543.9,3.2,3.2,0,0,1,.973,2.4H5.8A1.551,1.551,0,0,0,5.4-6.377a1.354,1.354,0,0,0-1.031-.412,1.36,1.36,0,0,0-1.191.575,3.333,3.333,0,0,0-.4,1.866v.235a3.375,3.375,0,0,0,.4,1.878A1.377,1.377,0,0,0,4.383-1.664ZM8.859-4.3a5.013,5.013,0,0,1,.484-2.242A3.546,3.546,0,0,1,10.738-8.07a4.069,4.069,0,0,1,2.113-.539,3.849,3.849,0,0,1,2.793,1.047,4.2,4.2,0,0,1,1.207,2.844l.016.578A4.418,4.418,0,0,1,15.781-1.02,3.775,3.775,0,0,1,12.867.156,3.793,3.793,0,0,1,9.949-1.016,4.5,4.5,0,0,1,8.859-4.2Zm2.258.16A3.16,3.16,0,0,0,11.57-2.3a1.5,1.5,0,0,0,1.3.638,1.5,1.5,0,0,0,1.281-.63,3.457,3.457,0,0,0,.461-2.015,3.128,3.128,0,0,0-.461-1.831,1.5,1.5,0,0,0-1.3-.649,1.474,1.474,0,0,0-1.281.646A3.516,3.516,0,0,0,11.117-4.144Zm9.219-4.309.07.977a2.951,2.951,0,0,1,2.43-1.133,2.453,2.453,0,0,1,2,.789,3.682,3.682,0,0,1,.672,2.359V0H23.25V-5.406a1.465,1.465,0,0,0-.312-1.043A1.4,1.4,0,0,0,21.9-6.773a1.553,1.553,0,0,0-1.43.813V0H18.211V-8.453ZM31.8-2.336a.727.727,0,0,0-.41-.652,4.659,4.659,0,0,0-1.316-.426q-3.016-.633-3.016-2.562a2.323,2.323,0,0,1,.934-1.879,3.766,3.766,0,0,1,2.441-.754A4.053,4.053,0,0,1,33-7.852a2.388,2.388,0,0,1,.965,1.969H31.711a1.092,1.092,0,0,0-.312-.8A1.322,1.322,0,0,0,30.422-7a1.351,1.351,0,0,0-.883.258.814.814,0,0,0-.312.656.7.7,0,0,0,.355.605,3.657,3.657,0,0,0,1.2.4A9.8,9.8,0,0,1,32.2-4.7,2.336,2.336,0,0,1,33.992-2.43,2.2,2.2,0,0,1,33-.559a4.28,4.28,0,0,1-2.562.715,4.47,4.47,0,0,1-1.887-.379,3.166,3.166,0,0,1-1.293-1.039,2.414,2.414,0,0,1-.469-1.426H28.93a1.179,1.179,0,0,0,.445.922,1.766,1.766,0,0,0,1.109.32,1.635,1.635,0,0,0,.98-.246A.766.766,0,0,0,31.8-2.336ZM40.508-.859A2.831,2.831,0,0,1,38.2.156a2.67,2.67,0,0,1-2.074-.781,3.335,3.335,0,0,1-.73-2.289V-8.453h2.258v5.467q0,1.322,1.2,1.322a1.63,1.63,0,0,0,1.578-.8V-8.453H42.7V0H40.57Zm6.008-7.594.07.945a2.971,2.971,0,0,1,2.43-1.1A2.255,2.255,0,0,1,51.258-7.32,2.9,2.9,0,0,1,53.8-8.609a2.521,2.521,0,0,1,2.047.8,3.681,3.681,0,0,1,.672,2.41V0H54.25V-5.391a1.61,1.61,0,0,0-.281-1.051,1.246,1.246,0,0,0-.992-.332A1.409,1.409,0,0,0,51.57-5.8L51.578,0H49.32V-5.383a1.59,1.59,0,0,0-.289-1.062,1.259,1.259,0,0,0-.984-.328,1.463,1.463,0,0,0-1.391.8V0H44.4V-8.453ZM57.9-4.3a5.013,5.013,0,0,1,.484-2.242A3.546,3.546,0,0,1,59.777-8.07a4.069,4.069,0,0,1,2.113-.539,3.849,3.849,0,0,1,2.793,1.047,4.2,4.2,0,0,1,1.207,2.844l.016.578A4.418,4.418,0,0,1,64.82-1.02,3.775,3.775,0,0,1,61.906.156a3.793,3.793,0,0,1-2.918-1.172A4.5,4.5,0,0,1,57.9-4.2Zm2.258.16A3.16,3.16,0,0,0,60.609-2.3a1.5,1.5,0,0,0,1.3.638,1.5,1.5,0,0,0,1.281-.63,3.457,3.457,0,0,0,.461-2.015,3.128,3.128,0,0,0-.461-1.831,1.5,1.5,0,0,0-1.3-.649,1.474,1.474,0,0,0-1.281.646A3.516,3.516,0,0,0,60.156-4.144Z" transform="translate(989.41 3744.338)" fill="#12263f"/>
      <g id="Grupo_261232" data-name="Grupo 261232" transform="translate(285.57 3365)" opacity="0.6" style="isolation: isolate">
        <g id="Grupo_261231" data-name="Grupo 261231">
          <g id="Grupo_261230" data-name="Grupo 261230" clip-path="url(#clip-path-15)">
            <path id="Trazado_278982" data-name="Trazado 278982" d="M427.789,50.021,409.6,29.691v8.756H393.065V61.6H409.6v8.756Z" fill="#3b5620"/>
          </g>
        </g>
      </g>
      <g id="Grupo_261235" data-name="Grupo 261235" transform="translate(285.57 3365)" opacity="0.6" style="isolation: isolate">
        <g id="Grupo_261234" data-name="Grupo 261234">
          <g id="Grupo_261233" data-name="Grupo 261233" clip-path="url(#clip-path-16)">
            <path id="Trazado_278983" data-name="Trazado 278983" d="M208.658,50.021l-18.192-20.33v8.756H173.934V61.6h16.532v8.756Z" fill="#3b5620"/>
          </g>
        </g>
      </g>
      <g id="Grupo_261238" data-name="Grupo 261238" transform="translate(285.57 3365)" opacity="0.6" style="isolation: isolate">
        <g id="Grupo_261237" data-name="Grupo 261237">
          <g id="Grupo_261236" data-name="Grupo 261236" clip-path="url(#clip-path-17)">
            <path id="Trazado_278984" data-name="Trazado 278984" d="M644.919,50.021l-18.192-20.33v8.756H610.2V61.6h16.532v8.756Z" fill="#3b5620"/>
          </g>
        </g>
      </g>
      <g id="Grupo_261241" data-name="Grupo 261241" transform="translate(285.57 3365)" opacity="0.6" style="isolation: isolate">
        <g id="Grupo_261240" data-name="Grupo 261240">
          <g id="Grupo_261239" data-name="Grupo 261239" clip-path="url(#clip-path-18)">
            <path id="Trazado_278985" data-name="Trazado 278985" d="M861.049,50.021l-18.192-20.33v8.756H826.325V61.6h16.532v8.756Z" fill="#3b5620"/>
          </g>
        </g>
      </g>
      <g id="Grupo_261244" data-name="Grupo 261244" transform="translate(285.57 3365)" opacity="0.6" style="isolation: isolate">
        <g id="Grupo_261243" data-name="Grupo 261243">
          <g id="Grupo_261242" data-name="Grupo 261242" clip-path="url(#clip-path-19)">
            <path id="Trazado_278986" data-name="Trazado 278986" d="M606.193,205.114l18.192-20.33v8.756h16.532v23.148H624.385v8.756Z" fill="#3b5620"/>
          </g>
        </g>
      </g>
      <g id="Grupo_261247" data-name="Grupo 261247" transform="translate(285.57 3365)" opacity="0.6" style="isolation: isolate">
        <g id="Grupo_261246" data-name="Grupo 261246">
          <g id="Grupo_261245" data-name="Grupo 261245" clip-path="url(#clip-path-20)">
            <path id="Trazado_278987" data-name="Trazado 278987" d="M823.324,205.114l18.192-20.33v8.756h16.532v23.148H841.516v8.756Z" fill="#3b5620"/>
          </g>
        </g>
      </g>
      <g id="Grupo_261250" data-name="Grupo 261250" transform="translate(285.57 3365)" opacity="0.6" style="isolation: isolate">
        <g id="Grupo_261249" data-name="Grupo 261249">
          <g id="Grupo_261248" data-name="Grupo 261248" clip-path="url(#clip-path-21)">
            <path id="Trazado_278988" data-name="Trazado 278988" d="M950.67,148.85l-20.33-18.192H939.1V114.126h23.148v16.532H971Z" fill="#3b5620"/>
          </g>
        </g>
      </g>
      <g id="Grupo_261253" data-name="Grupo 261253" transform="translate(285.57 3365)" opacity="0.6" style="isolation: isolate">
        <g id="Grupo_261252" data-name="Grupo 261252">
          <g id="Grupo_261251" data-name="Grupo 261251" clip-path="url(#clip-path-22)">
            <path id="Trazado_278989" data-name="Trazado 278989" d="M390.064,205.114l18.192-20.33v8.756h16.532v23.148H408.256v8.756Z" fill="#3b5620"/>
          </g>
        </g>
      </g>
      <g id="Grupo_261256" data-name="Grupo 261256" transform="translate(285.57 3365)" opacity="0.6" style="isolation: isolate">
        <g id="Grupo_261255" data-name="Grupo 261255">
          <g id="Grupo_261254" data-name="Grupo 261254" clip-path="url(#clip-path-23)">
            <path id="Trazado_278990" data-name="Trazado 278990" d="M173.934,205.114l18.192-20.33v8.756h16.532v23.148H192.126v8.756Z" fill="#3b5620"/>
          </g>
        </g>
      </g>
      <g id="Grupo_261259" data-name="Grupo 261259" transform="translate(285.57 3365)" opacity="0.6" style="isolation: isolate">
        <g id="Grupo_261258" data-name="Grupo 261258">
          <g id="Grupo_261257" data-name="Grupo 261257" clip-path="url(#clip-path-24)">
            <path id="Trazado_278991" data-name="Trazado 278991" d="M81.67,302.173,61.34,283.981H70.1V267.449H93.244v16.531H102Z" fill="#3b5620"/>
          </g>
        </g>
      </g>
      <g id="Grupo_261262" data-name="Grupo 261262" transform="translate(285.57 3365)" opacity="0.6" style="isolation: isolate">
        <g id="Grupo_261261" data-name="Grupo 261261">
          <g id="Grupo_261260" data-name="Grupo 261260" clip-path="url(#clip-path-25)">
            <path id="Trazado_278992" data-name="Trazado 278992" d="M427.789,360.207,409.6,339.877v8.756H393.065v23.148H409.6v8.756Z" fill="#3b5620"/>
          </g>
        </g>
      </g>
      <g id="Grupo_261265" data-name="Grupo 261265" transform="translate(285.57 3365)" opacity="0.6" style="isolation: isolate">
        <g id="Grupo_261264" data-name="Grupo 261264">
          <g id="Grupo_261263" data-name="Grupo 261263" clip-path="url(#clip-path-26)">
            <path id="Trazado_278993" data-name="Trazado 278993" d="M208.658,360.207l-18.192-20.33v8.756H173.934v23.148h16.532v8.756Z" fill="#3b5620"/>
          </g>
        </g>
      </g>
      <g id="Grupo_261268" data-name="Grupo 261268" transform="translate(285.57 3365)" opacity="0.6" style="isolation: isolate">
        <g id="Grupo_261267" data-name="Grupo 261267">
          <g id="Grupo_261266" data-name="Grupo 261266" clip-path="url(#clip-path-27)">
            <path id="Trazado_278994" data-name="Trazado 278994" d="M644.919,360.207l-18.192-20.33v8.756H610.2v23.148h16.532v8.756Z" fill="#3b5620"/>
          </g>
        </g>
      </g>
    </g>
  </g>
</svg>
