<svg xmlns="http://www.w3.org/2000/svg" xmlns:xlink="http://www.w3.org/1999/xlink" width="81.815" height="87.63" viewBox="0 0 81.815 87.63">
  <defs>
    <clipPath id="clip-path">
      <rect id="Rectángulo_324907" data-name="Rectángulo 324907" width="81.815" height="87.63" fill="none"/>
    </clipPath>
  </defs>
  <g id="Grupo_261793" data-name="Grupo 261793" transform="translate(-325 -4833.085)">
    <g id="Grupo_260495" data-name="Grupo 260495" transform="translate(325 4833.085)">
      <g id="Grupo_260494" data-name="Grupo 260494" clip-path="url(#clip-path)">
        <path id="Trazado_277920" data-name="Trazado 277920" d="M6.257,46.311c.019-4.035,0-8.071.07-12.105a9.01,9.01,0,0,1,3.921-7.349c3.662-2.69,7.56-2.657,11.444-.5a8.924,8.924,0,0,1,4.66,7.365c.305,3.865.17,7.764.223,11.649.006.424,0,.848,0,1.067,1.19.348,2.2.687,3.241.919a1.556,1.556,0,0,0,.942-.326c1.217-.729,2.437-1.457,3.606-2.259a1.419,1.419,0,0,0,.5-1.007c.046-2.126.018-4.252.025-6.379,0-1.336.367-1.686,1.733-1.7.935-.007,1.87,0,2.938,0V30.956l-.176-.184c-1.748,0-3.58-.4-5.1.833a11.446,11.446,0,0,0-1.6,1.773c-.5.615-.983,1.2-1.84.623a1.246,1.246,0,0,1-.338-1.922,7.465,7.465,0,0,1,6.432-3.954c2.483-.063,4.968-.013,7.453-.017.838,0,1.455.212,1.5,1.222.032.813-.276,1.211-1.111,1.2-.9-.018-1.8,0-2.608,0,0,1.761.055,3.216-.027,4.664-.032.571.077.754.618.747.9-.012,1.8.032,2.7-.012,1.022-.05,1.442.449,1.443,1.409,0,2.125.021,4.25-.011,6.374a1.184,1.184,0,0,0,.914,1.374A18.861,18.861,0,0,1,50.487,46.7c.211.123.679.186.771.072,1.381-1.734,2.775-3.464,4.036-5.285a6.379,6.379,0,0,0,.733-2.262c.188-.863.539-1.447,1.527-1.381,1.179.019,1.237.89,1.078,1.663a12.654,12.654,0,0,1-3.176,6.448,40.557,40.557,0,0,0-3.093,3.666c-1.889,2.5-1.536,5.422-1.494,8.377a24.836,24.836,0,0,1,2.622.016,4,4,0,0,0,3.965-1.644,9.04,9.04,0,0,1,8.594-3.1,9.155,9.155,0,0,1,6.3,3.624,2.248,2.248,0,0,0,2.507,1.067H78.5c.156-3.381.2-6.651-2.166-9.351-.918-1.049-1.909-2.035-2.8-3.1a9.9,9.9,0,0,1-2.537-5.146c-.284-2.47-.343-4.969-.442-7.457-.059-1.5-.011-2.995-.011-4.552H58.991c0,1.45-.011,2.923,0,4.4a1.524,1.524,0,0,1-1.414,1.7c-.783-.029-1.142-.418-1.14-1.218q.015-7.139,0-14.277c0-.954.571-1.313,1.388-1.409a12.638,12.638,0,0,1,1.434-.01V10.709l-3.1-.99c-.777,2.464-1.384,4.868-2.294,7.151A15.265,15.265,0,0,1,48.7,23.243c-.66.505-1.38.627-1.939-.18a1.224,1.224,0,0,1,.322-1.854,13.67,13.67,0,0,0,5.064-6.76c.592-1.777.911-3.644,1.381-5.588-.9-.317-1.645-.58-2.387-.839-3.087-1.08-4.071-3.951-2.217-6.535A3.629,3.629,0,0,1,51.838.053c2.556-.1,5.117-.032,7.676-.035a1.472,1.472,0,0,1,1.557,1.293,1.671,1.671,0,0,1-1.891,1.3c-2.3-.029-4.6-.021-6.9,0-1.217.009-1.888.606-1.585,1.653a2.564,2.564,0,0,0,1.48,1.356c2.6.948,5.249,1.767,7.881,2.632,1.552.51,1.826.885,1.826,2.52q0,3.382,0,6.758h5.776V11.7l.933-1.291,6.919-.01H79.12a2.091,2.091,0,0,0-.712-2.216,28.3,28.3,0,0,1-3.774-3.833A4.314,4.314,0,0,0,70.1,2.6c-.071.01-.141.024-.212.036-1.4-.013-2.8-.058-4.2-.028a1.267,1.267,0,0,1-1.465-1.294c.045-.955.678-1.277,1.5-1.285C68.2,0,70.687-.015,73.168.048A2.27,2.27,0,0,1,74.533.7c2.217,2.158,4.41,4.341,6.553,6.573a2.9,2.9,0,0,1,.666,1.58,17.485,17.485,0,0,1,.022,2.7,1.329,1.329,0,0,1-1.526,1.472q-4.964.023-9.928.029l-.181.171c-.012,1.225,0,2.45-.047,3.673-.026.661.218.868.875.88,2.006.036,2.139.2,2.142,2.236.011,6.018-.035,12.037.063,18.054a9.756,9.756,0,0,0,3,6.642c1.785,1.863,3.668,3.685,4.316,6.291a19.405,19.405,0,0,1,.651,4.487c.061,8.577.021,17.155.034,25.732a6.164,6.164,0,0,1-4.531,6.254,3.445,3.445,0,0,1-.919.157q-35.4.009-70.8-.025a4.779,4.779,0,0,1-4-2.616,5.893,5.893,0,0,1-.883-2.85q-.086-15.19-.011-30.38A5.394,5.394,0,0,1,4.738,46.74c.451-.048.894-.171,1.341-.259l.178-.17M40.68,38.336H37.522v5.129h6.751V38.336ZM8.705,43.928c-.012.679-.057,1.359-.016,2.034.011.186.277.356.426.534l11.016,0h3.816V43.686h-3.8c-3.565-.009-7.131-.023-10.7-.015a2.475,2.475,0,0,0-.746.257M66.844,20.2H59.08v5.366H70.458V20.2ZM23.982,40.693c-.055-2.361.073-4.744-.208-7.077a7.045,7.045,0,0,0-7.1-6.089A6.741,6.741,0,0,0,9.2,32.666c-.541,2.721-.323,5.594-.447,8.553l3.419-.342c0-1.891-.005-3.687,0-5.482.005-1.425.316-1.735,1.776-1.745,1.62-.012,3.241-.024,4.86.01a6.979,6.979,0,0,1,1.325.284,5.717,5.717,0,0,1,.506,1.537c.062,1.852.024,3.707.024,5.72l3.148-.326.165-.18M48.491,51.727c.285-.7.6-1.393.831-2.113a.842.842,0,0,0-.271-.7,10.453,10.453,0,0,0-5.977-2.619,40.156,40.156,0,0,0-5.273.073,9.258,9.258,0,0,0-5.494,2.809l.537,5.041c5.034-3.653,10.157-3.587,15.38-.4l.268-2.087M39.213,78.114a5.825,5.825,0,0,1-.932.856c-.786.461-1.492.014-2.171-.339-1.062-.552-2.1-1.142-3.2-1.739-.153,2.814.445,5.587-1.013,8.071H49.211c-1.62-2.473-.517-5.18-1-7.679-1.2.558-2.356,1.051-3.469,1.631a1.528,1.528,0,0,1-2.324-.6c-.086-.968.4-1.4,1.284-1.778a28.069,28.069,0,0,0,3.766-2.089,1.925,1.925,0,0,0,.877-1.815c-.054-4.5-.075-9,.005-13.5a3.063,3.063,0,0,0-1.351-2.975,9.919,9.919,0,0,0-5.441-2.019,8.949,8.949,0,0,0-6.5,1.7c-1.341.982-2.326,2.051-2.228,4.038.2,4.061.023,8.14.1,12.21a2.729,2.729,0,0,0,.83,1.934c1.424,1.046,3.018,1.857,4.525,2.795a6.539,6.539,0,0,1,.934.865q0,.219,0,.437M50.9,74.441c-.006,2.63-.026,5.26-.014,7.89a3.049,3.049,0,0,0,2.674,2.7c6.736.018,13.473-.007,20.21-.017,2.793.308,4.083-.35,4.753-2.8v-8c-1.658,0-3.271-.02-4.883.021a1.215,1.215,0,0,0-.716.462c-1.895,2.182-4.019,3.889-7.047,4.3-3.73.508-6.517-.978-8.875-3.679-.384-.44-.91-1.007-1.409-1.049-1.5-.125-3.014-.019-4.524,0l-.169.173M30.275,57.128c.012-1.548.06-3.1.027-4.643a3.377,3.377,0,0,0-3.34-3.362q-10.64-.043-21.28,0a2.993,2.993,0,0,0-3.017,2.522c-.144,1.848-.035,3.716-.035,5.609a3.344,3.344,0,0,0,.453.065q13.5-.01,27-.025l.189-.17m-3.647,2.825c-.179-.015-.357-.044-.536-.044q-11.4,0-22.794,0a6.31,6.31,0,0,0-.705.076V74.259H3.7c3.1,0,6.194.015,9.29-.009,1.051-.008,1.729.337,1.784,1.482a1.515,1.515,0,0,1-1.71,1.115c-3.061-.035-6.123-.013-9.185-.013H2.582c0,1.874-.054,3.6.016,5.326a3.1,3.1,0,0,0,3.089,2.887q10.59.012,21.18,0a3.037,3.037,0,0,0,3.2-2.446,49.853,49.853,0,0,0,.215-5.57l-.19-.17c-3.477-.01-6.955-.049-10.431-.013a1.476,1.476,0,0,1-1.712-1.335c.16-.941.75-1.269,1.662-1.265,2.341.01,4.682-.023,7.023-.039h3.615V59.953H26.628m48.226.885c-1.937.257-3.111-.58-4.32-2.166-2.063-2.707-4.553-3.36-7.87-2.618a7.138,7.138,0,0,0-4.486,3.5,2.1,2.1,0,0,1-2.04,1.095c-1.713-.08-3.432-.022-5.188-.022V71.57a35.329,35.329,0,0,0,4.148-.032c1.715-.207,2.711.54,3.7,1.848,3.22,4.275,8.109,4.23,11.336.544,1.478-1.689,2.767-2.646,4.938-2.338l3.479-.2V60.837ZM14.776,41.121c.893,0,1.748.045,2.592-.026.264-.022.708-.346.717-.547.063-1.417.033-2.837.033-4.273H14.776Z" transform="translate(0 0)" fill="#010101"/>
        <path id="Trazado_277921" data-name="Trazado 277921" d="M241.773,137.232a1.524,1.524,0,0,0,1.414-1.7c-.014-1.473,0-2.945,0-4.4h7.87c0,2.92-.03,5.84.012,8.758a12.835,12.835,0,0,0,.348,2.763,13.053,13.053,0,0,0,3.64,6.246c1.892,1.9,3.627,3.957,3.894,6.771.16,1.678.078,3.38.106,5.071a2.248,2.248,0,0,1-2.507-1.067,9.154,9.154,0,0,0-6.3-3.624,9.039,9.039,0,0,0-8.594,3.1,4,4,0,0,1-3.965,1.644,24.836,24.836,0,0,0-2.622-.016c-.041-2.955-.394-5.878,1.494-8.377a40.6,40.6,0,0,1,3.094-3.666,12.658,12.658,0,0,0,3.176-6.448c.159-.773.1-1.644-1.079-1.663q.013-1.694.026-3.389" transform="translate(-184.193 -102.778)" fill="#9dc6fb"/>
        <path id="Trazado_277922" data-name="Trazado 277922" d="M247.708,6.063a1.267,1.267,0,0,0,1.465,1.294c1.4-.03,2.8.015,4.2.028,1.452,1.484,2.856,3.019,4.374,4.433a3.3,3.3,0,0,1,1.237,3.121c-1.934,0-3.868-.011-5.8.01a6.287,6.287,0,0,0-1.113.209l-.933,1.29c-.753,0-1.507.04-2.258,0-1.038-.059-1.4.416-1.373,1.417.046,1.468.011,2.939.011,4.409h-2.155q0-3.375,0-6.759c0-1.634-.274-2.009-1.826-2.52-2.632-.864-5.28-1.684-7.881-2.632a2.562,2.562,0,0,1-1.48-1.356c-.3-1.047.368-1.644,1.584-1.653,2.3-.018,4.6-.026,6.9,0a1.67,1.67,0,0,0,1.891-1.3l3.154,0" transform="translate(-183.483 -4.75)" fill="#cbe2fe"/>
        <path id="Trazado_277923" data-name="Trazado 277923" d="M324.367,60.5l.181-.171-.181.171" transform="translate(-254.229 -47.286)" fill="#e0e1e2"/>
        <path id="Trazado_277924" data-name="Trazado 277924" d="M182.148,142.308l.176.184-.176-.184" transform="translate(-142.762 -111.537)" fill="#e0e1e2"/>
        <path id="Trazado_277925" data-name="Trazado 277925" d="M28.289,214.174l-.179.17.179-.17" transform="translate(-22.032 -167.863)" fill="#e0e1e2"/>
        <path id="Trazado_277926" data-name="Trazado 277926" d="M259.741,273.734c-2.171-.308-3.46.649-4.938,2.338-3.227,3.687-8.116,3.731-11.335-.544-.985-1.307-1.982-2.054-3.7-1.848a35.333,35.333,0,0,1-4.148.032V262.77c1.755,0,3.475-.057,5.188.022a2.1,2.1,0,0,0,2.04-1.1,7.139,7.139,0,0,1,4.486-3.5c3.318-.743,5.808-.089,7.87,2.618,1.209,1.586,2.383,2.423,4.32,2.166,0,2.911-.006,5.823.018,8.734.006.674.127,1.346.195,2.019m-10.478-9.215v.006c.932,0,1.868.051,2.8-.016.711-.052,1.252-.321,1.227-1.252a1.132,1.132,0,0,0-1.236-1.276c-1.792-.032-3.586-.006-5.378.013a1.254,1.254,0,0,0-1.353,1.333,1.229,1.229,0,0,0,1.364,1.2c.86-.024,1.721-.005,2.581-.005m.05,4.974v.009c.937,0,1.875.019,2.811-.006.772-.021,1.146-.4,1.157-1.228s-.354-1.261-1.111-1.277c-1.873-.041-3.752-.092-5.616.045a1.767,1.767,0,0,0-1.212,1.2,1.159,1.159,0,0,0,1.268,1.262c.9-.005,1.8,0,2.7,0m.064,4.991v.005c.9,0,1.8.016,2.7,0,.826-.019,1.212-.422,1.2-1.3a1.069,1.069,0,0,0-1.174-1.216c-1.8-.029-3.6,0-5.4-.011a1.251,1.251,0,0,0-1.384,1.305,1.236,1.236,0,0,0,1.357,1.222c.9-.014,1.8,0,2.7,0" transform="translate(-184.674 -202.143)" fill="#739ad6"/>
        <path id="Trazado_277927" data-name="Trazado 277927" d="M158.18,273.664a6.518,6.518,0,0,0-.934-.865c-1.506-.937-3.1-1.748-4.524-2.795a2.727,2.727,0,0,1-.83-1.934c-.075-4.07.1-8.148-.1-12.21-.1-1.987.887-3.056,2.228-4.038a8.95,8.95,0,0,1,6.5-1.7,27,27,0,0,1,3.634,3.463,12.866,12.866,0,0,1,2.132,11.219c-1.133,4.307-3.7,7.471-8.107,8.86" transform="translate(-118.966 -195.986)" fill="#ccf49f"/>
        <path id="Trazado_277928" data-name="Trazado 277928" d="M39.562,350.754a49.9,49.9,0,0,1-.215,5.57,3.037,3.037,0,0,1-3.2,2.446q-10.59.007-21.179,0a3.1,3.1,0,0,1-3.089-2.887c-.07-1.723-.016-3.452-.016-5.326h1.294c3.062,0,6.124-.021,9.185.013a1.515,1.515,0,0,0,1.71-1.115l3.174-.216a1.476,1.476,0,0,0,1.711,1.335c3.477-.036,6.954,0,10.431.013l.19.17" transform="translate(-9.285 -273.72)" fill="#dd636e"/>
        <path id="Trazado_277929" data-name="Trazado 277929" d="M27.342,292.66l-3.174.216c-.055-1.145-.733-1.489-1.784-1.481-3.1.024-6.194.008-9.29.008h-1.1V277.131a6.257,6.257,0,0,1,.706-.076q11.4-.006,22.794,0c.178,0,.357.029.536.044q0,1.668,0,3.336c-.431.014-.862.038-1.293.039-2.521,0-5.042-.014-7.562.009-1.337.012-2.019,1.045-1.271,1.993a2.134,2.134,0,0,0,1.486.521c2.88.056,5.761.039,8.641.046q0,1.184,0,2.368c-.431.016-.861.046-1.292.047-2.556,0-5.112-.029-7.667.035a1.73,1.73,0,0,0-1.268.691,1.425,1.425,0,0,0,.142,1.349,2.209,2.209,0,0,0,1.438.455c2.877.057,5.756.055,8.634.073q.007,1.648.015,3.3c-2.341.016-4.682.048-7.023.039-.913,0-1.5.325-1.662,1.265m-13.158-8.427a4.846,4.846,0,1,0,9.691.051,4.626,4.626,0,0,0-4.661-4.81,4.642,4.642,0,0,0-5.031,4.759" transform="translate(-9.398 -217.144)" fill="#fee07d"/>
        <path id="Trazado_277930" data-name="Trazado 277930" d="M39.477,235.285q-13.5.014-27,.025a3.415,3.415,0,0,1-.453-.065c0-1.894-.109-3.762.035-5.609a2.993,2.993,0,0,1,3.017-2.521q10.64-.04,21.28,0a3.377,3.377,0,0,1,3.34,3.362c.033,1.547-.015,3.1-.027,4.643l-.189.17" transform="translate(-9.39 -177.987)" fill="#dd636e"/>
        <path id="Trazado_277931" data-name="Trazado 277931" d="M258.22,354c-6.737.01-13.473.035-20.21.017a3.049,3.049,0,0,1-2.674-2.7c-.012-2.63.007-5.26.014-7.89l.169-.173c1.509-.016,3.026-.121,4.524,0,.5.042,1.025.608,1.409,1.048,2.357,2.7,5.144,4.187,8.875,3.679,3.028-.413,5.153-2.12,7.047-4.3a1.216,1.216,0,0,1,.716-.462c1.612-.041,3.225-.021,4.883-.021v8a5.8,5.8,0,0,1-.195-1.019c-.022-1.441-.01-2.882-.01-4.324,0-2.511,0-2.477-2.528-2.459-.8.006-.966.318-.946,1.027.04,1.44-.026,2.883.022,4.323.062,1.847.066,3.665-1.1,5.248" transform="translate(-184.446 -268.986)" fill="#9dc6fb"/>
        <path id="Trazado_277932" data-name="Trazado 277932" d="M317.168,160.742c-.027-1.691.054-3.392-.105-5.071-.267-2.814-2-4.87-3.894-6.771a13.055,13.055,0,0,1-3.64-6.246,12.86,12.86,0,0,1-.348-2.763c-.042-2.919-.013-5.839-.012-8.758h3.678c0,1.558-.049,3.057.011,4.552.1,2.489.158,4.987.442,7.457a9.894,9.894,0,0,0,2.537,5.146c.9,1.067,1.887,2.054,2.8,3.1,2.365,2.7,2.322,5.971,2.166,9.351Z" transform="translate(-242.308 -102.778)" fill="#80b4fb"/>
        <path id="Trazado_277933" data-name="Trazado 277933" d="M158.039,357.027a1.527,1.527,0,0,0,2.324.6c1.113-.58,2.272-1.073,3.47-1.631.487,2.5-.615,5.206,1,7.679H147.526c1.458-2.485.86-5.257,1.013-8.071,1.093.6,2.135,1.187,3.2,1.739.679.353,1.385.8,2.171.339a5.815,5.815,0,0,0,.932-.856l3.2.2" transform="translate(-115.626 -278.71)" fill="#78c2a4"/>
        <path id="Trazado_277934" data-name="Trazado 277934" d="M165.589,219.332l-.268,2.088c-5.223-3.185-10.346-3.251-15.38.4-.179-1.677-.341-3.2-.537-5.042a9.258,9.258,0,0,1,5.494-2.808,40.19,40.19,0,0,1,5.273-.073,2.133,2.133,0,0,0,.333.495c.815.681,1.7,1.284,2.459,2.025.931.914,1.755,1.937,2.625,2.913" transform="translate(-117.099 -167.605)" fill="#78c2a4"/>
        <path id="Trazado_277935" data-name="Trazado 277935" d="M51.877,133.494a6.958,6.958,0,0,0-1.325-.284c-1.619-.034-3.24-.022-4.86-.01-1.46.011-1.771.32-1.776,1.745-.007,1.8,0,3.591,0,5.483l-3.419.342c.124-2.959-.094-5.832.447-8.553a6.741,6.741,0,0,1,7.472-5.139c.181.208.349.429.544.621a8.334,8.334,0,0,1,2.918,5.8" transform="translate(-31.739 -99.552)" fill="#e9f5fe"/>
        <path id="Trazado_277936" data-name="Trazado 277936" d="M123.1,291.522q-.007-1.648-.015-3.3c1.557-.894,1.561-1.72.012-2.649q0-1.184,0-2.368c.62-.248,1.256-.61,1.04-1.351-.139-.48-.679-.842-1.04-1.258l0-3.336h3.616v14.259Z" transform="translate(-96.469 -217.31)" fill="#fed064"/>
        <path id="Trazado_277937" data-name="Trazado 277937" d="M80.58,133.685a8.334,8.334,0,0,0-2.918-5.8c-.2-.192-.363-.413-.544-.621a7.045,7.045,0,0,1,7.1,6.089c.281,2.334.153,4.716.208,7.077l-.165.181-3.149.326c0-2.012.038-3.868-.024-5.72a5.722,5.722,0,0,0-.507-1.537" transform="translate(-60.442 -99.742)" fill="#cbe2fe"/>
        <path id="Trazado_277938" data-name="Trazado 277938" d="M184.546,274.543l-3.2-.2q0-.218,0-.437c4.41-1.39,6.973-4.553,8.107-8.861a12.867,12.867,0,0,0-2.132-11.219,26.992,26.992,0,0,0-3.634-3.463,9.918,9.918,0,0,1,5.441,2.019,3.063,3.063,0,0,1,1.351,2.975c-.08,4.5-.06,9-.005,13.5a1.925,1.925,0,0,1-.877,1.815,28.037,28.037,0,0,1-3.767,2.089c-.882.377-1.37.81-1.284,1.778" transform="translate(-142.133 -196.225)" fill="#b2e49e"/>
        <path id="Trazado_277939" data-name="Trazado 277939" d="M281.009,98.787h-7.782V93.421h7.764q.009,2.683.018,5.366" transform="translate(-214.147 -73.22)" fill="#407093"/>
        <path id="Trazado_277940" data-name="Trazado 277940" d="M346.388,292.107c-.068-.673-.189-1.346-.195-2.019-.024-2.911-.015-5.822-.018-8.734h3.691v10.558l-3.479.2" transform="translate(-271.321 -220.516)" fill="#5582be"/>
        <path id="Trazado_277941" data-name="Trazado 277941" d="M341.181,354.723c1.162-1.584,1.158-3.4,1.1-5.248-.048-1.44.019-2.883-.022-4.323-.02-.709.144-1.022.946-1.027,2.528-.018,2.528-.051,2.528,2.459,0,1.441-.013,2.883.01,4.324a5.8,5.8,0,0,0,.195,1.019c-.67,2.446-1.96,3.1-4.753,2.8" transform="translate(-267.407 -269.711)" fill="#80b4fb"/>
        <path id="Trazado_277942" data-name="Trazado 277942" d="M51.685,204.781l-11.016,0a8.492,8.492,0,0,0-.024-1.28,9.7,9.7,0,0,0-.386-1.288,2.485,2.485,0,0,1,.746-.257c3.565-.008,7.131.006,10.7.015l-.016,2.808" transform="translate(-31.553 -158.286)" fill="#407093"/>
        <path id="Trazado_277943" data-name="Trazado 277943" d="M328.837,19.341A3.3,3.3,0,0,0,327.6,16.22c-1.517-1.414-2.921-2.949-4.373-4.434.071-.012.141-.026.212-.036a4.315,4.315,0,0,1,4.53,1.749,28.318,28.318,0,0,0,3.774,3.833,2.091,2.091,0,0,1,.712,2.216h-3.613a.905.905,0,0,0-.005-.208" transform="translate(-253.334 -9.151)" fill="#9dc6fb"/>
        <path id="Trazado_277944" data-name="Trazado 277944" d="M296.1,59.9c0-1.47.035-2.941-.011-4.409-.031-1,.335-1.476,1.373-1.417.75.043,1.5,0,2.257,0V59.9Z" transform="translate(-232.063 -42.375)" fill="#9dc6fb"/>
        <path id="Trazado_277945" data-name="Trazado 277945" d="M309.149,98.787q-.009-2.683-.018-5.366h3.614v5.366Z" transform="translate(-242.287 -73.22)" fill="#365e7d"/>
        <path id="Trazado_277946" data-name="Trazado 277946" d="M188.128,177.292h3.593v5.129h-3.594q0-2.564,0-5.129" transform="translate(-147.448 -138.956)" fill="#365e7d"/>
        <path id="Trazado_277947" data-name="Trazado 277947" d="M68.332,172.6v-4.846h3.342c0,1.436.029,2.856-.033,4.273-.009.2-.453.525-.717.547-.844.071-1.7.026-2.592.026" transform="translate(-53.556 -131.483)" fill="#e79c6d"/>
        <path id="Trazado_277948" data-name="Trazado 277948" d="M176.685,177.292q0,2.564,0,5.129h-3.157v-5.129Z" transform="translate(-136.005 -138.956)" fill="#407093"/>
        <path id="Trazado_277949" data-name="Trazado 277949" d="M204.618,219.527c-.87-.976-1.694-2-2.625-2.913-.755-.741-1.643-1.343-2.459-2.025a2.133,2.133,0,0,1-.333-.495,10.45,10.45,0,0,1,5.976,2.619.841.841,0,0,1,.271.7c-.226.72-.546,1.411-.831,2.113" transform="translate(-156.128 -167.8)" fill="#64a990"/>
        <path id="Trazado_277950" data-name="Trazado 277950" d="M93.1,204.843l.016-2.808h3.8v2.808Z" transform="translate(-72.97 -158.349)" fill="#365e7d"/>
        <path id="Trazado_277951" data-name="Trazado 277951" d="M324.113,47.111a.905.905,0,0,1,.005.208l-6.919.011a6.327,6.327,0,0,1,1.113-.209c1.934-.021,3.868-.01,5.8-.01" transform="translate(-248.611 -36.922)" fill="#e9f5fe"/>
        <path id="Trazado_277952" data-name="Trazado 277952" d="M40.14,203.155a9.71,9.71,0,0,1,.386,1.288,8.464,8.464,0,0,1,.024,1.28c-.149-.178-.415-.348-.426-.534-.041-.675,0-1.356.016-2.034" transform="translate(-31.435 -159.227)" fill="#365e7d"/>
        <path id="Trazado_277953" data-name="Trazado 277953" d="M139.139,264.368l.189-.17-.189.17" transform="translate(-109.053 -207.07)" fill="#be555e"/>
        <path id="Trazado_277954" data-name="Trazado 277954" d="M235.584,343.468l-.168.173.168-.173" transform="translate(-184.512 -269.199)" fill="#739ad6"/>
        <path id="Trazado_277955" data-name="Trazado 277955" d="M110.147,188.37l.165-.181-.165.181" transform="translate(-86.33 -147.497)" fill="#b8b9ba"/>
        <path id="Trazado_277956" data-name="Trazado 277956" d="M139.331,355.643l-.19-.17.19.17" transform="translate(-109.054 -278.609)" fill="#be555e"/>
        <path id="Trazado_277957" data-name="Trazado 277957" d="M284.4,279.211c-.861,0-1.722-.019-2.582.005a1.23,1.23,0,0,1-1.364-1.2,1.254,1.254,0,0,1,1.354-1.333c1.793-.02,3.586-.045,5.378-.013a1.132,1.132,0,0,1,1.236,1.276c.025.931-.516,1.2-1.227,1.252-.928.067-1.864.017-2.8.017v-.006" transform="translate(-219.807 -216.835)" fill="#010101"/>
        <path id="Trazado_277958" data-name="Trazado 277958" d="M284.507,302.237c-.9,0-1.8,0-2.7,0a1.159,1.159,0,0,1-1.268-1.262,1.767,1.767,0,0,1,1.212-1.2c1.864-.137,3.744-.086,5.616-.045.756.017,1.122.458,1.111,1.277s-.385,1.207-1.157,1.228c-.936.025-1.874.006-2.811.006v-.009" transform="translate(-219.869 -234.888)" fill="#010101"/>
        <path id="Trazado_277959" data-name="Trazado 277959" d="M284.515,325.391c-.9,0-1.8-.011-2.7,0a1.236,1.236,0,0,1-1.357-1.222,1.251,1.251,0,0,1,1.384-1.305c1.8.009,3.6-.017,5.4.011a1.069,1.069,0,0,1,1.174,1.216c.011.875-.376,1.278-1.2,1.3-.9.021-1.8,0-2.7,0v-.005" transform="translate(-219.813 -253.051)" fill="#010101"/>
        <path id="Trazado_277960" data-name="Trazado 277960" d="M22.133,293.013a4.642,4.642,0,0,1,5.031-4.759,4.626,4.626,0,0,1,4.661,4.81,4.846,4.846,0,1,1-9.691-.051m7.133-.038a2.046,2.046,0,0,0-2.353-2.137,2.058,2.058,0,0,0-2.194,2.206,2.472,2.472,0,0,0,2.317,2.348,2.419,2.419,0,0,0,2.23-2.416" transform="translate(-17.347 -225.925)" fill="#010101"/>
        <path id="Trazado_277961" data-name="Trazado 277961" d="M85.678,315.706c1.549.929,1.545,1.755-.012,2.649-2.878-.018-5.757-.016-8.634-.073a2.209,2.209,0,0,1-1.438-.455,1.424,1.424,0,0,1-.142-1.349,1.731,1.731,0,0,1,1.267-.691c2.554-.064,5.111-.03,7.667-.035.431,0,.861-.031,1.292-.047" transform="translate(-59.051 -247.44)" fill="#010101"/>
        <path id="Trazado_277962" data-name="Trazado 277962" d="M85.311,292.693c.36.415.9.778,1.04,1.258.216.74-.42,1.1-1.04,1.351-2.881-.008-5.762.009-8.641-.046a2.134,2.134,0,0,1-1.486-.521c-.748-.948-.066-1.981,1.271-1.993,2.521-.023,5.041,0,7.562-.009.431,0,.862-.025,1.293-.039" transform="translate(-58.685 -229.404)" fill="#010101"/>
        <path id="Trazado_277963" data-name="Trazado 277963" d="M38.639,302.337a2.419,2.419,0,0,1-2.23,2.416,2.472,2.472,0,0,1-2.317-2.348,2.058,2.058,0,0,1,2.194-2.206,2.046,2.046,0,0,1,2.353,2.137" transform="translate(-26.72 -235.287)" fill="#d94953"/>
      </g>
    </g>
  </g>
</svg>
