<svg xmlns="http://www.w3.org/2000/svg" width="148.587" height="148.586" viewBox="0 0 148.587 148.586">
  <g id="Grupo_261816" data-name="Grupo 261816" transform="translate(-308.218 -648.901)">
    <g id="Grupo_260501" data-name="Grupo 260501">
      <path id="Trazado_277843" data-name="Trazado 277843" d="M276.06,79.384A74.293,74.293,0,1,1,201.767,5.091,74.293,74.293,0,0,1,276.06,79.384" transform="translate(180.745 643.81)" fill="#dbf9bd"/>
      <path id="Trazado_277868" data-name="Trazado 277868" d="M214.111,131.6a2.849,2.849,0,0,1-.883-2.55c.391-3.951-.636-7.7-1.456-11.519-1.359-6.324.377-12,4.575-16.874,4.118-4.78,8.325-9.482,12.515-14.2a6.236,6.236,0,0,1,9.018-.688c.409.33.562.287.911-.046A3.649,3.649,0,0,0,240,82.81c-.069-6.561-.058-13.123-.02-19.684a6.289,6.289,0,0,1,3.866-6.065,6.2,6.2,0,0,1,6.847.9,6.079,6.079,0,0,1,2.377,4.855c.039,4.661.008,9.322.021,13.983a1.724,1.724,0,0,1-1.507,1.9c-1.344-.245-1.73-.7-1.731-2.092q-.008-6.638,0-13.275a3.239,3.239,0,0,0-.983-2.6,2.37,2.37,0,0,0-1.114-.8c-2.246-.934-4.544.758-4.551,3.378-.015,5.876.019,11.753-.012,17.628-.027,5.225.541,4.095-2.823,7.849a1.187,1.187,0,0,0-.378,1.043,6.224,6.224,0,0,1-1.344,4.719q-4.249,5.674-8.487,11.357c-.837,1.117-1.362,1.237-2.669.659a1.894,1.894,0,0,1,.072-2.609q4.231-5.594,8.4-11.234a3.07,3.07,0,0,0,.069-4.173c-1.462-1.566-3.331-1.533-4.818.142-4.164,4.692-8.347,9.367-12.446,14.115-3.734,4.324-5.163,9.394-3.658,14.909a35.683,35.683,0,0,1,1.359,11.32,2.958,2.958,0,0,0,.038.427,2.239,2.239,0,0,1-1.106,2.14Z" transform="translate(180.745 643.81)" fill="#030303"/>
      <path id="Trazado_277869" data-name="Trazado 277869" d="M163.3,131.6a2.213,2.213,0,0,1-1.054-2.272.762.762,0,0,0,0-.107c-.014-2.617.454-5.358-.179-7.815s-2.372-4.613-3.618-6.907c-2.1-3.861-4.391-7.626-5.58-11.917a33.384,33.384,0,0,1-1.39-8.782q-.064-15.438-.014-30.876A6.531,6.531,0,0,1,164.23,61.02a5.172,5.172,0,0,1,.308,1.465c.033,3.155.051,6.311.019,9.466a1.708,1.708,0,0,1-1.685,1.718,1.918,1.918,0,0,1-1.55-2.207c.054-2.756.036-5.515.01-8.272a3.27,3.27,0,0,0-3.409-3.453,3.233,3.233,0,0,0-3.227,3.415c-.007,10.08-.04,20.16.025,30.239a29.554,29.554,0,0,0,3.4,13.634c2.205,4.217,4.52,8.377,6.815,12.547a4.41,4.41,0,0,1,.564,2.246c-.017,2.617.016,5.234.029,7.852.094.839-.453,1.369-.93,1.933Z" transform="translate(180.745 643.81)" fill="#030303"/>
      <path id="Trazado_277870" data-name="Trazado 277870" d="M162.891,77.21c1.358.372,1.677.78,1.683,2.19.006,1.433,0,2.867,0,4.3a1.238,1.238,0,0,0,.275.994c.429.429.75,1.085,1.259,1.284s.871-.542,1.328-.827a6.363,6.363,0,0,1,8.332,1.4q5.7,6.439,11.388,12.889a24.925,24.925,0,0,1,3.928,5.48,18.648,18.648,0,0,1,1.423,13.874,30.062,30.062,0,0,0-1.188,10.258,2.993,2.993,0,0,1-.89,2.548h-1.292a2.2,2.2,0,0,1-1.1-1.939c.134-3.628-.088-7.235,1.086-10.826,2-6.114.528-11.646-3.7-16.458q-3.017-3.432-6.045-6.855c-2.041-2.31-4.061-4.639-6.135-6.919a3.069,3.069,0,0,0-5.274.759,3.288,3.288,0,0,0,.633,3.4q4.2,5.577,8.363,11.19c.744,1,.775,1.861.12,2.5-.669.659-1.57.564-2.564-.268-.195-.295-.375-.6-.586-.884q-3.972-5.325-7.955-10.641a5.516,5.516,0,0,1-1.445-3.927c.2-1.594-.684-2.412-1.643-3.3a5.248,5.248,0,0,1-1.569-4.337,28,28,0,0,0,.009-3.732,1.837,1.837,0,0,1,1.565-2.159" transform="translate(180.745 643.81)" fill="#040403"/>
      <path id="Trazado_277871" data-name="Trazado 277871" d="M251.576,82.29a1.876,1.876,0,0,1,1.518,2.134c-.109,3.834.162,7.675-.179,11.507a35.178,35.178,0,0,1-4.3,13.951c-1.929,3.512-3.839,7.034-5.783,10.538a4.061,4.061,0,0,0-.556,2.13c.039,2.259-.024,4.521.031,6.779a2.415,2.415,0,0,1-1.071,2.274h-1.292a2.534,2.534,0,0,1-.931-1.935c.014-2.578.049-5.156.028-7.733a4.738,4.738,0,0,1,.611-2.445c2.021-3.619,3.99-7.266,5.984-10.9a32.564,32.564,0,0,0,4.048-13c.32-3.72.084-7.445.16-11.167.028-1.4.333-1.79,1.73-2.134" transform="translate(180.745 643.81)" fill="#040303"/>
      <path id="Trazado_277872" data-name="Trazado 277872" d="M211.074,33.063c.275,1.191,1.25,1.97,1.771,3.016a11.173,11.173,0,0,1-3.111,2.735,2.387,2.387,0,0,0,.05,4.115,11.483,11.483,0,0,1,4.172,4.2,2.39,2.39,0,0,0,4.059.127,5.771,5.771,0,0,1,1.029-1.348,11.825,11.825,0,0,1,1.774,3.079,1.926,1.926,0,0,0-.319,2.606c1.165,2.136,2.148,4.362,3.161,6.575,3.329,7.271,3,14.393-1.168,21.155-4.742,7.69-11.738,11.627-20.861,11.575a28.609,28.609,0,0,1-7.938-5.021,24.967,24.967,0,0,1-7.159-11.533,20.9,20.9,0,0,1-.448-11.612,57.938,57.938,0,0,1,4.82-11.56,173.307,173.307,0,0,1,12.342-19.6,11.314,11.314,0,0,1,2.318-2.92q1.433,1.929,2.865,3.857c.811,1.085,1.438,1.214,2.643.556M194.718,61c-1.181-.765-1.819-.74-2.724.267-3.882,4.318-4.918,9.3-2.784,14.658a13.821,13.821,0,0,0,24.82,1.793c2.807-4.848,2.55-9.79-.429-14.539a.822.822,0,0,1,.141-1.246c1.106-1.125,2.178-2.284,3.245-3.446a1.666,1.666,0,0,0,.132-2.473,1.638,1.638,0,0,0-2.456.243c-1.07,1.11-2.129,2.231-3.162,3.376-.371.412-.611.5-1.116.123a13.577,13.577,0,0,0-10.53-2.648c-1.493.224-1.895.661-1.921,2.168A12.21,12.21,0,0,0,194.718,61" transform="translate(180.745 643.81)" fill="#a5e5ee"/>
      <path id="Trazado_277873" data-name="Trazado 277873" d="M188.035,129.665c-6.451.438-12.909.129-19.364.177,0-3.046-.033-6.094.034-9.139a6.479,6.479,0,0,0-.91-3.365c-2.358-4.253-4.84-8.442-6.933-12.834a27.98,27.98,0,0,1-2.9-11.754c-.113-11-.037-22.008-.036-33.013a3.273,3.273,0,0,1,3.41,3.454c.026,2.757.043,5.515-.011,8.272a1.916,1.916,0,0,0,1.551,2.206q.009,1.771.019,3.542a1.838,1.838,0,0,0-1.566,2.159,28,28,0,0,1-.009,3.732,5.246,5.246,0,0,0,1.57,4.337,8.447,8.447,0,0,0,1.235,7.912c2.238,2.947,4.412,5.948,6.782,8.786a4.851,4.851,0,0,0,3.612,2.059c.993.832,1.894.927,2.563.268.655-.644.624-1.507-.119-2.506q-4.173-5.6-8.363-11.189a3.285,3.285,0,0,1-.633-3.4,3.069,3.069,0,0,1,5.274-.758c2.074,2.28,4.094,4.609,6.134,6.919q3.026,3.424,6.046,6.855c4.23,4.812,5.7,10.344,3.7,16.457-1.174,3.592-.952,7.2-1.085,10.827" transform="translate(180.745 643.81)" fill="#fddece"/>
      <path id="Trazado_277874" data-name="Trazado 277874" d="M239.016,129.668c-6.3.423-12.6.135-18.892.173a26.305,26.305,0,0,0-1.157-9.511,16.974,16.974,0,0,1,2.15-14.768c2.293-3.595,5.489-6.471,8.214-9.726,1.4-1.668,2.793-3.348,4.318-4.9.787-.8,1.242-1.947,2.386-2.389a3.071,3.071,0,0,1-.071,4.174q-4.182,5.629-8.4,11.234a1.893,1.893,0,0,0-.071,2.608q-.75,1.041-1.5,2.08c-.105.144-.261.3-.093.455.078.073.263.047.4.042a8.613,8.613,0,0,0,6.755-3.793q2.805-3.712,5.594-7.437c1.462-1.963,3.24-3.754,3.517-6.379.018-.181.227-.354.373-.509,1.147-1.227,2.274-2.474,3.463-3.661a2.722,2.722,0,0,0,.852-2.1q-.036-10.323-.009-20.646a4.214,4.214,0,0,1,2.031-3.887,3.235,3.235,0,0,1,.982,2.6q-.015,6.638,0,13.275c0,1.392.388,1.847,1.73,2.093q0,1.792,0,3.586c-1.4.344-1.7.739-1.731,2.134-.075,3.722.162,7.447-.159,11.167a32.6,32.6,0,0,1-4.048,13c-1.995,3.633-3.964,7.281-5.984,10.9a4.728,4.728,0,0,0-.612,2.444c.022,2.578-.014,5.155-.026,7.733" transform="translate(180.745 643.81)" fill="#fddece"/>
      <path id="Trazado_277875" data-name="Trazado 277875" d="M205.566,28.65a11.3,11.3,0,0,0-2.319,2.92,173.519,173.519,0,0,0-12.341,19.6,57.89,57.89,0,0,0-4.821,11.561,20.889,20.889,0,0,0,.45,11.612,24.954,24.954,0,0,0,7.158,11.533A28.6,28.6,0,0,0,201.63,90.9a12.366,12.366,0,0,1-3.621-.3,23.624,23.624,0,0,1-17.543-13.365,1.846,1.846,0,0,0-2.308-1.2,15.31,15.31,0,0,1-.885-3.017,3.793,3.793,0,0,0,1.155-.923,11.312,11.312,0,0,1,3.461-3.46,2.106,2.106,0,0,0,.3-3.422,25.3,25.3,0,0,1-4.463-4.438q.546-1.488,1.091-2.976c1.3.226,1.79-.016,2.353-1.262a100.719,100.719,0,0,1,5.379-10.144,228.423,228.423,0,0,1,14.395-21c.8-1.057,1.414-1.061,2.209-.024.827,1.078,1.612,2.189,2.416,3.285" transform="translate(180.745 643.81)" fill="#6ad7e5"/>
      <path id="Trazado_277876" data-name="Trazado 277876" d="M178.157,76.03a1.849,1.849,0,0,1,2.31,1.206A23.623,23.623,0,0,0,198.009,90.6a12.363,12.363,0,0,0,3.621.3c9.124.052,16.119-3.885,20.861-11.575,4.169-6.761,4.5-13.884,1.169-21.155-1.013-2.214-2-4.439-3.161-6.576a1.926,1.926,0,0,1,.318-2.6c1.431-.365,1.884-.158,2.584,1.156a74.067,74.067,0,0,1,4.264,9.48c2.719,7.465,1.7,14.611-2.334,21.233-5.693,9.346-14.238,13.939-25.153,13.213-10.315-.688-17.839-6.042-22.564-15.257-.7-1.372-.577-1.862.543-2.781" transform="translate(180.745 643.81)" fill="#040404"/>
      <path id="Trazado_277877" data-name="Trazado 277877" d="M205.566,28.65c-.8-1.1-1.589-2.207-2.416-3.285-.795-1.037-1.406-1.033-2.209.024a228.423,228.423,0,0,0-14.395,21,100.719,100.719,0,0,0-5.379,10.144c-.563,1.246-1.05,1.488-2.353,1.262-1.069-.915-1.16-1.356-.544-2.7a145.778,145.778,0,0,1,13.574-22.739c2.135-3.053,4.362-6.043,6.6-9.024a4.29,4.29,0,0,1,7.194-.051c1.846,2.423,3.618,4.9,5.437,7.344a1.779,1.779,0,0,1,0,2.44c-1.206.658-1.832.53-2.644-.555q-1.435-1.926-2.864-3.857" transform="translate(180.745 643.81)" fill="#030404"/>
      <path id="Trazado_277878" data-name="Trazado 277878" d="M219.043,45.907a5.826,5.826,0,0,0-1.029,1.348,2.39,2.39,0,0,1-4.059-.127,11.476,11.476,0,0,0-4.172-4.2,2.387,2.387,0,0,1-.05-4.115,11.191,11.191,0,0,0,3.112-2.735,4.757,4.757,0,0,0,1.032-1.346,2.409,2.409,0,0,1,4.129-.051,16.29,16.29,0,0,0,4.255,4.179,2.416,2.416,0,0,1-.076,4.191,10.182,10.182,0,0,0-3.142,2.855m.494-5.008a19.657,19.657,0,0,1-3.563-3.45,16.866,16.866,0,0,1-3.423,3.381,12.2,12.2,0,0,1,3.126,3.025c.275.4.472.459.779.035a15.257,15.257,0,0,1,3.081-2.991" transform="translate(180.745 643.81)" fill="#030404"/>
      <path id="Trazado_277879" data-name="Trazado 277879" d="M177.724,60.771a25.33,25.33,0,0,0,4.462,4.438,2.105,2.105,0,0,1-.3,3.422,11.313,11.313,0,0,0-3.462,3.459,3.777,3.777,0,0,1-1.154.924A2.633,2.633,0,0,1,174.3,71.45a6.651,6.651,0,0,0-2.637-2.59c-1.842-1.085-1.9-2.989-.128-4.2a10.184,10.184,0,0,0,2.834-2.728c.946-1.427,1.694-1.676,3.354-1.16M176.6,69c.692-.691,1.27-1.325,1.912-1.887.368-.321.244-.458-.034-.731-.637-.623-1.231-1.291-1.769-1.863l-2.326,2.257A10.942,10.942,0,0,1,176.6,69" transform="translate(180.745 643.81)" fill="#030404"/>
      <path id="Trazado_277880" data-name="Trazado 277880" d="M236.034,88.55c-1.142.442-1.6,1.589-2.385,2.389-1.524,1.549-2.92,3.228-4.318,4.9-2.725,3.255-5.921,6.13-8.215,9.726a16.979,16.979,0,0,0-2.149,14.768,26.3,26.3,0,0,1,1.157,9.51,7.755,7.755,0,0,1-3.616-.377,3.105,3.105,0,0,1-.037-.427,35.683,35.683,0,0,0-1.359-11.32c-1.505-5.515-.076-10.585,3.658-14.91,4.1-4.747,8.282-9.422,12.446-14.114,1.487-1.676,3.356-1.708,4.818-.142" transform="translate(180.745 643.81)" fill="#fccdbd"/>
      <path id="Trazado_277881" data-name="Trazado 277881" d="M248.87,60.733a4.215,4.215,0,0,0-2.032,3.887q-.012,10.323.01,20.646a2.725,2.725,0,0,1-.852,2.1c-1.189,1.187-2.316,2.434-3.464,3.661-.145.155-.355.328-.374.509-.275,2.625-2.053,4.416-3.515,6.379q-2.781,3.73-5.594,7.437a8.615,8.615,0,0,1-6.755,3.793c-.136.005-.321.031-.4-.042-.169-.159-.012-.311.093-.455.5-.692,1-1.386,1.5-2.08,1.306.578,1.832.459,2.669-.659q4.25-5.674,8.487-11.357a6.232,6.232,0,0,0,1.344-4.719,1.186,1.186,0,0,1,.377-1.042c3.365-3.755,2.8-2.625,2.824-7.849.03-5.876,0-11.752.012-17.628.006-2.621,2.3-4.312,4.55-3.379a2.374,2.374,0,0,1,1.115.8" transform="translate(180.745 643.81)" fill="#fbccbc"/>
      <path id="Trazado_277882" data-name="Trazado 277882" d="M157.923,59.737c0,11-.077,22.009.036,33.012a27.979,27.979,0,0,0,2.9,11.755c2.094,4.392,4.576,8.581,6.933,12.834a6.47,6.47,0,0,1,.911,3.364c-.067,3.046-.03,6.093-.034,9.14a12.117,12.117,0,0,1-3.147-.172c-.013-2.617-.046-5.234-.028-7.852a4.414,4.414,0,0,0-.565-2.246c-2.295-4.169-4.61-8.33-6.815-12.547a29.547,29.547,0,0,1-3.394-13.634c-.065-10.079-.032-20.159-.026-30.238a3.235,3.235,0,0,1,3.227-3.416" transform="translate(180.745 643.81)" fill="#fdcdbd"/>
      <path id="Trazado_277883" data-name="Trazado 277883" d="M174.516,106.195a4.852,4.852,0,0,1-3.612-2.059c-2.37-2.837-4.544-5.839-6.782-8.786a8.447,8.447,0,0,1-1.235-7.912c.959.893,1.847,1.711,1.642,3.3a5.519,5.519,0,0,0,1.446,3.928q4,5.306,7.954,10.64c.211.283.392.589.587.884" transform="translate(180.745 643.81)" fill="#fbccbc"/>
      <path id="Trazado_277884" data-name="Trazado 277884" d="M197.934,59.28c.026-1.507.428-1.945,1.922-2.169a13.581,13.581,0,0,1,10.529,2.649c.505.378.745.288,1.116-.123,1.033-1.145,2.092-2.266,3.162-3.376a1.638,1.638,0,0,1,2.456-.244,1.667,1.667,0,0,1-.132,2.474c-1.067,1.162-2.139,2.32-3.245,3.445a.822.822,0,0,0-.141,1.246c2.979,4.75,3.236,9.692.429,14.539a13.821,13.821,0,0,1-24.82-1.793c-2.134-5.358-1.1-10.34,2.784-14.657.9-1.007,1.543-1.032,2.724-.268a1.92,1.92,0,0,1-.381,2.517,10.244,10.244,0,0,0-2.9,7.08,10.619,10.619,0,1,0,20.106-4.556c-.577-1.142-.576-1.142-1.42-.242q-4.008,4.275-8.019,8.548c-.935.993-1.745,1.12-2.606.352q-1.483-1.323-2.871-2.751a1.583,1.583,0,0,1-.06-2.229,1.539,1.539,0,0,1,2.216-.128,8.117,8.117,0,0,1,1.176,1.1c.431.5.707.486,1.169-.017q3.494-3.8,7.072-7.517c.565-.584.355-.807-.185-1.154a10.346,10.346,0,0,0-7.458-1.7c-1.088.176-2.1.195-2.628-1.028" transform="translate(180.745 643.81)" fill="#030404"/>
      <path id="Trazado_277885" data-name="Trazado 277885" d="M197.934,59.28c.532,1.223,1.54,1.2,2.628,1.028a10.346,10.346,0,0,1,7.458,1.7c.54.347.75.57.185,1.154q-3.587,3.71-7.072,7.517c-.462.5-.738.518-1.169.017a8.117,8.117,0,0,0-1.176-1.1,1.539,1.539,0,0,0-2.216.128,1.583,1.583,0,0,0,.06,2.229q1.388,1.424,2.871,2.751c.861.768,1.671.641,2.606-.352q4.017-4.268,8.019-8.548c.844-.9.843-.9,1.42.242A10.621,10.621,0,1,1,191.442,70.6a10.244,10.244,0,0,1,2.9-7.08A1.92,1.92,0,0,0,194.718,61a12.207,12.207,0,0,1,3.216-1.723" transform="translate(180.745 643.81)" fill="#f4f3f4"/>
      <path id="Trazado_277886" data-name="Trazado 277886" d="M219.537,40.9a15.257,15.257,0,0,0-3.081,2.991c-.307.424-.5.361-.779-.035a12.2,12.2,0,0,0-3.126-3.025,16.866,16.866,0,0,0,3.423-3.381,19.657,19.657,0,0,0,3.563,3.45" transform="translate(180.745 643.81)" fill="#ceecef"/>
      <path id="Trazado_277887" data-name="Trazado 277887" d="M176.6,69a10.942,10.942,0,0,0-2.217-2.224l2.326-2.257c.538.572,1.132,1.24,1.769,1.863.278.273.4.41.034.731-.642.562-1.22,1.2-1.912,1.887" transform="translate(180.745 643.81)" fill="#ceecef"/>
    </g>
  </g>
</svg>
