<svg xmlns="http://www.w3.org/2000/svg" xmlns:xlink="http://www.w3.org/1999/xlink" width="70.729" height="70.717" viewBox="0 0 70.729 70.717">
  <defs>
    <clipPath id="clip-path">
      <rect id="Rectángulo_325454" data-name="Rectángulo 325454" width="70.729" height="70.717" fill="none"/>
    </clipPath>
  </defs>
  <g id="Grupo_261820" data-name="Grupo 261820" transform="translate(-303.193 -3125.811)">
    <g id="Grupo_261658" data-name="Grupo 261658" transform="translate(303.193 3125.811)">
      <g id="Grupo_261657" data-name="Grupo 261657" clip-path="url(#clip-path)">
        <path id="Trazado_279419" data-name="Trazado 279419" d="M23.962,65.229A13.168,13.168,0,0,1,14.868,70.6a12.555,12.555,0,0,1-10.533-3.45,13.116,13.116,0,0,1-1.51-17.875c.638-.8,1.462-1.456,2.151-2.224a1.076,1.076,0,0,0,.255-.873,33.373,33.373,0,0,1-1.864-9.4,33.592,33.592,0,0,1,.706-8.149,30.959,30.959,0,0,1,6.722-13.92,30.269,30.269,0,0,1,9.774-7.822A36.457,36.457,0,0,1,29.2,3.822a25.727,25.727,0,0,1,3.574-.4,18.223,18.223,0,0,1,3.453-.148c2.426.274,4.839.689,7.245,1.115.906.16,1.768.564,2.673.745A1.272,1.272,0,0,0,47.206,4.8,11.881,11.881,0,0,1,55.267.152a13.306,13.306,0,0,1,10.7,2.861,12.648,12.648,0,0,1,4.613,8.2,12.843,12.843,0,0,1-4.895,12.358.823.823,0,0,0-.2.688c.581,2.53,1.341,5.029,1.756,7.585a24.369,24.369,0,0,1-.069,7.135,34.416,34.416,0,0,1-2.155,8.43,31.555,31.555,0,0,1-4.258,7.443,32.056,32.056,0,0,1-28.248,12.43,26.118,26.118,0,0,1-8.55-2.05M45.509,7.313A29.685,29.685,0,0,0,13.674,14.78C5.34,23.547,3.7,36.208,7.436,45.492a13.38,13.38,0,0,1,9.392-.789,14.047,14.047,0,0,1,7.755,5.448,5.863,5.863,0,0,0,.66-2.392c-.136-1.58-.553-3.134-.8-4.708-.119-.766-.527-1.628.5-2.179a22.726,22.726,0,0,0,2.381-1.461,1.828,1.828,0,0,0,.6-.907c.271-.856.463-1.737.771-2.938a4.594,4.594,0,0,0-1.259.464c-.623.524-1.131,1.184-1.759,1.7a4.812,4.812,0,0,1-1.653.972c-1.224.343-2.49.545-3.744.771A5,5,0,0,1,18.6,39.6a1.17,1.17,0,0,1-.783-.811,1.47,1.47,0,0,1,.573-1.162,6.635,6.635,0,0,1,1.895-.433c2-.34,4.039-.565,5.314-2.471a9.214,9.214,0,0,1,.671-.688c.835-.995,1.173-1.186,2.677-.445a5.2,5.2,0,0,0,.518.178l.352-1.379c-.432-.089-.865-.17-1.3-.269-.54-.124-1.293-.082-1.578-.425-1.283-1.54-2.451-3.177-3.619-4.81a.939.939,0,0,1,.708-1.421,1.424,1.424,0,0,1,1.478.676c.588.809,1.206,1.6,1.758,2.433a2.354,2.354,0,0,0,2.466,1.308c.646-.086,1.153-.15,1.454-.779a1.578,1.578,0,0,1,.4-.552,1.549,1.549,0,0,0,.284-2.168c-1.932-3.615-3.9-7.21-5.854-10.816-.513-.949-1.039-1.894-1.492-2.872a1.089,1.089,0,0,1,.312-1.534,1.331,1.331,0,0,1,1.671.581q2.076,3.82,4.15,7.64c.9,1.674,1.79,3.357,2.6,4.871,1.3,0,2.447.032,3.591-.021a1.219,1.219,0,0,0,.894-.453c2.065-3.766,4.169-7.514,6.082-11.357a36.691,36.691,0,0,0,1.691-5.115M41.386,33.762c.2-.092.352-.158.5-.231a1.82,1.82,0,0,1,2.655.443c.72.724,1.427,1.462,2.174,2.157a2.172,2.172,0,0,0,.935.536c1.437.327,2.88.644,4.335.871.733.114,1.152.508,1.07,1.148a1.077,1.077,0,0,1-1.361.961c-1.207-.2-2.414-.416-3.624-.6a4.936,4.936,0,0,1-3.5-1.894c-.29-.4-.719-.686-1.034-1.066-.452-.543-.9-.665-1.389-.2a16.585,16.585,0,0,0,.492,2.268,3.04,3.04,0,0,0,.927,1.307c.707.554,1.569.912,2.268,1.475a1.634,1.634,0,0,1,.59,1.226c-.248,1.766-.66,3.509-.939,5.272a2.693,2.693,0,0,0,.2,1.48c.862,1.836,1.807,3.633,2.705,5.452.408.827.254,1.412-.408,1.75-.682.347-1.189.127-1.619-.732-.861-1.72-1.611-3.506-2.6-5.151a4.936,4.936,0,0,1-.355-3.776c.207-1.059.437-2.115.6-3.181.086-.569.118-1.207-.8-1.164a.879.879,0,0,0-.069.238A23.883,23.883,0,0,1,41.061,52.3,25.658,25.658,0,0,1,36.3,59.2a1.065,1.065,0,0,1-1.773-.05A34.875,34.875,0,0,1,31.971,56.2,21.915,21.915,0,0,1,27.916,46.3c-.192-1.384-.316-2.777-.474-4.183-.526,0-.855.215-.755.824.194,1.177.339,2.365.613,3.523a4.456,4.456,0,0,1-.387,3.773,13.718,13.718,0,0,0-1.068,2.12,1.222,1.222,0,0,0-.023.759,13.966,13.966,0,0,1,.715,3.988,14.126,14.126,0,0,1-1.391,6.151c9.077,3.92,23.038,2.23,32.329-7.923,8.349-9.123,9.31-21.893,5.9-30.074-9.233,3.158-15.352-.187-19.032-8.972-.311.561-.6,1.073-.879,1.587-1.486,2.718-3.032,5.407-4.409,8.179a3.024,3.024,0,0,0-.013,2.339c.449.94,1.213,1.888,2.579,1.288a.171.171,0,0,1,.087,0,1.376,1.376,0,0,0,1.485-.757c.672-1.032,1.456-1.992,2.205-2.973a1.394,1.394,0,0,1,1.836-.254,1.171,1.171,0,0,1-.074,1.635c-.665.859-1.234,1.8-1.958,2.606-.785.871-1.12,2.282-2.853,2.064-1.6-.2-1.813.277-.959,1.766M57.149,24.25A11.065,11.065,0,0,0,68.515,13.192,10.861,10.861,0,0,0,57.626,2.183,11,11,0,0,0,46.451,12.731c-.288,6.533,5.423,11.572,10.7,11.519M24.236,57.405A10.777,10.777,0,0,0,12.072,46.475,10.849,10.849,0,0,0,2.227,57.4,11.052,11.052,0,0,0,13.286,68.5c5.831,0,11.208-4.878,10.95-11.1M35.589,35.5c-1.241-.259-2.353-.426-3.421-.739-.581-.17-.758-.017-.946.485A20.492,20.492,0,0,0,30.048,45.9a20.913,20.913,0,0,0,4.2,9.6c.366.469.764.914,1.225,1.464.753-.991,1.406-1.844,2.049-2.7a.7.7,0,0,0,.151-.4c-.05-1.715-.051-3.436-.2-5.144-.11-1.283-.443-2.545-.622-3.824-.441-3.16-.851-6.325-1.26-9.394m3.733-.827a11.341,11.341,0,0,0-1.287.318.561.561,0,0,0-.282.455c.178,1.311.406,2.615.6,3.925.268,1.853.51,3.711.776,5.564.2,1.378.416,2.752.625,4.129l.243-.017a21.315,21.315,0,0,0-.67-14.374M32.142,32.4c.189.069.329.108.457.169a7.326,7.326,0,0,0,5.6.01.7.7,0,0,0,.418-.491,2.289,2.289,0,0,0-2.324-2.239H34.639a2.417,2.417,0,0,0-2.5,2.551m1.942-5.841c.17.405.27.922.412.934a5.96,5.96,0,0,0,1.762-.137c.138-.03.186-.47.3-.8Z" transform="translate(0 0)" fill="#020101"/>
        <path id="Trazado_279420" data-name="Trazado 279420" d="M71.632,33.15a36.692,36.692,0,0,1-1.691,5.115c-1.912,3.843-4.017,7.591-6.082,11.357a1.218,1.218,0,0,1-.893.453c-1.145.053-2.293.021-3.591.021-.806-1.514-1.692-3.2-2.6-4.871q-2.066-3.825-4.15-7.64A1.331,1.331,0,0,0,50.958,37a1.089,1.089,0,0,0-.312,1.534c.452.978.978,1.923,1.492,2.872,1.951,3.605,3.921,7.2,5.854,10.816a1.549,1.549,0,0,1-.284,2.168,1.574,1.574,0,0,0-.4.552c-.3.629-.808.693-1.454.78a2.355,2.355,0,0,1-2.466-1.308c-.552-.833-1.17-1.623-1.758-2.433a1.424,1.424,0,0,0-1.478-.676.939.939,0,0,0-.708,1.421c1.168,1.632,2.336,3.27,3.619,4.81.285.343,1.038.3,1.578.425.43.1.863.18,1.3.269l-.352,1.379a5.179,5.179,0,0,1-.518-.178c-1.5-.741-1.843-.549-2.677.445a9.209,9.209,0,0,0-.671.688C50.444,62.471,48.4,62.7,46.4,63.036a6.629,6.629,0,0,0-1.895.433,1.471,1.471,0,0,0-.573,1.162,1.171,1.171,0,0,0,.783.811,5,5,0,0,0,1.693-.133c1.255-.226,2.52-.428,3.744-.771a4.817,4.817,0,0,0,1.653-.972c.628-.516,1.137-1.176,1.759-1.7a4.593,4.593,0,0,1,1.259-.464c-.308,1.2-.5,2.082-.771,2.938a1.828,1.828,0,0,1-.6.907,22.744,22.744,0,0,1-2.381,1.461c-1.031.551-.624,1.413-.5,2.179.244,1.574.661,3.128.8,4.708a5.866,5.866,0,0,1-.66,2.392,14.047,14.047,0,0,0-7.755-5.448,13.38,13.38,0,0,0-9.392.789c-3.731-9.284-2.1-21.945,6.238-30.712A29.685,29.685,0,0,1,71.632,33.15" transform="translate(-26.123 -25.837)" fill="#e6e9ed"/>
        <path id="Trazado_279421" data-name="Trazado 279421" d="M159.913,110.518c-.854-1.489-.645-1.968.959-1.766,1.733.218,2.068-1.192,2.853-2.063.724-.8,1.293-1.746,1.958-2.606a1.171,1.171,0,0,0,.074-1.635,1.394,1.394,0,0,0-1.836.254c-.749.981-1.534,1.94-2.205,2.972a1.376,1.376,0,0,1-1.485.757.167.167,0,0,0-.087,0c-1.366.6-2.131-.348-2.579-1.288a3.024,3.024,0,0,1,.013-2.338c1.378-2.772,2.924-5.46,4.409-8.179.281-.514.568-1.026.879-1.587,3.681,8.785,9.8,12.13,19.032,8.972,3.413,8.181,2.452,20.951-5.9,30.074-9.291,10.153-23.252,11.843-32.329,7.923a14.126,14.126,0,0,0,1.391-6.151,13.967,13.967,0,0,0-.715-3.988,1.222,1.222,0,0,1,.023-.759,13.718,13.718,0,0,1,1.068-2.12,4.456,4.456,0,0,0,.387-3.773c-.274-1.158-.42-2.347-.613-3.524-.1-.609.229-.824.755-.824.157,1.406.282,2.8.474,4.183a21.916,21.916,0,0,0,4.056,9.906,34.877,34.877,0,0,0,2.553,2.946,1.065,1.065,0,0,0,1.773.05,25.659,25.659,0,0,0,4.763-6.9,23.885,23.885,0,0,0,2.083-9.946.881.881,0,0,1,.069-.238c.918-.043.885.595.8,1.164-.16,1.066-.39,2.122-.6,3.181A4.936,4.936,0,0,0,162.3,127c.985,1.645,1.736,3.43,2.6,5.151.43.86.936,1.08,1.619.732.663-.337.816-.923.408-1.75-.9-1.82-1.843-3.616-2.705-5.452a2.692,2.692,0,0,1-.2-1.48c.279-1.763.691-3.506.939-5.272a1.634,1.634,0,0,0-.59-1.226c-.7-.563-1.561-.921-2.268-1.475a3.039,3.039,0,0,1-.927-1.306,16.59,16.59,0,0,1-.492-2.268c.485-.467.937-.346,1.389.2.316.38.745.67,1.034,1.066a4.936,4.936,0,0,0,3.5,1.894c1.211.181,2.417.392,3.624.6a1.077,1.077,0,0,0,1.361-.961c.082-.64-.337-1.034-1.07-1.148-1.455-.228-2.9-.543-4.335-.871a2.172,2.172,0,0,1-.935-.535c-.747-.7-1.454-1.433-2.174-2.157a1.82,1.82,0,0,0-2.655-.443c-.148.073-.3.138-.5.231" transform="translate(-118.527 -76.756)" fill="#e6e9ed"/>
        <path id="Trazado_279422" data-name="Trazado 279422" d="M276.05,34.531c-5.275.053-10.986-4.985-10.7-11.519a11,11,0,0,1,11.175-10.549,10.861,10.861,0,0,1,10.888,11.009A11.065,11.065,0,0,1,276.05,34.531m-.711-12.694q0,2.36,0,4.721c0,.663.131,1.248.934,1.306a1.183,1.183,0,0,0,1.281-1.31q.021-4.764,0-9.528a1.076,1.076,0,0,0-1.146-1.226c-.859-.019-1.078.485-1.071,1.231.014,1.6,0,3.205,0,4.808m1.055,7.278c-.739-.13-1.038.276-1.039.965s.363,1.123,1.039,1.094a.981.981,0,0,0,1.062-1.071c0-.753-.3-1.071-1.063-.988" transform="translate(-218.901 -10.281)" fill="#ed5565"/>
        <path id="Trazado_279423" data-name="Trazado 279423" d="M34.728,276.22c.258,6.221-5.119,11.1-10.95,11.1a11.052,11.052,0,0,1-11.059-11.1,10.849,10.849,0,0,1,9.845-10.929A10.777,10.777,0,0,1,34.728,276.22m-12.018-1.7c0,1.542-.006,3.084,0,4.626.005.89.456,1.539,1.049,1.551.644.013,1.166-.667,1.167-1.555q.008-4.539,0-9.077c0-.936-.525-1.625-1.2-1.6-.694.026-1.012.487-1.017,1.518-.007,1.513,0,3.026,0,4.539m2.279,8.549c-.159-.956-.568-1.322-1.22-1.314a1.047,1.047,0,0,0-1.106,1.069c-.038.548.7,1.349,1.137,1.166a5.152,5.152,0,0,0,1.189-.922" transform="translate(-10.493 -218.815)" fill="#ed5565"/>
        <path id="Trazado_279424" data-name="Trazado 279424" d="M176.015,199.023c.41,3.07.819,6.234,1.26,9.394.179,1.279.512,2.541.622,3.824.146,1.708.147,3.428.2,5.144a.7.7,0,0,1-.151.4c-.642.861-1.3,1.714-2.049,2.7-.461-.55-.858-.995-1.225-1.464a20.912,20.912,0,0,1-4.195-9.6,20.488,20.488,0,0,1,1.174-10.655c.188-.5.365-.655.946-.485,1.069.314,2.181.481,3.422.739" transform="translate(-140.426 -163.525)" fill="#834747"/>
        <path id="Trazado_279425" data-name="Trazado 279425" d="M217.267,198.1a21.314,21.314,0,0,1,.671,14.374l-.243.017c-.209-1.376-.427-2.751-.625-4.129-.266-1.854-.507-3.711-.776-5.564-.19-1.31-.417-2.614-.6-3.925a.56.56,0,0,1,.282-.455,11.342,11.342,0,0,1,1.287-.318" transform="translate(-177.945 -163.428)" fill="#763d3d"/>
        <path id="Trazado_279426" data-name="Trazado 279426" d="M183.645,173.078a2.417,2.417,0,0,1,2.5-2.551H187.8a2.289,2.289,0,0,1,2.324,2.239.7.7,0,0,1-.418.491,7.328,7.328,0,0,1-5.6-.01c-.128-.062-.268-.1-.457-.169" transform="translate(-151.503 -140.682)" fill="#965353"/>
        <path id="Trazado_279427" data-name="Trazado 279427" d="M194.743,151.729h2.477c-.116.328-.164.768-.3.8a5.96,5.96,0,0,1-1.762.137c-.143-.012-.242-.529-.412-.934" transform="translate(-160.659 -125.173)" fill="#894949"/>
        <path id="Trazado_279428" data-name="Trazado 279428" d="M322.44,37.56c0-1.6.01-3.205,0-4.808-.006-.746.212-1.25,1.071-1.231a1.076,1.076,0,0,1,1.146,1.226q.021,4.764,0,9.528a1.183,1.183,0,0,1-1.281,1.31c-.8-.057-.935-.642-.934-1.306q0-2.36,0-4.72" transform="translate(-266.002 -26.004)" fill="#010000"/>
        <path id="Trazado_279429" data-name="Trazado 279429" d="M323.591,107.494c.76-.083,1.066.235,1.063.988a.981.981,0,0,1-1.062,1.071c-.676.029-1.04-.417-1.039-1.094s.3-1.095,1.039-.965" transform="translate(-266.099 -88.66)" fill="#030101"/>
        <path id="Trazado_279430" data-name="Trazado 279430" d="M69.794,289.744c0-1.513-.005-3.026,0-4.539,0-1.03.323-1.492,1.017-1.518.675-.025,1.2.664,1.2,1.6q0,4.539,0,9.077c0,.888-.523,1.568-1.167,1.555-.592-.012-1.043-.661-1.049-1.551-.009-1.542,0-3.084,0-4.626" transform="translate(-57.577 -234.036)" fill="#010000"/>
        <path id="Trazado_279431" data-name="Trazado 279431" d="M71.852,360.946a5.151,5.151,0,0,1-1.189.922c-.436.183-1.175-.618-1.137-1.166a1.047,1.047,0,0,1,1.106-1.069c.653-.008,1.062.358,1.22,1.314" transform="translate(-57.356 -296.689)" fill="#030101"/>
      </g>
    </g>
  </g>
</svg>
