<svg xmlns="http://www.w3.org/2000/svg" width="75.786" height="60.643" viewBox="0 0 75.786 60.643">
  <g id="Grupo_261798" data-name="Grupo 261798" transform="translate(-5417.143 10940.967)">
    <g id="Grupo_261565" data-name="Grupo 261565">
      <path id="Trazado_279199" data-name="Trazado 279199" d="M702.349,149.189a1.042,1.042,0,0,0-.042.205c.146,2.082-.5,2.305-2.4,2.28-3.656-.049-7.314-.014-10.971-.015-1.411,0-1.793-.373-1.793-1.757q0-28.567,0-57.136c0-1.332.4-1.722,1.75-1.722q5.682,0,11.366,0c1.739,0,2.01.265,2.041,1.988,0,.153.015.306.025.5h54.286c0-.4-.012-.763,0-1.124a1.251,1.251,0,0,1,1.322-1.351c1.209-.026,2.42-.023,3.63,0a1.261,1.261,0,0,1,1.356,1.32c.011.184,0,.368,0,.553q0,28.41,0,56.819c0,1.6-.325,1.917-1.951,1.917q-1.3,0-2.6,0c-1.384,0-1.749-.374-1.759-1.791,0-.208,0-.417,0-.679Zm-12.623-.093h10.005V93.6H689.726Zm70.62-55.491h-1.167v55.5h1.167ZM756.579,145.4H702.337v1.166h54.242Zm0-49.252H702.336v1.168h54.242Zm-29,27.157-5.19,5.174c1.719,1.721,3.477,3.483,5.189,5.2l5.191-5.2-5.19-5.177m.017-14.347-5.207,5.207,5.189,5.2,5.218-5.207-5.2-5.2m7.063,17.586,5.227-5.206-5.145-5.148-5.179,5.186,5.1,5.168m19.5,9.141-5.188-5.188-5.125,5.116,5.211,5.209,5.1-5.137m.018-14.321L749,116.182l-5.141,5.154,5.178,5.176,5.149-5.148m-28.616.053c-1.753-1.775-3.5-3.542-5.124-5.185l-5.149,5.121,5.174,5.172c1.681-1.685,3.423-3.43,5.1-5.108M743.8,107l5.2,5.2,5.151-5.092-5.224-5.243L743.8,107m-30.438,16.339c-1.774,1.778-3.526,3.531-5.168,5.177l5.061,5.06,5.162-5.153-5.055-5.084m-5.265-9.224,5.15,5.184,5.121-5.1-5.178-5.176-5.093,5.088m17.462,21.6-5.153-5.16c-1.687,1.684-3.442,3.437-5.084,5.075l5.161,5.153,5.076-5.068m11.1-7.246,5.108,5.137,5.2-5.194-5.1-5.13c-1.732,1.726-3.492,3.481-5.205,5.187m5.115-9.09,5.179-5.2-5.085-5.089-5.182,5.179,5.088,5.108M734.705,140.8l5.2-5.171-5.2-5.186c-1.706,1.721-3.456,3.488-5.153,5.2l5.151,5.155m-.054-28.565,5.16-5.16-5.1-5.1-5.2,5.117,5.14,5.139m-19.417-5.247,5.184,5.188,5.093-5.109-5.186-5.183c-1.67,1.675-3.412,3.422-5.091,5.1m-9.241,9.038c-.644.678-1.3,1.395-1.982,2.082-1.767,1.776-1.776,1.771-1.7,4.278a1.053,1.053,0,0,0,.174.648c1.182,1.228,2.391,2.43,3.535,3.583l5.289-5.286-5.311-5.305m.018,14.267c-.663.691-1.306,1.383-1.973,2.051-1.8,1.8-1.807,1.8-1.732,4.342a1.053,1.053,0,0,0,.174.648c1.183,1.224,2.393,2.422,3.553,3.585l5.326-5.3-5.348-5.329m.028-17.933,5.328-5.29-5.394-5.368c-.621.669-1.261,1.4-1.941,2.082-1.794,1.811-1.8,1.8-1.725,4.346a1.041,1.041,0,0,0,.177.646c1.184,1.223,2.394,2.42,3.555,3.584M756.294,133.8a2.762,2.762,0,0,0,.3-.851q.035-4.454,0-8.906a2.555,2.555,0,0,0-.307-.827c-1.857,1.833-3.625,3.577-5.323,5.255l5.328,5.329M751,114.1l5.308,5.414a3.3,3.3,0,0,0,.286-.9q.031-4.413,0-8.827a3.26,3.26,0,0,0-.343-.955L751,114.1M722.369,142.75h10.243l-5.122-5.119-5.121,5.119M732.7,99.926H722.449l5.131,5.139,5.122-5.139m-19.326,37.8-5.044,5.045h10.109c-1.749-1.742-3.493-3.478-5.065-5.045m-5.3-37.8,5.171,5.17,5.148-5.17ZM741.9,137.619l-5.153,5.143h10.3l-5.146-5.143m-5.2-37.7c1.752,1.754,3.491,3.494,5.1,5.11l5.131-5.11Zm19.867,37.457-5.375,5.382h5.375ZM751.194,99.92l5.377,5.388V99.92Zm-48.849,30.464,1.734-1.753-1.734-1.775Zm-.016-14.427,1.761-1.675-1.761-1.975Zm1.721,26.829-1.7-1.847v1.847Zm.192-42.856h-1.881v1.915l1.881-1.915" transform="translate(4730 -11032)" fill="#3b5620"/>
    </g>
  </g>
</svg>
