<svg xmlns="http://www.w3.org/2000/svg" xmlns:xlink="http://www.w3.org/1999/xlink" width="334.7" height="309.617" viewBox="0 0 334.7 309.617">
  <defs>
    <clipPath id="clip-path">
      <rect id="Rectángulo_325660" data-name="Rectángulo 325660" width="19.893" height="19.89" transform="translate(290.273 1200.94)" fill="none"/>
    </clipPath>
    <clipPath id="clip-path-2">
      <rect id="Rectángulo_325661" data-name="Rectángulo 325661" width="19.892" height="19.89" transform="translate(283.112 1077.21)" fill="none"/>
    </clipPath>
    <clipPath id="clip-path-3">
      <rect id="Rectángulo_325662" data-name="Rectángulo 325662" width="19.892" height="19.89" transform="translate(285.052 1157.23)" fill="none"/>
    </clipPath>
    <clipPath id="clip-path-4">
      <rect id="Rectángulo_325663" data-name="Rectángulo 325663" width="19.893" height="19.9" transform="translate(337.568 1168.96)" fill="none"/>
    </clipPath>
    <clipPath id="clip-path-5">
      <rect id="Rectángulo_325664" data-name="Rectángulo 325664" width="14.024" height="14.03" transform="translate(300.667 1050.65)" fill="none"/>
    </clipPath>
    <clipPath id="clip-path-6">
      <rect id="Rectángulo_325665" data-name="Rectángulo 325665" width="10.941" height="10.94" transform="translate(312.056 1186.72)" fill="none"/>
    </clipPath>
    <clipPath id="clip-path-7">
      <rect id="Rectángulo_325666" data-name="Rectángulo 325666" width="10.941" height="10.94" transform="translate(345.077 1206.21)" fill="none"/>
    </clipPath>
    <clipPath id="clip-path-8">
      <rect id="Rectángulo_325667" data-name="Rectángulo 325667" width="10.941" height="10.94" transform="translate(301.463 1128.83)" fill="none"/>
    </clipPath>
    <clipPath id="clip-path-9">
      <rect id="Rectángulo_325668" data-name="Rectángulo 325668" width="66.685" height="183.23" transform="translate(310.508 1060.02)" fill="none"/>
    </clipPath>
    <clipPath id="clip-path-10">
      <rect id="Rectángulo_325669" data-name="Rectángulo 325669" width="45.797" height="108.08" transform="translate(251.009 1098.28)" fill="none"/>
    </clipPath>
    <clipPath id="clip-path-11">
      <rect id="Rectángulo_325670" data-name="Rectángulo 325670" width="14.024" height="14.02" transform="translate(304.099 998.14)" fill="none"/>
    </clipPath>
  </defs>
  <g id="Grupo_262121" data-name="Grupo 262121" transform="translate(-11419.897 9839.629)">
    <g id="Grupo_262114" data-name="Grupo 262114">
      <path id="Trazado_280007" data-name="Trazado 280007" d="M413.073,1222.521c-81.382,2.622-160.629,16-201.862-55.17s-17.706-161.86,52.546-202.56c47.434-27.482,182.969-27.564,178.72,71.816C438.655,1126,492.4,1090.774,505.8,1113.89c41.233,71.171,2.011,105.579-92.723,108.631" transform="translate(11229 -10788.719)" fill="#e7f4fa"/>
      <path id="Trazado_280008" data-name="Trazado 280008" d="M520.908,1028.079c9.628,18.566,3.955,40.6-12.671,49.227s-37.91.564-47.538-18-12.031-52.248,4.6-60.87,45.986,11.08,55.614,29.644" transform="translate(11229 -10788.719)" fill="#e7f4fa"/>
      <path id="Trazado_280009" data-name="Trazado 280009" d="M468.8,1216.032c-15.816,9.131-41.539,9.085-57.454-.1s-16-24.04-.18-33.171,41.539-9.085,57.454.1,16,24.04.18,33.171" transform="translate(11229 -10788.719)" fill="#f2f2f2"/>
      <path id="Trazado_280010" data-name="Trazado 280010" d="M421.816,1187.149l-1.756.969a19.464,19.464,0,0,0-6.089,4.52,11.339,11.339,0,0,0-1.733,3.128,6.758,6.758,0,0,0-.438,3.661,2.856,2.856,0,0,0,2.172,2.3,10.405,10.405,0,0,0,7.132-.514,31.734,31.734,0,0,0,6.242-3.758,29.422,29.422,0,0,1,6.275-3.7c1.753-.678,3.614-1.015,5.374-1.671a14.17,14.17,0,0,0,2.509-1.263,6.113,6.113,0,0,0,2.459-2.942,8.322,8.322,0,0,0,.388-4.329,10.912,10.912,0,0,0-3.627-6.156,5.652,5.652,0,0,0-2.681-1.471c.035,1.075.575,4.086-1.271,3.816a5.645,5.645,0,0,0-2.171-.272,7.2,7.2,0,0,0-2.21,1.311,112.918,112.918,0,0,1-10.575,6.371" transform="translate(11229 -10788.719)" fill="#0069d1"/>
      <path id="Trazado_280011" data-name="Trazado 280011" d="M419.582,1105.021c0-.1,0-.211.005-.317a1.221,1.221,0,0,0-.005.317" transform="translate(11229 -10788.719)" fill="#ffc7a6"/>
      <path id="Trazado_280012" data-name="Trazado 280012" d="M441.6,1156.474a31.7,31.7,0,0,0-2.032-14.133c-1.6-3.732-1.525-7.095-1.008-11.054.562-4.3.968-8.626,1.376-12.947a65.149,65.149,0,0,0,.417-10.792,3.375,3.375,0,0,0-.24-1.185,2.878,2.878,0,0,0-.912-1.024,12.613,12.613,0,0,0-3-1.6,34.517,34.517,0,0,0-5.266-1.641,10.109,10.109,0,0,0-5.571-.044,7.177,7.177,0,0,0-3.569,2.958c-.285.437-.579,1.512-1.172,1.505s-.989-.891-1.039-1.5c-.075,3.545-.637,7.006-.726,10.561a84.559,84.559,0,0,0,.406,10.675,76.451,76.451,0,0,0,1.277,8.382,38.807,38.807,0,0,1,1.319,7.608,98.6,98.6,0,0,0,2.276,10.211c1.592,5.842,3.32,11.712,4.6,17.632a33.776,33.776,0,0,1,.976,8.452,5.051,5.051,0,0,1-.314,1.766,5.739,5.739,0,0,1-.746,1.18L424.8,1186.6c-.2.262-.394.639-.18.888a.7.7,0,0,0,.516.175,12.543,12.543,0,0,0,5.427-1.461c3.423-1.506,6.932-3.069,9.58-5.71a2.5,2.5,0,0,0,.873-1.487,3.4,3.4,0,0,0-.5-1.585c-.932-2.044-.786-4.4-.545-6.633.514-4.774,1.374-9.514,1.623-14.309" transform="translate(11229 -10788.719)" fill="#ffc7a6"/>
      <path id="Trazado_280013" data-name="Trazado 280013" d="M434.141,1006.317a2.724,2.724,0,0,0-.921-.985c-.5-.311-1.092-.238-1.56-.6-.549-.432-.489-1.495-1.011-1.8a.748.748,0,0,0-.641.035,10.1,10.1,0,0,0-4.637,4.063,30.137,30.137,0,0,0-2.628,5.677l-10.174,26.7a8.451,8.451,0,0,1-2.339,3.787c-2.912,2.336-15.825,10.418-19.206,11.921a1.024,1.024,0,0,0-.552.421,1.013,1.013,0,0,0-.032.6,11.5,11.5,0,0,0,1.08,3.822,4.484,4.484,0,0,0,3.219,2.438,10.092,10.092,0,0,0,2.6-.537c.895-.2,1.788-.419,2.679-.642q5.343-1.347,10.551-3.167.573-.2,1.142-.406a61.683,61.683,0,0,0,6.1-2.514,10.842,10.842,0,0,0,2.653-1.674,5.447,5.447,0,0,0,1.092-1.417c.012-.043.029-.086.042-.128a3.759,3.759,0,0,0,.282-.859c1.658-5.056,4.363-9.722,6.3-14.689a137.29,137.29,0,0,0,4.153-14.064c1.1-4.069,2.343-8.155,2.446-12.368a7.247,7.247,0,0,0-.639-3.6" transform="translate(11229 -10788.719)" fill="#0080ff"/>
      <path id="Trazado_280014" data-name="Trazado 280014" d="M436.581,1206.958a7.66,7.66,0,0,0-.883,1.731c-1.267,3.709,2.442,6.038,5.677,6.129a14.245,14.245,0,0,0,6.007-1.411,31.109,31.109,0,0,0,11.272-8.392,7.247,7.247,0,0,1,1.385-1.571c.544-.344,1.192-.609,1.766-.907a6.212,6.212,0,0,0,2.635-2.131,7.682,7.682,0,0,0,1.057-5.764,11.974,11.974,0,0,0-6.077-8.021.273.273,0,0,0-.237-.04.259.259,0,0,0-.1.128c-.432.891-.439,3.606-1.764,3.762a2.065,2.065,0,0,1-1.838-1.281,3.774,3.774,0,0,1-.154-1.646,24.558,24.558,0,0,0-4.061,3.4c-4.9,4.742-9.821,9.509-13.922,14.956-.261.346-.52.7-.759,1.061" transform="translate(11229 -10788.719)" fill="#0080ff"/>
      <path id="Trazado_280015" data-name="Trazado 280015" d="M456.694,1143.713a43.794,43.794,0,0,1,1.479-6.252c1.48-5.269,3.525-10.353,5.292-15.528,2.46-7.2,4.4-14.823,3.387-22.366a1.913,1.913,0,0,0-.242-.815,1.941,1.941,0,0,0-.8-.6,35.907,35.907,0,0,0-8.324-2.909,14.009,14.009,0,0,0-5.513-.3,12.423,12.423,0,0,0-6.746,4.254c-2.777,3.136-3.812,7.142-4.414,11.189a125.581,125.581,0,0,0-1.551,13.47,132.667,132.667,0,0,0-.061,14.654,47.286,47.286,0,0,0,3.193,13.721c2.28,6.077,4.995,11.987,7.088,18.135a63.652,63.652,0,0,1,2.707,10.53,13.915,13.915,0,0,1-.335,7.281,43.578,43.578,0,0,1-4.238,7.434,3.318,3.318,0,0,0-.781,2.246.657.657,0,0,0,.166.367.734.734,0,0,0,.369.161,5.285,5.285,0,0,0,2.918-.315,16.553,16.553,0,0,0,2.635-1.371,46.264,46.264,0,0,0,8.281-5.678,2.905,2.905,0,0,0,1-1.5,4.732,4.732,0,0,0-.256-1.757c-.449-2.129.288-4.566.5-6.7q.375-3.716.473-7.453a100.49,100.49,0,0,0-.712-14.907q-.108-.89-.234-1.777c-.355-2.52-2.365-4.077-3.787-6.007a9.643,9.643,0,0,1-1.5-7.209" transform="translate(11229 -10788.719)" fill="#ffe5cc"/>
      <path id="Trazado_280016" data-name="Trazado 280016" d="M475.819,1097.84c-.074,2.6-.325,5.206-.518,7.794-.148,2.1-1.168,3.267-2.662,4.716a32.454,32.454,0,0,1-11.43,7.01,57.622,57.622,0,0,1-14.921,3.046c-7.335.636-14.921.4-21.856-2.026-.68-.251-1.36-.5-2.026-.784-.044-.013-.089-.044-.148-.059-1.966-.843-4.806-2.247-4.85-4.672v-.725c.029-2.056.31-4.14.488-6.181q.576-6.876,1.553-13.738c.665-4.614,2.6-16.252,2.72-16.562.414-2.011.888-3.992,1.4-5.945-.162-1.862-.68-3.829-.931-5.633-.666-4.643-1.346-9.273-2.012-13.915a28.382,28.382,0,0,0-1.6-6.951,21.566,21.566,0,0,1-1.685-4.23c-.444-2.365.517-4.732,1.419-6.95q3.238-7.874,6.019-15.926c.946-2.735,1.863-5.471,2.721-8.236.857-2.721,1.863-3.55,4.466-4.791q4.458-2.107,8.887-4.245c1.139-.532,2.425-1.656,3.638-1.05,7.113,3.579,12.7,9.479,18.469,14.951a33.735,33.735,0,0,1,4.274,4.569,14.71,14.71,0,0,1,1.316,2.234c1.923,3.976,1.775,8.4.947,12.627-.962,4.865-2.307,9.627-3.712,14.374a45.972,45.972,0,0,0-1.8,6.729,6.958,6.958,0,0,0,.015,2.765,24.366,24.366,0,0,0,.99,3.371c1.509,4.126,4.333,7.483,6.211,11.416a46.636,46.636,0,0,1,3.9,13.1,79.621,79.621,0,0,1,.71,13.914" transform="translate(11229 -10788.719)" fill="#632059"/>
      <path id="Trazado_280017" data-name="Trazado 280017" d="M444.472,1042.468l-10.927-2.052a1.126,1.126,0,0,1-.9-1.315l.4-2.146a1.126,1.126,0,0,1,1.315-.9l10.927,2.052a1.128,1.128,0,0,1,.9,1.315l-.4,2.146a1.127,1.127,0,0,1-1.315.9" transform="translate(11229 -10788.719)" fill="#f2f2f2"/>
      <path id="Trazado_280018" data-name="Trazado 280018" d="M433.256,1080.721l-1.355,17.007,10.228,3.943,10.967-3.327.986-18.363s-7.147,4.561-20.826.74" transform="translate(11229 -10788.719)" fill="#0080ff"/>
      <path id="Trazado_280019" data-name="Trazado 280019" d="M428.632,1028.5c-1.715,5.131-1.6,10.692-1.3,16.888.325,6.728.724,13.575,1.227,20.362l.015.34c.177,2.337.355,4.747.31,7.157a143.865,143.865,0,0,1-1.67,16.9c-.459,3.223-.917,6.551-1.228,9.774-.591,6.122-1.124,12.3-1.553,18.455-.68-.251-1.36-.5-2.025-.784-.045-.014-.089-.044-.148-.059.428-5.944.946-11.918,1.523-17.834.31-3.268.784-6.625,1.227-9.863a140.7,140.7,0,0,0,1.656-16.636c.03-2.307-.133-4.658-.3-6.95l-.03-.34c-.488-6.8-.9-13.679-1.227-20.422-.311-6.418-.414-12.2,1.419-17.686a49.17,49.17,0,0,1,5.383-10.366l6.092-9.745,1.879,1.183-6.093,9.73a48.819,48.819,0,0,0-5.161,9.893" transform="translate(11229 -10788.719)" fill="#0080ff"/>
      <path id="Trazado_280020" data-name="Trazado 280020" d="M456.823,992.473a7.008,7.008,0,1,1-7.009-7.009,7.009,7.009,0,0,1,7.009,7.009" transform="translate(11229 -10788.719)" fill="#733118"/>
      <path id="Trazado_280021" data-name="Trazado 280021" d="M435.642,1013.039c.07.319.186.579.422.6a4.442,4.442,0,0,0,.968-.129q.529-.08,1.053-.184a19.4,19.4,0,0,0,7.028-2.788,13.651,13.651,0,0,0,5.819-7.942.928.928,0,0,0,.021-.516.986.986,0,0,0-.359-.414c-3.278-2.615-5.7-6.129-8.069-9.588a9.6,9.6,0,0,1-2.274,6.9c-1.521,1.983-3.684,3.692-6.179,3.806a.971.971,0,0,0-.445.084c-.328.181-.309.652-.245,1.022l.138.809q.36,2.132.7,4.266c.109.682.175,1.386.328,2.06a.414.414,0,0,0,.33.361.828.828,0,0,1,.578.516c.089.22.1.729.19,1.141" transform="translate(11229 -10788.719)" fill="#ffc7a6"/>
      <path id="Trazado_280022" data-name="Trazado 280022" d="M432.473,1009.3a25.916,25.916,0,0,0,.059,7.069,36.49,36.49,0,0,1,3.437-5.2,14.477,14.477,0,0,1-1.275-3.018,6.651,6.651,0,0,1,.429-3.255c.2-.519.368-1.026-.294-.524a5.037,5.037,0,0,0-1.059,1.385,10.263,10.263,0,0,0-1.3,3.543" transform="translate(11229 -10788.719)" fill="#0080ff"/>
      <path id="Trazado_280023" data-name="Trazado 280023" d="M446.949,1003.063c-1.936,2.96-5.109,4.837-8.17,6.611a10.907,10.907,0,0,1-2.635,1.227,1.1,1.1,0,0,0-.439.179.918.918,0,0,0-.222.325c-.978,2.051-.694,4.47-1.269,6.668a36.9,36.9,0,0,0,8.369-3.089,31.526,31.526,0,0,0,4.995-3.7c2.2-1.9,5.177-4.509,4.888-7.724a2.553,2.553,0,0,0-.661-1.579,7.491,7.491,0,0,0-1.317-.866,5.783,5.783,0,0,1-1.685-1.873,2.112,2.112,0,0,0-.55-.687c-.132-.09-.849-.268-.776.08a.39.39,0,0,0,.066.132,2.3,2.3,0,0,1,.351.591,3.04,3.04,0,0,1,.109,1.313,6.1,6.1,0,0,1-1.054,2.393" transform="translate(11229 -10788.719)" fill="#0080ff"/>
      <path id="Trazado_280024" data-name="Trazado 280024" d="M443.365,996.376c.475-.289,1.024-.214,1.528-.583a8.422,8.422,0,0,0,1.382-1.372,13.882,13.882,0,0,0,2.262-5.016,19.716,19.716,0,0,0,.318-10.374,13.238,13.238,0,0,0-3.04-5.883,20.368,20.368,0,0,0-2.211-1.98,13.138,13.138,0,0,0-10.244-3.127,17.247,17.247,0,0,0-8.8,4.042,20.7,20.7,0,0,0-5.614,7.937,14.67,14.67,0,0,0-.8,2.551,18.526,18.526,0,0,0,.267,7.458c.586,2.809,1.911,5.408,2.72,8.161.509,1.731.258,3.749.425,5.549a.521.521,0,0,0,.675.595l.959-.085a1.866,1.866,0,0,1,1.2.159c.3.224.473.714.7,1.023q1.056,1.428,2.111,2.855c.347.47.97.89,1.261,1.353.314.5.14,1.037.848,1.349a2.47,2.47,0,0,0,1.545.054,9.117,9.117,0,0,0,1.935-.758,32.352,32.352,0,0,0,10.457-8.136,4.516,4.516,0,0,0,1.073-1.854c.311-1.427-.649-2.6-.961-3.918" transform="translate(11229 -10788.719)" fill="#ffe5cc"/>
      <path id="Trazado_280025" data-name="Trazado 280025" d="M419.734,983.546a6.166,6.166,0,0,0,1.886-.809c.033,1.363,1.513,2.171,2.807,2.6,3.492,1.157,7.2,1.676,10.535,3.238a7.905,7.905,0,0,1,2.56,1.749c.61.675,1.025,1.5,1.576,2.226A3.324,3.324,0,0,0,441.315,994a9.155,9.155,0,0,1,.432-4.8c.7-1.465,2.563-2.506,4-1.745a3.093,3.093,0,0,1,1.46,2.549,7.474,7.474,0,0,1-2.2,5.792c1.943-.808,3.065-2.917,3.883-4.727a17.22,17.22,0,0,0,1.311-5.927,19.5,19.5,0,0,0-1.388-9.11,14.147,14.147,0,0,0-3.76-5.148,13.718,13.718,0,0,0-3.537-2.326,19.547,19.547,0,0,0-4.67-1.236,17.36,17.36,0,0,0-7.354.569c-5.291,1.631-10.176,5.791-11.5,11.322-.363,1.511-.806,4.793,1.743,4.326" transform="translate(11229 -10788.719)" fill="#8c3c1d"/>
      <path id="Trazado_280026" data-name="Trazado 280026" d="M397.495,1061.5a6.161,6.161,0,0,0-.39-3.163,2.619,2.619,0,0,0-1.858-1.592,10.179,10.179,0,0,0-2.03-.579.437.437,0,0,1-.227-.051.426.426,0,0,1-.123-.192,2.573,2.573,0,0,0-1.717-1.235,8.43,8.43,0,0,0-4.55-.057,8.34,8.34,0,0,0-3.308,1.717A11.717,11.717,0,0,0,382,1058.01a16.35,16.35,0,0,1-1.522,1.626,2.719,2.719,0,0,0-.852,1.094.846.846,0,0,0,.549,1.1,5.494,5.494,0,0,0-2.022,1.389,2.034,2.034,0,0,0-.649,1.446c.039.542.6,1.056,1.106.87a1.32,1.32,0,0,0,1.865,1.643,1.771,1.771,0,0,0,1.481.652,4.5,4.5,0,0,0,1.618-.425,1.3,1.3,0,0,1,.544-.141,1.462,1.462,0,0,1,.507.164,4.62,4.62,0,0,0,1.326.364,8.245,8.245,0,0,0,2.483-.18q1.623-.3,3.214-.752a10.469,10.469,0,0,0,2.21-.835,7.46,7.46,0,0,0,3.125-2.93,5.129,5.129,0,0,0,.515-1.6" transform="translate(11229 -10788.719)" fill="#ffc7a6"/>
      <path id="Trazado_280027" data-name="Trazado 280027" d="M390.194,1061.084a2.571,2.571,0,0,0,1,1.462,3.764,3.764,0,0,0,1.441.678,1.769,1.769,0,0,0,.745.037,1.693,1.693,0,0,0,.766-.417,2.786,2.786,0,0,0,.945-1.748,1.112,1.112,0,0,0-.059-.575,1.084,1.084,0,0,0-.365-.417c-.566-.413-1.34-.552-1.773-1.1-.3-.382-.4-.923-.779-1.225a1.113,1.113,0,0,0-1.672.651,5.732,5.732,0,0,0-.248,2.658" transform="translate(11229 -10788.719)" fill="#ff524f"/>
      <path id="Trazado_280028" data-name="Trazado 280028" d="M390.125,1065.529a6.332,6.332,0,0,1-.547,1.849c-.385.088-.769.163-1.154.237a7.748,7.748,0,0,1-2.469.177,4.572,4.572,0,0,1-1.331-.354,1.258,1.258,0,0,0-.5-.164,1.2,1.2,0,0,0-.547.133,4.479,4.479,0,0,1-1.627.429,1.741,1.741,0,0,1-1.478-.651,1.343,1.343,0,0,1-1.509-.162,1.38,1.38,0,0,1-.355-1.479c-.5.178-1.064-.325-1.108-.872a2.059,2.059,0,0,1,.65-1.45,5.635,5.635,0,0,1,2.026-1.389.842.842,0,0,1-.547-1.11,2.731,2.731,0,0,1,.843-1.094,14.445,14.445,0,0,0,1.523-1.627,12.8,12.8,0,0,1,1.3-1.656,8.261,8.261,0,0,1,3.313-1.715,8.111,8.111,0,0,1,2.661-.266c0,.074.015.134.015.207.059,1.922-.71,3.8-.991,5.663a2.4,2.4,0,0,0,.326,1.375,14.808,14.808,0,0,0,.946,1.716.841.841,0,0,0,.074.118,3.671,3.671,0,0,1,.458.9,2.89,2.89,0,0,1,.03,1.183" transform="translate(11229 -10788.719)" fill="#ff524f"/>
      <path id="Trazado_280029" data-name="Trazado 280029" d="M470.1,1024.907a15.833,15.833,0,0,0-1.844-5.867c-1.085-1.874-3.011-4.11-5.339-3.764a13.045,13.045,0,0,0-6.746,3.355,15.519,15.519,0,0,0-3.557,4.74c-1.925,3.923-2.446,8.362-2.97,12.7q-1.432,11.871-3.168,23.7c-.023.161-.037.324-.055.487-9.849,4.031-20.331,6.3-30.784,8.337a1.561,1.561,0,0,0-.691.253,1.335,1.335,0,0,0-.379.59c-.857,2.223.081,4.717,1.22,6.81a.936.936,0,0,0,.325.4.954.954,0,0,0,.514.074c10.139-.413,20.328-.832,30.275-2.834a24.038,24.038,0,0,0,8.007-2.756,13.441,13.441,0,0,0,3.711-4.084,36.276,36.276,0,0,0,3.138-5.368,73.89,73.89,0,0,0,4.292-11.92c.6-2.1,1.158-4.218,1.736-6.327,1.655-6.045,3.147-12.315,2.315-18.527" transform="translate(11229 -10788.719)" fill="#0080ff"/>
      <path id="Trazado_280030" data-name="Trazado 280030" d="M417.035,1070.6a4.678,4.678,0,0,0-.337-.532c-.848-1.153-2.088-.881-3.335-.958a13.457,13.457,0,0,0-3.043.013,1.155,1.155,0,0,0-.4.122,1.267,1.267,0,0,0-.347.349,8.027,8.027,0,0,1-1.215,1.549,11.772,11.772,0,0,1-1.35.725,29.206,29.206,0,0,1-3.487,1.659,5.367,5.367,0,0,1-3.676.409c-1.208-.427-2.043-1.588-3.25-2.016a6.01,6.01,0,0,0-1.764-.249,1.829,1.829,0,0,0-.933.126c-.181.1-.325.248-.507.341-.569.294-1.278-.083-1.9.085a1.148,1.148,0,0,0-.78,1.347c.1.387.408.707.456,1.106.022.179-.012.363.008.541a1.356,1.356,0,0,0,1.005,1.038,9.752,9.752,0,0,0,1.51.224,8.379,8.379,0,0,1,1.732.519,60.987,60.987,0,0,1,7.318,3.4,6.929,6.929,0,0,0,3.836,1.245,5.012,5.012,0,0,0,2.681-1.317c.769-.658,1.44-1.426,2.232-2.056a11.125,11.125,0,0,1,4.136-1.962c.291-.077.508-.044.734-.238a3.289,3.289,0,0,0,.623-.857,4.7,4.7,0,0,0,.051-4.609" transform="translate(11229 -10788.719)" fill="#ffe5cc"/>
      <path id="Trazado_280031" data-name="Trazado 280031" d="M410.9,1078.779c-.562.5-1.065,1.05-1.642,1.538a5,5,0,0,1-2.676,1.331,7,7,0,0,1-3.845-1.257,59.578,59.578,0,0,0-7.32-3.386,7.786,7.786,0,0,0-1.73-.518,10.464,10.464,0,0,1-1.508-.236,1.336,1.336,0,0,1-1.006-1.036c-.014-.177.015-.354,0-.532a10.36,10.36,0,0,0-.458-1.109,1.138,1.138,0,0,1,.784-1.346c.606-.177,1.316.207,1.892-.089.178-.088.326-.251.5-.339a1.988,1.988,0,0,1,.932-.134,6.431,6.431,0,0,1,1.759.252c1.213.429,2.056,1.6,3.254,2.026a5.427,5.427,0,0,0,3.682-.415,2.949,2.949,0,0,0,.384-.162,5.493,5.493,0,0,1,1.494.222,3.516,3.516,0,0,1,1.124.813c.991.947,2,1.893,3,2.839a7.5,7.5,0,0,1,1.375,1.538" transform="translate(11229 -10788.719)" fill="#ff524f"/>
      <path id="Trazado_280032" data-name="Trazado 280032" d="M409.608,1070a3.3,3.3,0,0,1,2.232.318,4.751,4.751,0,0,1,1.259,1.207c.391.49.766.994,1.139,1.5a2.005,2.005,0,0,1,.446.867,1.337,1.337,0,0,1-.43,1.1,3.633,3.633,0,0,1-1.03.649,4.779,4.779,0,0,1-1.724.542,1.8,1.8,0,0,1-1.6-.677c-.423-.615-.3-1.516-.8-2.067-.332-.361-.858-.48-1.225-.8a1.456,1.456,0,0,1-.27-1.767,3.571,3.571,0,0,1,2.008-.861" transform="translate(11229 -10788.719)" fill="#ff524f"/>
      <path id="Trazado_280033" data-name="Trazado 280033" d="M407.194,1069.577q-.953.229-1.88.548a12.236,12.236,0,0,1-3.051.835,21.929,21.929,0,0,1-2.942-.3,3.629,3.629,0,0,0-1.226.072,1.294,1.294,0,0,0-.643.376,1.256,1.256,0,0,0,.155,1.614,2.927,2.927,0,0,0,1.582.743,48.706,48.706,0,0,1,4.936.756c.774.245,1.5.627,2.3.81a4.452,4.452,0,0,0,3.666-.744,3.874,3.874,0,0,0,1.514-3.377,2.312,2.312,0,0,0-.279-.938,1.476,1.476,0,0,0-1.056-.778,3.632,3.632,0,0,0-1.125.018,18.878,18.878,0,0,0-1.946.362" transform="translate(11229 -10788.719)" fill="#ffe5cc"/>
      <path id="Trazado_280034" data-name="Trazado 280034" d="M357.475,1053.757l10.921,5.082a1.876,1.876,0,0,1,.909,2.492l-.021.046a1.876,1.876,0,0,1-2.492.909l-10.921-5.083a1.874,1.874,0,0,1-.909-2.491l.021-.046a1.876,1.876,0,0,1,2.492-.909" transform="translate(11229 -10788.719)" fill="#404040"/>
      <path id="Trazado_280035" data-name="Trazado 280035" d="M372.057,1039.349l6.917,9.862a1.876,1.876,0,0,1-.459,2.613l-.041.028a1.875,1.875,0,0,1-2.612-.458l-6.917-9.862a1.876,1.876,0,0,1,.458-2.613l.041-.028a1.876,1.876,0,0,1,2.613.458" transform="translate(11229 -10788.719)" fill="#404040"/>
      <path id="Trazado_280036" data-name="Trazado 280036" d="M361.547,1042.961l8.8,8.226a1.876,1.876,0,0,1,.09,2.651l-.035.037a1.875,1.875,0,0,1-2.651.089l-8.8-8.226a1.875,1.875,0,0,1-.089-2.651l.034-.037a1.876,1.876,0,0,1,2.651-.089" transform="translate(11229 -10788.719)" fill="#404040"/>
      <path id="Trazado_280037" data-name="Trazado 280037" d="M369.572,961.266c6.284-3.628,11.979-3.965,16.09-1.576l5.557,3.229c-4.112-2.389-9.807-2.052-16.091,1.576-12.483,7.207-22.567,24.674-22.526,39.018.02,7.128,2.537,12.145,6.6,14.5l-5.556-3.229c-4.059-2.359-6.576-7.376-6.6-14.5-.04-14.344,10.044-31.811,22.527-39.018" transform="translate(11229 -10788.719)" fill="#f2f2f2"/>
      <path id="Trazado_280038" data-name="Trazado 280038" d="M375.128,964.495c-12.483,7.207-22.567,24.674-22.527,39.018s10.191,20.138,22.674,12.931,22.576-24.689,22.535-39.032-10.2-20.124-22.682-12.917" transform="translate(11229 -10788.719)" fill="#bbb"/>
      <path id="Trazado_280039" data-name="Trazado 280039" d="M386.793,981.1a1.815,1.815,0,0,0-1.678.323,4.945,4.945,0,0,0-1.586,1.82l-3.01,5.7,1.4-15.747c.121-1.371-.678-2.1-1.781-1.62a3.762,3.762,0,0,0-1.532,1.375,4.793,4.793,0,0,0-.662,1.444v-1.978c0-1.309-.9-1.869-2.016-1.25a4.511,4.511,0,0,0-2.093,3.564v1.6a1.416,1.416,0,0,0-1.884-.126,3.936,3.936,0,0,0-1.43,1.543,3.551,3.551,0,0,0-.469,1.979l.2,1.985a1.835,1.835,0,0,0-1.4.427,4.567,4.567,0,0,0-1.371,1.716,3.6,3.6,0,0,0-.385,1.982l1.972,15.732v10.023l11.052-6.38v-5.477l6.924-15.05c.818-1.576.711-3.179-.244-3.582m-16.623,28.575v-4.14l8.834-5.076v4.117Zm16.012-25.312-6.894,14.984-9.118,5.239v-3.746l-1.984-15.823a1.656,1.656,0,0,1,.177-.916,2.09,2.09,0,0,1,.631-.789c.507-.372.986-.215,1.068.348l1.077,7.387c.047.323.328.4.634.182a1.237,1.237,0,0,0,.491-1l-1.113-11.279a1.484,1.484,0,0,1,.191-.832,1.652,1.652,0,0,1,.6-.644c.548-.316,1.059-.084,1.118.507l.712,7.222c.032.325.293.431.6.238l.031-.021a1.254,1.254,0,0,0,.538-.96V974.135a2.343,2.343,0,0,1,.307-1.022,1.864,1.864,0,0,1,.656-.664c.511-.283.927-.011.927.606V985.74c0,.345.236.495.537.34l.032-.017a1.254,1.254,0,0,0,.594-.924l.944-10.649a2.037,2.037,0,0,1,.353-.938,1.729,1.729,0,0,1,.705-.634c.507-.219.873.129.816.778l-1.494,16.866a.614.614,0,0,0,.251.636.624.624,0,0,0,.6-.093,1.732,1.732,0,0,0,.576-.654l3.619-6.857a2.61,2.61,0,0,1,.779-.917,1.017,1.017,0,0,1,.569-.2h.352c.5.21.553,1.055.117,1.881" transform="translate(11229 -10788.719)"/>
      <path id="Trazado_280040" data-name="Trazado 280040" d="M379.747,1011.909v0l.024-.014,0,.01v0l.01-.006,0,.01v0l0,0-.007.02,0-.006,0,0,0,.01,0-.006,0-.006-.007,0v0l.01-.006Z" transform="translate(11229 -10788.719)" fill="#383428"/>
      <path id="Trazado_280041" data-name="Trazado 280041" d="M356.276,1000.753v.079c.013,5.847,2.063,10.249,5.768,12.377a10.143,10.143,0,0,0,5.164,1.328,17.246,17.246,0,0,0,8.541-2.6c5.334-3.074,10.13-8.462,13.481-14.585.381-.67.736-1.353,1.064-2.037a35.6,35.6,0,0,0,3.837-15.215c-.013-5.847-2.063-10.249-5.755-12.378-3.719-2.141-8.593-1.681-13.718,1.275-5.44,3.14-10.341,8.7-13.691,14.966-.368.67-.723,1.353-1.051,2.05a35.39,35.39,0,0,0-3.64,14.742m32.2-6.136-25.688-9.946c3.167-5.861,7.753-11.025,12.851-13.968a15.405,15.405,0,0,1,7.555-2.339,8.32,8.32,0,0,1,4.192,1.065c3.061,1.774,4.756,5.558,4.769,10.682a33.689,33.689,0,0,1-3.679,14.506m-30.234,6.2a33.442,33.442,0,0,1,3.495-14.1l25.675,9.934c-3.18,5.7-7.674,10.708-12.654,13.586-4.48,2.589-8.659,3.035-11.746,1.261-3.062-1.76-4.757-5.557-4.77-10.682" transform="translate(11229 -10788.719)" fill="red"/>
      <path id="Trazado_280042" data-name="Trazado 280042" d="M364.877,1245.809c-29.918,17.273-78.577,17.185-108.682-.2s-30.258-45.475-.341-62.748,78.577-17.185,108.683.2,30.258,45.475.34,62.748" transform="translate(11229 -10788.719)" fill="#f2f2f2"/>
      <path id="Trazado_280043" data-name="Trazado 280043" d="M328.454,1072.236c-9.928,5.733-26.075,5.7-36.065-.065s-10.04-15.089-.113-20.822,26.075-5.7,36.065.066,10.041,15.089.113,20.821" transform="translate(11229 -10788.719)" fill="#f2f2f2"/>
      <path id="Trazado_280044" data-name="Trazado 280044" d="M376.219,1199.735h.04L335.8,1060.6l-23.645-1.376,0-.215-1.852.107-1.853-.107v.215L284.8,1060.6l-40.457,139.136h.027c-3.269,11.828,3.017,24.4,18.872,33.55,26.187,15.121,68.513,15.2,94.536.172,15.863-9.158,21.988-21.811,18.438-33.722" transform="translate(11229 -10788.719)" fill="#e6e6e6"/>
      <path id="Trazado_280045" data-name="Trazado 280045" d="M274.453,1122.061l-21.876,75.3,115.563.621-21.819-75.492Z" transform="translate(11229 -10788.719)" fill="#0080ff"/>
      <path id="Trazado_280046" data-name="Trazado 280046" d="M351.832,1226.872c-22.759,13.14-59.774,13.073-82.676-.15s-23.017-34.592-.258-47.732,59.774-13.073,82.675.149,23.018,34.593.259,47.733" transform="translate(11229 -10788.719)" fill="#0069d1"/>
      <path id="Trazado_280047" data-name="Trazado 280047" d="M336.035,1139.573c-14.088,8.134-37,8.093-51.179-.092s-14.248-21.415-.16-29.548,37-8.093,51.179.092,14.248,21.414.16,29.548" transform="translate(11229 -10788.719)" fill="#66b3ff"/>
      <g id="Grupo_261938" data-name="Grupo 261938" transform="translate(11229 -10788.719)" clip-path="url(#clip-path)">
        <path id="Trazado_280048" data-name="Trazado 280048" d="M300.22,1200.942a9.946,9.946,0,1,0,9.945,9.946,9.944,9.944,0,0,0-9.945-9.946m0,17.161a7.215,7.215,0,1,1,7.215-7.215,7.223,7.223,0,0,1-7.215,7.215" fill="#ababab"/>
      </g>
      <g id="Grupo_261941" data-name="Grupo 261941" transform="translate(11229 -10788.719)" clip-path="url(#clip-path-2)">
        <path id="Trazado_280049" data-name="Trazado 280049" d="M293.058,1077.21a9.946,9.946,0,1,0,9.946,9.946,9.944,9.944,0,0,0-9.946-9.946m0,17.161a7.215,7.215,0,1,1,7.215-7.215,7.224,7.224,0,0,1-7.215,7.215" fill="#ababab"/>
      </g>
      <g id="Grupo_261944" data-name="Grupo 261944" transform="translate(11229 -10788.719)" clip-path="url(#clip-path-3)">
        <path id="Trazado_280050" data-name="Trazado 280050" d="M295,1157.228a9.946,9.946,0,1,0,9.946,9.946,9.943,9.943,0,0,0-9.946-9.946m0,17.161a7.215,7.215,0,1,1,7.215-7.215,7.223,7.223,0,0,1-7.215,7.215" fill="#ababab"/>
      </g>
      <g id="Grupo_261947" data-name="Grupo 261947" transform="translate(11229 -10788.719)" clip-path="url(#clip-path-4)">
        <path id="Trazado_280051" data-name="Trazado 280051" d="M347.514,1168.964a9.946,9.946,0,1,0,9.946,9.946,9.944,9.944,0,0,0-9.946-9.946m0,17.161a7.215,7.215,0,1,1,7.215-7.215,7.223,7.223,0,0,1-7.215,7.215" fill="#ababab"/>
      </g>
      <g id="Grupo_261950" data-name="Grupo 261950" transform="translate(11229 -10788.719)" clip-path="url(#clip-path-5)">
        <path id="Trazado_280052" data-name="Trazado 280052" d="M307.679,1050.653a7.013,7.013,0,1,0,7.012,7.012,7.011,7.011,0,0,0-7.012-7.012m0,12.1a5.086,5.086,0,1,1,5.087-5.087,5.093,5.093,0,0,1-5.087,5.087" fill="#ababab"/>
      </g>
      <g id="Grupo_261953" data-name="Grupo 261953" transform="translate(11229 -10788.719)" clip-path="url(#clip-path-6)">
        <path id="Trazado_280053" data-name="Trazado 280053" d="M317.526,1186.719a5.47,5.47,0,1,0,5.47,5.47,5.47,5.47,0,0,0-5.47-5.47m0,9.438a3.969,3.969,0,1,1,3.968-3.968,3.972,3.972,0,0,1-3.968,3.968" fill="#ababab"/>
      </g>
      <g id="Grupo_261956" data-name="Grupo 261956" transform="translate(11229 -10788.719)" clip-path="url(#clip-path-7)">
        <path id="Trazado_280054" data-name="Trazado 280054" d="M350.548,1206.213a5.471,5.471,0,1,0,5.471,5.471,5.47,5.47,0,0,0-5.471-5.471m0,9.439a3.969,3.969,0,1,1,3.968-3.968,3.972,3.972,0,0,1-3.968,3.968" fill="#ababab"/>
      </g>
      <g id="Grupo_261959" data-name="Grupo 261959" transform="translate(11229 -10788.719)" clip-path="url(#clip-path-8)">
        <path id="Trazado_280055" data-name="Trazado 280055" d="M306.933,1128.831a5.47,5.47,0,1,0,5.47,5.471,5.47,5.47,0,0,0-5.47-5.471m0,9.439a3.969,3.969,0,1,1,3.968-3.968,3.972,3.972,0,0,1-3.968,3.968" fill="#ababab"/>
      </g>
      <g id="Grupo_261962" data-name="Grupo 261962" transform="translate(11229 -10788.719)" clip-path="url(#clip-path-9)">
        <path id="Trazado_280056" data-name="Trazado 280056" d="M357.785,1233.458a85.482,85.482,0,0,1-28.956,9.787l-18.321-166.823,15.326-16.4,9.966.573,40.461,139.145h-.047c3.556,11.9-2.567,24.563-18.429,33.718" fill="#c4c4c4"/>
      </g>
      <path id="Trazado_280057" data-name="Trazado 280057" d="M335.847,1013.748v47.826c.1,3.832-2.363,7.65-7.388,10.562-9.93,5.73-26.079,5.707-36.069-.059-4.977-2.877-7.484-6.636-7.52-10.384h-.023v-47.945Z" transform="translate(11229 -10788.719)" fill="#d9d9d9"/>
      <path id="Trazado_280058" data-name="Trazado 280058" d="M310.508,1013.748H284.847v14.179a20.6,20.6,0,0,0,5.526,4.476c5.562,3.223,12.866,4.834,20.135,4.834v39.184c6.505,0,13-1.431,17.951-4.285,5.025-2.912,7.484-6.73,7.388-10.562v-47.826Z" transform="translate(11229 -10788.719)" fill="#bfbfbf"/>
      <path id="Trazado_280059" data-name="Trazado 280059" d="M328.454,1025.091c-9.928,5.732-26.075,5.7-36.065-.065s-10.04-15.091-.113-20.822,26.075-5.7,36.065.065,10.041,15.09.113,20.822" transform="translate(11229 -10788.719)" fill="#f2f2f2"/>
      <path id="Trazado_280060" data-name="Trazado 280060" d="M338.724,1007.566v9.286c.1,4.261-2.638,8.522-8.236,11.744-5.5,3.187-12.735,4.775-19.98,4.763-7.268,0-14.573-1.612-20.135-4.834-5.538-3.187-8.331-7.365-8.367-11.542h-.024v-9.417Z" transform="translate(11229 -10788.719)" fill="#d9d9d9"/>
      <path id="Trazado_280061" data-name="Trazado 280061" d="M338.724,1007.566v9.286c.1,4.261-2.638,8.522-8.236,11.744-5.5,3.187-12.735,4.775-19.98,4.763v-25.793Z" transform="translate(11229 -10788.719)" fill="#bfbfbf"/>
      <path id="Trazado_280062" data-name="Trazado 280062" d="M330.488,1019.569c-11.044,6.376-29.006,6.344-40.12-.073s-11.17-16.787-.125-23.163,29.006-6.344,40.119.073,11.17,16.787.126,23.163" transform="translate(11229 -10788.719)" fill="#f2f2f2"/>
      <path id="Trazado_280063" data-name="Trazado 280063" d="M325.112,1016.465c-8.094,4.673-21.257,4.649-29.4-.053s-8.186-12.3-.093-16.975,21.258-4.649,29.4.053,8.186,12.3.092,16.975" transform="translate(11229 -10788.719)" fill="#bfbfbf"/>
      <path id="Trazado_280064" data-name="Trazado 280064" d="M295.619,1006.6c8.094-4.673,21.257-4.649,29.4.053a13.191,13.191,0,0,1,5.181,4.948c2.23-4.127.509-8.824-5.181-12.109-8.144-4.7-21.307-4.726-29.4-.053-5.625,3.247-7.311,7.907-5.088,12.026a12.958,12.958,0,0,1,5.088-4.865" transform="translate(11229 -10788.719)" fill="#d9d9d9"/>
      <g id="Grupo_261965" data-name="Grupo 261965" transform="translate(11229 -10788.719)" clip-path="url(#clip-path-10)">
        <path id="Trazado_280065" data-name="Trazado 280065" d="M296.806,1108.958l-29.159,97.406c-1.516-.716-2.983-1.492-4.4-2.315a49.365,49.365,0,0,1-12.234-9.656l27.2-96.117a24.293,24.293,0,0,0,7.46,6.338,42.393,42.393,0,0,0,11.136,4.344" fill="#ababab"/>
      </g>
      <g id="Grupo_261968" data-name="Grupo 261968" transform="translate(11229 -10788.719)" clip-path="url(#clip-path-11)">
        <path id="Trazado_280066" data-name="Trazado 280066" d="M311.111,998.136a7.012,7.012,0,1,0,7.012,7.012,7.011,7.011,0,0,0-7.012-7.012m0,12.1a5.086,5.086,0,1,1,5.087-5.087,5.093,5.093,0,0,1-5.087,5.087" fill="#ababab"/>
      </g>
    </g>
  </g>
</svg>
