<svg xmlns="http://www.w3.org/2000/svg" xmlns:xlink="http://www.w3.org/1999/xlink" width="90.662" height="91" viewBox="0 0 90.662 91">
  <defs>
    <clipPath id="clip-path">
      <rect id="Rectángulo_324908" data-name="Rectángulo 324908" width="90.662" height="91" fill="none"/>
    </clipPath>
  </defs>
  <g id="Grupo_261794" data-name="Grupo 261794" transform="translate(-325 -5016.715)">
    <g id="Grupo_260497" data-name="Grupo 260497" transform="translate(325 5016.715)">
      <g id="Grupo_260496" data-name="Grupo 260496" clip-path="url(#clip-path)">
        <path id="Trazado_277964" data-name="Trazado 277964" d="M41.645,194.79l.222.18.229.237a.183.183,0,0,1,.118-.011l3.843.044a1.521,1.521,0,0,0,1.574,1.358,1.769,1.769,0,0,0,1.872-1.358c1.192,0,2.386.03,3.576-.018.3-.012.588-.27.881-.415l.865-.022a4,4,0,0,1,.023.782,3.4,3.4,0,0,0,3,3.824,8.807,8.807,0,0,0,3.394-.606c2.589-.767,5.154-1.8,7.654.218.051.042.144.027.212.053a26.956,26.956,0,0,0,10.455,1.836,1.241,1.241,0,0,1,.005.2,5.545,5.545,0,0,0-.214,1.078q-.018,14.946.007,29.893a2.817,2.817,0,0,0,.364.924,5.468,5.468,0,0,1-5.81,5.42c-2.973-.182-5.96-.137-8.938-.253-3.152-.123-6.3-.32-9.451-.484a1.971,1.971,0,0,0-2.515-.082l-10.024-.014a2.967,2.967,0,0,0-2.96.095c-1.367.087-2.733.192-4.1.258-3.375.164-6.749.337-10.126.451-1.719.058-3.454-.129-5.161.024-1.952.175-4.7-2.79-4.692-4.625.064-11.116.018-22.233.038-33.349a4.722,4.722,0,0,1,4.524-4.5c3.54.034,7.079.135,10.618.208.112,0,.225,0,.337.009,2.625.148,5.247.359,7.874.414a2.114,2.114,0,0,0,2.307-1.769m-5.212,11.635c-2.694.718-4.453,2.253-4.571,5.224-.125.271-.355.542-.358.814q-.038,4.575,0,9.151c0,.273.233.543.357.814a5.345,5.345,0,0,0,5.9,5.368c1.3-.12,2.618-.022,3.928-.02l17.626.038.245-.168a5.52,5.52,0,0,0,4.1-4.325l.151-.286q-.013-5.8-.026-11.592l-.131-.694a15.041,15.041,0,0,0-1.9-2.992,9.017,9.017,0,0,0-2.641-1.284c-.291-.148-.581-.424-.872-.425q-10.455-.036-20.909,0a2.694,2.694,0,0,0-.91.379" transform="translate(-12.365 -151.021)" fill="#d1aee5"/>
        <path id="Trazado_277965" data-name="Trazado 277965" d="M29.28,43.769a2.114,2.114,0,0,1-2.307,1.769c-2.627-.055-5.249-.266-7.874-.414-.112-.007-.224-.007-.337-.009-3.539-.073-7.078-.174-10.618-.209a4.722,4.722,0,0,0-4.524,4.5c-.02,11.116.027,22.233-.038,33.349-.011,1.835,2.74,4.8,4.692,4.625,1.707-.153,3.442.034,5.161-.024,3.377-.114,6.751-.288,10.126-.451,1.368-.066,2.734-.171,4.1-.258l2.96-.095,10.024.014,2.515.081c3.15.164,6.3.361,9.451.484,2.978.116,5.965.071,8.938.253a5.468,5.468,0,0,0,5.81-5.42q.008-15.946.017-31.892l-.179-.2a26.956,26.956,0,0,1-10.455-1.836c-.068-.026-.16-.012-.212-.053-2.5-2.022-5.064-.985-7.654-.218a8.806,8.806,0,0,1-3.394.606,3.4,3.4,0,0,1-3-3.824,4,4,0,0,0-.023-.782c.534-1.87,1.049-3.746,1.612-5.608a2.213,2.213,0,0,0-.2-1.817A24.053,24.053,0,0,1,41.1,26.007a25.167,25.167,0,0,1,3.374-13.544A23.777,23.777,0,0,1,60.28.651,22.027,22.027,0,0,1,65.268,0,25.3,25.3,0,0,1,80.894,5.036,24.462,24.462,0,0,1,89.819,18.28a32.767,32.767,0,0,1,.743,5.421A22.4,22.4,0,0,1,87.8,36.5,23.676,23.676,0,0,1,77.538,46.753c-2.075,1.069-4.313,1.821-6.578,2.759V62.894c0,6.177.047,12.355-.017,18.532a9.12,9.12,0,0,1-5.475,8.787,8.306,8.306,0,0,1-3.159.712c-2.767.1-5.542.1-8.309.009-5-.166-10-.5-15.008-.628-4.393-.109-8.791-.079-13.185,0-3.26.055-6.516.3-9.776.424a76.028,76.028,0,0,1-8.365.17,7.963,7.963,0,0,1-6.349-4.125A9.277,9.277,0,0,1,0,81.761Q.076,65.588.012,49.414a8.584,8.584,0,0,1,5.174-7.39,13,13,0,0,1,4.052-.686c2.713-.046,5.431.09,8.145.2,3.186.123,6.369.3,9.554.439a2.167,2.167,0,0,1,2.343,1.8m16.712.867a4.726,4.726,0,0,0,1.1-.012c1.78-.488,3.559-.985,5.321-1.534a3.589,3.589,0,0,1,3.144.377,18.953,18.953,0,0,0,9.231,2.752,22.772,22.772,0,0,0,9.7-1.923,19.4,19.4,0,0,0,9.172-7.63A21.824,21.824,0,0,0,86.5,19.949a19.693,19.693,0,0,0-7.566-12,21.069,21.069,0,0,0-9.051-3.9,21.43,21.43,0,0,0-9.068.111,20.35,20.35,0,0,0-11.748,7.777A21.632,21.632,0,0,0,44.54,24.94,19.375,19.375,0,0,0,47.272,35.1a4.3,4.3,0,0,1,.315,3.675c-.558,1.907-1.046,3.834-1.594,5.863" transform="translate(0 0)" fill="#010101"/>
        <path id="Trazado_277966" data-name="Trazado 277966" d="M153.392,189.814a1.769,1.769,0,0,1-1.872,1.358,1.521,1.521,0,0,1-1.574-1.358c0-.149,0-.3,0-.448a1.52,1.52,0,0,1,1.777-1.579,1.488,1.488,0,0,1,1.664,1.578q0,.224.008.449" transform="translate(-116.253 -145.594)" fill="#030303"/>
        <path id="Trazado_277967" data-name="Trazado 277967" d="M165.266,195.266q0-.224-.008-.449l4.464.016c-.293.145-.582.4-.881.415-1.19.048-2.384.019-3.576.018" transform="translate(-128.127 -151.045)" fill="#ddbeef"/>
        <path id="Trazado_277968" data-name="Trazado 277968" d="M136.693,194.788l0,.448-3.843-.044a3.031,3.031,0,0,1,.927-.384c.969-.051,1.942-.02,2.913-.02" transform="translate(-103.003 -151.016)" fill="#ddbeef"/>
        <path id="Trazado_277969" data-name="Trazado 277969" d="M131.536,195.843l-.229-.237.229.237" transform="translate(-101.805 -151.657)" fill="#ddbeef"/>
        <path id="Trazado_277970" data-name="Trazado 277970" d="M86.77,251.811c.118-2.971,1.878-4.506,4.571-5.224.3.007.595.021.892.021l21.8.027a9.023,9.023,0,0,1,2.641,1.285,15.051,15.051,0,0,1,1.9,2.992l.131.694q.013,5.8.026,11.591l-.151.286a5.52,5.52,0,0,1-4.1,4.325l-.245.168L96.6,267.939c-1.31,0-2.629-.1-3.928.02a5.344,5.344,0,0,1-5.9-5.368q0-5.39,0-10.779m3.654.226c-.016,3.554-.058,7.109-.034,10.663.007,1.1.739,1.673,1.91,1.674q10.277.007,20.554,0a2.052,2.052,0,0,0,2.3-2.328q.03-4.83,0-9.659c-.009-1.558-.691-2.213-2.255-2.218q-4.324-.013-8.648,0-6.006.019-12.012.058l-.227.01c-.953.095-1.7.4-1.58,1.571,0,.077-.007.154-.01.231" transform="translate(-67.273 -191.183)"/>
        <path id="Trazado_277971" data-name="Trazado 277971" d="M298.514,222.866l-.017,31.892a2.822,2.822,0,0,1-.364-.924q-.029-14.946-.007-29.893a5.567,5.567,0,0,1,.214-1.078l.174,0" transform="translate(-231.135 -172.789)" fill="#d9b4ed"/>
        <path id="Trazado_277972" data-name="Trazado 277972" d="M129.815,245.272l-21.8-.027c-.3,0-.595-.014-.892-.021a2.694,2.694,0,0,1,.91-.379q10.455-.033,20.909,0c.291,0,.582.277.872.425" transform="translate(-83.054 -189.82)" fill="#dab6ef"/>
        <path id="Trazado_277973" data-name="Trazado 277973" d="M85.477,269.839q0,5.39,0,10.779c-.124-.271-.355-.542-.357-.815q-.039-4.575,0-9.151c0-.272.233-.543.358-.814" transform="translate(-65.979 -209.211)" fill="#dab6ef"/>
        <path id="Trazado_277974" data-name="Trazado 277974" d="M126.081,384.045l-2.96.095a2.967,2.967,0,0,1,2.96-.095" transform="translate(-95.458 -297.489)" fill="#dab6ef"/>
        <path id="Trazado_277975" data-name="Trazado 277975" d="M183.426,383.95l-2.515-.082a1.971,1.971,0,0,1,2.515.082" transform="translate(-140.263 -297.299)" fill="#dab6ef"/>
        <path id="Trazado_277976" data-name="Trazado 277976" d="M228.441,266.53l-.131-.694.131.694" transform="translate(-177.013 -206.107)" fill="#dbb7f0"/>
        <path id="Trazado_277977" data-name="Trazado 277977" d="M299.263,222.177l-.174,0a1.238,1.238,0,0,0-.005-.2l.179.2" transform="translate(-231.885 -172.1)" fill="#b193c2"/>
        <path id="Trazado_277978" data-name="Trazado 277978" d="M228.338,320.8l.151-.286-.151.286" transform="translate(-177.034 -248.502)" fill="#dbb7f0"/>
        <path id="Trazado_277979" data-name="Trazado 277979" d="M208.982,341.209l.245-.168-.245.168" transform="translate(-162.027 -264.415)" fill="#e3bdf8"/>
        <path id="Trazado_277980" data-name="Trazado 277980" d="M199.679,57.1c.548-2.03,1.036-3.956,1.594-5.863a4.3,4.3,0,0,0-.315-3.675A19.374,19.374,0,0,1,198.226,37.4a21.634,21.634,0,0,1,4.529-13.011A20.351,20.351,0,0,1,214.5,16.613a21.432,21.432,0,0,1,9.068-.111,21.067,21.067,0,0,1,9.051,3.9,19.693,19.693,0,0,1,7.566,12,21.826,21.826,0,0,1-2.847,16.719,19.4,19.4,0,0,1-9.172,7.63,22.774,22.774,0,0,1-9.7,1.923,18.953,18.953,0,0,1-9.231-2.752,3.59,3.59,0,0,0-3.144-.377c-1.762.549-3.541,1.046-5.321,1.534a4.714,4.714,0,0,1-1.1.012m14.038-5.083c-.036,1.812.269,2.187,2.048,2.669a15.1,15.1,0,0,0,7.637-.03,17.88,17.88,0,0,0,11.133-7.809A16.715,16.715,0,0,0,237.1,34.91a17.128,17.128,0,0,0-9.715-13.473,17.568,17.568,0,0,0-10.25-1.634,16.289,16.289,0,0,0-11.274,6.352,18.414,18.414,0,0,0-3.905,9.82,14.683,14.683,0,0,0,.821,7,35.077,35.077,0,0,0,3.464,6.067c1.06,1.617,1.835,1.675,3.6.675l3.875,2.3" transform="translate(-153.686 -12.461)" fill="#e0ef9b"/>
        <path id="Trazado_277981" data-name="Trazado 277981" d="M104.714,262.564q6.006-.03,12.012-.058,4.324-.014,8.648,0c1.565,0,2.247.66,2.255,2.218q.027,4.829,0,9.659a2.053,2.053,0,0,1-2.3,2.328q-10.277.008-20.554,0c-1.171,0-1.9-.578-1.91-1.674-.024-3.554.018-7.109.034-10.663,0-.077.007-.154.01-.231-.116-1.17.627-1.476,1.58-1.571l.227-.01" transform="translate(-79.747 -203.52)" fill="#b278d3"/>
        <path id="Trazado_277982" data-name="Trazado 277982" d="M110.34,262.785l-.227.01.227-.01" transform="translate(-85.372 -203.742)" fill="#c383e7"/>
        <path id="Trazado_277983" data-name="Trazado 277983" d="M103.05,269.819c0,.077-.007.154-.01.231,0-.077.007-.154.01-.231" transform="translate(-79.889 -209.195)" fill="#c383e7"/>
        <path id="Trazado_277984" data-name="Trazado 277984" d="M222.374,62.062c-1.768,1-2.543.942-3.6-.675a35.077,35.077,0,0,1-3.464-6.067,14.683,14.683,0,0,1-.821-7,18.414,18.414,0,0,1,3.905-9.82,16.289,16.289,0,0,1,11.274-6.352,17.568,17.568,0,0,1,10.25,1.634,17.128,17.128,0,0,1,9.715,13.473,16.715,16.715,0,0,1-2.564,11.932A17.879,17.879,0,0,1,235.934,67a15.1,15.1,0,0,1-7.637.031c-1.779-.481-2.083-.856-2.048-2.669a2.29,2.29,0,0,1,2.427-.863,12.8,12.8,0,0,0,9.191-.878c4.4-2.2,7.365-5.593,8.17-10.656a13.445,13.445,0,0,0-1.487-9.124,13.641,13.641,0,0,0-10.576-7.122,13.9,13.9,0,0,0-9.42,1.9,14.1,14.1,0,0,0-6.584,10.822,13.3,13.3,0,0,0,2.969,9.986c.7-.751,1.383-1.433,1.989-2.181a2.016,2.016,0,0,0,.37-1.077,30.005,30.005,0,0,1,.277-4.641c1.719-7.4,8.284-10.871,15.378-9.248a2.452,2.452,0,0,1,1.5,1.466,12.491,12.491,0,0,1-1.009,9.347c-2.26,4.429-8.1,7.322-12.763,6.407a1.426,1.426,0,0,0-1.1.293c-1.107,1.052-2.148,2.174-3.212,3.271m4.414-10.218.444.211c1.144-1.17,2.276-2.352,3.436-3.506a1.856,1.856,0,0,1,2.588-.233,1.728,1.728,0,0,1,.141,2.558,26.144,26.144,0,0,1-1.854,1.948q-.9.935-1.812,1.866a1.405,1.405,0,0,0,.985.085,9.136,9.136,0,0,0,6.745-7.851c.307-1.846-.029-2.357-1.647-2.526a8.2,8.2,0,0,0-.942.136,7.951,7.951,0,0,0-7.019,4.43,17.825,17.825,0,0,0-1.063,2.884" transform="translate(-166.217 -24.806)" fill="#010101"/>
        <path id="Trazado_277985" data-name="Trazado 277985" d="M234.412,74.422c1.064-1.1,2.1-2.219,3.212-3.271a1.425,1.425,0,0,1,1.1-.293c4.663.915,10.5-1.977,12.763-6.407a12.49,12.49,0,0,0,1.009-9.347,2.452,2.452,0,0,0-1.5-1.466c-7.094-1.622-13.659,1.851-15.378,9.248a30.005,30.005,0,0,0-.277,4.641,2.016,2.016,0,0,1-.37,1.077c-.606.748-1.294,1.43-1.989,2.181a13.3,13.3,0,0,1-2.969-9.986,14.1,14.1,0,0,1,6.584-10.822,13.9,13.9,0,0,1,9.42-1.9A13.641,13.641,0,0,1,256.587,55.2a13.445,13.445,0,0,1,1.487,9.124c-.8,5.063-3.771,8.458-8.17,10.656a12.8,12.8,0,0,1-9.191.878,2.29,2.29,0,0,0-2.427.863l-3.875-2.3" transform="translate(-178.255 -37.166)" fill="#fefefe"/>
        <path id="Trazado_277986" data-name="Trazado 277986" d="M269.581,94.618a17.826,17.826,0,0,1,1.063-2.884,7.951,7.951,0,0,1,7.019-4.43,8.2,8.2,0,0,1,.942-.136c1.618.169,1.955.68,1.647,2.526a9.136,9.136,0,0,1-6.745,7.851,1.405,1.405,0,0,1-.985-.085q.906-.933,1.812-1.866a26.145,26.145,0,0,0,1.854-1.948,1.728,1.728,0,0,0-.141-2.558,1.856,1.856,0,0,0-2.588.233c-1.16,1.154-2.292,2.336-3.436,3.506l-.444-.211" transform="translate(-209.011 -67.58)" fill="#cae457"/>
      </g>
    </g>
  </g>
</svg>
