<svg xmlns="http://www.w3.org/2000/svg" xmlns:xlink="http://www.w3.org/1999/xlink" width="85.145" height="86.032" viewBox="0 0 85.145 86.032">
  <defs>
    <clipPath id="clip-path">
      <rect id="Rectángulo_325010" data-name="Rectángulo 325010" width="85.145" height="86.032" fill="none"/>
    </clipPath>
  </defs>
  <g id="Grupo_261795" data-name="Grupo 261795" transform="translate(-180 -5125.824)">
    <g id="Grupo_260742" data-name="Grupo 260742" transform="translate(180 5125.824)">
      <g id="Grupo_260741" data-name="Grupo 260741" clip-path="url(#clip-path)">
        <path id="Trazado_278454" data-name="Trazado 278454" d="M238.985,194.011l-.794,2.669c-1.183-.262-1.746.392-2.228,1.363-2.783,5.6-5.6,11.182-8.413,16.77a31.516,31.516,0,0,1-16.718-9.279,32.155,32.155,0,0,1-6.2-9.1,35.173,35.173,0,0,1-3.112-13.757,43.432,43.432,0,0,1,.452-5.263,11.247,11.247,0,0,1,8.971,1.626c2.689,1.812,4.194,1.847,6.864.031,3.356-2.283,6.956-2.382,10.7-1.32a12.736,12.736,0,0,1,7.013,4.948,12.265,12.265,0,0,1,2.418,8.86c-.155,1.227.032,1.917,1.051,2.453m-3.688-3.58a10.823,10.823,0,0,0-2.357-6.391,11.035,11.035,0,0,0-8.788-4.114c-.427-.013-1.051.564-1.253,1.015a1.4,1.4,0,0,0,.447,1.308,7.2,7.2,0,0,0,2.494.766c3.434.383,7.147,4.114,6.34,8.4a2.027,2.027,0,0,0,.82,1.543,1.452,1.452,0,0,0,1.424-.162,11.208,11.208,0,0,0,.873-2.368" transform="translate(-155.808 -136.931)" fill="#f89c8d"/>
        <path id="Trazado_278455" data-name="Trazado 278455" d="M55.756,93.962l-3.213.139c-.2-1.2-1.025-1.425-2.073-1.424-10.958.011-21.917-.059-32.874.046a4.838,4.838,0,0,1-5.231-5.214c.07-23.276.038-46.553.038-69.83,0-.3-.008-.6,0-.907a4.226,4.226,0,0,1,3.9-4.253c2.482-.135,4.979.007,7.469.029a.24.24,0,0,1,.029.144.163.163,0,0,0-.07.177q0,1.824,0,3.648a.451.451,0,0,0-.012.2q-2.492.021-4.983.041c-1.549.012-2.035.486-2.037,2.023q-.006,5.779,0,11.558,0,6.572,0,13.144c0,.939.159,1.757,1.336,1.839l.237.01,6.167.1-.059.333.258,2.445c-2.072.018-4.145.024-6.217.058-1.25.02-1.7.41-1.712,1.589q-.046,4.128,0,8.257c.008.821.33,1.479,1.307,1.518l8.886,0,1.1-.8a.16.16,0,0,1,.151.066c.268.337.562.658.8,1.015,1.135,1.705,2.254,3.42,3.379,5.132l.16.191q.029,3.647.057,7.293c0,.076.007.153.011.229-.012,1.052.725,1.224,1.525,1.235,1.774.026,3.548.032,5.321-.008a5.359,5.359,0,0,0,1.28-.352l6.208,3.944c.552,1.062,1.09,2.133,1.66,3.186,2.384,4.409,4,9.24,7.2,13.2M22.519,62.574c-1.322,0-2.645-.01-3.967,0s-1.842.545-1.848,1.868c-.01,2.532-.006,5.063,0,7.595,0,1.528.5,2.031,2.036,2.037q3.684.013,7.368,0c1.563,0,2.043-.413,2.076-2.006.054-2.606.042-5.214.013-7.821a1.526,1.526,0,0,0-1.709-1.671c-1.322-.022-2.645-.005-3.967-.006m-.135,27.208c1.36,0,2.72.01,4.079,0a1.577,1.577,0,0,0,1.732-1.652q.045-4.079,0-8.159a1.47,1.47,0,0,0-1.655-1.588c-2.757-.006-5.515,0-8.272,0a1.366,1.366,0,0,0-1.545,1.436c-.044,2.832-.049,5.666,0,8.5A1.359,1.359,0,0,0,18.3,89.8c1.358-.054,2.719-.013,4.079-.013m15.616,0c1.4,0,2.791.018,4.186-.005,1.2-.02,1.71-.526,1.718-1.734q.026-4.017,0-8.034c-.007-1.125-.468-1.614-1.564-1.623q-4.13-.034-8.26,0c-1.172.01-1.559.4-1.568,1.584q-.033,4.073,0,8.147c.007,1.187.469,1.643,1.643,1.661,1.282.02,2.565,0,3.847,0" transform="translate(-9.56 -9.636)" fill="#93999a"/>
        <path id="Trazado_278456" data-name="Trazado 278456" d="M14.215,2.913c-2.49-.022-4.988-.164-7.469-.029a4.226,4.226,0,0,0-3.9,4.253c-.012.3,0,.6,0,.907,0,23.277.032,46.553-.038,69.83a4.838,4.838,0,0,0,5.231,5.213c10.957-.105,21.916-.035,32.874-.046,1.049,0,1.877.228,2.074,1.424-.248,1.123-1.017,1.412-2.074,1.41-11.187-.016-22.376-.091-33.562.03A7.159,7.159,0,0,1,.079,79.856c-.065-.65-.052-1.309-.052-1.965Q.025,42.458,0,7.025a7.1,7.1,0,0,1,6.671-7C7.086.005,7.5.007,7.918.007Q34.394.006,60.87,0a7.439,7.439,0,0,1,7.883,7.847q-.032,7.2.006,14.4a1.851,1.851,0,0,1-1.528,2.127c-1.013-.169-1.4-.736-1.389-1.787.041-4.968.09-9.938-.01-14.9-.059-2.869-1.132-4.11-3.611-4.722l-.289-.149-.384.073c-.15-.014-.3-.041-.45-.041q-22.906,0-45.812,0c-.15,0-.3.026-.45.04l-.619.029" transform="translate(0 0)" fill="#333"/>
        <path id="Trazado_278457" data-name="Trazado 278457" d="M155.572,176.806c-3.209-3.959-4.82-8.79-7.2-13.2-.57-1.053-1.107-2.124-1.66-3.187l-4.346-8.923-.9-4.54.67-5.62.232-.684c.23-.45.457-.9.69-1.35,2.539-4.88,6.259-8.15,11.85-9.185a15.265,15.265,0,0,1,7.876.457,38.7,38.7,0,0,1,3.818,1.762v-5.526c.053-.482.09-.965.162-1.444.281-1.892,1.548-3.163,2.814-4.433a7.442,7.442,0,0,1,4.614-1.189,11.772,11.772,0,0,0,1.992-.138c1.887.025,3.774.066,5.661.068,1.259,0,1.864.4,1.824,1.744a9.341,9.341,0,0,1-4.092,7.743c-.207.149-.385.338-.677.6,1.184.229,2.284.433,3.38.655a14.756,14.756,0,0,1,5.992,2.958,15.444,15.444,0,0,1,5.625,8.563,13.075,13.075,0,0,1,.406,6.262,1.587,1.587,0,0,1-1.743,1.36c-1.019-.537-1.205-1.227-1.051-2.453a12.266,12.266,0,0,0-2.418-8.86,12.738,12.738,0,0,0-7.013-4.948c-3.741-1.061-7.34-.962-10.7,1.321-2.67,1.816-4.175,1.781-6.864-.031a11.246,11.246,0,0,0-8.972-1.626,4.566,4.566,0,0,0-.891.045,13.413,13.413,0,0,0-7.487,5.051,12.428,12.428,0,0,0-2.756,7.9,17.738,17.738,0,0,0,2.248,7.876c3.245,6.334,6.374,12.728,9.578,19.083a4.689,4.689,0,0,0,7.637,1.173c1.056-1.1,1.926-2.379,2.923-3.54a1.465,1.465,0,0,1,2.583.113q1.031,1.4,2.08,2.779c1.76,2.317,4.834,2.891,7,.968,1.166-1.035,1.794-2.677,2.664-4.045,2.809-5.588,5.63-11.169,8.413-16.77.483-.971,1.046-1.625,2.228-1.363.894.751.84,1.545.331,2.553-3.308,6.552-6.48,13.174-9.877,19.68a6.992,6.992,0,0,1-6.123,3.842,8.009,8.009,0,0,1-5.331-1.466l-2.727-3.074-2.6,3.075c-.969.412-1.938.827-2.908,1.236-2.226.939-4.223.24-6.164-.865-.255-.145-.523-.269-.784-.4m24.888-54.265c-2.218-.007-4.438-.064-6.655,0a3.509,3.509,0,0,0-3.374,1.713c-.364.988-.795,1.957-1.07,2.969-.225.826.144,1.248,1.088,1.183,1.088-.074,2.19.043,3.278-.029,2.761-.184,5.652-1.866,6.536-4.513l.392-1.152-.2-.168m-8.945,8.628h-2.107v1.372l2.107-1.372" transform="translate(-109.376 -92.48)" fill="#333"/>
        <path id="Trazado_278458" data-name="Trazado 278458" d="M115.119,36.716a11.725,11.725,0,0,1-1.992.138,7.445,7.445,0,0,0-4.614,1.189q-.115-1.7-.231-3.4c.808-.327,1.592-.686,1.593-1.741,0-4.834.029-9.668-.02-14.5-.009-.9-.443-1.677-1.577-1.632-.452-.014-.9-.039-1.355-.039q-18.5,0-37.005,0c-2.413,0-4.827.022-7.241.033l.021-.088-.207-.2q0-1.824,0-3.648l.07-.177a.24.24,0,0,0-.029-.144l.62-.029a3.064,3.064,0,0,0,.954.345q22.4.026,44.8,0a3.1,3.1,0,0,0,.955-.344l.384-.073.289.149c2.479.611,3.553,1.852,3.611,4.722.1,4.966.051,9.936.01,14.9-.009,1.051.376,1.618,1.389,1.787l-.43,2.754" transform="translate(-48.318 -9.588)" fill="#d0d8da"/>
        <path id="Trazado_278459" data-name="Trazado 278459" d="M247.131,361.448l2.6-3.075,2.727,3.074h-5.331" transform="translate(-191.079 -277.09)" fill="#93999a"/>
        <path id="Trazado_278460" data-name="Trazado 278460" d="M191.15,215.889c-.87,1.368-1.5,3.01-2.664,4.045-2.166,1.923-5.239,1.349-7-.968q-1.05-1.382-2.08-2.779a1.465,1.465,0,0,0-2.583-.113c-1,1.161-1.867,2.439-2.923,3.54a4.689,4.689,0,0,1-7.637-1.173c-3.2-6.355-6.334-12.749-9.578-19.084a17.735,17.735,0,0,1-2.248-7.875,12.428,12.428,0,0,1,2.756-7.9,13.415,13.415,0,0,1,7.487-5.051,4.581,4.581,0,0,1,.891-.045,43.526,43.526,0,0,0-.451,5.263,35.172,35.172,0,0,0,3.112,13.757,32.144,32.144,0,0,0,6.2,9.1,31.514,31.514,0,0,0,16.718,9.28m-25.016-7.729c-.255.35-1.02.949-.953,1.43a2.015,2.015,0,0,0,1.384,1.4c.483.015,1.223-.787,1.433-1.378.261-.731-.6-1.46-1.865-1.457m4.622,5.8a1.216,1.216,0,0,0-1.272-1.491c-.8-.049-1.637.683-1.4,1.367.212.607.806,1.389,1.348,1.5a1.142,1.142,0,0,0,1.322-1.371" transform="translate(-119.408 -138.006)" fill="#f7664f"/>
        <path id="Trazado_278461" data-name="Trazado 278461" d="M308.067,200.071a11.209,11.209,0,0,1-.873,2.368,1.452,1.452,0,0,1-1.424.162,2.027,2.027,0,0,1-.82-1.543c.806-4.289-2.907-8.02-6.34-8.4a7.2,7.2,0,0,1-2.494-.766,1.4,1.4,0,0,1-.447-1.308c.2-.451.826-1.028,1.253-1.015a11.035,11.035,0,0,1,8.788,4.114,10.823,10.823,0,0,1,2.357,6.391" transform="translate(-228.577 -146.571)" fill="#323232"/>
        <path id="Trazado_278462" data-name="Trazado 278462" d="M84.3,31.316c1.134-.045,1.568.732,1.577,1.632.049,4.833.025,9.667.02,14.5,0,1.055-.785,1.414-1.593,1.741L83.142,47.8l-.028-.22,0-.481a2,2,0,0,0,.274-.669q.026-5.717,0-11.435c0-.275-.247-.548-.38-.822l-.279.025c-.263-.014-.526-.04-.789-.04q-21.1,0-42.2,0c-.263,0-.526.029-.789.044a.27.27,0,0,0-.218,0h-4.25V57.034h4.261c.452.011.9.03,1.357.03q18.1,0,36.209,0a5.746,5.746,0,0,1,.9.011c.8.128,1.434.451,1.467,1.395L77.72,59.9l-.218-.07-.237.017c-.488.022-.977.063-1.465.063q-18.291.018-36.581.029l-6.167-.1-.237-.01c-1.176-.082-1.336-.9-1.336-1.839q0-6.572,0-13.144,0-5.779,0-11.558c0-1.537.488-2.012,2.037-2.023q2.492-.018,4.983-.041l.11.026.11-.024-.021.088a2.914,2.914,0,0,0,.947.367q21.856.028,43.712,0a2.926,2.926,0,0,0,.942-.361" transform="translate(-24.338 -24.139)" fill="#323232"/>
        <path id="Trazado_278463" data-name="Trazado 278463" d="M103.905,152.8l.945-1.429h2.893V156.9a38.65,38.65,0,0,0-3.819-1.762,15.262,15.262,0,0,0-7.876-.457c-5.591,1.035-9.31,4.305-11.849,9.185-.233.448-.46.9-.69,1.35q-.021-.449-.042-.9.012-2.151.024-4.3c1.322-.605,1.711-1.37,1.343-3.027-.244-1.1-1.1-1.346-2.156-1.326-2.483.046-4.968.05-7.45,0a1.653,1.653,0,0,0-1.806,1.149c-.12.241-.34.48-.343.722q-.037,3.93,0,7.86c0,.237.235.471.361.707.494.38.943.972,1.494,1.09a6.106,6.106,0,0,0,2.677.005c1.042-.26,2.513.274,2.986-1.315l2.68.023q-.335,2.81-.67,5.62l-2.019-.188a1.464,1.464,0,0,0-1.652-1.162c-1.318.062-2.643.063-3.96,0a1.418,1.418,0,0,0-1.647,1.152l-.037,1.129h0c-1.125-1.712-2.244-3.427-3.379-5.132-.238-.358-.532-.678-.8-1.015l-.014-9.039c-.02-1.124-.712-1.528-1.713-1.584-.594-.033-1.189-.04-1.784-.059l-.258-2.445q18.637,0,37.274-.017a5.03,5.03,0,0,0,1.287-.355" transform="translate(-50.523 -117.038)" fill="#cfd8da"/>
        <path id="Trazado_278464" data-name="Trazado 278464" d="M37.287,233.383c1.323,0,2.645-.017,3.967.005a1.526,1.526,0,0,1,1.709,1.671c.029,2.607.041,5.215-.013,7.821-.033,1.593-.513,2-2.076,2.006q-3.684.01-7.368,0c-1.535-.006-2.033-.509-2.036-2.037,0-2.532-.009-5.063,0-7.595.005-1.323.536-1.856,1.848-1.868s2.645,0,3.967,0m1.643,8.563h1.064v-5.591H34.415v5.591Z" transform="translate(-24.329 -180.445)" fill="#323232"/>
        <path id="Trazado_278465" data-name="Trazado 278465" d="M37.113,314.482c-1.36,0-2.722-.041-4.079.013a1.359,1.359,0,0,1-1.581-1.484c-.052-2.832-.046-5.666,0-8.5A1.366,1.366,0,0,1,33,303.077c2.758,0,5.515,0,8.273,0a1.47,1.47,0,0,1,1.655,1.588q.04,4.079,0,8.159a1.576,1.576,0,0,1-1.731,1.651c-1.36.014-2.72,0-4.08,0m-2.739-7.272v4.333h5.592v-5.6H34.375Z" transform="translate(-24.291 -234.336)" fill="#323232"/>
        <path id="Trazado_278466" data-name="Trazado 278466" d="M106.624,314.452c-1.282,0-2.565.015-3.847,0-1.174-.018-1.635-.474-1.643-1.661q-.025-4.073,0-8.147c.01-1.181.4-1.575,1.568-1.585q4.13-.035,8.26,0c1.1.009,1.557.5,1.564,1.623q.026,4.017,0,8.034c-.008,1.208-.516,1.715-1.718,1.734-1.4.023-2.791.005-4.186,0m2.927-2.81.067-.367c.049-.014.1-.028.147-.041l-.016-.022c.088.081.054.049.019.017q0-2.46,0-4.921l-.022.02.019-.025q-.076-.019-.149-.044c-.213-.13-.425-.369-.64-.372-1.386-.02-2.773.012-4.159.027h-.479l-.338.343q-.03.685-.061,1.369.1,2.019.2,4.037l.225.017,3.621-.164,1.337.013a.44.44,0,0,1,.034.138l.193-.026" transform="translate(-78.186 -234.306)" fill="#323232"/>
        <path id="Trazado_278467" data-name="Trazado 278467" d="M39.38,170.092c.595.019,1.19.026,1.784.059,1,.056,1.693.46,1.713,1.584a3.525,3.525,0,0,0-.329.966q-.06,1.753-.009,3.51c.042,1.5.132,3,.2,4.5l-1.1.8a2.367,2.367,0,0,0-.708-.246q-3.736-.027-7.471,0a2.342,2.342,0,0,0-.707.249c-.977-.04-1.3-.7-1.306-1.518q-.042-4.128,0-8.257c.013-1.179.462-1.568,1.712-1.589,2.072-.034,4.145-.04,6.217-.058m-4.785,2.995-.208.224,0,1.136V178.7h5.617v-5.4l-.2-.22-5.216,0" transform="translate(-24.301 -131.513)" fill="#323333"/>
        <path id="Trazado_278468" data-name="Trazado 278468" d="M100.554,235.378a1.418,1.418,0,0,1,1.647-1.152c1.318.063,2.643.063,3.96,0a1.464,1.464,0,0,1,1.652,1.162,1.754,1.754,0,0,1-1.952,1.573c-.779.005-1.558,0-2.359,0v1.79l0,1.832v2h2.02l2.684.1.235.129.917,1.387-.484.894a5.379,5.379,0,0,1-1.28.352c-1.773.04-3.548.033-5.321.008-.8-.012-1.537-.183-1.525-1.235,0-.076-.007-.153-.011-.229q-.028-3.646-.057-7.293a.239.239,0,0,0,.017-.161c.342-.433.531-.847-.14-1.158" transform="translate(-77.747 -181.098)" fill="#323232"/>
        <path id="Trazado_278469" data-name="Trazado 278469" d="M103.905,157.431a5.031,5.031,0,0,1-1.287.355q-18.637.03-37.274.017l.059-.333q18.291-.013,36.581-.029c.488,0,.977-.041,1.465-.063l.237-.017.218.071" transform="translate(-50.523 -121.669)" fill="#d9e2e4"/>
        <path id="Trazado_278470" data-name="Trazado 278470" d="M137.222,265.185l.484-.894c1.368.022,1.368.022,1.335-1.537q.022-1.274.043-2.548l4.346,8.923-6.208-3.944" transform="translate(-106.099 -201.188)" fill="#cfd8da"/>
        <path id="Trazado_278471" data-name="Trazado 278471" d="M80.535,186.309c-.069-1.5-.159-3-.2-4.5q-.049-1.754.009-3.51a3.508,3.508,0,0,1,.329-.967q.007,4.52.014,9.039a.161.161,0,0,0-.151-.066" transform="translate(-62.096 -137.114)" fill="#262525"/>
        <path id="Trazado_278472" data-name="Trazado 278472" d="M37.29,219.556a2.334,2.334,0,0,1,.707-.249q3.735-.028,7.471,0a2.366,2.366,0,0,1,.708.246l-8.886,0" transform="translate(-28.832 -169.555)" fill="#2a2929"/>
        <path id="Trazado_278473" data-name="Trazado 278473" d="M101.346,277.289c0,.076.007.153.011.229,0-.076-.007-.153-.011-.229" transform="translate(-78.36 -214.397)" fill="#262525"/>
        <path id="Trazado_278474" data-name="Trazado 278474" d="M37.368,157.337l.237.01-.237-.01" transform="translate(-28.893 -121.651)" fill="#262525"/>
        <path id="Trazado_278475" data-name="Trazado 278475" d="M62.637,30.545l-.11.024-.11-.025a.455.455,0,0,1,.012-.2l.207.2" transform="translate(-48.257 -23.462)" fill="#d9e2e4"/>
        <path id="Trazado_278476" data-name="Trazado 278476" d="M62.548,13.48l-.07.177a.164.164,0,0,1,.07-.177" transform="translate(-48.304 -10.423)" fill="#d9e2e4"/>
        <path id="Trazado_278477" data-name="Trazado 278477" d="M100.565,244.322a.24.24,0,0,1-.017.161l-.16-.191h0q.089.012.177.029" transform="translate(-77.619 -188.884)" fill="#cfd8da"/>
        <path id="Trazado_278478" data-name="Trazado 278478" d="M112.118,12.574a3.084,3.084,0,0,1-.955.344q-22.4.026-44.8,0a3.06,3.06,0,0,1-.954-.345c.15-.014.3-.04.45-.04q22.906,0,45.812,0c.15,0,.3.027.45.041" transform="translate(-50.57 -9.69)" fill="#d9e2e4"/>
        <path id="Trazado_278479" data-name="Trazado 278479" d="M273.343,12.549l-.289-.149.289.149" transform="translate(-211.122 -9.588)" fill="#262525"/>
        <path id="Trazado_278480" data-name="Trazado 278480" d="M106.238,68.493h-2.893c-.033-.944-.671-1.267-1.467-1.395a5.774,5.774,0,0,0-.9-.011q-18.1,0-36.209,0c-.452,0-.9-.02-1.357-.03Q63.4,55.745,63.4,44.434l.219-.206c.263-.015.526-.044.789-.044q21.1,0,42.2,0c.263,0,.526.026.789.04l.259.221c.019.754.047,1.508.054,2.262q.044,5.209.077,10.418,0,.241,0,.482l.028.22,1.16,1.386q.116,1.7.231,3.405c-1.266,1.27-2.532,2.541-2.814,4.433-.071.479-.109.963-.161,1.444M76.321,61.2l.269.238a5.39,5.39,0,0,0,.778.751c1.765,1.134,3.675.564,5.546.432l5.228.012,3.389-.011,3.813.176,1.585-.2,4.367.036,1.348-.018,3.609.24c0-4.118.174-8.008-.052-11.875a5.432,5.432,0,0,0-5.79-5.4c-11.811-.022-23.622,0-35.433.008l-.2.2.661,2.757a6.811,6.811,0,0,0-.643,1.926c-.065,3.428-.033,6.857-.027,10.287a4.409,4.409,0,0,0,.084,1.007,1.154,1.154,0,0,0,1.4.991c.685-.119,1.3-.4,1.237-1.308-.046-.724-.009-1.452-.009-2.162,1.139,1.058,2.171,2.032,3.22,2.986.773.7,1.569.743,2.149.007a1.451,1.451,0,0,0-.151-2.091c-.466-.472-.882-.993-1.321-1.492.325.152.654.294.973.457q2.006,1.022,4.006,2.054Z" transform="translate(-49.018 -34.161)" fill="#57b7eb"/>
        <path id="Trazado_278481" data-name="Trazado 278481" d="M120.785,244.088q-.022,1.274-.043,2.548l-2.252.15-.235-.13a7.159,7.159,0,0,1-4.4-3.8c-.032-.073-.2-.088-.3-.13v-1.79c.8,0,1.58,0,2.358,0a1.755,1.755,0,0,0,1.952-1.573l2.019.189.9,4.539" transform="translate(-87.8 -185.071)" fill="#aae1f8"/>
        <path id="Trazado_278482" data-name="Trazado 278482" d="M275.155,138.352c-.884,2.647-3.775,4.329-6.536,4.513-1.088.072-2.19-.045-3.278.029-.944.065-1.313-.357-1.088-1.184.275-1.012.707-1.981,1.071-2.969.3,1.077,1.265,1.1,2.075,1.16a12.082,12.082,0,0,0,7.757-1.55" transform="translate(-204.268 -106.972)" fill="#a0d41c"/>
        <path id="Trazado_278483" data-name="Trazado 278483" d="M279.023,133.749a12.082,12.082,0,0,1-7.757,1.55c-.811-.06-1.773-.083-2.075-1.16a3.508,3.508,0,0,1,3.374-1.713c2.217-.061,4.437,0,6.655,0l.2.168-.392,1.152" transform="translate(-208.136 -102.369)" fill="#c3f135"/>
        <path id="Trazado_278484" data-name="Trazado 278484" d="M120.751,195.091q.021.449.042.9l-.232.684-2.68-.022a1.593,1.593,0,0,0-1.874-1.6c-.809.02-1.62,0-2.443,0v-3.875c.414.552.819,1.112,1.245,1.656,1.525,1.946,3.641,2.35,5.942,2.258" transform="translate(-87.807 -147.816)" fill="#57b7eb"/>
        <path id="Trazado_278485" data-name="Trazado 278485" d="M266.789,170.577l-2.107,1.372v-1.372Z" transform="translate(-204.649 -131.888)" fill="#cfd8da"/>
        <path id="Trazado_278486" data-name="Trazado 278486" d="M313.6,132.7l-.2-.168.2.168" transform="translate(-242.322 -102.475)" fill="#a0d41c"/>
        <path id="Trazado_278487" data-name="Trazado 278487" d="M108.914,31.5a2.926,2.926,0,0,1-.942.361q-21.856.027-43.712,0a2.914,2.914,0,0,1-.947-.367c2.413-.012,4.827-.032,7.24-.033q18.5-.005,37.006,0c.452,0,.9.026,1.355.039" transform="translate(-48.953 -24.324)" fill="#2a2929"/>
        <path id="Trazado_278488" data-name="Trazado 278488" d="M202.75,309.306c1.263,0,2.125.726,1.865,1.457-.211.591-.951,1.392-1.433,1.378a2.015,2.015,0,0,1-1.384-1.4c-.067-.482.7-1.08.953-1.43" transform="translate(-156.024 -239.152)" fill="#333"/>
        <path id="Trazado_278489" data-name="Trazado 278489" d="M217.149,329.788a1.142,1.142,0,0,1-1.322,1.371c-.543-.107-1.136-.888-1.348-1.5-.239-.684.6-1.416,1.4-1.367a1.216,1.216,0,0,1,1.272,1.491" transform="translate(-165.801 -253.834)" fill="#333"/>
        <path id="Trazado_278490" data-name="Trazado 278490" d="M48.91,44.58q.006,11.311.012,22.623H44.66V44.371h4.25a1.314,1.314,0,0,0,0,.209" transform="translate(-34.531 -34.307)" fill="#4892d4"/>
        <path id="Trazado_278491" data-name="Trazado 278491" d="M258.671,57.18q-.038-5.209-.077-10.418c-.006-.754-.035-1.508-.054-2.262l.02-.246c.132.274.378.547.379.822q.038,5.717,0,11.434a2,2,0,0,1-.274.669" transform="translate(-199.9 -34.218)" fill="#262525"/>
        <path id="Trazado_278492" data-name="Trazado 278492" d="M233.588,157.36l-.237.017.237-.017" transform="translate(-180.425 -121.669)" fill="#262525"/>
        <path id="Trazado_278493" data-name="Trazado 278493" d="M259.168,103.585c-.01-.073-.019-.147-.028-.22.009.073.019.147.028.22" transform="translate(-200.364 -79.921)" fill="#262525"/>
        <path id="Trazado_278494" data-name="Trazado 278494" d="M257.677,44.255c-.007.082-.014.164-.02.246l-.259-.221.28-.025" transform="translate(-199.017 -34.218)" fill="#59c0f8"/>
        <path id="Trazado_278495" data-name="Trazado 278495" d="M63.383,44.506a1.312,1.312,0,0,1,0-.209.268.268,0,0,1,.218,0l-.219.206" transform="translate(-49.004 -34.233)" fill="#59c0f8"/>
        <path id="Trazado_278496" data-name="Trazado 278496" d="M103.82,175v3.876c.824,0,1.634.016,2.443,0a1.593,1.593,0,0,1,1.874,1.6c-.473,1.589-1.944,1.055-2.986,1.315a6.109,6.109,0,0,1-2.677-.005c-.551-.118-1-.711-1.494-1.09l.072-.221-.014-.232q0-4.192,0-8.384c0-.078.006-.156.008-.234l-.085-.219a1.652,1.652,0,0,1,1.806-1.149q3.724.079,7.45,0c1.054-.02,1.912.227,2.156,1.326.368,1.657-.022,2.422-1.343,3.027a1.555,1.555,0,0,1-1.571-1.447c-.084-.116-.171-.335-.253-.333-1.732.036-3.464.1-5.2.151l-.186.5L103.82,175" transform="translate(-78.063 -131.643)" fill="#323232"/>
        <path id="Trazado_278497" data-name="Trazado 278497" d="M119.2,183.087a1.554,1.554,0,0,0,1.571,1.448q-.012,2.151-.024,4.3c-2.3.092-4.417-.312-5.942-2.258-.426-.543-.831-1.1-1.245-1.656q0-.76.005-1.52c1.236-.012,2.474,0,3.709-.046a10.826,10.826,0,0,0,1.449-.243l.476-.026" transform="translate(-87.807 -141.561)" fill="#aae1f8"/>
        <path id="Trazado_278498" data-name="Trazado 278498" d="M99.73,175.327l.085.219q0,.117-.008.234,0,4.191,0,8.383.007.116.014.232l-.072.221c-.126-.236-.359-.47-.361-.707q-.039-3.93,0-7.86c0-.242.223-.481.343-.722" transform="translate(-76.83 -135.561)" fill="#d9e2e4"/>
        <path id="Trazado_278499" data-name="Trazado 278499" d="M100.565,240.475q-.088-.016-.177-.029l.037-1.129c.671.311.481.725.14,1.158" transform="translate(-77.619 -185.037)" fill="#262525"/>
        <path id="Trazado_278500" data-name="Trazado 278500" d="M44.47,247.817V246.5h5.58V252.1H48.985a6.572,6.572,0,0,1-4.515-4.278" transform="translate(-34.384 -190.594)" fill="#57b7eb"/>
        <path id="Trazado_278501" data-name="Trazado 278501" d="M44.47,252.294a6.572,6.572,0,0,0,4.515,4.278H44.47Z" transform="translate(-34.384 -195.071)" fill="#4892d4"/>
        <path id="Trazado_278502" data-name="Trazado 278502" d="M44.46,316.983v-1.266h5.592v5.6H48.3a7.993,7.993,0,0,1-3.842-4.333" transform="translate(-34.376 -244.109)" fill="#57b7eb"/>
        <path id="Trazado_278503" data-name="Trazado 278503" d="M44.46,321.3A7.993,7.993,0,0,0,48.3,325.63H44.46Z" transform="translate(-34.376 -248.423)" fill="#4892d4"/>
        <path id="Trazado_278504" data-name="Trazado 278504" d="M118.931,321.334l-1.337-.013c-1.6-.909-3.082-1.926-3.753-3.763-.025-.069-.194-.086-.3-.127q.03-.685.061-1.37l.337-.343h.479a3.281,3.281,0,0,0,.954.342c1.281.036,2.563.008,3.845,0q.074.025.149.044l0,.005q0,2.46,0,4.92l0,0-.147.041-.294.255" transform="translate(-87.792 -244.111)" fill="#57b7eb"/>
        <path id="Trazado_278505" data-name="Trazado 278505" d="M113.545,323.27c.1.041.271.058.3.127.67,1.837,2.156,2.854,3.753,3.763l-3.621.164-.225-.017q-.1-2.019-.2-4.037" transform="translate(-87.792 -249.949)" fill="#4892d4"/>
        <path id="Trazado_278506" data-name="Trazado 278506" d="M122.212,315.952c-1.282,0-2.564.032-3.845,0a3.272,3.272,0,0,1-.954-.342c1.386-.015,2.773-.047,4.159-.027.215,0,.427.242.64.372" transform="translate(-90.783 -243.998)" fill="#59c0f8"/>
        <path id="Trazado_278507" data-name="Trazado 278507" d="M137.291,339.606l.294-.255-.067.367a.257.257,0,0,0-.193.026.439.439,0,0,0-.034-.138" transform="translate(-106.152 -262.383)" fill="#59c0f8"/>
        <path id="Trazado_278508" data-name="Trazado 278508" d="M114.152,315.719l-.338.343.338-.343" transform="translate(-88 -244.111)" fill="#59c0f8"/>
        <path id="Trazado_278509" data-name="Trazado 278509" d="M139.167,317.3l-.019.025c.092-.084.057-.052.022-.02l0-.005" transform="translate(-107.588 -245.303)" fill="#262525"/>
        <path id="Trazado_278510" data-name="Trazado 278510" d="M139.185,339.1l-.019-.017.016.021,0,0" transform="translate(-107.602 -262.172)" fill="#262525"/>
        <path id="Trazado_278511" data-name="Trazado 278511" d="M114.44,341.069l.225.017-.225-.017" transform="translate(-88.484 -263.711)" fill="#2a2929"/>
        <path id="Trazado_278512" data-name="Trazado 278512" d="M137.441,340.969a.257.257,0,0,1,.193-.026l-.193.026" transform="translate(-106.268 -263.607)" fill="#2a2929"/>
        <path id="Trazado_278513" data-name="Trazado 278513" d="M50.085,183.517v5.4H48.98c-.643-.285-1.3-.545-1.925-.862-1.4-.711-1.91-2.122-2.587-3.4q0-.568,0-1.137l.208-.224,5.216,0,.2.22" transform="translate(-34.38 -141.722)" fill="#57b7eb"/>
        <path id="Trazado_278514" data-name="Trazado 278514" d="M44.478,189.292c.677,1.274,1.183,2.685,2.587,3.4.626.317,1.282.576,1.925.862H44.478Z" transform="translate(-34.39 -146.359)" fill="#4892d4"/>
        <path id="Trazado_278515" data-name="Trazado 278515" d="M44.673,183.3l-.208.224.208-.224" transform="translate(-34.38 -141.722)" fill="#59c0f8"/>
        <path id="Trazado_278516" data-name="Trazado 278516" d="M68.577,183.523l-.2-.22.2.22" transform="translate(-52.872 -141.728)" fill="#59c0f8"/>
        <path id="Trazado_278517" data-name="Trazado 278517" d="M113.542,254.193c.1.042.266.058.3.13a7.158,7.158,0,0,0,4.4,3.8l-2.684-.1-2.02-2q0-.916,0-1.832" transform="translate(-87.786 -196.539)" fill="#57b7eb"/>
        <path id="Trazado_278518" data-name="Trazado 278518" d="M135.312,271.591l2.252-.15c.033,1.56.033,1.56-1.335,1.537l-.917-1.387" transform="translate(-104.622 -209.875)" fill="#57b7eb"/>
        <path id="Trazado_278519" data-name="Trazado 278519" d="M113.538,262.27l2.02,2h-2.02Z" transform="translate(-87.786 -202.784)" fill="#4892d4"/>
        <path id="Trazado_278520" data-name="Trazado 278520" d="M70.132,53.313l-.661-2.757.2-.2c11.811-.006,23.622-.03,35.433-.008a5.433,5.433,0,0,1,5.79,5.4c.226,3.867.052,7.757.052,11.875l-3.609-.24.7-1.165c0-.082.008-.164.012-.245q0-5.66,0-11.32-.013-.119-.025-.239a1.387,1.387,0,0,0-1.784-1.086c-.74.145-.981.8-.976,1.559.019,3.665-.02,7.33.041,10.994.008.51.452,1.013.694,1.52l-4.367-.037c.23-.545.708-1.142.608-1.617-.079-.377-.84-.667-1.345-.887-.832-.364-1.514-.785-1.5-1.83q.021-2.039,0-4.079a2.885,2.885,0,0,0-.153-1.129A3.318,3.318,0,0,0,95.712,56c-1.075.113-2.157.186-3.237.223-1.022.035-1.693.524-1.7,1.33-.008.66.877,1.389,1.734,1.4,1.352.012,2.7,0,4.106,0v1.333c-1.154.089-2.266.158-3.373.269a2.26,2.26,0,0,0-1.055.289c-2.237,1.6-1.857,5.737.654,6.557l-5.229-.012a2.956,2.956,0,0,0,1.747-2.146c.137-.792.112-1.454-.8-1.836s-1.36.07-1.856.716a1.957,1.957,0,0,1-1.056.7,7.684,7.684,0,0,1-1.683-.011l-.166-.179V58.983h2.792c.034.123.071.254.106.385a1.265,1.265,0,0,0,1.761.893,1.319,1.319,0,0,0,.959-1.576,2.567,2.567,0,0,0-2.649-2.448q-1.7-.015-3.394,0a2.361,2.361,0,0,0-2.358,2.1c-.063,2.545.014,5.093.034,7.639q-2-1.028-4.006-2.054c-.319-.163-.648-.305-.973-.457-.227-.182-.452-.367-.682-.545-1.175-.907-1.188-1.109-.132-2.165a22.521,22.521,0,0,0,2.207-2.266,2.019,2.019,0,0,0,.282-1.66c-.126-.33-.942-.6-1.4-.541a3.015,3.015,0,0,0-1.357.866c-.869.77-1.693,1.591-2.536,2.391l-.275-.227q0-2.028,0-4.056c0-1.751-.274-2.015-2.041-1.946" transform="translate(-53.714 -38.923)" fill="#aae1f8"/>
        <path id="Trazado_278521" data-name="Trazado 278521" d="M165.246,86.594c-2.511-.819-2.891-4.961-.654-6.556a2.26,2.26,0,0,1,1.055-.289c1.107-.111,2.218-.18,3.373-.269V78.148c-1.4,0-2.755.009-4.106,0-.857-.008-1.742-.737-1.734-1.4.01-.806.68-1.295,1.7-1.33,1.08-.037,2.162-.11,3.237-.223a3.319,3.319,0,0,1,3.521,1.824,2.882,2.882,0,0,1,.153,1.129q.025,2.039,0,4.079c-.011,1.044.67,1.466,1.5,1.83.505.22,1.266.51,1.345.887.1.476-.379,1.072-.608,1.617l-1.585.2-2.041-1.02-1.772.845-3.389.011m.932-2.628c1.8.171,2.445-.165,2.812-1.462h-2.812Z" transform="translate(-126.12 -58.121)" fill="#323232"/>
        <path id="Trazado_278522" data-name="Trazado 278522" d="M70.058,63.415c1.767-.069,2.043.195,2.041,1.946q0,2.028,0,4.056l.275.227c.842-.8,1.666-1.621,2.536-2.391a3.015,3.015,0,0,1,1.357-.866c.462-.06,1.278.212,1.4.541a2.019,2.019,0,0,1-.282,1.66,22.518,22.518,0,0,1-2.207,2.266c-1.057,1.057-1.043,1.258.132,2.165.23.178.455.363.682.545.438.5.855,1.02,1.32,1.492a1.451,1.451,0,0,1,.151,2.091c-.579.736-1.375.7-2.149-.007-1.049-.954-2.081-1.928-3.221-2.986,0,.709-.037,1.438.01,2.161.058.911-.551,1.19-1.237,1.308a1.154,1.154,0,0,1-1.4-.991,4.384,4.384,0,0,1-.084-1.007c-.006-3.429-.038-6.859.027-10.287a6.818,6.818,0,0,1,.643-1.926" transform="translate(-53.64 -49.024)" fill="#323232"/>
        <path id="Trazado_278523" data-name="Trazado 278523" d="M123.228,84.883a7.655,7.655,0,0,0,1.683.011,1.956,1.956,0,0,0,1.056-.7c.5-.645.944-1.1,1.856-.716s.937,1.044.8,1.836a2.956,2.956,0,0,1-1.747,2.146c-1.871.132-3.781.7-5.546-.432a5.415,5.415,0,0,1-.778-.751l-.269-.238.03.011c-.02-2.547-.1-5.095-.033-7.639a2.361,2.361,0,0,1,2.357-2.1q1.7-.014,3.395,0a2.567,2.567,0,0,1,2.649,2.448,1.319,1.319,0,0,1-.959,1.576,1.264,1.264,0,0,1-1.761-.893c-.035-.131-.072-.262-.106-.385h-2.793V84.7l.166.179" transform="translate(-92.981 -59)" fill="#323232"/>
        <path id="Trazado_278524" data-name="Trazado 278524" d="M230.038,76.248l-.7,1.165-1.348.018c-.242-.506-.685-1.009-.693-1.52-.06-3.664-.022-7.329-.041-10.994,0-.763.236-1.414.976-1.559a1.387,1.387,0,0,1,1.784,1.086q.013.119.025.239,0,5.66,0,11.32c0,.082-.008.164-.012.245" transform="translate(-175.715 -48.955)" fill="#323232"/>
        <path id="Trazado_278525" data-name="Trazado 278525" d="M187.445,122.607l1.772-.845,2.041,1.02-3.813-.176" transform="translate(-144.931 -94.145)" fill="#9fdbf7"/>
        <path id="Trazado_278526" data-name="Trazado 278526" d="M120.379,119.222l.269.238-.269-.238" transform="translate(-93.076 -92.181)" fill="#aae1f8"/>
        <path id="Trazado_278527" data-name="Trazado 278527" d="M69.675,50.417l-.2.2.2-.2" transform="translate(-53.714 -38.982)" fill="#9fdbf7"/>
        <path id="Trazado_278528" data-name="Trazado 278528" d="M118.745,182.5a10.78,10.78,0,0,1-1.449.243c-1.235.045-2.473.034-3.709.046l.186-.5,4.973.207" transform="translate(-87.824 -140.944)" fill="#416b82"/>
        <path id="Trazado_278529" data-name="Trazado 278529" d="M119.379,181.979l-4.973-.207c1.732-.056,3.464-.116,5.2-.152.082,0,.169.217.253.333l-.476.026" transform="translate(-88.458 -140.427)" fill="#262525"/>
        <path id="Trazado_278530" data-name="Trazado 278530" d="M101.315,214.517q-.007-.116-.014-.232.007.116.014.232" transform="translate(-78.325 -165.683)" fill="#262525"/>
        <path id="Trazado_278531" data-name="Trazado 278531" d="M101.3,176.526q0-.117.008-.234,0,.117-.008.234" transform="translate(-78.323 -136.307)" fill="#262525"/>
        <path id="Trazado_278532" data-name="Trazado 278532" d="M132.8,113.5l-.166-.179.166.179" transform="translate(-102.547 -87.621)" fill="#9fdbf7"/>
        <path id="Trazado_278533" data-name="Trazado 278533" d="M239.508,119.5c0-.082.008-.164.012-.245,0,.082-.008.164-.012.245" transform="translate(-185.185 -92.204)" fill="#262525"/>
        <path id="Trazado_278534" data-name="Trazado 278534" d="M239.455,68.529l-.025-.239.025.239" transform="translate(-185.125 -52.801)" fill="#262525"/>
        <path id="Trazado_278535" data-name="Trazado 278535" d="M176.613,108.967v-1.462h2.812c-.367,1.3-1.014,1.633-2.812,1.462" transform="translate(-136.555 -83.122)" fill="#aae1f8"/>
      </g>
    </g>
  </g>
</svg>
