<svg xmlns="http://www.w3.org/2000/svg" xmlns:xlink="http://www.w3.org/1999/xlink" width="61.167" height="81.226" viewBox="0 0 61.167 81.226">
  <defs>
    <clipPath id="clip-path">
      <rect id="Rectángulo_324911" data-name="Rectángulo 324911" width="61.167" height="81.226" fill="none"/>
    </clipPath>
  </defs>
  <g id="Grupo_261795" data-name="Grupo 261795" transform="translate(-317.005 -5223.716)">
    <g id="Grupo_260498" data-name="Grupo 260498" transform="translate(317.005 5223.716)">
      <g id="Grupo_260498-2" data-name="Grupo 260498" clip-path="url(#clip-path)">
        <path id="Trazado_277987" data-name="Trazado 277987" d="M1.167,22.066A1.238,1.238,0,0,1,0,20.819c.018-1.128,0-2.256,0-3.384C.008,14.042,0,10.65.026,7.258a5.731,5.731,0,0,1,.26-1.475A8.343,8.343,0,0,1,1.644,3.118,7.734,7.734,0,0,1,4.749.662,7.161,7.161,0,0,1,7.08.053C7.492.014,7.908,0,8.322,0q24.152,0,48.3,0a4.318,4.318,0,0,1,4.185,2.7,5.674,5.674,0,0,1,.327,1.51,10.609,10.609,0,0,1,.016,1.3q0,14.953,0,29.905a1.265,1.265,0,0,1-.6,1.273,2.775,2.775,0,0,1-.565.163,1.836,1.836,0,0,1-.314-.041,1.192,1.192,0,0,1-.895-1.282q0-14.989,0-29.977,0-.589-.006-1.178a1.922,1.922,0,0,0-1.745-1.958c-1-.061-2-.015-3-.015-.2-.007-.4-.021-.6-.021H9.566c-.483,0-.483,0-.483.468q0,31.132,0,62.263c0,.081.01.161.016.263H53.505c.175,0,.35-.008.526-.012.96,0,1.92.033,2.879,0a1.93,1.93,0,0,0,1.846-1.753,9.848,9.848,0,0,0,.031-1.025q0-10.6,0-21.2A1.171,1.171,0,0,1,60,40.052a1.159,1.159,0,0,1,1.155,1.162c-.014.35,0,.7,0,1.053q0,17.12,0,34.24a4.621,4.621,0,0,1-.969,3.077,4.34,4.34,0,0,1-2.805,1.587,5.247,5.247,0,0,1-.766.049q-24.151,0-48.3.005a8.083,8.083,0,0,1-2.622-.355,8.6,8.6,0,0,1-3.651-2.313A7.887,7.887,0,0,1,.33,75.569,8.065,8.065,0,0,1,0,73.1Q.014,56.931.007,40.764q0-7.081.005-14.162a1.762,1.762,0,0,1,.121-.712A1.189,1.189,0,0,1,1.208,25.2a1.287,1.287,0,0,1,1.173,1.417q-.02,8.971-.007,17.942,0,11.377,0,22.754a2.37,2.37,0,0,0,.042.3l.2-.184a7.626,7.626,0,0,1,3.748-1.886c.239-.047.363-.112.348-.36l0-.111c0-.083,0-.167,0-.251V2.813L6.7,2.6c-.229-.135-.415.034-.608.1A5.492,5.492,0,0,0,2.38,7.8q-.012,6.417-.006,12.834a1.238,1.238,0,0,1-1.207,1.429M7.74,67.773l-.067,0a9.62,9.62,0,0,0-1.21.176,5.149,5.149,0,0,0-2.539,1.539c-.272.355-.572.692-.811,1.069a5.22,5.22,0,0,0-.735,2.17,5.8,5.8,0,0,0,.038.98l.055.01c.125,0,.25-.011.375-.011l38.265,0c.142,0,.284,0,.426,0A1.161,1.161,0,0,1,42.814,74.8a.609.609,0,0,0,.075.152c-.027.035-.078.072-.076.1a1.14,1.14,0,0,1-.944,1.013l-.063.017-.149.012H3.271c-.006.051-.037.119-.015.151a5.773,5.773,0,0,0,.411.564,5.633,5.633,0,0,0,4.158,2.021l.066.008c.042,0,.083,0,.125,0H47.058q4.746,0,9.492,0a2.347,2.347,0,0,0,1.141-.221,2.035,2.035,0,0,0,1.1-1.959c-.007-2.3,0-4.594,0-6.891,0-.727-.006-1.453-.01-2.18,0-.016,0-.033,0-.049,0-.051,0-.1,0-.152l-.125-.047a5.538,5.538,0,0,1-2.612.446V68.1c0,1.227.027,2.454-.006,3.68a4.228,4.228,0,0,1-2.348,3.8,4.178,4.178,0,0,1-1.8.512l-.053-.008-.148,0H47.216a1.193,1.193,0,1,1,.053-2.383c.651-.011,1.3,0,1.954,0,.835,0,1.669-.009,2.5-.014a3.615,3.615,0,0,0,.505-.078,1.959,1.959,0,0,0,1.441-2c.023-1.211,0-2.423.011-3.634,0-.194-.082-.241-.251-.235-.242.008-.484.009-.726.009q-19.79,0-39.581,0c-1.8,0-3.59.011-5.386.018" transform="translate(0 0)"/>
        <path id="Trazado_277988" data-name="Trazado 277988" d="M5.807,32.19a1.238,1.238,0,0,0,1.207-1.429q0-6.417.006-12.834a5.492,5.492,0,0,1,3.707-5.107c.193-.064.379-.233.608-.1,0,.072.01.144.015.215V25.044q0,24.952,0,49.9c0,.083,0,.167,0,.25,0,.037,0,.074,0,.111.014.248-.11.312-.348.36a7.627,7.627,0,0,0-3.748,1.886l-.2.184a2.376,2.376,0,0,1-.042-.3q0-11.377,0-22.754,0-8.971.007-17.942a1.287,1.287,0,0,0-1.173-1.417q-.02-1.57-.041-3.139" transform="translate(-4.64 -10.125)" fill="#df74a5"/>
        <path id="Trazado_277989" data-name="Trazado 277989" d="M274.791,49.551a1.171,1.171,0,0,0-1.212,1.337q0,10.6,0,21.2a9.841,9.841,0,0,1-.031,1.025,1.929,1.929,0,0,1-1.846,1.753c-.958.034-1.919,0-2.879,0a2.6,2.6,0,0,1,.137-.5,3.433,3.433,0,0,0,.367-1.564q0-29.4,0-58.793a3.432,3.432,0,0,0-.384-1.635,2,2,0,0,1-.119-.474c1,0,2.005-.045,3,.015a1.922,1.922,0,0,1,1.745,1.958q.007.589.006,1.178,0,14.989,0,29.977a1.192,1.192,0,0,0,.894,1.282,1.858,1.858,0,0,0,.314.041l0,3.2" transform="translate(-214.791 -9.498)" fill="#94d6a3"/>
        <path id="Trazado_277990" data-name="Trazado 277990" d="M90.135,11.883a2.015,2.015,0,0,0,.118.474,3.429,3.429,0,0,1,.384,1.635q0,29.4,0,58.793a3.433,3.433,0,0,1-.367,1.563,2.6,2.6,0,0,0-.137.5c-.175,0-.35.012-.525.012H45.2c-.006-.1-.016-.183-.016-.263q0-31.132,0-62.263c0-.467,0-.468.483-.468H89.534c.2,0,.4.014.6.021m-4.21,39.9c-.259,0-.518.008-.776.008H54.765c-.25,0-.5-.007-.751,0a1.137,1.137,0,0,0-1.114,1.1c-.018.325-.017.651-.016.977,0,1.437,0,2.874.024,4.31a1.325,1.325,0,0,0,.274.7,1.359,1.359,0,0,0,1.225.416q11.021,0,22.042,0c3.156,0,6.312-.011,9.468,0a1.247,1.247,0,0,0,1.3-1.278c-.008-1.671-.005-3.341-.007-5.012,0-.021,0-.041,0-.062a1.2,1.2,0,0,0-1.229-1.159l-.053,0M55.268,34.2a14.766,14.766,0,1,0,29.531.075,14.236,14.236,0,0,0-4.312-10.486A14.458,14.458,0,0,0,68.548,19.5a14.824,14.824,0,0,0-13.28,14.7m14.746,30.22h0q3.694,0,7.388,0c.793,0,1.586,0,2.378-.035a1.085,1.085,0,0,0,.982-.83A1.166,1.166,0,0,0,80.2,62.2a1.978,1.978,0,0,0-.8-.161q-9.3-.013-18.607-.005a3.187,3.187,0,0,0-.573.041,1.164,1.164,0,0,0-.859,1.591,1.232,1.232,0,0,0,1.288.752q4.683-.008,9.366,0m.018,5.129h6.036c1.194,0,2.388,0,3.581-.006a1.179,1.179,0,0,0,1.113-.853,1.164,1.164,0,0,0-.7-1.417,2.284,2.284,0,0,0-.761-.1q-9.267-.009-18.534,0a3.7,3.7,0,0,0-.475.021,1.177,1.177,0,0,0-.888,1.72,1.2,1.2,0,0,0,1.155.644q4.734-.006,9.467,0" transform="translate(-36.102 -9.477)" fill="#b2e59e"/>
        <path id="Trazado_277991" data-name="Trazado 277991" d="M61.133,349.948c-.835,0-1.669.011-2.5.014-.652,0-1.3-.008-1.954,0a1.2,1.2,0,0,0-1.263,1.148c-.132.014-.263.039-.395.04-.759,0-1.519,0-2.278,0-.149,0-.3.029-.445.044a.613.613,0,0,1-.075-.152,1.161,1.161,0,0,0-1.276-1.085c-.142,0-.284,0-.426,0l-38.264,0c-.125,0-.25.007-.375.011l-.055-.01a5.8,5.8,0,0,1-.038-.98,5.213,5.213,0,0,1,.735-2.17c.238-.377.538-.714.81-1.069a2.216,2.216,0,0,0,.461.139c.187.015.379-.038.569-.038q20.776,0,41.553,0c1.325,0,2.651.033,3.976.047A1.212,1.212,0,0,1,61.031,347c.022.75.032,1.5.053,2.249.007.232.032.463.048.7" transform="translate(-9.405 -276.252)" fill="#ebf3fe"/>
        <path id="Trazado_277992" data-name="Trazado 277992" d="M55.8,342.637c.148-.015.3-.043.445-.044.759,0,1.519,0,2.278,0,.132,0,.264-.026.4-.04a1.2,1.2,0,0,0,1.21,1.235h4.463l.148,0,.053.008a4.18,4.18,0,0,0,1.8-.512,4.228,4.228,0,0,0,2.348-3.8c.033-1.226.006-2.453.006-3.68v-.321a5.538,5.538,0,0,0,2.612-.446l.124.047q0,.076,0,.152c-.005,0-.015.011-.014.014a.209.209,0,0,0,.015.035c0,.726.009,1.453.01,2.18,0,2.3,0,4.594,0,6.891a2.035,2.035,0,0,1-1.1,1.959,2.346,2.346,0,0,1-1.141.221q-4.746,0-9.492,0H20.925c-.042,0-.083,0-.125,0l-.066-.008a5.633,5.633,0,0,1-4.157-2.021,5.8,5.8,0,0,1-.411-.564c-.022-.032.009-.1.015-.151H54.567l.149-.012.063-.017a1.14,1.14,0,0,0,.944-1.013c0-.033.049-.07.076-.1" transform="translate(-12.91 -267.688)" fill="#77cf8f"/>
        <path id="Trazado_277993" data-name="Trazado 277993" d="M67.328,343c-.017-.232-.042-.463-.048-.7-.021-.75-.031-1.5-.053-2.249a1.212,1.212,0,0,0-1.142-1.112c-1.326-.014-2.651-.047-3.976-.047q-20.776-.005-41.552,0c-.19,0-.382.053-.569.038a2.216,2.216,0,0,1-.461-.139,5.149,5.149,0,0,1,2.539-1.539,9.57,9.57,0,0,1,1.21-.176l.067,0c1.8-.006,3.59-.017,5.386-.017q19.79,0,39.581,0c.242,0,.484,0,.726-.009.168-.006.252.041.251.235-.008,1.211.012,2.423-.011,3.635a1.959,1.959,0,0,1-1.441,2,3.615,3.615,0,0,1-.505.078" transform="translate(-15.601 -269.307)" fill="#dce9fa"/>
        <path id="Trazado_277994" data-name="Trazado 277994" d="M33.326,13.139l-.015-.215.015.215" transform="translate(-26.616 -10.326)" fill="#824258"/>
        <path id="Trazado_277995" data-name="Trazado 277995" d="M291.934,335.072l-.125-.047.125.047" transform="translate(-233.158 -267.688)" fill="#78a786"/>
        <path id="Trazado_277996" data-name="Trazado 277996" d="M16.374,378.605h0" transform="translate(-13.001 -302.509)" fill="#173118"/>
        <path id="Trazado_277997" data-name="Trazado 277997" d="M33.406,323.871c0-.037,0-.074,0-.111,0,.037,0,.074,0,.111" transform="translate(-26.688 -258.687)" fill="#824258"/>
        <path id="Trazado_277998" data-name="Trazado 277998" d="M111.309,378.605h0" transform="translate(-88.895 -302.509)" fill="#173118"/>
        <path id="Trazado_277999" data-name="Trazado 277999" d="M179.123,378.605h0" transform="translate(-143.079 -302.509)" fill="#173118"/>
        <path id="Trazado_278000" data-name="Trazado 278000" d="M68.427,378.605h0" transform="translate(-54.631 -302.509)" fill="#173118"/>
        <path id="Trazado_278001" data-name="Trazado 278001" d="M69.424,378.605h0" transform="translate(-55.428 -302.509)" fill="#173118"/>
        <path id="Trazado_278002" data-name="Trazado 278002" d="M12.026,366.732l.055.01-.055-.01" transform="translate(-9.609 -293.022)" fill="#3e4145"/>
        <path id="Trazado_278003" data-name="Trazado 278003" d="M18.565,378.611h0" transform="translate(-14.791 -302.514)" fill="#173118"/>
        <path id="Trazado_278004" data-name="Trazado 278004" d="M19.563,378.612h0" transform="translate(-15.589 -302.514)" fill="#173118"/>
        <path id="Trazado_278005" data-name="Trazado 278005" d="M20.559,378.6h0" transform="translate(-16.384 -302.508)" fill="#173118"/>
        <path id="Trazado_278006" data-name="Trazado 278006" d="M21.556,378.606h0" transform="translate(-17.181 -302.51)" fill="#173118"/>
        <path id="Trazado_278007" data-name="Trazado 278007" d="M22.553,378.605h0" transform="translate(-17.978 -302.509)" fill="#173118"/>
        <path id="Trazado_278008" data-name="Trazado 278008" d="M23.55,378.606h0" transform="translate(-18.774 -302.51)" fill="#173118"/>
        <path id="Trazado_278009" data-name="Trazado 278009" d="M24.548,378.606h0" transform="translate(-19.572 -302.51)" fill="#173118"/>
        <path id="Trazado_278010" data-name="Trazado 278010" d="M25.545,378.605h0" transform="translate(-20.368 -302.509)" fill="#173118"/>
        <path id="Trazado_278011" data-name="Trazado 278011" d="M26.542,378.605h0" transform="translate(-21.165 -302.509)" fill="#173118"/>
        <path id="Trazado_278012" data-name="Trazado 278012" d="M27.54,378.605h0" transform="translate(-21.962 -302.509)" fill="#173118"/>
        <path id="Trazado_278013" data-name="Trazado 278013" d="M28.537,378.6h0" transform="translate(-22.759 -302.508)" fill="#173118"/>
        <path id="Trazado_278014" data-name="Trazado 278014" d="M29.534,378.6h0" transform="translate(-23.556 -302.508)" fill="#173118"/>
        <path id="Trazado_278015" data-name="Trazado 278015" d="M30.531,378.6h0" transform="translate(-24.352 -302.508)" fill="#173118"/>
        <path id="Trazado_278016" data-name="Trazado 278016" d="M31.528,378.6h0" transform="translate(-25.149 -302.508)" fill="#173118"/>
        <path id="Trazado_278017" data-name="Trazado 278017" d="M32.526,378.605h0" transform="translate(-25.946 -302.509)" fill="#173118"/>
        <path id="Trazado_278018" data-name="Trazado 278018" d="M33.523,378.605h0" transform="translate(-26.743 -302.509)" fill="#173118"/>
        <path id="Trazado_278019" data-name="Trazado 278019" d="M34.52,378.605h0" transform="translate(-27.539 -302.509)" fill="#173118"/>
        <path id="Trazado_278020" data-name="Trazado 278020" d="M35.517,378.605h0" transform="translate(-28.336 -302.509)" fill="#173118"/>
        <path id="Trazado_278021" data-name="Trazado 278021" d="M36.515,378.605h0" transform="translate(-29.133 -302.509)" fill="#173118"/>
        <path id="Trazado_278022" data-name="Trazado 278022" d="M37.512,378.605h0" transform="translate(-29.93 -302.509)" fill="#173118"/>
        <path id="Trazado_278023" data-name="Trazado 278023" d="M38.509,378.605h0" transform="translate(-30.727 -302.509)" fill="#173118"/>
        <path id="Trazado_278024" data-name="Trazado 278024" d="M39.507,378.605h0" transform="translate(-31.524 -302.509)" fill="#173118"/>
        <path id="Trazado_278025" data-name="Trazado 278025" d="M40.5,378.605h0" transform="translate(-32.321 -302.509)" fill="#173118"/>
        <path id="Trazado_278026" data-name="Trazado 278026" d="M41.5,378.605h0" transform="translate(-33.117 -302.509)" fill="#173118"/>
        <path id="Trazado_278027" data-name="Trazado 278027" d="M42.5,378.605h0" transform="translate(-33.914 -302.509)" fill="#173118"/>
        <path id="Trazado_278028" data-name="Trazado 278028" d="M43.5,378.605h0" transform="translate(-34.711 -302.509)" fill="#173118"/>
        <path id="Trazado_278029" data-name="Trazado 278029" d="M44.493,378.605h0" transform="translate(-35.508 -302.509)" fill="#173118"/>
        <path id="Trazado_278030" data-name="Trazado 278030" d="M45.49,378.605h0" transform="translate(-36.305 -302.509)" fill="#173118"/>
        <path id="Trazado_278031" data-name="Trazado 278031" d="M46.487,378.605h0" transform="translate(-37.101 -302.509)" fill="#173118"/>
        <path id="Trazado_278032" data-name="Trazado 278032" d="M47.485,378.605h0" transform="translate(-37.899 -302.509)" fill="#173118"/>
        <path id="Trazado_278033" data-name="Trazado 278033" d="M48.482,378.605h0" transform="translate(-38.695 -302.509)" fill="#173118"/>
        <path id="Trazado_278034" data-name="Trazado 278034" d="M49.479,378.605h0" transform="translate(-39.492 -302.509)" fill="#173118"/>
        <path id="Trazado_278035" data-name="Trazado 278035" d="M50.476,378.605h0" transform="translate(-40.288 -302.509)" fill="#173118"/>
        <path id="Trazado_278036" data-name="Trazado 278036" d="M51.474,378.605h0" transform="translate(-41.086 -302.509)" fill="#173118"/>
        <path id="Trazado_278037" data-name="Trazado 278037" d="M52.471,378.605h0" transform="translate(-41.882 -302.509)" fill="#173118"/>
        <path id="Trazado_278038" data-name="Trazado 278038" d="M53.468,378.605h0" transform="translate(-42.679 -302.509)" fill="#173118"/>
        <path id="Trazado_278039" data-name="Trazado 278039" d="M54.465,378.605h0" transform="translate(-43.476 -302.509)" fill="#173118"/>
        <path id="Trazado_278040" data-name="Trazado 278040" d="M55.463,378.605h0" transform="translate(-44.273 -302.509)" fill="#173118"/>
        <path id="Trazado_278041" data-name="Trazado 278041" d="M56.46,378.605h0" transform="translate(-45.07 -302.509)" fill="#173118"/>
        <path id="Trazado_278042" data-name="Trazado 278042" d="M57.457,378.605h0" transform="translate(-45.866 -302.509)" fill="#173118"/>
        <path id="Trazado_278043" data-name="Trazado 278043" d="M58.454,378.605h0" transform="translate(-46.663 -302.509)" fill="#173118"/>
        <path id="Trazado_278044" data-name="Trazado 278044" d="M59.452,378.605h0" transform="translate(-47.46 -302.509)" fill="#173118"/>
        <path id="Trazado_278045" data-name="Trazado 278045" d="M60.449,378.605h0" transform="translate(-48.257 -302.509)" fill="#173118"/>
        <path id="Trazado_278046" data-name="Trazado 278046" d="M61.446,378.605h0" transform="translate(-49.054 -302.509)" fill="#173118"/>
        <path id="Trazado_278047" data-name="Trazado 278047" d="M62.444,378.605h0" transform="translate(-49.851 -302.509)" fill="#173118"/>
        <path id="Trazado_278048" data-name="Trazado 278048" d="M63.441,378.605h0" transform="translate(-50.648 -302.509)" fill="#173118"/>
        <path id="Trazado_278049" data-name="Trazado 278049" d="M64.438,378.605h0" transform="translate(-51.444 -302.509)" fill="#173118"/>
        <path id="Trazado_278050" data-name="Trazado 278050" d="M65.435,378.605h0" transform="translate(-52.241 -302.509)" fill="#173118"/>
        <path id="Trazado_278051" data-name="Trazado 278051" d="M66.433,378.605h0" transform="translate(-53.038 -302.509)" fill="#173118"/>
        <path id="Trazado_278052" data-name="Trazado 278052" d="M38.244,337.193l-.067,0,.067,0" transform="translate(-30.504 -269.42)" fill="#80868d"/>
        <path id="Trazado_278053" data-name="Trazado 278053" d="M292.373,336.063a.208.208,0,0,1-.015-.035s.009-.01.014-.014c0,.016,0,.033,0,.049" transform="translate(-233.596 -268.478)" fill="#78a786"/>
        <path id="Trazado_278054" data-name="Trazado 278054" d="M70.422,378.605h0" transform="translate(-56.225 -302.509)" fill="#173118"/>
        <path id="Trazado_278055" data-name="Trazado 278055" d="M71.419,378.605h0" transform="translate(-57.022 -302.509)" fill="#173118"/>
        <path id="Trazado_278056" data-name="Trazado 278056" d="M72.416,378.605h0" transform="translate(-57.819 -302.509)" fill="#173118"/>
        <path id="Trazado_278057" data-name="Trazado 278057" d="M73.413,378.605h0" transform="translate(-58.615 -302.509)" fill="#173118"/>
        <path id="Trazado_278058" data-name="Trazado 278058" d="M74.411,378.605h0" transform="translate(-59.413 -302.509)" fill="#173118"/>
        <path id="Trazado_278059" data-name="Trazado 278059" d="M75.408,378.605h0" transform="translate(-60.209 -302.509)" fill="#173118"/>
        <path id="Trazado_278060" data-name="Trazado 278060" d="M76.405,378.605h0" transform="translate(-61.006 -302.509)" fill="#173118"/>
        <path id="Trazado_278061" data-name="Trazado 278061" d="M77.4,378.605h0" transform="translate(-61.803 -302.509)" fill="#173118"/>
        <path id="Trazado_278062" data-name="Trazado 278062" d="M78.4,378.605h0" transform="translate(-62.6 -302.509)" fill="#173118"/>
        <path id="Trazado_278063" data-name="Trazado 278063" d="M79.4,378.605h0" transform="translate(-63.397 -302.509)" fill="#173118"/>
        <path id="Trazado_278064" data-name="Trazado 278064" d="M80.394,378.605h0" transform="translate(-64.193 -302.509)" fill="#173118"/>
        <path id="Trazado_278065" data-name="Trazado 278065" d="M81.391,378.605h0Z" transform="translate(-64.99 -302.509)" fill="#173118"/>
        <path id="Trazado_278066" data-name="Trazado 278066" d="M82.389,378.605h0" transform="translate(-65.787 -302.509)" fill="#173118"/>
        <path id="Trazado_278067" data-name="Trazado 278067" d="M83.386,378.605h0Z" transform="translate(-66.584 -302.509)" fill="#173118"/>
        <path id="Trazado_278068" data-name="Trazado 278068" d="M84.383,378.6h0" transform="translate(-67.38 -302.508)" fill="#173118"/>
        <path id="Trazado_278069" data-name="Trazado 278069" d="M85.381,378.6h0" transform="translate(-68.178 -302.507)" fill="#173118"/>
        <path id="Trazado_278070" data-name="Trazado 278070" d="M86.378,378.6h0" transform="translate(-68.974 -302.508)" fill="#173118"/>
        <path id="Trazado_278071" data-name="Trazado 278071" d="M87.375,378.605h0" transform="translate(-69.771 -302.509)" fill="#173118"/>
        <path id="Trazado_278072" data-name="Trazado 278072" d="M88.372,378.605h0" transform="translate(-70.568 -302.509)" fill="#173118"/>
        <path id="Trazado_278073" data-name="Trazado 278073" d="M89.37,378.605h0" transform="translate(-71.365 -302.509)" fill="#173118"/>
        <path id="Trazado_278074" data-name="Trazado 278074" d="M90.367,378.605h0Z" transform="translate(-72.162 -302.509)" fill="#173118"/>
        <path id="Trazado_278075" data-name="Trazado 278075" d="M91.364,378.605h0" transform="translate(-72.958 -302.509)" fill="#173118"/>
        <path id="Trazado_278076" data-name="Trazado 278076" d="M92.361,378.605h0" transform="translate(-73.755 -302.509)" fill="#173118"/>
        <path id="Trazado_278077" data-name="Trazado 278077" d="M93.359,378.605h0" transform="translate(-74.552 -302.509)" fill="#173118"/>
        <path id="Trazado_278078" data-name="Trazado 278078" d="M94.356,378.605h0" transform="translate(-75.349 -302.509)" fill="#173118"/>
        <path id="Trazado_278079" data-name="Trazado 278079" d="M95.353,378.605h0" transform="translate(-76.146 -302.509)" fill="#173118"/>
        <path id="Trazado_278080" data-name="Trazado 278080" d="M96.35,378.605h0" transform="translate(-76.942 -302.509)" fill="#173118"/>
        <path id="Trazado_278081" data-name="Trazado 278081" d="M97.348,378.605h0" transform="translate(-77.74 -302.509)" fill="#173118"/>
        <path id="Trazado_278082" data-name="Trazado 278082" d="M98.345,378.605h0" transform="translate(-78.536 -302.509)" fill="#173118"/>
        <path id="Trazado_278083" data-name="Trazado 278083" d="M99.342,378.605h0" transform="translate(-79.333 -302.509)" fill="#173118"/>
        <path id="Trazado_278084" data-name="Trazado 278084" d="M100.339,378.605h0" transform="translate(-80.129 -302.509)" fill="#173118"/>
        <path id="Trazado_278085" data-name="Trazado 278085" d="M101.337,378.605h0" transform="translate(-80.927 -302.509)" fill="#173118"/>
        <path id="Trazado_278086" data-name="Trazado 278086" d="M102.334,378.605h0" transform="translate(-81.723 -302.509)" fill="#173118"/>
        <path id="Trazado_278087" data-name="Trazado 278087" d="M103.331,378.605h0" transform="translate(-82.52 -302.509)" fill="#173118"/>
        <path id="Trazado_278088" data-name="Trazado 278088" d="M104.328,378.605h0" transform="translate(-83.317 -302.509)" fill="#173118"/>
        <path id="Trazado_278089" data-name="Trazado 278089" d="M105.326,378.605h0" transform="translate(-84.114 -302.509)" fill="#173118"/>
        <path id="Trazado_278090" data-name="Trazado 278090" d="M106.323,378.605h0" transform="translate(-84.911 -302.509)" fill="#173118"/>
        <path id="Trazado_278091" data-name="Trazado 278091" d="M107.32,378.605h0" transform="translate(-85.707 -302.509)" fill="#173118"/>
        <path id="Trazado_278092" data-name="Trazado 278092" d="M108.318,378.605h0" transform="translate(-86.505 -302.509)" fill="#173118"/>
        <path id="Trazado_278093" data-name="Trazado 278093" d="M109.315,378.605h0" transform="translate(-87.301 -302.509)" fill="#173118"/>
        <path id="Trazado_278094" data-name="Trazado 278094" d="M110.312,378.605h0" transform="translate(-88.098 -302.509)" fill="#173118"/>
        <path id="Trazado_278095" data-name="Trazado 278095" d="M112.307,378.605h0" transform="translate(-89.692 -302.509)" fill="#173118"/>
        <path id="Trazado_278096" data-name="Trazado 278096" d="M113.3,378.605h0" transform="translate(-90.489 -302.509)" fill="#173118"/>
        <path id="Trazado_278097" data-name="Trazado 278097" d="M114.3,378.605h0" transform="translate(-91.285 -302.509)" fill="#173118"/>
        <path id="Trazado_278098" data-name="Trazado 278098" d="M115.3,378.605h0" transform="translate(-92.082 -302.509)" fill="#173118"/>
        <path id="Trazado_278099" data-name="Trazado 278099" d="M116.3,378.605h0" transform="translate(-92.879 -302.509)" fill="#173118"/>
        <path id="Trazado_278100" data-name="Trazado 278100" d="M117.293,378.605h0" transform="translate(-93.676 -302.509)" fill="#173118"/>
        <path id="Trazado_278101" data-name="Trazado 278101" d="M118.29,378.605h0" transform="translate(-94.472 -302.509)" fill="#173118"/>
        <path id="Trazado_278102" data-name="Trazado 278102" d="M119.287,378.605h0" transform="translate(-95.269 -302.509)" fill="#173118"/>
        <path id="Trazado_278103" data-name="Trazado 278103" d="M120.285,378.605h0" transform="translate(-96.066 -302.509)" fill="#173118"/>
        <path id="Trazado_278104" data-name="Trazado 278104" d="M121.282,378.605h0" transform="translate(-96.863 -302.509)" fill="#173118"/>
        <path id="Trazado_278105" data-name="Trazado 278105" d="M122.279,378.605h0" transform="translate(-97.66 -302.509)" fill="#173118"/>
        <path id="Trazado_278106" data-name="Trazado 278106" d="M67.43,378.605h0" transform="translate(-53.835 -302.509)" fill="#173118"/>
        <path id="Trazado_278107" data-name="Trazado 278107" d="M124.274,378.605h0" transform="translate(-99.254 -302.509)" fill="#173118"/>
        <path id="Trazado_278108" data-name="Trazado 278108" d="M125.271,378.605h0" transform="translate(-100.05 -302.509)" fill="#173118"/>
        <path id="Trazado_278109" data-name="Trazado 278109" d="M126.268,378.605h0" transform="translate(-100.847 -302.509)" fill="#173118"/>
        <path id="Trazado_278110" data-name="Trazado 278110" d="M127.265,378.605h0" transform="translate(-101.644 -302.509)" fill="#173118"/>
        <path id="Trazado_278111" data-name="Trazado 278111" d="M128.263,378.605h0" transform="translate(-102.441 -302.509)" fill="#173118"/>
        <path id="Trazado_278112" data-name="Trazado 278112" d="M129.26,378.605h0" transform="translate(-103.238 -302.509)" fill="#173118"/>
        <path id="Trazado_278113" data-name="Trazado 278113" d="M130.257,378.605h0" transform="translate(-104.034 -302.509)" fill="#173118"/>
        <path id="Trazado_278114" data-name="Trazado 278114" d="M131.255,378.605h0" transform="translate(-104.832 -302.509)" fill="#173118"/>
        <path id="Trazado_278115" data-name="Trazado 278115" d="M132.252,378.605h0" transform="translate(-105.628 -302.509)" fill="#173118"/>
        <path id="Trazado_278116" data-name="Trazado 278116" d="M133.249,378.605h0" transform="translate(-106.425 -302.509)" fill="#173118"/>
        <path id="Trazado_278117" data-name="Trazado 278117" d="M134.246,378.605h0" transform="translate(-107.221 -302.509)" fill="#173118"/>
        <path id="Trazado_278118" data-name="Trazado 278118" d="M135.244,378.605h0" transform="translate(-108.019 -302.509)" fill="#173118"/>
        <path id="Trazado_278119" data-name="Trazado 278119" d="M136.241,378.605h0" transform="translate(-108.815 -302.509)" fill="#173118"/>
        <path id="Trazado_278120" data-name="Trazado 278120" d="M137.238,378.605h0" transform="translate(-109.612 -302.509)" fill="#173118"/>
        <path id="Trazado_278121" data-name="Trazado 278121" d="M138.235,378.605h0" transform="translate(-110.409 -302.509)" fill="#173118"/>
        <path id="Trazado_278122" data-name="Trazado 278122" d="M139.233,378.605h0" transform="translate(-111.206 -302.509)" fill="#173118"/>
        <path id="Trazado_278123" data-name="Trazado 278123" d="M140.23,378.605h0" transform="translate(-112.003 -302.509)" fill="#173118"/>
        <path id="Trazado_278124" data-name="Trazado 278124" d="M141.227,378.605h0" transform="translate(-112.799 -302.509)" fill="#173118"/>
        <path id="Trazado_278125" data-name="Trazado 278125" d="M142.224,378.605h0" transform="translate(-113.596 -302.509)" fill="#173118"/>
        <path id="Trazado_278126" data-name="Trazado 278126" d="M143.222,378.605h0" transform="translate(-114.393 -302.509)" fill="#173118"/>
        <path id="Trazado_278127" data-name="Trazado 278127" d="M144.219,378.605h0" transform="translate(-115.19 -302.509)" fill="#173118"/>
        <path id="Trazado_278128" data-name="Trazado 278128" d="M145.216,378.605h0" transform="translate(-115.987 -302.509)" fill="#173118"/>
        <path id="Trazado_278129" data-name="Trazado 278129" d="M146.213,378.605h0" transform="translate(-116.783 -302.509)" fill="#173118"/>
        <path id="Trazado_278130" data-name="Trazado 278130" d="M147.211,378.605h0" transform="translate(-117.581 -302.509)" fill="#173118"/>
        <path id="Trazado_278131" data-name="Trazado 278131" d="M148.208,378.605h0" transform="translate(-118.377 -302.509)" fill="#173118"/>
        <path id="Trazado_278132" data-name="Trazado 278132" d="M149.205,378.605h0" transform="translate(-119.174 -302.509)" fill="#173118"/>
        <path id="Trazado_278133" data-name="Trazado 278133" d="M150.2,378.605h0" transform="translate(-119.97 -302.509)" fill="#173118"/>
        <path id="Trazado_278134" data-name="Trazado 278134" d="M151.2,378.605h0" transform="translate(-120.768 -302.509)" fill="#173118"/>
        <path id="Trazado_278135" data-name="Trazado 278135" d="M152.2,378.605h0" transform="translate(-121.564 -302.509)" fill="#173118"/>
        <path id="Trazado_278136" data-name="Trazado 278136" d="M153.194,378.605h0" transform="translate(-122.361 -302.509)" fill="#173118"/>
        <path id="Trazado_278137" data-name="Trazado 278137" d="M154.191,378.605h0" transform="translate(-123.158 -302.509)" fill="#173118"/>
        <path id="Trazado_278138" data-name="Trazado 278138" d="M155.189,378.605h0" transform="translate(-123.955 -302.509)" fill="#173118"/>
        <path id="Trazado_278139" data-name="Trazado 278139" d="M156.186,378.605h0" transform="translate(-124.752 -302.509)" fill="#173118"/>
        <path id="Trazado_278140" data-name="Trazado 278140" d="M157.183,378.605h0" transform="translate(-125.548 -302.509)" fill="#173118"/>
        <path id="Trazado_278141" data-name="Trazado 278141" d="M158.181,378.605h0" transform="translate(-126.346 -302.509)" fill="#173118"/>
        <path id="Trazado_278142" data-name="Trazado 278142" d="M159.178,378.605h0" transform="translate(-127.142 -302.509)" fill="#173118"/>
        <path id="Trazado_278143" data-name="Trazado 278143" d="M160.175,378.605h0" transform="translate(-127.939 -302.509)" fill="#173118"/>
        <path id="Trazado_278144" data-name="Trazado 278144" d="M161.172,378.605h0" transform="translate(-128.736 -302.509)" fill="#173118"/>
        <path id="Trazado_278145" data-name="Trazado 278145" d="M162.17,378.605h0" transform="translate(-129.533 -302.509)" fill="#173118"/>
        <path id="Trazado_278146" data-name="Trazado 278146" d="M163.167,378.605h0" transform="translate(-130.33 -302.509)" fill="#173118"/>
        <path id="Trazado_278147" data-name="Trazado 278147" d="M164.164,378.605h0" transform="translate(-131.126 -302.509)" fill="#173118"/>
        <path id="Trazado_278148" data-name="Trazado 278148" d="M165.161,378.605h0" transform="translate(-131.923 -302.509)" fill="#173118"/>
        <path id="Trazado_278149" data-name="Trazado 278149" d="M166.159,378.605h0" transform="translate(-132.72 -302.509)" fill="#173118"/>
        <path id="Trazado_278150" data-name="Trazado 278150" d="M167.156,378.605h0" transform="translate(-133.517 -302.509)" fill="#173118"/>
        <path id="Trazado_278151" data-name="Trazado 278151" d="M168.153,378.605h0" transform="translate(-134.313 -302.509)" fill="#173118"/>
        <path id="Trazado_278152" data-name="Trazado 278152" d="M169.15,378.605h0" transform="translate(-135.11 -302.509)" fill="#173118"/>
        <path id="Trazado_278153" data-name="Trazado 278153" d="M170.148,378.605h0" transform="translate(-135.907 -302.509)" fill="#173118"/>
        <path id="Trazado_278154" data-name="Trazado 278154" d="M171.145,378.605h0" transform="translate(-136.704 -302.509)" fill="#173118"/>
        <path id="Trazado_278155" data-name="Trazado 278155" d="M172.142,378.605h0" transform="translate(-137.501 -302.509)" fill="#173118"/>
        <path id="Trazado_278156" data-name="Trazado 278156" d="M173.139,378.605h0" transform="translate(-138.297 -302.509)" fill="#173118"/>
        <path id="Trazado_278157" data-name="Trazado 278157" d="M174.137,378.605h0" transform="translate(-139.095 -302.509)" fill="#173118"/>
        <path id="Trazado_278158" data-name="Trazado 278158" d="M175.134,378.605h0" transform="translate(-139.891 -302.509)" fill="#173118"/>
        <path id="Trazado_278159" data-name="Trazado 278159" d="M176.131,378.605h0" transform="translate(-140.688 -302.509)" fill="#173118"/>
        <path id="Trazado_278160" data-name="Trazado 278160" d="M256.909,378.6h0" transform="translate(-205.23 -302.503)" fill="#173118"/>
        <path id="Trazado_278161" data-name="Trazado 278161" d="M257.908,378.583l-.053-.008.053.008" transform="translate(-206.028 -302.485)" fill="#173118"/>
        <path id="Trazado_278162" data-name="Trazado 278162" d="M38.925,392.223l.066.008-.066-.008" transform="translate(-31.101 -313.39)" fill="#37643c"/>
        <path id="Trazado_278163" data-name="Trazado 278163" d="M180.12,378.605h0" transform="translate(-143.875 -302.509)" fill="#173118"/>
        <path id="Trazado_278164" data-name="Trazado 278164" d="M181.118,378.605h0" transform="translate(-144.673 -302.509)" fill="#173118"/>
        <path id="Trazado_278165" data-name="Trazado 278165" d="M182.115,378.605h0" transform="translate(-145.469 -302.509)" fill="#173118"/>
        <path id="Trazado_278166" data-name="Trazado 278166" d="M183.112,378.605h0" transform="translate(-146.266 -302.509)" fill="#173118"/>
        <path id="Trazado_278167" data-name="Trazado 278167" d="M184.109,378.605h0" transform="translate(-147.062 -302.509)" fill="#173118"/>
        <path id="Trazado_278168" data-name="Trazado 278168" d="M185.107,378.605h0" transform="translate(-147.86 -302.509)" fill="#173118"/>
        <path id="Trazado_278169" data-name="Trazado 278169" d="M186.1,378.605h0" transform="translate(-148.656 -302.509)" fill="#173118"/>
        <path id="Trazado_278170" data-name="Trazado 278170" d="M187.1,378.605h0" transform="translate(-149.453 -302.509)" fill="#173118"/>
        <path id="Trazado_278171" data-name="Trazado 278171" d="M188.1,378.605h0" transform="translate(-150.25 -302.509)" fill="#173118"/>
        <path id="Trazado_278172" data-name="Trazado 278172" d="M189.1,378.605h0" transform="translate(-151.047 -302.509)" fill="#173118"/>
        <path id="Trazado_278173" data-name="Trazado 278173" d="M190.093,378.605h0" transform="translate(-151.844 -302.509)" fill="#173118"/>
        <path id="Trazado_278174" data-name="Trazado 278174" d="M191.09,378.605h0" transform="translate(-152.64 -302.509)" fill="#173118"/>
        <path id="Trazado_278175" data-name="Trazado 278175" d="M192.087,378.605h0" transform="translate(-153.437 -302.509)" fill="#173118"/>
        <path id="Trazado_278176" data-name="Trazado 278176" d="M193.085,378.605h0" transform="translate(-154.234 -302.509)" fill="#173118"/>
        <path id="Trazado_278177" data-name="Trazado 278177" d="M194.082,378.605h0" transform="translate(-155.031 -302.509)" fill="#173118"/>
        <path id="Trazado_278178" data-name="Trazado 278178" d="M195.079,378.605h0" transform="translate(-155.828 -302.509)" fill="#173118"/>
        <path id="Trazado_278179" data-name="Trazado 278179" d="M196.076,378.605h0" transform="translate(-156.624 -302.509)" fill="#173118"/>
        <path id="Trazado_278180" data-name="Trazado 278180" d="M197.074,378.605h0" transform="translate(-157.422 -302.509)" fill="#173118"/>
        <path id="Trazado_278181" data-name="Trazado 278181" d="M198.071,378.605h0" transform="translate(-158.218 -302.509)" fill="#173118"/>
        <path id="Trazado_278182" data-name="Trazado 278182" d="M199.068,378.605h0" transform="translate(-159.015 -302.509)" fill="#173118"/>
        <path id="Trazado_278183" data-name="Trazado 278183" d="M200.065,378.605h0Z" transform="translate(-159.811 -302.509)" fill="#173118"/>
        <path id="Trazado_278184" data-name="Trazado 278184" d="M201.063,378.605h0" transform="translate(-160.609 -302.509)" fill="#173118"/>
        <path id="Trazado_278185" data-name="Trazado 278185" d="M202.06,378.605h0" transform="translate(-161.405 -302.509)" fill="#173118"/>
        <path id="Trazado_278186" data-name="Trazado 278186" d="M203.057,378.605h0Z" transform="translate(-162.202 -302.509)" fill="#173118"/>
        <path id="Trazado_278187" data-name="Trazado 278187" d="M204.054,378.605h0" transform="translate(-162.999 -302.509)" fill="#173118"/>
        <path id="Trazado_278188" data-name="Trazado 278188" d="M205.052,378.606h0" transform="translate(-163.796 -302.51)" fill="#173118"/>
        <path id="Trazado_278189" data-name="Trazado 278189" d="M206.049,378.605h0" transform="translate(-164.593 -302.509)" fill="#173118"/>
        <path id="Trazado_278190" data-name="Trazado 278190" d="M207.046,378.6h0" transform="translate(-165.389 -302.508)" fill="#173118"/>
        <path id="Trazado_278191" data-name="Trazado 278191" d="M208.06,378.458l-.063.017.063-.017" transform="translate(-166.191 -302.391)" fill="#173118"/>
        <path id="Trazado_278192" data-name="Trazado 278192" d="M234.97,378.607h0" transform="translate(-187.701 -302.51)" fill="#173118"/>
        <path id="Trazado_278193" data-name="Trazado 278193" d="M235.968,378.611h0" transform="translate(-188.498 -302.514)" fill="#173118"/>
        <path id="Trazado_278194" data-name="Trazado 278194" d="M236.965,378.609h0" transform="translate(-189.295 -302.512)" fill="#173118"/>
        <path id="Trazado_278195" data-name="Trazado 278195" d="M237.961,378.607h0" transform="translate(-190.091 -302.51)" fill="#173118"/>
        <path id="Trazado_278196" data-name="Trazado 278196" d="M238.959,378.606h0" transform="translate(-190.888 -302.51)" fill="#173118"/>
        <path id="Trazado_278197" data-name="Trazado 278197" d="M239.956,378.605h0" transform="translate(-191.685 -302.509)" fill="#173118"/>
        <path id="Trazado_278198" data-name="Trazado 278198" d="M240.953,378.605h0" transform="translate(-192.481 -302.509)" fill="#173118"/>
        <path id="Trazado_278199" data-name="Trazado 278199" d="M241.95,378.605h0" transform="translate(-193.278 -302.509)" fill="#173118"/>
        <path id="Trazado_278200" data-name="Trazado 278200" d="M242.948,378.605h0" transform="translate(-194.075 -302.509)" fill="#173118"/>
        <path id="Trazado_278201" data-name="Trazado 278201" d="M243.945,378.605h0" transform="translate(-194.872 -302.509)" fill="#173118"/>
        <path id="Trazado_278202" data-name="Trazado 278202" d="M244.942,378.605h0" transform="translate(-195.668 -302.509)" fill="#173118"/>
        <path id="Trazado_278203" data-name="Trazado 278203" d="M245.939,378.605h0" transform="translate(-196.465 -302.509)" fill="#173118"/>
        <path id="Trazado_278204" data-name="Trazado 278204" d="M246.937,378.605h0" transform="translate(-197.263 -302.509)" fill="#173118"/>
        <path id="Trazado_278205" data-name="Trazado 278205" d="M247.934,378.605h0" transform="translate(-198.059 -302.509)" fill="#173118"/>
        <path id="Trazado_278206" data-name="Trazado 278206" d="M248.931,378.605h0" transform="translate(-198.856 -302.509)" fill="#173118"/>
        <path id="Trazado_278207" data-name="Trazado 278207" d="M249.928,378.605h0" transform="translate(-199.652 -302.509)" fill="#173118"/>
        <path id="Trazado_278208" data-name="Trazado 278208" d="M250.926,378.605h0" transform="translate(-200.45 -302.509)" fill="#173118"/>
        <path id="Trazado_278209" data-name="Trazado 278209" d="M251.923,378.605h0" transform="translate(-201.246 -302.509)" fill="#173118"/>
        <path id="Trazado_278210" data-name="Trazado 278210" d="M252.92,378.605h0" transform="translate(-202.043 -302.509)" fill="#173118"/>
        <path id="Trazado_278211" data-name="Trazado 278211" d="M253.918,378.605h0" transform="translate(-202.84 -302.509)" fill="#173118"/>
        <path id="Trazado_278212" data-name="Trazado 278212" d="M254.915,378.605h0" transform="translate(-203.637 -302.509)" fill="#173118"/>
        <path id="Trazado_278213" data-name="Trazado 278213" d="M255.912,378.6h0" transform="translate(-204.434 -302.508)" fill="#173118"/>
        <path id="Trazado_278214" data-name="Trazado 278214" d="M177.128,378.605h0" transform="translate(-141.484 -302.509)" fill="#173118"/>
        <path id="Trazado_278215" data-name="Trazado 278215" d="M178.126,378.605h0" transform="translate(-142.282 -302.509)" fill="#173118"/>
        <path id="Trazado_278216" data-name="Trazado 278216" d="M123.276,378.605h0" transform="translate(-98.456 -302.509)" fill="#173118"/>
        <path id="Trazado_278217" data-name="Trazado 278217" d="M95.356,64.3a14.824,14.824,0,0,1,13.28-14.7,14.458,14.458,0,0,1,11.939,4.289,14.237,14.237,0,0,1,4.312,10.486A14.766,14.766,0,1,1,95.356,64.3m15.073,12.482a12.613,12.613,0,0,0,9.257-4.569,12.109,12.109,0,0,0,2.722-9.409,12.378,12.378,0,0,0-13.52-10.833,11.79,11.79,0,0,0-7.848,3.921,12.131,12.131,0,0,0-3.172,10.257,11.926,11.926,0,0,0,3.761,7.206,12.121,12.121,0,0,0,8.8,3.427" transform="translate(-76.19 -39.581)" fill="#010101"/>
        <path id="Trazado_278218" data-name="Trazado 278218" d="M117.815,211.688c0,1.671,0,3.341.007,5.012a1.247,1.247,0,0,1-1.3,1.278c-3.156-.014-6.312,0-9.468,0q-11.021,0-22.042,0a1.358,1.358,0,0,1-1.225-.416,1.323,1.323,0,0,1-.274-.7c-.029-1.436-.022-2.873-.025-4.31,0-.326,0-.652.016-.977a1.138,1.138,0,0,1,1.114-1.1c.25-.011.5,0,.751,0h30.384c.259,0,.518-.005.776-.008l.053,0a1.2,1.2,0,0,1,1.229,1.159c0,.021,0,.041,0,.062m-31.941,1.2v2.708H115.14c.05,0,.111.018.148,0,.059-.035.146-.1.146-.147,0-.852-.01-1.7-.018-2.555l-.087-.041c-.3,0-.6-.007-.9-.007H86.988c-.359,0-.717.008-1.076.012l-.039.035" transform="translate(-66.707 -168.163)"/>
        <path id="Trazado_278219" data-name="Trazado 278219" d="M126.012,263.877q-4.683,0-9.366,0a1.232,1.232,0,0,1-1.288-.752,1.164,1.164,0,0,1,.859-1.591,3.205,3.205,0,0,1,.573-.041q9.3,0,18.607.005a1.985,1.985,0,0,1,.8.161,1.166,1.166,0,0,1,.565,1.35,1.086,1.086,0,0,1-.982.83c-.792.035-1.585.034-2.378.035q-3.694.005-7.388,0Z" transform="translate(-92.1 -208.936)"/>
        <path id="Trazado_278220" data-name="Trazado 278220" d="M126.033,289.392q-4.734,0-9.467,0a1.2,1.2,0,0,1-1.155-.644,1.176,1.176,0,0,1,.888-1.72,3.7,3.7,0,0,1,.475-.021q9.267,0,18.534,0a2.279,2.279,0,0,1,.761.1,1.164,1.164,0,0,1,.7,1.417,1.179,1.179,0,0,1-1.113.853c-1.194.009-2.388.006-3.581.006h-6.036" transform="translate(-92.102 -229.323)"/>
        <path id="Trazado_278221" data-name="Trazado 278221" d="M254.266,216.307c0-.021,0-.041,0-.062,0,.021,0,.041,0,.062" transform="translate(-203.158 -172.782)" fill="#37643c"/>
        <path id="Trazado_278222" data-name="Trazado 278222" d="M247.934,210.468l-.053,0,.053,0" transform="translate(-198.059 -168.163)" fill="#89be7b"/>
        <path id="Trazado_278223" data-name="Trazado 278223" d="M119.88,86.23a12.121,12.121,0,0,1-8.8-3.427,11.924,11.924,0,0,1-3.761-7.206,12.131,12.131,0,0,1,3.172-10.257,11.792,11.792,0,0,1,7.848-3.921,12.422,12.422,0,0,1,10.8,20.241,12.613,12.613,0,0,1-9.257,4.569m-1.465-7.117c0,.006-.011.013-.01.016a.215.215,0,0,0,.018.033,1.16,1.16,0,0,0,1.412.962,1.193,1.193,0,0,0,.929-1.282c.006-.977,0-1.955,0-2.932,0-.574,0-.574.565-.73.032-.009.064-.018.1-.03a5.644,5.644,0,0,0,3.805-5.294,6.4,6.4,0,0,0-.18-1.478,5.265,5.265,0,0,0-1.591-2.725,5.134,5.134,0,0,0-3.163-1.477,7.027,7.027,0,0,0-1.761.012,5.4,5.4,0,0,0-2.916,1.527,5.54,5.54,0,0,0-1.7,4.1,1.18,1.18,0,0,0,2.359-.032,3.706,3.706,0,0,1,.074-.639,3.281,3.281,0,1,1,3.181,3.959,1.407,1.407,0,0,0-.647.22,1.192,1.192,0,0,0-.5,1.087q0,2.218,0,4.436a2.449,2.449,0,0,0,.03.272m1.166,2.3a1.04,1.04,0,0,0-1.056,1.059,1.021,1.021,0,0,0,1.009,1.083,1.041,1.041,0,0,0,1.1-1.07,1.057,1.057,0,0,0-1.052-1.072" transform="translate(-85.641 -49.027)" fill="#fedf7c"/>
        <path id="Trazado_278224" data-name="Trazado 278224" d="M124.906,222.329c.008.852.019,1.7.018,2.555,0,.05-.087.112-.146.147-.037.022-.1,0-.148,0H95.364v-2.708l.039-.035c.359,0,.717-.012,1.076-.012h27.439c.3,0,.6,0,.9.007l.087.041" transform="translate(-76.197 -177.604)" fill="#4980aa"/>
        <path id="Trazado_278225" data-name="Trazado 278225" d="M242,222.358l-.087-.041.087.041" transform="translate(-193.288 -177.633)" fill="#426d93"/>
        <path id="Trazado_278226" data-name="Trazado 278226" d="M95.4,222.34l-.039.035.039-.035" transform="translate(-76.197 -177.652)" fill="#426d93"/>
        <path id="Trazado_278227" data-name="Trazado 278227" d="M145.184,90.109a2.5,2.5,0,0,1-.03-.272q0-2.218,0-4.435a1.192,1.192,0,0,1,.5-1.087,1.408,1.408,0,0,1,.646-.22,3.3,3.3,0,1,0-3.181-3.958,3.7,3.7,0,0,0-.074.639,1.18,1.18,0,0,1-2.359.032,5.54,5.54,0,0,1,1.7-4.1,5.4,5.4,0,0,1,2.916-1.527,7.018,7.018,0,0,1,1.761-.012,5.134,5.134,0,0,1,3.163,1.477,5.267,5.267,0,0,1,1.591,2.725A6.415,6.415,0,0,1,152,80.852a5.645,5.645,0,0,1-3.805,5.294c-.031.011-.063.021-.1.03-.564.156-.564.156-.565.73,0,.978,0,1.955,0,2.932a1.193,1.193,0,0,1-.929,1.282,1.16,1.16,0,0,1-1.412-.962c0-.006.009-.013.008-.017a.212.212,0,0,0-.016-.033" transform="translate(-112.411 -60.023)" fill="#010100"/>
        <path id="Trazado_278228" data-name="Trazado 278228" d="M164.664,161.137a1.057,1.057,0,0,1,1.052,1.072,1.041,1.041,0,0,1-1.1,1.07,1.021,1.021,0,0,1-1.009-1.083,1.04,1.04,0,0,1,1.056-1.059" transform="translate(-130.724 -128.75)" fill="#010100"/>
        <path id="Trazado_278229" data-name="Trazado 278229" d="M163.019,149.688a.212.212,0,0,1,.016.033s-.005.011-.008.017a.214.214,0,0,1-.018-.033s.006-.011.01-.016" transform="translate(-130.246 -119.602)" fill="#35412d"/>
      </g>
    </g>
  </g>
</svg>
