<svg xmlns="http://www.w3.org/2000/svg" width="84.584" height="84.597" viewBox="0 0 84.584 84.597">
  <g id="Grupo_261800" data-name="Grupo 261800" transform="translate(-5827.217 10964.584)">
    <g id="Grupo_261567" data-name="Grupo 261567">
      <path id="Trazado_279210" data-name="Trazado 279210" d="M1133.064,67.416h21.31a2.549,2.549,0,0,1,1.5,2.744c-.056.6-.01,1.21-.01,1.816,0,1.993-.362,2.474-2.288,2.974,0,1.439-.028,2.9.009,4.35a4,4,0,0,1-.792,2.539q-1.976,2.748-3.871,5.553a2.438,2.438,0,0,0-.378,1.209c-.048,1.237-.021,2.477-.017,3.716a2.219,2.219,0,0,1-1.082,2.088.641.641,0,0,0-.315.41c-.026,1.114-.015,2.23-.015,3.325h5.67a1.082,1.082,0,0,0,.068-.227q.011-4.5.014-9c0-1.864.735-2.605,2.592-2.607q5.286-.006,10.572,0a3.182,3.182,0,0,1,.817.076,1.207,1.207,0,0,1-.1,2.356,5.153,5.153,0,0,1-.906.041l-9.581,0c-.289,0-.577.026-.872.04v27.361h3.41c0-.679-.012-1.283,0-1.887.024-.965.453-1.419,1.425-1.425q4.295-.024,8.59,0c1.011.006,1.436.46,1.457,1.48.013.617,0,1.235,0,1.855h3.532V88.774c-.514,0-.977.02-1.438-.005a1.241,1.241,0,0,1-1.3-1.214,1.255,1.255,0,0,1,1.281-1.242c.41-.03.825-.011,1.238-.01,2.028,0,2.744.711,2.744,2.72q0,13.092,0,26.183v1.07c1.215,0,2.339-.038,3.459.01a1.968,1.968,0,0,1,1.985,2.015q.04,6.03,0,12.059a2.011,2.011,0,0,1-1.986,2.025c-.43.038-.863.046-1.3.068v11.571c.367,0,.665,0,.962,0a2.094,2.094,0,0,1,2.342,2.342c.007.963,0,1.927,0,2.89,0,2.039-.69,2.737-2.7,2.737q-39.564,0-79.127.019a2.7,2.7,0,0,1-2.748-1.505v-4.956c.593-1.564,1.964-1.59,3.311-1.564V132.4c-1.434.108-2.722-.03-3.311-1.552v-4.956a2.706,2.706,0,0,1,2.752-1.494c4.231.052,8.463.02,12.695.02h.881v-2.381a11.619,11.619,0,0,1-1.427-.011,5.92,5.92,0,0,1-1.748-.377c-1.937-.91-3.836-1.9-5.752-2.851a2.151,2.151,0,0,1-1.269-2.047c-.006-.569,0-1.138,0-1.782-1.158,0-2.226-.054-3.287.013a2.682,2.682,0,0,1-2.844-1.48v-6.772a2.693,2.693,0,0,1,2.856-1.471c1.061.067,2.129.014,3.274.014,0-.5.026-.9,0-1.309a2.519,2.519,0,0,1,1.662-2.728c1.7-.772,3.329-1.7,5.03-2.47a6.914,6.914,0,0,1,2.2-.532c.978-.089,1.969-.022,2.951-.022.051-.188.086-.29.106-.4a2.069,2.069,0,0,1,2.416-2.017c1.459-.006,2.918-.017,4.376.009a2,2,0,0,1,1.984,1.554c.066.257.09.526.133.786h3.537c.271-1.817.874-2.347,2.618-2.35q2.106,0,4.211,0a1.887,1.887,0,0,1,1.807,1.082,8.163,8.163,0,0,1,.387,1.26h3.468c0-1.109.018-2.151-.016-3.191a.841.841,0,0,0-.349-.57,2.218,2.218,0,0,1-1.03-2.03c.018-1.266.032-2.533-.012-3.8a2.249,2.249,0,0,0-.36-1.128q-1.923-2.833-3.918-5.618a4.083,4.083,0,0,1-.8-2.54c.027-1.454.007-2.908.007-4.343-1.783-.4-2.259-1-2.267-2.756,0-.688.036-1.379-.008-2.064a2.466,2.466,0,0,1,1.583-2.691m-29.93,64.976v11.632h41.5a7.207,7.207,0,0,1,.907.024,1.124,1.124,0,0,1,1.047,1.094,1.1,1.1,0,0,1-.849,1.251,4.34,4.34,0,0,1-1.142.1q-21.883.008-43.768,0h-1.07v2.971h79.513V146.5h-1.011q-13.172,0-26.344,0a4.347,4.347,0,0,1-1.142-.106,1.1,1.1,0,0,1-.842-1.254,1.126,1.126,0,0,1,1.051-1.09,7.612,7.612,0,0,1,.907-.023h23.97V132.409h-1.229q-30.307,0-60.615,0a7.127,7.127,0,0,1-1.152-.053,1.089,1.089,0,0,1-.98-1.143,1.112,1.112,0,0,1,.979-1.23,5.306,5.306,0,0,1,.986-.049q18.953,0,37.905,0h1.055v-2.99h-53.049v2.99h.972c2.037,0,4.074,0,6.111,0a2.747,2.747,0,0,1,.895.1,1.114,1.114,0,0,1,.777,1.3,1.126,1.126,0,0,1-1.18,1.051c-1.373.023-2.747.007-4.2.007m49.713-21.151H1112.78v8.246h40.067Zm-40.093-2.6h40.061v-7.889h-16.081c-.318,1.669-.885,2.325-2.123,2.354-1.595.037-3.191.033-4.786,0a1.987,1.987,0,0,1-1.978-1.664c-.052-.232-.084-.47-.128-.718h-3.487c-.351,1.782-.909,2.374-2.312,2.394-1.513.021-3.027.024-4.539-.007a1.98,1.98,0,0,1-2.046-1.77c-.039-.207-.092-.412-.133-.593h-2.448Zm42.628,21.223h23.88v-11.06h-8.989c0,.616.014,1.162,0,1.707-.028.919-.46,1.389-1.367,1.395q-4.374.027-8.749,0c-.9-.006-1.329-.482-1.354-1.407-.015-.566,0-1.132,0-1.706h-3.415Zm-19.139-55.024c0,1.682-.01,3.271.012,4.86a1.21,1.21,0,0,0,.272.585c1.284,1.854,2.563,3.712,3.883,5.541a1.247,1.247,0,0,0,.86.452c1.6.044,3.193.048,4.788,0a1.346,1.346,0,0,0,.916-.492c1.293-1.781,2.538-3.6,3.794-5.4a1.232,1.232,0,0,0,.3-.569c.025-1.639.014-3.278.014-4.973-2.185,0-4.273,0-6.36,0-1.019,0-1.6-.476-1.579-1.269.016-.763.572-1.2,1.552-1.205q3.882-.007,7.762,0h.865V69.941h-19.285v2.425c1.444,0,2.818,0,4.193,0,1.021,0,1.609.471,1.6,1.252s-.6,1.217-1.633,1.224c-.625,0-1.25,0-1.95,0M1110.2,118.82V101.43c-1.42.708-2.77,1.365-4.1,2.064a.792.792,0,0,0-.27.606q-.024,6.027,0,12.053a.854.854,0,0,0,.349.64c1.283.681,2.591,1.316,4.015,2.027m28.031,3.276h-15.729v2.282h15.729Zm29.513-6.692h-6.412v3.987h6.412Zm-64.437-7.606h-3.569v4.638h3.569Zm38.046-15.67h4.692c0-.99.019-1.92-.018-2.848-.007-.169-.243-.469-.379-.472-1.42-.035-2.841-.021-4.295-.021Zm5.8,32.221h5.65V122.1h-5.65Zm-25.518-26h-3.809v2.24h3.809Zm8.68,2.254h3.818V98.329h-3.818Zm-14.206,23.771h3.823V122.1h-3.823Zm24.728,0h3.761v-2.283h-3.761Zm1.873-29.673v1.909c0,1.775,0,1.775,1.767,1.561.023,0,.044-.027.1-.065V94.7Z" transform="translate(4730 -11032)" fill="#3b5620"/>
      <path id="Trazado_279211" data-name="Trazado 279211" d="M1164.62,93.156c1.43,0,2.862-.009,4.293,0,.931.007,1.461.448,1.481,1.189.023.778-.533,1.277-1.488,1.281q-4.335.015-8.67,0c-.915,0-1.43-.481-1.43-1.246s.5-1.214,1.436-1.222c1.459-.014,2.918,0,4.378,0" transform="translate(4730 -11032)" fill="#3b5620"/>
      <path id="Trazado_279212" data-name="Trazado 279212" d="M1164.673,99.608c1.431,0,2.863-.009,4.294,0,.9.008,1.441.5,1.429,1.24a1.248,1.248,0,0,1-1.378,1.226q-4.417.025-8.836,0a1.225,1.225,0,0,1-1.374-1.3c.028-.735.521-1.159,1.406-1.167,1.486-.012,2.972,0,4.459,0" transform="translate(4730 -11032)" fill="#3b5620"/>
      <path id="Trazado_279213" data-name="Trazado 279213" d="M1164.625,106.058c1.432,0,2.863-.006,4.3,0,.921.005,1.457.447,1.475,1.192.018.775-.538,1.275-1.493,1.279q-4.295.017-8.589,0c-.97,0-1.51-.474-1.507-1.258s.52-1.211,1.524-1.215c1.432,0,2.863,0,4.3,0" transform="translate(4730 -11032)" fill="#3b5620"/>
      <path id="Trazado_279214" data-name="Trazado 279214" d="M1148.3,141.823c-1.458,0-2.917.017-4.374,0a2.058,2.058,0,0,1-2.293-2.3c-.011-.963-.022-1.926.008-2.888a1.937,1.937,0,0,1,1.968-2.012q4.662-.055,9.324,0a1.929,1.929,0,0,1,1.955,2.022c.03.99.024,1.981.007,2.971a2.011,2.011,0,0,1-2.139,2.195c-1.485.037-2.971.009-4.456.009Zm-4.157-2.538h8.217v-2.153h-8.217Z" transform="translate(4730 -11032)" fill="#3b5620"/>
      <path id="Trazado_279215" data-name="Trazado 279215" d="M1113.292,134.6c1.43,0,2.861-.016,4.291.005a2.057,2.057,0,0,1,2.287,2.3c.01.908.014,1.816,0,2.723a1.985,1.985,0,0,1-2.065,2.18q-4.579.054-9.159,0a1.964,1.964,0,0,1-2.034-2.122c-.022-.989-.023-1.981,0-2.97a1.977,1.977,0,0,1,2.06-2.1c1.54-.039,3.081-.009,4.621-.009Zm-4.173,4.693h8.218v-2.159h-8.218Z" transform="translate(4730 -11032)" fill="#3b5620"/>
      <path id="Trazado_279216" data-name="Trazado 279216" d="M1130.808,134.6c1.431,0,2.861-.016,4.291.005a2.057,2.057,0,0,1,2.284,2.3c.01.907.015,1.816,0,2.723a1.981,1.981,0,0,1-2.067,2.176q-4.579.054-9.159,0a1.965,1.965,0,0,1-2.032-2.125c-.021-.989-.023-1.98,0-2.97a1.981,1.981,0,0,1,2.064-2.094c1.54-.039,3.081-.009,4.621-.009Zm4.064,2.536h-8.217v2.153h8.217Z" transform="translate(4730 -11032)" fill="#3b5620"/>
      <path id="Trazado_279217" data-name="Trazado 279217" d="M1165.772,134.6c1.43,0,2.861-.014,4.291,0a2.071,2.071,0,0,1,2.344,2.327c.01.935.02,1.871-.007,2.806a1.947,1.947,0,0,1-2,2.067q-4.622.06-9.242,0a1.949,1.949,0,0,1-2.009-2.061c-.025-.99-.022-1.981,0-2.971a2.018,2.018,0,0,1,2.17-2.163c1.485-.03,2.971-.007,4.457-.008m-4.119,4.689h8.218V137.13h-8.218Z" transform="translate(4730 -11032)" fill="#3b5620"/>
    </g>
  </g>
</svg>
