<svg xmlns="http://www.w3.org/2000/svg" width="339.778" height="298.261" viewBox="0 0 339.778 298.261">
  <g id="Grupo_262122" data-name="Grupo 262122" transform="translate(-11441.514 9120.663)">
    <g id="Grupo_262115" data-name="Grupo 262115">
      <path id="Trazado_280068" data-name="Trazado 280068" d="M439.877,1947.871c-83.283,2.683-164.379,16.374-206.575-56.458s-18.12-165.639,53.773-207.29c48.542-28.123,187.241-28.207,182.893,73.493-3.912,91.478,46.159,59.087,64.8,79.088,44.169,47.4,2.057,108.044-94.889,111.167" transform="translate(11229 -10788.719)" fill="#e7f4fa"/>
      <path id="Trazado_280069" data-name="Trazado 280069" d="M547.454,1765.823c9.853,19,4.047,41.552-12.967,50.376s-38.8.577-48.649-18.421-12.311-53.468,4.7-62.293,47.06,11.34,56.913,30.338" transform="translate(11229 -10788.719)" fill="#e7f4fa"/>
      <path id="Trazado_280070" data-name="Trazado 280070" d="M306.277,1850.328,366,1808.2l-1.177-8.627-56.786-4.308Z" transform="translate(11229 -10788.719)" fill="#3b5620"/>
      <path id="Trazado_280071" data-name="Trazado 280071" d="M385.217,1764.171c4.742-11.981-9.256-24.1-22.4-31.792-8.859-5.181-16.009-6.722-24.852,2.431-5.638,5.836-34.173,40.379-30.566,67.725,0,0,23.847,7.836,54.415.781,0,0,13.268-13.539,23.4-39.145" transform="translate(11229 -10788.719)" fill="#56a0fd"/>
      <path id="Trazado_280072" data-name="Trazado 280072" d="M374.351,1720.669s9.966,12.332,8.5,12.775-1.9,3.375-3.419,5.321c-1.645,2.117-2.044,5.443-1.888,9.049.109,2.524-3.623,2.419-5.991,1.146-10.2-5.488-13.114-13.312-8.927-14.664,9.407-3.041,11.727-13.627,11.727-13.627" transform="translate(11229 -10788.719)" fill="#ffbe9e"/>
      <path id="Trazado_280073" data-name="Trazado 280073" d="M379.431,1738.766c1.522-1.947,1.95-4.882,3.419-5.322s-9.287-13.746-9.287-13.746a12.064,12.064,0,0,1-1.773,6.925c-.335,7.8,3.6,13.482,5.838,17.391a12.625,12.625,0,0,1,1.8-5.248" transform="translate(11229 -10788.719)" fill="#ff9c81"/>
      <path id="Trazado_280074" data-name="Trazado 280074" d="M397.716,1716.572c1.848,7.419-4.108,23.072-13.839,24.96-5.345,1.037-12.487-10.42-11.445-21.232.136-1.406,2.889-7.848,9.989-11.567,3.206-1.692,13.374.127,15.3,7.839" transform="translate(11229 -10788.719)" fill="#ffbe9e"/>
      <path id="Trazado_280075" data-name="Trazado 280075" d="M395.318,1730.75c-.62.755,4.985-8.352.8-12.659-1.7-1.751-2.884.58-5.2-1.028-1.981-1.372-4.546-9.66-11.386,3.218-.328.619-1.344.838-1.979,1.121-.783.344-.926,2.467-1.477,3.121-.532.631-.871-2.9-1.349-2.226-.727,1.017-1.235,5.082-2.931,4.325-.821-.366-.767-2.121-.966-2.888-.564-2.167-1.546-4.145-1.661-6.426a13.663,13.663,0,0,1,1.913-7.209,12.878,12.878,0,0,1,5.1-5.322,9.474,9.474,0,0,1,7.563-.463c1.437.535,2.755,1.54,4.258,1.882,1.328.3,2.464,1.023,3.8,1.333a5.309,5.309,0,0,0,2.736-.229,7.256,7.256,0,0,1,6.369,1.517,6.035,6.035,0,0,1,1.8,6.174c-.392,1.218-1.218,2.506-.68,3.666.2.422.556.759.709,1.2a2.4,2.4,0,0,1-.014,1.307,10,10,0,0,1-3.872,5.626,8.774,8.774,0,0,0-2.106,1.826c-.492.7-.867,1.464-1.42,2.136" transform="translate(11229 -10788.719)" fill="#282738"/>
      <path id="Trazado_280076" data-name="Trazado 280076" d="M378.453,1723.982s-.991-5.782-3.581-6.44-4.1,6.632.379,9.072,3.6-.967,3.2-2.632" transform="translate(11229 -10788.719)" fill="#ffbe9e"/>
      <path id="Trazado_280077" data-name="Trazado 280077" d="M364.274,1948.628s2.29,2.678,4.984,6.3,4.715,7.4.944,9.138-8.352-2.521-9.834-5.042-3.162-2.246-5.2-3.922c-2.067-1.7-.965-7.889-.965-7.889Z" transform="translate(11229 -10788.719)" fill="#e79e30"/>
      <path id="Trazado_280078" data-name="Trazado 280078" d="M329.645,1829.55c5.511,6.972,23.856,119.29,23.856,119.29,5.512,4.633,13.778,0,13.778,0,5.971-57.271-1.417-142.336-1.417-142.336s-41.729,30.018-36.217,23.046" transform="translate(11229 -10788.719)" fill="#3b5620"/>
      <path id="Trazado_280079" data-name="Trazado 280079" d="M355.935,1808.12c6.792,46.438,12.806,95.494,7.907,142.329-.114,1.083-1.824,1.094-1.71,0,4.885-46.695-1.074-95.587-7.845-141.875-.157-1.075,1.489-1.54,1.648-.454" transform="translate(11229 -10788.719)" fill="#9c67d3"/>
      <path id="Trazado_280080" data-name="Trazado 280080" d="M360.59,1808.347c-.076,4.658.071,17.709,6.736,17.708a.855.855,0,0,1,0,1.709c-8.156,0-8.538-13.711-8.445-19.417a.855.855,0,0,1,1.709,0" transform="translate(11229 -10788.719)" fill="#9c67d3"/>
      <path id="Trazado_280081" data-name="Trazado 280081" d="M309.329,1950.471s-2.29,2.68-4.984,6.3-4.715,7.405-.943,9.139,8.352-2.52,9.834-5.041,3.162-2.246,5.2-3.923c2.067-1.7.965-7.889.965-7.889Z" transform="translate(11229 -10788.719)" fill="#e79e30"/>
      <path id="Trazado_280082" data-name="Trazado 280082" d="M343.959,1831.394c-5.511,6.972-23.857,119.289-23.857,119.289-5.511,4.633-13.778,0-13.778,0-5.971-57.27.5-143.182.5-143.182s42.646,30.865,37.135,23.893" transform="translate(11229 -10788.719)" fill="#3b5620"/>
      <path id="Trazado_280083" data-name="Trazado 280083" d="M319.316,1810.419c-6.77,46.283-12.729,95.185-7.846,141.874.114,1.093-1.6,1.084-1.709,0-4.9-46.835,1.115-95.891,7.907-142.329.158-1.084,1.806-.623,1.648.455" transform="translate(11229 -10788.719)" fill="#9c67d3"/>
      <path id="Trazado_280084" data-name="Trazado 280084" d="M314.722,1810.191c.093,5.707-.289,19.419-8.445,19.417a.855.855,0,0,1,0-1.709c6.667,0,6.813-13.047,6.736-17.708a.855.855,0,0,1,1.709,0" transform="translate(11229 -10788.719)" fill="#9c67d3"/>
      <rect id="Rectángulo_325683" data-name="Rectángulo 325683" width="60.883" height="43.357" transform="translate(11653.629 -8918.879)" fill="#d98853"/>
      <rect id="Rectángulo_325684" data-name="Rectángulo 325684" width="34.266" height="43.357" transform="translate(11626.094 -8918.879)" fill="#c16d3e"/>
      <rect id="Rectángulo_325685" data-name="Rectángulo 325685" width="9.33" height="27.716" transform="translate(11666.31 -8914.215)" fill="#f3a277"/>
      <rect id="Rectángulo_325686" data-name="Rectángulo 325686" width="28.813" height="2.469" transform="translate(11681.403 -8914.214)" fill="#f3a277"/>
      <rect id="Rectángulo_325687" data-name="Rectángulo 325687" width="28.813" height="2.47" transform="translate(11681.403 -8910.922)" fill="#f3a277"/>
      <rect id="Rectángulo_325688" data-name="Rectángulo 325688" width="81.913" height="53.922" transform="translate(11648.142 -8879.568)" fill="#d98853"/>
      <rect id="Rectángulo_325689" data-name="Rectángulo 325689" width="46.102" height="53.922" transform="translate(11611.096 -8879.568)" fill="#c16d3e"/>
      <path id="Trazado_280085" data-name="Trazado 280085" d="M514.227,1928.29H441.37L428.2,1909.149h72.856Z" transform="translate(11229 -10788.719)" fill="#f3a277"/>
      <path id="Trazado_280086" data-name="Trazado 280086" d="M365.6,1928.29h49.807l13.171-19.141H378.777Z" transform="translate(11229 -10788.719)" fill="#f3a277"/>
      <rect id="Rectángulo_325690" data-name="Rectángulo 325690" width="61.195" height="17.562" transform="translate(11664.195 -8854.803)" fill="#f3a277"/>
      <path id="Trazado_280087" data-name="Trazado 280087" d="M306.818,1809.24s36.653,7.1,59.572-3.832l-1.565-5.838a115.188,115.188,0,0,1-57.425,2.965Z" transform="translate(11229 -10788.719)" fill="#9c67d3"/>
      <path id="Trazado_280088" data-name="Trazado 280088" d="M347.818,1802.19l2.36-.74,4.041,8.953-4.849,1.521Z" transform="translate(11229 -10788.719)" fill="#282738"/>
      <rect id="Rectángulo_325691" data-name="Rectángulo 325691" width="52.056" height="36.012" transform="translate(11608.489 -9045.609)" fill="#d98853"/>
      <rect id="Rectángulo_325692" data-name="Rectángulo 325692" width="29.298" height="36.012" transform="translate(11584.945 -9045.609)" fill="#af5b31"/>
      <path id="Trazado_280089" data-name="Trazado 280089" d="M439.916,1755.892h-46.3l-8.372-12.783h46.3Z" transform="translate(11229 -10788.719)" fill="#f3a277"/>
      <path id="Trazado_280090" data-name="Trazado 280090" d="M345.464,1755.892h31.653l8.37-12.783H353.835Z" transform="translate(11229 -10788.719)" fill="#f3a277"/>
      <rect id="Rectángulo_325693" data-name="Rectángulo 325693" width="38.89" height="11.729" transform="translate(11618.69 -9029.069)" fill="#f3a277"/>
      <rect id="Rectángulo_325694" data-name="Rectángulo 325694" width="53.87" height="47.711" transform="translate(11600.93 -9011.658)" fill="#d98853"/>
      <rect id="Rectángulo_325695" data-name="Rectángulo 325695" width="30.319" height="47.711" transform="translate(11576.567 -9011.658)" fill="#c16d3e"/>
      <rect id="Rectángulo_325696" data-name="Rectángulo 325696" width="8.255" height="30.499" transform="translate(11612.151 -9006.524)" fill="#f3a277"/>
      <rect id="Rectángulo_325697" data-name="Rectángulo 325697" width="25.494" height="2.718" transform="translate(11625.505 -9006.525)" fill="#f3a277"/>
      <rect id="Rectángulo_325698" data-name="Rectángulo 325698" width="25.494" height="2.717" transform="translate(11625.505 -9002.901)" fill="#f3a277"/>
      <path id="Trazado_280091" data-name="Trazado 280091" d="M305.69,1747.372s16.581-14.758,28.113-14.248,13.269,9.782,13.269,9.782-26.439,5.221-34.981,14.323-6.4-9.857-6.4-9.857" transform="translate(11229 -10788.719)" fill="#ffbe9e"/>
      <path id="Trazado_280092" data-name="Trazado 280092" d="M356.471,1731.575c-9.427-14.342-40.13,6.362-40.13,6.362l7.167,17.071s42.154-9.448,32.963-23.433" transform="translate(11229 -10788.719)" fill="#3f8fd8"/>
      <path id="Trazado_280093" data-name="Trazado 280093" d="M303.866,1750.8c-2.576,9.2-.181,34.406-.181,34.406l6.088-4.281,6.416-30.97s-9.7-8.519-12.323.845" transform="translate(11229 -10788.719)" fill="#ffbe9e"/>
      <path id="Trazado_280094" data-name="Trazado 280094" d="M310.756,1780.032a10.794,10.794,0,0,0,2.167,1.338,13.577,13.577,0,0,1,3.251,3.365c.524.694,2.449,1.536,2.153,2.618-.483,1.772-3.3-.5-4.079-.768a1.812,1.812,0,0,0-2.064.447,2.268,2.268,0,0,0-.27,1.442,45.742,45.742,0,0,0,.677,4.713c.129.815.2,1.627.28,2.448a8.774,8.774,0,0,1,.277,2.006.843.843,0,0,1-1.072.71c-.446-.182-.375-.649-.484-1.04-.246-.878-.517-1.75-.794-2.62-.061-.191-.214-1.1-.423-1.178-1.014-.389-.633,2.051-.591,2.439a4.866,4.866,0,0,1-.3,2.908.452.452,0,0,1-.285.263c-.21.035-.362-.192-.441-.389-.466-1.16-.5-2.463-.992-3.614-.081-.187-.208-.394-.411-.411-.815-.069-.9,1.568-.974,2.1-.047.337-.138.752-.468.835a.565.565,0,0,1-.571-.26,1.682,1.682,0,0,1-.218-.625,16.406,16.406,0,0,1-.373-1.956c-.024-.315-.011-1.252-.441-1.313a.313.313,0,0,0-.232.088,1.7,1.7,0,0,0-.393.826c-.094.3-.283.613-.591.647-.381.042-.644-.37-.769-.733a14.217,14.217,0,0,1-.469-4.13q-.069-2.185.059-4.372a48.358,48.358,0,0,1,.687-5.765c.3-1.662.754-3.549,2.126-4.678a8.668,8.668,0,0,1,3.136-1.438,2.618,2.618,0,0,1,1.893.365.548.548,0,0,1,.186.191.623.623,0,0,1,.034.338,18.244,18.244,0,0,0-.155,2.629,4.528,4.528,0,0,0,.939,2.572" transform="translate(11229 -10788.719)" fill="#ffbe9e"/>
      <path id="Trazado_280095" data-name="Trazado 280095" d="M398.333,1821.037c-.314-.779-.054-2.792-1.1-3.085-1.708-.481-1.229,2.983-1.394,3.76a1.749,1.749,0,0,1-1.4,1.487,2.183,2.183,0,0,1-1.329-.494,44.623,44.623,0,0,1-3.566-2.9c-.611-.513-1.247-.978-1.887-1.45-.478-.353-.98-1.015-1.523-1.228a.815.815,0,0,0-1.121.535c-.072.46.35.633.619.918.606.641,1.193,1.3,1.775,1.96.128.145.8.724.766.937-.183,1.033-2.014-.5-2.314-.724a4.722,4.722,0,0,0-2.559-1.194.44.44,0,0,0-.36.1c-.134.156-.022.4.1.558.73.965,1.792,1.639,2.5,2.62a.563.563,0,0,1,.137.545c-.348.709-1.746-.036-2.225-.239-.3-.13-.692-.26-.925-.029a.548.548,0,0,0-.068.6,1.59,1.59,0,0,0,.409.491,15.363,15.363,0,0,0,1.434,1.281c.249.177,1.032.634.868,1.019a.3.3,0,0,1-.188.148,1.641,1.641,0,0,1-.88-.085.8.8,0,0,0-.829.167c-.225.3-.015.718.224,1a13.719,13.719,0,0,0,3.187,2.443,11.669,11.669,0,0,0,4.175,1.606c7.948,1.275,8.03-9.352,7.466-10.754" transform="translate(11229 -10788.719)" fill="#ffbe9e"/>
      <path id="Trazado_280096" data-name="Trazado 280096" d="M325.06,1803.316h3.262l.769,9.762H323.72Z" transform="translate(11229 -10788.719)" fill="#af75e1"/>
      <path id="Trazado_280097" data-name="Trazado 280097" d="M298.246,1796.6l-24.1-.185,4.548,12.418-48.733-12.555,36.964.287-4.036-11.665Z" transform="translate(11229 -10788.719)" fill="#ffd500"/>
      <path id="Trazado_280098" data-name="Trazado 280098" d="M299.656,1789.344l-11.188-10.827-3.408,7.835-17.2-27.594,17.16,16.61,3.312-7.254Z" transform="translate(11229 -10788.719)" fill="#ffd500"/>
      <path id="Trazado_280099" data-name="Trazado 280099" d="M298.608,1801.086l-4.823,14.8,8.536-.374-17.254,27.558,7.4-22.707-7.972.206Z" transform="translate(11229 -10788.719)" fill="#ffd500"/>
    </g>
  </g>
</svg>
