<svg xmlns="http://www.w3.org/2000/svg" width="61.553" height="69.098" viewBox="0 0 61.553 69.098">
  <g id="Grupo_261797" data-name="Grupo 261797" transform="translate(-5217.45 10950.424)">
    <g id="Grupo_261564" data-name="Grupo 261564">
      <path id="Trazado_279192" data-name="Trazado 279192" d="M488.134,150.674a1.378,1.378,0,0,1-.678-1.416c.309-4.756.6-9.514.889-14.272q.219-3.534.442-7.068c.051-.8.443-1.194,1.1-1.147.614.044.974.494.929,1.243-.235,3.928-.485,7.854-.727,11.782-.179,2.915-.353,5.83-.532,8.8H496.9c.225-1.309.472-2.647.683-3.99,1.139-7.234,4.964-12.451,11.667-15.473a17.607,17.607,0,0,1,7.2-1.541c2.74-.015,5.495-.164,8.168.643,7.831,2.362,12.522,7.583,14.119,15.588.316,1.583.55,3.182.825,4.79h7.332c-.08-1.438-.152-2.842-.238-4.245q-.442-7.272-.894-14.542c-.343-5.565-.673-11.131-1.037-16.7a26.574,26.574,0,0,0-.495-4.613,10.738,10.738,0,0,0-7.21-7.792c-.332,1.169-.624,2.294-.97,3.4a38.8,38.8,0,0,1-9.849,16.644,19.722,19.722,0,0,1-5.134,3.669,6.377,6.377,0,0,1-5.776.018,21.623,21.623,0,0,1-7.259-5.815,40.841,40.841,0,0,1-8.41-17.142c-.058-.238-.119-.475-.194-.774a10.716,10.716,0,0,0-7.2,7.868,34,34,0,0,0-.55,5.354c-.22,3.162-.384,6.328-.574,9.493-.047.773-.462,1.221-1.089,1.189-.605-.031-.984-.489-.94-1.229.272-4.579.375-9.177.887-13.729.583-5.195,3.549-8.755,8.414-10.7.206-.083.412-.162.6-.233-.209-1.827-.436-3.606-.609-5.391-.11-1.14-.152-2.287-.2-3.433a.79.79,0,0,0-.44-.8,1.754,1.754,0,0,1-.88-1.642c-.01-1.3-.032-2.609.006-3.912a1.885,1.885,0,0,1,2.078-1.973q1.518-.014,3.036,0c.73.008,1.169.406,1.164,1.022s-.439,1-1.18,1.006c-.985.011-1.971,0-3.009,0v3.718h38.614V83.615H506.765c-1.094,0-1.59-.314-1.6-1.008s.5-1.026,1.581-1.026h30.5c1.7,0,2.376.666,2.382,2.358,0,1.124,0,2.249,0,3.373a2.035,2.035,0,0,1-1.029,1.916.671.671,0,0,0-.277.458c-.26,2.994-.5,5.99-.747,8.984a30.77,30.77,0,0,1,3.1,1.6,12.4,12.4,0,0,1,5.883,9.875c.52,7.356.922,14.72,1.377,22.081q.51,8.247,1.03,16.493c.047.74.182,1.505-.644,1.955Zm12.079-61.22c-.01.208-.026.341-.022.473a53.464,53.464,0,0,0,1.319,10.686,38.776,38.776,0,0,0,8.24,16.911,18.98,18.98,0,0,0,6.45,5.107,4.282,4.282,0,0,0,4.01-.055,18.388,18.388,0,0,0,1.916-1.123,30.038,30.038,0,0,0,9.2-11.109,45.717,45.717,0,0,0,4.832-18.232c.059-.882.008-1.771.008-2.658Zm37.267,59.154c-.258-1.519-.473-3-.764-4.471q-2.151-10.822-12.741-13.969a25.1,25.1,0,0,0-7.5-.544,16.6,16.6,0,0,0-7.928,2.1c-6.644,3.653-8.944,9.761-9.466,16.884Z" transform="translate(4730 -11032)" fill="#3b5620"/>
      <path id="Trazado_279193" data-name="Trazado 279193" d="M518.3,93.586c1.753,0,3.505,0,5.258,0,.915,0,1.276.352,1.28,1.252q.011,2.663,0,5.325c0,.9-.369,1.251-1.282,1.252q-5.325.006-10.651,0c-.913,0-1.275-.355-1.279-1.254q-.011-2.663,0-5.325c0-.9.364-1.247,1.281-1.25,1.8,0,3.595,0,5.393,0m4.489,2.082h-9.092v3.667h9.092Z" transform="translate(4730 -11032)" fill="#3b5620"/>
      <path id="Trazado_279194" data-name="Trazado 279194" d="M518.229,140.8q-3.036,0-6.072,0c-1.089,0-1.413-.328-1.429-1.4a7.5,7.5,0,0,1,.617-3.682,5.809,5.809,0,0,1,5.129-3.4,20.632,20.632,0,0,1,4.434.135,5.837,5.837,0,0,1,4.778,5.459c.042.537.047,1.078.038,1.617-.016.9-.374,1.261-1.289,1.266-2.069.01-4.137,0-6.206,0m-5.371-2.087H523.6a3.9,3.9,0,0,0-3.549-4.361,33.23,33.23,0,0,0-3.64,0,3.9,3.9,0,0,0-3.551,4.361" transform="translate(4730 -11032)" fill="#3b5620"/>
      <path id="Trazado_279195" data-name="Trazado 279195" d="M508.48,146.094c-.291,0-.583.019-.872,0a.992.992,0,0,1-.968-1,.951.951,0,0,1,.9-1,9.483,9.483,0,0,1,1.876.006.912.912,0,0,1,.855,1.023.935.935,0,0,1-.919.966,7.922,7.922,0,0,1-.872.006Z" transform="translate(4730 -11032)" fill="#3b5620"/>
      <path id="Trazado_279196" data-name="Trazado 279196" d="M528.005,144.082a5.629,5.629,0,0,1,.937.009.949.949,0,0,1,.866,1.025.926.926,0,0,1-.923.967,14.92,14.92,0,0,1-1.744.005.97.97,0,0,1-.963-1,.993.993,0,0,1,.955-1.015c.288-.027.581,0,.872,0v.01" transform="translate(4730 -11032)" fill="#3b5620"/>
      <path id="Trazado_279197" data-name="Trazado 279197" d="M514.988,144.075a8.157,8.157,0,0,1,.871.005.98.98,0,0,1,.921,1.041.923.923,0,0,1-.92.962,14.276,14.276,0,0,1-1.743,0,.992.992,0,0,1-.972-1,1.026,1.026,0,0,1,.972-1.011c.288-.027.58-.005.871-.005Z" transform="translate(4730 -11032)" fill="#3b5620"/>
      <path id="Trazado_279198" data-name="Trazado 279198" d="M521.537,146.092c-.313,0-.628.025-.938,0a.927.927,0,0,1-.92-.962.911.911,0,0,1,.849-1.027,9.617,9.617,0,0,1,1.874-.008.956.956,0,0,1,.9,1,.986.986,0,0,1-.964,1c-.266.023-.536,0-.8,0v0" transform="translate(4730 -11032)" fill="#3b5620"/>
    </g>
  </g>
</svg>
