<svg xmlns="http://www.w3.org/2000/svg" width="350.61" height="309.947" viewBox="0 0 350.61 309.947">
  <g id="Grupo_262124" data-name="Grupo 262124" transform="translate(-11401.212 7690.833)">
    <g id="Grupo_262117" data-name="Grupo 262117">
      <path id="Trazado_280355" data-name="Trazado 280355" d="M517.938,3205.831c10.029,19.338,4.119,42.295-13.2,51.277s-39.488.587-49.517-18.751-12.532-54.424,4.787-63.406,47.9,11.543,57.929,30.88" transform="translate(11229 -10788.719)" fill="#e7f4fa"/>
      <path id="Trazado_280356" data-name="Trazado 280356" d="M408.439,3391.131c-84.771,2.731-167.316,16.666-210.266-57.467s-18.443-168.6,54.733-210.992c49.41-28.627,190.587-28.712,186.161,74.8-3.981,93.113,52.005,56.422,65.955,80.5,42.95,74.133,2.1,109.974-96.583,113.153" transform="translate(11229 -10788.719)" fill="#e7f4fa"/>
      <path id="Trazado_280357" data-name="Trazado 280357" d="M314.008,3383.279c-18.517,19.021-54.518,29.116-80.41,22.549s-31.871-27.31-13.354-46.331,54.518-29.115,80.41-22.548,31.871,27.31,13.354,46.33" transform="translate(11229 -10788.719)" fill="#f2f2f2"/>
      <path id="Trazado_280358" data-name="Trazado 280358" d="M314.974,3344.422l-102.734,29.01,2.686,9.512.052-.014c2.489,7.15,9.558,12.942,20.776,15.788,23.4,5.935,55.935-3.188,72.67-20.377,8.09-8.311,10.992-16.982,9.2-24.4l.035-.01Z" transform="translate(11229 -10788.719)" fill="#ffbf00"/>
      <path id="Trazado_280359" data-name="Trazado 280359" d="M306.022,3369.832c-16.735,17.19-49.27,26.313-72.67,20.378s-28.8-24.681-12.068-41.87,49.27-26.313,72.67-20.378,28.8,24.681,12.068,41.87" transform="translate(11229 -10788.719)" fill="#ffd500"/>
      <path id="Trazado_280360" data-name="Trazado 280360" d="M305.683,3323.557l-96.436,27.231,5.884,20.838.048-.013c2.337,6.712,8.972,12.15,19.5,14.821,21.966,5.571,52.507-2.994,68.216-19.129,7.6-7.8,10.318-15.94,8.638-22.9l.032-.009Z" transform="translate(11229 -10788.719)" fill="#fa0"/>
      <path id="Trazado_280361" data-name="Trazado 280361" d="M297.279,3347.408c-15.709,16.136-46.25,24.7-68.216,19.129s-27.037-23.168-11.328-39.3,46.25-24.7,68.215-19.129,27.038,23.168,11.329,39.3" transform="translate(11229 -10788.719)" fill="#ffd500"/>
      <path id="Trazado_280362" data-name="Trazado 280362" d="M303.846,3311.487,204.5,3339.539l2.136,7.564.05-.014c2.407,6.915,9.243,12.517,20.091,15.268,22.628,5.739,54.091-3.084,70.274-19.706,7.824-8.036,10.629-16.421,8.9-23.591l.034-.01Z" transform="translate(11229 -10788.719)" fill="#fa0"/>
      <path id="Trazado_280363" data-name="Trazado 280363" d="M295.188,3336.058c-16.183,16.624-47.646,25.445-70.274,19.707s-27.853-23.867-11.67-40.491,47.645-25.444,70.273-19.706,27.854,23.867,11.671,40.49" transform="translate(11229 -10788.719)" fill="#ffd500"/>
      <path id="Trazado_280364" data-name="Trazado 280364" d="M300.96,3301.266l-99.347,28.052,2.136,7.564.05-.014c2.407,6.914,9.243,12.517,20.091,15.268,22.628,5.739,54.091-3.084,70.274-19.706,7.824-8.036,10.629-16.421,8.9-23.591l.034-.01Z" transform="translate(11229 -10788.719)" fill="#fa0"/>
      <path id="Trazado_280365" data-name="Trazado 280365" d="M292.3,3325.838c-16.183,16.623-47.646,25.445-70.274,19.706s-27.853-23.867-11.671-40.49,47.646-25.445,70.275-19.706,27.853,23.867,11.67,40.49" transform="translate(11229 -10788.719)" fill="#ffd500"/>
      <path id="Trazado_280366" data-name="Trazado 280366" d="M286.268,3254.8l-96.436,27.231,12.887,45.638.048-.013c2.337,6.712,8.972,12.15,19.5,14.821,21.966,5.571,52.507-2.993,68.216-19.129,7.594-7.8,10.318-15.94,8.637-22.9l.033-.009Z" transform="translate(11229 -10788.719)" fill="#fa0"/>
      <path id="Trazado_280367" data-name="Trazado 280367" d="M277.864,3278.653c-15.709,16.136-46.25,24.7-68.216,19.129s-27.037-23.168-11.328-39.3,46.25-24.7,68.215-19.129,27.038,23.168,11.329,39.3" transform="translate(11229 -10788.719)" fill="#ffd500"/>
      <path id="Trazado_280368" data-name="Trazado 280368" d="M284.908,3244.418l-99.347,28.052,2.136,7.564.05-.014c2.407,6.915,9.243,12.517,20.091,15.268,22.628,5.739,54.091-3.084,70.274-19.706,7.824-8.036,10.63-16.421,8.9-23.591l.034-.01Z" transform="translate(11229 -10788.719)" fill="#fa0"/>
      <path id="Trazado_280369" data-name="Trazado 280369" d="M276.25,3268.989c-16.183,16.623-47.646,25.445-70.274,19.706s-27.853-23.867-11.671-40.49,47.646-25.445,70.275-19.706,27.853,23.867,11.67,40.49" transform="translate(11229 -10788.719)" fill="#ffd500"/>
      <path id="Trazado_280370" data-name="Trazado 280370" d="M282.022,3234.2l-99.347,28.052,2.136,7.564.05-.014c2.407,6.914,9.243,12.517,20.091,15.268,22.628,5.739,54.091-3.084,70.274-19.706,7.824-8.036,10.63-16.421,8.9-23.591l.034-.01Z" transform="translate(11229 -10788.719)" fill="#fa0"/>
      <path id="Trazado_280371" data-name="Trazado 280371" d="M273.364,3258.769c-16.183,16.623-47.646,25.445-70.274,19.706s-27.853-23.867-11.67-40.49,47.645-25.445,70.274-19.706,27.853,23.867,11.67,40.49" transform="translate(11229 -10788.719)" fill="#ffd500"/>
      <path id="Trazado_280372" data-name="Trazado 280372" d="M274.082,3211.643l-96.436,27.231,5.45,19.3.048-.013c2.337,6.712,8.972,12.15,19.5,14.821,21.966,5.571,52.507-2.994,68.216-19.129,7.594-7.8,10.318-15.94,8.637-22.9l.033-.009Z" transform="translate(11229 -10788.719)" fill="#fa0"/>
      <path id="Trazado_280373" data-name="Trazado 280373" d="M265.678,3235.494c-15.709,16.136-46.25,24.7-68.216,19.129s-27.037-23.168-11.328-39.3,46.25-24.7,68.215-19.129,27.038,23.168,11.329,39.3" transform="translate(11229 -10788.719)" fill="#ffd500"/>
      <path id="Trazado_280374" data-name="Trazado 280374" d="M275.627,3205.076l-102.734,29.009,2.686,9.512.052-.014c2.489,7.15,9.558,12.943,20.776,15.788,23.4,5.935,55.935-3.188,72.67-20.377,8.09-8.311,10.992-16.981,9.2-24.4l.035-.01Z" transform="translate(11229 -10788.719)" fill="#ffbf00"/>
      <path id="Trazado_280375" data-name="Trazado 280375" d="M266.674,3230.485c-16.735,17.189-49.27,26.313-72.67,20.378s-28.8-24.681-12.068-41.87,49.27-26.313,72.67-20.378,28.8,24.681,12.068,41.87" transform="translate(11229 -10788.719)" fill="#ffd500"/>
      <path id="Trazado_280376" data-name="Trazado 280376" d="M263.4,3229.655c-15.442,15.862-45.464,24.28-67.056,18.8s-26.578-22.775-11.136-38.636,45.464-24.28,67.056-18.8,26.578,22.775,11.136,38.636" transform="translate(11229 -10788.719)" fill="#ffbf00"/>
      <path id="Trazado_280377" data-name="Trazado 280377" d="M186.932,3215.924c15.442-15.861,45.464-24.28,67.056-18.8,9.267,2.351,15.464,6.882,18.312,12.538-.715-8.439-7.626-15.492-20.035-18.639-21.592-5.477-51.614,2.942-67.056,18.8-8.815,9.055-10.963,18.574-7.175,26.1-.529-6.246,2.33-13.249,8.9-20" transform="translate(11229 -10788.719)" fill="#fa0"/>
      <path id="Trazado_280378" data-name="Trazado 280378" d="M247.967,3190.852l-22.825,6.445,3.05,10.8.012,0c.553,1.589,2.123,2.876,4.616,3.508,5.2,1.319,12.427-.708,16.145-4.527,1.8-1.846,2.442-3.773,2.045-5.42l.007,0Z" transform="translate(11229 -10788.719)" fill="#fa0"/>
      <path id="Trazado_280379" data-name="Trazado 280379" d="M245.978,3196.5c-3.718,3.819-10.947,5.846-16.145,4.527s-6.4-5.483-2.682-9.3,10.947-5.846,16.146-4.528,6.4,5.484,2.681,9.3" transform="translate(11229 -10788.719)" fill="#ffd500"/>
      <path id="Trazado_280380" data-name="Trazado 280380" d="M243.279,3195.812a13.218,13.218,0,0,1-11.515,3.229c-3.708-.94-4.564-3.911-1.912-6.635a13.22,13.22,0,0,1,11.515-3.229c3.707.941,4.564,3.911,1.912,6.635" transform="translate(11229 -10788.719)" fill="#ff8c00"/>
      <path id="Trazado_280381" data-name="Trazado 280381" d="M247.133,3333.75c.03-.618.03-.618-3.251-3.125a221.134,221.134,0,0,1-32.922-30.692,2.852,2.852,0,0,0-1.744-.96c-2.3.026-7.381,14.387-4.642,25.063l.428,1.5.1.339c.194.658.227.753.348,1.108,1.616,4.4,5.926,7.972,12.713,9.826,8.218,2.244,18.342,1.493,27.634-1.51.319-.144,1.291-.582,1.338-1.552" transform="translate(11229 -10788.719)" fill="#262626"/>
      <path id="Trazado_280382" data-name="Trazado 280382" d="M208.509,3327.228c-.3,3.573,4.964,11.406,9.993,10.366l-1.212-2.207-1.274-.451-.9-1.6c.373-.6.869-1.4,1.247-1.991a29.128,29.128,0,0,1-5.655-.953l-1.03-2.489Z" transform="translate(11229 -10788.719)" fill="#fff"/>
      <path id="Trazado_280383" data-name="Trazado 280383" d="M203.629,3302.73c1.312,6.152,2.924,13.6,5.461,24.213-.959-6.873-1.684-13.049-2.334-22.585-.944-.477-2.206-1.109-3.127-1.628" transform="translate(11229 -10788.719)" fill="#fff"/>
      <path id="Trazado_280384" data-name="Trazado 280384" d="M216.345,3300.735a46.811,46.811,0,0,1-4.86,1.725c-.125,16.7.169,22,.385,25.878.574-5.381,1.161-9.192,4.475-27.6" transform="translate(11229 -10788.719)" fill="#fff"/>
      <path id="Trazado_280385" data-name="Trazado 280385" d="M219.249,3315.617c-1.508,4.443-3.043,8.876-4.515,13.331,2.9-3.64,4.966-6.375,8.252-11.223-1.125-.625-2.625-1.46-3.737-2.108" transform="translate(11229 -10788.719)" fill="#fff"/>
      <path id="Trazado_280386" data-name="Trazado 280386" d="M232.83,3313.431a110.363,110.363,0,0,1-14.8,17.676,76.8,76.8,0,0,0,18.112-16.2c-.994-.44-2.32-1.025-3.309-1.477" transform="translate(11229 -10788.719)" fill="#fff"/>
      <path id="Trazado_280387" data-name="Trazado 280387" d="M232.947,3328.334a50.965,50.965,0,0,1-14.5,5.9,44.845,44.845,0,0,0,15.1-3.01c-.18-.866-.419-2.02-.6-2.885" transform="translate(11229 -10788.719)" fill="#fff"/>
      <path id="Trazado_280388" data-name="Trazado 280388" d="M231.3,3335.161a41.836,41.836,0,0,1-12.685.913,44.684,44.684,0,0,0,12.735,1.262Z" transform="translate(11229 -10788.719)" fill="#fff"/>
      <path id="Trazado_280389" data-name="Trazado 280389" d="M279.731,3253.076l-6.56,11.693,28.521-1.14Z" transform="translate(11229 -10788.719)" fill="#fa0"/>
      <path id="Trazado_280390" data-name="Trazado 280390" d="M296.249,3304.04l-1.125-14.257,15.57-3.19,9.38,9.193-10.693,14.632Z" transform="translate(11229 -10788.719)" fill="#fa0"/>
      <path id="Trazado_280391" data-name="Trazado 280391" d="M299.438,3228.063l-2.251,11.256,16.258,1.5Z" transform="translate(11229 -10788.719)" fill="#fa0"/>
      <path id="Trazado_280392" data-name="Trazado 280392" d="M351.277,3287.782l-8.629,6.566,11.818,9.567,8.63-6.566Z" transform="translate(11229 -10788.719)" fill="#fa0"/>
      <path id="Trazado_280393" data-name="Trazado 280393" d="M326.452,3315.859l-6,17.447,15.946,1.125,7.128-9.942-11.255-.751Z" transform="translate(11229 -10788.719)" fill="#fa0"/>
      <path id="Trazado_280394" data-name="Trazado 280394" d="M284.805,3239.319l7.5-84.794,5.253,8.629Z" transform="translate(11229 -10788.719)" fill="#fa0"/>
      <path id="Trazado_280395" data-name="Trazado 280395" d="M324.451,3340.872l71.537,9.005-2,5.753Z" transform="translate(11229 -10788.719)" fill="#fa0"/>
      <path id="Trazado_280396" data-name="Trazado 280396" d="M294.217,3283.133l94.529-56.756.739,4.187Z" transform="translate(11229 -10788.719)" fill="#fa0"/>
      <path id="Trazado_280397" data-name="Trazado 280397" d="M480.712,3351.351c-18.229,10.524-47.877,10.471-66.221-.12s-18.436-27.708-.207-38.232,47.877-10.471,66.221.119,18.436,27.708.207,38.233" transform="translate(11229 -10788.719)" fill="#f2f2f2"/>
      <path id="Trazado_280398" data-name="Trazado 280398" d="M381.106,3279.676c-1.758,1.2-2.029,2.841-1.4,4.782a6.742,6.742,0,0,0,1.949,2.994,8.058,8.058,0,0,0,2.539,1.454c5.617,2.1,11.964-.251,17.853.871a14.988,14.988,0,0,0,2.658.422,5.075,5.075,0,0,0,3.615-1.5,7.224,7.224,0,0,0,1.741-3.532,12.644,12.644,0,0,0,.286-3.443,8.273,8.273,0,0,0-2.207-5.508c.229.224-.791,1.47-.948,1.624a2.3,2.3,0,0,1-.781.593c-.34.083-.544-.121-.86-.271-.731-.347-1.813-.986-1.965-1.872-.05-.29.134-2.8.108-2.8-3.761,1.058-7.525,2.116-11.347,2.928a75.972,75.972,0,0,0-8.6,2.03,10.7,10.7,0,0,0-2.639,1.228" transform="translate(11229 -10788.719)" fill="#632059"/>
      <path id="Trazado_280399" data-name="Trazado 280399" d="M474.392,3199.806q-1.162-4.927-2.4-9.836a17.553,17.553,0,0,0-2.713-6.645c-1.839-2.359-4.719-3.622-7.51-4.7-2.908-1.12-6.481-1.782-8.71.905-2.525,3.042-4.884,6.243-7.227,9.427q-7.071,9.61-13.37,19.761c-2.375,3.827-12.317,21.859-14.243,25.533q-6.369,12.15-11.951,24.69-3.129,7.031-6,14.17c-.561,1.394-1.066,2.693.181,3.822a9.579,9.579,0,0,0,5.356,2.369,6.737,6.737,0,0,0,3.018-.152c.872-.37,7.772-10.8,10.692-14.86,1.986-2.761,3.956-5.534,5.851-8.359a65.538,65.538,0,0,0,7.074-12.852,68.33,68.33,0,0,0,2.428-8.175c.027-.111.053-.223.08-.334a80.976,80.976,0,0,1,11.437-10.264c9.2-7.213,18.553-14.254,27.246-22.07a1.95,1.95,0,0,0,.768-2.433" transform="translate(11229 -10788.719)" fill="#262626"/>
      <path id="Trazado_280400" data-name="Trazado 280400" d="M468.647,3128.051a17.268,17.268,0,0,0-.752-4.96,6.87,6.87,0,0,0-3.045-3.866c-1.89-1.02-4.182-.784-6.314-.519l-1.1,0a11.736,11.736,0,0,0-3.161,2.341,15.877,15.877,0,0,1-3.067,2.18c-4.427,2.584-18.147,7.564-20.1,7.426-4.071,0-7.965,1.36-11.754,2.751a94.4,94.4,0,0,0-13.2,6.1,54.1,54.1,0,0,0-6.062,3.836,6.057,6.057,0,0,0-1.276,1.163c-.375.5-.17.857.079,1.388.482,1.025,1.193,1.914,1.743,2.9a.782.782,0,0,0,.27.325.756.756,0,0,0,.455.048,40.514,40.514,0,0,0,5.8-1.387c6.926-1.792,14.186-1.269,21.163-2.756,3.524-.752,6.791-2.319,10.114-3.658a51.888,51.888,0,0,1,5.172-1.538c1.832-.524,14.514-4.769,18.151-4.069a19.767,19.767,0,0,1,6.552,3.057,74.574,74.574,0,0,0,.329-10.766" transform="translate(11229 -10788.719)" fill="#632059"/>
      <path id="Trazado_280401" data-name="Trazado 280401" d="M444.67,3301.17q-4.189,4.052-8.129,8.351c-1.938,2.117-3.969,4.773-3.061,7.887a3.635,3.635,0,0,0,1.989,2.165,8.924,8.924,0,0,0,4.345,1.018,21.587,21.587,0,0,0,6.885-1.237,13.718,13.718,0,0,0,4.874-2.5c1.487-1.3,2.492-3.129,4.128-4.24,1.561-1.061,3.61-1.466,4.86-2.956a11.114,11.114,0,0,0,2.367-5.92,13.949,13.949,0,0,0-1.043-6.776c-.481-1.142-.955-1.291-1.926-.645-.927.617-1.557.715-2.116-.238a3.739,3.739,0,0,0-2.424-1.617,2.88,2.88,0,0,1-1.031-.228c-.141-.094-.838-1.131-.691-1.256q-4.641,3.951-9.027,8.191" transform="translate(11229 -10788.719)" fill="#632059"/>
      <path id="Trazado_280402" data-name="Trazado 280402" d="M502.773,3191.127a17.561,17.561,0,0,1-16.113,5.67c-5.666-1.036-11.36-.915-15.218-5.973a.908.908,0,0,0-.384-.347c-.363-.13-.7.231-.906.557a17.615,17.615,0,0,0-2.414,9.753,39.581,39.581,0,0,0,1.794,10,6.8,6.8,0,0,1,.335,1.68c.038,1.513-.955,2.652-1.622,3.905-.71,1.333-1.485,2.643-2.268,3.95-1.395,2.33-2.816,4.662-4.042,7.086a70.534,70.534,0,0,0-4.331,10.794c-1.2,3.787-1.3,7.8-1.549,11.736-.487,7.764-2.727,37.53-4.264,44.5a3.042,3.042,0,0,0-.1,1.276,2.778,2.778,0,0,0,1.656,1.667,16.246,16.246,0,0,0,8,1.717,1.114,1.114,0,0,0,.634-.163,1.18,1.18,0,0,0,.346-.759c1.83-9.824,5.958-19.057,8.686-28.671a53.714,53.714,0,0,0,1.837-8.782,57.289,57.289,0,0,0,.111-9.355c-.107-1.987-.268-3.977-.551-5.946a3.539,3.539,0,0,1,.584-2.514c.531-.773,1.049-1.557,1.585-2.326,3.772-5.412,8.532-10.042,13.114-14.786s9.066-9.706,12.122-15.551,4.588-12.728,2.955-19.119" transform="translate(11229 -10788.719)" fill="#404040"/>
      <path id="Trazado_280403" data-name="Trazado 280403" d="M502.105,3181.2a23.32,23.32,0,0,1,.654-4.684c.764-3.079,1.392-6.224,1.965-9.361a66.986,66.986,0,0,0,.832-19.273,40.81,40.81,0,0,0-1.082-6.595,15.054,15.054,0,0,0-3-5.429,29.155,29.155,0,0,0-9.325-7.513c-4.856-2.6-10.16-4.215-15.336-6.094a32.8,32.8,0,0,0-4.682-1.468,14.479,14.479,0,0,0-11.743,2.767,13.531,13.531,0,0,0-4.9,8.613,21.785,21.785,0,0,0,.25,5.1,54.365,54.365,0,0,0,1.126,6.252q2.613,11.766,5.225,23.532c-3.8,3.876-6.7,8.529-9.571,13.14a2.462,2.462,0,0,0-.451,1.075,2.388,2.388,0,0,0,.423,1.311,30.837,30.837,0,0,0,5.637,7.186c7.5,7.086,18.042,9.95,28.275,11.289,5.326.7,11.162.934,15.61-2.077.681-.462,1.551-1.06,1.61-1.924a19.586,19.586,0,0,0-.324-3.385c-.282-2.428-.7-4.838-.973-7.268a34.053,34.053,0,0,1-.215-5.194" transform="translate(11229 -10788.719)" fill="#632059"/>
      <path id="Trazado_280404" data-name="Trazado 280404" d="M468.125,3132.611c-.57,1.592-2.191,2.733-2.911,4.368-1.921,4.382-2.357,9.26-2.492,13.986a49.749,49.749,0,0,0,1.261,14.228,8.272,8.272,0,0,1-.57,5.808c-.06.166-.151.331-.226.5a32.928,32.928,0,0,1-2.866,4.443c-.03.045-.075.1-.105.15a45.188,45.188,0,0,1-2.972,3.8l-.015.015a44.429,44.429,0,0,1-3.556,3.376c-.286.24-.556.481-.826.736-.195.165-.39.331-.585.51a4.443,4.443,0,0,1-1.051.842c-.7.315-1.155-.437-1.561-.9a7.065,7.065,0,0,1-.975-1.517c-.555-1.14-.51-1.56.48-2.34.075-.06.165-.121.24-.181a30.247,30.247,0,0,0,4.247-3.962c.046-.06.09-.105.136-.165a22.527,22.527,0,0,0,2.3-3.272,17.608,17.608,0,0,0,2.191-6.078,13.485,13.485,0,0,0,.165-1.366c.24-3.286-.555-6.557-1.351-9.755-.96-3.886-1.921-7.759-2.881-11.646-1.261-5.041-2.492-10.429-.826-15.353,2.071-6.093,8.39-10.054,14.783-10.76a16.744,16.744,0,0,0-.63,7.1c.285,2.266,1.41,5.178.6,7.444" transform="translate(11229 -10788.719)" fill="#fa0"/>
      <path id="Trazado_280405" data-name="Trazado 280405" d="M463.413,3171c-.06.165-.15.33-.225.5a32.993,32.993,0,0,1-2.867,4.443c-.03.045-.075.1-.105.149a24.745,24.745,0,0,1-2.956-2.07c-.4-.331-.8-.661-1.186-.991a17.586,17.586,0,0,0,2.191-6.078c.9.825,1.831,1.636,2.777,2.4a21.413,21.413,0,0,0,2.371,1.651" transform="translate(11229 -10788.719)" fill="#f2f2f2"/>
      <path id="Trazado_280406" data-name="Trazado 280406" d="M457.23,3179.9a44.46,44.46,0,0,1-3.557,3.377c-.285.24-.555.48-.825.735-1.2-1.14-2.356-2.341-3.452-3.587a30.3,30.3,0,0,0,4.247-3.962c.045-.06.09-.105.135-.165a45.976,45.976,0,0,0,3.452,3.6" transform="translate(11229 -10788.719)" fill="#f2f2f2"/>
      <path id="Trazado_280407" data-name="Trazado 280407" d="M473.374,3145.352a4.529,4.529,0,0,0,2.272-.8,15.86,15.86,0,0,0,5.525-5.908,19.652,19.652,0,0,0,2.113-5.728c.331-1.756.682-4.028-1.017-5.23-.609-.43-.932-.167-1.593-.092a6.3,6.3,0,0,1-4.228-1.2,35.779,35.779,0,0,1-1.791,6.009,12.314,12.314,0,0,1-3.677,5,3.728,3.728,0,0,0-.88.8,3.058,3.058,0,0,0-.181,2.29c.368,1.937.9,4.879,3.457,4.862" transform="translate(11229 -10788.719)" fill="#ffc7a6"/>
      <path id="Trazado_280408" data-name="Trazado 280408" d="M511.483,3198.751a1.026,1.026,0,0,1-.315.585c-4.2,4.878-10.776,7.279-17.2,7.339-6.438.045-12.712-2.041-18.445-4.952a2.671,2.671,0,0,1-1.485-1.336,2.614,2.614,0,0,1,.225-1.741c.465-1.291.93-2.581,1.381-3.872a57.1,57.1,0,0,0,1.71-5.808c.21-.9.39-1.8.526-2.716a31.051,31.051,0,0,0,.36-4.4,44,44,0,0,0-.24-6.123c-.8-7.909-3.047-15.818-3.347-23.8-.15-3.752.2-7.669,2.056-10.926,1.246-2.206,3.152-4.037,4.022-6.408.8-2.236.15-4.518-.27-6.754-.15-.8-.856-5.148-1.621-5.268a38.691,38.691,0,0,1,18.31,7.955,25.144,25.144,0,0,1,8.044,10.91c1.531,4.353,1.366,9.08,1.1,13.627a148.7,148.7,0,0,1-1.531,15.924c-.255,1.485-.645,3.106-.975,4.757a21.374,21.374,0,0,0-.57,6.168,8.4,8.4,0,0,0,.12.886,26.234,26.234,0,0,0,1.831,5.763c.585,1.365,1.245,2.7,1.906,4.007.27.525.57,1.05.885,1.546a24.771,24.771,0,0,0,3.092,3.857,1.12,1.12,0,0,1,.435.78" transform="translate(11229 -10788.719)" fill="#fa0"/>
      <path id="Trazado_280409" data-name="Trazado 280409" d="M486.394,3160.227c.972,3.74,3.115,7.335,6.478,9.24,2.127,1.206,5.344,2.219,7.3.193a7.564,7.564,0,0,0,1.484-2.531,35.083,35.083,0,0,0,2.023-10.554,38.2,38.2,0,0,0-.636-11.751c-.369-1.5-.961-3.382-2.238-4.373-1.351-1.049-3.571-1.056-5.166-.711a12.871,12.871,0,0,0-5.331,2.793c-2.05,1.684-4.295,4.208-4.726,6.918a28.422,28.422,0,0,0,.81,10.776" transform="translate(11229 -10788.719)" fill="#632059"/>
      <path id="Trazado_280410" data-name="Trazado 280410" d="M503.214,3181.912a82.846,82.846,0,0,1-12.336.931,80.957,80.957,0,0,1-12.637-.991,44,44,0,0,0-.24-6.123,75.867,75.867,0,0,0,25.783.015,21.374,21.374,0,0,0-.57,6.168" transform="translate(11229 -10788.719)" fill="#f2f2f2"/>
      <path id="Trazado_280411" data-name="Trazado 280411" d="M507.956,3194.114a82.746,82.746,0,0,1-17.829,1.951,80.647,80.647,0,0,1-14.483-1.291,56.859,56.859,0,0,0,1.711-5.808,75.335,75.335,0,0,0,27.81-.405c.585,1.366,1.245,2.7,1.906,4.007.27.525.57,1.051.885,1.546" transform="translate(11229 -10788.719)" fill="#f2f2f2"/>
      <path id="Trazado_280412" data-name="Trazado 280412" d="M490.85,3122.79a7.348,7.348,0,1,1-7.347-7.348,7.348,7.348,0,0,1,7.347,7.348" transform="translate(11229 -10788.719)" fill="#733118"/>
      <path id="Trazado_280413" data-name="Trazado 280413" d="M452.115,3117.349a17.041,17.041,0,0,0-.005,13.5,12.052,12.052,0,0,0,4.2,5.712,1.919,1.919,0,0,1,.8.8,1.721,1.721,0,0,1,.053.74q-.13,1.766-.26,3.53a1.048,1.048,0,0,0,.078.614.894.894,0,0,0,.648.36c1.094.191,2.286-.255,3.3.206a9.331,9.331,0,0,1,1.776,1.528,4.529,4.529,0,0,0,3.875.7,10.616,10.616,0,0,0,3.609-1.842,33.7,33.7,0,0,0,6.581-6.2c.946-1.167,1.851-2.741,1.186-4.088a1.254,1.254,0,0,1-.209-.591c.017-.313.316-.522.565-.712a6.979,6.979,0,0,0,2.179-3.812,23.3,23.3,0,0,0,.081-12.154,12.71,12.71,0,0,0-1.85-4.213,16.1,16.1,0,0,0-3.862-3.507,11,11,0,0,0-8.175-2.233,18.285,18.285,0,0,0-4.98,1.426,19.974,19.974,0,0,0-9.59,10.235" transform="translate(11229 -10788.719)" fill="#ffe5cc"/>
      <path id="Trazado_280414" data-name="Trazado 280414" d="M482.031,3116.878a14.364,14.364,0,0,0-2.546-6.191,15.894,15.894,0,0,0-22.5-1.884,23.811,23.811,0,0,0-5.991,9.154c-.81,2.234-1.649,6.753,1.026,8.188a5.7,5.7,0,0,0,2.487.545,5.2,5.2,0,0,1,1.752.239,6.19,6.19,0,0,1,1.121.69c2.541,1.721,5.8,1.856,8.87,1.85s6.289-.06,9,1.375a15.777,15.777,0,0,1,.837-3.87,4.319,4.319,0,0,1,1.149-1.921,1.8,1.8,0,0,1,2.093-.253,1.967,1.967,0,0,1,.716,1.071c.613,1.947-.364,4.132-1.508,5.7a4.1,4.1,0,0,0,2.11-2.063c2.2-3.8,2.161-8.38,1.38-12.628" transform="translate(11229 -10788.719)" fill="#8c3c1d"/>
      <path id="Trazado_280415" data-name="Trazado 280415" d="M501.752,3141.508a5.683,5.683,0,0,0-4.554-3.335,11.621,11.621,0,0,0-6.364,1.6,27.684,27.684,0,0,0-3.483,2.377c-2.786,2.193-5.351,4.718-8.471,6.4a18.666,18.666,0,0,1-1.818.849c-.1-.01-.2-.023-.306-.028-6.267-.316-12.483,1.31-18.36,3.511-1.624.609-3.232,1.262-4.832,1.934-2.921,1.227-11.739,4.475-12.4,5.478-.721,1.1.639,2.281,1.331,2.985a4.8,4.8,0,0,1,1.574,3.762q6.117-.238,12.23-.563c7.745-.412,15.681-.973,22.746-4.174.126-.057.248-.127.371-.2,6.667-1.721,13.337-3.7,19.033-7.523a12.494,12.494,0,0,0,3.05-2.674,9.266,9.266,0,0,0,1.04-8.57,11.362,11.362,0,0,0-.79-1.839" transform="translate(11229 -10788.719)" fill="#632059"/>
      <path id="Trazado_280416" data-name="Trazado 280416" d="M433.978,3161.893l-4.518.463a12.232,12.232,0,0,0-4.1.993l-2.707,1.024a2.407,2.407,0,0,0-.977.558,2.383,2.383,0,0,0-.444.939q-.84,2.784-1.52,5.615a4.271,4.271,0,0,0-.172,1.448,1.49,1.49,0,0,0,.741,1.194,1.023,1.023,0,0,1,.366.215.709.709,0,0,1,.053.6q-.186.879-.373,1.758c-.119.559-.176,1.274.314,1.57a.948.948,0,0,0,1.076-.177,6.929,6.929,0,0,0,1.336-2.59,14.092,14.092,0,0,1,1.776-2.907,8.033,8.033,0,0,0-.438,4.4c.131.491.524,1.052,1.014.915a1.019,1.019,0,0,0,.525-.476,7.18,7.18,0,0,0,.893-1.948,9.61,9.61,0,0,1,.528-1.7,5.791,5.791,0,0,1,2.035-1.98,23.391,23.391,0,0,0-1.5,4.859,1.667,1.667,0,0,0-.02.778.6.6,0,0,0,.566.456.852.852,0,0,0,.427-.21,12.8,12.8,0,0,0,3.723-4.589,1.374,1.374,0,0,1,.3-.459,1.407,1.407,0,0,1,.64-.254c1.747-.4,3.32-1.362,5.05-1.834,1.06-.29,2.172-.4,3.2-.788a6.066,6.066,0,0,0,2.206-1.464,5.635,5.635,0,0,1,.966-.926c.289-.184.8-.209,1.035-.42.263-.23.291-.836.308-1.155a6.136,6.136,0,0,0-.574-2.937,4.6,4.6,0,0,0-.969-1.387,6.084,6.084,0,0,0-1.347-.917,3.809,3.809,0,0,0-1.713-.544,4.083,4.083,0,0,0-1.658.618,13.035,13.035,0,0,1-2.749.823c-1.085.212-2.186.331-3.286.444" transform="translate(11229 -10788.719)" fill="#ffe5cc"/>
      <path id="Trazado_280417" data-name="Trazado 280417" d="M394.864,3146.78c-1.907.892-4.054,1.617-5.266,3.338a9.661,9.661,0,0,0-.97,1.943l-1.243,3.046a1.689,1.689,0,0,0,.128,1.958L390,3161.2a1.064,1.064,0,0,0,.541.537c.187.054.4,0,.573.095.328.177.229.66.3,1.026.133.717.971,1.024,1.463,1.562a3.182,3.182,0,0,0,.605.642,1.087,1.087,0,0,0,1.326-.284,2,2,0,0,0,.408-1.38c-.048-1.558-1.112-2.962-1.1-4.521a6.682,6.682,0,0,1,.694-2.486q.4-.954.811-1.907a.667.667,0,0,1,.271-.366.658.658,0,0,1,.347-.036c.349.027.8.145.822.494a.709.709,0,0,1-.122.388c-.675,1.21-1.683,2.286-1.934,3.649a5.315,5.315,0,0,0,.083,2.009c.07.345.206.741.542.846a.772.772,0,0,0,.559-.075,3.544,3.544,0,0,0,1.261-1.544,22.9,22.9,0,0,1,1.991-2.564c.859-1.06,1.613-2.2,2.364-3.34a5.8,5.8,0,0,0,1.134-2.528,8.839,8.839,0,0,1,.109-1.735,2.149,2.149,0,0,1,.469-.8c.228-.257.436-.362.509-.705a4.987,4.987,0,0,0-.045-2.361,4.409,4.409,0,0,0-.3-.8,3.079,3.079,0,0,0-1.927-1.777c-1.334-.363-2.22.662-3.2,1.361a23.237,23.237,0,0,1-3.7,2.17" transform="translate(11229 -10788.719)" fill="#ffc7a6"/>
      <path id="Trazado_280418" data-name="Trazado 280418" d="M429.234,3115.577l11.859,2.97a1.905,1.905,0,0,1,1.384,2.31l-.013.049a1.9,1.9,0,0,1-2.309,1.384l-11.858-2.971a1.9,1.9,0,0,1-1.385-2.309l.013-.049a1.9,1.9,0,0,1,2.309-1.384" transform="translate(11229 -10788.719)" fill="#404040"/>
      <path id="Trazado_280419" data-name="Trazado 280419" d="M441,3098.421l8.785,8.5a1.9,1.9,0,0,1,.043,2.692l-.035.036a1.9,1.9,0,0,1-2.692.044l-8.784-8.5a1.9,1.9,0,0,1-.044-2.691l.035-.037a1.9,1.9,0,0,1,2.692-.044" transform="translate(11229 -10788.719)" fill="#404040"/>
      <path id="Trazado_280420" data-name="Trazado 280420" d="M431.222,3104.037l10.347,6.511a1.9,1.9,0,0,1,.6,2.625l-.027.043a1.9,1.9,0,0,1-2.625.6l-10.347-6.511a1.9,1.9,0,0,1-.6-2.624l.027-.044a1.9,1.9,0,0,1,2.625-.6" transform="translate(11229 -10788.719)" fill="#404040"/>
    </g>
  </g>
</svg>
