<svg xmlns="http://www.w3.org/2000/svg" width="505" height="664" viewBox="0 0 505 664">
  <g id="Grupo_1071229" data-name="Grupo 1071229" transform="translate(4606 9053)">
    <g id="Grupo_1071165" data-name="Grupo 1071165">
      <rect id="Rectángulo_376047" data-name="Rectángulo 376047" width="505" height="664" transform="translate(-4606 -9053)" fill="#fff"/>
      <g id="Grupo_1071164" data-name="Grupo 1071164" transform="translate(0 -9)">
        <circle id="Elipse_5842" data-name="Elipse 5842" cx="83" cy="83" r="83" transform="translate(-4541 -9026)" fill="#3b5620"/>
        <circle id="Elipse_5846" data-name="Elipse 5846" cx="83" cy="83" r="83" transform="translate(-4541 -8836)" fill="#3b5620"/>
        <circle id="Elipse_5847" data-name="Elipse 5847" cx="83" cy="83" r="83" transform="translate(-4541 -8646)" fill="#3b5620"/>
        <circle id="Elipse_5843" data-name="Elipse 5843" cx="83" cy="83" r="83" transform="translate(-4331 -8960)" fill="#3b5620"/>
        <circle id="Elipse_5844" data-name="Elipse 5844" cx="83" cy="83" r="83" transform="translate(-4331 -8753)" fill="#3b5620"/>
        <path id="Trazado_815290" data-name="Trazado 815290" d="M-4314-8836s-84.459,23.453-71.234,91.38-59.512-19.236-59.512-19.236l4.809-39.675,22.843-12.624s66.725,16.831,92.574-55.3,29.455,10.22,29.455,10.22L-4314-8833.588" fill="#3b5620"/>
        <path id="Trazado_815293" data-name="Trazado 815293" d="M-4314-8836s-84.459,23.453-71.234,91.38-59.512-19.236-59.512-19.236l4.809-39.675,22.843-12.624s66.725,16.831,92.574-55.3,29.455,10.22,29.455,10.22L-4314-8833.588" transform="translate(0 187.782)" fill="#3b5620"/>
        <path id="Unión_2" data-name="Unión 2" d="M143.442,132.369l1.769-1.019S92.245,79.468,48.026,117.834,36.935,66.172,36.935,66.172L68.07,52.934,87,64.312s15.91,55.922,79.762,44.365,4.977,25.865,4.977,25.865Z" transform="translate(-4469.766 -9008.4)" fill="#3b5620"/>
        <path id="Unión_3" data-name="Unión 3" d="M143.442,132.369l1.769-1.019S92.245,79.468,48.026,117.834,36.935,66.172,36.935,66.172L68.07,52.934,87,64.312s15.91,55.922,79.762,44.365,4.977,25.865,4.977,25.865Z" transform="translate(-4469.766 -8820.619)" fill="#3b5620"/>
        <path id="Unión_4" data-name="Unión 4" d="M143.442,132.369l1.769-1.019S92.245,79.468,48.026,117.834,36.935,66.172,36.935,66.172L68.07,52.934,87,64.312s15.91,55.922,79.762,44.365,4.977,25.865,4.977,25.865Z" transform="translate(-4469.766 -8639.934)" fill="#3b5620"/>
        <g id="Grupo_1071159" data-name="Grupo 1071159" transform="translate(750 -836.801)">
          <path id="Trazado_279413" data-name="Trazado 279413" d="M365.612,184.173a65.606,65.606,0,1,1-65.606-65.606,65.606,65.606,0,0,1,65.606,65.606" transform="translate(-5298.4 -8224.451)" fill="#def1f0"/>
          <text id="Identificación_" data-name="Identificación " transform="translate(-5048 -8040.06)" fill="#12263f" font-size="16" font-family="Roboto-Regular, Roboto"><tspan x="0" y="0">Identificación </tspan></text>
          <text id="de_la_plaga" data-name="de la plaga" transform="translate(-5036 -8023.068)" fill="#12263f" font-size="16" font-family="Roboto-Regular, Roboto"><tspan x="0" y="0">de la plaga</tspan></text>
        </g>
        <g id="Grupo_1071160" data-name="Grupo 1071160" transform="translate(327 -617)">
          <path id="Trazado_279414" data-name="Trazado 279414" d="M578.091,88.766A65.606,65.606,0,1,1,512.484,23.16a65.607,65.607,0,0,1,65.607,65.606" transform="translate(-5297.879 -8224.451)" fill="#def1f0"/>
          <text id="Recoger_" data-name="Recoger " transform="translate(-4817 -8155.131)" fill="#12263f" font-size="16" font-family="Roboto-Regular, Roboto"><tspan x="0" y="0">Recoger </tspan></text>
          <text id="información_" data-name="información " transform="translate(-4830 -8138.14)" fill="#12263f" font-size="16" font-family="Roboto-Regular, Roboto"><tspan x="0" y="0">información </tspan></text>
          <text id="de_la_zona_a_" data-name="de la zona a " transform="translate(-4830 -8121.147)" fill="#12263f" font-size="16" font-family="Roboto-Regular, Roboto"><tspan x="0" y="0">de la </tspan><tspan y="0" letter-spacing="-0.009em">z</tspan><tspan y="0">ona a </tspan></text>
          <text id="controlar" transform="translate(-4817 -8104.156)" fill="#12263f" font-size="16" font-family="Roboto-Regular, Roboto"><tspan x="0" y="0">cont</tspan><tspan y="0" letter-spacing="-0.009em">r</tspan><tspan y="0">olar</tspan></text>
        </g>
        <g id="Grupo_1071158" data-name="Grupo 1071158" transform="translate(751 -807)">
          <path id="Trazado_279412" data-name="Trazado 279412" d="M154.538,88.766A65.606,65.606,0,1,1,88.932,23.16a65.606,65.606,0,0,1,65.606,65.606" transform="translate(-5298.326 -8224.451)" fill="#def1f0"/>
          <text id="Búsqueda_de_" data-name="Búsqueda de " transform="translate(-5258 -8145.164)" fill="#12263f" font-size="16" font-family="Roboto-Regular, Roboto"><tspan x="0" y="0">Búsqueda de </tspan></text>
          <text id="evidencia_de_la_" data-name="evidencia de la " transform="translate(-5264 -8128.171)" fill="#12263f" font-size="16" font-family="Roboto-Regular, Roboto"><tspan x="0" y="0" letter-spacing="-0.006em">e</tspan><tspan y="0">videncia de la </tspan></text>
          <text id="plaga." transform="translate(-5231 -8111.18)" fill="#12263f" font-size="16" font-family="Roboto-Regular, Roboto"><tspan x="0" y="0">plaga.</tspan></text>
        </g>
        <g id="Grupo_1071161" data-name="Grupo 1071161" transform="translate(325 -628)">
          <path id="Trazado_279415" data-name="Trazado 279415" d="M790.422,182.974a65.606,65.606,0,1,1-65.606-65.606,65.606,65.606,0,0,1,65.606,65.606" transform="translate(-5298.21 -8224.451)" fill="#def1f0"/>
          <text id="Localización_" data-name="Localización " transform="translate(-4620 -8057.124)" fill="#12263f" font-size="16" font-family="Roboto-Regular, Roboto"><tspan x="0" y="0">Localización </tspan></text>
          <text id="de_los_refugios_" data-name="de los refugios " transform="translate(-4628 -8039.131)" fill="#12263f" font-size="16" font-family="Roboto-Regular, Roboto"><tspan x="0" y="0">de los </tspan><tspan y="0" letter-spacing="-0.01em">r</tspan><tspan y="0">efugios </tspan></text>
          <text id="y_zonas_de_" data-name="y zonas de " transform="translate(-4613 -8022.139)" fill="#12263f" font-size="16" font-family="Roboto-Regular, Roboto"><tspan x="0" y="0">y </tspan><tspan y="0" letter-spacing="-0.008em">z</tspan><tspan y="0">onas de </tspan></text>
          <text id="riesgo" transform="translate(-4595 -8005.148)" fill="#12263f" font-size="16" font-family="Roboto-Regular, Roboto"><tspan x="0" y="0">riesgo</tspan></text>
        </g>
        <g id="Grupo_1071162" data-name="Grupo 1071162" transform="translate(-96 -427)">
          <path id="Trazado_279416" data-name="Trazado 279416" d="M1001.657,88.766A65.606,65.606,0,1,1,936.051,23.16a65.606,65.606,0,0,1,65.606,65.606" transform="translate(-5298.445 -8224.451)" fill="#def1f0"/>
          <text id="Evaluación_de_" data-name="Evaluación de " transform="translate(-4413 -8145.612)" fill="#12263f" font-size="16" font-family="Roboto-Regular, Roboto"><tspan x="0" y="0" letter-spacing="-0.012em">E</tspan><tspan y="0" letter-spacing="-0.007em">v</tspan><tspan y="0">aluación de </tspan></text>
          <text id="magnitud_de_la_" data-name="magnitud de la " transform="translate(-4416 -8126.62)" fill="#12263f" font-size="16" font-family="Roboto-Regular, Roboto"><tspan x="0" y="0">magnitud de la </tspan></text>
          <text id="plaga" transform="translate(-4381 -8109.627)" fill="#12263f" font-size="16" font-family="Roboto-Regular, Roboto"><tspan x="0" y="0">plaga</tspan></text>
        </g>
        <circle id="Elipse_5845" data-name="Elipse 5845" cx="83" cy="83" r="83" transform="translate(-4331 -8563)" fill="#3b5620"/>
        <g id="Grupo_1071163" data-name="Grupo 1071163" transform="translate(-100 -437.39)">
          <path id="Trazado_279417" data-name="Trazado 279417" d="M1215.368,181.966a65.606,65.606,0,1,1-65.606-65.606,65.606,65.606,0,0,1,65.606,65.606" transform="translate(-5298.156 -8224.451)" fill="#def1f0"/>
          <text id="Planificación_" data-name="Planificación " transform="translate(-4196 -8052.994)" fill="#12263f" font-size="16" font-family="Roboto-Regular, Roboto"><tspan x="0" y="0">Planificación </tspan></text>
          <text id="de_la_" data-name="de la " transform="translate(-4167 -8036.001)" fill="#12263f" font-size="16" font-family="Roboto-Regular, Roboto"><tspan x="0" y="0">de la </tspan></text>
          <text id="intervención" transform="translate(-4192 -8019.009)" fill="#12263f" font-size="16" font-family="Roboto-Regular, Roboto"><tspan x="0" y="0">inte</tspan><tspan y="0" letter-spacing="0.007em">r</tspan><tspan y="0" letter-spacing="-0.006em">v</tspan><tspan y="0">ención</tspan></text>
        </g>
      </g>
    </g>
  </g>
</svg>
