<svg xmlns="http://www.w3.org/2000/svg" xmlns:xlink="http://www.w3.org/1999/xlink" width="345.809" height="358.053" viewBox="0 0 345.809 358.053">
  <defs>
    <clipPath id="clip-path">
      <rect id="Rectángulo_325741" data-name="Rectángulo 325741" width="60.829" height="68.369" transform="translate(364.952 3757.579)" fill="none"/>
    </clipPath>
    <clipPath id="clip-path-2">
      <rect id="Rectángulo_325742" data-name="Rectángulo 325742" width="30.148" height="30.648" transform="translate(431.025 3930.268)" fill="none"/>
    </clipPath>
    <clipPath id="clip-path-3">
      <rect id="Rectángulo_325743" data-name="Rectángulo 325743" width="18.964" height="31.775" transform="translate(377.422 3986.989)" fill="none"/>
    </clipPath>
    <clipPath id="clip-path-4">
      <rect id="Rectángulo_325744" data-name="Rectángulo 325744" width="80.979" height="90.174" transform="translate(336.028 3805.155)" fill="none"/>
    </clipPath>
    <clipPath id="clip-path-5">
      <rect id="Rectángulo_325745" data-name="Rectángulo 325745" width="15.441" height="32.662" transform="translate(344.062 3834.129)" fill="none"/>
    </clipPath>
    <clipPath id="clip-path-6">
      <rect id="Rectángulo_325746" data-name="Rectángulo 325746" width="56.758" height="91.967" transform="translate(297.528 3833.965)" fill="none"/>
    </clipPath>
  </defs>
  <g id="Grupo_262125" data-name="Grupo 262125" transform="translate(-11389.686 7056.107)">
    <g id="Grupo_262118" data-name="Grupo 262118">
      <path id="Trazado_280422" data-name="Trazado 280422" d="M501.61,3889.966c10.029,19.338,4.119,42.295-13.2,51.277s-39.488.587-49.517-18.751-12.532-54.424,4.787-63.406,47.9,11.543,57.929,30.88" transform="translate(11229 -10788.719)" fill="#e7f4fa"/>
      <path id="Trazado_280423" data-name="Trazado 280423" d="M392.111,4075.266C307.34,4078,224.795,4091.932,181.845,4017.8s-18.443-168.6,54.733-210.993c49.41-28.626,190.587-28.711,186.161,74.806-3.981,93.113,52,56.422,65.955,80.5,42.95,74.133,2.1,109.974-96.583,113.153" transform="translate(11229 -10788.719)" fill="#e7f4fa"/>
      <path id="Trazado_280424" data-name="Trazado 280424" d="M444.4,4025.291c-20.153,11.635-52.93,11.576-73.21-.132s-20.382-30.633-.229-42.268,52.93-11.576,73.21.132,20.382,30.632.229,42.268" transform="translate(11229 -10788.719)" fill="#f2f2f2"/>
      <path id="Trazado_280425" data-name="Trazado 280425" d="M351.53,4090.2l31.561-18.276c1.193-.689,1.043-1.892-.334-2.687L227.99,3979.881a5.175,5.175,0,0,0-4.654-.193l-31.56,18.277c-1.193.688-1.044,1.891.334,2.686l154.766,89.355a5.173,5.173,0,0,0,4.654.193" transform="translate(11229 -10788.719)" fill="#f2f2f2"/>
      <path id="Trazado_280426" data-name="Trazado 280426" d="M208.592,3929.751l.3,72.117,138.945,80.746-.3-72.117Z" transform="translate(11229 -10788.719)" fill="#bbb"/>
      <path id="Trazado_280427" data-name="Trazado 280427" d="M347.537,4010.5l.3,72.118,25.241-14.515-.3-72.118Z" transform="translate(11229 -10788.719)" fill="#828282"/>
      <path id="Trazado_280428" data-name="Trazado 280428" d="M208.592,3929.751,347.537,4010.5l25.241-14.515-138.945-80.746Z" transform="translate(11229 -10788.719)" fill="#d1d1d1"/>
      <path id="Trazado_280429" data-name="Trazado 280429" d="M360.539,3995.965l-126.716-73.64-12.993,7.444,126.716,73.64Z" transform="translate(11229 -10788.719)" fill="#bbb"/>
      <path id="Trazado_280430" data-name="Trazado 280430" d="M223.69,3922.789l12.567-7.3a.692.692,0,0,1,.493-.065l-12.568,7.3a.683.683,0,0,0-.492.064" transform="translate(11229 -10788.719)"/>
      <path id="Trazado_280431" data-name="Trazado 280431" d="M255.686,3947.987l-1.754,1.018.466.27Z" transform="translate(11229 -10788.719)"/>
      <path id="Trazado_280432" data-name="Trazado 280432" d="M224.182,3922.725l12.567-7.3,4.323.886-12.567,7.3Z" transform="translate(11229 -10788.719)"/>
      <path id="Trazado_280433" data-name="Trazado 280433" d="M226.061,3903.037l12.567-7.3a.862.862,0,0,1,.865.085,2.01,2.01,0,0,1,.382.292l-12.567,7.3a2.052,2.052,0,0,0-.382-.292.867.867,0,0,0-.865-.085" transform="translate(11229 -10788.719)"/>
      <path id="Trazado_280434" data-name="Trazado 280434" d="M227.308,3903.414l12.567-7.3,4.306,4.1-12.568,7.3Z" transform="translate(11229 -10788.719)"/>
      <path id="Trazado_280435" data-name="Trazado 280435" d="M236.008,3924.408a35.852,35.852,0,0,0,4.87,17L253.932,3949l.466.27,5.041,2.932,7.043-4.085c-5.313-3.067-10.085-8.477-13.36-14.587a35.616,35.616,0,0,1-4.552-16.427,18.708,18.708,0,0,1,.625-4.968,10.3,10.3,0,0,1,4.614-6.539l-12.575,7.3a.951.951,0,0,0-.147.1,7.637,7.637,0,0,0-.86.6c-.086.061-.172.135-.256.208a5.382,5.382,0,0,0-.4.368c-.16.147-.308.295-.455.454-.22.258-.442.528-.649.822a.9.9,0,0,0-.1.147,1.322,1.322,0,0,0-.086.135h-.013c-.035.049-.073.1-.11.16-.134.208-.258.429-.379.65s-.246.454-.356.7c-.1.209-.2.43-.282.651a.563.563,0,0,0-.037.1c-.086.208-.172.429-.246.662a1.242,1.242,0,0,0-.036.123v.012c-.026.074-.05.16-.075.233a13.15,13.15,0,0,0-.367,1.46c-.062.307-.11.614-.159.933-.037.269-.074.539-.1.821a.718.718,0,0,0-.013.172c-.037.27-.048.552-.061.847a1.318,1.318,0,0,0-.011.208.23.23,0,0,0-.013.086.07.07,0,0,1,.013.049.108.108,0,0,0-.013.062c-.012.245-.012.49-.012.748" transform="translate(11229 -10788.719)"/>
      <path id="Trazado_280436" data-name="Trazado 280436" d="M259.44,3952.207l7.471,4.331,12.342-7.165a10.424,10.424,0,0,1-7.95.773,18.607,18.607,0,0,1-4.821-2.024Z" transform="translate(11229 -10788.719)"/>
      <path id="Trazado_280437" data-name="Trazado 280437" d="M283.951,3966.439l1.423.834,2.417-1.4c.417-.246.491-.969.135-1.742Z" transform="translate(11229 -10788.719)"/>
      <path id="Trazado_280438" data-name="Trazado 280438" d="M277.645,3962.783l4.723,2.748.442.245.172.111.969.552,3.975-2.306-.4-.884-.074-.159-2-4.319-.185-.4-.723.417Z" transform="translate(11229 -10788.719)"/>
      <path id="Trazado_280439" data-name="Trazado 280439" d="M276.37,3962.047l1.276.736,6.895-4,.723-.417a13.316,13.316,0,0,0,3.632-3.595l-4.8,2.785Z" transform="translate(11229 -10788.719)"/>
      <path id="Trazado_280440" data-name="Trazado 280440" d="M240.613,3896.084l12.567-7.3,2.656,5.754-12.568,7.3Z" transform="translate(11229 -10788.719)"/>
      <path id="Trazado_280441" data-name="Trazado 280441" d="M252.2,3887.634a.967.967,0,0,0-.72-.143l-6.065,1.553a.6.6,0,0,0-.152.062l-12.567,7.3a.6.6,0,0,1,.152-.062l6.064-1.553a.974.974,0,0,1,.721.143,2.574,2.574,0,0,1,.978,1.147l12.567-7.3a2.577,2.577,0,0,0-.978-1.146" transform="translate(11229 -10788.719)" fill="#999"/>
      <path id="Trazado_280442" data-name="Trazado 280442" d="M282.81,3965.776l.172.111,4.539-2.638,6.907-4.012a.67.67,0,0,0,.294-.38l-7.275,4.232Z" transform="translate(11229 -10788.719)"/>
      <path id="Trazado_280443" data-name="Trazado 280443" d="M243.268,3901.838l12.567-7.3a20.341,20.341,0,0,1,5.82,1.189l-12.566,7.3a20.289,20.289,0,0,0-5.821-1.189" transform="translate(11229 -10788.719)"/>
      <path id="Trazado_280444" data-name="Trazado 280444" d="M282.369,3965.531l.442.245,4.637-2.686,7.275-4.233.319-.945,2.024-5.9-6.072,3.534h-.013l-5.533,3.226-.944.552Z" transform="translate(11229 -10788.719)"/>
      <path id="Trazado_280445" data-name="Trazado 280445" d="M296.283,3949.793l-4.313-4.1L279.4,3953l4.314,4.1a2.445,2.445,0,0,1,.784,2.222l12.567-7.3a2.447,2.447,0,0,0-.784-2.222" transform="translate(11229 -10788.719)" fill="#999"/>
      <path id="Trazado_280446" data-name="Trazado 280446" d="M279.422,3945.969l12.567-7.3c.119,1.22.181,2.435.178,3.612a30.589,30.589,0,0,1-.2,3.415L279.4,3953a30.35,30.35,0,0,0,.2-3.415,36.126,36.126,0,0,0-.177-3.612" transform="translate(11229 -10788.719)"/>
      <path id="Trazado_280447" data-name="Trazado 280447" d="M259,3908.75l12.568-7.3a50.2,50.2,0,0,1,5.816,5.529l-12.567,7.3a50.214,50.214,0,0,0-5.817-5.53" transform="translate(11229 -10788.719)"/>
      <path id="Trazado_280448" data-name="Trazado 280448" d="M259.016,3903.536l12.567-7.3-.014,5.215L259,3908.75Z" transform="translate(11229 -10788.719)"/>
      <path id="Trazado_280449" data-name="Trazado 280449" d="M270.368,3894.127l-7.473-4.315a.862.862,0,0,0-.868-.086l-12.568,7.3a.859.859,0,0,1,.869.086l7.473,4.314a2.676,2.676,0,0,1,1.216,2.106l12.567-7.3a2.674,2.674,0,0,0-1.216-2.1" transform="translate(11229 -10788.719)" fill="#999"/>
      <path id="Trazado_280450" data-name="Trazado 280450" d="M272.809,3925.6l12.567-7.3a61.587,61.587,0,0,1,3.6,7.765l-12.568,7.3a61.512,61.512,0,0,0-3.594-7.766" transform="translate(11229 -10788.719)"/>
      <path id="Trazado_280451" data-name="Trazado 280451" d="M296.8,3939.487l-12.567,7.3c.312-.182.442-.647.3-1.247l12.568-7.3c.141.6.01,1.065-.3,1.246" transform="translate(11229 -10788.719)"/>
      <path id="Trazado_280452" data-name="Trazado 280452" d="M282.244,3936.03l12.567-7.3,2.3,9.514-12.568,7.3Z" transform="translate(11229 -10788.719)"/>
      <path id="Trazado_280453" data-name="Trazado 280453" d="M293.664,3927.095a1.214,1.214,0,0,0-.379-.148l-4.314-.881-12.568,7.3,4.315.882a1.245,1.245,0,0,1,.379.147,2.687,2.687,0,0,1,1.147,1.632l12.567-7.3a2.684,2.684,0,0,0-1.147-1.632" transform="translate(11229 -10788.719)" fill="#999"/>
      <path id="Trazado_280454" data-name="Trazado 280454" d="M275.5,3922.934l12.567-7.3-2.687,2.669-12.568,7.3Z" transform="translate(11229 -10788.719)"/>
      <path id="Trazado_280455" data-name="Trazado 280455" d="M223.384,3924.04l.908,3.754,1.116,4.637,15.47,8.981a35.872,35.872,0,0,1-4.87-17c0-.258,0-.5.012-.748v-.111a.248.248,0,0,1,.012-.086,1.125,1.125,0,0,1,.013-.208c.012-.295.024-.577.061-.847a.777.777,0,0,1,.012-.172c.025-.281.062-.551.1-.821.049-.319.1-.626.159-.933a13.374,13.374,0,0,1,.368-1.46c.025-.073.049-.159.074-.233v-.012a1.228,1.228,0,0,1,.037-.123c.073-.233.159-.454.245-.662a.658.658,0,0,1,.037-.1c.085-.221.184-.442.282-.651a6.2,6.2,0,0,1,.356-.7c.122-.221.245-.441.38-.65.037-.061.074-.11.11-.159a.566.566,0,0,1,.1-.136,1.114,1.114,0,0,1,.1-.147c.208-.294.429-.564.65-.822.147-.159.294-.306.454-.453.135-.136.27-.258.4-.369.086-.073.172-.147.258-.208a7.538,7.538,0,0,1,.859-.6,10.307,10.307,0,0,1,8.109-.859,19.117,19.117,0,0,1,4.834,2.024c9.7,5.607,17.592,19.028,17.874,30.29.013.233.013.466.013.7a19.37,19.37,0,0,1-.614,4.994,10.494,10.494,0,0,1-4.392,6.391l9.459,5.509,1.276.736,4.723,2.748,2.135-6.208a1.306,1.306,0,0,0,.037-.54.564.564,0,0,0-.013-.147c-.012-.049-.024-.1-.036-.159v-.013a2.971,2.971,0,0,0-.086-.294c-.037-.1-.086-.209-.135-.307a2.612,2.612,0,0,0-.172-.307,2.324,2.324,0,0,0-.381-.466l-4.318-4.1a30.14,30.14,0,0,0,.2-3.411v-.662c-.012-.491-.036-.969-.061-1.46s-.073-.994-.11-1.5l4.318.9a.649.649,0,0,0,.491-.074.193.193,0,0,0,.086-.049l.073-.074a1.281,1.281,0,0,0,.148-1.116L284,3943.3l-1.754-7.275a2.672,2.672,0,0,0-1.154-1.632,1.134,1.134,0,0,0-.38-.147l-4.306-.883a62.3,62.3,0,0,0-3.6-7.766l2.687-2.662c.393-.405.27-1.35-.27-2.122l-6.036-8.539a4.217,4.217,0,0,0-.282-.344c-.012-.012-.025-.012-.025-.024a1.975,1.975,0,0,0-.417-.319.878.878,0,0,0-.736-.135.094.094,0,0,0-.049.012l-.012.012c-.012,0-.012.013-.012.013a.37.37,0,0,0-.172.11l-2.674,2.675a49.2,49.2,0,0,0-5.816-5.521l.013-5.214a2.876,2.876,0,0,0-.025-.319,2.673,2.673,0,0,0-.515-1.165,1.969,1.969,0,0,0-.209-.246,2.257,2.257,0,0,0-.466-.38l-2.993-1.73-3.938-2.282-.54-.307a1.12,1.12,0,0,0-.54-.159.383.383,0,0,0-.172.025.2.2,0,0,0-.11.036.823.823,0,0,0-.4.8v.638l-.012,4.576a20.214,20.214,0,0,0-5.815-1.19l-.4-.871-1.656-3.583-.6-1.3a2.533,2.533,0,0,0-.97-1.141.957.957,0,0,0-.724-.147l-6.06,1.558c-.552.135-.687.932-.282,1.8l.4.871.392.859,1.865,4.024a12.967,12.967,0,0,0-3.619,3.607l-4.306-4.1a2.445,2.445,0,0,0-.381-.294,1.115,1.115,0,0,0-.282-.123.735.735,0,0,0-.27-.049.5.5,0,0,0-.2.037c-.037.012-.086.037-.123.049a.717.717,0,0,0-.294.393l-2.331,6.833a2.432,2.432,0,0,0,.773,2.221l4.318,4.1a33.674,33.674,0,0,0-.2,3.4v.111a1.353,1.353,0,0,0,.012.22c0,1.092.062,2.2.16,3.3l-4.319-.883a.859.859,0,0,0-.159-.024c-.037,0-.074.012-.11.012a.164.164,0,0,0-.074.025.232.232,0,0,0-.1.024c-.025.012-.037.025-.049.025-.319.184-.442.65-.307,1.251" transform="translate(11229 -10788.719)" fill="#333"/>
      <path id="Trazado_280456" data-name="Trazado 280456" d="M287.8,3913.513l-6.044-8.543a2.3,2.3,0,0,0-.715-.685.86.86,0,0,0-.86-.084l-12.567,7.3a.858.858,0,0,1,.86.083,2.36,2.36,0,0,1,.715.686l6.044,8.545c.535.767.663,1.711.263,2.116l12.567-7.3c.4-.4.273-1.349-.263-2.117" transform="translate(11229 -10788.719)" fill="#999"/>
      <path id="Trazado_280457" data-name="Trazado 280457" d="M420.04,3754.32a12.635,12.635,0,0,0-1.025-2.828,13.137,13.137,0,0,1-.877-3.325c-.2-1.593-.113-3.222-.451-4.793-.5-2.321-1.9-4.387-2.284-6.73a15.965,15.965,0,0,1-.1-3.092.923.923,0,0,1,.059-.355.759.759,0,0,1,.349-.325,3.025,3.025,0,0,1,3.7,1.224,9.677,9.677,0,0,1,1.26,4.034,23.09,23.09,0,0,0,3.293,9.371c1.461,2.126,3.54,3.908,4.33,6.363a3.026,3.026,0,0,1,.162,1.457,4.551,4.551,0,0,1-.984,1.762,12.843,12.843,0,0,0-2.006,4.142,10.168,10.168,0,0,0-5.236-.63c-1.491.15-.394-2.384-.276-3.186a10.921,10.921,0,0,0,.089-3.089" transform="translate(11229 -10788.719)" fill="#ffc7a6"/>
      <path id="Trazado_280458" data-name="Trazado 280458" d="M419.853,3747.666a2.318,2.318,0,0,0-.083.706,2.126,2.126,0,0,0,.174.61,15.414,15.414,0,0,1,1.161,3.054c.142.811.067,1.645.148,2.464a2.973,2.973,0,0,0,1.03,2.165,2.2,2.2,0,0,0,2.165.163,3.011,3.011,0,0,0,1.492-1.644,3.7,3.7,0,0,0,.257-1.551,5.17,5.17,0,0,0-1.495-3.142,4.192,4.192,0,0,1-.814-1.035,3.925,3.925,0,0,1-.244-1.225,11.137,11.137,0,0,0-.407-2,2.993,2.993,0,0,0-1.06-1.717c-1.957-1.294-2.09,2.1-2.324,3.157" transform="translate(11229 -10788.719)" fill="#ffe5cc"/>
      <g id="Grupo_262097" data-name="Grupo 262097" transform="translate(11229 -10788.719)" clip-path="url(#clip-path)">
        <path id="Trazado_280459" data-name="Trazado 280459" d="M423.4,3758.525c-.121-.077-.244-.15-.37-.218a6.105,6.105,0,0,0-2.919-.728c-1.132,0-1.624,1.033-2.239,1.889-5.8,8.078-13.5,14.635-19.436,22.612a79.852,79.852,0,0,1-11.545,12.229c-3.591,3.127-7.769,5.495-11.6,8.322a30.842,30.842,0,0,0-8.059,8.415c-.722,1.149-2.2,2.323-2.271,3.751-.094,1.83,1.367,2.884,2.962,3.276,4.264,1.049,9.191-.028,12.784,2.5a7.541,7.541,0,0,1,3.129,5.38c2.608-4.7,4.1-9.956,6.762-14.62a65.58,65.58,0,0,1,8.346-10.785c3.067-3.44,6.053-7,9.143-10.4,1.471-1.62,6.73-8.411,7.868-10.227q1.036-1.655,2.057-3.318c1.937-3.17,3.8-6.389,5.454-9.719a33.094,33.094,0,0,0,2.272-4.917c.365-1.228-1.417-2.851-2.336-3.438" fill="#879677"/>
      </g>
      <g id="Grupo_262100" data-name="Grupo 262100" transform="translate(11229 -10788.719)" clip-path="url(#clip-path-2)">
        <path id="Trazado_280460" data-name="Trazado 280460" d="M431.583,3934.261c-.995,2.5-.753,6.407,1.489,8.2a14.2,14.2,0,0,0,4.14,2.01,10.055,10.055,0,0,1,4.506,2.808c1.519,1.859,2.252,4.277,3.666,6.218a20.3,20.3,0,0,0,8.345,6.66c1.591.684,3.49,1.142,5,.294a4.267,4.267,0,0,0,1.526-1.565,8.089,8.089,0,0,0,.458-6.491,23.979,23.979,0,0,0-3.139-5.9l-5-7.588c-2.057-3.122-4.321-6.419-7.79-7.813-2.452-.986-5.187-.879-7.827-.757a6.213,6.213,0,0,0-5.373,3.916" fill="#879677"/>
      </g>
      <path id="Trazado_280461" data-name="Trazado 280461" d="M464.518,3907.959a13.761,13.761,0,0,0-2.983-6.58c-5.259-6.755-12.205-11.9-19.025-16.96-3.242-2.405-6.49-4.8-9.6-7.384-6.648-5.524-12.624-11.883-19.749-16.775a9.376,9.376,0,0,0-4.986-2.053,7.979,7.979,0,0,0-3.771,1.108,18.94,18.94,0,0,0-9.322,11.769c-2.234,8.518,1.59,16.822,8.808,21.36,2.376,1.494,26.961,16.318,37.219,21.132-.375,1.28-.675,2.585-.926,3.885-.834,4.318-1.223,8.743-2.581,12.926a11.847,11.847,0,0,0,5.578,3.817,35.275,35.275,0,0,0,6.692,1.438c3.675-7.571,9.539-13.889,13.441-21.347a10.465,10.465,0,0,0,1.2-6.336" transform="translate(11229 -10788.719)" fill="#262626"/>
      <g id="Grupo_262103" data-name="Grupo 262103" transform="translate(11229 -10788.719)" clip-path="url(#clip-path-3)">
        <path id="Trazado_280462" data-name="Trazado 280462" d="M380.979,3999.427c-.037.081-.075.162-.113.243-1.384,2.983-2.848,6-3.31,9.253a11.213,11.213,0,0,0,1.46,7.686,4.443,4.443,0,0,0,3.1,2.053,6.877,6.877,0,0,0,4.153-.611,10.55,10.55,0,0,0,4.751-4.888,23.262,23.262,0,0,0,1.976-6.63c.233-1.358.429-2.747.778-4.072a23.176,23.176,0,0,1,1.8-3.662,9.8,9.8,0,0,0,.562-6.176,14.573,14.573,0,0,0-2.732-5.635,3.419,3.419,0,0,1-.14,1.342,1.169,1.169,0,0,1-1,.8c.152,0-.383-.412-.365-.4a3.471,3.471,0,0,0-.878-.324,8.8,8.8,0,0,0-1.96-.329,2.526,2.526,0,0,0-1.472.279c-.344.225-.451.5-.957.35a2.412,2.412,0,0,1-.8-.5q-2.283,5.67-4.85,11.218" fill="#879677"/>
      </g>
      <path id="Trazado_280463" data-name="Trazado 280463" d="M403.13,3877.4a1.078,1.078,0,0,0-.472-.525c-.47-.194-.914.3-1.235.691a6.193,6.193,0,0,1-4.222,2.222c-.753.064-1.517-.013-2.263.112-1.471.242-1.613,1.318-2.526,2.207a11.714,11.714,0,0,1-3.724,2.134,14.664,14.664,0,0,1-7.945.879,60.145,60.145,0,0,1-6.578-1.974c-3.062-.914-6.348-1.1-6.325,2.832.018,3.175.164,6.348.41,9.513.192,2.483.447,4.959.75,7.429.947,7.711,2.368,15.363,3.871,22.983,1.077,5.462,2.017,10.95,3.028,16.424.958,5.183,2.4,10.265,3.019,15.5.619,5.209.812,10.476,1.911,15.62,1.244,5.826,3,11.558,3.724,17.472a13.234,13.234,0,0,0,10.833-.53l1.461-20.772a53.476,53.476,0,0,0-.581-10.556,107.615,107.615,0,0,1-.545-11.593c-.122-10.905-.262-21.636.653-32.5q.484-5.751,1.287-11.466a5.415,5.415,0,0,1,.513-1.89,6.573,6.573,0,0,1,1.252-1.436,19.769,19.769,0,0,0,5.684-10.78,18.792,18.792,0,0,0-1.98-12" transform="translate(11229 -10788.719)" fill="#404040"/>
      <path id="Trazado_280464" data-name="Trazado 280464" d="M350.631,3818.86a8.672,8.672,0,1,1-8.671-8.671,8.672,8.672,0,0,1,8.671,8.671" transform="translate(11229 -10788.719)" fill="#733118"/>
      <g id="Grupo_262106" data-name="Grupo 262106" transform="translate(11229 -10788.719)" clip-path="url(#clip-path-4)">
        <path id="Trazado_280465" data-name="Trazado 280465" d="M341.154,3835.042q-1.728,3.079-3.332,6.227c-1.229,2.414-2.423,5.226-1.417,7.741a8.712,8.712,0,0,0,1.724,2.506c4.55,5.045,10.37,8.732,16,12.528a25.111,25.111,0,0,1,3.122,2.359c3.557,3.3,9.295,23.422,10.96,28.76.251.8,10.369-1.551,11.382-1.819a60.732,60.732,0,0,0,11.028-4.1,61.772,61.772,0,0,0,18.762-14.044,58.172,58.172,0,0,0,6.116-8.057c.943-1.5,2.146-2.643,1.1-4.242-.943-1.442-14.6-12.062-19.22-17.246a1.9,1.9,0,0,1-.456-.706,2.124,2.124,0,0,1,.2-1.267,13.528,13.528,0,0,0-.416-10.049c-1.494-3.286-4.228-5.809-6.776-8.366-2.256-2.266-8.853-12.883-10.49-15.58-1.175-1.936-2.614-4.047-4.841-4.46a7.62,7.62,0,0,0-3.564.449,55.727,55.727,0,0,0-11.574,5.023,13.844,13.844,0,0,0-4.515,3.425c-1.29,1.712-2.577,3.423-3.819,5.17a175.191,175.191,0,0,0-9.974,15.746" fill="#66705b"/>
      </g>
      <path id="Trazado_280466" data-name="Trazado 280466" d="M420.741,3865.573a2.472,2.472,0,0,1-.182.8,12.127,12.127,0,0,1-5.211,6.12,1.154,1.154,0,0,1-.606.2,1.026,1.026,0,0,1-.53-.257,55.875,55.875,0,0,1-5.545-4.636c-1.469-1.379-2.878-2.833-4.226-4.333-1.44-1.575-2.8-3.211-4.136-4.878-.076-.106-.167-.212-.243-.318-1.272-1.591-2.5-3.212-3.7-4.863-.682-.909-1.348-1.818-2.015-2.727a35.929,35.929,0,0,1-4.03-8.211c-2.151-5.62-4.484-11.256-8.029-16.134a60.052,60.052,0,0,0-7.953-8.589c-2.06-1.909-4.181-3.757-6.317-5.575a19.909,19.909,0,0,0-2.758-2.3c-.818-.454-1.817-.378-2.317-1.318a2.113,2.113,0,0,1,.454-2.333,5.062,5.062,0,0,1,2.182-1.2,13.133,13.133,0,0,1,11.149,1.137,15.429,15.429,0,0,1,3.7,3.666c3.59,4.772,5.757,10.589,9.786,15,2.182,2.393,4.878,4.347,6.636,7.074a12.97,12.97,0,0,1,1.742,9.772,8.021,8.021,0,0,0-.379,2.651c.2,1.681,1.667,2.878,3.03,3.893.03.015.061.045.091.061.969.742,2.7,2.121,4.726,3.8,1.5,1.227,3.167,2.606,4.818,4,1.606,1.348,3.2,2.711,4.605,3.938a48.956,48.956,0,0,1,4.848,4.53,2.03,2.03,0,0,1,.409,1.03" transform="translate(11229 -10788.719)" fill="#fa0"/>
      <path id="Trazado_280467" data-name="Trazado 280467" d="M406.061,3852.075c-1.924,2.121-3.939,4.2-6,6.2-1.273-1.591-2.5-3.212-3.7-4.863,1.7-1.666,3.363-3.393,4.968-5.135.97.742,2.7,2.121,4.727,3.8" transform="translate(11229 -10788.719)" fill="#f2f2f2"/>
      <path id="Trazado_280468" data-name="Trazado 280468" d="M415.484,3860.013q-.977,1.227-2,2.409c-1.56,1.833-3.151,3.62-4.817,5.378-1.47-1.379-2.879-2.833-4.227-4.333,1.53-1.621,3-3.287,4.439-4.969.682-.8,1.348-1.606,2-2.424,1.606,1.348,3.2,2.712,4.605,3.939" transform="translate(11229 -10788.719)" fill="#f2f2f2"/>
      <path id="Trazado_280469" data-name="Trazado 280469" d="M348.928,3818.449l.062.164a34.058,34.058,0,0,1,1.5,5.336,3.935,3.935,0,0,0,.252.918,3.357,3.357,0,0,0,2.829,1.508,20.1,20.1,0,0,0,11.082-2.386c2.631-1.315,5.323-3.1,6.355-5.981a2.169,2.169,0,0,0-.288-2.072,31.578,31.578,0,0,1-2.285-4.5c-.509-1.24-1.02-2.612-2.179-3.288-.495.313-.264,1.771-.283,2.286-.049,1.31-4.224.557-5.113.391-3.35-.627-6.516-2.316-9.924-2.322a5.039,5.039,0,0,0-3.25.954c-1.081.9-2.148,3.378-1.234,4.678.238.34.609.5.877.8a4.31,4.31,0,0,1,.569,1.072q.564,1.2,1.032,2.443" transform="translate(11229 -10788.719)" fill="#ffc7a6"/>
      <path id="Trazado_280470" data-name="Trazado 280470" d="M392.594,3888.463a4.525,4.525,0,0,1-1.106,2.3,17.647,17.647,0,0,1-2.03,1.984,35.788,35.788,0,0,1-20.694,8.7,4.97,4.97,0,0,1-3.817-.833,5.192,5.192,0,0,1-1.227-3.257c0-.046-.016-.106-.016-.152-.257-1.954-.545-3.923-.893-5.863q-.773-4.317-1.833-8.574c-.5-1.969-1.046-3.939-1.637-5.878-.045-.182-.106-.379-.166-.561a30.757,30.757,0,0,0-2.273-5.8,52,52,0,0,0-5.241-7c-3.56-4.454-7.105-9.029-9.665-14.164-2.591-5.2-3.788-9.8-1.031-15.18.925-1.772,1.955-3.484,3-5.2.909-1.515,1.833-3.03,2.742-4.545.818-1.333,1.682-3.3,3.075-4.136a8.447,8.447,0,0,0,4.288,6.545,16.679,16.679,0,0,1,4.166,2.954,54.313,54.313,0,0,1,7.135,7.893,170.741,170.741,0,0,1,17.361,27.556c.924,1.849,1.818,3.712,2.666,5.591.2.408.379.8.561,1.211.894,2,1.757,4.03,2.6,6.06.788,1.924,1.561,3.863,2.333,5.8.016.015.016.046.031.061.53,1.287,1.772,3.075,1.666,4.484" transform="translate(11229 -10788.719)" fill="#fa0"/>
      <g id="Grupo_262109" data-name="Grupo 262109" transform="translate(11229 -10788.719)" clip-path="url(#clip-path-5)">
        <path id="Trazado_280471" data-name="Trazado 280471" d="M355.484,3844.6a49.481,49.481,0,0,1,3.374,11.568,23.2,23.2,0,0,1,.581,6.436c-.194,1.8-1,4.346-3.306,4.173a3.955,3.955,0,0,1-2.057-.986c-5.108-4-6.709-9.877-7.215-16.09-.228-2.791.009-5.609-.388-8.388-.225-1.578-1.282-2.923-1.955-4.361a3.423,3.423,0,0,1-.446-1.744,1.123,1.123,0,0,1,.842-1.048,5.622,5.622,0,0,1,3.777,1.1,11.469,11.469,0,0,1,2.658,2.277,35.251,35.251,0,0,1,4.135,7.058" fill="#66705b"/>
      </g>
      <path id="Trazado_280472" data-name="Trazado 280472" d="M385.4,3870.845a71.263,71.263,0,0,1-21.966,11.332,19.391,19.391,0,0,1-2.454.59c-.5-1.969-1.046-3.938-1.637-5.878a14.631,14.631,0,0,0,2.394-.53c7.983-2.333,15.028-6.6,21-11.1.924,1.848,1.818,3.711,2.666,5.59" transform="translate(11229 -10788.719)" fill="#f2f2f2"/>
      <path id="Trazado_280473" data-name="Trazado 280473" d="M390.927,3883.979c-6.575,5.03-14.5,9.938-23.678,12.619a20.649,20.649,0,0,1-3.53.758c0-.046-.015-.106-.015-.152-.258-1.954-.546-3.923-.894-5.862a12.436,12.436,0,0,0,2.742-.561c7.529-2.2,14.816-6.2,23.012-12.665.787,1.924,1.56,3.863,2.333,5.8.015.015.015.045.03.06" transform="translate(11229 -10788.719)" fill="#f2f2f2"/>
      <path id="Trazado_280474" data-name="Trazado 280474" d="M367.01,3793.775a1.218,1.218,0,0,0-.253-.642c-.448-.512-1.31-.248-1.889-.323a6.039,6.039,0,0,1-3.067-1.14c-1.214-.976-1.785-2.56-2.919-3.627a8.738,8.738,0,0,0-3.432-1.739,51.759,51.759,0,0,0-5.3-1.383,15.809,15.809,0,0,0-8.41.451,15.091,15.091,0,0,0-5.746,4.006c-4.4,4.33-6.917,10.025-5,16.177a12.491,12.491,0,0,0,6.246,7.557c4.352,2.337,9.511,2.736,14.427,2.253a44.089,44.089,0,0,0,17.761-5.733c1.345-.782,2.766-1.8,3.049-3.331a4.119,4.119,0,0,0-.409-2.434c-1.276-2.775-4.329-4.651-4.874-7.656a14.724,14.724,0,0,1-.142-1.731c-.013-.214-.013-.465-.047-.705" transform="translate(11229 -10788.719)" fill="#ffe5cc"/>
      <path id="Trazado_280475" data-name="Trazado 280475" d="M345.985,3797.263c.714,3.593,3.107,6.868,2.9,10.526-1.806-.572-5.059.823-5.094,2.915a3.711,3.711,0,0,0,1.726,3,7.783,7.783,0,0,0,3.389,1.129c.561.075,1.124.122,1.687.176.284.027,1.2-.037,1.409.176.51.52-1.153,1.568-1.475,1.771a22.6,22.6,0,0,1-2.409,1.241,7.982,7.982,0,0,1-2.7.653,15.767,15.767,0,0,1-9.641-2.279,13.878,13.878,0,0,1-5.308-6.32,17.939,17.939,0,0,1-1.373-8.116,20.5,20.5,0,0,1,4.088-11.64c3.711-4.776,10.142-7.514,16.042-6.181.348.079,1.366.232,1.578.566.3.476-.316.708-.678,1a11.515,11.515,0,0,0-2.085,2.241,12.287,12.287,0,0,0-2.184,5.681,11.222,11.222,0,0,0,.132,3.46" transform="translate(11229 -10788.719)" fill="#8c3c1d"/>
      <g id="Grupo_262112" data-name="Grupo 262112" transform="translate(11229 -10788.719)" clip-path="url(#clip-path-6)">
        <path id="Trazado_280476" data-name="Trazado 280476" d="M351.9,3842.795c-.909-3.342-2.1-6.96-5.537-8.459-2.931-1.278-4.754.987-6.473,3.1-4.425,5.44-7.453,11.855-9.939,18.37-1.392,3.648-2.621,7.354-3.85,11.059a66.85,66.85,0,0,1-3.417,9.1c-1.124,2.222-3.815,3.147-5.448,4.916a27.087,27.087,0,0,0-4.238,6.345c-1.024,2.062-1.878,4.2-2.715,6.347-3.668,9.4-7.334,18.846-12.412,27.562a1.88,1.88,0,0,0-.344.957,1.687,1.687,0,0,0,.5,1,8.491,8.491,0,0,0,8.035,2.652q5.7-7.151,11.21-14.445a193.446,193.446,0,0,0,14.209-20.86c1.676-2.95,2.778-6.24,4.393-9.245a63.666,63.666,0,0,1,17.068-20.149A3.241,3.241,0,0,0,353.96,3860a2.958,2.958,0,0,0,.229-1.047c.473-5.447-.852-10.877-2.287-16.153" fill="#879677"/>
      </g>
      <path id="Trazado_280477" data-name="Trazado 280477" d="M303.588,3922.9c-1.331-1.089-3.716-2.151-5.067-1.018a12.345,12.345,0,0,0-1.429,2.112c-.484.665-1,1.313-1.543,1.928-1.365,1.532-2.792,3.01-4.127,4.569-.735.858-1.444,1.74-2.1,2.664a53.186,53.186,0,0,1-3.149,4.463c-1.036,1.19-2.354,2.348-2.49,3.919a2.38,2.38,0,0,1-.081.591,2.687,2.687,0,0,1-.561.752c-.819.99-.686,2.432-.508,3.705a1.077,1.077,0,0,0,.153.493.862.862,0,0,0,.8.259,3.966,3.966,0,0,0,2.154-1.273q2.457-2.312,4.711-4.827c.711-.795,1.454-1.592,2.13-2.409.308-.372.584-.771.9-1.134.273-.31.62-.735,1.061-.39.4.315.184,1.015.067,1.439a6.6,6.6,0,0,0-.419,1.942,1.431,1.431,0,0,0,1.117,1.443,1.507,1.507,0,0,0,.738-.155,4.562,4.562,0,0,0,1.463-1.121,8.724,8.724,0,0,0,1.511-2.26,4.716,4.716,0,0,1,1.3-2.1,18.372,18.372,0,0,0,2.138-1.925,9.509,9.509,0,0,0,2.664-6.917c-.061-1.6.3-2.923-.882-4.234a5.032,5.032,0,0,0-.552-.519" transform="translate(11229 -10788.719)" fill="#ffe5cc"/>
      <path id="Trazado_280478" data-name="Trazado 280478" d="M285.309,3958.322l12.567-7.3a.691.691,0,0,1,.493-.065l-12.568,7.3a.683.683,0,0,0-.492.064" transform="translate(11229 -10788.719)"/>
      <path id="Trazado_280479" data-name="Trazado 280479" d="M317.308,3983.528l-1.987,1.153.527.295Z" transform="translate(11229 -10788.719)"/>
      <path id="Trazado_280480" data-name="Trazado 280480" d="M285.8,3958.257l12.567-7.3,4.323.886-12.567,7.3Z" transform="translate(11229 -10788.719)"/>
      <path id="Trazado_280481" data-name="Trazado 280481" d="M333.024,3994.778l-.159.1.159.086Z" transform="translate(11229 -10788.719)"/>
      <path id="Trazado_280482" data-name="Trazado 280482" d="M287.68,3938.569l12.567-7.3a.86.86,0,0,1,.865.085,2,2,0,0,1,.382.291l-12.567,7.3a1.972,1.972,0,0,0-.382-.292.867.867,0,0,0-.865-.086" transform="translate(11229 -10788.719)"/>
      <path id="Trazado_280483" data-name="Trazado 280483" d="M288.927,3938.947l12.567-7.3,4.306,4.095-12.568,7.3Z" transform="translate(11229 -10788.719)"/>
      <path id="Trazado_280484" data-name="Trazado 280484" d="M297.618,3959.949c-.012,5.619,1.926,11.851,5.1,17.4l12.6,7.337.527.294,4.981,2.9,7.263-4.22c-5.189-2.993-9.851-8.232-13.115-14.17a35.776,35.776,0,0,1-4.784-16.844,19.819,19.819,0,0,1,.613-4.968,10.362,10.362,0,0,1,4.625-6.539l-12.329,7.177a1.363,1.363,0,0,0-.258.147,7.429,7.429,0,0,0-.993.675.558.558,0,0,0-.135.11,6.439,6.439,0,0,0-.528.466c-.159.148-.307.307-.454.466a9.664,9.664,0,0,0-.846,1.092c-.037.049-.074.111-.111.16-.122.208-.257.417-.38.65s-.245.454-.356.7c-.1.209-.2.43-.282.651a.163.163,0,0,0-.037.1c-.1.257-.2.515-.282.785-.012,0,0,.012,0,.012-.086.27-.172.54-.245.834s-.147.577-.2.871-.122.614-.159.92c-.049.332-.1.663-.123,1.006-.024.27-.049.552-.061.835-.012.208-.025.417-.025.625-.012.172-.012.356-.012.54" transform="translate(11229 -10788.719)"/>
      <path id="Trazado_280485" data-name="Trazado 280485" d="M320.829,3987.871l7.459,4.343c.074-.049.16-.1.245-.147l12.33-7.165a10.286,10.286,0,0,1-7.938.773,18.863,18.863,0,0,1-4.833-2.024Z" transform="translate(11229 -10788.719)"/>
      <path id="Trazado_280486" data-name="Trazado 280486" d="M345.329,4002.114l1.435.834,2.65-1.545c.417-.234.491-.958.135-1.743Z" transform="translate(11229 -10788.719)"/>
      <path id="Trazado_280487" data-name="Trazado 280487" d="M349.144,3998.777l-4.772,2.773.957.564,4.22-2.454Z" transform="translate(11229 -10788.719)"/>
      <path id="Trazado_280488" data-name="Trazado 280488" d="M339.035,3998.458l4.883,2.834.269.159,4.883-2.834-2-4.318-.184-.405-.724.417Z" transform="translate(11229 -10788.719)"/>
      <path id="Trazado_280489" data-name="Trazado 280489" d="M337.833,3997.759l.675.393.527.306,7.128-4.146.724-.417a13.287,13.287,0,0,0,3.619-3.595l-4.785,2.785-7.778,4.527-.11.147" transform="translate(11229 -10788.719)"/>
      <path id="Trazado_280490" data-name="Trazado 280490" d="M302.233,3931.616l12.568-7.3,2.655,5.754-12.567,7.3Z" transform="translate(11229 -10788.719)"/>
      <path id="Trazado_280491" data-name="Trazado 280491" d="M313.822,3923.166a.968.968,0,0,0-.72-.143l-6.065,1.552a.635.635,0,0,0-.152.063l-12.568,7.3a.618.618,0,0,1,.153-.062l6.064-1.553a.974.974,0,0,1,.721.143,2.574,2.574,0,0,1,.978,1.147l12.567-7.3a2.576,2.576,0,0,0-.978-1.146" transform="translate(11229 -10788.719)" fill="#999"/>
      <path id="Trazado_280492" data-name="Trazado 280492" d="M344.188,4001.452l.172.1,11.691-6.784a.638.638,0,0,0,.3-.381Z" transform="translate(11229 -10788.719)"/>
      <path id="Trazado_280493" data-name="Trazado 280493" d="M304.888,3937.37l12.567-7.3a20.309,20.309,0,0,1,5.82,1.189l-12.566,7.3a20.322,20.322,0,0,0-5.821-1.189" transform="translate(11229 -10788.719)"/>
      <path id="Trazado_280494" data-name="Trazado 280494" d="M343.918,4001.292l.27.159,4.882-2.833,7.275-4.233.246-.712,2.1-6.121-6.318,3.668-5.3,3.079-.957.552Z" transform="translate(11229 -10788.719)"/>
      <path id="Trazado_280495" data-name="Trazado 280495" d="M357.9,3985.325l-4.313-4.1-12.568,7.3,4.314,4.1a2.448,2.448,0,0,1,.784,2.222l12.567-7.3a2.448,2.448,0,0,0-.784-2.222" transform="translate(11229 -10788.719)" fill="#999"/>
      <path id="Trazado_280496" data-name="Trazado 280496" d="M341.041,3981.5l12.567-7.3c.119,1.22.181,2.435.178,3.612a30.589,30.589,0,0,1-.2,3.415l-12.568,7.3a30.35,30.35,0,0,0,.2-3.415,36.117,36.117,0,0,0-.177-3.612" transform="translate(11229 -10788.719)"/>
      <path id="Trazado_280497" data-name="Trazado 280497" d="M320.621,3944.282l12.567-7.3a50.121,50.121,0,0,1,5.817,5.529l-12.567,7.3a50.3,50.3,0,0,0-5.817-5.53" transform="translate(11229 -10788.719)"/>
      <path id="Trazado_280498" data-name="Trazado 280498" d="M320.636,3939.068l12.567-7.3-.014,5.215-12.568,7.3Z" transform="translate(11229 -10788.719)"/>
      <path id="Trazado_280499" data-name="Trazado 280499" d="M331.987,3929.659l-7.473-4.315a.859.859,0,0,0-.868-.085l-12.568,7.3a.862.862,0,0,1,.869.086l7.473,4.315a2.674,2.674,0,0,1,1.216,2.105l12.567-7.3a2.676,2.676,0,0,0-1.216-2.106" transform="translate(11229 -10788.719)" fill="#999"/>
      <path id="Trazado_280500" data-name="Trazado 280500" d="M334.428,3961.136l12.568-7.3a61.713,61.713,0,0,1,3.594,7.765l-12.567,7.3a61.665,61.665,0,0,0-3.6-7.766" transform="translate(11229 -10788.719)"/>
      <path id="Trazado_280501" data-name="Trazado 280501" d="M358.424,3975.019l-12.567,7.3c.312-.182.442-.647.3-1.247l12.567-7.3c.142.6.011,1.065-.3,1.246" transform="translate(11229 -10788.719)"/>
      <path id="Trazado_280502" data-name="Trazado 280502" d="M343.864,3971.563l12.567-7.3,2.294,9.514-12.567,7.3Z" transform="translate(11229 -10788.719)"/>
      <path id="Trazado_280503" data-name="Trazado 280503" d="M355.284,3962.628a1.214,1.214,0,0,0-.379-.148l-4.314-.881-12.568,7.3,4.314.882a1.216,1.216,0,0,1,.38.147,2.691,2.691,0,0,1,1.147,1.632l12.567-7.3a2.685,2.685,0,0,0-1.147-1.632" transform="translate(11229 -10788.719)" fill="#999"/>
      <path id="Trazado_280504" data-name="Trazado 280504" d="M337.116,3958.466l12.567-7.3L347,3953.833l-12.568,7.3Z" transform="translate(11229 -10788.719)"/>
      <path id="Trazado_280505" data-name="Trazado 280505" d="M285.006,3959.568l2.1,8.711,5.938,3.447.11.024c.012.025.012.037.025.062l9.544,5.533c-3.177-5.546-5.116-11.778-5.1-17.4,0-.184,0-.368.012-.539,0-.209.012-.418.024-.626.013-.282.037-.564.062-.834.024-.344.073-.675.122-1.006s.1-.626.16-.92.123-.589.2-.871.147-.565.246-.835v-.012a8.137,8.137,0,0,1,.282-.785.164.164,0,0,1,.036-.1,5.953,5.953,0,0,1,.283-.65,6.271,6.271,0,0,1,.355-.7c.123-.233.246-.441.381-.65.037-.049.074-.11.11-.159a9.5,9.5,0,0,1,.847-1.092,5.293,5.293,0,0,1,.454-.466,4.55,4.55,0,0,1,.527-.467.6.6,0,0,1,.135-.11,7.4,7.4,0,0,1,.994-.675,1.431,1.431,0,0,1,.258-.147,10.359,10.359,0,0,1,7.7-.638,18.877,18.877,0,0,1,4.834,2.024c9.789,5.656,17.739,19.261,17.886,30.572.013.135.013.282.013.418a19.371,19.371,0,0,1-.614,4.993,10.494,10.494,0,0,1-4.392,6.391c-.086.049-.171.1-.245.147l4.576,2.663.159.086,4.81,2.8.11-.147.564.539.528.307,4.883,2.834,2.2-6.441a1.3,1.3,0,0,0,.048-.54c-.012-.1-.024-.2-.048-.306v-.025c-.025-.1-.062-.2-.086-.294-.05-.1-.086-.2-.135-.295a1.47,1.47,0,0,0-.135-.233.045.045,0,0,0-.013-.037c-.012-.012-.012-.024-.024-.036a2.641,2.641,0,0,0-.38-.454l-4.319-4.1a30.19,30.19,0,0,0,.2-3.423c0-.122,0-.245-.012-.38,0-.466-.012-.932-.037-1.411-.024-.6-.073-1.2-.122-1.816l4.318.884a.651.651,0,0,0,.54-.111.248.248,0,0,0,.1-.1.477.477,0,0,0,.111-.159,1.337,1.337,0,0,0,.048-.945l-.539-2.233-1.755-7.275a2.709,2.709,0,0,0-1.153-1.631,1.219,1.219,0,0,0-.38-.148l-4.318-.883a60,60,0,0,0-3.6-7.766l2.7-2.674c.393-.405.27-1.35-.27-2.11L330.8,3947.8a1.667,1.667,0,0,0-.3-.356,2.038,2.038,0,0,0-.417-.331,1.288,1.288,0,0,0-.27-.111.621.621,0,0,0-.2-.036.415.415,0,0,0-.245.012c-.025,0-.049.012-.074.012l-.049.025-.012.012h-.012a.476.476,0,0,0-.123.1l-2.675,2.687a49.262,49.262,0,0,0-5.815-5.533l.013-5.214a2.7,2.7,0,0,0-1.215-2.11l-2.993-1.73-3.951-2.269-.527-.307a1.181,1.181,0,0,0-.552-.172.384.384,0,0,0-.172.025.166.166,0,0,0-.1.036.064.064,0,0,0-.049.025.831.831,0,0,0-.356.773v.65l-.012,4.564a20.176,20.176,0,0,0-5.815-1.178l-.4-.871-1.656-3.582-.6-1.3a2.509,2.509,0,0,0-.981-1.153.973.973,0,0,0-.712-.147l-6.072,1.558c-.54.147-.675.932-.282,1.8l.4.871.4.871,1.853,4.012a13.088,13.088,0,0,0-3.607,3.607l-4.306-4.1a2.1,2.1,0,0,0-.393-.294.924.924,0,0,0-.711-.135.168.168,0,0,0-.074.025.606.606,0,0,0-.368.417l-2.343,6.833a2.474,2.474,0,0,0,.785,2.221l4.318,4.109c-.1.908-.171,1.841-.184,2.822-.012.184-.012.368-.012.564v.344c0,1.092.074,2.184.172,3.288l-4.319-.884a.823.823,0,0,0-.171-.012.407.407,0,0,0-.172.025.192.192,0,0,0-.11.037c-.344.159-.491.637-.344,1.263" transform="translate(11229 -10788.719)" fill="#333"/>
      <path id="Trazado_280506" data-name="Trazado 280506" d="M349.42,3949.046l-6.044-8.544a2.311,2.311,0,0,0-.715-.685.86.86,0,0,0-.86-.084l-12.568,7.3a.862.862,0,0,1,.861.084,2.333,2.333,0,0,1,.715.686l6.044,8.544c.535.767.663,1.711.263,2.116l12.567-7.3c.4-.405.272-1.349-.263-2.117" transform="translate(11229 -10788.719)" fill="#999"/>
      <path id="Trazado_280507" data-name="Trazado 280507" d="M303.582,3886.336l-4.5,11.492a1.922,1.922,0,0,0,1.089,2.49l.048.018a1.922,1.922,0,0,0,2.49-1.089l4.5-11.492a1.923,1.923,0,0,0-1.09-2.49l-.047-.018a1.922,1.922,0,0,0-2.49,1.089" transform="translate(11229 -10788.719)" fill="#404040"/>
      <path id="Trazado_280508" data-name="Trazado 280508" d="M282.583,3885.978l1.852,12.2a1.922,1.922,0,0,0,2.189,1.612l.05-.008a1.921,1.921,0,0,0,1.612-2.188l-1.853-12.2a1.922,1.922,0,0,0-2.188-1.611l-.051.008a1.921,1.921,0,0,0-1.611,2.188" transform="translate(11229 -10788.719)" fill="#404040"/>
      <path id="Trazado_280509" data-name="Trazado 280509" d="M292.926,3881.218l-.7,12.32a1.922,1.922,0,0,0,1.81,2.028l.051,0a1.921,1.921,0,0,0,2.027-1.81l.7-12.32a1.921,1.921,0,0,0-1.809-2.027l-.052,0a1.921,1.921,0,0,0-2.027,1.809" transform="translate(11229 -10788.719)" fill="#404040"/>
      <path id="Trazado_280510" data-name="Trazado 280510" d="M381.311,3773.526l-9.646,7.7a1.921,1.921,0,0,0-.3,2.7l.032.041a1.921,1.921,0,0,0,2.7.3l9.647-7.7a1.922,1.922,0,0,0,.3-2.7l-.033-.04a1.92,1.92,0,0,0-2.7-.3" transform="translate(11229 -10788.719)" fill="#404040"/>
      <path id="Trazado_280511" data-name="Trazado 280511" d="M363.314,3762.7l-4.506,11.488a1.922,1.922,0,0,0,1.087,2.491l.048.018a1.922,1.922,0,0,0,2.491-1.087l4.505-11.488a1.922,1.922,0,0,0-1.087-2.491l-.048-.018a1.921,1.921,0,0,0-2.49,1.087" transform="translate(11229 -10788.719)" fill="#404040"/>
      <path id="Trazado_280512" data-name="Trazado 280512" d="M374.65,3763.76l-6.775,10.315a1.921,1.921,0,0,0,.551,2.661l.043.028a1.921,1.921,0,0,0,2.661-.551L377.9,3765.9a1.92,1.92,0,0,0-.551-2.66l-.043-.028a1.922,1.922,0,0,0-2.661.55" transform="translate(11229 -10788.719)" fill="#404040"/>
    </g>
  </g>
</svg>
