<svg xmlns="http://www.w3.org/2000/svg" width="71.869" height="71.87" viewBox="0 0 71.869 71.87">
  <g id="Grupo_261810" data-name="Grupo 261810" transform="translate(5746.48 6389.297)">
    <g id="Grupo_261808" data-name="Grupo 261808">
      <path id="Trazado_277616" data-name="Trazado 277616" d="M114.389,796.638A35.934,35.934,0,1,1,78.454,760.7a35.935,35.935,0,0,1,35.935,35.935" transform="translate(-5789 -7150)" fill="#fff"/>
    </g>
    <path id="Trazado_277808" data-name="Trazado 277808" d="M86.34,770.422a1.459,1.459,0,0,1,.426,1.214c-.017.523-.234,1.244.086,1.519s1.006.077,1.533.088c.1,0,.2,0,.307,0,.553.023.9.325.888.778s-.351.745-.911.758a12.909,12.909,0,0,1-1.432-.007c-.428-.038-.512.134-.489.514.03.493.016.989,0,1.484a.767.767,0,1,1-1.531.019c-.016-.528-.022-1.058,0-1.586.015-.319-.057-.452-.41-.43-.51.033-1.024.02-1.535.005-.564-.016-.878-.314-.866-.791.012-.457.311-.727.859-.741s1.092-.017,1.638,0c.251.008.322-.073.313-.318-.018-.477.019-.957-.012-1.433a1.071,1.071,0,0,1,.515-1.075Z" transform="translate(-5789 -7150)" fill="#050505"/>
    <path id="Trazado_277809" data-name="Trazado 277809" d="M83.658,784.281a.841.841,0,0,1,.945-.669,5.191,5.191,0,0,0,3.265-1.142c.566-.438,1.132-.877,1.705-1.307a1.114,1.114,0,0,1,1.413-.094,1.134,1.134,0,0,1,.373,1.411c-.242.708-.5,1.41-.743,2.118a5.186,5.186,0,0,0,5.017,6.936c.768-.007,1.535-.034,2.3-.044a1.122,1.122,0,0,1,.674,2.094c-.627.441-1.267.864-1.892,1.308a5.193,5.193,0,0,0-.015,8.538c.623.446,1.266.864,1.893,1.306a1.137,1.137,0,0,1,.521,1.369,1.166,1.166,0,0,1-1.214.753,19.139,19.139,0,0,0-3.167,0,5.2,5.2,0,0,0-4.149,6.812c.246.742.525,1.473.778,2.213A1.1,1.1,0,0,1,91,817.246a1.131,1.131,0,0,1-1.416-.064c-.587-.439-1.16-.9-1.745-1.339a5.206,5.206,0,0,0-8.259,2.694c-.206.684-.4,1.371-.61,2.054a1.131,1.131,0,0,1-1.124.933,1.147,1.147,0,0,1-1.116-.949c-.216-.716-.411-1.439-.635-2.153a5.2,5.2,0,0,0-8.111-2.656c-.6.445-1.19.915-1.788,1.367a1.142,1.142,0,0,1-1.828-1.323,17.55,17.55,0,0,0,1-3.259,5.208,5.208,0,0,0-5.07-5.763c-.8-.011-1.6.047-2.405.067a1.18,1.18,0,0,1-1.316-.817,1.152,1.152,0,0,1,.6-1.336c.657-.457,1.329-.9,1.971-1.373a5.189,5.189,0,0,0,.008-8.322c-.655-.489-1.346-.93-2.016-1.4a1.133,1.133,0,0,1,.7-2.12,17.969,17.969,0,0,0,3.369-.054,5.176,5.176,0,0,0,3.952-6.646c-.238-.763-.527-1.509-.788-2.265a1.165,1.165,0,0,1,.319-1.428,1.143,1.143,0,0,1,1.5.095c.571.432,1.129.881,1.7,1.31a5.19,5.19,0,0,0,8.226-2.679c.211-.683.4-1.371.609-2.055a1.18,1.18,0,0,1,1.109-.966,1.156,1.156,0,0,1,1.144.976c.212.7.408,1.405.624,2.1a5.068,5.068,0,0,0,1.747,2.583.9.9,0,0,1,.355,1.157c-.527.455-.8.462-1.338.029a6.33,6.33,0,0,1-1.929-2.531c-.209-.505-.373-1.03-.566-1.57a1.511,1.511,0,0,0-.245.632,6.8,6.8,0,0,1-3.138,4.057,7.585,7.585,0,0,1-3.1.934,8.5,8.5,0,0,1-2.7-.47,13.882,13.882,0,0,1-2.458-1.465,6.875,6.875,0,0,1-7.062,9.86,6.934,6.934,0,0,1,.046,12.128,6.927,6.927,0,0,1,6.439,2.832,6.807,6.807,0,0,1,.59,7.04,12.839,12.839,0,0,1,2.482-1.482,8.013,8.013,0,0,1,2.759-.435,6.788,6.788,0,0,1,6.244,5.3c.032.113.035.239.176.3.087-.294.167-.587.26-.877a6.772,6.772,0,0,1,8.287-4.474,9.06,9.06,0,0,1,2.847,1.547l.089.056-.006-.119c-.095-.291-.191-.581-.283-.873a6.748,6.748,0,0,1,5.5-8.732c.629-.09,1.264-.011,2-.1a6.787,6.787,0,0,1-3.635-6.052,6.905,6.905,0,0,1,3.583-6.069,6.939,6.939,0,0,1-7.173-9.765,4.051,4.051,0,0,0-.629.41,6.744,6.744,0,0,1-4.13,1.414c-.635,0-.875-.223-.955-.869" transform="translate(-5789 -7150)" fill="#040302"/>
    <path id="Trazado_277810" data-name="Trazado 277810" d="M71.392,785.172a7.594,7.594,0,0,0,3.1-.934,6.8,6.8,0,0,0,3.138-4.057,1.5,1.5,0,0,1,.245-.632c.193.54.356,1.065.565,1.57a6.332,6.332,0,0,0,1.93,2.531c.537.432.811.426,1.338-.029a5.077,5.077,0,0,0,1.95.66c.08.646.319.873.955.869a6.738,6.738,0,0,0,4.13-1.415,4.127,4.127,0,0,1,.629-.409,6.939,6.939,0,0,0,7.173,9.765,6.906,6.906,0,0,0-3.584,6.069,6.789,6.789,0,0,0,3.635,6.052c-.732.092-1.367.012-2,.1a6.748,6.748,0,0,0-5.5,8.732c.091.292.188.582.283.873l-.083.063a9.094,9.094,0,0,0-2.847-1.548,6.774,6.774,0,0,0-8.287,4.475c-.093.29-.174.583-.26.877-.142-.063-.144-.189-.176-.3a6.788,6.788,0,0,0-6.244-5.3,16.78,16.78,0,0,1-3.532-3.583,17.6,17.6,0,0,1,1.57-22.7c.587-.609,1.245-1.15,1.87-1.722m8.077,26.3c.368.6.555.669,1.323.49a13.13,13.13,0,1,0-13.469-4.984,12.9,12.9,0,0,0,8.828,5.205c.851.125,1.08-.01,1.293-.693l2.025-.018" transform="translate(-5789 -7150)" fill="#fa9537"/>
    <path id="Trazado_277811" data-name="Trazado 277811" d="M58,788.971a.974.974,0,0,1-.91-.551,2.483,2.483,0,0,1-.181-.476,3.425,3.425,0,0,0-2.453-2.44,2.545,2.545,0,0,1-.385-.136.986.986,0,0,1-.614-.972.976.976,0,0,1,.62-.917,5.036,5.036,0,0,1,.573-.211,3.237,3.237,0,0,0,2.2-2.227c.185-.587.4-1.173,1.151-1.169s.961.586,1.145,1.176a3.316,3.316,0,0,0,2.353,2.275,1.68,1.68,0,0,1,.765.388,1.019,1.019,0,0,1-.248,1.612,2.372,2.372,0,0,1-.475.184A3.458,3.458,0,0,0,59.076,788c-.212.72-.538.973-1.078.974m-.944-5.332-1.148.812a4.387,4.387,0,0,1,2.067,2.073l.813-1.153a6.646,6.646,0,0,1,1.353-.955A4.544,4.544,0,0,1,58,782.3a6.621,6.621,0,0,1-.946,1.338" transform="translate(-5789 -7150)" fill="#040403"/>
    <path id="Trazado_277812" data-name="Trazado 277812" d="M103.454,814.9a1.04,1.04,0,0,1-.62,1.064,4.153,4.153,0,0,1-.574.212,3.218,3.218,0,0,0-2.2,2.224c-.185.586-.4,1.169-1.152,1.165s-.958-.591-1.144-1.175a3.268,3.268,0,0,0-2.258-2.239,4.1,4.1,0,0,1-.571-.217,1.023,1.023,0,0,1,.006-1.843c.231-.107.477-.179.717-.264a3.206,3.206,0,0,0,2.056-2.051,6.989,6.989,0,0,1,.3-.76.949.949,0,0,1,.907-.553,1,1,0,0,1,.885.513.518.518,0,0,1,.064.137,3.826,3.826,0,0,0,2.93,2.948.881.881,0,0,1,.662.839m-5.639-.538-1.015.674a4.452,4.452,0,0,1,2.093,2.089l.672-1.026a5.943,5.943,0,0,1,1.492-1.09,4.524,4.524,0,0,1-2.154-2.135,5.451,5.451,0,0,1-1.088,1.488" transform="translate(-5789 -7150)" fill="#040403"/>
    <path id="Trazado_277813" data-name="Trazado 277813" d="M73.337,820.074a.705.705,0,0,1-.7.658,9.364,9.364,0,0,1-1.073.016c-.241-.008-.336.072-.325.32a8.5,8.5,0,0,1-.006,1.022.762.762,0,1,1-1.524-.008,4.953,4.953,0,0,1,0-.817c.038-.386-.07-.578-.5-.518a4.085,4.085,0,0,1-.664,0c-.614-.016-.947-.286-.951-.764s.332-.763.937-.775c.273-.005.547-.015.819,0s.369-.069.354-.344a8.516,8.516,0,0,1,.006-1.023.755.755,0,0,1,1.507-.047,6.848,6.848,0,0,1,.017,1.072c-.014.276.089.356.352.343a7.588,7.588,0,0,1,1.023.007.759.759,0,0,1,.722.851" transform="translate(-5789 -7150)" fill="#060606"/>
    <path id="Trazado_277814" data-name="Trazado 277814" d="M100.4,784.777a.764.764,0,0,1-.76.792c-.434.038-1.015-.187-1.263.1-.213.248-.043.812-.07,1.235a.754.754,0,0,1-.8.753c-.439-.014-.7-.314-.736-.809-.029-.418.192-.975-.1-1.215-.244-.2-.781-.048-1.188-.066a.772.772,0,1,1,.028-1.536c.4-.02.928.174,1.179-.079s.058-.775.077-1.179a.788.788,0,0,1,.754-.854.8.8,0,0,1,.786.834c.032.418-.192.973.1,1.214.245.2.78.052,1.186.068a.746.746,0,0,1,.8.74" transform="translate(-5789 -7150)" fill="#030303"/>
    <path id="Trazado_277815" data-name="Trazado 277815" d="M71.392,785.172c-.625.572-1.283,1.113-1.87,1.722a17.6,17.6,0,0,0-1.57,22.7,16.776,16.776,0,0,0,3.532,3.582,8.037,8.037,0,0,0-2.759.436,12.79,12.79,0,0,0-2.482,1.482,6.809,6.809,0,0,0-.59-7.041,6.931,6.931,0,0,0-6.439-2.832,6.934,6.934,0,0,0-.046-12.128,6.874,6.874,0,0,0,7.062-9.859,13.882,13.882,0,0,0,2.458,1.465,8.523,8.523,0,0,0,2.7.47" transform="translate(-5789 -7150)" fill="#fb840a"/>
    <path id="Trazado_277816" data-name="Trazado 277816" d="M89.381,814.92l.006.118-.088-.055.082-.063" transform="translate(-5789 -7150)" fill="#fa9537"/>
    <path id="Trazado_277817" data-name="Trazado 277817" d="M79.469,811.473l-2.025.018a.851.851,0,0,0-.881-.817c-.221-.02-.439-.059-.658-.094A11.587,11.587,0,1,1,89.228,801.3a11.314,11.314,0,0,1-8.937,9.183c-.617.155-.771.332-.822.985m7.38-11.526q-.014-1.016-.025-2.031c.58-.279.693-.511.548-1.131a9.805,9.805,0,1,0,.1,4.3c.117-.654-.008-.88-.626-1.139" transform="translate(-5789 -7150)" fill="#fae058"/>
    <path id="Trazado_277818" data-name="Trazado 277818" d="M79.469,811.473c.052-.653.205-.83.822-.985a11.312,11.312,0,0,0,8.937-9.183,11.578,11.578,0,1,0-13.322,9.275c.218.035.437.074.657.094a.85.85,0,0,1,.881.817c-.213.683-.442.818-1.293.693a12.9,12.9,0,0,1-8.828-5.205,13.112,13.112,0,1,1,13.469,4.984c-.768.179-.955.11-1.323-.49" transform="translate(-5789 -7150)" fill="#040301"/>
    <path id="Trazado_277819" data-name="Trazado 277819" d="M57.054,783.639A6.621,6.621,0,0,0,58,782.3a4.544,4.544,0,0,0,2.139,2.115,6.646,6.646,0,0,0-1.353.955,5.582,5.582,0,0,0-1.732-1.732" transform="translate(-5789 -7150)" fill="#f8cf02"/>
    <path id="Trazado_277820" data-name="Trazado 277820" d="M57.054,783.639a5.582,5.582,0,0,1,1.732,1.732l-.813,1.153a4.387,4.387,0,0,0-2.067-2.073l1.148-.812" transform="translate(-5789 -7150)" fill="#f5c200"/>
    <path id="Trazado_277821" data-name="Trazado 277821" d="M97.815,814.366a5.451,5.451,0,0,0,1.088-1.488,4.524,4.524,0,0,0,2.154,2.135,5.943,5.943,0,0,0-1.492,1.09,5.808,5.808,0,0,0-1.75-1.737" transform="translate(-5789 -7150)" fill="#f8cf02"/>
    <path id="Trazado_277822" data-name="Trazado 277822" d="M97.815,814.366a5.808,5.808,0,0,1,1.75,1.737l-.672,1.026A4.452,4.452,0,0,0,96.8,815.04l1.015-.674" transform="translate(-5789 -7150)" fill="#f5c200"/>
    <path id="Trazado_277823" data-name="Trazado 277823" d="M86.824,797.916q.014,1.016.025,2.031a.9.9,0,0,0-.9.876,6.62,6.62,0,0,1-.237.939,8.17,8.17,0,0,1-7.671,5.637c0-.143-.1-.207-.206-.264a7.62,7.62,0,0,1-1.345-.913,9.034,9.034,0,0,1,1.15-14.925c.174-.1.438-.118.505-.375a5.58,5.58,0,0,1,1.857.26,8.127,8.127,0,0,1,5.831,5.851c.152.525.362.919.987.883" transform="translate(-5789 -7150)" fill="#fdd302"/>
    <path id="Trazado_277824" data-name="Trazado 277824" d="M78.045,807.4a8.168,8.168,0,0,0,7.67-5.636,6.636,6.636,0,0,0,.238-.94.9.9,0,0,1,.9-.875c.619.258.743.485.626,1.138a9.807,9.807,0,1,1-.1-4.3c.145.619.032.852-.548,1.13-.626.036-.835-.358-.988-.883a8.124,8.124,0,0,0-5.83-5.851,5.6,5.6,0,0,0-1.857-.26,2.867,2.867,0,0,0-.306-.023,7.959,7.959,0,0,0-7.34,4.537A8.233,8.233,0,0,0,78.045,807.4" transform="translate(-5789 -7150)" fill="#040401"/>
    <path id="Trazado_277825" data-name="Trazado 277825" d="M78.045,807.4A8.233,8.233,0,0,1,70.5,795.435a7.959,7.959,0,0,1,7.34-4.537,2.867,2.867,0,0,1,.306.023c-.068.258-.332.273-.506.375a9.035,9.035,0,0,0-1.149,14.925,7.645,7.645,0,0,0,1.345.914c.11.056.207.12.206.263" transform="translate(-5789 -7150)" fill="#f7c400"/>
  </g>
</svg>
