<svg xmlns="http://www.w3.org/2000/svg" xmlns:xlink="http://www.w3.org/1999/xlink" width="85" height="80.499" viewBox="0 0 85 80.499">
  <defs>
    <clipPath id="clip-path">
      <rect id="Rectángulo_325036" data-name="Rectángulo 325036" width="85" height="80.499" fill="none"/>
    </clipPath>
  </defs>
  <g id="Grupo_261799" data-name="Grupo 261799" transform="translate(-180 -7862.824)">
    <g id="Grupo_260767" data-name="Grupo 260767" transform="translate(180 7862.824)">
      <g id="Grupo_260766" data-name="Grupo 260766" clip-path="url(#clip-path)">
        <path id="Trazado_278600" data-name="Trazado 278600" d="M69.405,1.3C69.57.3,70.215,0,71.152.01q4.185.032,8.371,0C83.294-.006,85,2.1,85,5.449q-.021,18.1-.005,36.2,0,8.824,0,17.648A4.808,4.808,0,0,1,81.9,64.2a5.34,5.34,0,0,1-1.951.251q-12.67.023-25.34.013c-.414,0-.827.03-1.24.046l-.19.182c.141,1.092.3,2.183.42,3.277a29.928,29.928,0,0,0,2.487,9.245,1.206,1.206,0,0,0,1.359.844,7.9,7.9,0,0,1,2.363.031c.472.107,1.2.685,1.177,1-.035.467-.59.954-1.026,1.306-.211.17-.654.062-.992.063q-16.507,0-33.014,0c-.226,0-.453-.006-.678,0-.8.016-1.409-.271-1.548-1.115-.111-.671.751-1.48,1.608-1.521.827-.039,1.666.057,2.483-.039a1.366,1.366,0,0,0,.959-.657A32.259,32.259,0,0,0,31.185,68.3c.128-1.2.274-2.4.412-3.6l-.191-.189-10.181-.094-.249-.164-.47-1.135a1.239,1.239,0,0,1,1.481-1.148c.339.014.678,0,1.018,0q28.436,0,56.873,0c1.5,0,2.571-.762,2.587-2.033.038-3.011-.027-6.023-.051-9.035l-.3-.259c-.374-.021-.749-.06-1.123-.06q-38.489,0-76.977,0c-.374,0-.749.039-1.123.06l-.3.262c-.026,2.668-.062,5.335-.072,8a7.746,7.746,0,0,0,.154,1.671,1.582,1.582,0,0,0,1.714,1.393c3.311-.019,6.622.038,9.931-.024a1.96,1.96,0,0,1,2.144,1.365,2.24,2.24,0,0,1-2.279,1.184c-3.468-.081-6.938-.031-10.407-.072A4.343,4.343,0,0,1,0,60.492Q.011,34.98.009,9.468c0-1.622.025-3.244,0-4.865A4.324,4.324,0,0,1,3.99.066,7.984,7.984,0,0,1,5.119.019q24.1,0,48.2-.019A1.878,1.878,0,0,1,55.4,1.274c-.308.707-.713,1.3-1.586,1.331-.336-.024-.672-.07-1.008-.07q-23.672-.005-47.344,0c-.411,0-.822.058-1.232.089-1.492.335-1.717.659-1.718,2.6q-.005,20.883,0,41.765c0,.326.043.653.069,1.013H6.073V46.582q0-19.242,0-38.483c0-1.816.2-2.015,1.987-2.015h68.7c1.846,0,2.166.317,2.166,2.143q0,19.185,0,38.37v1.375h3.564V42.9q0-18.845,0-37.691c0-1.752-.579-2.426-2.193-2.6l-9.266,0c-.815-.094-1.517-.33-1.628-1.3M50.62,64.687l-.191-.184H34.348l-.187.184a21.948,21.948,0,0,1-.289,3.336c-.762,3.2-1.644,6.379-2.48,9.565a.465.465,0,0,0-.1.053.3.3,0,0,0-.049.082,2.157,2.157,0,0,0,.644.22q10.51.017,21.02-.006c.213,0,.424-.222.637-.34a42.059,42.059,0,0,1-2.925-12.91M76.388,9a3.813,3.813,0,0,0-1.146-.393Q42.5,8.578,9.761,8.59a4.95,4.95,0,0,0-.9.025c-.1.019-.165.25-.245.384-.015.225-.043.45-.043.675q0,18.777,0,37.553c0,.25.031.5.048.757H76.433V46.662q0-17.42,0-34.839c0-.941-.028-1.883-.043-2.824" transform="translate(0 0)" fill="#000101"/>
        <path id="Trazado_278601" data-name="Trazado 278601" d="M11.492,223.473c.374-.021.749-.06,1.123-.06q38.488,0,76.977,0c.374,0,.749.039,1.123.06l.3.259c.024,3.012.09,6.024.051,9.035-.016,1.271-1.087,2.033-2.587,2.033q-28.436,0-56.873,0c-.339,0-.679.012-1.018,0a1.239,1.239,0,0,0-1.481,1.148l-4.046.194a1.959,1.959,0,0,0-2.144-1.365c-3.309.062-6.621,0-9.931.024a1.582,1.582,0,0,1-1.714-1.393,7.746,7.746,0,0,1-.154-1.671c.01-2.668.046-5.335.072-8l.3-.261m35.3,5.556A4.409,4.409,0,0,0,50.8,233.49a4.569,4.569,0,0,0,4.592-4.429,4.364,4.364,0,0,0-4.411-4.219,4.116,4.116,0,0,0-4.192,4.187" transform="translate(-8.602 -172.836)" fill="#7fb3fa"/>
        <path id="Trazado_278602" data-name="Trazado 278602" d="M62.388,6.292c.873-.033,1.278-.624,1.586-1.331l4.266-.2c-.019,1.145.646,1.565,1.683,1.577.748.009,1.5-.014,2.244.005A1.68,1.68,0,0,0,74,4.986l3.977,0c.111.974.813,1.21,1.628,1.3a2.034,2.034,0,0,0,.671.273q3.961.029,7.922,0a2.049,2.049,0,0,0,.673-.271c1.614.175,2.193.849,2.193,2.6q.005,18.846,0,37.691v5.073H87.5V50.284q0-19.185,0-38.37c0-1.826-.32-2.143-2.166-2.143h-68.7c-1.79,0-1.987.2-1.987,2.015q0,19.242,0,38.483v1.418H11.155c-.025-.36-.069-.687-.069-1.013q0-20.883,0-41.766c0-1.938.225-2.262,1.718-2.6a4.5,4.5,0,0,0,1.042.254q23.766.019,47.532,0a4.017,4.017,0,0,0,1.011-.273" transform="translate(-8.574 -3.687)" fill="#64a6f4"/>
        <path id="Trazado_278603" data-name="Trazado 278603" d="M269.329,1.852a1.68,1.68,0,0,1-1.835,1.363c-.748-.019-1.5,0-2.244-.005-1.037-.012-1.7-.432-1.684-1.577.134-.711.581-.941,1.275-.915.97.037,1.944.04,2.914,0a1.332,1.332,0,0,1,1.575,1.134" transform="translate(-203.901 -0.553)" fill="#000101"/>
        <path id="Trazado_278604" data-name="Trazado 278604" d="M92.661,283.807l.249.164-.249-.164" transform="translate(-71.685 -219.56)" fill="#222"/>
        <path id="Trazado_278605" data-name="Trazado 278605" d="M138.732,284.948l.191.189-.191-.189" transform="translate(-107.327 -220.443)" fill="#d6d8d9"/>
        <path id="Trazado_278606" data-name="Trazado 278606" d="M234.927,285.165l.19-.182-.19.182" transform="translate(-181.746 -220.47)" fill="#d6d8d9"/>
        <path id="Trazado_278607" data-name="Trazado 278607" d="M105.679,39.754c.015.941.042,1.883.043,2.824q0,17.42,0,34.839v1.322H37.911c-.017-.256-.048-.506-.048-.757q0-18.777,0-37.553c0-.225.028-.45.043-.675h67.773M48.931,74.544a3.772,3.772,0,0,0,1,.288q21.629.022,43.258,0a4.062,4.062,0,0,0,1.013-.27l1.469-1.107A3.285,3.285,0,0,0,96,72.481q.027-13.524,0-27.047a2.7,2.7,0,0,0-.386-.92l-.73-.729a3.823,3.823,0,0,0-1.143-.389q-21.94-.03-43.881-.006a5.146,5.146,0,0,0-1.14.264l-.823.885a3.5,3.5,0,0,0-.311.987q-.025,13.479,0,26.958a3.275,3.275,0,0,0,.328.972l1.018,1.088" transform="translate(-29.291 -30.755)" fill="#dbedff"/>
        <path id="Trazado_278608" data-name="Trazado 278608" d="M138.67,298.023c.835-3.186,1.718-6.361,2.48-9.565a21.918,21.918,0,0,0,.289-3.336l.187-.183h16.082l.191.184a42.059,42.059,0,0,0,2.925,12.91l-22.153-.009" transform="translate(-107.279 -220.436)" fill="#64a6f4"/>
        <path id="Trazado_278609" data-name="Trazado 278609" d="M105.83,38.328H38.057c.08-.134.143-.365.245-.384a4.95,4.95,0,0,1,.9-.025q32.741,0,65.481.017a3.813,3.813,0,0,1,1.146.393" transform="translate(-29.442 -29.329)" fill="#e6f9ff"/>
        <path id="Trazado_278610" data-name="Trazado 278610" d="M68.265,11.26a4.017,4.017,0,0,1-1.011.273q-23.766.02-47.532,0a4.5,4.5,0,0,1-1.042-.254c.411-.031.822-.089,1.232-.089q23.672-.007,47.344,0c.336,0,.672.046,1.008.07" transform="translate(-14.452 -8.654)" fill="#6cb3ff"/>
        <path id="Trazado_278611" data-name="Trazado 278611" d="M138.164,342.739l22.153.009c-.212.118-.424.34-.637.34q-10.51.027-21.02.006a2.16,2.16,0,0,1-.645-.22.308.308,0,0,1,.049-.082.474.474,0,0,1,.1-.053" transform="translate(-106.773 -265.152)" fill="#6cb3ff"/>
        <path id="Trazado_278612" data-name="Trazado 278612" d="M323.051,11.509a2.05,2.05,0,0,1-.673.271q-3.961.029-7.922,0a2.033,2.033,0,0,1-.671-.273l9.266,0" transform="translate(-242.752 -8.902)" fill="#6cb3ff"/>
        <path id="Trazado_278613" data-name="Trazado 278613" d="M11.739,223.687l-.3.261.3-.261" transform="translate(-8.85 -173.05)" fill="#86bdff"/>
        <path id="Trazado_278614" data-name="Trazado 278614" d="M363.032,223.946l-.3-.259.3.259" transform="translate(-280.618 -173.05)" fill="#86bdff"/>
        <path id="Trazado_278615" data-name="Trazado 278615" d="M151.088,284.939l-.187.184.187-.184" transform="translate(-116.741 -220.436)" fill="#6a96d1"/>
        <path id="Trazado_278616" data-name="Trazado 278616" d="M222.96,285.124l-.191-.184.191.184" transform="translate(-172.34 -220.437)" fill="#6a96d1"/>
        <path id="Trazado_278617" data-name="Trazado 278617" d="M168.633,233.921a4.116,4.116,0,0,1,4.193-4.187,4.364,4.364,0,0,1,4.411,4.219,4.568,4.568,0,0,1-4.592,4.429,4.408,4.408,0,0,1-4.012-4.461m5.911.158c0-1.32-.457-1.825-1.665-1.844a1.638,1.638,0,0,0-1.754,1.7,1.761,1.761,0,0,0,1.712,1.92,1.744,1.744,0,0,0,1.706-1.777" transform="translate(-130.447 -177.728)" fill="#000101"/>
        <path id="Trazado_278618" data-name="Trazado 278618" d="M82.181,57.848,83,56.963q22.538,0,45.075,0a8.683,8.683,0,0,1,1.089.135l.729.729a7.466,7.466,0,0,1,.079.78q-.005,14.081-.019,28.162l-1.469,1.107c-.335-.025-.671-.072-1.006-.072q-21.684-.005-43.368,0c-.3,0-.6.035-.9.054L82.2,86.765q-.009-14.458-.019-28.917M94.07,70.707q.009.181.018.362l.442.014a3.665,3.665,0,0,0,.446.053q15.821,0,31.643-.005a2.64,2.64,0,0,0,.683-.191.169.169,0,0,0,.019-.211v-4.1H94.065v4.078l0,0m0-10.833,0,0V64h33.257V59.855a3.4,3.4,0,0,0-1.049-.378q-15.531-.031-31.062-.013c-.374,0-.747.048-1.12.073Zm0,21.056v4.3h33.254v-4.1a3.136,3.136,0,0,0-1.022-.4q-10.682-.035-21.365-.016c-3.465,0-6.931.027-10.4.042l-.438-.017-.167.011.134.176M93.9,78.147h33.4V73.713H93.9ZM91.5,59.528H84.626V64H91.5Zm.006,7.143H84.663v4.389H91.5ZM91.491,80.8H84.635v4.413h6.856ZM91.3,73.724H84.647v4.449H91.3Z" transform="translate(-63.577 -44.064)"/>
        <path id="Trazado_278619" data-name="Trazado 278619" d="M86.762,193.244c.3-.019.6-.054.9-.054q21.684,0,43.368,0c.335,0,.671.047,1.006.072a4.063,4.063,0,0,1-1.013.27q-21.629.021-43.258,0a3.773,3.773,0,0,1-1-.288" transform="translate(-67.121 -149.455)" fill="#e6f9ff"/>
        <path id="Trazado_278620" data-name="Trazado 278620" d="M131.98,56.177a8.637,8.637,0,0,0-1.089-.135q-22.538-.005-45.075,0a5.125,5.125,0,0,1,1.14-.264q21.941-.02,43.881.005a3.823,3.823,0,0,1,1.143.389" transform="translate(-66.389 -43.147)" fill="#e6f9ff"/>
        <path id="Trazado_278621" data-name="Trazado 278621" d="M293.027,89.721q.011-14.081.019-28.162a7.514,7.514,0,0,0-.079-.78,2.705,2.705,0,0,1,.386.92q.032,13.524,0,27.047a3.282,3.282,0,0,1-.329.975" transform="translate(-226.647 -47.02)" fill="#e6f9ff"/>
        <path id="Trazado_278622" data-name="Trazado 278622" d="M81.077,60.891q.009,14.458.019,28.917a3.277,3.277,0,0,1-.328-.972q-.027-13.479,0-26.958a3.493,3.493,0,0,1,.31-.987" transform="translate(-62.473 -47.107)" fill="#e6f9ff"/>
        <path id="Trazado_278623" data-name="Trazado 278623" d="M183.112,242.626a1.744,1.744,0,0,1-1.706,1.777,1.761,1.761,0,0,1-1.712-1.92,1.638,1.638,0,0,1,1.754-1.7c1.209.018,1.665.524,1.665,1.844" transform="translate(-139.015 -186.275)" fill="#f4dd45"/>
        <rect id="Rectángulo_325031" data-name="Rectángulo 325031" width="33.398" height="4.434" transform="translate(30.328 29.649)" fill="#f4dd45"/>
        <path id="Trazado_278624" data-name="Trazado 278624" d="M167.916,104.008a2.64,2.64,0,0,1-.683.19q-15.822.014-31.643.005a3.613,3.613,0,0,1-.446-.054l-.465-.371V99.7h33.256v4.1c-.025.019-.074.041-.072.056a.851.851,0,0,0,.053.155" transform="translate(-104.191 -77.131)" fill="#f4dd45"/>
        <path id="Trazado_278625" data-name="Trazado 278625" d="M167.933,69.759V73.9H134.676V69.773Z" transform="translate(-104.189 -53.967)" fill="#f4dd45"/>
        <path id="Trazado_278626" data-name="Trazado 278626" d="M167.939,162.421v4.1H134.685v-4.3a.265.265,0,0,0,.033-.187l.438.017a4.183,4.183,0,0,0,1.164.361q15.809.029,31.619.014" transform="translate(-104.196 -125.351)" fill="#f4dd45"/>
        <rect id="Rectángulo_325032" data-name="Rectángulo 325032" width="6.872" height="4.476" transform="translate(21.049 15.464)" fill="#64d465"/>
        <rect id="Rectángulo_325033" data-name="Rectángulo 325033" width="6.842" height="4.389" transform="translate(21.085 22.608)" fill="#64d465"/>
        <rect id="Rectángulo_325034" data-name="Rectángulo 325034" width="6.856" height="4.413" transform="translate(21.057 36.735)" fill="#64d465"/>
        <rect id="Rectángulo_325035" data-name="Rectángulo 325035" width="6.652" height="4.449" transform="translate(21.07 29.66)" fill="#64d465"/>
        <path id="Trazado_278627" data-name="Trazado 278627" d="M167.933,68.413l-33.257.014,0,0q.01-.168.02-.337c.374-.026.747-.073,1.12-.073q15.531-.006,31.062.014a3.39,3.39,0,0,1,1.049.377" transform="translate(-104.189 -52.622)" fill="#ffe848"/>
        <path id="Trazado_278628" data-name="Trazado 278628" d="M169.547,162.322q-15.809,0-31.619-.014a4.183,4.183,0,0,1-1.164-.361c3.465-.015,6.931-.039,10.4-.042q10.683-.01,21.365.016a3.136,3.136,0,0,1,1.022.4" transform="translate(-105.804 -125.251)" fill="#ffe848"/>
        <path id="Trazado_278629" data-name="Trazado 278629" d="M134.679,117.7l.465.372-.442-.014q-.009-.181-.018-.362Z" transform="translate(-104.191 -91.051)" fill="#ffe848"/>
        <path id="Trazado_278630" data-name="Trazado 278630" d="M134.7,117.7q.009.181.018.362-.009-.181-.018-.362" transform="translate(-104.207 -91.052)" fill="#f4dd45"/>
        <path id="Trazado_278631" data-name="Trazado 278631" d="M134.718,68.354q-.01.168-.02.337.01-.168.02-.337" transform="translate(-104.206 -52.88)" fill="#f4dd45"/>
        <path id="Trazado_278632" data-name="Trazado 278632" d="M134.259,162.029a.265.265,0,0,1-.033.187l-.134-.176.167-.011" transform="translate(-103.737 -125.35)" fill="#b6a533"/>
        <path id="Trazado_278633" data-name="Trazado 278633" d="M281.319,118.006a.849.849,0,0,1-.053-.155c0-.014.047-.037.072-.056a.169.169,0,0,1-.019.211" transform="translate(-217.594 -91.129)" fill="#ffe848"/>
      </g>
    </g>
  </g>
</svg>
