<svg xmlns="http://www.w3.org/2000/svg" width="71.869" height="71.87" viewBox="0 0 71.869 71.87">
  <g id="Grupo_261810" data-name="Grupo 261810" transform="translate(5144.962 6100.463)">
    <path id="Trazado_277706" data-name="Trazado 277706" d="M715.907,1085.472a35.934,35.934,0,1,1-35.935-35.935,35.935,35.935,0,0,1,35.935,35.935" transform="translate(-5789 -7150)" fill="#fff"/>
    <path id="Trazado_277707" data-name="Trazado 277707" d="M665.028,1066.525a1.049,1.049,0,0,1,.49-1.453,25.288,25.288,0,0,1,11.422-4.412,3.935,3.935,0,0,0,1.264-.188h3.613c.026.108.115.088.192.095a24.06,24.06,0,0,1,12.184,4.367,24.583,24.583,0,0,1,10.6,17.618,2.053,2.053,0,0,0,.172.967v3.907a6.808,6.808,0,0,0-.26,1.648,24.992,24.992,0,0,1-45.225,10.707,25.061,25.061,0,0,1-.279-28.225,1.009,1.009,0,1,1,1.664,1.034c-.152.249-.31.495-.464.744a22.563,22.563,0,0,0-3.139,15.99,21.942,21.942,0,0,0,6.506,12.495,22.351,22.351,0,0,0,21.464,6.048,22.964,22.964,0,0,0,16.987-28.394,22.708,22.708,0,0,0-10-13.507,22.259,22.259,0,0,0-9.355-3.374,22.716,22.716,0,0,0-9.777.878,24.018,24.018,0,0,0-6.429,3.192,1.044,1.044,0,0,1-1.628-.137" transform="translate(-5789 -7150)" fill="#030303"/>
    <path id="Trazado_277708" data-name="Trazado 277708" d="M665.028,1066.525a1.044,1.044,0,0,0,1.628.137,24.018,24.018,0,0,1,6.429-3.192,22.7,22.7,0,0,1,9.777-.877,22.244,22.244,0,0,1,9.355,3.373,22.708,22.708,0,0,1,10,13.507,22.964,22.964,0,0,1-16.987,28.394,22.351,22.351,0,0,1-21.464-6.048,21.942,21.942,0,0,1-6.506-12.495,22.563,22.563,0,0,1,3.139-15.99c.154-.249.312-.495.464-.744a1.061,1.061,0,0,0-.145-1.564c.4-.466.8-.93,1.19-1.4a1.232,1.232,0,0,1,.425-.39,1.052,1.052,0,0,0,1.1.1c.6-.327.706-.919.289-1.618a5.278,5.278,0,0,0,1.3-1.191m9.146,23.38a21.2,21.2,0,0,0,6.162,14.977,3.573,3.573,0,0,0,6.1-3.124,3.907,3.907,0,0,0-1.112-2.017,13.7,13.7,0,0,1-3.254-5.371,13.989,13.989,0,0,1,1.1-11.351,19.971,19.971,0,0,1,2.531-3.332,3.253,3.253,0,0,0,.783-2.538,3.4,3.4,0,0,0-2.324-3.032,3.446,3.446,0,0,0-3.878.938,20.986,20.986,0,0,0-6.1,14.85m9.115-22.595a3.427,3.427,0,0,0-3.851-3.433,12.683,12.683,0,0,0-3.7,1.158,22.427,22.427,0,0,0-10.246,9.872,3.475,3.475,0,0,0,2.135,5.091,3.419,3.419,0,0,0,3.869-1.656,19.961,19.961,0,0,1,2.524-3.576,13.24,13.24,0,0,1,6.738-4.152,3.351,3.351,0,0,0,2.532-3.3M700.2,1083c0-.065,0-.13,0-.195a4.27,4.27,0,0,0-2.6-4.117,4.214,4.214,0,0,0-4.691.655,4.7,4.7,0,0,0-1.606,3.523,2.51,2.51,0,0,1-2.465,2.416,4.878,4.878,0,0,0-2.364.661,4.26,4.26,0,0,0-2.094,4.434,4.2,4.2,0,0,0,2.862,3.511,6.686,6.686,0,0,0,3.8.048A11.474,11.474,0,0,0,700.2,1083m-34.4,8.023a8.6,8.6,0,0,0,6-2.337,3.459,3.459,0,0,0-4.55-5.211,2.541,2.541,0,0,1-.856.542,1.923,1.923,0,0,1-1.881-.637,3.439,3.439,0,0,0-4.864,4.8,8.112,8.112,0,0,0,6.15,2.845m5.456,3.01a1,1,0,0,0-.984-.947.973.973,0,0,0-.956,1.011.991.991,0,0,0,.995.928,1.025,1.025,0,0,0,.945-.992m19.667-16.881a1,1,0,0,0,.958-.97.973.973,0,0,0-1-.968,1,1,0,0,0-.942.983,1.028,1.028,0,0,0,.981.955m-1.184,24.642a1.018,1.018,0,0,0-.979.955,1,1,0,0,0,.941.985.988.988,0,0,0,1-.971,1.013,1.013,0,0,0-.963-.969m-26.077-8.625a.967.967,0,0,0-.952-.964,1,1,0,0,0-.987.944,1.026,1.026,0,0,0,.991,1,.992.992,0,0,0,.948-.977m33.078.8a.967.967,0,0,0-.959.957,1,1,0,0,0,.948.982,1.03,1.03,0,0,0,.993-.995,1,1,0,0,0-.982-.944m-25.56,8.676a.986.986,0,0,0,.977-.944.961.961,0,0,0-.92-.993.989.989,0,0,0-1.013.96,1.013,1.013,0,0,0,.956.977m19.844-33.6a.962.962,0,0,0-1.924,0,.962.962,0,1,0,1.924,0" transform="translate(-5789 -7150)" fill="#a5b5d3"/>
    <path id="Trazado_277709" data-name="Trazado 277709" d="M663.726,1067.716c.417.7.31,1.291-.289,1.618a1.054,1.054,0,0,1-1.105-.1,1.029,1.029,0,0,1,.922-1.742c.187.029.3.182.472.222" transform="translate(-5789 -7150)" fill="#050506"/>
    <path id="Trazado_277710" data-name="Trazado 277710" d="M674.174,1089.906a20.988,20.988,0,0,1,6.1-14.851,3.448,3.448,0,0,1,3.878-.938,3.4,3.4,0,0,1,2.324,3.032,3.253,3.253,0,0,1-.783,2.538,20.011,20.011,0,0,0-2.531,3.332,13.992,13.992,0,0,0-1.1,11.352,13.7,13.7,0,0,0,3.254,5.37,3.907,3.907,0,0,1,1.112,2.017,3.573,3.573,0,0,1-6.1,3.125,20.87,20.87,0,0,1-5.852-11.332,21.088,21.088,0,0,1-.31-3.645m6.4-12.022c.129-.015.257-.039.386-.045a.886.886,0,0,1,.892.551.918.918,0,0,1-.154,1.041.944.944,0,0,1-1.019.271c-.477-.13-.677-.55-.625-1.258.084-.063.156-.175.041-.218-.1-.036-.122.115-.135.21a18.326,18.326,0,0,0-3.748,11.063c.565-.5,1.082-.533,1.5-.106a.957.957,0,0,1,.019,1.324c-.407.44-.926.412-1.614-.139.082.781.13,1.5.237,2.218a19.066,19.066,0,0,0,5.367,10.71,1.622,1.622,0,1,0,2.319-2.264,17.6,17.6,0,0,1-2.852-3.935c-.277-.544-.516-1.107-.778-1.674-.442.706-.907.9-1.439.631a.982.982,0,0,1-.436-1.256c.237-.524.762-.667,1.5-.4a.954.954,0,0,0-.1-.517,15.889,15.889,0,0,1-.13-7.769c.085-.369.1-.511-.366-.466a.9.9,0,0,1-.974-.929.958.958,0,0,1,.89-.981,1.1,1.1,0,0,1,.959.523c.3-.661.573-1.288.877-1.9a16.759,16.759,0,0,1,2.909-4.013,1.611,1.611,0,0,0-2.269-2.285,11.26,11.26,0,0,0-1.364,1.521c-.035.041-.131.072-.055.139.05.044.12.018.16-.047" transform="translate(-5789 -7150)" fill="#020302"/>
    <path id="Trazado_277711" data-name="Trazado 277711" d="M683.289,1067.31a3.351,3.351,0,0,1-2.532,3.3,13.25,13.25,0,0,0-6.738,4.152,20.006,20.006,0,0,0-2.523,3.577,3.419,3.419,0,0,1-3.87,1.655,3.475,3.475,0,0,1-2.135-5.091,22.432,22.432,0,0,1,10.246-9.872,12.678,12.678,0,0,1,3.7-1.157,3.426,3.426,0,0,1,3.851,3.432m-6.256-.7a19.538,19.538,0,0,0-8.31,6.792c.78.135,1.131.412,1.166.93a.965.965,0,0,1-1.213,1.01c-.386-.095-.556-.4-.764-.753-.274.492-.523.928-.76,1.37a1.393,1.393,0,0,0-.143.992,1.549,1.549,0,0,0,1.218,1.191,1.467,1.467,0,0,0,1.569-.749,20.515,20.515,0,0,1,3.417-4.609c.065-.066.157-.129.1-.247-.64-.18-.918-.5-.892-1.035a.929.929,0,0,1,.769-.878.975.975,0,0,1,.856.244c.24.213.241.534.347.854a15.3,15.3,0,0,1,2.583-1.753,14.368,14.368,0,0,1,3.228-1.217,1.458,1.458,0,0,0,1.131-1.417,1.52,1.52,0,0,0-.97-1.442,2.542,2.542,0,0,0-1.741.179c.424.606.48.957.2,1.352a.887.887,0,0,1-1.011.4c-.5-.129-.711-.433-.779-1.212" transform="translate(-5789 -7150)" fill="#020302"/>
    <path id="Trazado_277712" data-name="Trazado 277712" d="M700.2,1083a11.474,11.474,0,0,1-9.156,10.936,6.689,6.689,0,0,1-3.8-.048,4.2,4.2,0,0,1-2.862-3.511,4.263,4.263,0,0,1,2.094-4.434,4.9,4.9,0,0,1,2.365-.661,2.511,2.511,0,0,0,2.465-2.416,4.7,4.7,0,0,1,1.606-3.523,4.214,4.214,0,0,1,4.691-.654,4.269,4.269,0,0,1,2.6,4.116V1083m-1.964.035a2.478,2.478,0,0,0-1.228-2.469,2.379,2.379,0,0,0-2.544.042,2.811,2.811,0,0,0-1.222,2.461,4.4,4.4,0,0,1-2.282,3.584,6.743,6.743,0,0,1-2.622.655,2.4,2.4,0,0,0-2.059,2.31,2.431,2.431,0,0,0,1.828,2.505,4.773,4.773,0,0,0,1.886,0,9.481,9.481,0,0,0,8.243-9.089" transform="translate(-5789 -7150)" fill="#020303"/>
    <path id="Trazado_277713" data-name="Trazado 277713" d="M665.8,1091.024a8.119,8.119,0,0,1-6.15-2.846,3.44,3.44,0,0,1,4.866-4.8,1.919,1.919,0,0,0,1.88.638,2.566,2.566,0,0,0,.857-.543,3.459,3.459,0,0,1,4.548,5.212,8.6,8.6,0,0,1-6,2.337m.148-1.951a6.586,6.586,0,0,0,4.574-1.866,1.509,1.509,0,0,0-2-2.261,7.348,7.348,0,0,1-.776.586,3.6,3.6,0,0,1-4.352-.552,1.477,1.477,0,0,0-2.171.122,1.512,1.512,0,0,0,.181,2.141,6.6,6.6,0,0,0,4.544,1.83" transform="translate(-5789 -7150)" fill="#020302"/>
    <path id="Trazado_277714" data-name="Trazado 277714" d="M671.254,1094.033a1.026,1.026,0,0,1-.944.993.994.994,0,0,1-1-.929.973.973,0,0,1,.956-1.01,1,1,0,0,1,.984.946" transform="translate(-5789 -7150)" fill="#050707"/>
    <path id="Trazado_277715" data-name="Trazado 277715" d="M690.921,1077.152a1.027,1.027,0,0,1-.981-.955,1,1,0,0,1,.942-.983.973.973,0,0,1,1,.968,1,1,0,0,1-.958.97" transform="translate(-5789 -7150)" fill="#050707"/>
    <path id="Trazado_277716" data-name="Trazado 277716" d="M689.737,1101.794a1.013,1.013,0,0,1,.963.969.989.989,0,0,1-1,.972,1,1,0,0,1-.941-.986,1.018,1.018,0,0,1,.979-.955" transform="translate(-5789 -7150)" fill="#050707"/>
    <path id="Trazado_277717" data-name="Trazado 277717" d="M663.66,1093.169a.991.991,0,0,1-.948.977,1.027,1.027,0,0,1-.991-1,1,1,0,0,1,.987-.943.964.964,0,0,1,.952.963" transform="translate(-5789 -7150)" fill="#050606"/>
    <path id="Trazado_277718" data-name="Trazado 277718" d="M696.738,1093.964a1,1,0,0,1,.982.944,1.03,1.03,0,0,1-.993.995,1,1,0,0,1-.948-.982.969.969,0,0,1,.959-.957" transform="translate(-5789 -7150)" fill="#050606"/>
    <path id="Trazado_277719" data-name="Trazado 277719" d="M671.178,1102.641a1.013,1.013,0,0,1-.956-.978.989.989,0,0,1,1.013-.96.961.961,0,0,1,.92.994.986.986,0,0,1-.977.944" transform="translate(-5789 -7150)" fill="#050506"/>
    <path id="Trazado_277720" data-name="Trazado 277720" d="M691.022,1069.041a.962.962,0,1,1-.96-.956.971.971,0,0,1,.96.956" transform="translate(-5789 -7150)" fill="#050506"/>
    <path id="Trazado_277721" data-name="Trazado 277721" d="M680.054,1078.444c-.052.708.148,1.129.626,1.259a.947.947,0,0,0,1.019-.272.918.918,0,0,0,.153-1.042.885.885,0,0,0-.892-.549c-.129.005-.257.028-.386.044l-.106-.091a11.288,11.288,0,0,1,1.365-1.522,1.611,1.611,0,0,1,2.269,2.285,16.765,16.765,0,0,0-2.909,4.013c-.3.609-.572,1.236-.876,1.9a1.1,1.1,0,0,0-.959-.522.958.958,0,0,0-.891.98.907.907,0,0,0,.975.93c.464-.047.45.095.365.465a15.881,15.881,0,0,0,.131,7.77.948.948,0,0,1,.1.515c-.735-.263-1.26-.121-1.5.405a.982.982,0,0,0,.436,1.255c.532.274,1,.075,1.439-.631.262.566.5,1.13.778,1.674a17.612,17.612,0,0,0,2.853,3.935,1.622,1.622,0,1,1-2.32,2.263,19.063,19.063,0,0,1-5.367-10.708c-.106-.715-.155-1.438-.236-2.219.688.552,1.207.578,1.613.138a.956.956,0,0,0-.018-1.323c-.419-.427-.936-.39-1.5.107a18.324,18.324,0,0,1,3.747-11.064c.031,0,.063,0,.094.008m-.107,22.03a.949.949,0,0,0,.891,1.013.979.979,0,0,0,1.032-.935,1.006,1.006,0,0,0-.93-1,.971.971,0,0,0-.993.918" transform="translate(-5789 -7150)" fill="#35cf8d"/>
    <path id="Trazado_277722" data-name="Trazado 277722" d="M680.054,1078.444c-.031,0-.063-.006-.094-.008.013-.1.038-.246.135-.209.115.042.043.154-.041.217" transform="translate(-5789 -7150)" fill="#010403"/>
    <path id="Trazado_277723" data-name="Trazado 277723" d="M680.574,1077.884c-.04.065-.11.091-.16.047-.076-.067.02-.1.054-.139l.106.092" transform="translate(-5789 -7150)" fill="#35cf8d"/>
    <path id="Trazado_277724" data-name="Trazado 277724" d="M677.033,1066.606c.068.779.275,1.083.779,1.212a.887.887,0,0,0,1.011-.4c.279-.4.223-.746-.2-1.352a2.542,2.542,0,0,1,1.741-.179,1.52,1.52,0,0,1,.97,1.442,1.458,1.458,0,0,1-1.131,1.417,14.368,14.368,0,0,0-3.228,1.217,15.3,15.3,0,0,0-2.583,1.753c-.106-.32-.107-.641-.347-.854a.975.975,0,0,0-.856-.244.929.929,0,0,0-.769.878c-.026.532.252.855.892,1.035.059.118-.033.181-.1.247a20.515,20.515,0,0,0-3.417,4.609,1.467,1.467,0,0,1-1.569.749,1.549,1.549,0,0,1-1.218-1.191,1.393,1.393,0,0,1,.143-.992c.237-.442.486-.878.76-1.37.208.349.378.658.764.753a.965.965,0,0,0,1.213-1.01c-.035-.518-.386-.8-1.166-.93a19.538,19.538,0,0,1,8.31-6.792" transform="translate(-5789 -7150)" fill="#35ce8d"/>
    <path id="Trazado_277725" data-name="Trazado 277725" d="M698.231,1083.035a9.48,9.48,0,0,1-8.242,9.089,4.758,4.758,0,0,1-1.887,0,2.431,2.431,0,0,1-1.828-2.505,2.4,2.4,0,0,1,2.059-2.31,6.719,6.719,0,0,0,2.622-.655,4.4,4.4,0,0,0,2.283-3.584,2.81,2.81,0,0,1,1.222-2.461,2.379,2.379,0,0,1,2.544-.042,2.476,2.476,0,0,1,1.227,2.469m-3.322,4.88a.98.98,0,0,0-.95-.97.972.972,0,1,0,0,1.943.977.977,0,0,0,.946-.973m-5.06,1.391a.954.954,0,1,0-.97.95.956.956,0,0,0,.97-.95m5.041-6.392a.944.944,0,0,0,.978.931.955.955,0,1,0-.045-1.909.942.942,0,0,0-.933.978" transform="translate(-5789 -7150)" fill="#35cf8d"/>
    <path id="Trazado_277726" data-name="Trazado 277726" d="M665.944,1089.073a6.6,6.6,0,0,1-4.542-1.83,1.512,1.512,0,0,1-.181-2.141,1.475,1.475,0,0,1,2.169-.122,3.6,3.6,0,0,0,4.354.552,7.676,7.676,0,0,0,.776-.586,1.512,1.512,0,0,1,2.139.151,1.527,1.527,0,0,1-.139,2.11,6.592,6.592,0,0,1-4.576,1.866m-2.187-2.514a.99.99,0,0,0-.962-.96,1.017,1.017,0,0,0-.97,1.011.986.986,0,0,0,1,.922.954.954,0,0,0,.934-.973m6.621-.11a.969.969,0,1,0-1.938.024.969.969,0,0,0,1.938-.024" transform="translate(-5789 -7150)" fill="#35cd8c"/>
    <path id="Trazado_277727" data-name="Trazado 277727" d="M679.947,1100.474a.971.971,0,0,1,.993-.918,1.006,1.006,0,0,1,.93,1,.979.979,0,0,1-1.032.935.949.949,0,0,1-.891-1.013" transform="translate(-5789 -7150)" fill="#010504"/>
    <path id="Trazado_277728" data-name="Trazado 277728" d="M694.909,1087.915a.977.977,0,0,1-.946.973.972.972,0,1,1,0-1.943.981.981,0,0,1,.95.97" transform="translate(-5789 -7150)" fill="#010504"/>
    <path id="Trazado_277729" data-name="Trazado 277729" d="M689.849,1089.306a.954.954,0,1,1-1.908-.035.954.954,0,1,1,1.908.035" transform="translate(-5789 -7150)" fill="#010504"/>
    <path id="Trazado_277730" data-name="Trazado 277730" d="M694.89,1082.914a.958.958,0,0,1,1.915-.047.954.954,0,0,1-.937.978.944.944,0,0,1-.978-.931" transform="translate(-5789 -7150)" fill="#010403"/>
    <path id="Trazado_277731" data-name="Trazado 277731" d="M663.757,1086.559a.956.956,0,0,1-.934.974.987.987,0,0,1-1-.922,1.017,1.017,0,0,1,.97-1.012.991.991,0,0,1,.962.96" transform="translate(-5789 -7150)" fill="#010504"/>
    <path id="Trazado_277732" data-name="Trazado 277732" d="M670.378,1086.449a.969.969,0,0,1-1.938.024.969.969,0,1,1,1.938-.024" transform="translate(-5789 -7150)" fill="#010504"/>
  </g>
</svg>
