<svg xmlns="http://www.w3.org/2000/svg" width="71.869" height="71.87" viewBox="0 0 71.869 71.87">
  <g id="Grupo_261811" data-name="Grupo 261811" transform="translate(5144.962 5822.21)">
    <path id="Trazado_277738" data-name="Trazado 277738" d="M715.907,1363.725a35.934,35.934,0,1,1-35.935-35.935,35.935,35.935,0,0,1,35.935,35.935" transform="translate(-5789 -7150)" fill="#fff"/>
    <path id="Trazado_277743" data-name="Trazado 277743" d="M654.973,1387.657c.183-.07.158-.255.207-.392.736-2.042,1.4-4.114,2.212-6.124a8.118,8.118,0,0,1,6.936-5.3,7.873,7.873,0,0,0,5.019-2.507c.209-.225.191-.34.008-.55a7.771,7.771,0,0,1-.629-.866c-.35-.535-.32-.772.125-1.236a.881.881,0,0,1,1.13.468,6.856,6.856,0,0,0,1.772,1.961,2.465,2.465,0,0,0,.208.2,8.715,8.715,0,0,0,11.593-.807q7.14-7.115,14.258-14.251a8.714,8.714,0,0,0,2.714-5.923,8.312,8.312,0,0,0-2-5.991h0l-.094-.11a1.933,1.933,0,0,0-.139-.194,8.722,8.722,0,0,0-12.519-.459c-1.981,1.931-3.917,3.905-5.873,5.862-2.91,2.909-5.831,5.81-8.726,8.735a8.563,8.563,0,0,0-2.489,7.621.891.891,0,0,1-.536,1.1c-.7-.067-.9-.249-.948-1.141-.026-.5-.213-.586-.648-.558-.551.036-1.106.018-1.659.006a.755.755,0,0,1-.831-.71c-.015-.426.317-.739.837-.751q.927-.021,1.854,0c.252.005.383-.046.408-.335a9.846,9.846,0,0,1,2.18-5.381c.169-.211.108-.316-.052-.469q-.651-.625-1.28-1.274a.738.738,0,0,1-.085-1.119.755.755,0,0,1,1.121.089q.646.63,1.275,1.278c.148.153.242.189.417.01q1.7-1.722,3.417-3.418c.172-.17.16-.265-.009-.424-.437-.414-.86-.843-1.279-1.276-.384-.4-.407-.791-.084-1.117a.747.747,0,0,1,1.118.08c.421.408.84.819,1.242,1.244.177.187.283.23.49.019q1.656-1.694,3.346-3.351c.2-.194.207-.3,0-.494-.43-.4-.837-.819-1.246-1.239a.742.742,0,0,1-.1-1.116.729.729,0,0,1,1.115.071c.42.407.838.819,1.241,1.243.172.181.279.248.493.028q1.674-1.707,3.382-3.383c.2-.2.135-.3-.024-.451-.421-.407-.835-.823-1.244-1.243a.763.763,0,0,1-.11-1.119c.325-.34.738-.314,1.152.091.431.42.861.842,1.275,1.28.16.168.264.166.44.021a9.825,9.825,0,0,1,5.456-2.241c.259-.023.273-.157.271-.355-.007-.52.024-1.043-.01-1.561a1.265,1.265,0,0,1,.418-1.108h.586a1.105,1.105,0,0,1,.477,1.037c-.029.535.006,1.073-.012,1.61-.008.265.062.358.344.386a9.741,9.741,0,0,1,5.283,2.166c.266.213.4.2.615-.037.394-.433.817-.841,1.239-1.246a.731.731,0,1,1,1.041,1.018c-.427.448-.862.888-1.313,1.31-.2.187-.188.3-.02.506a9.86,9.86,0,0,1,2.208,5.369c.026.274.139.312.367.308.586-.011,1.172-.009,1.757,0,.568.007.9.287.9.739s-.328.722-.9.726-1.139.013-1.708,0c-.275-.009-.391.048-.422.36a9.622,9.622,0,0,1-2.082,5.168c-.3.373-.263.565.073.849.383.326.723.7,1.075,1.065.405.416.437.825.1,1.153-.317.31-.751.263-1.155-.134s-.835-.821-1.239-1.245c-.16-.168-.253-.162-.418.006q-1.679,1.7-3.384,3.382c-.214.209-.165.316.022.491.426.4.836.821,1.244,1.241a.733.733,0,0,1,.074,1.116.742.742,0,0,1-1.116-.093c-.431-.42-.86-.842-1.274-1.279-.162-.172-.255-.17-.422,0q-1.7,1.719-3.417,3.416c-.188.184-.134.275.014.42.431.422.859.845,1.278,1.277a.749.749,0,0,1,.078,1.119c-.323.319-.724.294-1.117-.087-.432-.419-.862-.842-1.274-1.28-.164-.174-.258-.17-.423,0q-1.7,1.72-3.419,3.417c-.183.18-.133.272.015.416q.647.63,1.277,1.276a.757.757,0,0,1,.084,1.122.746.746,0,0,1-1.12-.091c-.43-.421-.857-.846-1.273-1.28-.157-.164-.267-.207-.47-.044a9.848,9.848,0,0,1-5.381,2.177c-.288.024-.34.156-.334.408.014.6.01,1.2,0,1.806-.007.539-.275.869-.7.884-.442.018-.751-.33-.761-.881-.01-.6-.013-1.2,0-1.807.007-.271-.045-.4-.36-.429a9.734,9.734,0,0,1-5.19-2.147c-.26-.209-.4-.218-.622.03a9.406,9.406,0,0,1-6.081,2.934,6.5,6.5,0,0,0-5.453,4.251c-.854,2.119-1.56,4.3-2.326,6.452a1,1,0,0,1-.4.592c-.38.225-.723.1-1.1-.385Z" transform="translate(-5789 -7150)" fill="#040404"/>
    <path id="Trazado_277744" data-name="Trazado 277744" d="M671.753,1373.108a6.845,6.845,0,0,1-1.772-1.962.881.881,0,0,0-1.13-.467,14.348,14.348,0,0,1-.7-1.79.892.892,0,0,0,.536-1.1,8.563,8.563,0,0,1,2.489-7.621c2.895-2.925,5.816-5.825,8.726-8.736,1.956-1.955,3.893-3.93,5.873-5.86a8.723,8.723,0,0,1,12.519.457,2.1,2.1,0,0,1,.139.2c.032.036.063.073.1.11h0a4.606,4.606,0,0,0,.264,1.121,8.553,8.553,0,0,1,.052,3.862,7.064,7.064,0,0,0-9.166-6.159,8.9,8.9,0,0,0-3.747,2.626.859.859,0,0,0-.167,1.176l-1.312,1.384c-.58-.33-.769-.3-1.274.2q-5.16,5.162-10.318,10.324c-.322.323-.654.638-.944.988a6.754,6.754,0,0,0-1.551,5.69,6.976,6.976,0,0,0,6.19,5.864c-.114.058-.229.165-.343.164a23.169,23.169,0,0,1-2.526-.041c-.662-.08-1.279-.339-1.935-.428" transform="translate(-5789 -7150)" fill="#dcf2f9"/>
    <path id="Trazado_277745" data-name="Trazado 277745" d="M698.846,1351.316a8.567,8.567,0,0,0-.052-3.862,4.611,4.611,0,0,1-.265-1.121,8.31,8.31,0,0,1,2,5.991,8.717,8.717,0,0,1-2.715,5.924q-7.138,7.114-14.257,14.251a8.716,8.716,0,0,1-11.594.807,2.774,2.774,0,0,1-.207-.2c.656.089,1.272.348,1.934.428a23.173,23.173,0,0,0,2.526.041c.114,0,.229-.106.344-.164a7.069,7.069,0,0,0,5.692-2c.746-.725,1.466-1.476,2.211-2.2a.84.84,0,0,0,.159-1.175l1.332-1.374c.553.315.763.287,1.236-.186,3.035-3.034,6.04-6.1,9.113-9.092a7.545,7.545,0,0,0,2.546-6.069" transform="translate(-5789 -7150)" fill="#c5ecfa"/>
    <path id="Trazado_277746" data-name="Trazado 277746" d="M698.53,1346.333l-.094-.11.094.11" transform="translate(-5789 -7150)" fill="#c5ecfa"/>
    <path id="Trazado_277747" data-name="Trazado 277747" d="M684.453,1350.343q.656-.692,1.312-1.384c.554.326.771.3,1.237-.158.383-.375.753-.764,1.15-1.122a5.541,5.541,0,0,1,7.641.331c.008.082.021.159.126.167l-.006-.01a3.631,3.631,0,0,0,.008.533,5.974,5.974,0,0,1-1.579,5.361q-7.374,7.474-14.842,14.857a5.843,5.843,0,0,1-3.7,1.659,17.485,17.485,0,0,1-2.269-.118l.005,0-.1-.091a2.268,2.268,0,0,1-.532-.561,5.576,5.576,0,0,1,.591-7.489q5.358-5.377,10.732-10.738c.492-.493.518-.648.232-1.241m2.79,9.547a2.262,2.262,0,0,0-2.588-2.259,35.61,35.61,0,0,0-3.574.928,2.3,2.3,0,0,0,1.084,4.435c1.2-.253,2.4-.573,3.573-.935a2.2,2.2,0,0,0,1.505-2.169m4.935-5.256a3.1,3.1,0,1,0-3.119-3.083,3.114,3.114,0,0,0,3.119,3.083m-6.351.1a2.206,2.206,0,0,0,.659,1.559.725.725,0,0,0,1.008.057.663.663,0,0,0,.116-.959.976.976,0,0,1-.015-1.394.688.688,0,0,0-.118-.995.733.733,0,0,0-1.008.089,2.284,2.284,0,0,0-.642,1.643m-4.668,11.179a2.222,2.222,0,0,0-.606-1.6.728.728,0,1,0-1.125.922.918.918,0,0,1,.008,1.272.715.715,0,0,0,.071,1.041.726.726,0,0,0,1.072-.138,2.16,2.16,0,0,0,.58-1.5m-3.828-2.2a.731.731,0,0,0-.772-.707.724.724,0,1,0,.08,1.446.73.73,0,0,0,.692-.739m13.19-6.481a.731.731,0,1,0-1.46.047.731.731,0,0,0,1.46-.047M677,1367.677a.721.721,0,0,0-.686-.74.706.706,0,0,0-.764.7.737.737,0,0,0,.726.754.754.754,0,0,0,.724-.717" transform="translate(-5789 -7150)" fill="#61d9f8"/>
    <path id="Trazado_277748" data-name="Trazado 277748" d="M684.453,1350.343c.286.592.26.747-.232,1.24q-5.366,5.37-10.732,10.738a5.576,5.576,0,0,0-.591,7.489,2.272,2.272,0,0,0,.532.562l.1.09-.005,0a4.506,4.506,0,0,0,.348.331,5.539,5.539,0,0,0,7.225-.324c.784-.729,1.522-1.508,2.283-2.262.466-.462.683-.489,1.235-.166a.841.841,0,0,1-.159,1.175c-.745.725-1.465,1.476-2.211,2.2a7.068,7.068,0,0,1-5.693,2,6.975,6.975,0,0,1-6.189-5.864,6.753,6.753,0,0,1,1.55-5.691c.291-.349.622-.665.944-.987q5.157-5.164,10.318-10.324c.506-.506.694-.534,1.274-.2" transform="translate(-5789 -7150)" fill="#040607"/>
    <path id="Trazado_277749" data-name="Trazado 277749" d="M695.794,1348.01a5.542,5.542,0,0,0-7.641-.331c-.4.358-.768.747-1.15,1.122-.466.456-.684.484-1.237.158a.859.859,0,0,1,.167-1.176,8.9,8.9,0,0,1,3.747-2.626,7.064,7.064,0,0,1,9.166,6.159,7.546,7.546,0,0,1-2.545,6.07c-3.074,2.993-6.078,6.057-9.113,9.091-.473.473-.683.5-1.237.186-.306-.577-.28-.745.209-1.234q4.719-4.723,9.443-9.444a5.563,5.563,0,0,0,1.774-4.031,5.081,5.081,0,0,0-1.464-3.787l.007.01a.176.176,0,0,0-.126-.167" transform="translate(-5789 -7150)" fill="#030606"/>
    <path id="Trazado_277750" data-name="Trazado 277750" d="M695.913,1348.166a5.087,5.087,0,0,1,1.464,3.787,5.563,5.563,0,0,1-1.774,4.031q-4.73,4.716-9.444,9.444c-.488.489-.514.657-.208,1.234l-1.332,1.375c-.552-.324-.769-.3-1.235.166-.761.754-1.5,1.533-2.283,2.261a5.536,5.536,0,0,1-7.224.324,4.148,4.148,0,0,1-.348-.33,17.47,17.47,0,0,0,2.268.118,5.843,5.843,0,0,0,3.7-1.659q7.449-7.4,14.842-14.856a5.976,5.976,0,0,0,1.578-5.362,3.771,3.771,0,0,1-.008-.533" transform="translate(-5789 -7150)" fill="#02cff9"/>
    <path id="Trazado_277751" data-name="Trazado 277751" d="M687.243,1359.889a2.2,2.2,0,0,1-1.5,2.169c-1.176.363-2.37.682-3.573.935a2.3,2.3,0,0,1-1.084-4.434,34.959,34.959,0,0,1,3.574-.928,2.261,2.261,0,0,1,2.587,2.258m-5.2,1.666c1.017-.279,2.165-.559,3.287-.918a.828.828,0,0,0-.442-1.558c-1.12.249-2.232.541-3.332.868a.759.759,0,0,0-.492.947.9.9,0,0,0,.979.661" transform="translate(-5789 -7150)" fill="#030403"/>
    <path id="Trazado_277752" data-name="Trazado 277752" d="M692.178,1354.633a3.1,3.1,0,1,1,3.08-3.121,3.116,3.116,0,0,1-3.08,3.121m.787-4.492a1.6,1.6,0,0,0-1.986.259,1.651,1.651,0,0,0,1.476,2.742,1.629,1.629,0,0,0,1.306-1.335,1.535,1.535,0,0,0-.8-1.666" transform="translate(-5789 -7150)" fill="#020304"/>
    <path id="Trazado_277753" data-name="Trazado 277753" d="M685.827,1354.732a2.288,2.288,0,0,1,.642-1.643.733.733,0,0,1,1.008-.089.686.686,0,0,1,.118.995.977.977,0,0,0,.015,1.394.661.661,0,0,1-.116.959.724.724,0,0,1-1.007-.057,2.207,2.207,0,0,1-.66-1.559" transform="translate(-5789 -7150)" fill="#020405"/>
    <path id="Trazado_277754" data-name="Trazado 277754" d="M681.159,1365.91a2.165,2.165,0,0,1-.58,1.5.725.725,0,0,1-1.072.138.713.713,0,0,1-.072-1.04.917.917,0,0,0-.008-1.273.728.728,0,1,1,1.125-.922,2.224,2.224,0,0,1,.607,1.6" transform="translate(-5789 -7150)" fill="#020405"/>
    <path id="Trazado_277755" data-name="Trazado 277755" d="M677.332,1363.707a.731.731,0,0,1-.692.739.724.724,0,1,1-.08-1.446.732.732,0,0,1,.772.707" transform="translate(-5789 -7150)" fill="#030606"/>
    <path id="Trazado_277756" data-name="Trazado 277756" d="M690.521,1357.226a.731.731,0,0,1-1.46.047.731.731,0,1,1,1.46-.047" transform="translate(-5789 -7150)" fill="#030708"/>
    <path id="Trazado_277757" data-name="Trazado 277757" d="M677,1367.677a.754.754,0,0,1-.724.717.737.737,0,0,1-.726-.754.706.706,0,0,1,.764-.7.721.721,0,0,1,.686.74" transform="translate(-5789 -7150)" fill="#030606"/>
    <path id="Trazado_277758" data-name="Trazado 277758" d="M695.794,1348.01a.176.176,0,0,1,.126.167c-.106-.008-.119-.085-.126-.167" transform="translate(-5789 -7150)" fill="#02cff9"/>
    <path id="Trazado_277759" data-name="Trazado 277759" d="M673.533,1370.463l-.1-.091.1.091" transform="translate(-5789 -7150)" fill="#02cff9"/>
    <path id="Trazado_277760" data-name="Trazado 277760" d="M682.041,1361.555a.9.9,0,0,1-.979-.661.759.759,0,0,1,.492-.947c1.1-.327,2.212-.619,3.332-.868a.828.828,0,0,1,.442,1.558c-1.122.359-2.27.639-3.287.918" transform="translate(-5789 -7150)" fill="#f9dc74"/>
    <path id="Trazado_277761" data-name="Trazado 277761" d="M690.806,1352.393a1.569,1.569,0,0,1,.173-1.993,1.6,1.6,0,0,1,1.986-.259,1.82,1.82,0,0,1-.124.753,2.454,2.454,0,0,1-2.035,1.5" transform="translate(-5789 -7150)" fill="#f990cf"/>
    <path id="Trazado_277762" data-name="Trazado 277762" d="M690.806,1352.393a2.454,2.454,0,0,0,2.035-1.5,1.82,1.82,0,0,0,.124-.753,1.534,1.534,0,0,1,.8,1.666,1.629,1.629,0,0,1-1.306,1.335,1.577,1.577,0,0,1-1.649-.749" transform="translate(-5789 -7150)" fill="#f971c1"/>
  </g>
</svg>
