<svg xmlns="http://www.w3.org/2000/svg" width="126" height="126" viewBox="0 0 126 126">
  <g id="Grupo_1071224" data-name="Grupo 1071224" transform="translate(5670 11096)">
    <circle id="Elipse_4307" data-name="Elipse 4307" cx="63" cy="63" r="63" transform="translate(-5670 -11096)" fill="#1b3f5e"/>
    <g id="Grupo_1070894" data-name="Grupo 1070894" transform="translate(-171.738 9.732)">
      <g id="Grupo_254613" data-name="Grupo 254613" transform="translate(-5478.262 -11088.732)">
        <path id="Trazado_272522" data-name="Trazado 272522" d="M318.881,156.521a8.231,8.231,0,0,1-1.784-2.085q-6.82-9.62-13.633-19.246c-1.129-1.6-.959-2.59.635-3.72q4.608-3.267,9.223-6.526c.262-.184.479-.474.851-.467.537,1.115,1.445,1.983,2.027,3.068-1.96,1.339-3.925,2.67-5.877,4.018-1.418.979-1.63,2.037-.652,3.451,1.349,1.951,2.736,3.877,4.111,5.81,2.263,3.181,4.559,6.34,6.782,9.55a29.405,29.405,0,0,1,2.692,4.032,25.368,25.368,0,0,1-2.926,2.116Z" transform="translate(-302.738 -63.806)" fill="#0194fc"/>
        <path id="Trazado_272523" data-name="Trazado 272523" d="M357.724,108.585c2.789.2,5.525.784,8.289,1.167,3.476.481,6.935,1.086,10.409,1.58,2.934.417,4.905,2.458,4.808,5.137a4.134,4.134,0,0,1-.689,2.3,27.462,27.462,0,0,0-3.571-.355c-1.605-.185-3.222-.275-4.833-.421-1.728-.156-3.451-.365-5.181-.482a1.372,1.372,0,0,0-1.651,1.258c-.064,1.007.385,1.513,1.478,1.625,1.459.149,2.918.354,4.381.4,2.554.071,5.121,1.157,7.666-.049a.847.847,0,0,0,.918.894c1.585.024,3.136.442,4.725.385a3.268,3.268,0,0,0,3.013-.362c.875-.583,1.754-1.165,2.59-1.8a51.419,51.419,0,0,0,4.2-3.084,11.073,11.073,0,0,0,1.854-1.207c1.733-1.066,3.165-2.679,5.338-2.948,2.895.151,4.862,2.032,4.75,4.605a4.168,4.168,0,0,1-1.626,3.393c-4.251,3-8.4,6.154-12.823,8.91a11.335,11.335,0,0,1-5.995,1.734c-5.217.025-10.435.046-15.651-.048-2.074-.038-4.136-.148-6.215.011a28.915,28.915,0,0,0-7.041,1.433c-.313.1-.636.178-.955.267a1.885,1.885,0,0,0-.562-1.2c-2.534-3.573-5.1-7.12-7.607-10.714a4.088,4.088,0,0,1,1.176-5.919c2.818-1.939,5.622-3.9,8.444-5.834a.755.755,0,0,0,.359-.668" transform="translate(-319.647 -57.727)" fill="#fdd1a4"/>
        <path id="Trazado_272524" data-name="Trazado 272524" d="M391.561,59.816c7.414.828,11.645,5.817,13.387,12.8a13.258,13.258,0,0,1,.031,6.711c-1.331,4.975-5.48,7.028-10.217,5a11.838,11.838,0,0,0-5.882-1.074,12.988,12.988,0,0,0-3.292.913c-3.245-1.651-4.347-4.528-4.521-7.927A17.48,17.48,0,0,1,383.58,66.7a14.19,14.19,0,0,1,5.154-5.409c.921-.55,2.02-.728,2.826-1.471" transform="translate(-332.692 -39.073)" fill="#aa6b51"/>
        <path id="Trazado_272525" data-name="Trazado 272525" d="M327.177,156.306a29.441,29.441,0,0,0-2.692-4.032c-2.223-3.209-4.519-6.368-6.782-9.549-1.375-1.933-2.761-3.859-4.111-5.811-.977-1.413-.766-2.471.652-3.45,1.953-1.349,3.917-2.68,5.877-4.019a.917.917,0,0,1,.142.014c3.835,5.432,7.658,10.873,11.514,16.29a47.2,47.2,0,0,0,3.459,4.717,1.336,1.336,0,0,1-.25.354q-3.9,2.75-7.809,5.485" transform="translate(-306.66 -65.707)" fill="#22a7fe"/>
        <path id="Trazado_272526" data-name="Trazado 272526" d="M339.741,147.77a47.191,47.191,0,0,1-3.459-4.717q-5.783-8.126-11.513-16.29a35.026,35.026,0,0,1,3.263-2.358,24.148,24.148,0,0,0,2.745-2.009l.519.211c.017.527.408.862.677,1.245q2.981,4.241,6,8.457,2.8,3.921,5.627,7.825c.332.5.672.987.994,1.49a2.205,2.205,0,0,1-.676,3.391c-1.082.75-2.141,1.534-3.229,2.275-.288.2-.546.49-.946.48" transform="translate(-311.165 -63.01)" fill="#d8ecfe"/>
        <path id="Trazado_272527" data-name="Trazado 272527" d="M387.569,59.76c-.806.743-1.9.921-2.826,1.471a14.19,14.19,0,0,0-5.154,5.409,17.481,17.481,0,0,0-2.513,9.542c.174,3.4,1.276,6.276,4.521,7.927-3.976,2.062-9.053.925-10.6-4.807-1.657-6.123,2.165-16.39,10-18.816a15.835,15.835,0,0,1,6.579-.726" transform="translate(-328.7 -39.017)" fill="#965b45"/>
        <path id="Trazado_272528" data-name="Trazado 272528" d="M347.641,134.643q-2.814-3.912-5.626-7.825-3.014-4.218-6-8.457c-.269-.383-.659-.718-.677-1.245,3.33-2.334,6.682-4.636,9.981-7.014a9.323,9.323,0,0,1,7.729-1.851.988.988,0,0,1,.236.125.755.755,0,0,1-.359.668c-2.822,1.934-5.626,3.895-8.444,5.834a4.088,4.088,0,0,0-1.176,5.919c2.5,3.594,5.073,7.141,7.607,10.714a1.885,1.885,0,0,1,.562,1.2c-1.247.706-2.64,1.123-3.833,1.935" transform="translate(-315.209 -57.519)" fill="#febd86"/>
        <path id="Trazado_272529" data-name="Trazado 272529" d="M394.1,41.786a3.82,3.82,0,0,1-5.108.254A7.787,7.787,0,0,1,386.08,37a10.647,10.647,0,0,1,1.7-8.764c1.694-2.311,4.358-2.659,6.334-.908-3.653,3.676-3.57,10.8-.015,14.456" transform="translate(-334.51 -26.224)" fill="#965b45"/>
        <path id="Trazado_272530" data-name="Trazado 272530" d="M417.521,116.118a51.4,51.4,0,0,1-4.2,3.084c-.836.636-1.715,1.218-2.59,1.8a3.268,3.268,0,0,1-3.013.362c2.354-3.114,4.474-6.392,6.726-9.578.745-1.054,1.444-2.143,2.228-3.168a4.326,4.326,0,0,1,6.29-.658c-.673,1.3-1.657,2.391-2.439,3.618-.974,1.53-2.169,2.915-3,4.538" transform="translate(-342.894 -57.08)" fill="#f5a96d"/>
        <path id="Trazado_272531" data-name="Trazado 272531" d="M397.565,42.471c-3.555-3.661-3.638-10.78.015-14.456,2.413,2.2,3,5.063,2.8,8.129a8.617,8.617,0,0,1-2.818,6.326" transform="translate(-337.979 -26.909)" fill="#ab6c52"/>
        <path id="Trazado_272532" data-name="Trazado 272532" d="M414.332,49.042c-2.335.581-4.268-.867-4.49-3.5a9.065,9.065,0,0,1,3.436-8.139,3.99,3.99,0,0,1,3.94-.982,2.7,2.7,0,0,1,1.812,1.623,5.16,5.16,0,0,0-1.442.724,9.1,9.1,0,0,0-3.647,8.436c.07.638.383,1.2.391,1.84" transform="translate(-343.691 -30.051)" fill="#965b45"/>
        <path id="Trazado_272533" data-name="Trazado 272533" d="M373.023,47.465a3.1,3.1,0,0,1-4.063,1.461c-2.661-.993-3.992-3.158-4.8-5.714a6.975,6.975,0,0,1,.013-4.6,3.235,3.235,0,0,1,4.125-2.2,5.685,5.685,0,0,0-.5,1.344,9.761,9.761,0,0,0,2.385,7.687,14.194,14.194,0,0,0,2.847,2.021" transform="translate(-326.084 -30.045)" fill="#975b46"/>
        <path id="Trazado_272534" data-name="Trazado 272534" d="M375.472,47.59a14.193,14.193,0,0,1-2.847-2.021,9.761,9.761,0,0,1-2.385-7.687,5.684,5.684,0,0,1,.5-1.344,7.842,7.842,0,0,1,.928.313c3.512,1.689,5.492,6.967,3.954,10.528a1.17,1.17,0,0,1-.156.212" transform="translate(-328.533 -30.169)" fill="#ab6c52"/>
        <path id="Trazado_272535" data-name="Trazado 272535" d="M390.2,126.258c-2.546,1.205-5.113.12-7.667.049-1.463-.04-2.921-.246-4.38-.4-1.095-.111-1.543-.617-1.48-1.624a1.372,1.372,0,0,1,1.651-1.258c1.73.117,3.454.325,5.182.482,1.61.146,3.226.237,4.833.422a27.25,27.25,0,0,1,3.57.355c-.278.91-1.145,1.309-1.71,1.97" transform="translate(-331.016 -63.25)" fill="#febd86"/>
        <path id="Trazado_272536" data-name="Trazado 272536" d="M416.856,50.165c-.008-.637-.321-1.2-.391-1.84a9.1,9.1,0,0,1,3.647-8.436,5.16,5.16,0,0,1,1.442-.724,4.222,4.222,0,0,1,.652,1.935c.582,3.584-2.015,7.978-5.351,9.065" transform="translate(-346.214 -31.174)" fill="#ab6c52"/>
        <path id="Trazado_272537" data-name="Trazado 272537" d="M361.868,64.61a2.383,2.383,0,0,1-2.994,2.064A6.718,6.718,0,0,1,354.1,59.7a2.5,2.5,0,0,1,3.247-2.169c-.057,3.652,1.321,5.808,4.524,7.081" transform="translate(-322.362 -38.156)" fill="#975c46"/>
        <path id="Trazado_272538" data-name="Trazado 272538" d="M425.788,66.7a2.6,2.6,0,0,1-3.05-2.623,6.793,6.793,0,0,1,4.817-6.612,2.391,2.391,0,0,1,2.973,1.877,4.908,4.908,0,0,1-.5.193c-2.588.68-5,4.466-4.238,7.165" transform="translate(-348.631 -38.148)" fill="#975c46"/>
        <path id="Trazado_272539" data-name="Trazado 272539" d="M329.434,120.905a24.229,24.229,0,0,1-2.745,2.009,34.827,34.827,0,0,0-3.263,2.358.924.924,0,0,0-.143-.014c-.582-1.085-1.491-1.954-2.027-3.068a36.423,36.423,0,0,1,4.8-3.445,1.649,1.649,0,0,1,2.016.218,3.844,3.844,0,0,1,1.367,1.943" transform="translate(-309.821 -61.519)" fill="#b4dafe"/>
        <path id="Trazado_272540" data-name="Trazado 272540" d="M427.6,67.907c-.758-2.7,1.65-6.485,4.238-7.165a4.907,4.907,0,0,0,.5-.193,4.407,4.407,0,0,1-.228,3.239c-.869,2.046-2.173,3.661-4.512,4.119" transform="translate(-350.444 -39.354)" fill="#ab6c52"/>
        <path id="Trazado_272541" data-name="Trazado 272541" d="M363.913,64.68c-3.2-1.273-4.581-3.429-4.524-7.081,2.834.565,5.26,4.362,4.524,7.081" transform="translate(-324.407 -38.225)" fill="#ab6c53"/>
        <path id="Trazado_272542" data-name="Trazado 272542" d="M423.593,116.781c.834-1.623,2.028-3.008,3-4.538.782-1.227,1.766-2.317,2.439-3.618a4.981,4.981,0,0,1,1.751,4c-2.174.269-3.606,1.882-5.339,2.948a11.05,11.05,0,0,1-1.854,1.207" transform="translate(-348.965 -57.743)" fill="#febd86"/>
      </g>
    </g>
  </g>
</svg>
