<svg xmlns="http://www.w3.org/2000/svg" xmlns:xlink="http://www.w3.org/1999/xlink" width="148.587" height="148.586" viewBox="0 0 148.587 148.586">
  <defs>
    <clipPath id="clip-path">
      <rect id="Rectángulo_325197" data-name="Rectángulo 325197" width="5.271" height="2.819" transform="translate(597.394 102.978)" fill="none"/>
    </clipPath>
    <clipPath id="clip-path-2">
      <rect id="Rectángulo_325198" data-name="Rectángulo 325198" width="5.277" height="2.812" transform="translate(579.283 102.997)" fill="none"/>
    </clipPath>
    <clipPath id="clip-path-3">
      <rect id="Rectángulo_325199" data-name="Rectángulo 325199" width="5.24" height="2.801" transform="translate(588.369 96.598)" fill="none"/>
    </clipPath>
    <clipPath id="clip-path-4">
      <rect id="Rectángulo_325200" data-name="Rectángulo 325200" width="5.258" height="2.771" transform="translate(597.407 96.616)" fill="none"/>
    </clipPath>
    <clipPath id="clip-path-5">
      <rect id="Rectángulo_325201" data-name="Rectángulo 325201" width="5.234" height="2.824" transform="translate(588.368 102.975)" fill="none"/>
    </clipPath>
    <clipPath id="clip-path-6">
      <rect id="Rectángulo_325202" data-name="Rectángulo 325202" width="5.257" height="2.762" transform="translate(597.407 109.416)" fill="none"/>
    </clipPath>
    <clipPath id="clip-path-7">
      <rect id="Rectángulo_325203" data-name="Rectángulo 325203" width="5.233" height="2.763" transform="translate(588.368 109.416)" fill="none"/>
    </clipPath>
    <clipPath id="clip-path-8">
      <rect id="Rectángulo_325204" data-name="Rectángulo 325204" width="5.246" height="2.816" transform="translate(579.298 96.605)" fill="none"/>
    </clipPath>
    <clipPath id="clip-path-9">
      <rect id="Rectángulo_325205" data-name="Rectángulo 325205" width="5.244" height="2.81" transform="translate(579.3 109.385)" fill="none"/>
    </clipPath>
    <clipPath id="clip-path-10">
      <rect id="Rectángulo_325206" data-name="Rectángulo 325206" width="6.367" height="2.804" transform="translate(653.402 92.897)" fill="none"/>
    </clipPath>
  </defs>
  <g id="Grupo_1071240" data-name="Grupo 1071240" transform="translate(-723.585 -481.091)">
    <g id="Grupo_261135" data-name="Grupo 261135">
      <path id="Trazado_278854" data-name="Trazado 278854" d="M690.682,79.384A74.294,74.294,0,1,1,616.389,5.091a74.293,74.293,0,0,1,74.293,74.293" transform="translate(181.49 476)" fill="#1b3f5e"/>
      <path id="Trazado_278863" data-name="Trazado 278863" d="M573.121,38.4a1.977,1.977,0,0,1,1.966-.937c1.047.057,2.1.013,2.891.013a17.423,17.423,0,0,1,.244-3.9c.868-2.945,4.31-4.742,7.1-2.65.818.614,1.417.5,2.121-.277.689-.757,1.35-1.539,2.029-2.305a8.24,8.24,0,0,1,13.891,8.573c-.056.14-.1.282-.207.555,1.346,0,2.6-.006,3.856,0,1.667.009,2.229.933,1.475,2.432-.571,1.134-1.146,2.267-1.743,3.388a1.446,1.446,0,0,1-1.993.8c-.744-.381-.929-1.168-.481-2.091.255-.526.527-1.043.841-1.662h-28.2c.1.239.19.488.309.721,1.638,3.2,3.292,6.388,4.911,9.6a1.154,1.154,0,0,0,1.2.752q7.678-.043,15.357,0a1.066,1.066,0,0,0,1.132-.71c.468-1.011,1.008-1.989,1.522-2.979.572-1.1,1.316-1.46,2.122-1.033s.916,1.218.347,2.341c-.377.742-.757,1.482-1.161,2.272.844.329,1.407.827,1.214,1.757-.231,1.114-1.174,1.113-2.089,1.177-.022.312-.056.582-.057.853-.006,1.17,0,2.339,0,3.6,1.8,0,3.5,0,5.2,0,1.5,0,1.943.444,1.943,1.935q0,12.748,0,25.5V87.3h2.09c-.646-3.357.343-6.083,3.375-7.8a6.328,6.328,0,0,1,7.193.414c2.535,1.816,3.312,4.364,2.668,7.41h2.734c-.658-3.29.267-5.959,3.14-7.707a6.337,6.337,0,0,1,7.2.161c2.659,1.778,3.517,4.359,2.884,7.523h2.712c-.68-3.314.306-6.01,3.26-7.747a6.318,6.318,0,0,1,7.2.3c2.59,1.8,3.419,4.362,2.755,7.515,1.87,0,3.724-.024,5.577.005a6.908,6.908,0,0,1,4.494,12.056,6.432,6.432,0,0,1-4.208,1.735c-1.263.032-2.526.007-3.837.007v16.721h1.266c2.389,0,4.778.012,7.166-.007.8-.006,1.514.09,1.827.944.318.869-.206,1.394-.835,1.855h-94.4V98.156c.476-.6.986-1.143,1.864-.809.86.326.936,1.043.934,1.831q-.015,8.841-.005,17.681v.975H606v-56.3H575.914V62.67q0,14.936.007,29.871c0,.8-.107,1.521-.955,1.821s-1.4-.2-1.845-.859V59.624a1.984,1.984,0,0,1,1.958-.946c1.694.051,3.39.015,5.109.015V54.211c-.938-.011-1.853-.055-2.086-1.162-.2-.935.382-1.418,1.25-1.759-2.093-4.015-4.162-7.985-6.231-11.956Zm76.342,62.939c-.1-.057-.153-.113-.206-.113q-1.676-.022-3.349-.031c-1.618-.006-2.261-.41-2.242-1.419.018-.98.648-1.374,2.2-1.374h3.444c4,0,8,.022,12.005-.01a4.11,4.11,0,0,0,4.33-4.4,4.172,4.172,0,0,0-4.44-3.839q-25.732,0-51.466,0c-.27,0-.54.028-.829.044v2.7h1.152q14.7,0,29.409,0a9.632,9.632,0,0,1,1.115.031,1.274,1.274,0,0,1,1.19,1.228,1.25,1.25,0,0,1-.951,1.415,4.36,4.36,0,0,1-1.194.112q-14.8.009-29.595.005h-1.121V98.4h29.646a8.455,8.455,0,0,1,.929.016,1.423,1.423,0,0,1,1.355,1.394,1.392,1.392,0,0,1-1.372,1.362c-.339.03-.682.019-1.023.019h-29.52v16.626h40.531ZM590.576,37.479c2.758,0,5.516-.023,8.274.017a1.537,1.537,0,0,0,1.441-.768,5.442,5.442,0,0,0-8.378-6.9c-.858.893-1.632,1.865-2.473,2.775a4.108,4.108,0,0,1-5.687.655,1.582,1.582,0,0,0-2.427.342,2.722,2.722,0,0,0-.232,3.122,1.275,1.275,0,0,0,1.3.776c2.726-.044,5.454-.019,8.181-.019m8.3,16.777H583.1v4.382h15.771Zm53.5,63.572h2.814V101.239h-2.814Zm-2.9-30.408c.89-.086,1.758-.127,2.61-.264,1.1-.176,1.481-.69,1.448-1.789a4.056,4.056,0,0,0-8.11.038,1.466,1.466,0,0,0,1.4,1.742c.883.145,1.781.187,2.656.273m-31.884,0c.872-.084,1.739-.126,2.592-.261a1.441,1.441,0,0,0,1.439-1.694,4.042,4.042,0,0,0-8.082-.156c-.044,1.175.319,1.673,1.47,1.854.853.134,1.72.175,2.581.257m15.915.007c.912-.092,1.84-.145,2.753-.289a1.44,1.44,0,0,0,1.315-1.615,4.039,4.039,0,1,0-8.077,0,1.436,1.436,0,0,0,1.315,1.612c.883.139,1.78.193,2.694.287" transform="translate(181.49 476)" fill="#e5dbd7"/>
      <path id="Trazado_278864" data-name="Trazado 278864" d="M590.92,90.152c-2.637,0-5.273.008-7.91,0a3.51,3.51,0,0,1-3.731-3.731q-.016-7.956,0-15.91a3.509,3.509,0,0,1,3.714-3.756q8-.036,16.007,0a3.5,3.5,0,0,1,3.689,3.692q.031,8,0,16a3.511,3.511,0,0,1-3.766,3.7c-2.667.009-5.335,0-8,0M591,87.359c2.572,0,5.145-.022,7.716.013.9.013,1.2-.356,1.2-1.218q-.03-7.716,0-15.43c0-.893-.376-1.2-1.233-1.2q-7.716.028-15.433,0c-.886,0-1.194.363-1.19,1.232q.035,7.714,0,15.43c0,.9.359,1.194,1.226,1.183,2.571-.033,5.144-.013,7.716-.013" transform="translate(181.49 476)" fill="#e5dbd7"/>
      <g id="Grupo_261070" data-name="Grupo 261070" transform="translate(181.49 476)" style="isolation: isolate">
        <g id="Grupo_261069" data-name="Grupo 261069">
          <g id="Grupo_261068" data-name="Grupo 261068" clip-path="url(#clip-path)">
            <path id="Trazado_278865" data-name="Trazado 278865" d="M600.018,105.785c-.432,0-.867.03-1.3-.007a1.362,1.362,0,0,1-1.325-1.395,1.31,1.31,0,0,1,1.265-1.356,18.257,18.257,0,0,1,2.777.007,1.271,1.271,0,0,1,1.227,1.38,1.3,1.3,0,0,1-1.258,1.358,12.613,12.613,0,0,1-1.389.009Z" fill="#e5dbd7"/>
          </g>
        </g>
      </g>
      <g id="Grupo_261073" data-name="Grupo 261073" transform="translate(181.49 476)" style="isolation: isolate">
        <g id="Grupo_261072" data-name="Grupo 261072">
          <g id="Grupo_261071" data-name="Grupo 261071" clip-path="url(#clip-path-2)">
            <path id="Trazado_278866" data-name="Trazado 278866" d="M581.911,103.008c.432,0,.867-.027,1.3,0a1.374,1.374,0,0,1,1.352,1.37,1.344,1.344,0,0,1-1.322,1.392c-.862.046-1.73.043-2.593,0a1.381,1.381,0,0,1-1.362-1.365,1.4,1.4,0,0,1,1.331-1.4c.43-.037.865-.006,1.3-.007" fill="#e5dbd7"/>
          </g>
        </g>
      </g>
      <g id="Grupo_261076" data-name="Grupo 261076" transform="translate(181.49 476)" style="isolation: isolate">
        <g id="Grupo_261075" data-name="Grupo 261075">
          <g id="Grupo_261074" data-name="Grupo 261074" clip-path="url(#clip-path-3)">
            <path id="Trazado_278867" data-name="Trazado 278867" d="M591.037,99.365a10.374,10.374,0,0,1-1.476-.013,1.264,1.264,0,0,1-1.191-1.4,1.239,1.239,0,0,1,1.264-1.319c.861-.05,1.727-.048,2.589-.012a1.323,1.323,0,0,1,1.385,1.315,1.364,1.364,0,0,1-1.369,1.441c-.4.037-.8.006-1.2.006v-.022" fill="#e5dbd7"/>
          </g>
        </g>
      </g>
      <g id="Grupo_261079" data-name="Grupo 261079" transform="translate(181.49 476)" style="isolation: isolate">
        <g id="Grupo_261078" data-name="Grupo 261078">
          <g id="Grupo_261077" data-name="Grupo 261077" clip-path="url(#clip-path-4)">
            <path id="Trazado_278868" data-name="Trazado 278868" d="M600.066,96.633c.462,0,.928-.037,1.386.008a1.261,1.261,0,0,1,1.21,1.291,1.212,1.212,0,0,1-1.094,1.382,17.16,17.16,0,0,1-3.041.01,1.215,1.215,0,0,1-1.119-1.363,1.271,1.271,0,0,1,1.271-1.329c.46-.034.924-.006,1.387-.006v.007" fill="#e5dbd7"/>
          </g>
        </g>
      </g>
      <g id="Grupo_261082" data-name="Grupo 261082" transform="translate(181.49 476)" style="isolation: isolate">
        <g id="Grupo_261081" data-name="Grupo 261081">
          <g id="Grupo_261080" data-name="Grupo 261080" clip-path="url(#clip-path-5)">
            <path id="Trazado_278869" data-name="Trazado 278869" d="M590.982,105.78a10.343,10.343,0,0,1-1.387-.011,1.286,1.286,0,0,1-1.228-1.371,1.256,1.256,0,0,1,1.229-1.365,16.794,16.794,0,0,1,2.774,0A1.261,1.261,0,0,1,593.6,104.4a1.291,1.291,0,0,1-1.232,1.37,10.344,10.344,0,0,1-1.387.011" fill="#e5dbd7"/>
          </g>
        </g>
      </g>
      <g id="Grupo_261085" data-name="Grupo 261085" transform="translate(181.49 476)" style="isolation: isolate">
        <g id="Grupo_261084" data-name="Grupo 261084">
          <g id="Grupo_261083" data-name="Grupo 261083" clip-path="url(#clip-path-6)">
            <path id="Trazado_278870" data-name="Trazado 278870" d="M599.992,112.162a13.047,13.047,0,0,1-1.385-.008,1.254,1.254,0,0,1-1.2-1.3,1.2,1.2,0,0,1,1.1-1.372,18.081,18.081,0,0,1,3.043,0,1.209,1.209,0,0,1,1.11,1.366,1.258,1.258,0,0,1-1.193,1.306,14.258,14.258,0,0,1-1.477.01" fill="#e5dbd7"/>
          </g>
        </g>
      </g>
      <g id="Grupo_261088" data-name="Grupo 261088" transform="translate(181.49 476)" style="isolation: isolate">
        <g id="Grupo_261087" data-name="Grupo 261087">
          <g id="Grupo_261086" data-name="Grupo 261086" clip-path="url(#clip-path-7)">
            <path id="Trazado_278871" data-name="Trazado 278871" d="M590.942,112.161a11.628,11.628,0,0,1-1.385-.009,1.238,1.238,0,0,1-1.188-1.3,1.189,1.189,0,0,1,1.086-1.373,17.546,17.546,0,0,1,3.041,0,1.2,1.2,0,0,1,1.1,1.362,1.244,1.244,0,0,1-1.181,1.306,12.757,12.757,0,0,1-1.477.012" fill="#e5dbd7"/>
          </g>
        </g>
      </g>
      <g id="Grupo_261091" data-name="Grupo 261091" transform="translate(181.49 476)" style="isolation: isolate">
        <g id="Grupo_261090" data-name="Grupo 261090">
          <g id="Grupo_261089" data-name="Grupo 261089" clip-path="url(#clip-path-8)">
            <path id="Trazado_278872" data-name="Trazado 278872" d="M581.829,99.421a10.883,10.883,0,0,1-1.429-.1,1.262,1.262,0,0,1-1.1-1.387,1.235,1.235,0,0,1,1.2-1.291,23.192,23.192,0,0,1,2.864,0,1.213,1.213,0,0,1,1.177,1.305,1.248,1.248,0,0,1-1.1,1.377,12.944,12.944,0,0,1-1.61.089" fill="#e5dbd7"/>
          </g>
        </g>
      </g>
      <g id="Grupo_261094" data-name="Grupo 261094" transform="translate(181.49 476)" style="isolation: isolate">
        <g id="Grupo_261093" data-name="Grupo 261093">
          <g id="Grupo_261092" data-name="Grupo 261092" clip-path="url(#clip-path-9)">
            <path id="Trazado_278873" data-name="Trazado 278873" d="M581.957,109.385a12.438,12.438,0,0,1,1.474.08,1.247,1.247,0,0,1,1.113,1.368,1.212,1.212,0,0,1-1.17,1.312,21.19,21.19,0,0,1-2.862,0,1.242,1.242,0,0,1-1.212-1.373,1.262,1.262,0,0,1,1.18-1.32,11.526,11.526,0,0,1,1.476-.012v-.058" fill="#e5dbd7"/>
          </g>
        </g>
      </g>
      <g id="Grupo_261097" data-name="Grupo 261097" transform="translate(181.49 476)" style="isolation: isolate">
        <g id="Grupo_261096" data-name="Grupo 261096">
          <g id="Grupo_261095" data-name="Grupo 261095" clip-path="url(#clip-path-10)">
            <path id="Trazado_278874" data-name="Trazado 278874" d="M656.585,92.91c.62,0,1.24-.024,1.858.006a1.276,1.276,0,0,1,1.32,1.286,1.3,1.3,0,0,1-1.253,1.451c-1.267.064-2.541.063-3.808,0a1.368,1.368,0,0,1-1.3-1.433,1.392,1.392,0,0,1,1.417-1.312c.587-.03,1.176-.005,1.765-.005Z" fill="#e5dbd7"/>
          </g>
        </g>
      </g>
    </g>
  </g>
</svg>
