<svg xmlns="http://www.w3.org/2000/svg" width="76.016" height="58.901" viewBox="0 0 76.016 58.901">
  <g id="Grupo_261825" data-name="Grupo 261825" transform="translate(-246.028 -763.91)">
    <g id="Grupo_261540" data-name="Grupo 261540">
      <path id="Trazado_279151" data-name="Trazado 279151" d="M131.788,149.846c0,.39,0,.745,0,1.1a3.676,3.676,0,0,1-3.8,3.829c-1.456.011-2.912,0-4.368,0-12.976,0-25.952-.047-38.928.035-3,.019-4.694-2-4.408-4.414a3.55,3.55,0,0,0-.027-.558c-.331-.089-.649-.165-.96-.261a5.407,5.407,0,0,1-3.778-6.343c1.305-5.534,2.711-11.045,4.081-16.564,1.137-4.579,2.27-9.158,3.429-13.731a6.084,6.084,0,0,1,6.144-4.761c1.094-.006,2.188,0,3.329,0v-2.453h-.844c-4.93,0-9.86.008-14.79,0a8.573,8.573,0,0,1-8.775-7.561,4.846,4.846,0,0,1-.054-1.069,1.176,1.176,0,0,1,1.108-1.164,4.791,4.791,0,0,1,.689-.013h72.415c.128,0,.256,0,.383,0,.983.026,1.426.5,1.411,1.493a8.575,8.575,0,0,1-8.616,8.309c-4.955.031-9.91.007-14.866.007h-.975v2.453h3.1a6.133,6.133,0,0,1,6.437,4.986c2.458,9.847,4.872,19.706,7.365,29.544a5.717,5.717,0,0,1-4.7,7.138m-25.742-2.428q12.3,0,24.59,0c2.721,0,4.051-1.726,3.39-4.381q-3.649-14.658-7.293-29.316a3.712,3.712,0,0,0-3.968-3.09q-16.738,0-33.477,0a3.7,3.7,0,0,0-3.95,3.11q-3.648,14.658-7.3,29.315c-.659,2.645.683,4.362,3.415,4.362q12.3,0,24.591,0m35.358-49H70.636c.027.15.036.25.063.346a6.14,6.14,0,0,0,6.117,4.509q29.23.006,58.462,0c.179,0,.358,0,.537-.01a6.032,6.032,0,0,0,5.589-4.846M82.78,149.9c-.155,2.136.108,2.425,2.128,2.425h42.511a6.964,6.964,0,0,0,.765-.011,1.167,1.167,0,0,0,1.127-1.063,10.462,10.462,0,0,0,.011-1.35Zm12.254-41.776h22v-2.357h-22Z" transform="translate(178 668)" fill="#3b5620"/>
      <path id="Trazado_279152" data-name="Trazado 279152" d="M106.041,132.7q-7.164,0-14.328,0c-2.59,0-4.068-1.491-4.069-4.1q0-5.747,0-11.492a3.7,3.7,0,0,1,4.062-4.028h28.656c2.6,0,4.067,1.482,4.069,4.1q0,5.745,0,11.492a3.7,3.7,0,0,1-4.062,4.029q-7.164,0-14.327,0m.083-17.168H91.793c-1.314,0-1.7.378-1.7,1.675q0,5.671,0,11.342c0,1.312.38,1.7,1.675,1.7q14.254,0,28.51,0c1.31,0,1.7-.382,1.7-1.676q0-5.671,0-11.343c0-1.311-.379-1.695-1.676-1.695q-7.089,0-14.178,0" transform="translate(178 668)" fill="#3b5620"/>
      <path id="Trazado_279153" data-name="Trazado 279153" d="M106.011,144.965a4.9,4.9,0,1,1,4.929-4.822,4.913,4.913,0,0,1-4.929,4.822m.033-2.455a2.449,2.449,0,1,0-2.455-2.424,2.465,2.465,0,0,0,2.455,2.424" transform="translate(178 668)" fill="#3b5620"/>
      <path id="Trazado_279154" data-name="Trazado 279154" d="M119.52,122.907c0,.459.019.92,0,1.378a3.673,3.673,0,0,1-7.34-.03c-.031-.918-.033-1.838,0-2.756a3.673,3.673,0,0,1,7.336-.046c.027.483,0,.969,0,1.454m-2.451.041c0-.434.024-.87,0-1.3a1.213,1.213,0,0,0-1.238-1.2,1.19,1.19,0,0,0-1.19,1.165c-.037.841-.035,1.686,0,2.527a1.2,1.2,0,0,0,1.234,1.2,1.226,1.226,0,0,0,1.2-1.242c.022-.382,0-.766,0-1.149" transform="translate(178 668)" fill="#3b5620"/>
    </g>
  </g>
</svg>
