<svg xmlns="http://www.w3.org/2000/svg" width="71.869" height="71.87" viewBox="0 0 71.869 71.87">
  <g id="Grupo_261808" data-name="Grupo 261808" transform="translate(4836.109 7524.015)">
    <path id="Trazado_277504" data-name="Trazado 277504" d="M1126.891,252.388a35.935,35.935,0,1,0,35.935-35.935,35.935,35.935,0,0,0-35.935,35.935" transform="translate(-5963 -7740.468)" fill="#fff"/>
    <path id="Trazado_277505" data-name="Trazado 277505" d="M1145.052,248l.788-.587a.538.538,0,0,0,.722.093c.266-.186.232-.449.144-.715l.843-.479a.676.676,0,0,0,.921.087,17.451,17.451,0,0,1,6.1-1.784c.352-.04.49.02.464.4a12.9,12.9,0,0,0,0,1.433c.013.31-.114.346-.364.256a3.224,3.224,0,0,1-1.011-.587c-.274-.234-.565-.28-.8.025-.216.279-.106.533.137.762a3.882,3.882,0,0,0,5.1.005c.258-.245.371-.512.117-.8a.5.5,0,0,0-.768,0,3.115,3.115,0,0,1-1.059.6c-.227.077-.346.035-.335-.248a11.049,11.049,0,0,0,0-1.433c-.038-.435.149-.5.524-.491a16.967,16.967,0,0,1,11.426,4.668,15.078,15.078,0,0,1,3.442,4.6c-.258.007-.378.217-.53.37q-8.538,8.529-17.07,17.065a3.538,3.538,0,0,0-.25.256,1.043,1.043,0,0,0-.023,1.283,17.785,17.785,0,0,0,1.354,1.321,27.062,27.062,0,0,0,2.97,2.15,21.623,21.623,0,0,1-8.639-.965,14.548,14.548,0,0,1-7.1-4.636,14.252,14.252,0,0,1-2.752-12.3,16.9,16.9,0,0,1,5.388-9.429c.293-.264.49-.526.27-.925m-4.4,13.25a12.786,12.786,0,0,0,2.231,7.686,12.193,12.193,0,0,0,4.656,3.9.523.523,0,0,0,.793-.263c.1-.38-.146-.553-.441-.7a11.008,11.008,0,0,1-4.767-4.5,11.822,11.822,0,0,1-1.23-7.973,14.711,14.711,0,0,1,5.146-8.888,17.081,17.081,0,0,1,1.965-1.384.5.5,0,0,0,.2-.707.48.48,0,0,0-.709-.17c-.138.068-.271.146-.4.226a15.011,15.011,0,0,0-3.532,3.005,15.609,15.609,0,0,0-3.916,9.767m9.221,11.44c-.283,0-.509.07-.589.339a.466.466,0,0,0,.223.614,4.578,4.578,0,0,0,.969.31.46.46,0,0,0,.517-.332.454.454,0,0,0-.232-.607c-.292-.133-.6-.223-.888-.324m14.238-19.833c-.009-.357-.1-.668-.522-.677-.393-.008-.51.264-.518.613s.065.68.483.7.542-.276.557-.638m-5.224,4.8c0-.438-.134-.738-.536-.73s-.509.319-.5.686c.007.347.1.623.5.628.425.006.529-.3.538-.584m-10.738-2.22c-.007-.527-.131-.816-.551-.8s-.49.335-.488.692.145.624.516.619a.485.485,0,0,0,.523-.514M1146.1,262.4c.009-.382-.074-.691-.5-.7s-.523.283-.529.652.122.661.529.656c.374-.005.523-.27.5-.608m6.358,4.477c.012-.365-.092-.66-.517-.662-.39,0-.507.259-.516.613s.09.678.493.7.553-.269.54-.647" transform="translate(-5963 -7740.468)" fill="#efbf20"/>
    <path id="Trazado_277506" data-name="Trazado 277506" d="M1145.052,248.005c.219.4.022.66-.27.924a16.91,16.91,0,0,0-5.388,9.429,14.257,14.257,0,0,0,2.752,12.3,14.542,14.542,0,0,0,7.1,4.636,21.6,21.6,0,0,0,8.638.965,11.331,11.331,0,0,0,2.08-.216c-.1-.17-.267-.189-.4-.251a16.431,16.431,0,0,1-4.368-3c-.58-.552-.578-.705,0-1.282l16.078-16.08c.717-.716.717-.716.2-1.588-.007-.014-.027-.02-.041-.03a15.054,15.054,0,0,0-3.442-4.6,16.966,16.966,0,0,0-11.425-4.667c-.377-.011-.564.056-.524.491a11.6,11.6,0,0,1,0,1.432c-.011.283.106.326.335.249a3.136,3.136,0,0,0,1.058-.605.5.5,0,0,1,.769,0c.252.288.14.556-.118.8a3.879,3.879,0,0,1-5.1-.005c-.244-.228-.354-.483-.139-.761.237-.306.529-.26.8-.026a3.2,3.2,0,0,0,1.012.587c.248.09.376.055.362-.256a13.172,13.172,0,0,1,0-1.433c.027-.384-.111-.443-.463-.4a17.4,17.4,0,0,0-6.1,1.784.676.676,0,0,1-.92-.087c-.115-.425.078-.651.453-.84a18.109,18.109,0,0,1,6.644-1.88c.322-.028.384-.127.382-.424-.013-2.032-.007-4.063-.007-6.1,0-.119,0-.239,0-.358.012-.338.167-.567.523-.561s.505.229.5.574q0,1.229,0,2.458v.6a5.144,5.144,0,0,1,2.886-1.8,5.548,5.548,0,0,1,1.119-.1q2.433-.008,4.866,0c.662,0,.772.113.771.779a7.791,7.791,0,0,1-.161,2.238,4.911,4.911,0,0,1-3.062,3.335c-.156.061-.341.061-.464.21a18.273,18.273,0,0,1,10.683,9.485c.192-.042.281-.2.4-.318q2.16-2.151,4.313-4.307c.475-.474.674-.471,1.137.009a16.661,16.661,0,0,1,3.536,5.516.611.611,0,0,1-.2.845c-.477.094-.662-.19-.812-.579a15.163,15.163,0,0,0-2.852-4.638c-.2-.222-.3-.239-.506-.016-.343.379-.708.741-1.084,1.087-.213.2-.246.313-.036.559a13.036,13.036,0,0,1,3.042,11.254,13.324,13.324,0,0,1-15.406,10.516,12.7,12.7,0,0,1-6.308-3.076c-.228-.2-.353-.222-.559.012a9.606,9.606,0,0,1-.979.976c-.317.27-.342.426,0,.723a14.891,14.891,0,0,0,11.578,3.779,15.372,15.372,0,0,0,11.686-6.959,14.86,14.86,0,0,0,2.464-9.63c-.029-.408-.115-.836.391-1.043a.624.624,0,0,1,.62.665,16.47,16.47,0,0,1-9.559,16.53,16.028,16.028,0,0,1-11.082.989,3.468,3.468,0,0,0-1.547.1,22.926,22.926,0,0,1-14.668-1.78,14.022,14.022,0,0,1-8.152-12.032,17.81,17.81,0,0,1,6.039-15.012.65.65,0,0,1,.911-.106m29.6,20.067c.209.223.434.434.625.672.24.3.4.3.663-.01a12.3,12.3,0,0,0,2.847-6.73c.07-.684.062-.687-.644-.685-.256,0-.512.012-.767.018l-1.019,0h-8.54c.346.322.6.54.832.773q2.616,2.587,5.223,5.179a3.943,3.943,0,0,0,.78.779m-7.509,3.5a8.775,8.775,0,0,1-.024.92c-.056.443.117.549.539.509a12.272,12.272,0,0,0,6.761-2.773c.484-.4.484-.4.021-.858-.18-.179-.373-.347-.56-.519a4.242,4.242,0,0,0-.779-.782,1.512,1.512,0,0,0-.122-.161q-2.781-2.785-5.567-5.569c-.066-.065-.114-.175-.265-.145v8.359c0,.34,0,.68,0,1.019m9.208-11.3,1.025,0c.238.006.476.017.715.017.779,0,.779,0,.686-.782a12.34,12.34,0,0,0-2.818-6.585c-.244-.292-.38-.359-.689-.047-2.328,2.358-4.679,4.693-7.019,7.04-.1.1-.262.164-.253.355Zm-10.273,10.273v-8.375c-.07.026-.106.029-.125.048q-3.695,3.687-7.39,7.371c-.228.227-.109.327.064.474a12.245,12.245,0,0,0,6.847,2.92c.622.063.627.048.623-.6,0-.272-.011-.544-.017-.817l0-1.023m-8.381-27.166c.017.041.033.083.05.124.972,0,1.943.006,2.915,0a3.875,3.875,0,0,0,4.011-4.145c-.005-.335-.1-.437-.437-.433-1.449.017-2.9-.013-4.35.014a3.872,3.872,0,0,0-3.822,3.61c-.015.16-.1.383.057.471s.307-.1.448-.179c1.327-.77,2.649-1.549,3.974-2.323.316-.184.632-.225.838.14s-.025.579-.311.748c-.528.314-1.062.617-1.591.927-.6.348-1.188.7-1.782,1.048" transform="translate(-5963 -7740.468)" fill="#050403"/>
    <path id="Trazado_277507" data-name="Trazado 277507" d="M1182.49,258.647c-.506.207-.421.635-.391,1.043a14.865,14.865,0,0,1-2.464,9.63,15.372,15.372,0,0,1-11.685,6.959,14.889,14.889,0,0,1-11.578-3.779c-.347-.3-.321-.453,0-.723a9.706,9.706,0,0,0,.979-.976c.206-.234.332-.214.56-.012a12.684,12.684,0,0,0,6.307,3.076,13.323,13.323,0,0,0,15.406-10.516,13.03,13.03,0,0,0-3.042-11.253c-.21-.247-.177-.365.035-.56.377-.346.742-.708,1.086-1.087.2-.223.309-.206.505.016a15.163,15.163,0,0,1,2.852,4.638c.149.389.336.674.812.579l.219.98a.529.529,0,0,0-.315.659c.086.288.327.353.593.361.042.321.083.643.125.965" transform="translate(-5963 -7740.468)" fill="#f4e1ad"/>
    <path id="Trazado_277508" data-name="Trazado 277508" d="M1178.183,246.139a9.1,9.1,0,0,1-4.676-1.272,1.02,1.02,0,0,0-.818-.13c-.7.162-1.4.307-2.1.449-.649.132-.908-.134-.773-.783.046-.217.088-.435.146-.648a4.483,4.483,0,0,0-.277-3.242,9.351,9.351,0,1,1,9.773,5.543,9.085,9.085,0,0,1-1.276.083m-.409-1.027c5.489,0,9.364-4.313,8.713-9.376a8.332,8.332,0,0,0-14.212-4.8,8.226,8.226,0,0,0-1.114,10.261,1.1,1.1,0,0,1,.179.957c-.141.49-.208,1-.323,1.5-.072.312.032.393.331.323.465-.109.939-.179,1.4-.306a1.278,1.278,0,0,1,1.1.195,7.852,7.852,0,0,0,3.927,1.244" transform="translate(-5963 -7740.468)" fill="#050606"/>
    <path id="Trazado_277509" data-name="Trazado 277509" d="M1146.707,246.795c.087.266.121.529-.145.715a.5.5,0,1,1-.591-.816.573.573,0,0,1,.736.1" transform="translate(-5963 -7740.468)" fill="#090701"/>
    <path id="Trazado_277510" data-name="Trazado 277510" d="M1182.365,257.681c-.266-.008-.507-.072-.593-.36a.529.529,0,0,1,.315-.66c.312-.022.574.055.652.4.072.314-.121.491-.374.622" transform="translate(-5963 -7740.468)" fill="#050606"/>
    <path id="Trazado_277511" data-name="Trazado 277511" d="M1171.432,253.818c.014.01.033.016.041.03.515.872.515.872-.2,1.588l-16.079,16.08c-.577.577-.578.729,0,1.282a16.436,16.436,0,0,0,4.369,3c.132.062.3.081.4.251a11.331,11.331,0,0,1-2.08.216,26.788,26.788,0,0,1-2.969-2.15,17.606,17.606,0,0,1-1.355-1.32,1.041,1.041,0,0,1,.024-1.283,3.183,3.183,0,0,1,.25-.257q8.533-8.534,17.069-17.065c.153-.152.272-.363.53-.369" transform="translate(-5963 -7740.468)" fill="#e4a31d"/>
    <path id="Trazado_277512" data-name="Trazado 277512" d="M1140.657,261.254a15.61,15.61,0,0,1,3.915-9.766,15.034,15.034,0,0,1,3.532-3.006c.131-.08.264-.158.4-.226a.479.479,0,0,1,.708.17.5.5,0,0,1-.2.707,17.184,17.184,0,0,0-1.964,1.384,14.7,14.7,0,0,0-5.146,8.888,11.816,11.816,0,0,0,1.23,7.973,11.008,11.008,0,0,0,4.767,4.5c.294.153.54.325.44.7a.522.522,0,0,1-.793.263,12.2,12.2,0,0,1-4.655-3.9,12.784,12.784,0,0,1-2.231-7.687" transform="translate(-5963 -7740.468)" fill="#f7e3ac"/>
    <path id="Trazado_277513" data-name="Trazado 277513" d="M1149.878,272.694c.283.1.595.191.888.324a.454.454,0,0,1,.232.607.46.46,0,0,1-.518.332,4.607,4.607,0,0,1-.968-.309.466.466,0,0,1-.223-.615c.079-.269.306-.34.589-.339" transform="translate(-5963 -7740.468)" fill="#f7e3ac"/>
    <path id="Trazado_277514" data-name="Trazado 277514" d="M1164.116,252.861c-.015.362-.145.661-.557.639s-.491-.347-.483-.7.124-.621.518-.613c.423.008.513.319.522.676" transform="translate(-5963 -7740.468)" fill="#090701"/>
    <path id="Trazado_277515" data-name="Trazado 277515" d="M1158.893,257.66c-.01.289-.113.589-.539.584-.4-.006-.492-.281-.5-.628-.007-.367.095-.678.5-.686s.538.292.536.73" transform="translate(-5963 -7740.468)" fill="#090701"/>
    <path id="Trazado_277516" data-name="Trazado 277516" d="M1148.154,255.44a.485.485,0,0,1-.523.514c-.371,0-.515-.259-.516-.619s.061-.673.488-.692.544.27.551.8" transform="translate(-5963 -7740.468)" fill="#090701"/>
    <path id="Trazado_277517" data-name="Trazado 277517" d="M1146.1,262.4c.019.338-.13.6-.5.608-.407.005-.536-.275-.529-.656s.1-.661.529-.652.513.319.5.7" transform="translate(-5963 -7740.468)" fill="#090701"/>
    <path id="Trazado_277518" data-name="Trazado 277518" d="M1152.455,266.882c.013.378-.14.664-.54.647s-.5-.33-.493-.7.126-.616.516-.613c.425,0,.529.3.517.662" transform="translate(-5963 -7740.468)" fill="#090701"/>
    <path id="Trazado_277519" data-name="Trazado 277519" d="M1166.078,271.567c.006.272.017.545.018.817,0,.646,0,.661-.625.6a12.237,12.237,0,0,1-6.846-2.919c-.173-.148-.292-.248-.064-.474q3.7-3.678,7.39-7.371c.019-.02.055-.023.125-.049v8.376a9.256,9.256,0,0,1-2.211-.365c-.344-.093-.637-.055-.739.314-.108.388.11.578.491.68a9.1,9.1,0,0,0,2.461.394m-4.343-1.228a.444.444,0,0,0,.463-.488c.008-.31-.53-.759-.9-.747a.508.508,0,0,0-.513.473c-.047.309.484.747.954.762" transform="translate(-5963 -7740.468)" fill="#fa5d3d"/>
    <path id="Trazado_277520" data-name="Trazado 277520" d="M1176.35,260.271H1168c-.01-.191.154-.257.252-.355,2.34-2.347,4.69-4.682,7.019-7.04.308-.312.445-.245.689.047a12.33,12.33,0,0,1,2.818,6.585c.093.783.093.785-.685.782-.239,0-.478-.011-.716-.017a10.159,10.159,0,0,0-1.383-4.8c-.187-.331-.4-.654-.831-.4-.394.235-.26.553-.075.881a9.346,9.346,0,0,1,1.265,4.313m-2.675-2.7c.021-.347-.118-.643-.518-.64s-.521.3-.515.675c.007.347.1.622.5.634.425.012.544-.271.536-.669" transform="translate(-5963 -7740.468)" fill="#fa5d3d"/>
    <path id="Trazado_277521" data-name="Trazado 277521" d="M1173.871,267.293q-2.611-2.59-5.224-5.179c-.235-.233-.485-.452-.833-.773h8.541c-.041.389-.056.783-.128,1.166a9.137,9.137,0,0,1-2.356,4.786" transform="translate(-5963 -7740.468)" fill="#f95c3d"/>
    <path id="Trazado_277522" data-name="Trazado 277522" d="M1157.695,243.378c.594-.349,1.186-.7,1.782-1.048.529-.31,1.063-.613,1.591-.927.286-.169.51-.4.311-.748s-.522-.324-.838-.14c-1.325.774-2.647,1.553-3.974,2.323-.141.082-.3.269-.448.179s-.072-.311-.057-.471a3.872,3.872,0,0,1,3.822-3.61c1.449-.027,2.9,0,4.35-.014.334,0,.432.1.437.433a3.875,3.875,0,0,1-4.011,4.145c-.972.008-1.943,0-2.915,0-.017-.041-.033-.083-.05-.124" transform="translate(-5963 -7740.468)" fill="#13bc6b"/>
    <path id="Trazado_277523" data-name="Trazado 277523" d="M1167.144,270.549v-8.36c.152-.029.2.08.266.146q2.785,2.783,5.567,5.569a1.392,1.392,0,0,1,.122.161,9.241,9.241,0,0,1-5.955,2.484m2.333-3.867c.022-.354-.126-.642-.527-.63s-.514.322-.5.689c.01.346.12.617.513.62.429,0,.53-.289.517-.679" transform="translate(-5963 -7740.468)" fill="#f95c3d"/>
    <path id="Trazado_277524" data-name="Trazado 277524" d="M1173.877,268.846c.187.173.38.34.561.519.463.457.463.462-.022.858a12.265,12.265,0,0,1-6.761,2.773c-.422.04-.594-.066-.539-.508a8.787,8.787,0,0,0,.024-.921,10.317,10.317,0,0,0,5.8-2.011c.319-.226.623-.473.934-.71" transform="translate(-5963 -7740.468)" fill="#f85d3d"/>
    <path id="Trazado_277525" data-name="Trazado 277525" d="M1177.373,261.337c.256-.006.511-.017.767-.018.706,0,.716,0,.644.685a12.29,12.29,0,0,1-2.847,6.73c-.258.311-.423.31-.662.01-.191-.238-.416-.449-.625-.672.1-.136.2-.275.3-.407a10.391,10.391,0,0,0,2.418-6.328" transform="translate(-5963 -7740.468)" fill="#f85d3d"/>
    <path id="Trazado_277526" data-name="Trazado 277526" d="M1177.373,261.337a10.391,10.391,0,0,1-2.418,6.328c-.107.132-.2.271-.3.407a3.938,3.938,0,0,1-.779-.779,9.137,9.137,0,0,0,2.356-4.786c.072-.383.087-.777.128-1.166l1.018,0" transform="translate(-5963 -7740.468)" fill="#fdc7bf"/>
    <path id="Trazado_277527" data-name="Trazado 277527" d="M1173.877,268.846c-.311.237-.615.484-.934.71a10.317,10.317,0,0,1-5.8,2.011c0-.339,0-.679,0-1.018a9.244,9.244,0,0,0,5.954-2.484,4.262,4.262,0,0,1,.779.781" transform="translate(-5963 -7740.468)" fill="#fdc7bf"/>
    <path id="Trazado_277528" data-name="Trazado 277528" d="M1176.349,260.27a9.36,9.36,0,0,0-1.264-4.313c-.185-.328-.32-.646.074-.881.433-.259.644.065.831.395a10.163,10.163,0,0,1,1.383,4.8l-1.024,0" transform="translate(-5963 -7740.468)" fill="#fdc7bf"/>
    <path id="Trazado_277529" data-name="Trazado 277529" d="M1166.078,271.567a9.073,9.073,0,0,1-2.462-.394c-.38-.1-.6-.292-.49-.68.1-.369.394-.407.739-.314a9.2,9.2,0,0,0,2.211.365c0,.341,0,.682,0,1.023" transform="translate(-5963 -7740.468)" fill="#fdc7bf"/>
    <path id="Trazado_277530" data-name="Trazado 277530" d="M1177.774,245.112a7.842,7.842,0,0,1-3.927-1.244,1.278,1.278,0,0,0-1.1-.195c-.459.127-.933.2-1.4.306-.3.07-.4-.011-.331-.323.115-.5.182-1.009.323-1.5a1.1,1.1,0,0,0-.179-.957,8.225,8.225,0,0,1,1.115-10.261,8.332,8.332,0,0,1,14.211,4.8c.651,5.063-3.224,9.378-8.713,9.376m-1.9-13.411c-.177-.227-.377-.393-.685-.247-.33.156-.326.434-.262.732l-.648.734a.652.652,0,0,0-.863.408,7.7,7.7,0,0,0-.762,3.969c.153,3.563,2.525,5.8,6.033,5.636a5.2,5.2,0,0,0,4.954-3.254,1.711,1.711,0,0,0,.137-1.047,1.743,1.743,0,0,0-1.519-1.387,1.693,1.693,0,0,0-1.7.985,1.9,1.9,0,0,1-1.1,1.139,3.667,3.667,0,0,1-1.569.115,1.782,1.782,0,0,1-1.654-1.374,4.909,4.909,0,0,1,.02-2.727,1.739,1.739,0,0,1,.946-1.149,2.541,2.541,0,0,1,3.34,1.024,1.7,1.7,0,0,0,3.057-1.5,4.68,4.68,0,0,0-.938-1.454,5.944,5.944,0,0,0-5.363-1.622.552.552,0,0,0-.509.647,2.045,2.045,0,0,0-.913.371" transform="translate(-5963 -7740.468)" fill="#70bfe6"/>
    <path id="Trazado_277531" data-name="Trazado 277531" d="M1161.735,270.339c-.47-.015-1-.453-.954-.762a.508.508,0,0,1,.513-.473c.374-.012.912.437.9.747a.444.444,0,0,1-.463.488" transform="translate(-5963 -7740.468)" fill="#fdc7bf"/>
    <path id="Trazado_277532" data-name="Trazado 277532" d="M1173.675,257.572c.008.4-.111.681-.536.669-.393-.012-.49-.287-.5-.634-.006-.371.114-.673.515-.675s.539.293.518.64" transform="translate(-5963 -7740.468)" fill="#090701"/>
    <path id="Trazado_277533" data-name="Trazado 277533" d="M1169.477,266.682c.013.39-.088.683-.517.679-.393,0-.5-.274-.513-.62-.011-.367.1-.676.5-.689s.549.276.527.63" transform="translate(-5963 -7740.468)" fill="#090701"/>
    <path id="Trazado_277534" data-name="Trazado 277534" d="M1176.792,231.33a.552.552,0,0,1,.508-.647,5.944,5.944,0,0,1,5.363,1.622,4.685,4.685,0,0,1,.939,1.454,1.7,1.7,0,0,1-3.057,1.5,2.542,2.542,0,0,0-3.34-1.024,1.74,1.74,0,0,0-.947,1.149,4.91,4.91,0,0,0-.019,2.727,1.781,1.781,0,0,0,1.653,1.374,3.672,3.672,0,0,0,1.57-.115,1.9,1.9,0,0,0,1.1-1.139,1.694,1.694,0,0,1,1.7-.985,1.744,1.744,0,0,1,1.52,1.387,1.711,1.711,0,0,1-.138,1.047,5.2,5.2,0,0,1-4.954,3.254c-3.508.162-5.879-2.073-6.033-5.636a7.7,7.7,0,0,1,.763-3.969.653.653,0,0,1,.863-.408.612.612,0,0,1,.107.788,6.367,6.367,0,0,0-.7,3.561c.153,3.005,2.035,4.772,4.954,4.642a4.225,4.225,0,0,0,4.052-2.6.67.67,0,0,0-.3-.958.634.634,0,0,0-.924.362,3.407,3.407,0,0,1-6.348-.82,6.761,6.761,0,0,1-.035-1.938,2.931,2.931,0,0,1,2.445-2.881c1.582-.26,3.14.042,3.853,1.576a.675.675,0,0,0,.971.366.682.682,0,0,0,.24-.978,3.939,3.939,0,0,0-1.94-1.954,5.743,5.743,0,0,0-3.056-.4c-.348.037-.65.013-.811-.356" transform="translate(-5963 -7740.468)" fill="#040606"/>
    <path id="Trazado_277535" data-name="Trazado 277535" d="M1176.792,231.33c.161.369.463.393.811.356a5.743,5.743,0,0,1,3.056.4,3.939,3.939,0,0,1,1.94,1.954.682.682,0,0,1-.24.978.675.675,0,0,1-.971-.366c-.713-1.534-2.271-1.836-3.853-1.576a2.931,2.931,0,0,0-2.445,2.881,6.761,6.761,0,0,0,.035,1.938,3.407,3.407,0,0,0,6.348.82.634.634,0,0,1,.924-.362.67.67,0,0,1,.3.958,4.225,4.225,0,0,1-4.052,2.6c-2.919.13-4.8-1.637-4.954-4.642a6.367,6.367,0,0,1,.7-3.561.612.612,0,0,0-.107-.788l.647-.734a.567.567,0,0,0,.716.161.509.509,0,0,0,.232-.646,2.041,2.041,0,0,1,.913-.371" transform="translate(-5963 -7740.468)" fill="#eaeaea"/>
    <path id="Trazado_277536" data-name="Trazado 277536" d="M1175.878,231.7a.509.509,0,0,1-.232.646.566.566,0,0,1-.715-.161c-.064-.3-.068-.576.262-.732.308-.146.508.02.685.247" transform="translate(-5963 -7740.468)" fill="#040606"/>
  </g>
</svg>
