<svg xmlns="http://www.w3.org/2000/svg" width="71.869" height="71.87" viewBox="0 0 71.869 71.87">
  <g id="Grupo_261810" data-name="Grupo 261810" transform="translate(4979.777 6848.292)">
    <path id="Trazado_277656" data-name="Trazado 277656" d="M809.223,337.643a35.934,35.934,0,1,0,35.935-35.935,35.935,35.935,0,0,0-35.935,35.935" transform="translate(-5789 -7150)" fill="#fff"/>
    <path id="Trazado_277657" data-name="Trazado 277657" d="M820.106,344.342a26.267,26.267,0,0,1,3.81-3.407,33.474,33.474,0,0,1,15.286-6.624q17.638-2.729,30.625,9.612c.514.488.508.868,0,1.376q-2.173,2.184-4.359,4.356a.639.639,0,0,0-.207.678,9.868,9.868,0,0,1-.1,4.79,8.26,8.26,0,0,1-4.815,5.262,22.586,22.586,0,0,1-7.3,1.852,77.67,77.67,0,0,1-13.867.184,25.708,25.708,0,0,1-9.2-2.024,8.369,8.369,0,0,1-4.657-4.685,9.615,9.615,0,0,1-.29-5.392.642.642,0,0,0-.217-.676c-1.39-1.376-2.77-2.762-4.154-4.145-.189-.189-.376-.38-.564-.57Zm42.268,2.921.008.01-.082-.131.015.012-.129-.189.006.007a.509.509,0,0,0-.2-.3l.006.007c-.145-.213-.279-.435-.438-.637a16.389,16.389,0,0,0-4.513-3.868c-.445-.269-.718-.239-.957.205-.12.108-.245.21-.359.324q-2.387,2.381-4.769,4.765c-.468.467-.918.522-1.274.167s-.3-.8.164-1.274c.424-.428.852-.851,1.277-1.279l3.435-3.467a1.4,1.4,0,0,0,.439-.462c-.11-.049-.21-.1-.312-.139a24.815,24.815,0,0,0-12.591-1.685,21.911,21.911,0,0,0-9.8,3.459,13.593,13.593,0,0,0-4,3.892l.006-.007a.53.53,0,0,0-.207.306l-.07.111-.115.186a9.115,9.115,0,0,0-.915,1.819.519.519,0,0,0,.141.674c1.027,1,2.033,2.024,3.048,3.038a6.62,6.62,0,0,0,1.306,1.02,6.489,6.489,0,0,0,7.887-.949,8.133,8.133,0,0,1,11.51-.017,6.491,6.491,0,0,0,9.229-.07c1.022-1.007,2.022-2.036,3.05-3.036a.494.494,0,0,0,.133-.634,9.4,9.4,0,0,0-.858-1.746l-.075-.11m-40.019-2.331,3.327,3.219c.19-.38.382-.812.613-1.221a16.487,16.487,0,0,1,7.488-6.779,26.01,26.01,0,0,1,19.163-1.418,19.521,19.521,0,0,1,9.253,5.656,13.745,13.745,0,0,1,2.408,3.758l3.34-3.215c.387-.2.3-.372.024-.632a33.622,33.622,0,0,0-45.64,0c-.282.259-.363.434.024.632m4.105,6.342a7.138,7.138,0,0,0,1.3,5.589,8.416,8.416,0,0,0,3.815,2.534,27.566,27.566,0,0,0,7.794,1.461,73.841,73.841,0,0,0,14.25-.277,19.779,19.779,0,0,0,6.24-1.667,6.824,6.824,0,0,0,3.439-3.257,6.923,6.923,0,0,0,.464-4.309c-.157.091-.228.244-.339.356-.8.81-1.591,1.639-2.429,2.412a7.884,7.884,0,0,1-6.8,2.077,8.185,8.185,0,0,1-4.523-2.325,6.338,6.338,0,0,0-5.761-1.7,6.731,6.731,0,0,0-3.469,1.869,8.1,8.1,0,0,1-11.425-.192c-.821-.83-1.646-1.656-2.552-2.568" transform="translate(-5789 -7150)" fill="#040403"/>
    <path id="Trazado_277658" data-name="Trazado 277658" d="M820.1,323.895c.227-.279.183-.636.268-.955a9.26,9.26,0,0,1,5.651-6.476.462.462,0,0,0,.348-.527,10.017,10.017,0,0,1,0-1.32c.029-.361-.106-.439-.435-.414a9.386,9.386,0,0,1-1.125,0,.775.775,0,0,1-.793-.762.765.765,0,0,1,.807-.8q4.672-.012,9.343,0a.765.765,0,0,1,.8.8.778.778,0,0,1-.8.756c-.423.015-.848.014-1.271,0-.211-.007-.309.052-.274.271a.64.64,0,0,1,0,.1,4.838,4.838,0,0,0,.04,1.6c.186.492.893.466,1.331.753a8.987,8.987,0,0,1,1.214.813c.283.26.445.2.666-.056.255-.295.544-.562.827-.832a.786.786,0,1,1,1.121,1.09c-.291.308-.585.616-.9.9-.211.188-.24.316-.051.556a9.242,9.242,0,0,1,2,6.23,9.4,9.4,0,0,1-18.634,1.2c-.022-.127.043-.306-.139-.382Zm10.191-5.671c-.005,1.94,0,3.879-.024,5.818,0,.352.165.345.415.345,1.891-.006,3.781,0,5.672,0,.979,0,1-.007.76-.961a7.578,7.578,0,0,0-4.348-5.321,5.2,5.2,0,0,0-1.64-.582c-.884-.195-.885-.194-.835.7m-6.1,12.66a7.534,7.534,0,0,0,7.042,1.9,7.722,7.722,0,0,0,6.011-6.836h-7.471c-.825,0-1.063-.245-1.065-1.083l-.015-6.058a8.158,8.158,0,0,1,.022-.926c.056-.427-.1-.553-.5-.441-.062.018-.127.024-.191.037a7.789,7.789,0,0,0-6.253,8.91,7.19,7.19,0,0,0,2.419,4.495m5.334-16.674c-.1,0-.2,0-.292,0-.419.009-1-.145-1.216.069-.278.278-.052.858-.1,1.3-.025.267.07.331.324.29a7.377,7.377,0,0,1,2.23-.034c.579.084.58.08.58-.528,0-.26-.015-.521,0-.779s-.054-.343-.318-.328c-.4.023-.811.006-1.217.006" transform="translate(-5789 -7150)" fill="#020202"/>
    <path id="Trazado_277659" data-name="Trazado 277659" d="M828.032,347.088l.071-.112c.223,0,.226-.143.207-.305l-.007.007c.239.028.34-.168.474-.3.545-.531,1.043-1.12,1.633-1.593a20.99,20.99,0,0,1,6.838-3.639,25.216,25.216,0,0,1,7.4-1.2,24.705,24.705,0,0,1,2.579.073,33.055,33.055,0,0,1,4.167.647c1.077.242,2.1.658,3.165.946q-1.717,1.734-3.435,3.467c-.424.428-.852.852-1.276,1.28-.465.469-.521.917-.164,1.273s.806.3,1.274-.166q2.385-2.382,4.768-4.765c.114-.114.24-.216.36-.324a16.737,16.737,0,0,1,5.267,3.827c.174.193.31.476.641.473l-.006-.007c-.017.156-.028.309.2.3l-.006-.007c-.006.1.007.179.128.188l-.014-.011.082.131-.008-.01.075.11a9.365,9.365,0,0,1,.857,1.746.494.494,0,0,1-.132.633c-1.028,1-2.028,2.03-3.05,3.036a6.491,6.491,0,0,1-9.229.071,8.131,8.131,0,0,0-11.51.017,6.492,6.492,0,0,1-7.888.949,6.684,6.684,0,0,1-1.3-1.021c-1.015-1.013-2.021-2.036-3.049-3.037a.519.519,0,0,1-.14-.674,9.089,9.089,0,0,1,.915-1.819c.087-.032.1-.107.114-.186m13.982-5.929a.8.8,0,0,0-1.432-.4q-2.835,2.835-5.667,5.671A.789.789,0,1,0,836,347.551q2.859-2.844,5.706-5.7a.94.94,0,0,0,.3-.691m7.435.035a.79.79,0,0,0-.5-.7.759.759,0,0,0-.887.217q-2.871,2.867-5.736,5.74a.786.786,0,1,0,1.107,1.1q2.859-2.844,5.707-5.7a.947.947,0,0,0,.311-.664" transform="translate(-5789 -7150)" fill="#f4c273"/>
    <path id="Trazado_277660" data-name="Trazado 277660" d="M826.46,351.274c.906.912,1.731,1.738,2.552,2.568a8.1,8.1,0,0,0,11.425.192,6.731,6.731,0,0,1,3.469-1.869,6.338,6.338,0,0,1,5.761,1.7,8.185,8.185,0,0,0,4.523,2.325,7.884,7.884,0,0,0,6.8-2.077c.838-.773,1.626-1.6,2.429-2.412.111-.112.182-.265.339-.356a6.923,6.923,0,0,1-.464,4.309,6.824,6.824,0,0,1-3.439,3.257,19.779,19.779,0,0,1-6.24,1.667,73.841,73.841,0,0,1-14.25.277,27.566,27.566,0,0,1-7.794-1.461,8.416,8.416,0,0,1-3.815-2.534,7.138,7.138,0,0,1-1.3-5.589" transform="translate(-5789 -7150)" fill="#fdeea8"/>
    <path id="Trazado_277661" data-name="Trazado 277661" d="M867.946,344.932l-3.339,3.215a13.773,13.773,0,0,0-2.409-3.758,19.516,19.516,0,0,0-9.253-5.656,26.01,26.01,0,0,0-19.163,1.418,16.485,16.485,0,0,0-7.487,6.779c-.231.409-.423.841-.613,1.221l-3.328-3.219c.119-.388.486-.559.759-.783a34.5,34.5,0,0,1,13.578-6.956,36.869,36.869,0,0,1,7.19-1.059,29.348,29.348,0,0,1,5.107.207,33.156,33.156,0,0,1,5.425,1.062,35.059,35.059,0,0,1,5.825,2.21,34.225,34.225,0,0,1,6.381,4.079,4.808,4.808,0,0,1,1.327,1.24" transform="translate(-5789 -7150)" fill="#e4eefd"/>
    <path id="Trazado_277662" data-name="Trazado 277662" d="M867.946,344.932a4.808,4.808,0,0,0-1.327-1.24,34.225,34.225,0,0,0-6.381-4.079,35.059,35.059,0,0,0-5.825-2.21,33.156,33.156,0,0,0-5.425-1.062,29.348,29.348,0,0,0-5.107-.207,36.869,36.869,0,0,0-7.19,1.059,34.5,34.5,0,0,0-13.578,6.956c-.273.224-.64.4-.759.783-.387-.2-.306-.373-.024-.632a33.574,33.574,0,0,1,45.64,0c.281.26.363.435-.024.632" transform="translate(-5789 -7150)" fill="#ebf0f9"/>
    <path id="Trazado_277663" data-name="Trazado 277663" d="M854.563,341.613c-1.063-.289-2.088-.7-3.166-.946a33.015,33.015,0,0,0-4.166-.647,24.741,24.741,0,0,0-2.58-.073,25.21,25.21,0,0,0-7.4,1.2,20.977,20.977,0,0,0-6.838,3.638c-.591.474-1.088,1.063-1.633,1.594-.135.13-.236.327-.474.3a13.6,13.6,0,0,1,4-3.891,21.911,21.911,0,0,1,9.8-3.459,24.813,24.813,0,0,1,12.591,1.685c.1.042.2.089.313.138a1.4,1.4,0,0,1-.44.462" transform="translate(-5789 -7150)" fill="#f0dab3"/>
    <path id="Trazado_277664" data-name="Trazado 277664" d="M862,346.677c-.331,0-.466-.28-.641-.472a16.713,16.713,0,0,0-5.267-3.828c.239-.444.512-.474.957-.205a16.407,16.407,0,0,1,4.513,3.868c.159.2.293.424.438.637" transform="translate(-5789 -7150)" fill="#eed8b1"/>
    <path id="Trazado_277665" data-name="Trazado 277665" d="M828.31,346.671c.018.162.016.308-.208.306a.532.532,0,0,1,.208-.306" transform="translate(-5789 -7150)" fill="#f0dab3"/>
    <path id="Trazado_277666" data-name="Trazado 277666" d="M862.192,346.972c-.228.007-.217-.145-.2-.3a.511.511,0,0,1,.2.3" transform="translate(-5789 -7150)" fill="#eed8b1"/>
    <path id="Trazado_277667" data-name="Trazado 277667" d="M862.314,347.154c-.122-.009-.134-.093-.128-.189l.128.189" transform="translate(-5789 -7150)" fill="#eed8b1"/>
    <path id="Trazado_277668" data-name="Trazado 277668" d="M828.032,347.089c-.011.079-.028.154-.115.186Z" transform="translate(-5789 -7150)" fill="#f0dab3"/>
    <path id="Trazado_277669" data-name="Trazado 277669" d="M862.381,347.273l-.082-.131.082.131" transform="translate(-5789 -7150)" fill="#eed8b1"/>
    <path id="Trazado_277670" data-name="Trazado 277670" d="M862.448,347.373c-.025-.037-.05-.073-.074-.11.024.037.049.073.074.11" transform="translate(-5789 -7150)" fill="#eed8b1"/>
    <path id="Trazado_277671" data-name="Trazado 277671" d="M828.7,318.809l.015,6.058c0,.838.24,1.083,1.065,1.083h7.47a7.721,7.721,0,0,1-6.01,6.837,7.537,7.537,0,0,1-7.042-1.9.7.7,0,0,0-.119-.415,8.671,8.671,0,0,1-.722-5.213,8.386,8.386,0,0,1,3.661-5.635,3.785,3.785,0,0,1,1.682-.812" transform="translate(-5789 -7150)" fill="#e5effd"/>
    <path id="Trazado_277672" data-name="Trazado 277672" d="M832.771,318.1a7.572,7.572,0,0,1,4.347,5.32c.244.955.22.961-.759.961q-2.836,0-5.673,0c-.249,0-.419.008-.415-.344.024-1.939.02-3.879.025-5.818a23.516,23.516,0,0,1,2.475-.122" transform="translate(-5789 -7150)" fill="#f35d3c"/>
    <path id="Trazado_277673" data-name="Trazado 277673" d="M828.7,318.809a3.785,3.785,0,0,0-1.682.812,8.386,8.386,0,0,0-3.661,5.635,8.671,8.671,0,0,0,.722,5.213.7.7,0,0,1,.119.415,7.18,7.18,0,0,1-2.419-4.495,7.789,7.789,0,0,1,6.253-8.91c.063-.013.129-.019.191-.037.4-.112.555.014.5.441a8.158,8.158,0,0,0-.022.926" transform="translate(-5789 -7150)" fill="#d4e1f4"/>
    <path id="Trazado_277674" data-name="Trazado 277674" d="M829.531,314.21c.406,0,.812.017,1.217-.006.264-.015.337.079.318.328s0,.519,0,.779c0,.608,0,.612-.58.528a7.377,7.377,0,0,0-2.23.034c-.254.041-.349-.023-.324-.29.043-.446-.183-1.026.1-1.3.214-.214.8-.06,1.216-.069.1,0,.2,0,.292,0" transform="translate(-5789 -7150)" fill="#e4eefd"/>
    <path id="Trazado_277675" data-name="Trazado 277675" d="M832.771,318.1a23.516,23.516,0,0,0-2.475.122c-.05-.9-.05-.9.835-.705a5.2,5.2,0,0,1,1.64.583" transform="translate(-5789 -7150)" fill="#db442d"/>
    <path id="Trazado_277676" data-name="Trazado 277676" d="M842.014,341.159a.944.944,0,0,1-.3.692q-2.853,2.85-5.706,5.7a.789.789,0,1,1-1.088-1.123q2.829-2.841,5.667-5.672a.8.8,0,0,1,1.432.4" transform="translate(-5789 -7150)" fill="#060504"/>
    <path id="Trazado_277677" data-name="Trazado 277677" d="M849.449,341.194a.947.947,0,0,1-.311.664q-2.855,2.85-5.707,5.7a.786.786,0,1,1-1.107-1.1q2.862-2.877,5.736-5.74a.759.759,0,0,1,.887-.217.79.79,0,0,1,.5.7" transform="translate(-5789 -7150)" fill="#060504"/>
  </g>
</svg>
