<svg xmlns="http://www.w3.org/2000/svg" width="71.869" height="71.87" viewBox="0 0 71.869 71.87">
  <g id="Grupo_261811" data-name="Grupo 261811" transform="translate(4979.777 6614.292)">
    <path id="Trazado_277683" data-name="Trazado 277683" d="M809.223,571.643a35.934,35.934,0,1,0,35.935-35.935,35.935,35.935,0,0,0-35.935,35.935" transform="translate(-5789 -7150)" fill="#fff"/>
    <path id="Trazado_277684" data-name="Trazado 277684" d="M837.147,546.966a4.031,4.031,0,0,1,1.361,2.423,5.009,5.009,0,0,1-.391,3.842,3.444,3.444,0,0,0-.028,3.27,2.589,2.589,0,0,1,.442,1.18,1.038,1.038,0,0,1-1.921.554,5.829,5.829,0,0,1-.362-5.96,3.177,3.177,0,0,0,.017-2.951c-.122-.26-.245-.519-.365-.78a1.057,1.057,0,0,1,.462-1.5c.038-.022.089-.024.094-.082Z" transform="translate(-5789 -7150)" fill="#7b3fb5"/>
    <path id="Trazado_277685" data-name="Trazado 277685" d="M841.638,546.966a3.712,3.712,0,0,1,.88,5.071,1.376,1.376,0,0,0-.005,1.783,1.964,1.964,0,0,1,.509,1.067,1.023,1.023,0,0,1-.689,1.005,1.012,1.012,0,0,1-1.152-.311,4.131,4.131,0,0,1-1.068-2.967,3.442,3.442,0,0,1,.579-1.631,1.461,1.461,0,0,0,0-1.985,1.932,1.932,0,0,1-.444-.916,1.184,1.184,0,0,1,.7-1.116Z" transform="translate(-5789 -7150)" fill="#7b3fb5"/>
    <path id="Trazado_277686" data-name="Trazado 277686" d="M837.5,559.049a1.362,1.362,0,0,1-1.173-.652,6.127,6.127,0,0,1-.367-6.271,2.866,2.866,0,0,0,.01-2.664l-.028-.059q-.169-.36-.338-.722a1.376,1.376,0,0,1,.54-1.879l.014-.159h1.086l.083.057a4.034,4.034,0,0,1,1.431,2.408l.057.186a5.307,5.307,0,0,1-.413,4.086,3.127,3.127,0,0,0-.025,2.979c.038.078.081.155.123.232a2.159,2.159,0,0,1,.352,1.1,1.352,1.352,0,0,1-1.352,1.361m-.986-11.716a.736.736,0,0,0-.323,1.076c.111.239.224.48.336.719l.028.059a3.48,3.48,0,0,1-.022,3.237,5.462,5.462,0,0,0,.354,5.65.715.715,0,0,0,1.318-.4,1.585,1.585,0,0,0-.272-.774c-.045-.083-.093-.169-.136-.257a3.785,3.785,0,0,1,.03-3.56,4.677,4.677,0,0,0,.369-3.6l-.057-.19a3.57,3.57,0,0,0-1.1-2H836.6a.5.5,0,0,1-.084.043m.008-.005Z" transform="translate(-5789 -7150)"/>
    <path id="Trazado_277687" data-name="Trazado 277687" d="M841.963,556.282a1.3,1.3,0,0,1-1.038-.5,4.451,4.451,0,0,1-1.133-3.194,3.733,3.733,0,0,1,.633-1.781,1.153,1.153,0,0,0,0-1.628c-.033-.051-.068-.1-.1-.151a1.783,1.783,0,0,1-.393-.919,1.507,1.507,0,0,1,.844-1.411l.079-.05h.9l.088.069a4.055,4.055,0,0,1,.944,5.512,1.066,1.066,0,0,0,0,1.422c.043.066.09.132.141.2a1.712,1.712,0,0,1,.42,1.042,1.346,1.346,0,0,1-.9,1.306,1.422,1.422,0,0,1-.481.085m-.919-8.992c-.366.248-.49.457-.469.771a1.219,1.219,0,0,0,.279.594c.039.056.077.111.113.167a1.775,1.775,0,0,1-.007,2.343,3.125,3.125,0,0,0-.525,1.481,3.873,3.873,0,0,0,1,2.739.686.686,0,0,0,.785.2.7.7,0,0,0,.476-.7,1.151,1.151,0,0,0-.3-.659c-.053-.074-.108-.151-.159-.231a1.685,1.685,0,0,1,.014-2.144,3.361,3.361,0,0,0-.731-4.561Z" transform="translate(-5789 -7150)"/>
    <path id="Trazado_277688" data-name="Trazado 277688" d="M866.253,578.8a1.655,1.655,0,0,0-.151.777,18.136,18.136,0,0,1-1.4,4.832A29.883,29.883,0,0,1,862,589.557a16.737,16.737,0,0,1-7.108,6.042,11.375,11.375,0,0,1-10.467-.488,10.6,10.6,0,0,1-4.4-3.962,19.076,19.076,0,0,1-1.521-4.062,12.056,12.056,0,0,0-2.37-4.641,11.249,11.249,0,0,0-3.046-2.41c-1.558-.862-3.235-1.472-4.813-2.292a7.152,7.152,0,0,1-3.135-2.638,6.8,6.8,0,0,1,.071-7.472,13.541,13.541,0,0,1,8.367-5.872,35.893,35.893,0,0,1,10.984-.862,36.869,36.869,0,0,1,7.911,1.192,21.037,21.037,0,0,1,9.818,5.547,13.765,13.765,0,0,1,3.873,8.118c.009.084-.047.2.085.243Zm-5.34-10.725a2.765,2.765,0,0,0-.189-.213,20.213,20.213,0,0,0-8.5-4.537,36.447,36.447,0,0,0-7.87-1.176,35.554,35.554,0,0,0-9.049.523,14.917,14.917,0,0,0-5.564,2.111,5.475,5.475,0,0,0-1.194,8.066,6.506,6.506,0,0,0,2.414,1.668c1.428.625,2.885,1.183,4.31,1.812a10.746,10.746,0,0,1,5.835,5.726,37.886,37.886,0,0,1,1.282,4.11,8.16,8.16,0,0,0,1.047,2.522,5.276,5.276,0,0,0,2.079,2.048,12.393,12.393,0,0,0,4.376,1.448,11.092,11.092,0,0,0,6.538-.846,13.967,13.967,0,0,0,6.764-6.688c2-3.985,2.518-8.1.75-12.329a11.69,11.69,0,0,0-3.025-4.245m-34.84.589a5.867,5.867,0,0,0,.324,6.067,6.815,6.815,0,0,0,2.525,1.931c1.352.659,2.739,1.25,4.092,1.912a11.915,11.915,0,0,1,5.8,5.713,28.114,28.114,0,0,1,1.272,3.684,10.023,10.023,0,0,0,1.726,3.561,11.915,11.915,0,0,0,4.773,3.181,8.831,8.831,0,0,0,4.547.613,12.7,12.7,0,0,0,6.754-3.05c.084-.07.223-.119.193-.277-.03-.009-.061-.031-.079-.023-.162.073-.323.146-.481.227a12.678,12.678,0,0,1-3.932,1.256,14.255,14.255,0,0,1-7.331-.966,7.676,7.676,0,0,1-4.793-5.066c-.324-1.033-.6-2.078-.894-3.117a10.393,10.393,0,0,0-2.649-4.753,12.47,12.47,0,0,0-4.038-2.476,35.153,35.153,0,0,1-4.615-2.039,6.083,6.083,0,0,1-2.815-3.405,8.751,8.751,0,0,1-.378-2.973" transform="translate(-5789 -7150)" fill="#040303"/>
    <path id="Trazado_277689" data-name="Trazado 277689" d="M843.431,588.686a8.1,8.1,0,0,1-1.046-2.523,37.942,37.942,0,0,0-1.283-4.109,10.745,10.745,0,0,0-5.834-5.726c-1.426-.629-2.883-1.188-4.311-1.812a6.5,6.5,0,0,1-2.414-1.669,5.476,5.476,0,0,1,1.194-8.065,14.881,14.881,0,0,1,5.565-2.111,35.6,35.6,0,0,1,9.048-.524,36.468,36.468,0,0,1,7.871,1.177,20.213,20.213,0,0,1,8.5,4.536c.069.065.127.142.19.213a.585.585,0,0,0,.089.391,12.644,12.644,0,0,1,1.037,3.382.639.639,0,0,1-.08.62,13.462,13.462,0,0,0-3.514-4.185,19.529,19.529,0,0,0-7.634-3.472,40.693,40.693,0,0,0-7.4-1.024,27.067,27.067,0,0,0-8.166.623,12.927,12.927,0,0,0-4.525,1.864c-2.188,1.572-2.341,4.023-.373,5.8a7.436,7.436,0,0,0,2.227,1.288c.508.208.722.141,1.031-.327a12.4,12.4,0,0,0,1.522.606.763.763,0,0,0,.525.935c.522.235,1.037.493,1.536.775a12.091,12.091,0,0,1,4.881,4.684,21.773,21.773,0,0,1,1.787,4.918,11.654,11.654,0,0,0,.814,2.357,5.71,5.71,0,0,0,2.035,2.092,6,6,0,0,1-1.235-.2c-.683-.166-1.363-.341-2.044-.512" transform="translate(-5789 -7150)" fill="#efe5d4"/>
    <path id="Trazado_277690" data-name="Trazado 277690" d="M826.073,568.663a8.751,8.751,0,0,0,.378,2.973,6.083,6.083,0,0,0,2.815,3.405,35.153,35.153,0,0,0,4.615,2.039,12.47,12.47,0,0,1,4.038,2.476,10.393,10.393,0,0,1,2.649,4.753c.3,1.039.57,2.084.894,3.117a7.676,7.676,0,0,0,4.793,5.066,14.255,14.255,0,0,0,7.331.966,12.678,12.678,0,0,0,3.932-1.256c.158-.081.319-.154.481-.227.018-.008.049.014.079.023.03.158-.109.207-.193.277a12.7,12.7,0,0,1-6.754,3.05,8.831,8.831,0,0,1-4.547-.613,11.915,11.915,0,0,1-4.773-3.181,10.023,10.023,0,0,1-1.726-3.561,28.114,28.114,0,0,0-1.272-3.684,11.915,11.915,0,0,0-5.8-5.713c-1.353-.662-2.74-1.253-4.092-1.912a6.815,6.815,0,0,1-2.525-1.931,5.867,5.867,0,0,1-.324-6.067" transform="translate(-5789 -7150)" fill="#e63841"/>
    <path id="Trazado_277691" data-name="Trazado 277691" d="M861.96,572.466a.639.639,0,0,0,.08-.62A12.679,12.679,0,0,0,861,568.464a.592.592,0,0,1-.09-.391,11.663,11.663,0,0,1,3.023,4.246c1.768,4.223,1.253,8.343-.749,12.329a13.969,13.969,0,0,1-6.763,6.688,11.1,11.1,0,0,1-6.539.846,12.374,12.374,0,0,1-4.376-1.449,5.273,5.273,0,0,1-2.079-2.047c.681.171,1.361.346,2.044.512a6,6,0,0,0,1.235.2c.309.146.61.31.927.433a10.179,10.179,0,0,0,10.116-1.361,13.065,13.065,0,0,0,5.384-9.538c.061-.523-.032-.66-.529-.876q-.042-.832-.083-1.667c.487-.258.552-.416.456-.949a12.778,12.778,0,0,0-1.021-2.973" transform="translate(-5789 -7150)" fill="#e2d3be"/>
    <path id="Trazado_277692" data-name="Trazado 277692" d="M861.96,572.466a12.787,12.787,0,0,1,1.021,2.972c.1.534.031.692-.456.95-.546-.075-.663-.171-.791-.769a12.283,12.283,0,0,0-1.416-3.47,1.3,1.3,0,0,0-1.558-.737,18.063,18.063,0,0,0-8.983,2.077l.976.758a12.4,12.4,0,0,1,3.955,4.958c.46,1.085.863,2.19,1.267,3.295a27.662,27.662,0,0,0,.974,2.958,3.843,3.843,0,0,0,.617,1.013c.21.251.353.311.632.03a12.735,12.735,0,0,0,3.688-7.613c.072-.582.185-.719.722-.833.5.215.589.352.528.875a13.066,13.066,0,0,1-5.383,9.539,10.179,10.179,0,0,1-10.116,1.361c-.317-.123-.618-.288-.927-.433a5.713,5.713,0,0,1-2.035-2.093,11.616,11.616,0,0,1-.815-2.357,21.73,21.73,0,0,0-1.786-4.917,12.1,12.1,0,0,0-4.881-4.685c-.5-.281-1.014-.539-1.537-.775a.762.762,0,0,1-.524-.934c.377-.413.533-.446,1.037-.215.248.114.5.227.742.351a15.056,15.056,0,0,1,5.281,4.15,16.315,16.315,0,0,1,2.578,5.588,23.049,23.049,0,0,0,.814,2.7,3.669,3.669,0,0,0,1.941,2.173,8.276,8.276,0,0,0,5.658.75,9.725,9.725,0,0,0,3.7-1.563,5.3,5.3,0,0,1-1.308-2.179c-.2-.551-.388-1.1-.581-1.658a28.451,28.451,0,0,0-1.155-3.372,11.086,11.086,0,0,0-2.294-3.713,24.823,24.823,0,0,0-7.281-4.84c-.225-.107-.306,0-.428.151a3.1,3.1,0,0,1-2.854,1.213,3.171,3.171,0,0,1-2.851-3.01c-.019-.283-.133-.368-.38-.4-.609-.092-1.214-.208-1.823-.3a36.547,36.547,0,0,0-5.315-.467c-.321,0-.409.1-.376.4a2.421,2.421,0,0,0,.429,1.138,4.866,4.866,0,0,0,2.388,1.665.741.741,0,0,1,.557.839c-.309.467-.523.534-1.031.326a7.433,7.433,0,0,1-2.227-1.287c-1.968-1.774-1.815-4.226.373-5.8a12.93,12.93,0,0,1,4.524-1.864,27.076,27.076,0,0,1,8.167-.623,40.693,40.693,0,0,1,7.4,1.024,19.541,19.541,0,0,1,7.634,3.471,13.465,13.465,0,0,1,3.514,4.186m-31-4.74c.623.031,1.154.044,1.683.085a43.518,43.518,0,0,1,5.534.763.308.308,0,0,0,.369-.164,3.19,3.19,0,0,1,5.947,1.849.36.36,0,0,0,.251.4,30.116,30.116,0,0,1,3.666,1.939.331.331,0,0,0,.408.017,17.658,17.658,0,0,1,7.7-2.391c.673-.069,1.351-.055,2.12-.108-.32-.287-.555-.515-.808-.721a17.482,17.482,0,0,0-7.251-3.345,37.16,37.16,0,0,0-12.246-.911,17.894,17.894,0,0,0-6.036,1.637,4.306,4.306,0,0,0-1.335.95m12.3,2.3a1.948,1.948,0,1,0-1.967,1.921,1.969,1.969,0,0,0,1.967-1.921" transform="translate(-5789 -7150)" fill="#040202"/>
    <path id="Trazado_277693" data-name="Trazado 277693" d="M833.61,573.03a.742.742,0,0,0-.557-.839,4.857,4.857,0,0,1-2.388-1.666,2.413,2.413,0,0,1-.429-1.137c-.033-.3.055-.4.375-.4a36.4,36.4,0,0,1,5.316.467c.609.092,1.214.208,1.823.3.246.037.361.122.38.4a3.172,3.172,0,0,0,2.85,3.01,3.106,3.106,0,0,0,2.855-1.213c.121-.148.2-.258.428-.151a24.8,24.8,0,0,1,7.281,4.84,11.1,11.1,0,0,1,2.294,3.713,28.639,28.639,0,0,1,1.155,3.372c-.42.051-.625.422-.929.64a10.841,10.841,0,0,1-6.049,2.083,14.684,14.684,0,0,1-2.431-.246,22.869,22.869,0,0,1-.815-2.7,16.276,16.276,0,0,0-2.578-5.588,15.037,15.037,0,0,0-5.281-4.15c-.244-.124-.493-.237-.741-.351-.505-.231-.661-.2-1.037.215a12.564,12.564,0,0,1-1.522-.606" transform="translate(-5789 -7150)" fill="#fa4d50"/>
    <path id="Trazado_277694" data-name="Trazado 277694" d="M862.608,578.055c-.537.114-.65.251-.721.833A12.737,12.737,0,0,1,858.2,586.5c-.278.281-.422.221-.632-.03a3.843,3.843,0,0,1-.617-1.013,27.59,27.59,0,0,1-.974-2.958.953.953,0,0,0,.157-.13,13.9,13.9,0,0,0,1.909-3.192,13.652,13.652,0,0,0,1.053-4.724,14.078,14.078,0,0,0-.334-3.042,1.3,1.3,0,0,1,1.558.737,12.283,12.283,0,0,1,1.416,3.47c.129.6.245.694.791.769q.042.834.083,1.667" transform="translate(-5789 -7150)" fill="#e83942"/>
    <path id="Trazado_277695" data-name="Trazado 277695" d="M830.965,567.727a4.327,4.327,0,0,1,1.335-.951,17.892,17.892,0,0,1,6.035-1.636,37.166,37.166,0,0,1,12.247.911,17.482,17.482,0,0,1,7.25,3.344c.253.207.489.435.809.722-.769.052-1.447.038-2.121.108a17.636,17.636,0,0,0-7.7,2.391.333.333,0,0,1-.407-.017,30.271,30.271,0,0,0-3.666-1.94.358.358,0,0,1-.252-.4,3.19,3.19,0,0,0-5.947-1.849.308.308,0,0,1-.368.164,43.708,43.708,0,0,0-5.534-.764c-.529-.04-1.06-.054-1.683-.084" transform="translate(-5789 -7150)" fill="#f94d50"/>
    <path id="Trazado_277696" data-name="Trazado 277696" d="M858.76,571.412a14.078,14.078,0,0,1,.334,3.042,13.652,13.652,0,0,1-1.053,4.724,13.9,13.9,0,0,1-1.909,3.192.953.953,0,0,1-.157.13c-.4-1.1-.806-2.21-1.266-3.295a12.4,12.4,0,0,0-3.956-4.958l-.975-.758a18.067,18.067,0,0,1,8.982-2.077" transform="translate(-5789 -7150)" fill="#fa4d50"/>
    <path id="Trazado_277697" data-name="Trazado 277697" d="M845.584,586.211a14.671,14.671,0,0,0,2.431.246,10.837,10.837,0,0,0,6.049-2.084c.3-.218.509-.589.929-.639.193.553.382,1.107.581,1.658a5.308,5.308,0,0,0,1.308,2.179,9.74,9.74,0,0,1-3.7,1.563,8.27,8.27,0,0,1-5.658-.751,3.665,3.665,0,0,1-1.941-2.172" transform="translate(-5789 -7150)" fill="#e83941"/>
    <path id="Trazado_277698" data-name="Trazado 277698" d="M843.268,570.026a1.948,1.948,0,0,1-3.9.009,1.948,1.948,0,1,1,3.9-.009" transform="translate(-5789 -7150)" fill="#efe5d4"/>
  </g>
</svg>
