<svg xmlns="http://www.w3.org/2000/svg" width="193.939" height="171.244" viewBox="0 0 193.939 171.244">
  <g id="Grupo_261810" data-name="Grupo 261810" transform="translate(8698.402 8249.372)">
    <g id="Grupo_260329" data-name="Grupo 260329">
      <path id="Trazado_277387" data-name="Trazado 277387" d="M266.537,265.923c-.884,1.542-2.223,1.95-3.964,1.949q-92.989-.051-185.98-.029c-.316,0-.632.011-.947,0a2.872,2.872,0,0,1-3.046-2.714,2.843,2.843,0,0,1,3.02-2.945c3.912-.075,7.825-.061,11.738-.084l21.139-.006,41.472.016,21.1,0,6.076-.007,20.819.007,6.076-.008,20.819.007,6.024-.015,10.272.009,10.612,0c3.588.021,7.178.118,10.764.032a4.207,4.207,0,0,1,4,1.9Z" transform="translate(-8771 -8346)" fill="#5fa470"/>
      <path id="Trazado_277388" data-name="Trazado 277388" d="M108.5,262.09l-21.139.006c.011-28.531-.639-57.08.208-85.585C88.5,145.052,103.7,121.58,131.1,106.163c10.428-5.869,21.841-8.69,33.755-9.509.438-.03.88.011,1.321.019,2.583.4,5.186.7,7.748,1.211a82.63,82.63,0,0,1,28.007,10.742,81.269,81.269,0,0,1,21.927,19.618,83.961,83.961,0,0,1,12.6,22.869,73.724,73.724,0,0,1,4.651,24.468c.135,28.837.052,57.675.052,86.513l-10.271-.009q-.027-11.35-.054-22.7.015-30.646.023-61.295a10.8,10.8,0,0,0-.154-1.307c.329-2.831.069-5.671.138-8.506a2.843,2.843,0,0,0,2.669-2.682c.1-1.8-1.146-2.628-2.7-3.1.012-.564.047-1.129.033-1.692-.109-4.205-2.559-6.61-6.738-6.607-1.378,0-2.757.04-4.136.062-.567-.023-1.134-.065-1.7-.065q-51.509,0-103.018,0c-.442,0-.887-.02-1.325.024a5.982,5.982,0,0,0-5.407,5.82c-.025.82-.021,1.641-.031,2.461-1.68.376-2.974,1.233-2.865,3.115.1,1.659,1.255,2.486,2.874,2.663l.063,8.333a12.931,12.931,0,0,0-.012,5.988c-.008,2.965-.021,5.93-.022,8.9q-.017,35.3-.029,70.6M169.36,140.611v.071q13.722,0,27.443-.006c2.258,0,2.666-.429,2.675-2.649q.018-4.543,0-9.085c-.008-2.175-.594-2.757-2.831-2.753-4.479.007-8.957.062-13.436.065q-20.253.014-40.506.007c-2.537,0-3.013.477-3.02,2.943q-.011,4.07,0,8.138c0,3.057.2,3.268,3.177,3.269q13.25,0,26.5,0m.191-31.588c-3.908,0-7.816-.016-11.723.007-2.039.012-3.344,1.143-3.326,2.8s1.325,2.856,3.346,2.865q11.724.052,23.447,0c2.013-.009,3.32-1.232,3.325-2.885s-1.3-2.765-3.346-2.777c-3.907-.022-7.815-.006-11.723-.006" transform="translate(-8771 -8346)" fill="#d72e3d"/>
      <path id="Trazado_277389" data-name="Trazado 277389" d="M241.157,262.093c0-28.838.083-57.676-.052-86.513a73.724,73.724,0,0,0-4.651-24.468,83.976,83.976,0,0,0-12.6-22.869,81.3,81.3,0,0,0-21.927-19.618,82.651,82.651,0,0,0-28.007-10.742c-2.562-.508-5.165-.813-7.749-1.211,27.833-.821,50.49,9.755,68,31.25a79.2,79.2,0,0,1,16.736,38.455,72.165,72.165,0,0,1,.872,11.295q-.048,42.213-.013,84.424l-10.612,0" transform="translate(-8771 -8346)" fill="#c32531"/>
      <path id="Trazado_277390" data-name="Trazado 277390" d="M108.5,262.09q.013-35.3.029-70.6c0-2.965.015-5.93.022-8.9q53.64,0,107.279,0c5.305,0,8.661,3.407,8.662,8.779q0,22.136.015,44.271c0,.779-.32,1.659.433,2.314-.029.1-.054.193-.075.292l-4.871-.027-2.576-.078c-.041-.752-.116-1.5-.117-2.256-.009-7.368-.027-14.736.014-22.1.008-1.378-.324-2.456-1.8-2.6a9.522,9.522,0,0,0-4.278.158l-4.541.01a16.707,16.707,0,0,0-5.7-.011c-2.756-.012-5.513,0-8.269-.05a2.681,2.681,0,0,0-2.32.953c-1.795-1.827-3.96-1.157-6.065-.9l-4.541.006a16.783,16.783,0,0,0-5.7-.009c-2.521-.012-5.041-.032-7.561-.034-2.849,0-3.049.2-3.052,2.973q-.01,11.815-.017,23.631a.22.22,0,0,0-.115.205l-2.846.16c-2.711-.02-5.425.019-8.133-.081-1.861-.069-2.448.856-2.441,2.533.028,7.127.029,14.254.04,21.38L108.5,262.09" transform="translate(-8771 -8346)" fill="#544f57"/>
      <path id="Trazado_277391" data-name="Trazado 277391" d="M149.97,262.106c-.011-7.127-.012-14.254-.04-21.38-.006-1.678.58-2.6,2.441-2.534,2.709.1,5.422.062,8.133.082.015,2.016-.1,4.043.086,6.043a2.661,2.661,0,0,0,2.89,2.64,2.845,2.845,0,0,0,2.7-3.022c.032-1.89.021-3.781.029-5.672l4.87.009q0,11.914,0,23.829l-21.1,0" transform="translate(-8771 -8346)" fill="#d9b36b"/>
      <path id="Trazado_277392" data-name="Trazado 277392" d="M197.966,262.1l-20.819-.007q.007-11.533.014-23.069a3.311,3.311,0,0,1,2.376-.772c1.6.068,3.2.019,4.8.019l3.084.014c-.01,1.893-.069,3.787-.016,5.678A2.826,2.826,0,0,0,190.3,247c1.852-.018,2.74-.965,2.766-3.051.024-1.891-.019-3.784-.032-5.676,3.017-.779,6.077-.236,9.118-.293a2.159,2.159,0,0,1-1.81.274c-1.883-.269-2.457.393-2.423,2.353.127,7.163.047,14.33.045,21.5" transform="translate(-8771 -8346)" fill="#d9b36b"/>
      <path id="Trazado_277393" data-name="Trazado 277393" d="M219.991,238.22l4.871.027V262.1l-20.819-.007c0-6.974.027-13.949-.035-20.923a3.982,3.982,0,0,1,1.156-3.212l6.076-.054c.949.741,2.06.186,3.077.381-.009,1.947-.074,3.9-.01,5.841a3.273,3.273,0,0,0,2.925,3.147c1.628-.062,2.7-1.29,2.732-3.211.035-1.947.02-3.895.027-5.842" transform="translate(-8771 -8346)" fill="#d9b36b"/>
      <path id="Trazado_277394" data-name="Trazado 277394" d="M205.163,237.958a3.983,3.983,0,0,0-1.156,3.213c.062,6.973.033,13.948.035,20.922l-6.076.008c0-7.165.082-14.332-.045-21.5-.034-1.96.54-2.622,2.423-2.353a2.156,2.156,0,0,0,1.81-.275l3.009-.02" transform="translate(-8771 -8346)" fill="#c9a663"/>
      <path id="Trazado_277395" data-name="Trazado 277395" d="M224.861,262.1V238.247c.021-.1.046-.195.075-.292l2.454.019c1.335.01,2.66.046,3.442,1.407q.027,11.352.053,22.7l-6.024.015" transform="translate(-8771 -8346)" fill="#c9a663"/>
      <path id="Trazado_277396" data-name="Trazado 277396" d="M177.162,239.025l-.015,23.069-6.076.007q0-11.915,0-23.83c.41-.018.85.062,1.139-.35h.754c.129.2.257.2.386,0l.756,0,3.052,1.1" transform="translate(-8771 -8346)" fill="#c9a663"/>
      <path id="Trazado_277397" data-name="Trazado 277397" d="M230.832,239.381c-.782-1.362-2.107-1.4-3.441-1.408l-2.455-.018c-.752-.654-.432-1.535-.433-2.314q-.029-22.134-.015-44.27c0-5.372-3.356-8.78-8.661-8.78q-53.64,0-107.279,0a12.918,12.918,0,0,1,.012-5.988q58.146-.007,116.292.007c1.946,0,3.891.355,5.849.164a10.993,10.993,0,0,1,.153,1.308q0,30.648-.022,61.295" transform="translate(-8771 -8346)" fill="#484146"/>
      <path id="Trazado_277398" data-name="Trazado 277398" d="M230.7,176.778c-1.958.19-3.9-.164-5.849-.165q-58.146-.033-116.292-.006l-.063-8.333c.821-.02,1.64-.055,2.46-.055q43.654,0,87.308,0,16.287,0,32.573.054c-.068,2.834.192,5.674-.137,8.505" transform="translate(-8771 -8346)" fill="#8e99a3"/>
      <path id="Trazado_277399" data-name="Trazado 277399" d="M108.488,162.5c.009-.82,0-1.641.03-2.461a5.983,5.983,0,0,1,5.408-5.82c.438-.044.883-.024,1.325-.024q51.508,0,103.018,0c.567,0,1.134.042,1.7.064a25.233,25.233,0,0,1,2.413,1.363c2.253,1.853,2.218,4.319,2.106,6.85-.819.022-1.638.064-2.457.064q-52.514.006-105.028,0c-2.839,0-5.677-.025-8.515-.039" transform="translate(-8771 -8346)" fill="#909aa4"/>
      <path id="Trazado_277400" data-name="Trazado 277400" d="M169.36,140.611q-13.25,0-26.5,0c-2.973,0-3.176-.212-3.177-3.268,0-2.713-.007-5.426,0-8.138.007-2.466.483-2.943,3.019-2.944q20.255-.009,40.507-.006c4.478,0,8.957-.058,13.436-.065,2.237,0,2.823.578,2.831,2.753q.017,4.542,0,9.084c-.009,2.22-.417,2.646-2.675,2.65q-13.72.021-27.443.005Z" transform="translate(-8771 -8346)" fill="#4b7ff3"/>
      <path id="Trazado_277401" data-name="Trazado 277401" d="M108.488,162.5c2.838.014,5.676.039,8.515.039q52.513,0,105.028,0c.819,0,1.638-.042,2.457-.064l6.322.025c1.551.467,2.794,1.3,2.7,3.1a2.843,2.843,0,0,1-2.669,2.682q-16.289-.027-32.574-.053-43.654-.012-87.308,0c-.82,0-1.64.036-2.46.055-1.62-.176-2.779-1-2.875-2.662-.109-1.882,1.186-2.739,2.866-3.115" transform="translate(-8771 -8346)" fill="#544f57"/>
      <path id="Trazado_277402" data-name="Trazado 277402" d="M169.551,109.023c3.908,0,7.816-.016,11.723.006,2.05.012,3.351,1.124,3.346,2.777s-1.312,2.876-3.325,2.886q-11.723.054-23.447,0c-2.021-.009-3.328-1.213-3.346-2.865s1.287-2.785,3.326-2.8c3.907-.023,7.815-.007,11.723-.007" transform="translate(-8771 -8346)" fill="#4b7ff3"/>
      <path id="Trazado_277403" data-name="Trazado 277403" d="M230.811,162.5l-6.323-.025c.113-2.531.147-5-2.106-6.85a25.1,25.1,0,0,0-2.412-1.363c1.379-.021,2.758-.061,4.137-.062,4.178,0,6.628,2.4,6.737,6.608.014.563-.021,1.128-.033,1.692" transform="translate(-8771 -8346)" fill="#8e99a3"/>
      <path id="Trazado_277404" data-name="Trazado 277404" d="M205.163,237.958l-3.009.02c-3.041.058-6.1-.485-9.118.294l-2.655-.018q.011-13.007.02-26.012a2.678,2.678,0,0,1,2.32-.953c2.755.052,5.512.038,8.268.05,0,1.885-.008,3.77.013,5.656.024,2.133.818,3.04,2.672,3.1,1.758.059,2.946-1.123,3-3.093.05-1.884.014-3.77.016-5.655l4.541-.01q0,13.283.009,26.564l-6.076.054" transform="translate(-8771 -8346)" fill="#f0d49c"/>
      <path id="Trazado_277405" data-name="Trazado 277405" d="M174.11,237.92l-.756,0h-1.14q-4.374-.008-8.749-.012.008-11.815.017-23.632c0-2.777.2-2.975,3.052-2.973,2.52,0,5.041.022,7.561.035,0,1.885-.008,3.771.013,5.656.023,2.131.818,3.039,2.673,3.1,1.76.06,2.944-1.119,3-3.094.051-1.884.015-3.77.017-5.655l4.541-.007V237.9l-10.226.021" transform="translate(-8771 -8346)" fill="#f0d49c"/>
      <path id="Trazado_277406" data-name="Trazado 277406" d="M184.335,237.9q0-13.278,0-26.557c2.1-.257,4.27-.927,6.065.9q-.011,13.006-.02,26.012l-2.958.032-3.084-.014c0-.124,0-.249,0-.373" transform="translate(-8771 -8346)" fill="#eac273"/>
      <path id="Trazado_277407" data-name="Trazado 277407" d="M211.24,237.9q0-13.283-.009-26.564a9.508,9.508,0,0,1,4.278-.158c1.479.145,1.811,1.224,1.8,2.6-.041,7.367-.023,14.735-.014,22.1,0,.752.076,1.5.117,2.256l-3.1.142c-1.018-.194-2.128.36-3.077-.381" transform="translate(-8771 -8346)" fill="#eac273"/>
      <path id="Trazado_277408" data-name="Trazado 277408" d="M179.795,211.348c0,1.885.033,3.772-.017,5.656-.054,1.974-1.237,3.153-3,3.093-1.854-.063-2.65-.971-2.673-3.1-.02-1.885-.01-3.771-.013-5.656a16.763,16.763,0,0,1,5.7.009" transform="translate(-8771 -8346)" fill="#f5ebd6"/>
      <path id="Trazado_277409" data-name="Trazado 277409" d="M206.689,211.349c0,1.885.034,3.772-.017,5.656-.052,1.969-1.24,3.152-3,3.092-1.854-.063-2.649-.97-2.672-3.1-.021-1.885-.01-3.771-.013-5.656a16.733,16.733,0,0,1,5.7.011" transform="translate(-8771 -8346)" fill="#f5ebd6"/>
      <path id="Trazado_277410" data-name="Trazado 277410" d="M214.316,238.285l3.1-.142,2.576.077c-.007,1.947.008,3.9-.027,5.842-.034,1.921-1.1,3.149-2.731,3.211a3.274,3.274,0,0,1-2.926-3.147c-.064-1.945,0-3.894.01-5.841" transform="translate(-8771 -8346)" fill="#f4e2be"/>
      <path id="Trazado_277411" data-name="Trazado 277411" d="M166.205,238.263c-.008,1.891,0,3.781-.03,5.672a2.844,2.844,0,0,1-2.7,3.022,2.663,2.663,0,0,1-2.891-2.64c-.181-2-.071-4.027-.086-6.043l2.847-.161,2.855.15" transform="translate(-8771 -8346)" fill="#f4e2be"/>
      <path id="Trazado_277412" data-name="Trazado 277412" d="M166.205,238.263l-2.855-.15a.217.217,0,0,1,.114-.2l8.75.012c-.289.412-.73.332-1.14.351l-4.869-.009" transform="translate(-8771 -8346)" fill="#c7ae81"/>
      <path id="Trazado_277413" data-name="Trazado 277413" d="M187.423,238.286l2.958-.032,2.655.018c.013,1.892.056,3.785.032,5.676-.026,2.086-.914,3.033-2.765,3.051a2.826,2.826,0,0,1-2.9-3.035c-.053-1.891.006-3.785.016-5.678" transform="translate(-8771 -8346)" fill="#f4e2be"/>
      <path id="Trazado_277414" data-name="Trazado 277414" d="M184.335,237.9c0,.124,0,.249,0,.373-1.6,0-3.2.049-4.8-.019a3.306,3.306,0,0,0-2.376.772l-3.052-1.1,10.226-.021" transform="translate(-8771 -8346)" fill="#c7ae81"/>
      <path id="Trazado_277415" data-name="Trazado 277415" d="M172.968,237.922h.386c-.129.2-.257.2-.386,0" transform="translate(-8771 -8346)" fill="#c7ae81"/>
    </g>
  </g>
</svg>
