<svg xmlns="http://www.w3.org/2000/svg" xmlns:xlink="http://www.w3.org/1999/xlink" width="201.483" height="227.196" viewBox="0 0 201.483 227.196">
  <defs>
    <clipPath id="clip-path">
      <rect id="Rectángulo_325124" data-name="Rectángulo 325124" width="201.483" height="218.796" transform="translate(57.385 106.161)" fill="none"/>
    </clipPath>
  </defs>
  <g id="Grupo_261806" data-name="Grupo 261806" transform="translate(1984.615 268.839)">
    <g id="Grupo_260938" data-name="Grupo 260938">
      <g id="Grupo_260937" data-name="Grupo 260937" transform="translate(-2042 -375)" opacity="0.8" style="isolation: isolate">
        <g id="Grupo_260936" data-name="Grupo 260936">
          <g id="Grupo_260935" data-name="Grupo 260935" clip-path="url(#clip-path)">
            <path id="Trazado_278722" data-name="Trazado 278722" d="M59.422,173.029c-6.041,15.833,1.978,34.063,15.817,45.162,4.275,3.429,9.272,6.575,11.362,11.392,4.115,9.483-4.8,19.008-11.317,27.31-10.675,13.6-16.036,31.963-8.541,47.209S97.5,327.949,112.39,318.137c10.781-7.1,15.488-21.639,28.376-24.714,8.337-1.989,16.89,1.778,24.511,5.432l41.718,20c9.187,4.4,20.481,8.812,29.428,4.017,6.512-3.49,9.24-10.741,10.4-17.519a66.752,66.752,0,0,0-1.433-28.88c-3.7-13.472-11.682-26.8-8.768-40.432,2.213-10.352,10.34-18.685,16.17-27.809s9.166-21.387,2.026-29.71c-6.353-7.4-18.045-8.427-27.288-12.643-23.127-10.55-28.4-39.551-49.407-53.276C155.5,97.82,118.235,109.9,111.071,134.342c-6.8,23.218-2.521,15.055-24.319,18.6-12.1,1.968-23.216,9.3-27.33,20.087" fill="#dbf9bd"/>
          </g>
        </g>
      </g>
      <path id="Trazado_278723" data-name="Trazado 278723" d="M187.494,121.357a4.3,4.3,0,0,1,1.265,3.658c-.1,2.779-.07,5.563-.093,8.344q-22.321,0-44.644-.008c-2.612,0-3.261-.666-3.267-3.312-.007-2.894,0-5.788,0-8.682Z" transform="translate(-2042 -375)" fill="#6e61b5"/>
      <path id="Trazado_278724" data-name="Trazado 278724" d="M140.753,121.357c0,2.894-.005,5.788,0,8.682.006,2.646.655,3.311,3.267,3.312q22.321.011,44.644.008.082,1.005.166,2.01c-.032.338-.083.677-.091,1.016-.076,3.34-.324,3.578-3.653,3.589q-5.83.021-11.662.062l-22.323,0-8.28-.005q-5.169-.03-10.338-.06c-4.485-.021-4.961.559-5.058-4.6.03-3.741.1-7.483.066-11.223a4.035,4.035,0,0,1,.851-2.792Z" transform="translate(-2042 -375)" fill="#6354b0"/>
      <path id="Trazado_278725" data-name="Trazado 278725" d="M99.288,314.148q7.278-14.363,14.558-28.725c1.432-2.823,2.886-5.637,4.32-8.458q8-15.74,15.986-31.485c.339-.668.585-1.386.874-2.08,1.046,2.218,1.457,4.676,2.791,6.8,6.6,10.49,17.1,12.263,27.778,9.688,8.315-2,13.243-7.862,15.308-16.123.767.468.969,1.315,1.336,2.039q15.042,29.561,30.062,59.134,2.339,4.6,4.664,9.211a84.947,84.947,0,0,1-17.393,10.193,105.36,105.36,0,0,1-22.305,7.069,92.065,92.065,0,0,1-26.18,1.659A101.027,101.027,0,0,1,99.7,314.6a2.965,2.965,0,0,1-.416-.454" transform="translate(-2042 -375)" fill="#fde87d"/>
      <path id="Trazado_278726" data-name="Trazado 278726" d="M155.192,149.944l-2.88-.121a4.117,4.117,0,0,1-1.247-3.473c.113-2.1.035-4.207.038-6.311l22.323,0c0,2.338.023,4.676,0,7.013-.022,2.091-.752,2.8-2.879,2.828-3.162.037-6.324.046-9.486.067h-5.867" transform="translate(-2042 -375)" fill="#e99a58"/>
      <path id="Trazado_278727" data-name="Trazado 278727" d="M151.1,140.038c0,2.1.075,4.213-.038,6.311a4.119,4.119,0,0,0,1.247,3.474c-2.254.025-4.509.025-6.762.085-1.879.049-2.78-.778-2.74-2.7.049-2.392.012-4.785.013-7.177l8.28,0" transform="translate(-2042 -375)" fill="#d78a55"/>
      <path id="Trazado_278728" data-name="Trazado 278728" d="M134.935,240.537l-7.427-.082c-.831-1.335-.175-2.039.957-2.824,9.071-6.3,18.1-12.653,27.143-18.992l15.334-.11q13.515,9.451,27.029,18.9c.773.54,1.845.96,1.487,2.178-.381,1.293-1.569.87-2.461.877-5.227.043-10.454.038-15.681.049l-10.389,0-15.279.012-10.337-.019-10.376.011" transform="translate(-2042 -375)" fill="#e99a58"/>
      <path id="Trazado_278729" data-name="Trazado 278729" d="M170.927,240.534l10.389,0c.09,1.1-.647,2.1-.414,3.227-2.064,8.262-6.992,14.118-15.307,16.124-10.673,2.574-21.183.8-27.778-9.689-1.335-2.123-1.745-4.582-2.791-6.8q-.045-1.431-.091-2.863l10.376-.01a10.192,10.192,0,0,0,6.354,8.936c3.6,1.587,7.361,1.1,11.1.6.167-.022.3-.263.455-.4,3.851-.554,6.973-4.249,7.711-9.127" transform="translate(-2042 -375)" fill="#fde35a"/>
      <path id="Trazado_278730" data-name="Trazado 278730" d="M155.192,149.944h5.867q-.029,26.852-.059,53.7l-4.518.105-1.233-.1-.057-53.71" transform="translate(-2042 -375)" fill="#968dca"/>
      <path id="Trazado_278731" data-name="Trazado 278731" d="M156.482,203.753l4.518-.106c2.332.01,4.665.01,7,.034s2.944.621,2.955,2.91c.018,3.979,0,7.958-.01,11.938l-15.334.11.054-.13c-.006-3.553.031-7.107-.039-10.659a7.334,7.334,0,0,1,.859-4.1" transform="translate(-2042 -375)" fill="#fefefe"/>
      <path id="Trazado_278732" data-name="Trazado 278732" d="M155.608,218.639c-9.042,6.339-18.071,12.7-27.143,18.992-1.132.785-1.788,1.489-.957,2.824-3.021.019-6.042.034-9.063.062-.778.007-1.563.023-1.862-.9-.308-.953.464-1.382,1.043-1.8,2.839-2.043,5.7-4.05,8.575-6.047q9.543-6.639,19.1-13.255l10.359-.01Z" transform="translate(-2042 -375)" fill="#d78a56"/>
      <path id="Trazado_278733" data-name="Trazado 278733" d="M155.662,218.509l-10.36.01c-.005-4.106.03-8.212-.032-12.317-.028-1.853.757-2.6,2.59-2.543,2.461.07,4.926,0,7.389,0l1.233.1a7.329,7.329,0,0,0-.859,4.1c.069,3.552.033,7.106.039,10.659" transform="translate(-2042 -375)" fill="#e9f5fe"/>
      <path id="Trazado_278734" data-name="Trazado 278734" d="M163.216,249.661c-.151.139-.288.38-.454.4-3.736.5-7.5.986-11.1-.6a10.191,10.191,0,0,1-6.354-8.937l10.337.019c.378,4.459,3.8,8.353,7.568,9.116" transform="translate(-2042 -375)" fill="#f6b601"/>
      <path id="Trazado_278735" data-name="Trazado 278735" d="M163.216,249.661c-3.768-.763-7.19-4.657-7.568-9.116l15.279-.012c-.738,4.878-3.86,8.574-7.711,9.128" transform="translate(-2042 -375)" fill="#f9c501"/>
    </g>
  </g>
</svg>
