<svg xmlns="http://www.w3.org/2000/svg" xmlns:xlink="http://www.w3.org/1999/xlink" width="205.208" height="218.796" viewBox="0 0 205.208 218.796">
  <defs>
    <clipPath id="clip-path">
      <rect id="Rectángulo_325131" data-name="Rectángulo 325131" width="201.483" height="218.796" transform="translate(55.74 96.502)" fill="none"/>
    </clipPath>
  </defs>
  <g id="Grupo_261807" data-name="Grupo 261807" transform="translate(1986.26 -146.502)">
    <g id="Grupo_260952" data-name="Grupo 260952">
      <g id="Grupo_260951" data-name="Grupo 260951" transform="translate(-2042 50)" opacity="0.8" style="isolation: isolate">
        <g id="Grupo_260950" data-name="Grupo 260950">
          <g id="Grupo_260949" data-name="Grupo 260949" clip-path="url(#clip-path)">
            <path id="Trazado_278738" data-name="Trazado 278738" d="M57.778,163.37c-6.042,15.833,1.977,34.063,15.816,45.162,4.275,3.429,9.273,6.575,11.362,11.392,4.115,9.483-4.8,19.008-11.317,27.31C62.964,260.832,57.6,279.2,65.1,294.443s30.756,23.847,45.647,14.035c10.781-7.1,15.488-21.639,28.376-24.714,8.337-1.989,16.89,1.778,24.511,5.432l41.718,20c9.187,4.4,20.481,8.812,29.429,4.017,6.511-3.49,9.239-10.741,10.4-17.519a66.751,66.751,0,0,0-1.433-28.88c-3.7-13.472-11.681-26.8-8.767-40.432,2.212-10.352,10.339-18.685,16.169-27.809s9.167-21.387,2.027-29.71c-6.353-7.4-18.045-8.427-27.289-12.643-23.127-10.55-28.4-39.551-49.407-53.276-22.625-14.787-59.887-2.709-67.051,21.735-6.8,23.218-2.521,15.055-24.319,18.6-12.1,1.968-23.216,9.3-27.329,20.087" fill="#dbf9bd"/>
          </g>
        </g>
      </g>
      <path id="Trazado_278739" data-name="Trazado 278739" d="M68.538,290.259a43.35,43.35,0,0,1-10.772-25.635c2.039.006,4.079.028,6.118.014,2.606-.019,4.211-1.315,4.238-3.384a4.231,4.231,0,0,0-4.207-3.893c-2.038-.049-4.078,0-6.117,0a42.318,42.318,0,0,1,10.274-24.652c1.714,1.132,2.93,2.795,4.424,4.162,1.851,1.694,4.132,1.792,5.612.214,1.419-1.513,1.279-3.685-.369-5.45-1.382-1.48-2.78-2.947-4.17-4.421.559-.5,1.086-1.039,1.683-1.488a43.666,43.666,0,0,1,22.969-8.8c.159,2.554-.449,5.159.41,7.66.639,1.859,2.039,2.95,3.99,2.579a3.27,3.27,0,0,0,2.908-3.7c-.113-2.191-.025-4.392-.026-6.589,1.048.117,2.1.194,3.141.357a42.035,42.035,0,0,1,21.938,10.01c-1.5,1.579-2.978,3.183-4.51,4.732a3.558,3.558,0,0,0-.523,4.538,3.466,3.466,0,0,0,4.742,1.295,14.212,14.212,0,0,0,5.338-5.615,41.812,41.812,0,0,1,10.546,25.129,68.868,68.868,0,0,0-7.238.254c-2.188.294-3.226,1.929-2.87,4.122a3.256,3.256,0,0,0,3.619,2.955c2.194-.026,4.389.025,6.583.042a46.5,46.5,0,0,1-3.319,13.972c-1.91,3.756-3.72,7.575-6.735,10.631-.958.027-1.478-.671-2.068-1.25a34.948,34.948,0,0,0-3.1-3,3.512,3.512,0,0,0-4.591-.113,3.177,3.177,0,0,0-.982,4.429,13.474,13.474,0,0,0,5.611,5.387,43.354,43.354,0,0,1-25.511,10.637c-.022-2.037-.049-4.073-.065-6.11-.02-2.642-1.2-4.077-3.382-4.1-2.428-.028-3.768,1.281-3.891,3.979-.092,2.034-.031,4.074-.038,6.111a41.889,41.889,0,0,1-25.138-10.5,13,13,0,0,0,5.6-5.347,3.354,3.354,0,0,0-3.364-5.111c-3.4.459-5.033,3.357-6.755,5.956m33.569-47.536a18.464,18.464,0,0,0-.258,36.927,18.464,18.464,0,1,0,.258-36.927" transform="translate(-2042 50)" fill="#687172"/>
      <path id="Trazado_278740" data-name="Trazado 278740" d="M142.951,278.666a46.5,46.5,0,0,0,3.318-13.972c.041-.335.083-.669.125-1l.057-2.7.132.037a39.345,39.345,0,0,0,6.352-.186c3.845-.714,7.909-4.834,6.151-11.729-.99-3.884-2.513-7.589-3.462-11.474,4.552-.02,9.1-.048,13.655-.054.928,0,1.76.031,2.3-1,1.48-2.81,3.048-5.574,4.581-8.356l4.416-7.345a14.072,14.072,0,0,1,6.172-3.892l10.8-.261h7.3c12.905.029,25.811.014,38.715.1a16.977,16.977,0,0,1,17.092,14.111,20.418,20.418,0,0,1,.263,3.85q.032,12.984.008,25.968c-.023,10.181-6.574,17.176-16.736,17.911a34.011,34.011,0,0,0,.165-11.989A33.574,33.574,0,0,0,207.2,239c-12.853,1.705-24.308,11.2-27.879,23.677a38.6,38.6,0,0,0-.885,16l-35.481-.007" transform="translate(-2042 50)" fill="#3b5620"/>
      <path id="Trazado_278741" data-name="Trazado 278741" d="M178.432,278.673a38.6,38.6,0,0,1,.885-16C182.888,250.2,194.343,240.7,207.2,239a33.574,33.574,0,0,1,37.17,27.685,34.011,34.011,0,0,1-.165,11.989c-3.988,16.419-17.139,27.1-33.185,26.939a33.569,33.569,0,0,1-32.106-25.439c-.126-.508-.317-1-.478-1.5m33.035,6.578a13.083,13.083,0,1,0-13.131-13.091,12.923,12.923,0,0,0,13.131,13.091" transform="translate(-2042 50)" fill="#687172"/>
      <path id="Trazado_278742" data-name="Trazado 278742" d="M186.751,216.991a14.063,14.063,0,0,0-6.172,3.892l-.747.013a14.079,14.079,0,0,0-.119-2.04q-4.551-22.734-9.123-45.463a1.777,1.777,0,0,0-2.093-1.716q-29.373.079-58.746,0c-1.421,0-1.942.454-2.241,1.814-2.147,9.766-4.377,19.514-6.58,29.267l-7.7.717c2.337-10.268,4.652-20.541,7.04-30.8a2.163,2.163,0,0,0-.917-2.648,7.628,7.628,0,0,1-2.995-8.453,7.96,7.96,0,0,1,6.83-6.159,11.39,11.39,0,0,1,2.042-.115q34.044-.008,68.089,0c4.917,0,8.193,2.622,8.875,7.081a7.531,7.531,0,0,1-3.271,7.722,2.212,2.212,0,0,0-1.048,2.752c2.89,14.027,5.7,28.071,8.523,42.111.135.668.238,1.343.356,2.015" transform="translate(-2042 50)" fill="#697273"/>
      <path id="Trazado_278743" data-name="Trazado 278743" d="M93.227,203.479l7.7-.717c1.057.077,2.112.167,3.17.23,22.685,1.353,39.261,12.218,50.027,32.131a8.224,8.224,0,0,0,1.5,2.516c.949,3.885,2.472,7.589,3.462,11.473,1.758,6.9-2.306,11.016-6.151,11.73a39.345,39.345,0,0,1-6.352.185c-.3-1.217.256-2.529-.408-3.706a41.8,41.8,0,0,0-10.545-25.129,16.636,16.636,0,0,0-5.048-4.951,42.028,42.028,0,0,0-21.937-10.01c-1.04-.162-2.094-.24-3.141-.357a37.539,37.539,0,0,0-7.282.052,43.659,43.659,0,0,0-22.969,8.8c-.6.449-1.124.99-1.684,1.489-1.285.456-1.984,1.677-3.088,2.37-.954-.974-1.917-1.939-2.861-2.923-4.112-4.287-3.543-10.066,1.363-13.488a59.1,59.1,0,0,1,24.244-9.7" transform="translate(-2042 50)" fill="#fa9a2e"/>
      <path id="Trazado_278744" data-name="Trazado 278744" d="M204.859,216.73h-7.3c0-5.836.07-11.673-.015-17.507a14.822,14.822,0,0,1,4.309-10.627c1.855-2,3.828-3.888,5.778-5.8,1.91-1.869,3.721-2.008,5.38-.471,1.633,1.513,1.75,3.51.075,5.412-1.6,1.817-3.362,3.5-5.114,5.172a9.412,9.412,0,0,0-3.155,7.447c.146,5.453.045,10.913.047,16.37" transform="translate(-2042 50)" fill="#697273"/>
      <path id="Trazado_278745" data-name="Trazado 278745" d="M70.481,229.589c1.1-.693,1.8-1.914,3.088-2.37,1.391,1.473,2.788,2.94,4.17,4.421,1.648,1.765,1.788,3.937.369,5.449-1.48,1.578-3.761,1.481-5.612-.213-1.494-1.368-2.71-3.03-4.424-4.163.46-1.306,1.742-1.978,2.409-3.124" transform="translate(-2042 50)" fill="#5b5e5a"/>
      <path id="Trazado_278746" data-name="Trazado 278746" d="M98.2,305.263c.007-2.037-.055-4.078.038-6.111.122-2.7,1.462-4.007,3.89-3.979,2.183.026,3.363,1.461,3.383,4.1.016,2.037.043,4.073.064,6.11a18.2,18.2,0,0,1-7.375-.123" transform="translate(-2042 50)" fill="#5a5d59"/>
      <path id="Trazado_278747" data-name="Trazado 278747" d="M68.538,290.259c1.722-2.6,3.35-5.5,6.755-5.956a3.354,3.354,0,0,1,3.364,5.11,13,13,0,0,1-5.6,5.348,23.5,23.5,0,0,1-4.519-4.5" transform="translate(-2042 50)" fill="#5a5d59"/>
      <path id="Trazado_278748" data-name="Trazado 278748" d="M131.082,294.749a13.489,13.489,0,0,1-5.611-5.386,3.176,3.176,0,0,1,.982-4.429,3.512,3.512,0,0,1,4.592.112,34.947,34.947,0,0,1,3.1,3c.59.578,1.111,1.276,2.068,1.25a21.87,21.87,0,0,1-5.133,5.452" transform="translate(-2042 50)" fill="#5a5d59"/>
      <path id="Trazado_278749" data-name="Trazado 278749" d="M57.8,257.365c2.039-.005,4.08-.052,6.118,0a4.231,4.231,0,0,1,4.206,3.894c-.026,2.068-1.632,3.365-4.238,3.383-2.039.014-4.079-.008-6.118-.014a39.03,39.03,0,0,1,.032-7.259" transform="translate(-2042 50)" fill="#5a5d59"/>
      <path id="Trazado_278750" data-name="Trazado 278750" d="M102.107,242.723a18.464,18.464,0,1,1-18.513,18.193,18.418,18.418,0,0,1,18.513-18.193" transform="translate(-2042 50)" fill="#e5e5e4"/>
      <path id="Trazado_278751" data-name="Trazado 278751" d="M130.582,227.241a16.632,16.632,0,0,1,5.047,4.951,14.21,14.21,0,0,1-5.338,5.614,3.466,3.466,0,0,1-4.742-1.295,3.556,3.556,0,0,1,.523-4.537c1.532-1.55,3.009-3.153,4.51-4.733" transform="translate(-2042 50)" fill="#5b5e59"/>
      <path id="Trazado_278752" data-name="Trazado 278752" d="M98.221,216.926a37.539,37.539,0,0,1,7.282-.052c0,2.2-.087,4.4.026,6.589a3.27,3.27,0,0,1-2.908,3.7c-1.951.371-3.351-.72-3.99-2.579-.859-2.5-.251-5.106-.41-7.66" transform="translate(-2042 50)" fill="#5a5d59"/>
      <path id="Trazado_278753" data-name="Trazado 278753" d="M146.175,257.321c.663,1.178.109,2.489.408,3.707l-.133-.037a2.444,2.444,0,0,0-.056,2.7l-.126,1c-2.193-.017-4.388-.068-6.582-.042a3.257,3.257,0,0,1-3.619-2.956c-.356-2.193.682-3.827,2.87-4.121a68.327,68.327,0,0,1,7.238-.254" transform="translate(-2042 50)" fill="#5a5d59"/>
      <path id="Trazado_278754" data-name="Trazado 278754" d="M176.163,228.227c-4.685-4.651-9.4-9.274-14.032-13.975-.942-.956-1.53-1.195-2.452-.035a17.814,17.814,0,0,1-2.588,2.555,3.587,3.587,0,0,1-4.952-.09,3.443,3.443,0,0,1-.184-4.928c4.374-4.531,8.813-9.005,13.353-13.369,1.41-1.355,3.235-1.219,4.769.079a3.687,3.687,0,0,1,.393,4.957,10.26,10.26,0,0,1-.9,1.022c-3.154,3.369-3.2,3.415.168,6.691s6.377,6.876,10.1,9.761l.747-.013-4.416,7.345" transform="translate(-2042 50)" fill="#6b7474"/>
      <path id="Trazado_278755" data-name="Trazado 278755" d="M146.394,263.69a2.446,2.446,0,0,1,.057-2.7l-.057,2.7" transform="translate(-2042 50)" fill="#687172"/>
      <path id="Trazado_278756" data-name="Trazado 278756" d="M211.467,285.251a13.083,13.083,0,1,1,13.043-13.189,12.881,12.881,0,0,1-13.043,13.189" transform="translate(-2042 50)" fill="#e5e5e4"/>
    </g>
  </g>
</svg>
