<svg xmlns="http://www.w3.org/2000/svg" xmlns:xlink="http://www.w3.org/1999/xlink" width="208.125" height="228.093" viewBox="0 0 208.125 228.093">
  <defs>
    <clipPath id="clip-path">
      <rect id="Rectángulo_325145" data-name="Rectángulo 325145" width="201.483" height="218.796" transform="translate(53.078 108.01)" fill="none"/>
    </clipPath>
    <clipPath id="clip-path-2">
      <rect id="Rectángulo_325146" data-name="Rectángulo 325146" width="58.289" height="23.897" transform="translate(156.008 208.348)" fill="none"/>
    </clipPath>
    <clipPath id="clip-path-3">
      <rect id="Rectángulo_325147" data-name="Rectángulo 325147" width="46.099" height="30.862" transform="translate(162.096 256.014)" fill="none"/>
    </clipPath>
  </defs>
  <g id="Grupo_261809" data-name="Grupo 261809" transform="translate(1988.923 -1050.01)">
    <g id="Grupo_260990" data-name="Grupo 260990">
      <g id="Grupo_260983" data-name="Grupo 260983" transform="translate(-2042.001 942)" opacity="0.8" style="isolation: isolate">
        <g id="Grupo_260982" data-name="Grupo 260982">
          <g id="Grupo_260981" data-name="Grupo 260981" clip-path="url(#clip-path)">
            <path id="Trazado_278790" data-name="Trazado 278790" d="M55.116,174.878c-6.041,15.833,1.978,34.063,15.817,45.162,4.275,3.429,9.272,6.575,11.362,11.392,4.115,9.483-4.8,19.008-11.317,27.31C60.3,272.34,54.942,290.7,62.437,305.951s30.755,23.847,45.647,14.035c10.781-7.1,15.488-21.639,28.376-24.714,8.337-1.989,16.89,1.778,24.511,5.432l41.718,20c9.187,4.4,20.481,8.812,29.428,4.017,6.512-3.49,9.24-10.741,10.4-17.519a66.751,66.751,0,0,0-1.433-28.88c-3.7-13.472-11.682-26.8-8.768-40.432,2.213-10.352,10.34-18.685,16.17-27.809s9.166-21.387,2.026-29.71c-6.353-7.4-18.045-8.427-27.288-12.643-23.127-10.55-28.4-39.551-49.407-53.276-22.625-14.787-59.887-2.709-67.051,21.735-6.8,23.218-2.521,15.055-24.319,18.6-12.1,1.968-23.216,9.3-27.33,20.087" fill="#dbf9bd"/>
          </g>
        </g>
      </g>
      <path id="Trazado_278791" data-name="Trazado 278791" d="M111.974,336.1c-4.2-1.476-5.366-4.613-5.3-8.81.153-10.141.058-20.286.062-30.429l10.943.321c3.23.02,6.465.158,9.69.035,5.99-.229,10.493-4.514,10.5-10.093q.066-40.9,0-81.8a9.7,9.7,0,0,0-7.556-9.514c-4.172-.945-8.443-.233-12.667-.374l-10.9.035q-.022-18.759-.046-37.519c8.727-.032,17.454-.09,26.18-.091,10.809,0,21.619.045,32.428.069l.021,50.417c-1.949.015-3.9.009-5.846.049-2.4.05-3.44,1.08-3.447,3.436-.015,4.706.028,9.412-.013,14.118-.047,5.377-.411,6.4,6.072,6.284l.033,23.913L162.1,286.8c0,14.027.022,28.054-.015,42.081-.007,2.776.8,5,3.4,6.3a1.04,1.04,0,0,1,.655.925Z" transform="translate(-2042.001 942)" fill="#ecf5fe"/>
      <path id="Trazado_278792" data-name="Trazado 278792" d="M166.141,336.1a1.04,1.04,0,0,0-.655-.925c-2.6-1.3-3.412-3.524-3.4-6.3.037-14.027.016-28.054.015-42.081,1.615.011,3.23.03,4.846.032q20.6.027,41.2.047a2.434,2.434,0,0,0,.056.28q-.006,9.514-.013,19.028c-1.75,1.342-4.029,2-5.222,4.062-1.308,1.706-2.869,3.283-2.889,5.649a2.152,2.152,0,0,0-.745,1.379,15.565,15.565,0,0,0,9.265,17.612l2.825,1.217Z" transform="translate(-2042.001 942)" fill="#dbdbd9"/>
      <path id="Trazado_278793" data-name="Trazado 278793" d="M242.541,336.1H217.074c2.444-.759,4.924-1.441,6.889-3.222a12.042,12.042,0,0,0,4.114-4.838,7.822,7.822,0,0,0,1.534-3.744c.033-.536.006-1.086.764-1.11a14.835,14.835,0,0,0,9.348,11.687l2.818,1.227" transform="translate(-2042.001 942)" fill="#fefefe"/>
      <path id="Trazado_278794" data-name="Trazado 278794" d="M242.541,336.1l-2.818-1.227A20.284,20.284,0,0,0,247.812,326a3.981,3.981,0,0,1,2.058,1.13,71.868,71.868,0,0,0,6.485,4.57c-2.017,2.465-4.978,3.27-7.751,4.406Z" transform="translate(-2042.001 942)" fill="#88f1a9"/>
      <path id="Trazado_278795" data-name="Trazado 278795" d="M223.963,332.881c-1.965,1.781-4.445,2.463-6.888,3.222h-5.66l-2.825-1.217c3-1.866,5.7-4.046,7.318-7.3a5.043,5.043,0,0,1,2.069,1.1c1.969,1.434,3.987,2.8,5.986,4.193" transform="translate(-2042.001 942)" fill="#9ec7fb"/>
      <path id="Trazado_278796" data-name="Trazado 278796" d="M117.676,297.185l-10.942-.321q.007-50.7.016-101.393l10.9-.034a3.855,3.855,0,0,0,.989.648c4.029,1.084,6.773,6.04,6.753,9.937-.139,26.928-.072,53.857-.075,80.785a9.819,9.819,0,0,1-6.47,9.491c-.457.18-1.143.116-1.17.887" transform="translate(-2042.001 942)" fill="#9ec7fb"/>
      <path id="Trazado_278797" data-name="Trazado 278797" d="M165.313,157.932c-10.81-.025-21.62-.071-32.429-.07-8.726,0-17.453.059-26.18.091-1.474-.029-2.948-.094-4.424-.081a2.479,2.479,0,0,1-2.806-2.7q-.077-11.681,0-23.361c.011-1.774,1.11-2.678,2.867-2.677,4.025,0,8.051.038,12.078.061,0,4.1-.052,8.205,0,12.307.038,2.892,2.069,4.5,4.4,3.588,1.749-.684,2.035-2.189,2.043-3.792.02-4.035,0-8.07-.005-12.105l10.136,0c-.005,4.225-.036,8.45,0,12.675.017,2.172,1.378,3.514,3.334,3.43,1.636-.07,3.092-1.794,3.107-3.821.031-4.091,0-8.182,0-12.273l10.138-.012c-.005,4.232-.034,8.465,0,12.7a3.048,3.048,0,1,0,6.054-.01c.007-4.232-.007-8.465-.014-12.7l10.537.008c-.005,4.232-.034,8.465,0,12.7a3.048,3.048,0,1,0,6.052,0c.007-4.232-.007-8.464-.013-12.7l1.644-.016c1.2,1.974,1.233,4.151,1.213,6.376-.052,5.772-.033,11.546-.009,17.319a6.774,6.774,0,0,1-1.635,4.984l-6.069.091" transform="translate(-2042.001 942)" fill="#7fb5fb"/>
      <g id="Grupo_260986" data-name="Grupo 260986" transform="translate(-2042.001 942)" opacity="0.8" style="isolation: isolate">
        <g id="Grupo_260985" data-name="Grupo 260985">
          <g id="Grupo_260984" data-name="Grupo 260984" clip-path="url(#clip-path-2)">
            <path id="Trazado_278798" data-name="Trazado 278798" d="M162.1,232.236c-6.483.119-6.12-.908-6.073-6.285.042-4.705,0-9.411.014-14.117.007-2.356,1.044-3.387,3.446-3.436,1.949-.04,3.9-.035,5.847-.049l3.258.109c-.009,4.033-.035,8.065-.017,12.1a2.949,2.949,0,0,0,3.083,3.169c2.043-.016,2.961-.957,2.972-3.187.021-4.032-.008-8.064-.017-12.1l3.648-.085,3.272.136c-.008,3.886-.037,7.772-.016,11.657.013,2.285,1.156,3.548,3.126,3.576,2.112.029,3.3-1.218,3.317-3.586.021-3.885-.008-7.771-.017-11.657l6.918-.025c-.008,3.963-.03,7.926-.018,11.889.007,2.411.872,3.364,2.982,3.378,1.911.013,3.073-1.234,3.078-3.374.009-3.963-.01-7.926-.018-11.889l6.918.014c-.008,4.015-.04,8.029-.011,12.043a2.931,2.931,0,0,0,2.288,3.133c1.643.344,3.262.144,3.773-1.945.835,1.923.161,3.946.4,5.907a5.041,5.041,0,0,1-1.615,4.527l-4.456.094-46.079,0" fill="#dbf9bd"/>
          </g>
        </g>
      </g>
      <path id="Trazado_278799" data-name="Trazado 278799" d="M168.592,208.458l-3.259-.11q-.01-25.208-.02-50.416l6.069-.091c2.291.3,4.645-.414,6.9.437q-.009,25.039-.021,50.078l-3.647.085-6.021.017" transform="translate(-2042.001 942)" fill="#dceafc"/>
      <path id="Trazado_278800" data-name="Trazado 278800" d="M208.194,287.156a2.665,2.665,0,0,1-.056-.28q.012-15.348.022-30.7c4.165-.19,8.331-.153,12.5-.019q-.018,15.426-.036,30.853l-12.426.141" transform="translate(-2042.001 942)" fill="#80e19e"/>
      <path id="Trazado_278801" data-name="Trazado 278801" d="M178.281,158.278c-2.255-.852-4.609-.133-6.9-.437a6.78,6.78,0,0,0,1.635-4.985c-.024-5.773-.044-11.546.008-17.319.02-2.224-.01-4.4-1.214-6.375,3.564-.014,7.127-.009,10.69-.05a2.641,2.641,0,0,1,2.951,2.852q.12,11.6.006,23.2c-.018,1.97-1.285,2.892-3.751,3.052-1.139.074-2.285.045-3.427.062" transform="translate(-2042.001 942)" fill="#63a4fa"/>
      <path id="Trazado_278802" data-name="Trazado 278802" d="M230.375,323.189c-.758.024-.731.575-.764,1.11a7.813,7.813,0,0,1-1.535,3.744c-.741-.568-1.473-1.149-2.226-1.7-6.211-4.545-12.4-9.124-18.662-13.6-1.319-.943-2.428-2.338-4.229-2.5,1.193-2.058,3.473-2.72,5.223-4.062,4.177-1.489,8.355-1.8,12.536-.015a17.209,17.209,0,0,1,8.567,8.991c.392.9-.4,2.3,1.092,2.734a8.569,8.569,0,0,0,0,5.295" transform="translate(-2042.001 942)" fill="#a6ccfb"/>
      <path id="Trazado_278803" data-name="Trazado 278803" d="M212.635,232.14a5.041,5.041,0,0,0,1.615-4.527c-.236-1.961.438-3.984-.4-5.907.1-4.42-.337-8.856.379-13.258,3.1-.026,6.194-.093,9.29-.062a2.876,2.876,0,0,1,3.191,3.114q.081,8.79,0,17.581c-.018,2.02-1.177,3.061-3.164,3.12-.942.027-1.884.042-2.826.063l-8.089-.124" transform="translate(-2042.001 942)" fill="#80e19e"/>
      <path id="Trazado_278804" data-name="Trazado 278804" d="M212.635,232.14l8.089.124q-.033,11.949-.067,23.9c-4.166-.133-8.331-.17-12.5.019l.035-.167q-.009-11.889-.017-23.78l4.456-.094" transform="translate(-2042.001 942)" fill="#ededed"/>
      <path id="Trazado_278805" data-name="Trazado 278805" d="M220.718,306.17c-4.181-1.783-8.359-1.475-12.536.015l.012-19.028q6.213-.071,12.426-.141.05,9.576.1,19.154" transform="translate(-2042.001 942)" fill="#ededed"/>
      <path id="Trazado_278806" data-name="Trazado 278806" d="M239.737,306.222a15.274,15.274,0,0,1,17.294,3.771c4.172,4.435,5.379,11.318,2.874,16.4-.588-.43-1.2-.834-1.76-1.294-3.232-2.636-6.874-4.735-9.944-7.582a14.309,14.309,0,0,0-6.891-10.12c-.556-.35-1.287-.464-1.573-1.175" transform="translate(-2042.001 942)" fill="#88f1a9"/>
      <path id="Trazado_278807" data-name="Trazado 278807" d="M230.375,323.189a8.569,8.569,0,0,1,0-5.295,5.578,5.578,0,0,1,1.281-3.622,1.874,1.874,0,0,1,1.312.358c2.609,1.948,5.28,3.815,7.832,5.833,2.336,1.845,4.975,3.309,7.01,5.534a20.284,20.284,0,0,1-8.089,8.879,14.835,14.835,0,0,1-9.348-11.687" transform="translate(-2042.001 942)" fill="#a2f4c2"/>
      <path id="Trazado_278808" data-name="Trazado 278808" d="M247.812,326c-2.035-2.225-4.674-3.689-7.009-5.534-2.553-2.018-5.224-3.885-7.832-5.833a1.878,1.878,0,0,0-1.313-.358,9.023,9.023,0,0,1,4.4-5.723,110.979,110.979,0,0,0,12.14,8.968c3.071,2.847,6.712,4.946,9.944,7.583.564.459,1.172.863,1.76,1.293a10.306,10.306,0,0,1-3.55,5.3,71.84,71.84,0,0,1-6.484-4.569A3.99,3.99,0,0,0,247.812,326" transform="translate(-2042.001 942)" fill="#80e19e"/>
      <path id="Trazado_278809" data-name="Trazado 278809" d="M120.852,129.189c0,4.035.025,8.07.005,12.105-.008,1.6-.294,3.109-2.043,3.792-2.327.909-4.358-.695-4.4-3.588-.054-4.1-.006-8.2,0-12.307l6.436,0" transform="translate(-2042.001 942)" fill="#63a4fa"/>
      <path id="Trazado_278810" data-name="Trazado 278810" d="M137.424,129.2c0,4.091.032,8.183,0,12.274-.015,2.027-1.471,3.751-3.108,3.821-1.955.084-3.316-1.258-3.333-3.431-.033-4.224,0-8.449,0-12.674l6.435.01" transform="translate(-2042.001 942)" fill="#63a4fa"/>
      <path id="Trazado_278811" data-name="Trazado 278811" d="M187.943,208.482c.008,3.886.038,7.772.017,11.657-.013,2.368-1.205,3.615-3.317,3.586-1.97-.028-3.114-1.291-3.126-3.576-.021-3.885.008-7.771.016-11.657a37.49,37.49,0,0,1,6.41-.01" transform="translate(-2042.001 942)" fill="#77d192"/>
      <path id="Trazado_278812" data-name="Trazado 278812" d="M153.6,129.173c.006,4.233.02,8.465.013,12.7a3.048,3.048,0,1,1-6.054.01c-.03-4.233,0-8.465,0-12.7l6.037-.01" transform="translate(-2042.001 942)" fill="#63a4fa"/>
      <path id="Trazado_278813" data-name="Trazado 278813" d="M170.17,129.178c.005,4.232.02,8.464.012,12.7a3.048,3.048,0,1,1-6.052,0c-.029-4.231,0-8.464,0-12.7l6.035,0" transform="translate(-2042.001 942)" fill="#63a4fa"/>
      <path id="Trazado_278814" data-name="Trazado 278814" d="M214.231,208.448c-.716,4.4-.273,8.838-.378,13.258-.511,2.089-2.131,2.289-3.774,1.946a2.932,2.932,0,0,1-2.287-3.134c-.03-4.014,0-8.028.011-12.043l6.428-.027" transform="translate(-2042.001 942)" fill="#77d192"/>
      <path id="Trazado_278815" data-name="Trazado 278815" d="M200.885,208.461c.007,3.963.027,7.926.018,11.889-.005,2.14-1.167,3.387-3.078,3.374-2.11-.014-2.975-.967-2.982-3.378-.012-3.963.01-7.926.018-11.889l6.024,0" transform="translate(-2042.001 942)" fill="#77d192"/>
      <path id="Trazado_278816" data-name="Trazado 278816" d="M248.2,317.517a110.987,110.987,0,0,1-12.14-8.969c.907-1.278,2.365-1.686,3.676-2.326.286.711,1.017.825,1.573,1.175a14.3,14.3,0,0,1,6.891,10.12" transform="translate(-2042.001 942)" fill="#a2f4c2"/>
      <g id="Grupo_260989" data-name="Grupo 260989" transform="translate(-2042.001 942)" opacity="0.8" style="isolation: isolate">
        <g id="Grupo_260988" data-name="Grupo 260988">
          <g id="Grupo_260987" data-name="Grupo 260987" clip-path="url(#clip-path-3)">
            <path id="Trazado_278817" data-name="Trazado 278817" d="M208.16,256.181q-.011,15.346-.022,30.7-20.6-.023-41.2-.046c-1.615,0-3.231-.021-4.846-.032q.018-15.326.036-30.65,10.809-.024,21.619-.048,12.222-.036,24.444-.086Z" fill="#dbf9bd"/>
          </g>
        </g>
      </g>
      <path id="Trazado_278818" data-name="Trazado 278818" d="M117.676,297.185c.027-.771.713-.707,1.17-.887a9.819,9.819,0,0,0,6.47-9.491c0-26.928-.064-53.857.075-80.785.02-3.9-2.724-8.853-6.753-9.937a3.855,3.855,0,0,1-.989-.648c4.224.141,8.5-.571,12.667.374a9.694,9.694,0,0,1,7.556,9.514q.05,40.9,0,81.8c-.009,5.579-4.513,9.864-10.5,10.093-3.225.123-6.46-.015-9.69-.035" transform="translate(-2042.001 942)" fill="#80b6fb"/>
      <path id="Trazado_278819" data-name="Trazado 278819" d="M208.2,256.014q-12.222.043-24.445.085-10.809.031-21.619.049-.015-11.957-.032-23.913h46.079q.009,11.891.017,23.78" transform="translate(-2042.001 942)" fill="#dbdbd9"/>
      <path id="Trazado_278820" data-name="Trazado 278820" d="M202.959,310.246c1.8.161,2.91,1.556,4.229,2.5,6.263,4.474,12.451,9.052,18.662,13.6.753.551,1.484,1.133,2.226,1.7a12.035,12.035,0,0,1-4.113,4.839c-2-1.393-4.017-2.759-5.986-4.193a5.016,5.016,0,0,0-2.07-1.1c-2.744-2.857-6.162-4.85-9.3-7.2-2.115-1.583-4.077-3.408-6.538-4.494.02-2.365,1.581-3.942,2.889-5.648" transform="translate(-2042.001 942)" fill="#80b6fb"/>
      <path id="Trazado_278821" data-name="Trazado 278821" d="M200.07,315.895c2.461,1.086,4.424,2.911,6.538,4.494,3.137,2.348,6.555,4.341,9.3,7.2-1.621,3.253-4.313,5.433-7.317,7.3a15.566,15.566,0,0,1-9.265-17.612,2.152,2.152,0,0,1,.745-1.38" transform="translate(-2042.001 942)" fill="#bdd8fc"/>
      <path id="Trazado_278822" data-name="Trazado 278822" d="M168.592,208.458l6.021-.017c.009,4.032.037,8.065.017,12.1-.012,2.23-.929,3.171-2.972,3.186a2.949,2.949,0,0,1-3.084-3.169c-.017-4.032.009-8.065.018-12.1" transform="translate(-2042.001 942)" fill="#77d192"/>
    </g>
  </g>
</svg>
