<svg xmlns="http://www.w3.org/2000/svg" xmlns:xlink="http://www.w3.org/1999/xlink" width="201.483" height="223.891" viewBox="0 0 201.483 223.891">
  <defs>
    <clipPath id="clip-path">
      <rect id="Rectángulo_325154" data-name="Rectángulo 325154" width="201.483" height="218.796" transform="translate(68.936 106.971)" fill="none"/>
    </clipPath>
  </defs>
  <g id="Grupo_261810" data-name="Grupo 261810" transform="translate(1973.064 -1494.971)">
    <g id="Grupo_261005" data-name="Grupo 261005">
      <g id="Grupo_261004" data-name="Grupo 261004" transform="translate(-2042 1388)" opacity="0.8" style="isolation: isolate">
        <g id="Grupo_261003" data-name="Grupo 261003">
          <g id="Grupo_261002" data-name="Grupo 261002" clip-path="url(#clip-path)">
            <path id="Trazado_278825" data-name="Trazado 278825" d="M70.974,173.84C64.933,189.673,72.951,207.9,86.79,219c4.275,3.429,9.273,6.575,11.363,11.392,4.115,9.483-4.8,19.008-11.317,27.31C76.16,271.3,70.8,289.667,78.295,304.913s30.754,23.847,45.646,14.035c10.782-7.1,15.489-21.639,28.377-24.714,8.336-1.989,16.89,1.778,24.511,5.432l41.717,20c9.187,4.4,20.481,8.812,29.429,4.017,6.511-3.49,9.239-10.741,10.4-17.519a66.751,66.751,0,0,0-1.433-28.88c-3.7-13.472-11.682-26.8-8.767-40.432,2.212-10.352,10.339-18.685,16.169-27.809s9.166-21.387,2.026-29.71c-6.352-7.4-18.044-8.427-27.288-12.643-23.127-10.55-28.4-39.551-49.407-53.276-22.625-14.787-59.887-2.709-67.051,21.735-6.8,23.218-2.52,15.055-24.319,18.6-12.1,1.968-23.215,9.3-27.329,20.087" fill="#dbf9bd"/>
          </g>
        </g>
      </g>
      <path id="Trazado_278826" data-name="Trazado 278826" d="M103.579,213.365c.01-20.425.094-40.851-.025-61.275-.027-4.72,1.287-8.255,5.9-10.059h85.532c3.252,1.417,5.326,3.754,5.5,7.407.12,2.551.039,5.112.048,7.668-.736.017-1.471.047-2.207.047q-32.4,0-64.808,0a17.474,17.474,0,0,0-3.828.307,28.906,28.906,0,0,0-10.873.129,7.248,7.248,0,0,0-5.3,6.958q-.02,24.366.01,48.73a97.072,97.072,0,0,1-9.947.092" transform="translate(-2042 1388)" fill="#60b7fe"/>
      <path id="Trazado_278827" data-name="Trazado 278827" d="M200.533,157.106c-.009-2.556.072-5.117-.048-7.668-.172-3.653-2.246-5.991-5.5-7.407H205.31c3.474,1.432,5.854,3.711,5.891,7.744.023,2.454-.013,4.909-.023,7.363l-10.645-.032" transform="translate(-2042 1388)" fill="#27a6fd"/>
      <path id="Trazado_278828" data-name="Trazado 278828" d="M103.579,213.365a97.072,97.072,0,0,0,9.947-.092,52.562,52.562,0,0,0,8.209.009l.139.089.142-.094.722.223c.819.892,1.947,1.486,2.526,2.61,2.607,5.065,5.232,10.121,7.8,15.206a1.744,1.744,0,0,0,1.9,1.048c3.054-.151,6.109-.258,9.164-.381a3.489,3.489,0,0,0,2.313.343q36.348.012,72.7,0c.673,0,1.347-.047,2.02-.072H231.85l7.755.112a1.953,1.953,0,0,0,.406.355c3.476,1.619,4.77,4.414,4.764,8.153q-.066,40.634.008,81.267c.01,4.187-1.749,6.971-5.528,8.588-1.166.019-2.333.056-3.5.056q-73.349,0-146.7.073c-5.55.014-9.172-3.494-9.148-9.21.138-33.724.067-67.45.068-101.175,0-4.992,2.03-7.018,7.017-7.036q8.292-.028,16.582-.076m87.707,105.974q10.227.014,20.455.025c4.783,0,7.217-2.457,7.218-7.3,0-20.026-.094-40.053.07-60.077a7.22,7.22,0,0,0-7.563-7.509c-29.178.1-58.357.053-87.536.053-.43,0-.861-.019-1.29.009a6.433,6.433,0,0,0-6.167,6.158q-.048,31.236,0,62.473a6.246,6.246,0,0,0,6.276,6.179c7.125.03,14.251-.005,21.377-.013Z" transform="translate(-2042 1388)" fill="#fcb341"/>
      <path id="Trazado_278829" data-name="Trazado 278829" d="M221.159,232.257c-.674.025-1.347.072-2.02.072q-36.348.006-72.7,0a3.489,3.489,0,0,1-2.313-.343l-5.295-10.592c4.726-.019,9.453-.03,14.179-.06,2.037-.013,3.247-1.022,3.262-2.67.016-1.78-1.2-2.892-3.278-2.9-4.85-.022-9.7,0-14.55-.011a2.758,2.758,0,0,0-2.187.75c-1.467-2.383-3.67-3.233-6.378-3.165-1.891.048-3.786-.044-5.679-.074q0-23.9,0-47.8c0-4.054,1.668-6.465,5.486-8a17.474,17.474,0,0,1,3.828-.307q32.4.014,64.808,0c.736,0,1.472-.03,2.207-.047l10.645.032,4.1.018c4.535,1.75,6.018,5.229,5.921,9.861-.141,6.749-.028,13.5-.047,20.255,0,.7.276,1.5-.5,2.027a3.75,3.75,0,0,0-3.278-1.621c-15.952.047-31.9.026-47.855.033-2.321,0-3.309.834-3.329,2.726-.019,1.813,1.131,2.847,3.266,2.848q23.928.014,47.855.019a3.377,3.377,0,0,0,3.15-1.495c.648.083.7.547.7,1.066q-.008,4.635,0,9.271c0,.514-.038.987-.689,1.076a3.321,3.321,0,0,0-3.142-1.5q-23.934.032-47.867.017c-2.285,0-3.275.866-3.275,2.78s.993,2.785,3.272,2.786q23.933.011,47.866.017a3.335,3.335,0,0,0,3.143-1.5c.652.088.692.559.692,1.074q-.008,4.637,0,9.271c0,.519-.051.984-.7,1.068a3.494,3.494,0,0,0-3.334-1.5q-23.744.034-47.487.015c-.306,0-.615-.012-.919.018a2.711,2.711,0,0,0-2.533,2.832c.02,1.894,1.008,2.728,3.326,2.729,15.952.007,31.9-.014,47.855.033a3.746,3.746,0,0,0,3.278-1.623c.721.46.5,1.2.505,1.841.016,3.558.006,7.117.006,10.675M153.495,170.39c-5.028,0-10.057-.011-15.085.006-1.994.006-3.155,1.05-3.163,2.759-.009,1.729,1.142,2.806,3.118,2.808q14.992.022,29.985,0c2.117,0,3.4-1.08,3.4-2.779s-1.284-2.788-3.358-2.793c-4.966-.011-9.933,0-14.9,0m-7.8,36.917c2.514,0,5.028.019,7.542-.006a2.8,2.8,0,1,0-.072-5.561q-7.451-.025-14.9,0a2.71,2.71,0,0,0-3.012,2.722c-.026,1.737,1.122,2.818,3.085,2.838,2.452.024,4.9.006,7.358.005m.226-19.6c-2.512,0-5.025-.017-7.537.006-1.983.018-3.14,1.071-3.132,2.786a2.729,2.729,0,0,0,2.991,2.774q7.537.062,15.075,0a2.766,2.766,0,0,0,2.964-2.831c.019-1.6-1.165-2.7-3.008-2.726-2.45-.03-4.9-.007-7.353-.008" transform="translate(-2042 1388)" fill="#e8f4fe"/>
      <path id="Trazado_278830" data-name="Trazado 278830" d="M239.255,330.733c3.778-1.617,5.537-4.4,5.528-8.588q-.093-40.633-.008-81.267c.006-3.74-1.289-6.535-4.764-8.153a1.958,1.958,0,0,1-.407-.355c2.822-.013,5.646-.1,8.466-.023a7.559,7.559,0,0,1,7.337,7.116c.039.55.022,1.1.022,1.656q0,40.416,0,80.831c0,5.862-2.972,8.843-8.812,8.838-2.454,0-4.908-.036-7.362-.055" transform="translate(-2042 1388)" fill="#fda614"/>
      <path id="Trazado_278831" data-name="Trazado 278831" d="M220.472,203.222c.652-.088.69-.561.689-1.075q-.006-4.637,0-9.272c0-.519-.053-.982-.7-1.066a3.872,3.872,0,0,0,.191-2.51c.774-.523.5-1.329.5-2.026.019-6.752-.093-13.506.048-20.255.1-4.633-1.386-8.111-5.922-9.862q4.05,0,8.1-.008c5.214,0,8.467,3.235,8.47,8.471q.015,27.429,0,54.858v11.781H221.158c0-3.559.011-7.118-.006-10.676,0-.644.217-1.38-.5-1.84a3.87,3.87,0,0,0-.188-2.509c.649-.084.7-.548.7-1.067q-.006-4.637,0-9.272c0-.515-.04-.986-.691-1.073a3.04,3.04,0,0,0,0-2.6" transform="translate(-2042 1388)" fill="#d8ebfd"/>
      <path id="Trazado_278832" data-name="Trazado 278832" d="M129.689,157.456c-3.818,1.535-5.484,3.945-5.485,8q-.008,23.9,0,47.8l-1.467.241-.72-.223a.2.2,0,0,0-.283.005,52.562,52.562,0,0,1-8.209-.009q-.009-24.364-.01-48.73a7.248,7.248,0,0,1,5.3-6.958,28.9,28.9,0,0,1,10.872-.129" transform="translate(-2042 1388)" fill="#26a5fd"/>
      <path id="Trazado_278833" data-name="Trazado 278833" d="M144.124,319.339c-7.126.008-14.251.043-21.377.013a6.246,6.246,0,0,1-6.276-6.179q-.046-31.238,0-62.473a6.433,6.433,0,0,1,6.168-6.158c.428-.028.859-.009,1.289-.009,29.179,0,58.358.044,87.537-.053a7.219,7.219,0,0,1,7.562,7.509c-.164,20.024-.066,40.051-.07,60.077,0,4.841-2.435,7.3-7.218,7.3q-10.227,0-20.455-.025a26.456,26.456,0,0,0-2.378-13.207c-3.913-7.848-10.394-12.1-18.977-13.322.146-.106.282-.282.44-.306a17.129,17.129,0,0,0,11.443-6.6,17.948,17.948,0,0,0-26.365-24.224,17.948,17.948,0,0,0,1.968,27.866c2.467,1.706,5.265,2.452,8.063,3.266-.531.121-1.058.279-1.6.359a22.5,22.5,0,0,0-14.56,8.461c-4.175,5.155-5.523,11.2-5.2,17.709" transform="translate(-2042 1388)" fill="#fddaa5"/>
      <path id="Trazado_278834" data-name="Trazado 278834" d="M144.124,319.339c-.324-6.507,1.024-12.554,5.2-17.709a22.5,22.5,0,0,1,14.56-8.461c.538-.08,1.065-.238,1.6-.359h4.45c8.583,1.226,15.064,5.474,18.977,13.322a26.456,26.456,0,0,1,2.378,13.207H144.124" transform="translate(-2042 1388)" fill="#f37c7c"/>
      <path id="Trazado_278835" data-name="Trazado 278835" d="M122.738,213.5l1.467-.241c1.892.03,3.787.122,5.678.074,2.708-.068,4.911.781,6.379,3.165a31.867,31.867,0,0,0,2.573,4.893l5.295,10.592c-3.055.123-6.11.23-9.164.38a1.742,1.742,0,0,1-1.9-1.048c-2.568-5.085-5.193-10.141-7.8-15.206-.579-1.123-1.707-1.717-2.526-2.609" transform="translate(-2042 1388)" fill="#fda614"/>
      <path id="Trazado_278836" data-name="Trazado 278836" d="M121.734,213.282a.2.2,0,0,1,.283-.005l-.143.094Z" transform="translate(-2042 1388)" fill="#60b7fe"/>
      <path id="Trazado_278837" data-name="Trazado 278837" d="M220.651,189.3a3.873,3.873,0,0,1-.191,2.51,3.375,3.375,0,0,1-3.15,1.494q-23.928-.03-47.855-.018c-2.135,0-3.285-1.035-3.266-2.848.02-1.892,1.008-2.725,3.329-2.726,15.951-.007,31.9.014,47.854-.033a3.751,3.751,0,0,1,3.279,1.621" transform="translate(-2042 1388)" fill="#82ade2"/>
      <path id="Trazado_278838" data-name="Trazado 278838" d="M220.472,203.222a3.04,3.04,0,0,1,0,2.6,3.335,3.335,0,0,1-3.143,1.5q-23.934-.032-47.867-.018c-2.278,0-3.271-.871-3.272-2.786s.991-2.779,3.276-2.78q23.933-.009,47.866-.017a3.324,3.324,0,0,1,3.142,1.5" transform="translate(-2042 1388)" fill="#82ade2"/>
      <path id="Trazado_278839" data-name="Trazado 278839" d="M220.462,217.233a3.863,3.863,0,0,1,.187,2.509,3.75,3.75,0,0,1-3.279,1.622c-15.952-.047-31.9-.026-47.855-.033-2.318,0-3.306-.835-3.326-2.729a2.711,2.711,0,0,1,2.533-2.832c.3-.03.613-.018.919-.018q23.743,0,47.487-.015a3.494,3.494,0,0,1,3.334,1.5" transform="translate(-2042 1388)" fill="#82ade2"/>
      <path id="Trazado_278840" data-name="Trazado 278840" d="M153.495,170.39c4.967,0,9.933-.008,14.9,0,2.074,0,3.365,1.1,3.358,2.792s-1.286,2.777-3.4,2.779q-14.994.018-29.985,0c-1.976,0-3.127-1.08-3.118-2.808.008-1.71,1.168-2.754,3.163-2.76,5.029-.017,10.057-.006,15.085-.006" transform="translate(-2042 1388)" fill="#82ade2"/>
      <path id="Trazado_278841" data-name="Trazado 278841" d="M145.69,207.307c-2.453,0-4.906.019-7.358-.006-1.963-.019-3.111-1.1-3.085-2.838a2.709,2.709,0,0,1,3.012-2.721q7.45-.033,14.9,0a2.795,2.795,0,1,1,.072,5.56c-2.514.026-5.028.007-7.542.007" transform="translate(-2042 1388)" fill="#82aee2"/>
      <path id="Trazado_278842" data-name="Trazado 278842" d="M145.916,187.708c2.451,0,4.9-.021,7.353.009,1.843.022,3.027,1.129,3.008,2.724a2.767,2.767,0,0,1-2.964,2.832q-7.538.064-15.075,0a2.729,2.729,0,0,1-2.991-2.776c-.008-1.713,1.149-2.767,3.132-2.785,2.512-.023,5.025-.006,7.537-.006" transform="translate(-2042 1388)" fill="#82aee2"/>
      <path id="Trazado_278843" data-name="Trazado 278843" d="M138.834,221.391a31.9,31.9,0,0,1-2.573-4.892,2.752,2.752,0,0,1,2.186-.751c4.85.008,9.7-.011,14.55.011,2.082.01,3.294,1.122,3.278,2.9-.015,1.648-1.225,2.657-3.261,2.67-4.727.03-9.453.041-14.18.06" transform="translate(-2042 1388)" fill="#82ade2"/>
      <path id="Trazado_278844" data-name="Trazado 278844" d="M169.93,292.81h-4.45c-2.8-.814-5.6-1.56-8.064-3.266a17.948,17.948,0,0,1-1.968-27.866A17.948,17.948,0,0,1,181.813,285.9a17.129,17.129,0,0,1-11.443,6.6c-.158.024-.294.2-.44.306" transform="translate(-2042 1388)" fill="#fea78f"/>
    </g>
  </g>
</svg>
