<svg xmlns="http://www.w3.org/2000/svg" width="148.587" height="148.586" viewBox="0 0 148.587 148.586">
  <g id="Grupo_261817" data-name="Grupo 261817" transform="translate(-722.84 -648.901)">
    <g id="Grupo_260502" data-name="Grupo 260502">
      <path id="Trazado_277845" data-name="Trazado 277845" d="M690.682,79.384A74.294,74.294,0,1,1,616.389,5.091a74.293,74.293,0,0,1,74.293,74.293" transform="translate(180.745 643.81)" fill="#dbf9bd"/>
      <path id="Trazado_277848" data-name="Trazado 277848" d="M565.512,95.146a5.938,5.938,0,0,1,1.395-1.072c4.3-2.456,8.539-5.012,12.9-7.344,1.344-.719,1.8-1.273,1.584-2.887a8.848,8.848,0,0,1,6.32-9.579c.6-.193.75-.366.612-1.038a13.733,13.733,0,0,1,1.046-8.551,1.714,1.714,0,0,1,2.074-1.213c.971.777,1.092,1.239.559,2.372a10.989,10.989,0,0,0-1.067,5.359,14.438,14.438,0,0,0,.748,3.524,1.38,1.38,0,0,1-1.292,1.941c-.315.039-.631.07-.945.119a6.329,6.329,0,0,0-5.214,7.4c.11.6.352.772.95.641a19.08,19.08,0,0,1,4.078-.325c4.927,0,9.855.02,14.782-.007a7.336,7.336,0,0,1,6.8,3.6c.212.348.364.413.73.2q6.564-3.84,13.145-7.653c.784-.41,1.545-.877,2.361-1.211.592-.242.569-.414.164-.821a6.634,6.634,0,0,0-4.338-1.932c-1.506-.124-1.973-.934-1.392-2.347a6.281,6.281,0,0,0,.241-.619,4.982,4.982,0,0,0-1.19-5.121,4.685,4.685,0,0,0-4.64-1.531,2.362,2.362,0,0,0-1.19.278c-1.426.557-1.935.359-2.532-1.005a11.018,11.018,0,0,0-14.927-5.72,1.711,1.711,0,0,1-2.352-.41c-.242-1.221-.033-1.639,1.095-2.182a13.9,13.9,0,0,1,17.936,5.476c.369.623.655.9,1.439.717a7.328,7.328,0,0,1,5.651,1.086c.453.282.6.307.843-.256a12.343,12.343,0,0,1,9.545-7.75c.53-.1.727-.278.714-.855-.045-1.877-.025-3.755-.015-5.633a4.1,4.1,0,0,1,3.714-4.413c.567-.091.706-.282.7-.837q-.049-3.771,0-7.542c.008-.579-.128-.752-.73-.75q-8.734.036-17.47,0c-.807,0-1.081.31-1.048,1.074.035.826.023,1.655,0,2.482-.024.97-.493,1.54-1.428,1.564-1.844.048-3.691.039-5.536,0a1.314,1.314,0,0,1-1.415-1.282c-.043-2.088-.239-4.194.494-6.233a8.877,8.877,0,0,1,8.252-6c4.455-.051,8.91-.008,13.365-.028a1.543,1.543,0,0,1,1.734,1.39c-.284,1.157-.668,1.48-1.845,1.482-4.293.006-8.586-.015-12.879.008a6.124,6.124,0,0,0-6.292,6.251c-.02,1.563-.016,1.491,1.53,1.588.991.061,1.206-.253,1.183-1.2-.062-2.583,1.34-3.954,3.9-3.955q16.026,0,32.053,0a4.895,4.895,0,0,0,1.044-.042,1.261,1.261,0,0,0,1.082-1.367,1.248,1.248,0,0,0-1.2-1.26,7.646,7.646,0,0,0-.857-.018q-6.153,0-12.306,0c-1.18,0-1.573-.333-1.84-1.482a1.529,1.529,0,0,1,1.729-1.39c4.359.017,8.719-.009,13.079.015a4.2,4.2,0,0,1,4.288,4.19,4.255,4.255,0,0,1-4.278,4.223c-.89.014-1.783.028-2.672-.008-.508-.02-.715.088-.708.661.032,2.578.025,5.156,0,7.734,0,.473.129.633.608.72a4.2,4.2,0,0,1,3.8,4.557c.006,1.814.026,3.628-.013,5.442-.012.58.146.818.738.928a12.483,12.483,0,0,1,10.378,12.438q.018,22.914,0,45.828a5.106,5.106,0,0,1-5.39,5.385q-15.7.017-31.409,0a5.121,5.121,0,0,1-5.5-5.47c-.021-4.965,0-9.929-.01-14.894a2.132,2.132,0,0,0-.085-1.03c-.389-.023-.647.252-.936.419-5.529,3.182-11.072,6.342-16.568,9.581a12.884,12.884,0,0,1-10.537,1.365,16.937,16.937,0,0,0-5.13-.96,10.3,10.3,0,0,0-4.932,1.579q-7.289,4.231-14.6,8.432c-1.321.762-1.719.7-2.686-.382v-1.146l1.372-1.143c.349.026.586-.216.856-.371,4.318-2.486,8.7-4.863,12.93-7.5a13.544,13.544,0,0,1,12.2-1.485,11,11,0,0,0,9.738-1.21c5.692-3.4,11.471-6.664,17.214-9.982,4.011-2.319,8.032-4.622,12.033-6.958a4.3,4.3,0,1,0-4.218-7.484c-5.07,2.9-10.12,5.84-15.187,8.75a1.083,1.083,0,0,0-.631.941c-.455,4.288-3.275,6.824-7.566,6.829q-9.877.011-19.756,0c-.254,0-.51.005-.763-.019a1.292,1.292,0,0,1-1.282-1.288,1.317,1.317,0,0,1,1.153-1.5,5.337,5.337,0,0,1,1.044-.054c6.554,0,13.107-.017,19.661.008a4.342,4.342,0,0,0,4.028-2.069,4.025,4.025,0,0,0,.116-4.262,4.244,4.244,0,0,0-4.012-2.271c-5.186,0-10.371.017-15.557,0a16.672,16.672,0,0,0-8.716,2.343c-3.94,2.319-7.914,4.582-11.878,6.859-.41.236-.854.409-1.283.611a2.382,2.382,0,0,1-1.491-.895ZM646.1,49.209c-3.2-.014-6.407-.044-9.61-.031a1.33,1.33,0,0,0-1.483,1.475c-.016,1.077.02,2.155.033,3.233-.014.858-.007,1.717-.052,2.574-.026.512.176.643.663.641q6.494-.023,12.986,0c.547,0,.711-.172.7-.71-.032-1.431-.052-2.865,0-4.3.1-2.768-.264-3.112-3.234-2.888m11.08,48.549c.886.013,1.773.009,2.658.046.445.019.64-.12.6-.586a9.225,9.225,0,0,1,0-1.14c.015-.347-.115-.508-.475-.555a11.584,11.584,0,0,1-2.778-.918c-.24-.153-.483-.3-.718-.46a9.745,9.745,0,0,1-4.621-8.555,9.889,9.889,0,0,1,5.4-8.877,23.785,23.785,0,0,1,2.779-.917c.865-.213.293-1.014.4-1.538.1-.477-.305-.458-.623-.446a18.121,18.121,0,0,0-2.646.073c-4.189-.016-8.379-.019-12.568-.059-.755-.007-.6.468-.6.886,0,4.254,0,8.509-.005,12.764,0,1.165-.351,1.57-1.5,1.82a1.49,1.49,0,0,1-1.372-1.642c.009-5.022,0-10.044.009-15.066,0-1.1.518-1.6,1.67-1.611,2.034-.025,4.068,0,6.1-.01,2.763-.012,5.526-.035,8.29-.053.918.018,1.837.026,2.754.059.37.013.487-.124.5-.493a9.616,9.616,0,0,0-3.451-8.169,8.247,8.247,0,0,0-5.594-2.3c-6.044-.065-12.089-.091-18.132-.016a9.534,9.534,0,0,0-9.2,7.693,1.8,1.8,0,0,0,.1,1.192,7.338,7.338,0,0,1,.588,4.463c-.093.475-.013.7.534.866a8.911,8.911,0,0,1,5.346,4.179,1.191,1.191,0,0,0,.862.635A6.724,6.724,0,0,1,634.3,80.36a7.158,7.158,0,0,1-1.011,11.9c-2.855,1.72-5.763,3.354-8.664,4.995a1.327,1.327,0,0,0-.791,1.336c.038,3.435.007,6.871.016,10.307.005,1.97.039,3.94.06,5.91-.256,2.325.581,3.279,2.886,3.279,9.93,0,19.861-.049,29.79.029,3.214.026,4.035-.727,3.84-3.851-.063-1,.443-2.423-.2-2.9-.671-.5-2.005-.124-3.05-.131l-14.113-.033c-1.5,0-1.946-.43-1.947-1.9,0-4.832.017-9.665-.015-14.5a1.685,1.685,0,0,1,1.388-1.946c1.227.359,1.491.692,1.492,1.951q.006,6.388,0,12.779c0,.442-.031.768.613.762,4.2-.038,8.391-.035,12.586-.045.412.011.824.031,1.236.032,2.147,0,2.133,0,2.026-2.2-.022-.448-.138-.616-.6-.605-.888.022-1.778-.007-2.666-.015a1.439,1.439,0,0,1-1.043-1.427,1.467,1.467,0,0,1,1.088-1.395c.859-.011,1.717-.015,2.576-.038.257-.006.549.1.64-.348.258-1.285.005-1.648-1.257-1.642-.667,0-1.334.024-2,.037-1.235-.012-2.47-.015-3.7-.039-1.036-.021-1.648-.567-1.651-1.439s.606-1.407,1.645-1.425c1.235-.02,2.471-.026,3.706-.038M660.43,85.7c0-2.1-.019-4.2.011-6.3.009-.616-.13-.776-.751-.586a7.205,7.205,0,0,0-.025,13.709c.709.226.783,0,.775-.615-.027-2.068-.01-4.137-.01-6.206M639.4,41.731c0,1.305.017,2.611-.009,3.915-.01.468.076.679.614.665,1.431-.038,2.865-.032,4.3,0,.514.011.639-.176.635-.662q-.031-3.868,0-7.735c0-.492-.121-.666-.634-.654-1.432.032-2.865.035-4.3,0-.53-.014-.628.181-.617.656.029,1.273.01,2.547.01,3.82" transform="translate(180.745 643.81)" fill="#040403"/>
      <path id="Trazado_277849" data-name="Trazado 277849" d="M594.924,60.192a1.71,1.71,0,0,0,2.352.41,11.019,11.019,0,0,1,14.927,5.72c.6,1.364,1.106,1.562,2.532,1.006a2.349,2.349,0,0,1,1.189-.279,8.554,8.554,0,0,1,2.435,4.7,15.822,15.822,0,0,1-.145,3.678.984.984,0,0,0,.922,1.184,7.435,7.435,0,0,1,3.508,1.56c.826.689,1.818,1.271,2.075,2.455q-6.574,3.822-13.145,7.653c-.366.214-.518.15-.73-.2a7.336,7.336,0,0,0-6.8-3.6c-4.927.027-9.855.008-14.782.007a19.017,19.017,0,0,0-4.078.326c-.6.13-.84-.04-.95-.641a6.329,6.329,0,0,1,5.214-7.4c.314-.05.63-.081.945-.12a1.38,1.38,0,0,0,1.292-1.941,14.438,14.438,0,0,1-.748-3.524A10.989,10.989,0,0,1,592,65.833c.533-1.132.412-1.6-.559-2.372a22.491,22.491,0,0,1,3.48-3.269" transform="translate(180.745 643.81)" fill="#e4f5fc"/>
      <path id="Trazado_277850" data-name="Trazado 277850" d="M636.339,30.227c.267,1.15.66,1.48,1.84,1.482q6.153.01,12.306,0a7.892,7.892,0,0,1,.857.018,1.328,1.328,0,0,1,.115,2.627,4.895,4.895,0,0,1-1.044.042q-16.027,0-32.053,0c-2.559,0-3.961,1.372-3.9,3.955.023.947-.192,1.261-1.183,1.2-1.546-.1-1.551-.025-1.53-1.588a6.124,6.124,0,0,1,6.292-6.251c4.293-.022,8.586,0,12.879-.008,1.177,0,1.561-.325,1.845-1.482h3.575" transform="translate(180.745 643.81)" fill="#74ccf6"/>
      <path id="Trazado_277851" data-name="Trazado 277851" d="M617.3,51.044c0,.6.014,1.208,0,1.811a4.2,4.2,0,0,1-8.4.185,37.362,37.362,0,0,1,0-4,4.2,4.2,0,0,1,8.4.195c.016.6,0,1.208,0,1.812m-2.868.049c0-.6.019-1.2-.005-1.8a1.234,1.234,0,0,0-1.294-1.333,1.2,1.2,0,0,0-1.349,1.179,29.288,29.288,0,0,0,0,3.794,1.326,1.326,0,0,0,2.646-.128c.018-.569,0-1.139,0-1.709" transform="translate(180.745 643.81)" fill="#040403"/>
      <path id="Trazado_277852" data-name="Trazado 277852" d="M623.914,114.808c-.021-1.97-.056-3.939-.061-5.909-.008-3.436.022-6.872-.015-10.308a1.324,1.324,0,0,1,.79-1.335c2.9-1.642,5.81-3.276,8.665-5a7.158,7.158,0,0,0,1.01-11.9,6.718,6.718,0,0,0-2.812-1.34,1.194,1.194,0,0,1-.862-.636,8.909,8.909,0,0,0-5.347-4.178c-.546-.162-.626-.391-.533-.866a7.341,7.341,0,0,0-.588-4.464,1.8,1.8,0,0,1-.1-1.191,9.533,9.533,0,0,1,9.2-7.694c6.044-.075,12.089-.048,18.132.016a8.244,8.244,0,0,1,5.6,2.305,80.95,80.95,0,0,1,.2,8.6c-2.763.018-5.526.042-8.289.054-2.034.008-4.069-.016-6.1.009-1.151.014-1.666.516-1.669,1.611-.011,5.022,0,10.044-.009,15.067a1.489,1.489,0,0,0,1.371,1.641q0,1.778.007,3.556A1.686,1.686,0,0,0,641.1,94.8c.033,4.832.013,9.665.016,14.5,0,1.472.443,1.9,1.947,1.9l14.113.033a3.428,3.428,0,0,1-3.307,3.585q-14.979.007-29.96-.007" transform="translate(180.745 643.81)" fill="#fdde7c"/>
      <path id="Trazado_277853" data-name="Trazado 277853" d="M567.043,113.673,567,97.186c.428-.2.873-.375,1.282-.61,3.965-2.278,7.938-4.541,11.878-6.86a16.665,16.665,0,0,1,8.717-2.342c5.185.022,10.371.006,15.556,0a4.243,4.243,0,0,1,4.012,2.272,4.019,4.019,0,0,1-.116,4.26A4.339,4.339,0,0,1,604.3,95.98c-6.553-.024-13.107-.009-19.66-.007a5.343,5.343,0,0,0-1.045.054,1.318,1.318,0,0,0-1.153,1.5,1.293,1.293,0,0,0,1.283,1.289c.252.024.508.019.762.019q9.879,0,19.756,0c4.292,0,7.112-2.54,7.567-6.828a1.082,1.082,0,0,1,.631-.941c5.066-2.91,10.116-5.848,15.186-8.75a4.2,4.2,0,0,1,6.1,1.87,2.414,2.414,0,0,1-1.14,1.576c-1.763,1.244-3.687,2.222-5.545,3.309-3.775,2.208-7.567,4.385-11.353,6.575q-6.545,3.781-13.091,7.559c-2.242,1.285-4.537,2.441-7.242,2.25a20.832,20.832,0,0,1-4.535-.957,10.7,10.7,0,0,0-8.737.7c-4.052,2.3-8.068,4.66-12.123,6.952a10.776,10.776,0,0,1-2.921,1.519" transform="translate(180.745 643.81)" fill="#fbd0a2"/>
      <path id="Trazado_277854" data-name="Trazado 277854" d="M642.495,92.851q0-1.777-.008-3.556c1.146-.249,1.5-.655,1.5-1.82.007-4.254,0-8.509.005-12.764,0-.418-.156-.893.6-.886,4.19.041,8.378.044,12.568.06q.042,1.413.086,2.828a9.892,9.892,0,0,0-5.4,8.877,9.749,9.749,0,0,0,4.622,8.555c.235.159.479.307.718.46q0,1.576-.005,3.152c-1.234.012-2.47.018-3.705.039-1.039.017-1.648.553-1.645,1.425s.614,1.417,1.65,1.438c1.235.025,2.471.027,3.706.039q.021,1,.042,1.992a1.467,1.467,0,0,0-1.089,1.395,1.44,1.44,0,0,0,1.044,1.427q0,1.394,0,2.786c-4.2.011-8.389.007-12.585.046-.645,0-.614-.32-.613-.763q.012-6.389,0-12.779c0-1.259-.265-1.592-1.491-1.951" transform="translate(180.745 643.81)" fill="#b2e49e"/>
      <path id="Trazado_277855" data-name="Trazado 277855" d="M567.043,113.673a10.776,10.776,0,0,0,2.921-1.519c4.055-2.292,8.071-4.655,12.123-6.952a10.7,10.7,0,0,1,8.737-.7,20.832,20.832,0,0,0,4.535.957c2.705.191,5-.965,7.242-2.25q6.556-3.762,13.091-7.559c3.786-2.19,7.578-4.367,11.353-6.575,1.858-1.087,3.782-2.065,5.545-3.309a2.414,2.414,0,0,0,1.14-1.576,4.2,4.2,0,0,1-1.879,5.614c-4,2.336-8.022,4.639-12.034,6.958-5.743,3.318-11.522,6.577-17.213,9.982a11,11,0,0,1-9.738,1.21,13.544,13.544,0,0,0-12.2,1.486c-4.227,2.632-8.612,5.009-12.93,7.494-.27.155-.506.4-.856.371a14.571,14.571,0,0,1,.159-3.63" transform="translate(180.745 643.81)" fill="#fcbb85"/>
      <path id="Trazado_277856" data-name="Trazado 277856" d="M623.914,114.808q14.98.006,29.96.007a3.428,3.428,0,0,0,3.307-3.585c1.044.006,2.379-.373,3.05.131.641.482.136,1.9.2,2.9.194,3.124-.626,3.877-3.84,3.852-9.93-.079-19.86-.028-29.79-.03-2.306,0-3.142-.954-2.886-3.279" transform="translate(180.745 643.81)" fill="#fbcd63"/>
      <path id="Trazado_277857" data-name="Trazado 277857" d="M646.1,49.209c2.969-.224,3.329.12,3.233,2.888-.05,1.43-.03,2.865,0,4.3.012.538-.152.712-.7.71q-6.492-.029-12.985,0c-.487,0-.688-.129-.663-.641.044-.857.037-1.716.052-2.574,2.725,0,5.449.012,8.174,0a2.867,2.867,0,0,0,2.879-2.493c.065-.723.009-1.456.008-2.185" transform="translate(180.745 643.81)" fill="#72c8f0"/>
      <path id="Trazado_277858" data-name="Trazado 277858" d="M660.43,85.695c0,2.069-.017,4.138.01,6.206.008.617-.066.842-.774.615a7.206,7.206,0,0,1,.024-13.709c.621-.189.761-.03.752.586-.031,2.1-.012,4.2-.012,6.3" transform="translate(180.745 643.81)" fill="#65b192"/>
      <path id="Trazado_277859" data-name="Trazado 277859" d="M646.1,49.209c0,.729.057,1.462-.008,2.185a2.867,2.867,0,0,1-2.879,2.493c-2.725.011-5.449,0-8.174,0-.014-1.078-.048-2.156-.033-3.233a1.33,1.33,0,0,1,1.483-1.475c3.2-.013,6.408.017,9.611.031" transform="translate(180.745 643.81)" fill="#b1e4fa"/>
      <path id="Trazado_277860" data-name="Trazado 277860" d="M639.4,41.731c0-1.273.019-2.547-.01-3.82-.011-.475.088-.67.617-.656,1.432.037,2.865.034,4.3,0,.513-.012.638.162.634.654q-.035,3.867,0,7.735c0,.486-.121.673-.635.662-1.432-.029-2.866-.035-4.3,0-.538.014-.624-.2-.614-.665.026-1.3.009-2.61.009-3.915" transform="translate(180.745 643.81)" fill="#e3f4fb"/>
      <path id="Trazado_277861" data-name="Trazado 277861" d="M624.719,80.631c-.257-1.183-1.249-1.766-2.075-2.454a7.428,7.428,0,0,0-3.507-1.561.982.982,0,0,1-.922-1.184,15.878,15.878,0,0,0,.144-3.678,8.539,8.539,0,0,0-2.434-4.7,4.682,4.682,0,0,1,4.64,1.531,4.981,4.981,0,0,1,1.19,5.12,6.4,6.4,0,0,1-.241.62c-.581,1.412-.114,2.222,1.392,2.346a6.64,6.64,0,0,1,4.338,1.933c.4.406.428.578-.164.82-.816.334-1.577.8-2.361,1.211" transform="translate(180.745 643.81)" fill="#d0ebf9"/>
      <path id="Trazado_277862" data-name="Trazado 277862" d="M657.187,70.913a81.226,81.226,0,0,0-.2-8.6,9.619,9.619,0,0,1,3.451,8.168c-.01.369-.126.507-.5.493-.918-.033-1.837-.041-2.755-.059" transform="translate(180.745 643.81)" fill="#fbcd63"/>
      <path id="Trazado_277863" data-name="Trazado 277863" d="M657.182,108.3q0-1.392,0-2.786c.889.008,1.778.036,2.666.015.46-.011.577.157.6.605.107,2.2.122,2.2-2.026,2.2-.412,0-.824-.021-1.236-.033" transform="translate(180.745 643.81)" fill="#90cf9e"/>
      <path id="Trazado_277864" data-name="Trazado 277864" d="M657.178,97.757q0-1.577,0-3.153a11.54,11.54,0,0,0,2.778.918c.361.048.49.209.476.556a9.434,9.434,0,0,0,0,1.14c.038.465-.156.6-.6.586-.885-.038-1.772-.034-2.658-.047" transform="translate(180.745 643.81)" fill="#90cf9e"/>
      <path id="Trazado_277865" data-name="Trazado 277865" d="M657.243,76.713q-.043-1.415-.086-2.828a17.982,17.982,0,0,1,2.646-.073c.317-.013.724-.031.623.446-.111.523.461,1.325-.405,1.537a23.774,23.774,0,0,0-2.778.918" transform="translate(180.745 643.81)" fill="#82b78a"/>
      <path id="Trazado_277866" data-name="Trazado 277866" d="M657.225,102.69q-.021-1-.042-1.991c.667-.013,1.334-.034,2-.038,1.262-.005,1.515.358,1.257,1.642-.091.451-.383.343-.64.349-.859.022-1.717.027-2.576.038" transform="translate(180.745 643.81)" fill="#90cf9e"/>
      <path id="Trazado_277867" data-name="Trazado 277867" d="M614.433,51.093c0,.57.015,1.14,0,1.709a1.326,1.326,0,0,1-2.646.128,29.463,29.463,0,0,1,0-3.794,1.2,1.2,0,0,1,1.35-1.179,1.235,1.235,0,0,1,1.294,1.333c.023.6,0,1.2,0,1.8" transform="translate(180.745 643.81)" fill="#e3f4fb"/>
    </g>
  </g>
</svg>
