<svg xmlns="http://www.w3.org/2000/svg" width="126" height="126" viewBox="0 0 126 126">
  <g id="Grupo_1071226" data-name="Grupo 1071226" transform="translate(5250 11096)">
    <circle id="Elipse_4309" data-name="Elipse 4309" cx="63" cy="63" r="63" transform="translate(-5250 -11096)" fill="#1b3f5e"/>
    <g id="Grupo_1070896" data-name="Grupo 1070896" transform="translate(-236.076 5.707)">
      <g id="Grupo_254615" data-name="Grupo 254615" transform="translate(-4990.835 -11080.873)">
        <path id="Trazado_272572" data-name="Trazado 272572" d="M825.4,34.084h30.79a12.784,12.784,0,0,1,1.6.654c-.005,2.833-.025,5.667-.012,8.5a2.32,2.32,0,0,0,2.4,2.377c2.388.011,4.776.005,7.164,0,.254,0,.533.061.73-.183a4.44,4.44,0,0,1,.6,2.242q.017,6.768.028,13.536c-.341.01-.682.029-1.023.029-5.1,0-10.191-.007-15.287.008a6.9,6.9,0,0,0-3.461.862,8.577,8.577,0,0,0-5.183,8.008c-.082,6.517-.021,13.037-.025,19.555,0,2.733-.017,5.466-.025,8.2l-4.223,0a3.112,3.112,0,0,0-2.346-2.227c-.007-.2.133-.241.286-.311a3.026,3.026,0,0,0,2.071-3.252,3.09,3.09,0,0,0-2.526-2.757.355.355,0,0,1,0-.113,2.973,2.973,0,0,0,2.517-2.72,3.082,3.082,0,0,0-3.219-3.437c-3.67-.02-7.34-.014-11.011-.019q0-3.078,0-6.155-.005-21.3-.01-42.609l.173-.186m11.136,39.1c.021,1.725-.64,2.476-2.072,2.64a3.388,3.388,0,0,1-3.179-1.177c-.352-.416-.788-.658-1.3-.273a1.178,1.178,0,0,0-.418,1.535,2.487,2.487,0,0,0,.513.69,4.569,4.569,0,0,0,2.259,1.218c.444.107.658.261.645.775-.023.894.422,1.405,1.112,1.423a1.188,1.188,0,0,0,1.187-1.369c-.01-.566.207-.757.713-.91a3.718,3.718,0,0,0,2.356-2.069,4.855,4.855,0,0,0-2.469-6.717c-.622-.279-1.271-.5-1.9-.766a7.257,7.257,0,0,1-1.124-.56,1.735,1.735,0,0,1-.782-1.845,1.615,1.615,0,0,1,1.3-1.412,4.6,4.6,0,0,1,3.433.424.963.963,0,0,0,1.462-.417,1.058,1.058,0,0,0-.384-1.509,3.25,3.25,0,0,0-1.608-.6c-.74-.053-1.052-.291-1.015-1.094a1.124,1.124,0,0,0-1.154-1.154,1.185,1.185,0,0,0-1.142,1.252,1.1,1.1,0,0,0,0,.236c.086.523-.111.786-.642.959a3.453,3.453,0,0,0-2.354,2.452A3.961,3.961,0,0,0,832.1,69.87c.89.445,1.842.763,2.753,1.169a2.4,2.4,0,0,1,1.686,2.146m3.983-23.628h-2.131c-2.868,0-5.735,0-8.6,0-.864,0-1.371.441-1.4,1.162-.033.766.468,1.246,1.359,1.3.157.01.315,0,.473,0q10.259,0,20.519,0a3.621,3.621,0,0,0,1.014-.1,1.186,1.186,0,0,0,.643-1.793,1.377,1.377,0,0,0-1.3-.579q-5.287.013-10.575,0m8.409,8.54q5.13,0,10.261,0a1.25,1.25,0,0,0,1.4-1.175c.028-.725-.532-1.223-1.405-1.251-.132,0-.263,0-.4,0H838.98a5.717,5.717,0,0,0-.709.02,1.183,1.183,0,0,0-1,1.619,1.3,1.3,0,0,0,1.4.8c3.421-.013,6.841-.006,10.261-.006m-17.4,0h1.815c.052,0,.105,0,.157,0a1.223,1.223,0,0,0,1.214-1.2,1.17,1.17,0,0,0-1.186-1.211q-1.971-.046-3.943,0a1.138,1.138,0,0,0-1.2,1.184,1.182,1.182,0,0,0,1.252,1.226c.63.023,1.262,0,1.893.006m26.32-8.539c-.5,0-1-.015-1.495,0a1.2,1.2,0,0,0-1.284,1.2A1.157,1.157,0,0,0,856.223,52c1.072.05,2.151.05,3.222,0a1.2,1.2,0,0,0,1.146-1.262,1.238,1.238,0,0,0-1.25-1.168c-.5-.023-1,0-1.494,0" transform="translate(-804.241 -34.084)" fill="#fdd9a9"/>
        <path id="Trazado_272573" data-name="Trazado 272573" d="M790.349,152.005l-.184-.16v-1.737c.228-.092.111-.322.192-.473h3.911q.016.779.032,1.558-.018.406-.037.81h-3.914" transform="translate(-790.165 -80.474)" fill="#aa6101"/>
        <path id="Trazado_272574" data-name="Trazado 272574" d="M883.617,79.409c2.419.01,4.837.026,7.256.029a8.936,8.936,0,0,1,9,8,15.42,15.42,0,0,1,.11,1.885q0,17.159,0,34.318a9.536,9.536,0,0,1-1.479,5.381c-.14.212-.225.484-.509.573a14.478,14.478,0,0,1-4.512.545q-11.048-.036-22.1,0a8.707,8.707,0,0,1-3.605-.7,4.375,4.375,0,0,1-2.352-1.7,22.637,22.637,0,0,0,5.087.108c.807-.029,1.141-.693,1.177-1.438.034-.7-.014-1.412-.025-2.118a8.213,8.213,0,0,0,.052-1.965,1.374,1.374,0,0,0-1.378-1.349q-2.087-.042-4.177,0A1.349,1.349,0,0,0,864.8,122.4c-.01.63.012,1.261.02,1.891a9.951,9.951,0,0,0,.151,2.993c-.34,0-.486-.258-.664-.49a8.9,8.9,0,0,1-1.9-5.619q.041-17.383,0-34.766a9.884,9.884,0,0,1,1.381-5.793.88.88,0,0,0,.065-.3,6.894,6.894,0,0,1,3.461-.862c5.1-.015,10.192-.006,15.288-.008.341,0,.682-.019,1.023-.029M871.671,113.87a8.238,8.238,0,0,0,.053-1.968,1.371,1.371,0,0,0-1.379-1.348c-1.394-.026-2.79-.028-4.184,0a1.319,1.319,0,0,0-1.361,1.416c-.009.631.012,1.262.02,1.894-.007.654-.025,1.308-.02,1.962a1.442,1.442,0,0,0,1.638,1.644c1.23.018,2.461.02,3.69,0a1.4,1.4,0,0,0,1.568-1.484c.043-.7-.013-1.41-.025-2.115m4.194-.007c-.007.706-.029,1.413-.016,2.119a1.356,1.356,0,0,0,1.386,1.48c1.36.035,2.722.038,4.081,0a1.282,1.282,0,0,0,1.356-1.406c.018-.68,0-1.36-.009-2.04a5.689,5.689,0,0,0,.093-2.1,1.379,1.379,0,0,0-1.515-1.36q-1.963-.019-3.925,0a1.3,1.3,0,0,0-1.473,1.432c-.013.627.013,1.256.021,1.883m0,10.579c-.007.681-.034,1.363-.013,2.043a1.341,1.341,0,0,0,1.383,1.4c1.362.031,2.725.035,4.086,0a1.283,1.283,0,0,0,1.353-1.41c.018-.68,0-1.362-.009-2.043a5.738,5.738,0,0,0,.093-2.113,1.356,1.356,0,0,0-1.383-1.345c-1.392-.028-2.786-.032-4.177,0a1.284,1.284,0,0,0-1.353,1.415c-.013.682.011,1.366.02,2.048m11.187-21.634c-.009.763-.042,1.526-.021,2.287a1.243,1.243,0,0,0,1.317,1.357q2.091.042,4.183,0a1.249,1.249,0,0,0,1.326-1.35c.02-.815-.011-1.63-.02-2.445.016-.526.053-1.051.041-1.576a1.346,1.346,0,0,0-1.434-1.52c-1.34-.05-2.684-.048-4.023,0a1.373,1.373,0,0,0-1.457,1.365,4.876,4.876,0,0,0,.088,1.879m-4.388.152a5.058,5.058,0,0,0,.112-1.791,1.432,1.432,0,0,0-1.454-1.614,41.151,41.151,0,0,0-4.157,0c-.9.046-1.312.6-1.323,1.526-.007.628.014,1.255.022,1.883-.006.706-.032,1.413-.013,2.118a1.245,1.245,0,0,0,1.3,1.36q2.119.042,4.238,0a1.21,1.21,0,0,0,1.278-1.29c.025-.731,0-1.464,0-2.2m-11.036.153a6.454,6.454,0,0,0,.08-2.273,1.279,1.279,0,0,0-1.22-1.246,21.7,21.7,0,0,0-4.559.025A1.235,1.235,0,0,0,864.8,101c0,.657.013,1.314.02,1.972-.007.681-.036,1.362-.016,2.042a1.323,1.323,0,0,0,1.483,1.443c1.283.014,2.567.011,3.85,0a1.4,1.4,0,0,0,1.569-1.539c.013-.6-.05-1.2-.08-1.8m22.21,20.225c.01-3.628.039-7.257.02-10.884a1.9,1.9,0,0,0-1.918-1.9c-.814-.029-1.63-.008-2.445-.008-1.778,0-2.549.76-2.553,2.534q-.008,4.615,0,9.23c0,.392.07.783.108,1.175-.008.733-.047,1.468-.016,2.2a2.238,2.238,0,0,0,2.221,2.2c.785.036,1.573.035,2.359,0a2.263,2.263,0,0,0,2.243-2.27c.019-.759-.013-1.519-.022-2.279M871.755,94.922a4.84,4.84,0,0,0,.776.124c6.052.008,12.1.024,18.157,0a2.839,2.839,0,0,0,3.04-2.619,19.824,19.824,0,0,0,.025-5.035,2.893,2.893,0,0,0-3.241-2.735q-6.237,0-12.473,0c-2.052,0-4.1.025-6.155.039-1.392-.008-2.784-.047-4.175-.014a2.909,2.909,0,0,0-2.9,2.765q-.061,2.363,0,4.728a2.791,2.791,0,0,0,2.771,2.762c1.392.023,2.784-.005,4.175-.011" transform="translate(-819.165 -52.281)" fill="#7ccb91"/>
        <path id="Trazado_272575" data-name="Trazado 272575" d="M861.3,80.912a.868.868,0,0,1-.065.3,9.885,9.885,0,0,0-1.381,5.793q.056,17.383,0,34.766a8.9,8.9,0,0,0,1.9,5.619c.178.231.324.487.664.489l-.014-.005a.355.355,0,0,0,.165.326l-.01-.01a.356.356,0,0,0,.326.164l-.006-.013a4.38,4.38,0,0,0,2.352,1.7,8.719,8.719,0,0,0,3.606.7q11.047-.036,22.1,0a14.485,14.485,0,0,0,4.512-.545,8.046,8.046,0,0,1-6.653,3.491q-12.061.126-24.125.011a8.914,8.914,0,0,1-8.572-8.559c-.026-.866-.026-1.733-.038-2.6q0-2.936,0-5.872c.009-2.733.024-5.466.026-8.2,0-6.519-.057-13.037.025-19.555a8.575,8.575,0,0,1,5.183-8.008" transform="translate(-816.623 -52.884)" fill="#4cba68"/>
        <path id="Trazado_272576" data-name="Trazado 272576" d="M817.02,83.132q0-21.3,0-42.605A6.148,6.148,0,0,1,821.93,34.4q0,21.3.01,42.609,0,3.078,0,6.155l-4.923-.028" transform="translate(-800.944 -34.209)" fill="#fec477"/>
        <path id="Trazado_272577" data-name="Trazado 272577" d="M812.939,115.822l4.923.028c3.671,0,7.341,0,11.011.019a3.082,3.082,0,0,1,3.219,3.437,2.973,2.973,0,0,1-2.517,2.72l-11.1-.016a.741.741,0,0,0-.592.144h-4.923a14.607,14.607,0,0,0-3.5-.128,3.1,3.1,0,0,1-2.6-3.164,3.164,3.164,0,0,1,3.1-2.984c1-.038,1.993-.04,2.989-.057" transform="translate(-796.863 -66.899)" fill="#fea734"/>
        <path id="Trazado_272578" data-name="Trazado 272578" d="M812.983,126.393h4.923l11.692-.016a3.091,3.091,0,0,1,2.526,2.757,3.026,3.026,0,0,1-2.07,3.252c-.153.07-.293.113-.287.311a10.355,10.355,0,0,0-1.162-.129q-6.248-.009-12.5,0a12.153,12.153,0,0,0-5.967-1.269l-2.689-.015c-1.184-2.265-.367-4.236,2.034-4.91l3.493.016" transform="translate(-796.891 -71.136)" fill="#fd9812"/>
        <path id="Trazado_272579" data-name="Trazado 272579" d="M839.356,90.579a2.4,2.4,0,0,0-1.686-2.146c-.91-.406-1.863-.723-2.753-1.169a3.961,3.961,0,0,1-2.127-4.956,3.451,3.451,0,0,1,2.354-2.452c.53-.172.727-.436.642-.959a1.155,1.155,0,0,1,0-.236,1.186,1.186,0,0,1,1.143-1.252,1.124,1.124,0,0,1,1.154,1.154c-.037.8.275,1.041,1.015,1.094a3.251,3.251,0,0,1,1.608.6,1.058,1.058,0,0,1,.384,1.509.964.964,0,0,1-1.462.418,4.594,4.594,0,0,0-3.432-.425,1.614,1.614,0,0,0-1.3,1.412,1.735,1.735,0,0,0,.782,1.845,7.262,7.262,0,0,0,1.124.56c.627.268,1.275.487,1.9.766a4.855,4.855,0,0,1,2.469,6.717,3.717,3.717,0,0,1-2.356,2.069c-.506.153-.723.344-.713.91a1.187,1.187,0,0,1-1.186,1.369c-.69-.017-1.135-.529-1.113-1.423.014-.514-.2-.668-.645-.775a4.569,4.569,0,0,1-2.259-1.218,2.489,2.489,0,0,1-.513-.69,1.179,1.179,0,0,1,.418-1.535c.517-.385.952-.143,1.3.273a3.387,3.387,0,0,0,3.178,1.177c1.432-.165,2.094-.915,2.073-2.64" transform="translate(-807.063 -51.477)" fill="#519120"/>
        <path id="Trazado_272580" data-name="Trazado 272580" d="M822.277,136.724q6.248-.005,12.5,0a10.348,10.348,0,0,1,1.162.129,3.111,3.111,0,0,1,2.346,2.226c.042,2.265-.684,3.361-2.522,3.81l-8.689-.013a12.23,12.23,0,0,0-2.1-3.855,17.047,17.047,0,0,0-2.693-2.292" transform="translate(-803.057 -75.288)" fill="#ec8600"/>
        <path id="Trazado_272581" data-name="Trazado 272581" d="M879.614,35.176a5.386,5.386,0,0,1,1.894,1.369q3.7,3.911,7.389,7.833a4.777,4.777,0,0,1,1,1.5c-.2.245-.476.183-.731.183-2.388,0-4.776.01-7.164,0a2.32,2.32,0,0,1-2.4-2.378c-.013-2.834.006-5.667.012-8.5" transform="translate(-826.069 -34.522)" fill="#feb656"/>
        <path id="Trazado_272582" data-name="Trazado 272582" d="M842.635,59.933q5.287,0,10.575,0a1.377,1.377,0,0,1,1.3.579,1.186,1.186,0,0,1-.643,1.793,3.621,3.621,0,0,1-1.014.1q-10.259.008-20.519,0c-.158,0-.316.006-.474,0-.892-.053-1.392-.533-1.359-1.3.031-.721.538-1.16,1.4-1.162,2.868-.008,5.735,0,8.6,0h2.131" transform="translate(-806.358 -44.46)" fill="#519120"/>
        <path id="Trazado_272583" data-name="Trazado 272583" d="M856.946,72.574c-3.42,0-6.841-.007-10.261.006a1.3,1.3,0,0,1-1.4-.8,1.183,1.183,0,0,1,1-1.619,5.712,5.712,0,0,1,.709-.02h19.811c.131,0,.263,0,.394,0,.874.028,1.433.526,1.405,1.251a1.249,1.249,0,0,1-1.4,1.175q-5.13.012-10.261,0" transform="translate(-812.261 -48.56)" fill="#519120"/>
        <path id="Trazado_272584" data-name="Trazado 272584" d="M844.795,144.465c1.838-.448,2.564-1.544,2.522-3.81l4.223,0q0,2.936,0,5.871H847.2a3.175,3.175,0,0,0-2.411-1.945.494.494,0,0,1,.009-.119" transform="translate(-812.093 -76.869)" fill="#fec477"/>
        <path id="Trazado_272585" data-name="Trazado 272585" d="M833.644,72.569c-.631,0-1.263.017-1.893-.005a1.181,1.181,0,0,1-1.252-1.226,1.139,1.139,0,0,1,1.2-1.184q1.971-.042,3.943,0a1.17,1.17,0,0,1,1.186,1.211,1.224,1.224,0,0,1-1.214,1.2c-.053,0-.105,0-.158,0h-1.814" transform="translate(-806.358 -48.556)" fill="#519120"/>
        <path id="Trazado_272586" data-name="Trazado 272586" d="M877.864,59.933c.5,0,1-.019,1.494,0a1.237,1.237,0,0,1,1.25,1.168,1.2,1.2,0,0,1-1.146,1.262c-1.071.053-2.15.053-3.222,0a1.157,1.157,0,0,1-1.154-1.24,1.2,1.2,0,0,1,1.284-1.2c.5-.018,1,0,1.495,0" transform="translate(-824.258 -44.459)" fill="#519120"/>
        <path id="Trazado_272587" data-name="Trazado 272587" d="M836.969,126.289l-11.693.016a.741.741,0,0,1,.593-.145l11.1.016a.359.359,0,0,0,0,.113" transform="translate(-804.261 -71.049)" fill="#feb656"/>
        <path id="Trazado_272588" data-name="Trazado 272588" d="M801.975,134.582l2.689.015a10.831,10.831,0,0,0-7.542,4.58l-3.855-.025a9.8,9.8,0,0,1,8.08-4.54c.209-.014.418-.02.627-.031" transform="translate(-791.411 -74.431)" fill="#cb7401"/>
        <path id="Trazado_272589" data-name="Trazado 272589" d="M792.454,142.218l3.854.025q-.6,1.276-1.21,2.552l-3.858-.036a5.57,5.57,0,0,1,1.214-2.54" transform="translate(-790.596 -77.496)" fill="#aa6101"/>
        <path id="Trazado_272590" data-name="Trazado 272590" d="M790.936,146.462l3.856.037q-.2.931-.4,1.863h-3.911a5.67,5.67,0,0,1,.452-1.9" transform="translate(-790.293 -79.2)" fill="#cb7401"/>
        <path id="Trazado_272591" data-name="Trazado 272591" d="M814.7,126.29l-3.493-.016a.287.287,0,0,0-.007-.113,14.6,14.6,0,0,1,3.5.129" transform="translate(-798.611 -71.033)" fill="#feb656"/>
        <path id="Trazado_272592" data-name="Trazado 272592" d="M834.573,157.573A3.085,3.085,0,0,1,837,159.988a2.962,2.962,0,0,1-.991,2.99,2.674,2.674,0,0,1-1.781.745q-7.53,0-15.059-.019a10.5,10.5,0,0,0,6.363-6.137l9.037.007" transform="translate(-801.811 -83.658)" fill="#aa6101"/>
        <path id="Trazado_272593" data-name="Trazado 272593" d="M816.639,155.427a10.492,10.492,0,0,1-6.363,6.137,14.583,14.583,0,0,1-5.221.362c-.078-.062-.147-.159-.235-.181a10.389,10.389,0,0,1-6.077-4.123l-1.225-2.386-.506-2.187q.019-.4.037-.81h2.471a9.364,9.364,0,0,0,1.214,3.613,7.536,7.536,0,0,0,12.429.537,9.1,9.1,0,0,0,1.569-4.154l2.477,0a7.708,7.708,0,0,1-.569,3.185" transform="translate(-792.913 -81.519)" fill="#fea734"/>
        <path id="Trazado_272594" data-name="Trazado 272594" d="M829.8,153.412a7.711,7.711,0,0,0,.569-3.185,10.153,10.153,0,0,0-.259-2.981l8.657-.026a3.173,3.173,0,0,1,2.411,1.945c.467,2.089-.084,3.091-2.341,4.254l-9.037-.007" transform="translate(-806.079 -79.505)" fill="#cb7401"/>
        <path id="Trazado_272595" data-name="Trazado 272595" d="M797.316,161.233a10.385,10.385,0,0,0,6.078,4.123c.087.022.157.119.235.181a10.77,10.77,0,0,1-9.073-2.945,6.554,6.554,0,0,1-1.1-1.325l3.858-.035" transform="translate(-791.487 -85.13)" fill="#cb7401"/>
        <path id="Trazado_272596" data-name="Trazado 272596" d="M796.513,159.633l-3.857.035a5.882,5.882,0,0,1-1.2-2.227c.229-.242.528-.17.8-.173,1.008-.012,2.017-.014,3.024-.021q.612,1.193,1.226,2.386" transform="translate(-790.684 -83.53)" fill="#aa6101"/>
        <path id="Trazado_272597" data-name="Trazado 272597" d="M794.892,155.781c-1.008.006-2.016.008-3.024.02-.277,0-.576-.069-.805.174a6.409,6.409,0,0,1-.591-2.38h3.914q.252,1.094.506,2.187" transform="translate(-790.288 -82.063)" fill="#cb7401"/>
        <path id="Trazado_272598" data-name="Trazado 272598" d="M816.952,142.17a10.149,10.149,0,0,1,.258,2.981l-2.477,0a8.717,8.717,0,0,0-.5-3.079c-.988-2.649-3.694-4.763-6.164-4.789a6.782,6.782,0,0,0-4.813.965,7.554,7.554,0,0,0-3.74,6.907l-2.471,0-.032-1.559.4-1.863,1.211-2.552a10.833,10.833,0,0,1,7.542-4.581,12.162,12.162,0,0,1,5.967,1.269,17.034,17.034,0,0,1,2.692,2.292,12.225,12.225,0,0,1,2.1,3.855c.008.053.016.106.024.159" transform="translate(-792.917 -74.428)" fill="#fec477"/>
        <path id="Trazado_272599" data-name="Trazado 272599" d="M876.753,88.207c2.052-.014,4.1-.036,6.155-.039q6.237-.009,12.473,0a2.893,2.893,0,0,1,3.241,2.735,19.825,19.825,0,0,1-.025,5.035,2.84,2.84,0,0,1-3.04,2.619c-6.052.029-12.1.013-18.157.005a4.905,4.905,0,0,1-.776-.124,3.349,3.349,0,0,1-2.073-3.609,18.046,18.046,0,0,0,0-2.68,3.563,3.563,0,0,1,2.2-3.942" transform="translate(-824.035 -55.796)" fill="#3d9ae0"/>
        <path id="Trazado_272600" data-name="Trazado 272600" d="M903.511,144.364c-.038-.391-.106-.783-.107-1.175q-.013-4.615,0-9.23c0-1.774.774-2.532,2.552-2.534.815,0,1.631-.022,2.445.008a1.9,1.9,0,0,1,1.918,1.9c.019,3.628-.009,7.256-.019,10.884a2.642,2.642,0,0,1-2.861,1.581,3.3,3.3,0,0,0-.86,0,2.984,2.984,0,0,1-3.065-1.436" transform="translate(-835.624 -73.16)" fill="#fd9812"/>
        <path id="Trazado_272601" data-name="Trazado 272601" d="M873.48,88.218a3.563,3.563,0,0,0-2.2,3.942,18.038,18.038,0,0,1,0,2.68,3.349,3.349,0,0,0,2.073,3.609c-1.392.006-2.784.034-4.175.011a2.791,2.791,0,0,1-2.771-2.762q-.059-2.363,0-4.728a2.908,2.908,0,0,1,2.9-2.765c1.39-.033,2.783.007,4.175.014" transform="translate(-820.761 -55.806)" fill="#1f81cd"/>
        <path id="Trazado_272602" data-name="Trazado 272602" d="M866.429,116.438c-.008-.657-.023-1.314-.02-1.972a1.235,1.235,0,0,1,1.128-1.377,21.7,21.7,0,0,1,4.559-.025,1.279,1.279,0,0,1,1.22,1.246,6.454,6.454,0,0,1-.08,2.273,9.331,9.331,0,0,1-6.807-.144" transform="translate(-820.774 -65.749)" fill="#327f47"/>
        <path id="Trazado_272603" data-name="Trazado 272603" d="M884.879,116.448c-.008-.628-.029-1.255-.022-1.883.01-.922.425-1.48,1.323-1.526a41.138,41.138,0,0,1,4.156,0,1.432,1.432,0,0,1,1.454,1.614,5.056,5.056,0,0,1-.112,1.791,8.179,8.179,0,0,1-6.8.008" transform="translate(-828.18 -65.76)" fill="#327f47"/>
        <path id="Trazado_272604" data-name="Trazado 272604" d="M903.495,116.3a4.888,4.888,0,0,1-.089-1.879,1.373,1.373,0,0,1,1.458-1.365c1.34-.051,2.684-.054,4.023,0a1.346,1.346,0,0,1,1.433,1.521c.012.524-.025,1.05-.041,1.575a1.981,1.981,0,0,1-1.925.946c-.835-.033-1.675-.047-2.508,0a2.764,2.764,0,0,1-2.352-.8" transform="translate(-835.609 -65.774)" fill="#fd9812"/>
        <path id="Trazado_272605" data-name="Trazado 272605" d="M884.879,152.311c-.008-.683-.033-1.366-.02-2.048a1.285,1.285,0,0,1,1.353-1.416c1.392-.034,2.786-.029,4.177,0a1.356,1.356,0,0,1,1.383,1.346,5.723,5.723,0,0,1-.093,2.113,10.435,10.435,0,0,1-6.8.008" transform="translate(-828.18 -80.148)" fill="#327f47"/>
        <path id="Trazado_272606" data-name="Trazado 272606" d="M884.88,134.745c-.008-.628-.033-1.256-.021-1.883a1.3,1.3,0,0,1,1.473-1.432q1.962-.018,3.925,0a1.379,1.379,0,0,1,1.515,1.361,5.69,5.69,0,0,1-.093,2.1,9.072,9.072,0,0,1-6.8-.15" transform="translate(-828.18 -73.162)" fill="#327f47"/>
        <path id="Trazado_272607" data-name="Trazado 272607" d="M866.428,134.743c-.008-.631-.029-1.263-.02-1.894a1.319,1.319,0,0,1,1.361-1.416c1.394-.029,2.79-.026,4.184,0a1.371,1.371,0,0,1,1.378,1.348,8.235,8.235,0,0,1-.053,1.968,3.234,3.234,0,0,1-2.564.621c-1.441-.124-2.979.409-4.287-.627" transform="translate(-820.773 -73.158)" fill="#327f47"/>
        <path id="Trazado_272608" data-name="Trazado 272608" d="M866.429,152.154c-.008-.63-.029-1.26-.02-1.891a1.35,1.35,0,0,1,1.368-1.417q2.087-.045,4.177,0a1.373,1.373,0,0,1,1.378,1.348,8.216,8.216,0,0,1-.052,1.965,3.21,3.21,0,0,1-2.573.619c-1.435-.139-2.979.446-4.278-.625" transform="translate(-820.773 -80.149)" fill="#327f47"/>
        <path id="Trazado_272609" data-name="Trazado 272609" d="M866.418,154.388c1.3,1.071,2.843.486,4.278.625a3.209,3.209,0,0,0,2.573-.619c.011.706.059,1.414.025,2.118-.036.745-.37,1.409-1.177,1.438a22.673,22.673,0,0,1-5.087-.107l.006.013a.29.29,0,0,0-.326-.164l.01.01a.3.3,0,0,0-.165-.326l.014.006a9.951,9.951,0,0,1-.151-2.993" transform="translate(-820.763 -82.382)" fill="#2d7440"/>
        <path id="Trazado_272610" data-name="Trazado 272610" d="M866.429,136.977c1.308,1.035,2.846.5,4.287.627a3.234,3.234,0,0,0,2.564-.621c.012.705.068,1.413.025,2.115a1.405,1.405,0,0,1-1.568,1.484c-1.23.021-2.46.019-3.69,0a1.442,1.442,0,0,1-1.638-1.644c-.005-.654.013-1.308.02-1.962" transform="translate(-820.774 -75.392)" fill="#2d7440"/>
        <path id="Trazado_272611" data-name="Trazado 272611" d="M903.569,152.95a2.984,2.984,0,0,0,3.065,1.436,3.3,3.3,0,0,1,.859,0,2.642,2.642,0,0,0,2.861-1.581c.008.76.04,1.52.021,2.279a2.263,2.263,0,0,1-2.243,2.27c-.785.035-1.574.036-2.359,0a2.238,2.238,0,0,1-2.221-2.2c-.031-.732.008-1.466.016-2.2" transform="translate(-835.682 -81.747)" fill="#ec8600"/>
        <path id="Trazado_272612" data-name="Trazado 272612" d="M884.883,136.975a9.072,9.072,0,0,0,6.8.15c0,.68.028,1.36.008,2.04a1.282,1.282,0,0,1-1.356,1.407c-1.359.04-2.721.037-4.081,0a1.357,1.357,0,0,1-1.387-1.48c-.013-.706.01-1.413.016-2.119" transform="translate(-828.183 -75.391)" fill="#2d7440"/>
        <path id="Trazado_272613" data-name="Trazado 272613" d="M884.881,154.645a10.435,10.435,0,0,0,6.8-.008c0,.681.028,1.362.01,2.043a1.284,1.284,0,0,1-1.353,1.41c-1.361.037-2.724.033-4.086,0a1.34,1.34,0,0,1-1.383-1.4c-.021-.68.007-1.361.013-2.042" transform="translate(-828.182 -82.482)" fill="#2d7440"/>
        <path id="Trazado_272614" data-name="Trazado 272614" d="M866.427,118.773a9.331,9.331,0,0,0,6.807.144c.029.6.093,1.2.08,1.8a1.4,1.4,0,0,1-1.568,1.539c-1.284.01-2.567.013-3.851,0a1.323,1.323,0,0,1-1.483-1.443c-.021-.68.008-1.362.016-2.042" transform="translate(-820.773 -68.084)" fill="#2d7440"/>
        <path id="Trazado_272615" data-name="Trazado 272615" d="M903.567,118.4a2.765,2.765,0,0,0,2.352.8c.833-.05,1.673-.036,2.508,0a1.981,1.981,0,0,0,1.925-.946c.009.815.041,1.631.02,2.445a1.25,1.25,0,0,1-1.326,1.35q-2.091.041-4.183,0a1.243,1.243,0,0,1-1.317-1.356c-.021-.762.012-1.524.021-2.287" transform="translate(-835.681 -67.875)" fill="#ec8600"/>
        <path id="Trazado_272616" data-name="Trazado 272616" d="M884.882,118.766a8.179,8.179,0,0,0,6.8-.008c0,.733.029,1.465.005,2.2a1.211,1.211,0,0,1-1.279,1.29q-2.118.043-4.237,0a1.245,1.245,0,0,1-1.3-1.36c-.019-.706.007-1.412.013-2.118" transform="translate(-828.183 -68.078)" fill="#2d7440"/>
        <path id="Trazado_272617" data-name="Trazado 272617" d="M866.673,159.38a.3.3,0,0,1,.165.326.354.354,0,0,1-.165-.326" transform="translate(-820.88 -84.386)" fill="#7ccb91"/>
        <path id="Trazado_272618" data-name="Trazado 272618" d="M866.932,159.9a.289.289,0,0,1,.326.164.356.356,0,0,1-.326-.164" transform="translate(-820.984 -84.594)" fill="#7ccb91"/>
        <path id="Trazado_272619" data-name="Trazado 272619" d="M830.307,147.157c-.008-.053-.016-.106-.024-.159l8.69.013a.5.5,0,0,0-.009.12l-8.657.026" transform="translate(-806.271 -79.415)" fill="#fd9812"/>
        <path id="Trazado_272620" data-name="Trazado 272620" d="M811.53,139.091c2.47.025,5.176,2.14,6.164,4.789a8.686,8.686,0,0,1,.5,3.079,9.094,9.094,0,0,1-1.569,4.154,7.6,7.6,0,0,1-5.1,2.96c-.239-.1-.473-.218-.716-.306a7.548,7.548,0,0,1-5.08-8.381,7.286,7.286,0,0,1,4.791-5.885,3.434,3.434,0,0,0,1.014-.41m2.375,3.575c.016-.84-.621-1.1-1.242-1.317-.341-.12-.587-.2-.7-.615a1.1,1.1,0,0,0-1.19-.839,1.114,1.114,0,0,0-1.14,1,.721.721,0,0,1-.412.613,2.852,2.852,0,0,0-1.479,3.193,2.767,2.767,0,0,0,2.009,2.3c.51.208,1.024.411,1.514.661s.487.724.386,1.173-.46.5-.858.527a1.665,1.665,0,0,1-1.381-.622,1,1,0,0,0-1.423-.12,1.155,1.155,0,0,0-.442,1.456,2.243,2.243,0,0,0,1.325,1.271,1.141,1.141,0,0,1,.82.85,1.056,1.056,0,0,0,1.027.736.941.941,0,0,0,1.059-.521,2.209,2.209,0,0,1,1.212-1.323,1.943,1.943,0,0,0,.666-.764,3.46,3.46,0,0,0-1.76-5.128,15.081,15.081,0,0,1-1.436-.631.511.511,0,0,1-.314-.581.594.594,0,0,1,.573-.459,2.712,2.712,0,0,1,1.456.224,1.135,1.135,0,0,0,1.727-1.076" transform="translate(-796.372 -76.241)" fill="#ec8600"/>
        <path id="Trazado_272621" data-name="Trazado 272621" d="M809.753,139.021a3.452,3.452,0,0,1-1.015.411,7.284,7.284,0,0,0-4.791,5.884,7.55,7.55,0,0,0,5.08,8.381c.244.089.478.2.716.306a7.644,7.644,0,0,1-7.33-3.5,9.364,9.364,0,0,1-1.214-3.613,7.553,7.553,0,0,1,3.74-6.907,6.782,6.782,0,0,1,4.813-.965" transform="translate(-794.596 -76.171)" fill="#cb7401"/>
        <path id="Trazado_272622" data-name="Trazado 272622" d="M815.13,143.2a1.135,1.135,0,0,1-1.727,1.076,2.712,2.712,0,0,0-1.456-.224.594.594,0,0,0-.573.459.511.511,0,0,0,.314.581,15.105,15.105,0,0,0,1.436.631,3.46,3.46,0,0,1,1.76,5.128,1.943,1.943,0,0,1-.666.764,2.209,2.209,0,0,0-1.212,1.323.941.941,0,0,1-1.059.521,1.056,1.056,0,0,1-1.027-.736,1.141,1.141,0,0,0-.82-.85,2.244,2.244,0,0,1-1.325-1.271,1.155,1.155,0,0,1,.442-1.456,1,1,0,0,1,1.423.12,1.665,1.665,0,0,0,1.381.622c.4-.025.76-.089.858-.527s.1-.924-.386-1.173-1-.453-1.514-.661a2.768,2.768,0,0,1-2.009-2.3,2.853,2.853,0,0,1,1.479-3.193.721.721,0,0,0,.412-.613,1.114,1.114,0,0,1,1.14-1,1.1,1.1,0,0,1,1.19.839c.11.417.356.494.7.615.621.218,1.258.478,1.242,1.317" transform="translate(-797.598 -76.778)" fill="#aa6101"/>
      </g>
    </g>
  </g>
</svg>
