<svg xmlns="http://www.w3.org/2000/svg" xmlns:xlink="http://www.w3.org/1999/xlink" width="148.29" height="148.29" viewBox="0 0 148.29 148.29">
  <defs>
    <clipPath id="clip-path">
      <rect id="Rectángulo_325507" data-name="Rectángulo 325507" width="148.29" height="148.29" fill="none"/>
    </clipPath>
  </defs>
  <g id="Grupo_261793" data-name="Grupo 261793" transform="translate(-723 -3173)">
    <g id="Grupo_261728" data-name="Grupo 261728" transform="translate(723 3173)">
      <g id="Grupo_261727" data-name="Grupo 261727" clip-path="url(#clip-path)">
        <path id="Trazado_279580" data-name="Trazado 279580" d="M148.29,74.145A74.145,74.145,0,1,1,74.145,0,74.145,74.145,0,0,1,148.29,74.145" fill="#e2e8ec"/>
        <path id="Trazado_279581" data-name="Trazado 279581" d="M133.922,92.179a6.2,6.2,0,0,0-.539,2.182c-2.645,10.734-9.4,17.326-20.091,19.963q-3.7.914-7.414,1.785a2.748,2.748,0,0,0-1.085.513,33.407,33.407,0,0,1-20.735,7.144c-5.024.026-10.05.071-15.071-.057a32.076,32.076,0,0,1-18.338-6.284,11.237,11.237,0,0,0-3.979-1.762c-3.495-.888-7.072-1.473-10.437-2.846A25.531,25.531,0,0,1,20.408,89.588c-.063-13-.026-26.008-.016-39.012,0-6.855,5.108-12.731,11.586-13.384A13.381,13.381,0,0,1,46.767,47.824c.772,3.525,1.538,7.052,2.32,10.636a26.263,26.263,0,0,0,6.035-2.775c3.044-1.872,5.82-4.182,9.073-5.707,9.926-4.653,19.573-4.052,28.9,1.682,3.136,1.928,6,4.306,9.416,5.77.874.374,1.768.7,2.691,1.064.846-3.806,1.593-7.528,2.509-11.208a13.274,13.274,0,0,1,26,.877c.027.147.035.288.209.337V74.22a2.1,2.1,0,0,1-1.691,1.194c-1.328-.378-1.634-.781-1.635-2.21,0-7.673.035-15.346-.021-23.019a9.94,9.94,0,0,0-19.3-3.193,60.55,60.55,0,0,0-1.992,8.819c-.24,1-.438,2.006-.737,2.985-.184.6-.039.845.547,1.034,1.468.473,2.914,1.013,4.368,1.525,3.209,1.887,4.527,4.719,4.48,8.4-.083,6.5-.021,13-.025,19.5a38.619,38.619,0,0,1-.582,6.718,39.853,39.853,0,0,1-1.863,6.563c.154.014.233.047.281.021.258-.141.516-.286.761-.449a15.208,15.208,0,0,0,7.146-13.237c.053-12.666.02-25.333.014-38,0-1.969-1.055-3.315-2.68-3.487-1.8-.191-3.044.859-3.487,2.927-.393,1.838-.786,3.676-1.2,5.508-.314,1.384-.7,1.695-2.1,1.788l-.86-.474-.25-.258.038-.006a2.877,2.877,0,0,1-.09-1.727c.463-1.934.843-3.888,1.294-5.825A6.384,6.384,0,0,1,127,50.706q.02,19.212,0,38.425a18.869,18.869,0,0,1-1.194,6.494,19.608,19.608,0,0,1-7.193,9.164,23.26,23.26,0,0,1-5.128,2.293,1.04,1.04,0,0,0-.583.481q-1.349,1.954-2.705,3.9l-.1.132.089,0-.012-.141a20.1,20.1,0,0,0,6.007-1.522c7.01-2.069,13.375-10.09,14.21-17.852a105.646,105.646,0,0,0,.183-10.617c.009-1.252.4-2.063,1.654-2.359a3.179,3.179,0,0,1,1.7,1.1ZM44.137,111.456c0,.047-.005.094-.008.141h.089l-.1-.129q-1.352-1.953-2.7-3.9a1.041,1.041,0,0,0-.583-.482A23.217,23.217,0,0,1,35.7,104.79c-6.165-4.426-8.607-10.51-8.44-17.992.188-8.451.043-16.91.043-25.366,0-3.656-.032-7.312.011-10.967A6.413,6.413,0,0,1,32.578,44.1a6.232,6.232,0,0,1,7.012,3.974c.817,2.591,1.261,5.3,1.843,7.963a2.733,2.733,0,0,1-.1.869,2.1,2.1,0,0,1-1.215.966,1.815,1.815,0,0,1-2.037-1.716c-.385-1.988-.857-3.96-1.293-5.939a3.97,3.97,0,0,0-.712-1.717,3.029,3.029,0,0,0-3.386-.967,3.121,3.121,0,0,0-2.056,3.318q-.008,19.053,0,38.107a15.561,15.561,0,0,0,8.2,13.746,3.887,3.887,0,0,0-.111-.568,32.625,32.625,0,0,1-1.71-5.934c-.948-4.866-.541-9.789-.606-14.69a1.683,1.683,0,0,1,1.715-1.8,1.77,1.77,0,0,1,1.606,2.009c-.026,2.694-.046,5.388,0,8.081a30.19,30.19,0,0,0,10.963,23.464,28.181,28.181,0,0,0,13.366,6.461,15.51,15.51,0,0,0,3.805.6c5.353.26,10.71.1,16.065.115a31.244,31.244,0,0,0,8.842-1.272,30.428,30.428,0,0,0,21.646-26.79c.5-7.926.145-15.877.144-23.816a4.623,4.623,0,0,0-3.233-4.461c-.512-.2-1.048-.35-1.566-.541-3.76-1.386-7.712-2.31-11.18-4.405-2.618-1.581-5.11-3.369-7.719-4.967a25.574,25.574,0,0,0-21.371-2.788c-3.709,1.081-6.863,3.207-9.972,5.388A37.965,37.965,0,0,1,48.768,62.12c-1.509.462-2.976,1.061-4.462,1.6-3.278.8-4.586,2.45-4.588,5.792,0,1.551-.05,3.1.015,4.652a1.947,1.947,0,0,1-1.607,2.268c-1.459-.459-1.73-.827-1.734-2.38,0-1.437.048-2.877-.011-4.312a8.642,8.642,0,0,1,4.463-8.384c1.457-.511,2.911-1.033,4.374-1.529.412-.139.765-.226.6-.812-.294-1.06-.534-2.134-.8-3.2-.507-2.413-.981-4.835-1.53-7.239a9.952,9.952,0,0,0-11.236-8.05c-4.872.566-8.534,4.943-8.538,10.247q-.013,19.162,0,38.324a20.331,20.331,0,0,0,.688,5.474c2.048,7.37,6.527,12.591,13.729,15.369a20.248,20.248,0,0,0,6.005,1.521" fill="#030304"/>
        <path id="Trazado_279582" data-name="Trazado 279582" d="M132.231,75.414a2.1,2.1,0,0,0,1.69-1.194v5.986a3.175,3.175,0,0,0-1.7-1.1l.006-3.691" fill="#fbfbfb"/>
        <path id="Trazado_279583" data-name="Trazado 279583" d="M44.307,63.718c1.486-.536,2.952-1.135,4.461-1.6A38,38,0,0,0,59.516,56.8c3.109-2.181,6.263-4.308,9.971-5.389A25.574,25.574,0,0,1,90.858,54.2c2.609,1.6,5.1,3.385,7.719,4.967,3.468,2.1,7.42,3.019,11.181,4.405.518.191,1.053.337,1.566.54a4.626,4.626,0,0,1,3.233,4.461c0,7.94.359,15.89-.145,23.817a30.426,30.426,0,0,1-21.645,26.789,31.22,31.22,0,0,1-8.842,1.273c-5.356-.015-10.713.145-16.066-.115a15.59,15.59,0,0,1-3.8-.6,8.074,8.074,0,0,0-2.463-1.384,32.2,32.2,0,0,1-13.5-13.547,34.492,34.492,0,0,1-3.736-16.385c-.072-8.233-.038-16.466-.049-24.7M77.15,91.149h8.2c3.1,0,6.207.06,9.308-.027a5.023,5.023,0,0,0,4.662-6.616c-.736-2.278-2.658-3.51-5.537-3.512q-16.623-.008-33.247,0a10.961,10.961,0,0,0-1.216.053A4.846,4.846,0,0,0,55.005,84.5a5.029,5.029,0,0,0,4.967,6.639c5.726.037,11.452.01,17.178.01m.024-23.82q-8.423,0-16.845,0a7.3,7.3,0,0,0-1.649.123,5.066,5.066,0,0,0-3.909,5.529,5.118,5.118,0,0,0,5.3,4.5q17.067.02,34.135,0a5.079,5.079,0,0,0,5.357-5.127c-.012-2.917-2.281-5.027-5.43-5.03q-8.478-.008-16.957,0m-.13,37.507q8.478,0,16.956-.006a7.18,7.18,0,0,0,1.647-.136,5.06,5.06,0,0,0,3.891-5.54,5.143,5.143,0,0,0-5.426-4.49q-16.956-.02-33.913-.006a5.9,5.9,0,0,0-2.479.482,5.117,5.117,0,0,0-2.9,5.56,5.054,5.054,0,0,0,4.939,4.126c5.763.026,11.526.008,17.289.01" fill="#e7edfc"/>
        <path id="Trazado_279584" data-name="Trazado 279584" d="M132.231,75.414l-.006,3.691c-1.252.3-1.644,1.107-1.653,2.359-.026,3.539.2,7.081-.183,10.617-.836,7.762-7.2,15.783-14.21,17.852a3.043,3.043,0,0,1,.561-1.3,19.337,19.337,0,0,0,1.871-3.842,19.606,19.606,0,0,0,7.192-9.164A18.844,18.844,0,0,0,127,89.132q.028-19.214,0-38.426a6.383,6.383,0,0,0-12.666-1.388c-.452,1.937-.832,3.891-1.294,5.825a2.877,2.877,0,0,0,.09,1.727c-1.373-.023-2.535-.808-3.845-1.059a60.58,60.58,0,0,1,1.992-8.819,9.939,9.939,0,0,1,19.3,3.193c.056,7.673.017,15.346.022,23.019,0,1.43.306,1.832,1.635,2.21" fill="#41c1f9"/>
        <path id="Trazado_279585" data-name="Trazado 279585" d="M38.132,109.935c-7.2-2.778-11.681-8-13.729-15.369a20.326,20.326,0,0,1-.688-5.474q.007-19.161,0-38.323c0-5.305,3.666-9.682,8.539-10.248a9.952,9.952,0,0,1,11.236,8.05c.549,2.4,1.022,4.826,1.53,7.239-1.278.209-2.36,1.071-3.691,1.1a2.762,2.762,0,0,0,.1-.869c-.583-2.663-1.026-5.372-1.843-7.963A6.234,6.234,0,0,0,32.578,44.1a6.412,6.412,0,0,0-5.263,6.362c-.044,3.655-.011,7.311-.011,10.967,0,8.456.144,16.915-.044,25.366-.166,7.482,2.275,13.566,8.44,17.992a3.374,3.374,0,0,0,.527,1.318c.624,1.281,1.269,2.552,1.9,3.827" fill="#41c1f9"/>
        <path id="Trazado_279586" data-name="Trazado 279586" d="M38.12,79.717l.006-3.287a1.947,1.947,0,0,0,1.607-2.268c-.065-1.548-.016-3.1-.015-4.651,0-3.343,1.31-4.993,4.588-5.793.011,8.233-.023,16.466.049,24.7A34.479,34.479,0,0,0,48.092,104.8a32.183,32.183,0,0,0,13.5,13.547,8.1,8.1,0,0,1,2.463,1.384,28.189,28.189,0,0,1-13.366-6.46A30.192,30.192,0,0,1,39.725,89.807c-.045-2.693-.025-5.387,0-8.081a1.771,1.771,0,0,0-1.606-2.009" fill="#d1d9f8"/>
        <path id="Trazado_279587" data-name="Trazado 279587" d="M38.132,109.935c-.636-1.275-1.281-2.546-1.9-3.827a3.374,3.374,0,0,1-.527-1.318,23.246,23.246,0,0,0,5.13,2.292,1.041,1.041,0,0,1,.583.482q1.347,1.956,2.7,3.9l.023-.013a20.255,20.255,0,0,1-6.006-1.521" fill="#1aa5e2"/>
        <path id="Trazado_279588" data-name="Trazado 279588" d="M118.611,104.789a19.229,19.229,0,0,1-1.871,3.842,3.041,3.041,0,0,0-.56,1.3,20.1,20.1,0,0,1-6.008,1.521l.023.013q1.353-1.952,2.705-3.9a1.048,1.048,0,0,1,.583-.482,23.21,23.21,0,0,0,5.128-2.292" fill="#1aa5e2"/>
        <path id="Trazado_279589" data-name="Trazado 279589" d="M114.2,57.608q-.369,1.873-.739,3.748c-1.455-.513-2.9-1.052-4.368-1.526-.587-.189-.731-.433-.548-1.034.3-.979.5-1.988.738-2.985,1.31.252,2.472,1.036,3.845,1.059l-.038.006c.083.087.166.172.249.258l.861.474" fill="#1ba7e4"/>
        <path id="Trazado_279590" data-name="Trazado 279590" d="M41.333,56.909c1.331-.028,2.414-.89,3.691-1.1.263,1.068.5,2.142.8,3.2.162.586-.192.673-.6.813-1.462.5-2.916,1.017-4.373,1.528q-.363-1.74-.727-3.479a2.1,2.1,0,0,0,1.216-.966" fill="#1ba7e4"/>
        <path id="Trazado_279591" data-name="Trazado 279591" d="M113.344,57.134l-.25-.258.25.258" fill="#41c1f9"/>
        <path id="Trazado_279592" data-name="Trazado 279592" d="M44.115,111.469l.1.129H44.13c0-.047,0-.094.007-.141l-.022.013" fill="#1aa5e2"/>
        <path id="Trazado_279593" data-name="Trazado 279593" d="M110.172,111.455c0,.047.008.094.011.141l-.088,0,.1-.131-.023-.013" fill="#1aa5e2"/>
        <path id="Trazado_279594" data-name="Trazado 279594" d="M77.149,91.149c-5.726,0-11.452.027-17.177-.01A5.03,5.03,0,0,1,55,84.5a4.848,4.848,0,0,1,4.316-3.453,10.742,10.742,0,0,1,1.217-.053q16.623,0,33.247,0c2.879,0,4.8,1.234,5.537,3.512a5.024,5.024,0,0,1-4.662,6.616c-3.1.087-6.206.025-9.309.027h-8.2m-.034-3.336q8.249,0,16.5,0a7.834,7.834,0,0,0,1.106-.033,1.619,1.619,0,0,0,1.5-1.633,1.653,1.653,0,0,0-1.479-1.761,8.323,8.323,0,0,0-1.214-.052q-16.388,0-32.776,0a5.937,5.937,0,0,0-1.322.077,1.712,1.712,0,0,0,.084,3.357,6.435,6.435,0,0,0,1.1.043q8.248,0,16.5,0" fill="#050506"/>
        <path id="Trazado_279595" data-name="Trazado 279595" d="M77.174,67.328q8.479,0,16.957,0c3.149,0,5.418,2.112,5.43,5.03A5.08,5.08,0,0,1,94.2,77.487q-17.069.018-34.135,0a5.117,5.117,0,0,1-5.3-4.5,5.066,5.066,0,0,1,3.909-5.53,7.36,7.36,0,0,1,1.649-.123q8.423-.012,16.845,0m-.027,3.327H73.713q-6.814,0-13.627,0c-1.325,0-2.123.8-2,1.937.117,1.038.873,1.568,2.289,1.568q16.783,0,33.568,0c1.492,0,2.305-.656,2.284-1.805-.021-1.11-.791-1.7-2.244-1.7q-8.419,0-16.84,0" fill="#030404"/>
        <path id="Trazado_279596" data-name="Trazado 279596" d="M77.043,104.835c-5.763,0-11.526.016-17.289-.01a5.052,5.052,0,0,1-4.939-4.125,5.118,5.118,0,0,1,2.9-5.561,5.936,5.936,0,0,1,2.48-.482q16.956,0,33.913.006a5.146,5.146,0,0,1,5.426,4.491,5.061,5.061,0,0,1-3.892,5.54A7.166,7.166,0,0,1,94,104.83q-8.478.013-16.957,0m.034-3.326q8.421,0,16.841,0c1.532,0,2.315-.6,2.312-1.75S95.415,98,93.907,97.984H60.558a3.452,3.452,0,0,0-1.312.142,1.736,1.736,0,0,0,.327,3.355,5.9,5.9,0,0,0,1,.026H77.077" fill="#030303"/>
        <path id="Trazado_279597" data-name="Trazado 279597" d="M77.115,87.813q-8.249,0-16.5,0a6.435,6.435,0,0,1-1.1-.043,1.712,1.712,0,0,1-.084-3.357,5.937,5.937,0,0,1,1.322-.077q16.388-.006,32.776,0a8.323,8.323,0,0,1,1.214.052,1.653,1.653,0,0,1,1.479,1.761,1.619,1.619,0,0,1-1.5,1.633,7.834,7.834,0,0,1-1.106.033q-8.249,0-16.5,0" fill="#b9c4e1"/>
        <path id="Trazado_279598" data-name="Trazado 279598" d="M77.147,70.655q8.419,0,16.84,0c1.453,0,2.223.592,2.244,1.7.021,1.149-.792,1.8-2.284,1.805q-16.783,0-33.568,0c-1.416,0-2.172-.53-2.289-1.568-.127-1.136.671-1.934,2-1.937q6.813-.015,13.627,0h3.434" fill="#b5c0dc"/>
        <path id="Trazado_279599" data-name="Trazado 279599" d="M77.077,101.509H60.569a5.9,5.9,0,0,1-1-.026,1.736,1.736,0,0,1-.327-3.355,3.452,3.452,0,0,1,1.312-.142H93.907c1.508.016,2.319.635,2.323,1.774s-.78,1.749-2.312,1.75q-8.421,0-16.841,0" fill="#b6c1dd"/>
      </g>
    </g>
  </g>
</svg>
