<svg xmlns="http://www.w3.org/2000/svg" width="126" height="126" viewBox="0 0 126 126">
  <g id="Grupo_1071227" data-name="Grupo 1071227" transform="translate(5040 11096)">
    <circle id="Elipse_4310" data-name="Elipse 4310" cx="63" cy="63" r="63" transform="translate(-5040 -11096)" fill="#1b3f5e"/>
    <g id="Grupo_1070897" data-name="Grupo 1070897" transform="translate(-266.447 3.01)">
      <g id="Grupo_254616" data-name="Grupo 254616" transform="translate(-4759.654 -11077.865)">
        <path id="Trazado_272623" data-name="Trazado 272623" d="M1030.767,133.013c-2.218-.016-4.437-.074-6.655-.03a2.841,2.841,0,0,1-2.766-1.346v-7.979a2.7,2.7,0,0,1,2.685-1.311,29.366,29.366,0,0,1,4.514.149c0,1.62.015,3.24-.011,4.86a1.567,1.567,0,0,0,.509,1.2,2.241,2.241,0,0,0,1.785.561q33.876-.007,67.752,0c.011.452.033.9.032,1.357,0,1.8-.7,2.484-2.541,2.5l-6.886.046L1065.731,133q-5.428-.014-10.858-.032c-.3,0-.584,0-.756.3-.223-.323-.565-.268-.884-.268q-11.233,0-22.467.013" transform="translate(-1021.346 -68.195)" fill="#63a6fc"/>
        <path id="Trazado_272624" data-name="Trazado 272624" d="M1161.716,73.93a12.023,12.023,0,0,1-.965,2.53,4.287,4.287,0,0,1-.343-.457,27.531,27.531,0,0,0-7.655-8.791,26.243,26.243,0,0,0-14.133-5.341c-.717-.046-.853-.358-.849-.977.018-3.016.037-6.033-.01-9.048-.015-.882.357-.935,1.061-.842a27.112,27.112,0,0,1,8.167,2.322,1.11,1.11,0,0,0,1.192-.09c.482-.337.941-.7.882-1.4a1.639,1.639,0,0,0-1.04-1.4,27.343,27.343,0,0,0-9.3-2.517c-.847-.088-.966-.406-.96-1.142.025-3.177-.007-6.356-.018-9.533,1.491.243,3,.337,4.488.647a27.364,27.364,0,0,1,20.643,20.873,29.832,29.832,0,0,1,.565,7.051c-.012.312.085.659-.208.911-.567-.235-.544-.826-.736-1.271a29.814,29.814,0,0,0-8.754-11.462,1.373,1.373,0,0,0-1.511-.342,1.469,1.469,0,0,0-1.026,1.177,2.031,2.031,0,0,0,1.007,1.87,25.824,25.824,0,0,1,8.952,14.615,11.471,11.471,0,0,0,.551,2.619" transform="translate(-1063.819 -37.147)" fill="#f98f83"/>
        <path id="Trazado_272625" data-name="Trazado 272625" d="M1102.711,129.151q-33.876,0-67.752,0a2.239,2.239,0,0,1-1.785-.561,1.566,1.566,0,0,1-.509-1.2c.025-1.62.01-3.24.011-4.86l1.372-.089c2.394.077,4.789.1,7.184-.011,1.839.022,3.679.065,5.518.062,4.134,0,8.268-.031,12.4-.048q4.955.142,9.91,0c2.337.07,4.674.09,7.01-.011,2.323.02,4.645.059,6.968.057,3.711,0,7.422-.032,11.133-.051q3.146.03,6.291.058c1.645.014,2.277.642,2.276,2.291,0,1.453-.017,2.906-.027,4.358" transform="translate(-1025.476 -68.232)" fill="#80b7fc"/>
        <path id="Trazado_272626" data-name="Trazado 272626" d="M1121.319,37.187c.011,3.177.044,6.355.019,9.533-.006.736.113,1.055.959,1.142a27.341,27.341,0,0,1,9.3,2.517,1.64,1.64,0,0,1,1.04,1.4c.059.7-.4,1.064-.882,1.4a1.107,1.107,0,0,1-1.191.09,27.133,27.133,0,0,0-8.167-2.322c-.7-.093-1.075-.039-1.061.842.048,3.015.028,6.032.01,9.048,0,.619.132.931.849.977a26.236,26.236,0,0,1,14.132,5.34,27.53,27.53,0,0,1,7.655,8.791,4.271,4.271,0,0,0,.343.457q-.677,2.147-1.355,4.3c-.314-.125-.35-.429-.469-.693a25.584,25.584,0,0,0-4.073-6.659,24.4,24.4,0,0,0-16.04-8.442c-.776-.072-1.075.163-1.054,1.005.057,2.329.018,4.661.018,6.991l-2.93.008c-.058-2.324-.166-4.649-.149-6.973.007-.908-.309-1.113-1.124-1.03a24.87,24.87,0,0,0-6.987,1.773,21.7,21.7,0,0,0-7.707,5.219,10.6,10.6,0,0,0-4.659,2.375c-.888.76-1.513,1.735-2.343,2.532a39.939,39.939,0,0,1-2.713-9.209c-.07-.529.337-.981.185-1.508.879-.122.769-.962,1.028-1.494a31.64,31.64,0,0,1,7.741-10.19l.2-.192-.005.008a27.435,27.435,0,0,1,15.335-6.242,1.135,1.135,0,0,0,1.208-1.287c.069-2.689-.224-5.367-.193-8.052l-.006-1.365a8.635,8.635,0,0,1,3.087-.09m-2.907,19.1c0-1.771-.02-3.231.01-4.69.012-.589-.267-.795-.765-.662-.637.169-1.291.091-1.921.206a25.56,25.56,0,0,0-14.708,8.15,3.466,3.466,0,0,0-1.106,1.783,27.559,27.559,0,0,0,.031,7.053c.045.4.129,1.063.338,1.125.405.121.777-.326,1.1-.626a25.023,25.023,0,0,1,5.4-3.725,27.272,27.272,0,0,1,10.8-3.087c.426-.032.6-.146.68-.6a42.292,42.292,0,0,0,.143-4.925" transform="translate(-1047.394 -37.092)" fill="#e75a51"/>
        <path id="Trazado_272627" data-name="Trazado 272627" d="M1091.234,139.125l23.454.017q-1.611,5.948-3.219,11.9a1.757,1.757,0,0,1-1.82,1.445q-6.66.027-13.321,0a1.859,1.859,0,0,1-1.95-1.55c-1.038-3.94-2.1-7.876-3.145-11.814" transform="translate(-1046.848 -74.323)" fill="#4494fa"/>
        <path id="Trazado_272628" data-name="Trazado 272628" d="M1036.18,139.141q11.234-.008,22.467-.013c.319,0,.661-.055.884.268q-1.594,5.9-3.192,11.8a1.67,1.67,0,0,1-1.742,1.283q-6.709.03-13.417,0a1.751,1.751,0,0,1-1.827-1.434q-1.574-5.957-3.172-11.908" transform="translate(-1026.759 -74.323)" fill="#4494fa"/>
        <path id="Trazado_272629" data-name="Trazado 272629" d="M1119.109,111.871c-3.711.018-7.422.048-11.133.051-2.323,0-4.645-.037-6.968-.057.129-1.084.246-2.17.391-3.252a24.758,24.758,0,0,1,4.259-11.19,10.138,10.138,0,0,1,4.5-3.964,7.4,7.4,0,0,1,2.14,1.448,22.1,22.1,0,0,0,2.122,2.071,13.448,13.448,0,0,0,1.458,2.6,27.591,27.591,0,0,1,3.045,9.991,12.566,12.566,0,0,1,.181,2.3" transform="translate(-1050.415 -57.66)" fill="#fde4a0"/>
        <path id="Trazado_272630" data-name="Trazado 272630" d="M1064.073,111.866c-4.134.018-8.268.044-12.4.049-1.84,0-3.679-.041-5.518-.062a28.355,28.355,0,0,1,.178-3.08,25.619,25.619,0,0,1,4.526-11.66A11.57,11.57,0,0,1,1055,93.438a9.221,9.221,0,0,1,4.1,3.43,24.8,24.8,0,0,1,4.792,12.4,21.956,21.956,0,0,1,.177,2.6" transform="translate(-1030.398 -57.652)" fill="#fde4a0"/>
        <path id="Trazado_272631" data-name="Trazado 272631" d="M1137.784,88.878c0-2.331.04-4.662-.017-6.991-.021-.843.278-1.077,1.054-1.005a24.4,24.4,0,0,1,16.041,8.442,25.575,25.575,0,0,1,4.072,6.659c.12.264.155.568.469.693-.428,1.69-.816,3.391-1.387,5.042-1.189-.942-2.117-2.163-3.348-3.068a21.624,21.624,0,0,0-8.115-3.94,12.245,12.245,0,0,0-8.77-5.832" transform="translate(-1063.827 -53.066)" fill="#f98f84"/>
        <path id="Trazado_272632" data-name="Trazado 272632" d="M1101.616,54.509a31.642,31.642,0,0,0-7.741,10.19c-.258.532-.149,1.372-1.028,1.494a3.312,3.312,0,0,1-.3-2.039,26.979,26.979,0,0,1,7.4-18.253,26.621,26.621,0,0,1,15.808-8.333,12.52,12.52,0,0,1,2.409-.189q0,.683.006,1.365c-.9.354-1.824.66-2.7,1.07a27.121,27.121,0,0,0-12.015,10.911,11.089,11.089,0,0,0-1.635,3.6l.005-.008-.2.192" transform="translate(-1047.318 -37.194)" fill="#f77b68"/>
        <path id="Trazado_272633" data-name="Trazado 272633" d="M1050.876,92.865a11.567,11.567,0,0,0-4.147,3.675,25.611,25.611,0,0,0-4.526,11.66,28.324,28.324,0,0,0-.178,3.08c-2.394.111-4.789.088-7.184.011.321-6.484,2.028-12.426,6.907-17.039a7.739,7.739,0,0,1,8.135-1.956,1.912,1.912,0,0,1,.992.57" transform="translate(-1026.271 -57.078)" fill="#fedc81"/>
        <path id="Trazado_272634" data-name="Trazado 272634" d="M1106.135,92.89a10.136,10.136,0,0,0-4.5,3.964,24.749,24.749,0,0,0-4.258,11.189c-.145,1.083-.262,2.169-.391,3.253-2.337.1-4.673.081-7.01.01a26.224,26.224,0,0,1,4.2-13.988c.1-.161.18-.341.27-.512.83-.8,1.455-1.771,2.343-2.532a10.6,10.6,0,0,1,4.66-2.374c1.627.025,3.28-.074,4.687.99" transform="translate(-1046.387 -57.091)" fill="#fedc81"/>
        <path id="Trazado_272635" data-name="Trazado 272635" d="M1112.729,88.863c-1.407-1.064-3.06-.965-4.687-.99a21.673,21.673,0,0,1,7.707-5.219,24.847,24.847,0,0,1,6.986-1.773c.815-.083,1.131.121,1.124,1.03-.017,2.324.091,4.648.149,6.973a12.055,12.055,0,0,0-7.017,3.5,21.924,21.924,0,0,1-2.123-2.071,7.392,7.392,0,0,0-2.14-1.448" transform="translate(-1052.981 -53.064)" fill="#f99084"/>
        <path id="Trazado_272636" data-name="Trazado 272636" d="M1152.473,117.8c.236-1.425.433-2.857.716-4.272a14.807,14.807,0,0,0,.126-5.078,17.974,17.974,0,0,1,7.763,5.5c.449.531.813,1.173,1.565,1.361q-.639,4.08-1.279,8.159a3.414,3.414,0,0,1-.554-.366,24.162,24.162,0,0,0-4.287-3.3,13.953,13.953,0,0,0-4.05-2.005" transform="translate(-1069.193 -63.132)" fill="#f99084"/>
        <path id="Trazado_272637" data-name="Trazado 272637" d="M1159.991,135.052c-.143,2.541.007,5.094-.317,7.628-.131-.091-.271-.173-.393-.276a23.749,23.749,0,0,0-9.594-5.4c.333-3,.815-5.983,1.313-8.961a22.065,22.065,0,0,1,8.99,7.01" transform="translate(-1068.177 -70.279)" fill="#f99084"/>
        <path id="Trazado_272638" data-name="Trazado 272638" d="M1169.441,83.294a11.485,11.485,0,0,1-.551-2.619,25.824,25.824,0,0,0-8.952-14.615,2.031,2.031,0,0,1-1.007-1.87,1.47,1.47,0,0,1,1.026-1.177,1.372,1.372,0,0,1,1.511.342,29.815,29.815,0,0,1,8.754,11.462c.192.445.169,1.036.736,1.271a18.27,18.27,0,0,1-1.518,7.206" transform="translate(-1071.544 -46.51)" fill="#e4554e"/>
        <path id="Trazado_272639" data-name="Trazado 272639" d="M1157.7,152.6a6.459,6.459,0,0,1-6.37,2.642,4.169,4.169,0,0,1-3.351-4.643c.183-1.181.386-2.359.58-3.538a6.554,6.554,0,0,1,2.292.717,26.169,26.169,0,0,1,6.848,4.822" transform="translate(-1067.537 -77.218)" fill="#f99084"/>
        <path id="Trazado_272640" data-name="Trazado 272640" d="M1162.325,113.2c-.752-.188-1.117-.83-1.566-1.361a17.972,17.972,0,0,0-7.762-5.5,24.217,24.217,0,0,0-1.394-3.679,21.619,21.619,0,0,1,8.115,3.939c1.232.905,2.159,2.126,3.348,3.068a17.519,17.519,0,0,1-.741,3.53" transform="translate(-1068.876 -61.018)" fill="#e5564f"/>
        <path id="Trazado_272641" data-name="Trazado 272641" d="M1158.054,150.807a26.165,26.165,0,0,0-6.848-4.822,6.553,6.553,0,0,0-2.292-.717,13.917,13.917,0,0,1,.491-3.116,23.752,23.752,0,0,1,9.594,5.4c.121.1.261.184.393.276a4.834,4.834,0,0,1-1.338,2.979" transform="translate(-1067.895 -75.427)" fill="#e5564f"/>
        <path id="Trazado_272642" data-name="Trazado 272642" d="M1160.745,133.277a22.065,22.065,0,0,0-8.99-7.01,16.916,16.916,0,0,1,.456-3.09,13.953,13.953,0,0,1,4.05,2.005,24.176,24.176,0,0,1,4.287,3.3,3.405,3.405,0,0,0,.554.366c-.2,1.472-.027,2.973-.356,4.434" transform="translate(-1068.932 -68.504)" fill="#e5564f"/>
        <path id="Trazado_272643" data-name="Trazado 272643" d="M1122.422,64.211a42.294,42.294,0,0,1-.143,4.925c-.081.457-.254.571-.679.6a27.271,27.271,0,0,0-10.8,3.087,25.025,25.025,0,0,0-5.4,3.725c-.325.3-.7.748-1.1.626-.209-.062-.293-.723-.338-1.125a27.564,27.564,0,0,1-.031-7.053,3.465,3.465,0,0,1,1.106-1.783,25.561,25.561,0,0,1,14.708-8.15c.629-.116,1.284-.037,1.921-.206.5-.132.777.074.765.662-.029,1.459-.01,2.918-.01,4.69" transform="translate(-1051.403 -45.021)" fill="#f98f83"/>
        <path id="Trazado_272644" data-name="Trazado 272644" d="M1107.151,55.113a11.093,11.093,0,0,1,1.634-3.6A27.13,27.13,0,0,1,1120.8,40.6c.875-.409,1.8-.716,2.7-1.07-.031,2.686.261,5.363.192,8.052a1.134,1.134,0,0,1-1.208,1.287,27.434,27.434,0,0,0-15.334,6.242" transform="translate(-1052.656 -37.982)" fill="#f98f83"/>
        <path id="Trazado_272645" data-name="Trazado 272645" d="M1106.842,64.244l.2-.192-.2.192" transform="translate(-1052.543 -46.93)" fill="#f98f83"/>
      </g>
    </g>
  </g>
</svg>
