<svg xmlns="http://www.w3.org/2000/svg" xmlns:xlink="http://www.w3.org/1999/xlink" width="148.29" height="148.29" viewBox="0 0 148.29 148.29">
  <defs>
    <clipPath id="clip-path">
      <rect id="Rectángulo_325508" data-name="Rectángulo 325508" width="148.29" height="148.29" fill="none"/>
    </clipPath>
  </defs>
  <g id="Grupo_261794" data-name="Grupo 261794" transform="translate(-965 -3173)">
    <g id="Grupo_261730" data-name="Grupo 261730" transform="translate(965 3173)">
      <g id="Grupo_261729" data-name="Grupo 261729" clip-path="url(#clip-path)">
        <path id="Trazado_279600" data-name="Trazado 279600" d="M148.29,74.145A74.145,74.145,0,1,1,74.145,0,74.145,74.145,0,0,1,148.29,74.145" fill="#e2e8ec"/>
        <path id="Trazado_279601" data-name="Trazado 279601" d="M46.066,19.614h8.042c.464.316.955.6,1.385.955.634.528.579,1.589,1.088,2,.571.455,1.531.462,2.177,1.018A4.574,4.574,0,0,0,60.184,24.7a42.434,42.434,0,0,0,29.963-.046,1.864,1.864,0,0,0,.926-.594,3.587,3.587,0,0,1,2.248-1.329c.278-.054.515-.051.574-.432a3.446,3.446,0,0,1,2.485-2.685h7.629c.8.426,1.8.78,2.017,1.712.319,1.394,1.174,1.49,2.3,1.365a14.843,14.843,0,0,1,1.648-.01c3.079,0,4.468,1.384,4.469,4.45,0,5.5.1,11-.025,16.489a33.574,33.574,0,0,0,4.68,17.959c3.77,6.527,2.97,4.061,3.05,11.4a1.991,1.991,0,0,1,0,.309.832.832,0,0,0,.428.847,3.6,3.6,0,0,1,1.471,3.123c-.025,1.992-.02,3.985,0,5.978a3.5,3.5,0,0,1-1.425,3.038,1.108,1.108,0,0,0-.479,1.036q.033,2.783,0,5.565a1.086,1.086,0,0,0,.49,1.019,3.364,3.364,0,0,1,1.406,2.838q0,3.246,0,6.493a2.584,2.584,0,0,1-.88,2.223c-1.1.732-1.038,1.712-1.008,2.768.018.652.008,1.305,0,1.958a15.114,15.114,0,0,1-15.035,15.012c-6.562.035-13.124.02-19.686,0a9.038,9.038,0,0,1-8.978-6.916c-.148-.549-.365-.7-.9-.694-1.614.031-3.229.036-4.843,0-.568-.013-.735.206-.875.725a9.052,9.052,0,0,1-8.9,6.886c-6.631.022-13.264.116-19.891-.028-6.17-.135-10.653-3.16-13.455-8.647-1.491-2.919-1.542-6.08-1.44-9.253a1.436,1.436,0,0,0-.607-1.379,3.21,3.21,0,0,1-1.287-2.685q0-3.246,0-6.493A3.254,3.254,0,0,1,27.6,93.944a1.255,1.255,0,0,0,.542-1.2c-.018-1.752-.021-3.5,0-5.257a1.371,1.371,0,0,0-.579-1.3,3.192,3.192,0,0,1-1.313-2.671q-.009-3.3,0-6.6a3.038,3.038,0,0,1,1.173-2.525,1.776,1.776,0,0,0,.723-1.647c.048-7.045-.588-4.665,2.867-10.938q.271-.495.558-.984a30.209,30.209,0,0,0,3.714-9.745,1.8,1.8,0,0,1,1.837-1.7c1.245.584,1.451,1.014,1.192,2.342a35.235,35.235,0,0,1-1.3,4.753c-1.261,3.658-3.386,6.876-5.209,10.247a3.353,3.353,0,0,0-.579,1.623c.009,1.476.018,2.953-.007,4.428-.008.484.136.656.638.652,3.363-.031,6.726-.036,10.089-.049l1.66,0q.2.062.156-.141l.006-9.072c.013-.136.037-.272.037-.409q0-18.586.019-37.173c0-.721-.253-.855-.883-.821-.856.046-1.716.01-2.574.012-1.38,0-1.435.055-1.436,1.457q0,8.084,0,16.166c0,1.368-.271,1.7-1.538,2.029A1.675,1.675,0,0,1,35.833,43.5c.009-2.851,0-5.7,0-8.553,0-2.782-.027-5.565.01-8.347A3.7,3.7,0,0,1,39.8,22.683c1.133-.013,2.267,0,3.4-.007.249,0,.57.117.635-.309a4.1,4.1,0,0,1,2.228-2.753M41.945,87.079c-3.356-.012-6.712-.016-10.067-.042-.463,0-.672.092-.662.615.031,1.609.02,3.219.006,4.829,0,.406.071.634.553.63,3.389-.033,6.777-.045,10.166-.064q13.231.03,26.465.067c.519,0,.629-.216.623-.676-.018-1.545-.043-3.091.011-4.634.024-.683-.242-.778-.832-.771-2.609.028-5.219.009-7.828.013q-9.218.014-18.435.033m-1.032-3.164q13.745.017,27.491.05c.643,0,.628-.3.625-.747-.01-1.922-.044-3.845.016-5.766.023-.766-.172-.966-.952-.96-5.114.039-10.228.016-15.342.022-3.947,0-7.893.024-11.839.037-3.573-.012-7.146-.017-10.719-.046-.61,0-.87.205-.863.836q.033,2.886,0,5.774c-.007.624.248.846.862.841,3.573-.027,7.146-.03,10.72-.041m.014,19.7a.848.848,0,0,0,.2.048q13.6.006,27.2.021c.649,0,.714-.287.708-.81-.021-1.923-.041-3.847.009-5.769.019-.731-.211-.915-.923-.914q-13.292.035-26.581.018c-.2,0-.407.038-.611.058l-10.8-.073c-.546,0-.806.229-.8.807q.026,2.934,0,5.87c0,.573.25.815.8.811l10.8-.067m68.992-8.948c.294-1.212.677-1.547,1.915-1.558,2.13-.018,4.261-.034,6.39.012.7.015.865-.22.844-.875-.045-1.407-.069-2.819.007-4.223.045-.835-.235-1-1.021-1q-15.665.041-31.329.018c-1.58,0-3.161.026-4.74-.013-.6-.016-.755.184-.739.758.038,1.408.078,2.821-.011,4.224-.06.943.266,1.118,1.146,1.113,7.316-.035,14.633-.022,21.951-.018,1.407,0,1.734.248,2.158,1.558-.449,1.343-.7,1.535-2.17,1.536-7.353,0-14.705.015-22.058-.016-.8,0-1.058.2-1.029,1.021.064,1.818.061,3.642,0,5.461-.027.812.205,1.035,1.023,1.029,4.706-.04,9.414-.02,14.121-.02,7.8,0,15.6-.011,23.4.015.886,0,1.223-.249,1.189-1.171-.063-1.715-.063-3.436,0-5.152.034-.913-.281-1.2-1.177-1.181-2.644.045-5.29.026-7.936.011-1.273-.007-1.62-.3-1.933-1.53m-5.06-57.855c1.3.312,1.615.71,1.615,2.081q0,16.287,0,32.575c0,.447.018.894,0,1.34-.021.416.084.616.562.614q5.721-.024,11.443,0c.568,0,.589-.279.584-.7-.015-1.2-.047-2.408.008-3.608a4.614,4.614,0,0,0-.7-2.63q-1.56-2.663-3.024-5.382a30.941,30.941,0,0,1-3.925-14.251c-.107-5.7-.05-11.407-.064-17.111,0-1-.008-1.993,0-2.99.006-.676-.271-1.009-.989-.987-1.03.032-2.063.044-3.092-.006-.622-.03-.832.135-.811.791.051,1.544.019,3.092.016,4.638,0,1.47-.245,1.8-1.609,2.216a1.7,1.7,0,0,1-1.49-1.859c.011-2.678-.014-5.357.017-8.036.007-.611-.122-.842-.786-.82-1.544.052-3.094.074-4.635-.006-.878-.045-1.061.228-1.059,1.074.032,10.2.021,20.4.021,30.6,0,6.01.02,12.02-.023,18.03-.006.885.249,1.09,1.086,1.047a39.907,39.907,0,0,1,4.222,0c.91.049,1.189-.179,1.186-1.15-.039-11.127-.026-22.254-.024-33.381,0-1.375.235-1.7,1.478-2.091m-55.9,85.246c4.532.012,9.064.031,13.6.033,3.934,0,6.442-2.483,6.468-6.408.018-2.644-.033-5.289.026-7.931.019-.85-.273-1-1.045-1-8.413.026-16.827.016-25.24.019-.273,0-.545.034-.818.052-3.36-.017-6.719-.028-10.079-.061-.49,0-.662.149-.645.645.033.959,0,1.92.014,2.88a12.022,12.022,0,0,0,9.02,11.4c2.873.72,5.8.323,8.7.367m51.275-15.286q-9.018,0-18.036,0c-.542,0-.971-.059-.956.763.055,2.885-.026,5.772.043,8.657a5.93,5.93,0,0,0,6.03,5.9c6.631.027,13.262.074,19.892-.017a11.636,11.636,0,0,0,10.035-5.683c1.713-2.639,1.9-5.59,1.84-8.614-.016-.8-.205-1.023-1.017-1.019-5.943.036-11.887.02-17.831.02M56.474,25.83c-.014.236-.028.362-.028.488q0,23.145-.018,46.29c0,.736.291.824.908.82,3.608-.022,7.217-.034,10.825.008.776.009.881-.284.877-.953-.026-4.261-.017-8.522-.009-12.783a5.091,5.091,0,0,0-.314-1.812Q62.94,42.372,57.171,26.856c-.126-.339-.154-.756-.7-1.026m37.364-.039a1.53,1.53,0,0,0-.728,1.063Q87.35,42.321,81.6,57.791a4.822,4.822,0,0,0-.351,1.7c.007,4.365.019,8.729-.013,13.094,0,.7.228.85.879.845,3.54-.028,7.08-.051,10.619.012.937.016,1.122-.256,1.12-1.144q-.042-22.733-.02-45.466V25.791M61.117,28.283a2.14,2.14,0,0,0,.041.418q5.255,14.16,10.508,28.321a.8.8,0,0,0,.9.613c1.614-.033,3.231-.051,4.843.005a1.135,1.135,0,0,0,1.31-.908c3.375-9.159,6.793-18.3,10.184-27.456.1-.284.417-.579.173-.926-1.012.27-2,.554-3,.794-1.032.248-2.067.506-3.116.66-.688.1-.875.371-.84,1.051.064,1.268.036,2.542.014,3.812a3.791,3.791,0,0,1-3.914,3.9c-2.027.021-4.054.017-6.08,0a3.8,3.8,0,0,1-3.991-4.029c-.012-1.271-.041-2.544.014-3.812.026-.612-.171-.826-.76-.914a42.048,42.048,0,0,1-6.284-1.529M78.166,87.559c0-8.591-.012-17.183.019-25.774,0-.855-.224-1.141-1.089-1.092a31.1,31.1,0,0,1-3.813,0c-.968-.066-1.19.269-1.188,1.2q.043,22.424.02,44.848c0,2.3.024,4.606-.014,6.908-.012.686.205.884.878.86,1.373-.049,2.751-.066,4.122,0,.852.043,1.089-.211,1.085-1.076-.033-8.626-.02-17.252-.02-25.878M53.348,48.028c0-8.108-.012-16.216.018-24.324,0-.8-.191-1.055-1.01-1.015a42.784,42.784,0,0,1-4.43,0c-.9-.05-1.046.267-1.044,1.091q.042,17.676.019,35.353c0,4.466.017,8.932-.017,13.4-.006.722.174.935.9.907,1.509-.06,3.026-.079,4.533,0,.9.05,1.049-.26,1.046-1.087-.032-8.108-.019-16.216-.019-24.324m47.6,35.921c6.283,0,12.566-.018,18.849.019.92,0,1.191-.29,1.162-1.182-.059-1.749-.043-3.5,0-5.252.015-.734-.19-1.036-.984-1.035q-19,.028-38.006,0c-.614,0-.731.2-.722.763.032,1.922.059,3.847-.01,5.767-.029.806.231.94.971.937,6.248-.03,12.5-.017,18.745-.017m-25.9-48.473c1,0,1.993-.011,2.99,0,.689.01,1.012-.3,1-.991-.012-1.169-.035-2.339.01-3.5.024-.6-.242-.674-.735-.623a31.2,31.2,0,0,1-6.38,0c-.527-.054-.732.081-.711.65.041,1.132.033,2.268.005,3.4-.02.815.365,1.1,1.136,1.074.892-.03,1.786-.007,2.68-.007" fill="#040303"/>
        <path id="Trazado_279602" data-name="Trazado 279602" d="M100.23,106.774c5.944,0,11.887.016,17.83-.019.813,0,1,.218,1.017,1.018.057,3.025-.126,5.975-1.84,8.614A11.631,11.631,0,0,1,107.2,122.07c-6.629.091-13.261.044-19.891.017a5.929,5.929,0,0,1-6.03-5.9c-.07-2.884.012-5.772-.043-8.657-.016-.822.414-.764.955-.763q9.02.009,18.037,0" fill="#fdc065"/>
        <path id="Trazado_279603" data-name="Trazado 279603" d="M56.474,25.829c.543.27.571.688.7,1.026Q62.95,42.37,68.715,57.887a5.091,5.091,0,0,1,.314,1.812c-.008,4.261-.017,8.523.009,12.784,0,.669-.1.962-.877.953-3.608-.043-7.217-.031-10.825-.008-.617,0-.909-.085-.908-.821q.031-23.145.017-46.29c0-.125.015-.251.029-.488" fill="#fabe63"/>
        <path id="Trazado_279604" data-name="Trazado 279604" d="M93.837,25.791v1.042q0,22.732.02,45.466c0,.888-.183,1.16-1.12,1.144-3.538-.064-7.079-.041-10.618-.012-.652,0-.885-.143-.88-.846.033-4.364.021-8.728.013-13.093a4.8,4.8,0,0,1,.352-1.7q5.751-15.469,11.505-30.937a1.528,1.528,0,0,1,.728-1.063" fill="#fabe63"/>
        <path id="Trazado_279605" data-name="Trazado 279605" d="M41.942,106.829c.273-.018.546-.052.819-.052,8.413,0,16.826.007,25.239-.019.772,0,1.064.147,1.045,1-.059,2.643-.008,5.288-.025,7.932-.026,3.925-2.535,6.409-6.469,6.408-4.532,0-9.064-.021-13.6-.033a4.277,4.277,0,0,0-.462-.392,13.6,13.6,0,0,1-6.009-7.9,25.587,25.587,0,0,1-.542-6.936" fill="#fdc065"/>
        <path id="Trazado_279606" data-name="Trazado 279606" d="M61.117,28.282a42.194,42.194,0,0,0,6.283,1.53c.589.088.787.3.76.913-.055,1.269-.026,2.541-.014,3.812a3.8,3.8,0,0,0,3.991,4.03c2.027.015,4.054.02,6.08,0a3.792,3.792,0,0,0,3.915-3.9c.022-1.271.05-2.545-.014-3.812-.036-.681.153-.951.84-1.052,1.049-.153,2.083-.411,3.117-.658,1-.242,1.987-.526,3-.8.242.347-.069.643-.175.927-3.39,9.153-6.809,18.3-10.183,27.455a1.137,1.137,0,0,1-1.309.909c-1.614-.057-3.23-.039-4.844-.006a.8.8,0,0,1-.9-.612Q66.421,42.857,61.157,28.7a2.168,2.168,0,0,1-.04-.419" fill="#fbd9a4"/>
        <path id="Trazado_279607" data-name="Trazado 279607" d="M104.866,33.407c1.363-.415,1.606-.746,1.609-2.217,0-1.546.035-3.093-.016-4.638-.022-.655.189-.82.811-.79,1.028.05,2.062.038,3.092.006.718-.023,1,.31.989.987-.009,1,0,1.993,0,2.989.013,5.7-.044,11.409.064,17.112a30.921,30.921,0,0,0,3.924,14.25q1.469,2.717,3.025,5.382a4.61,4.61,0,0,1,.7,2.631c-.055,1.2-.022,2.4-.008,3.607.005.423-.015.705-.584.7q-5.721-.032-11.442,0c-.478,0-.584-.2-.563-.614.023-.446,0-.894,0-1.34q0-16.289,0-32.576c0-1.37-.318-1.768-1.616-2.08q0-1.7.008-3.408" fill="#fbbf64"/>
        <path id="Trazado_279608" data-name="Trazado 279608" d="M78.166,87.559c0,8.626-.013,17.252.02,25.878,0,.865-.233,1.118-1.085,1.075-1.371-.069-2.749-.053-4.122,0-.673.024-.89-.174-.878-.86.038-2.3.014-4.6.014-6.907q0-22.423-.02-44.848c0-.935.22-1.269,1.189-1.2a30.881,30.881,0,0,0,3.812,0c.865-.048,1.092.237,1.089,1.092-.031,8.592-.019,17.183-.019,25.775" fill="#a196a1"/>
        <path id="Trazado_279609" data-name="Trazado 279609" d="M104.866,33.407q0,1.7-.008,3.408c-1.242.391-1.477.716-1.477,2.09,0,11.128-.016,22.255.024,33.382,0,.971-.276,1.2-1.186,1.149a39.907,39.907,0,0,0-4.222,0c-.837.043-1.093-.162-1.086-1.047.043-6.009.022-12.02.022-18.03,0-10.2.011-20.4-.02-30.6,0-.845.181-1.119,1.058-1.073,1.542.08,3.091.057,4.635.006.665-.023.794.208.787.82-.032,2.678-.007,5.357-.017,8.036a1.7,1.7,0,0,0,1.49,1.859" fill="#f7f5f6"/>
        <path id="Trazado_279610" data-name="Trazado 279610" d="M37.12,49.381l.267-3.952c1.268-.328,1.537-.661,1.538-2.029q.01-8.082.005-16.166c0-1.4.056-1.455,1.436-1.458.858,0,1.718.035,2.573-.011.631-.034.885.1.883.821q-.036,18.587-.019,37.173c0,.137-.024.273-.036.409-1,1.67-2.109,3.268-1.853,5.4a32.373,32.373,0,0,1,.031,3.8c-3.363.013-6.727.018-10.09.049-.5,0-.645-.168-.637-.652.025-1.475.016-2.952.007-4.428a3.362,3.362,0,0,1,.578-1.623c1.824-3.371,3.948-6.589,5.21-10.247a35.383,35.383,0,0,0,1.3-4.753c.259-1.328.053-1.758-1.192-2.342" fill="#fab240"/>
        <path id="Trazado_279611" data-name="Trazado 279611" d="M53.347,48.028c0,8.108-.013,16.216.019,24.324,0,.827-.148,1.137-1.046,1.088-1.507-.084-3.024-.065-4.533-.005-.729.029-.91-.185-.9-.906.035-4.466.018-8.933.018-13.4q0-17.676-.019-35.353c0-.824.144-1.141,1.043-1.091a42.784,42.784,0,0,0,4.43,0c.819-.039,1.014.213,1.011,1.015-.031,8.108-.019,16.216-.019,24.324" fill="#f7f5f6"/>
        <path id="Trazado_279612" data-name="Trazado 279612" d="M109.919,94.67c.313,1.226.66,1.523,1.933,1.53,2.645.015,5.292.034,7.936-.011.9-.016,1.21.267,1.177,1.181-.065,1.715-.064,3.436,0,5.152.033.922-.3,1.174-1.19,1.171-7.8-.026-15.6-.015-23.4-.015-4.707,0-9.414-.021-14.121.019-.819.007-1.051-.217-1.024-1.028.061-1.819.064-3.643,0-5.462-.029-.824.227-1.024,1.029-1.02,7.354.03,14.706.02,22.058.016,1.466,0,1.721-.193,2.171-1.536l3.429,0" fill="#e9e7e9"/>
        <path id="Trazado_279613" data-name="Trazado 279613" d="M100.95,83.949c-6.249,0-12.5-.013-18.746.017-.739,0-1-.131-.97-.937.069-1.92.042-3.844.01-5.767-.01-.559.108-.764.721-.763q19,.027,38.007,0c.794,0,1,.3.983,1.035-.037,1.751-.053,3.5,0,5.253.03.891-.241,1.186-1.161,1.181-6.283-.036-12.566-.019-18.849-.019" fill="#eeecee"/>
        <path id="Trazado_279614" data-name="Trazado 279614" d="M109.919,94.67l-3.429,0c-.425-1.31-.75-1.557-2.159-1.558-7.317,0-14.633-.018-21.95.018-.879,0-1.207-.171-1.147-1.114.091-1.4.05-2.816.011-4.223-.015-.575.139-.774.739-.759,1.579.04,3.161.013,4.741.013q15.663,0,31.328-.017c.787,0,1.066.164,1.022,1-.077,1.4-.053,2.817-.008,4.224.022.655-.144.889-.843.874-2.13-.046-4.26-.029-6.39-.011-1.239.01-1.621.345-1.915,1.558" fill="#fdc065"/>
        <path id="Trazado_279615" data-name="Trazado 279615" d="M40.927,96.27c.2-.02.407-.058.611-.058q13.29,0,26.58-.017c.713,0,.943.183.924.913-.05,1.922-.03,3.846-.009,5.769.005.524-.06.812-.708.81q-13.6-.031-27.2-.021a.856.856,0,0,1-.2-.048q0-3.673,0-7.348" fill="#eeecee"/>
        <path id="Trazado_279616" data-name="Trazado 279616" d="M40.912,76.551c3.946-.013,7.892-.032,11.839-.037,5.114-.007,10.228.017,15.343-.022.779-.006.974.193.951.96-.06,1.92-.026,3.844-.016,5.766,0,.446.018.749-.625.747q-13.746-.054-27.491-.05,0-3.683,0-7.364" fill="#eeecee"/>
        <path id="Trazado_279617" data-name="Trazado 279617" d="M41.944,87.078q9.218-.017,18.435-.033c2.61,0,5.219.015,7.828-.013.591-.006.857.088.832.771-.054,1.543-.028,3.09-.01,4.635,0,.46-.1.678-.624.676q-13.233-.048-26.465-.068,0-2.983,0-5.968" fill="#fdc065"/>
        <path id="Trazado_279618" data-name="Trazado 279618" d="M41.942,106.829a25.587,25.587,0,0,0,.542,6.936,13.6,13.6,0,0,0,6.009,7.9,4.277,4.277,0,0,1,.462.392c-2.9-.044-5.83.353-8.7-.367a12.023,12.023,0,0,1-9.021-11.4c-.015-.96.019-1.921-.014-2.88-.017-.5.156-.65.646-.645,3.359.033,6.719.043,10.078.061" fill="#fbb341"/>
        <path id="Trazado_279619" data-name="Trazado 279619" d="M40.927,96.27q0,3.674,0,7.348l-10.8.067c-.549,0-.8-.238-.8-.811q.024-2.936,0-5.87c-.006-.578.255-.811.8-.807q5.4.039,10.8.073" fill="#d5d1d5"/>
        <path id="Trazado_279620" data-name="Trazado 279620" d="M40.912,76.551q0,3.682,0,7.364c-3.574.011-7.147.014-10.72.041-.614,0-.869-.217-.862-.842q.03-2.886,0-5.773c-.007-.632.253-.841.863-.836,3.573.028,7.146.033,10.719.046" fill="#e4e0e4"/>
        <path id="Trazado_279621" data-name="Trazado 279621" d="M41.944,87.078q0,2.983,0,5.968c-3.388.019-6.777.032-10.165.064-.482,0-.557-.224-.554-.63.014-1.609.026-3.219-.005-4.828-.01-.523.2-.619.661-.615,3.356.025,6.711.03,10.067.041" fill="#fbb341"/>
        <path id="Trazado_279622" data-name="Trazado 279622" d="M75.049,35.476c-.894,0-1.788-.023-2.68.007-.771.026-1.156-.259-1.136-1.074.028-1.133.036-2.269-.005-3.4-.021-.569.184-.7.711-.65a31.2,31.2,0,0,0,6.38,0c.493-.051.759.018.735.623-.045,1.166-.022,2.336-.01,3.5.007.694-.316,1-1,.992-1-.015-1.993,0-2.99,0" fill="#c7c0c8"/>
        <path id="Trazado_279623" data-name="Trazado 279623" d="M41.945,73.377a32.372,32.372,0,0,0-.031-3.8c-.256-2.138.857-3.736,1.853-5.4q0,4.536-.007,9.072l-.156.141-1.659,0" fill="#fdc065"/>
        <path id="Trazado_279624" data-name="Trazado 279624" d="M43.6,73.381l.156-.141c.028.135-.025.182-.156.141" fill="#fab240"/>
      </g>
    </g>
  </g>
</svg>
