<svg xmlns="http://www.w3.org/2000/svg" xmlns:xlink="http://www.w3.org/1999/xlink" width="84.648" height="84.683" viewBox="0 0 84.648 84.683">
  <defs>
    <clipPath id="clip-path">
      <rect id="Rectángulo_325461" data-name="Rectángulo 325461" width="84.648" height="84.683" fill="none"/>
    </clipPath>
  </defs>
  <g id="Grupo_261820" data-name="Grupo 261820" transform="translate(-180 -2823.891)">
    <g id="Grupo_261662" data-name="Grupo 261662" transform="translate(180 2823.891)">
      <g id="Grupo_261661" data-name="Grupo 261661" clip-path="url(#clip-path)">
        <path id="Trazado_279482" data-name="Trazado 279482" d="M3.32,81.942c.006-1.629.006-3.258.021-4.887.01-1.161.23-1.355,1.483-1.372l.952.846c.016,1.584.019,3.169.058,4.752a3.477,3.477,0,0,0,.251.861H16.352l.173-.193q.015-3.133.03-6.266c.007-1.829.693-2.526,2.551-2.537,2.228-.013,4.456,0,6.684,0,2.177,0,3.018.859,3.033,3.068.014,1.912.045,3.824.068,5.736l.242.2h8.382l1.681,0c.127-.178.364-.355.365-.533q.03-7.9,0-15.808c0-.183-.237-.365-.363-.548H37.515a3.811,3.811,0,0,0-.414-.044q-15.293,0-30.586.006a2.341,2.341,0,0,0-.622.18l-.1,6.892-1.176.9c-.949-.046-1.291-.59-1.284-1.487.017-2.125.005-4.249.005-6.442-.952-.118-2.118.11-2.082-1.366.031-1.266,1.129-1.018,1.794-1.295.1-1.613.233-3.2.3-4.783a19.117,19.117,0,0,1,3.089-9.227,1.915,1.915,0,0,0,.274-.946c.014-9.744.088-19.489-.078-29.23-.023-1.334-.454-2.614.036-3.991a5.669,5.669,0,0,0,.032-2.289C6.49,9.7,8.121,8.914,10.012,8.816c1.105-.057,2.216-.01,3.406-.01,0-1.02.012-1.954,0-2.888a5.982,5.982,0,0,1,5.019-5.7A25.8,25.8,0,0,1,21.2.012Q43.255-.007,65.305,0c4.566,0,7.225,2.856,7.206,7.235-.063,14.424-.024,28.848-.024,43.272v1.131c1.855.339,2.582,1.165,2.524,3-.031.994.034,1.673,1.214,2.066,1.577.525,1.7,2.262,2.349,3.536.465.92.387,2.132,1.658,2.6a1.409,1.409,0,0,1,.209,1.3c-.836,1.084-.079,2.107-.056,3.148a33.239,33.239,0,0,1,.041,3.435c-.024.294-.664.538-1.021.8-1.2-.19-1.354-1.1-1.434-2.064-.125-1.517-.252-3.034-.387-4.647l-2.568.124c-4.814-.028-9.628-.071-14.442-.049-.282,0-.742.489-.814.818a19.8,19.8,0,0,0-.181,8.428,75.713,75.713,0,0,0,2.3,7.414c.08.246.374.595.577.6,1.658.049,3.318.027,5.025.027,0-.737,0-1.327,0-1.917,0-.737.335-1.057,1.093-1.046.732.011,1.233.182,1.222,1.03-.008.617,0,1.234,0,1.9h3.136a10.627,10.627,0,0,0,1.666.015,1.2,1.2,0,0,0,.855-.517,57.783,57.783,0,0,0,2.04-5.9c.271-1.049.6-1.642,1.719-1.581,1.256.343.942,1.321.726,2.1-.547,1.974-1.212,3.916-1.846,5.923,1.552,0,3.148.025,4.743-.01a1.615,1.615,0,0,1,1.8,1.209c.167.624-.816,1.3-1.767,1.3q-40.644,0-81.287.007c-.863,0-1.486-.181-1.569-1.2-.091-1.118.763-1.168,1.469-1.305a9.653,9.653,0,0,1,1.671-.046l.174-.193M19.629,17.818c-3.4-.036-6.8-.074-10.2-.1-.054,0-.11.2-.166.3V21.8c.808,0,1.561-.012,2.314,0,.852.017,1.526.294,1.682,1.255a1.324,1.324,0,0,1-1.518,1.068,20.67,20.67,0,0,0-2.455.273v8.687H19.66V24.351H17.609c-.916-.022-1.785-.113-1.919-1.294.06-1.294,1.035-1.224,1.92-1.289h2.019ZM19.3,15.135l.319-.043c.027-.587.075-1.174.078-1.762.009-2.1,0-2.1-2.093-1.935H9.266v3.5l.161.244,7.978.022,1.9-.022m.365,20.7L19.5,35.67l-1.895.006h-8.3v9.436a23.509,23.509,0,0,1,3.048-2.182c1.843-.924,3.787-1.645,5.689-2.451,1.453-.107,1.665-.326,1.659-1.751,0-.964-.022-1.927-.034-2.891M49.465,74H42.124v7.952l.209.188,5.873.005h1.259c.112-.123.322-.246.322-.37q.028-3.7,0-7.395c0-.128-.209-.254-.321-.38m0-49.656H39.3v8.743h8.9l1.521-.166c.025-2.735.054-5.469.06-8.2,0-.124-.209-.25-.32-.374M71.052,56.19h1.385V54.113h-7.6V56.19ZM49.078,58.406l.2,0,.2.009c.108-.212.308-.423.31-.635q.03-5.082,0-10.165c0-.2-.21-.4-.322-.6H48.2L39.4,47l-.178.163a5.654,5.654,0,0,0,.722,3.634,17.586,17.586,0,0,1,2,7.477l.181.167,6.075-.022.876-.007M35.208,31.253H22.284v1.626H36.611V31.253ZM55.321,71.434h1.407V69.8H41.987v1.636ZM48.206,18.028H39.267v3.748h10.34V18.028Zm0,42.971H42c-.151,1.573-.151,1.573,1.288,1.891a1.065,1.065,0,0,1,.442,1.812,9.113,9.113,0,0,1-1.736.959v1.557h7.746V61ZM24.738,82.146h1.531V75.679H19.121v6.467ZM74.178,62.34H76.65c-1.48-4.295-1.3-3.621-3.727-3.561q-5.073-.025-10.146-.044c-.2,0-.511.036-.57.155-.548,1.1-1.052,2.218-1.624,3.45Zm-25.97-17.9h1.53V35.674H39.3v8.767ZM30.2,44.4c-.091-.1-.162-.247-.275-.3a17.235,17.235,0,0,0-11.807-1.039A16.476,16.476,0,0,0,6.7,53.644a16.875,16.875,0,0,0-.824,7.1c.036.648.005,1.3.005,1.968,10.561,0,21,0,31.436,0a.988.988,0,0,0,.2-.043h2A51.073,51.073,0,0,0,39.1,55.7a15.553,15.553,0,0,0-5.48-9.141A29.557,29.557,0,0,0,30.2,44.4m6.27-15.709.181-.184a15.381,15.381,0,0,0-.027-3.547,6.39,6.39,0,0,1,.012-3.793,6.115,6.115,0,0,0,.034-2.393,2.92,2.92,0,0,1,3.239-3.265c1.07.022,2.141,0,3.268,0,0-1.078.034-2.051-.006-3.021A4.883,4.883,0,0,1,48.126,7.5c4.887.039,9.776-.04,14.662.052a6.3,6.3,0,0,1,2.941.923c1.615.957,2.069,2.621,2.07,4.4q.013,18.7,0,37.4v1.239h2.145A2.647,2.647,0,0,0,70,51.173c0-14.91.036-29.821-.031-44.731-.011-2.521-1.547-3.9-4.031-3.908-15.431-.067-30.862-.044-46.293-.015A3.6,3.6,0,0,0,16.41,4.276c-.848,1.389-.358,2.9-.425,4.361-.005.114.475.348.737.36a20.346,20.346,0,0,1,2.923.064,3.278,3.278,0,0,1,1.9,1.094,5.222,5.222,0,0,1,.66,2.262c.19,1.261-.354,2.624.555,3.794a.591.591,0,0,1-.046.557c-.7.834-.5,1.817-.5,2.763-.008,3.029,0,6.057,0,9.157ZM65.343,51.469V25.313c0-4.189.015-8.378-.007-12.567-.009-1.814-.761-2.676-2.294-2.713C58.02,9.914,52.992,9.977,47.967,10a1.976,1.976,0,0,0-2.136,1.54,18.231,18.231,0,0,0-.031,3.72c.007.164.478.425.743.437,1.08.05,2.163.019,3.245.022a2.063,2.063,0,0,1,2.187,1.613,2.219,2.219,0,0,1,.2.98c-.409,2.3,1.006,4.562.1,6.858q0,20.474,0,40.948v1.158h4.67c.191-1.232.6-2.345-.084-3.495-.13-.218.407-.86.679-1.279.154-.237.478-.383.585-.63.386-.893.681-1.824,1.069-2.716.6-1.38,1.2-2.792,3.02-2.819.182-3.93.428-4.311,3.137-4.874M22.265,40.029a19.882,19.882,0,0,1,14.417,5.9V35.45H22.265ZM52.3,82.13h6.854l-2.345-8.066H52.3Zm-42.928-37c-.022-.013-.05-.04-.063-.035a.281.281,0,0,0-.07.066l.131.04c0-.024,0-.047,0-.071" transform="translate(0 -0.001)" fill="#010101"/>
        <path id="Trazado_279483" data-name="Trazado 279483" d="M33.57,328.182H23.508c0-1.534.019-3.068-.013-4.6a4,4,0,0,0-.3-1.012l-.952-.846-.207-2.491,1.176-.9a3.5,3.5,0,0,0,.281-.916q.046-2.08,0-4.161c-.013-.606-.121-1.211-.186-1.816a2.333,2.333,0,0,1,.622-.18q15.293-.013,30.586-.006a3.8,3.8,0,0,1,.414.044q0,8.349,0,16.7l-.2.187H46.555l-.242-.2c-.023-1.912-.054-3.824-.068-5.736-.016-2.209-.856-3.067-3.033-3.068-2.228,0-4.456-.01-6.684,0-1.858.011-2.544.708-2.552,2.537q-.012,3.133-.029,6.266c-.057,0-.114,0-.172,0l-.205.19" transform="translate(-17.422 -246.041)" fill="#e7ecf6"/>
        <path id="Trazado_279484" data-name="Trazado 279484" d="M350.186,309.495l2.568-.124c.135,1.613.262,3.13.387,4.647.08.966.239,1.874,1.434,2.064q-.1,1.316-.194,2.632c-1.122-.061-1.448.531-1.719,1.581a57.775,57.775,0,0,1-2.04,5.9,1.2,1.2,0,0,1-.855.517,10.62,10.62,0,0,1-1.666-.015c.658-2,1.476-3.974,1.929-6.023a31.4,31.4,0,0,0,.707-6.148,37.373,37.373,0,0,0-.549-5.033" transform="translate(-275.169 -244.555)" fill="#dc544f"/>
        <path id="Trazado_279485" data-name="Trazado 279485" d="M15.192,391.114l-.174.193.174-.193" transform="translate(-11.872 -309.172)" fill="#b5b9c2"/>
        <path id="Trazado_279486" data-name="Trazado 279486" d="M59.48,222.86a.988.988,0,0,1-.2.043c-10.437,0-20.875,0-31.436,0,0-.667.031-1.32-.006-1.968a16.873,16.873,0,0,1,.824-7.1,16.475,16.475,0,0,1,11.421-10.582,17.233,17.233,0,0,1,11.807,1.039c.113.05.184.2.275.3a1.631,1.631,0,0,0,.238.547c.824.8,1.735,1.517,2.5,2.369a15.9,15.9,0,0,1,4.134,8.4c.325,2.294.312,4.636.45,6.956M40.6,214.724c-.325,2.006,2.028,4.026,4.025,4,1.716-.022,4.143-2.057,3.984-4.16a8.45,8.45,0,0,0-1.645-4.5,2.848,2.848,0,0,0-4.592-.208,7.259,7.259,0,0,0-1.772,4.867" transform="translate(-21.961 -160.192)" fill="#e7ecf6"/>
        <path id="Trazado_279487" data-name="Trazado 279487" d="M298.405,309.754a37.382,37.382,0,0,1,.549,5.033,31.4,31.4,0,0,1-.707,6.148c-.454,2.05-1.271,4.019-1.929,6.023h-3.136c0-.665-.006-1.282,0-1.9.011-.848-.49-1.019-1.222-1.03-.759-.011-1.1.309-1.094,1.046,0,.59,0,1.18,0,1.917-1.708,0-3.367.021-5.025-.027-.2-.006-.5-.355-.577-.6a75.7,75.7,0,0,1-2.3-7.414,19.8,19.8,0,0,1,.181-8.428c.072-.328.532-.816.814-.818,4.814-.022,9.628.021,14.442.049" transform="translate(-223.389 -244.814)" fill="#df6b57"/>
        <path id="Trazado_279488" data-name="Trazado 279488" d="M196.006,235.728l-6.075.022-.181-.167a17.586,17.586,0,0,0-2-7.477,5.654,5.654,0,0,1-.722-3.634l.178-.163,8.8.014q0,5.7,0,11.4" transform="translate(-147.804 -177.315)" fill="#c3d5ef"/>
        <path id="Trazado_279489" data-name="Trazado 279489" d="M196.488,179.038H187.58v-8.767h8.905l0,8.767" transform="translate(-148.28 -134.598)" fill="#df6b57"/>
        <path id="Trazado_279490" data-name="Trazado 279490" d="M196.484,124.945h-8.9V116.2h8.9q0,4.372,0,8.743" transform="translate(-148.28 -91.857)" fill="#c3d5ef"/>
        <path id="Trazado_279491" data-name="Trazado 279491" d="M50.737,110.049c.134,1.181,1,1.272,1.919,1.294q0,4.368,0,8.736H44.336v-8.687a20.715,20.715,0,0,1,2.455-.273,1.323,1.323,0,0,0,1.518-1.068l2.429,0" transform="translate(-35.047 -86.993)" fill="#df6b57"/>
        <path id="Trazado_279492" data-name="Trazado 279492" d="M53.155,175.086c-1.9.806-3.846,1.526-5.689,2.451a23.5,23.5,0,0,0-3.048,2.182v-9.436h8.3c0,1.238-.031,2.478.022,3.715a3.736,3.736,0,0,0,.411,1.089" transform="translate(-35.112 -134.607)" fill="#c3d5ef"/>
        <path id="Trazado_279493" data-name="Trazado 279493" d="M207.142,361.358l-5.873-.005-.209-.188v-7.952h6.082v8.145" transform="translate(-158.936 -279.212)" fill="#c3d5ef"/>
        <path id="Trazado_279494" data-name="Trazado 279494" d="M302.764,283.946h-13.6c.572-1.232,1.076-2.352,1.624-3.45.06-.119.374-.155.57-.155q5.073.012,10.147.044l1.255,3.561" transform="translate(-228.586 -221.607)" fill="#df6b57"/>
        <path id="Trazado_279495" data-name="Trazado 279495" d="M96.883,367.684H91.266v-6.467h5.615q0,3.233,0,6.467" transform="translate(-72.145 -285.539)" fill="#d2eefa"/>
        <path id="Trazado_279496" data-name="Trazado 279496" d="M50.65,91.058l-2.429,0c-.155-.961-.83-1.238-1.682-1.255-.753-.015-1.507,0-2.314,0V86.025h8.344v3.743c-.885.065-1.86,0-1.92,1.289" transform="translate(-34.96 -68.002)" fill="#c3d5ef"/>
        <path id="Trazado_279497" data-name="Trazado 279497" d="M206.413,297.369H200.2v-1.557a9.108,9.108,0,0,0,1.736-.958,1.065,1.065,0,0,0-.442-1.812c-1.438-.318-1.438-.318-1.288-1.891h6.211l0,6.218" transform="translate(-158.21 -230.153)" fill="#df6b57"/>
        <path id="Trazado_279498" data-name="Trazado 279498" d="M196.363,89.794h-8.937V86.046h8.939v3.748" transform="translate(-148.159 -68.019)" fill="#c3d5ef"/>
        <path id="Trazado_279499" data-name="Trazado 279499" d="M52.367,58.149l-7.978-.022-.161-.244v-3.5h8.341q0,1.747,0,3.495l-.158.136a.438.438,0,0,0-.044.131" transform="translate(-34.962 -42.992)" fill="#c3d5ef"/>
        <path id="Trazado_279500" data-name="Trazado 279500" d="M151.464,230.186c-.138-2.32-.124-4.662-.45-6.956a15.9,15.9,0,0,0-4.134-8.4c-.762-.852-1.674-1.57-2.5-2.369a1.63,1.63,0,0,1-.238-.547,29.559,29.559,0,0,1,3.424,2.159,15.552,15.552,0,0,1,5.48,9.141,51.074,51.074,0,0,1,.415,6.97Z" transform="translate(-113.945 -167.518)" fill="#d7e1f0"/>
        <path id="Trazado_279501" data-name="Trazado 279501" d="M179.064,328.166l0-16.7h1.684q0,8.445,0,16.889l-1.681,0q.005-.094,0-.188" transform="translate(-141.546 -246.213)" fill="#d7e1f0"/>
        <path id="Trazado_279502" data-name="Trazado 279502" d="M213.741,334.783H200.406v-1.636h13.343q0,.818-.009,1.636" transform="translate(-158.419 -263.35)" fill="#355d7c"/>
        <path id="Trazado_279503" data-name="Trazado 279503" d="M119.288,150.8H106.365V149.17h12.924q0,.813,0,1.626" transform="translate(-84.081 -117.918)" fill="#355d7c"/>
        <path id="Trazado_279504" data-name="Trazado 279504" d="M84.051,124.963q0-4.368,0-8.736H86.1v8.736Z" transform="translate(-66.442 -91.877)" fill="#dc544f"/>
        <path id="Trazado_279505" data-name="Trazado 279505" d="M230.089,179.038l0-8.767h1.534v8.767Z" transform="translate(-181.881 -134.598)" fill="#dc544f"/>
        <path id="Trazado_279506" data-name="Trazado 279506" d="M230.073,235.779q0-5.7,0-11.4h1.264q.006,5.7.012,11.4l-.2-.009-.14-.147-.063.15-.876.007" transform="translate(-181.871 -177.367)" fill="#b7c8e9"/>
        <path id="Trazado_279507" data-name="Trazado 279507" d="M315.7,260.36h-6.213v-2.077h6.2q.007,1.039.014,2.077" transform="translate(-244.644 -204.171)" fill="#355d7c"/>
        <path id="Trazado_279508" data-name="Trazado 279508" d="M230.082,124.944q0-4.372,0-8.743h1.261c0,2.508-.012,5.015.009,7.523a4.769,4.769,0,0,0,.251,1.055l-1.521.166" transform="translate(-181.878 -91.855)" fill="#b7c8e9"/>
        <path id="Trazado_279509" data-name="Trazado 279509" d="M118.069,367.684q0-3.233,0-6.467H119.6v6.467Z" transform="translate(-93.331 -285.539)" fill="#b1e3f8"/>
        <path id="Trazado_279510" data-name="Trazado 279510" d="M230.078,297.369l0-6.218h1.529v6.218Z" transform="translate(-181.875 -230.153)" fill="#dc544f"/>
        <path id="Trazado_279511" data-name="Trazado 279511" d="M230.088,361.358v-8.145h1.26q0,4.072,0,8.145h-1.259" transform="translate(-181.883 -279.212)" fill="#b7c8e9"/>
        <path id="Trazado_279512" data-name="Trazado 279512" d="M84.452,175.06a3.737,3.737,0,0,1-.411-1.089c-.053-1.236-.021-2.476-.022-3.715l1.895-.007.164.168c.012.964.03,1.927.034,2.891.005,1.425-.207,1.644-1.66,1.751" transform="translate(-66.41 -134.581)" fill="#b7c8e9"/>
        <path id="Trazado_279513" data-name="Trazado 279513" d="M349.326,283.837l-1.255-3.561c2.422-.059,2.247-.733,3.727,3.561Z" transform="translate(-275.147 -221.499)" fill="#dc544f"/>
        <path id="Trazado_279514" data-name="Trazado 279514" d="M83.279,57.649q0-1.747,0-3.495c2.1-.16,2.1-.16,2.093,1.935,0,.587-.05,1.175-.078,1.762l-.319.043-1.9.022a.437.437,0,0,1,.044-.13l.158-.137" transform="translate(-65.672 -42.759)" fill="#b7c8e9"/>
        <path id="Trazado_279515" data-name="Trazado 279515" d="M84.053,88.994q0-1.872,0-3.743l2.019-.207v3.95Z" transform="translate(-66.443 -67.227)" fill="#b7c8e9"/>
        <path id="Trazado_279516" data-name="Trazado 279516" d="M187.089,328.356q0-8.445,0-16.889c.126.183.362.365.363.548q.03,7.9,0,15.808c0,.178-.238.355-.365.533" transform="translate(-147.892 -246.212)" fill="#e7ecf6"/>
        <path id="Trazado_279517" data-name="Trazado 279517" d="M230.085,89.794V86.046h1.4v3.748Z" transform="translate(-181.88 -68.019)" fill="#b7c8e9"/>
        <path id="Trazado_279518" data-name="Trazado 279518" d="M236.118,235.779q-.006-5.7-.012-11.4c.112.2.321.4.322.6q.03,5.082,0,10.165c0,.212-.2.424-.31.635" transform="translate(-186.64 -177.367)" fill="#c3d5ef"/>
        <path id="Trazado_279519" data-name="Trazado 279519" d="M54.588,84.684l-2.019.207H44.225c.055-.1.111-.3.166-.3,3.4.022,6.8.059,10.2.1" transform="translate(-34.96 -66.867)" fill="#d2eefa"/>
        <path id="Trazado_279520" data-name="Trazado 279520" d="M236.35,124.778a4.769,4.769,0,0,1-.251-1.055c-.021-2.507-.01-5.015-.009-7.523.111.125.321.25.32.374-.006,2.735-.035,5.469-.06,8.2" transform="translate(-186.624 -91.855)" fill="#c3d5ef"/>
        <path id="Trazado_279521" data-name="Trazado 279521" d="M236.1,361.358q0-4.072,0-8.145c.112.127.32.253.321.38q.03,3.7,0,7.395c0,.124-.21.246-.322.369" transform="translate(-186.634 -279.212)" fill="#c3d5ef"/>
        <path id="Trazado_279522" data-name="Trazado 279522" d="M339.084,260.36q-.007-1.039-.014-2.077h1.4v2.077Z" transform="translate(-268.032 -204.171)" fill="#2b4d66"/>
        <path id="Trazado_279523" data-name="Trazado 279523" d="M168.046,150.8q0-.813,0-1.626h1.4V150.8Z" transform="translate(-132.839 -117.918)" fill="#2b4d66"/>
        <path id="Trazado_279524" data-name="Trazado 279524" d="M264.053,334.783q0-.818.009-1.636h1.4v1.636Z" transform="translate(-208.732 -263.35)" fill="#2b4d66"/>
        <path id="Trazado_279525" data-name="Trazado 279525" d="M27.75,312.143c.065.605.173,1.209.186,1.816q.042,2.08,0,4.161a3.49,3.49,0,0,1-.281.916q.05-3.446.1-6.892" transform="translate(-21.857 -246.747)" fill="#f8fafb"/>
        <path id="Trazado_279526" data-name="Trazado 279526" d="M27.571,365.275a4,4,0,0,1,.3,1.012c.032,1.533.014,3.068.013,4.6a3.471,3.471,0,0,1-.251-.862c-.04-1.584-.043-3.168-.058-4.752" transform="translate(-21.795 -288.747)" fill="#f8fafb"/>
        <path id="Trazado_279527" data-name="Trazado 279527" d="M92.135,72.074l.319-.043-.319.043" transform="translate(-72.832 -56.94)" fill="#d2eefa"/>
        <path id="Trazado_279528" data-name="Trazado 279528" d="M200.212,278.12l.181.167-.181-.167" transform="translate(-158.266 -219.852)" fill="#adafaf"/>
        <path id="Trazado_279529" data-name="Trazado 279529" d="M174.071,136.241l.181-.184-.181.184" transform="translate(-137.602 -107.552)" fill="#dcdede"/>
        <path id="Trazado_279530" data-name="Trazado 279530" d="M93.259,170.418l-.164-.168.164.168" transform="translate(-73.591 -134.581)" fill="#b5b9c2"/>
        <path id="Trazado_279531" data-name="Trazado 279531" d="M44.251,215.254v.071l-.131-.04a.284.284,0,0,1,.07-.066c.013-.006.042.022.061.035" transform="translate(-34.877 -170.128)" fill="#b7c8e9"/>
        <path id="Trazado_279532" data-name="Trazado 279532" d="M187.408,224.31l-.178.163.178-.163" transform="translate(-148.004 -177.315)" fill="#b5b9c2"/>
        <path id="Trazado_279533" data-name="Trazado 279533" d="M44.228,71.073l.161.244-.161-.244" transform="translate(-34.962 -56.183)" fill="#d2eefa"/>
        <path id="Trazado_279534" data-name="Trazado 279534" d="M234.252,278.21l.063-.15.14.147-.2,0" transform="translate(-185.174 -219.804)" fill="#c3d5ef"/>
        <path id="Trazado_279535" data-name="Trazado 279535" d="M77.076,391.351l.205-.19c0,.063,0,.126,0,.189h-.2" transform="translate(-60.928 -309.21)" fill="#f8fafb"/>
        <path id="Trazado_279536" data-name="Trazado 279536" d="M78.048,391.337a1.84,1.84,0,0,0,0-.189c.057,0,.114,0,.172,0l-.173.193" transform="translate(-61.696 -309.196)" fill="#dcdede"/>
        <path id="Trazado_279537" data-name="Trazado 279537" d="M137.9,391.135l.242.2-.242-.2" transform="translate(-109.011 -309.189)" fill="#f8fafb"/>
        <path id="Trazado_279538" data-name="Trazado 279538" d="M178.3,391.171q0,.094,0,.188h-.2l.2-.187" transform="translate(-140.783 -309.218)" fill="#f8fafb"/>
        <path id="Trazado_279539" data-name="Trazado 279539" d="M201.06,391.169l.209.188-.209-.188" transform="translate(-158.936 -309.216)" fill="#d7e1f0"/>
        <path id="Trazado_279540" data-name="Trazado 279540" d="M88.87,237.9a7.26,7.26,0,0,1,1.772-4.867,2.848,2.848,0,0,1,4.592.209,8.449,8.449,0,0,1,1.645,4.5c.158,2.1-2.268,4.137-3.984,4.16-2,.026-4.35-1.994-4.025-4m4.62,1.194c.28-.257.763-.486.8-.777a4.266,4.266,0,0,0-.857-3.422c-.145-.176-.54-.147-.819-.213a10.129,10.129,0,0,0-1.158,2.139c-.461,1.731.4,2.625,2.031,2.273" transform="translate(-70.227 -183.37)" fill="#010102"/>
        <path id="Trazado_279541" data-name="Trazado 279541" d="M83.444,71.068l-.158.137.158-.137" transform="translate(-65.837 -56.179)" fill="#d2eefa"/>
        <path id="Trazado_279542" data-name="Trazado 279542" d="M102.909,249.335c-1.63.352-2.491-.542-2.031-2.273a10.115,10.115,0,0,1,1.159-2.139,5.268,5.268,0,0,1,.872,4.412" transform="translate(-79.646 -193.61)" fill="#355d7c"/>
        <path id="Trazado_279543" data-name="Trazado 279543" d="M107.746,249.335a5.268,5.268,0,0,0-.872-4.412c.279.066.674.036.819.213a4.266,4.266,0,0,1,.857,3.422c-.041.291-.524.52-.8.777" transform="translate(-84.483 -193.61)" fill="#2b4d66"/>
      </g>
    </g>
  </g>
</svg>
