<svg xmlns="http://www.w3.org/2000/svg" xmlns:xlink="http://www.w3.org/1999/xlink" width="148.29" height="148.29" viewBox="0 0 148.29 148.29">
  <defs>
    <clipPath id="clip-path">
      <rect id="Rectángulo_325509" data-name="Rectángulo 325509" width="148.29" height="148.29" fill="none"/>
    </clipPath>
  </defs>
  <g id="Grupo_261795" data-name="Grupo 261795" transform="translate(-1206 -3173)">
    <g id="Grupo_261732" data-name="Grupo 261732" transform="translate(1206 3173)">
      <g id="Grupo_261731" data-name="Grupo 261731" clip-path="url(#clip-path)">
        <path id="Trazado_279625" data-name="Trazado 279625" d="M148.29,74.145A74.145,74.145,0,1,1,74.145,0,74.145,74.145,0,0,1,148.29,74.145" fill="#e2e8ec"/>
        <path id="Trazado_279626" data-name="Trazado 279626" d="M26.623,103.5a12.608,12.608,0,0,0,.756-3.6c.458-2.459.8-4.939,1.27-7.4a7.522,7.522,0,0,1,3.365-4.961,1.2,1.2,0,0,0,.627-.97c.194-1.754.439-3.5.684-5.251.181-1.3.4-1.5,1.741-1.769,1.174.716,1.295,1.016,1.09,2.358-.179,1.172-.3,2.352-.467,3.526-.089.638.13.757.749.63,5.491-1.123,11-2.174,16.483-3.33,6.5-1.369,11.815.39,15.708,5.853,2.1,2.952,4.046,6.02,6.048,9.043A4.823,4.823,0,0,0,78.755,100c5.009.058,10.019.02,15.029.035.473,0,.653-.147.755-.626a27.542,27.542,0,0,1,.785-2.873,29.826,29.826,0,0,1,7.539-12.259c.731-.715.72-.735-.273-1q-2.232-.583-4.465-1.161c-1.463-.379-1.464-.378-1.533,1.084a4.657,4.657,0,0,1-4.8,4.5,4.538,4.538,0,0,1-4.459-4.608c-.016-1.027-.026-2.056,0-3.082A.876.876,0,0,0,86.7,79a13.153,13.153,0,0,1-2.152-1.062.646.646,0,0,0-.975.116c-.705.747-1.42,1.489-2.186,2.172a4.63,4.63,0,0,1-6.439-6.643c.659-.7,1.342-1.379,2.015-2.068,1.1-.757,1.639-1.661,1.033-3.042a5.467,5.467,0,0,1-.256-1.778c-.028-.4-.169-.587-.574-.566a14.6,14.6,0,0,0-2.375.08c-.223-.025-.445-.06-.669-.073a4.3,4.3,0,0,1-4.073-3.009,4.408,4.408,0,0,1,1.165-4.944,5.251,5.251,0,0,1,3.606-1.353c.77.01,1.54.013,2.309.033.39.011.551-.129.6-.546.313-2.792.043-3.09-2.741-2.907a1.158,1.158,0,0,0-.188.043c-3.4-.02-6.8,0-10.192-.074a6.184,6.184,0,0,1-4.274-10.466,6.1,6.1,0,0,1,4.646-1.94c3.268.01,6.536-.039,9.8-.063a11.915,11.915,0,0,0,2.38.094c.331.017.558-.088.556-.475,0-.956,0-1.913,0-2.87,0-.294-.1-.512-.434-.486a7.68,7.68,0,0,0-2.459.2c-3.114.042-6.212.355-9.318.549-4.323.27-8.647.546-12.972.79-.57.032-.695.26-.686.768.024,1.349-.007,2.7.012,4.048a18.522,18.522,0,0,1-.444,5.451c-1.676,5.791-5.426,9.4-11.394,10.574-.755.149-1.116.412-1.213,1.231-.56,4.743-1.184,9.479-1.772,14.219-.153,1.236-.518,1.62-1.751,1.713-1.124-.5-1.294-.794-1.12-2.207.448-3.629.849-7.266,1.395-10.88a51.35,51.35,0,0,0,.48-10.364c-.221-4.3-.382-8.6-.566-12.893-.018-.415-.012-.729-.54-.962a4.529,4.529,0,0,1-2.892-5.093q.26-2.293.658-4.57a4.661,4.661,0,0,1,4.5-4.119Q49.166,24.4,61.134,23.153c1.389-.145,1.708.017,2.322,1.29-.192.7-.429,1.381-1.267,1.526-.6.1-1.207.152-1.812.212-3.407.34-6.815.667-10.221,1.017-4.137.426-8.27.89-12.409,1.3-1.486.146-2.1.7-2.265,2.2a28.6,28.6,0,0,1-.477,3.322c-.4,1.746.285,2.964,2.328,2.8,3.989-.321,7.987-.538,11.983-.788,2.4-.15,4.8-.266,7.195-.42q7.189-.459,14.378-.945c2.141-.142,4.28-.3,6.42-.449.475-.037.949-.083,1.424-.108a1.55,1.55,0,0,0,1.69-1.753c-.018-.89-.117-1.78-.213-2.667-.352-3.244-2.483-5.207-5.4-4.992-2.143.227-4.287.439-6.427.686-1.2.138-1.825-.248-2.1-1.376.02-.985.566-1.419,1.507-1.514,2.2-.22,4.4-.506,6.605-.7a7.835,7.835,0,0,1,8.562,6.824c.158,1.047.279,2.1.4,3.151a4.465,4.465,0,0,1-2.2,4.576.957.957,0,0,0-.556.969c.035.962.032,1.927,0,2.89-.015.48.06.723.628.814a2.93,2.93,0,0,1,2.579,3c.049,2.118.053,4.24,0,6.358a2.947,2.947,0,0,1-2.7,3c-.434.072-.529.229-.5.606.02.32.011.642,0,.963-.027,1.05-.23,2.016,1.371,2.31,1.25.229,1.8,1.463,1.832,2.761.027.995.031,1.992,0,2.987a2.986,2.986,0,0,1-2.669,3.121c-.494.094-.545.3-.493.708.094.737.021,1.379,1.231,1.3,1.588-.1,4.923,3.281,5.085,4.876a2.246,2.246,0,0,1-.288,1.673c-.76.929-.161,1.182.638,1.439.584-1.949,2.011-2.586,3.919-2.479.705.039,1.413-.007,2.12.009a3.115,3.115,0,0,1,3.229,3.211c.048,1.885.048,1.882,1.884,2.36,3.657.951,7.31,1.918,10.969,2.858,6.395,1.641,10.074,5.772,11.267,12.21.321,1.733.687,3.458,1.01,5.191a1.133,1.133,0,0,0,.788.935,4.088,4.088,0,0,1,2.73,3.659,60.168,60.168,0,0,1-.087,9.81,7.5,7.5,0,0,1-6.371,6.421c-.071.012-.127.109-.19.167H88.9c-.029-.053-.05-.144-.088-.152a63.1,63.1,0,0,1-7.793-2.649c-1.868-.644-3.645-1.6-5.637-1.828a83.6,83.6,0,0,0-9.6-.135A3.1,3.1,0,0,0,63.192,117a8.41,8.41,0,0,1-4.949,3.471H32.986c-.087-.289-.369-.219-.561-.278a7.871,7.871,0,0,1-5.552-5.709c-.056-.194.044-.474-.25-.568v-.771c.2-.118.188-.315.188-.506q0-4.029,0-8.057c0-.191.02-.39-.192-.5ZM77.89,59.8a16.914,16.914,0,0,0-3.817.079,1.606,1.606,0,0,0-1.381,1.862,1.555,1.555,0,0,0,1.676,1.482c1.181.024,2.363,0,3.545-.007,3.223.042,3.223.042,3.062-2.677,0-.032,0-.064,0-.1.02-.482-.21-.706-.692-.693-.8.021-1.6.033-2.392.05M80.4,72.262c-1.088,1.069-2.211,2.106-3.255,3.217a1.583,1.583,0,0,0,.178,2.6c.847.621,1.6.536,2.519-.348,1.036-1,2.04-2.031,3.058-3.049,1.27-1.27,1.27-1.27-.013-2.554s-1.276-1.276-2.487.137m10.223,11.81a1.515,1.515,0,0,0,1.837.656,1.67,1.67,0,0,0,1.228-1.661c.045-1.95.013-3.9.021-5.854,0-.482-.209-.706-.693-.694-.8.019-1.6.025-2.4.036-.529.009-.382.418-.383.7-.011,1.937,0,3.873,0,5.81a1.035,1.035,0,0,0,.393,1.01M77.907,50.478c.8.005,1.6-.005,2.392.02.482.016.689-.155.683-.66q-.027-2.631,0-5.263c0-.5-.186-.685-.676-.671-.8.024-1.6.011-2.393.013-2.02-.006-4.041,0-6.061-.028-.615-.009-.871.2-.862.832.023,1.667.026,3.335,0,5-.009.572.16.8.762.786,2.052-.036,4.1-.025,6.158-.032m33.726,35.511a13.174,13.174,0,0,0-3.412-1.255,1.9,1.9,0,0,0-2.085.483,28.91,28.91,0,0,0-4.344,4.758A27.585,27.585,0,0,0,97.4,100h18.476c.7.009,1.409-.014,2.109.036s.9-.2.747-.89c-.4-1.836-.685-3.7-1.131-5.523a10.67,10.67,0,0,0-5.969-7.633m7.728,23.334c-.384-.011-.769-.031-1.153-.031q-43.065,0-86.129,0a5.413,5.413,0,0,1-1.91-.151c-.547-.2-.657.046-.637.543.03.737.007,1.477.008,2.215,0,3.874,2.313,5.989,6.182,5.691.43-.033.543-.168.533-.57-.023-.867-.018-1.734,0-2.6.016-1.024.6-1.676,1.462-1.657a1.481,1.481,0,0,1,1.422,1.618c.022.867.026,1.735,0,2.6-.016.45.11.618.586.607,1.284-.03,2.57-.037,3.853,0,.541.016.639-.2.621-.671-.031-.834-.023-1.67,0-2.5.024-1.026.618-1.671,1.483-1.652a1.463,1.463,0,0,1,1.4,1.622c.016.867.027,1.735,0,2.6-.017.463.137.61.6.6,1.252-.026,2.506-.045,3.756.007.626.026.755-.2.731-.769a23.058,23.058,0,0,1,.022-2.694,1.422,1.422,0,0,1,2.843.069c.037.672.015,1.348.015,2.022,0,1.4,0,1.4,1.469,1.325a4.006,4.006,0,0,0,3.745-1.493c.488-.589.993-1.164,1.491-1.745a8.134,8.134,0,0,1,5.24-1.539c2.085.058,4.174.021,6.262.011a15.9,15.9,0,0,1,5.83,1.067c2.542.974,5.1,1.913,7.645,2.876a15.385,15.385,0,0,0,3.161.8c.453.068.645-.039.628-.535-.029-.9-.037-1.8,0-2.7a1.44,1.44,0,1,1,2.873.023c.025.867.031,1.735,0,2.6-.019.488.114.683.639.669,1.283-.033,2.569-.036,3.853,0,.548.016.638-.219.622-.685-.028-.834-.02-1.67,0-2.505.021-1,.551-1.609,1.382-1.634.871-.027,1.464.6,1.5,1.641.028.834.027,1.671,0,2.5-.016.464.071.695.618.679,1.283-.039,2.569-.029,3.853,0,.454.01.621-.12.6-.592-.034-.865-.021-1.733-.006-2.6a1.454,1.454,0,1,1,2.885.011c.018.834.024,1.67,0,2.5-.015.458.053.7.609.681,1.283-.041,2.569-.03,3.853,0,.46.01.616-.13.6-.6-.032-.9-.036-1.8,0-2.7a1.442,1.442,0,1,1,2.878.018c.028.962.028,1.925.04,2.888-.009.663.488.362.744.337a4.923,4.923,0,0,0,4.223-3.786,22.929,22.929,0,0,0,.156-4.024c.019-.433-.257-.44-.565-.435-.832.014-1.664.023-2.5.034M59.588,85.583a9.906,9.906,0,0,0-5.318-.136c-6.247,1.241-12.488,2.511-18.732,3.764a4.912,4.912,0,0,0-4.1,4.157c-.572,3.343-1.156,6.684-1.688,10.033a3.527,3.527,0,0,0-.15,1.61c.3,1.022.885,1.382,2.335,1.382h86.361c.353,0,.706-.014,1.06-.022.765.007,1.533-.021,2.3.032.654.044.8-.232.8-.835.017-2.106-.515-2.666-2.626-2.645-.223,0-.446.024-.668.037-.448-.013-.9-.038-1.345-.038-12.378,0-24.755-.03-37.133.023a11.165,11.165,0,0,1-6.591-1.591,21.068,21.068,0,0,1-2.044-2.407c-1.974-3.028-3.946-6.06-6.037-9.007a10.061,10.061,0,0,0-6.418-4.357M48.959,42.765V39.586c0-.35-.034-.628-.521-.594-3.04.21-6.08.417-9.121.587-.774.043-1,.32-.958,1.11.241,5,.428,10,.629,15,.043,1.08.137,1.188,1.185.912a11.213,11.213,0,0,0,8.065-7.184,18,18,0,0,0,.721-6.654M68.149,47.3c0-.962,0-1.924,0-2.886,0-.306,0-.584-.431-.571a24.354,24.354,0,0,0-3.554.091A3.317,3.317,0,0,0,61.5,47.518,3.272,3.272,0,0,0,64.606,50.5c.928.041,1.863-.033,2.789.032.683.049.8-.24.765-.825-.042-.8-.011-1.6-.011-2.4" fill="#020202"/>
        <path id="Trazado_279627" data-name="Trazado 279627" d="M26.623,104.078c.212.109.192.307.192.5q0,4.029,0,8.057c0,.192.012.389-.188.506Z" fill="#2f3c41"/>
        <path id="Trazado_279628" data-name="Trazado 279628" d="M35.284,76.718c1.232-.093,1.6-.477,1.751-1.712.588-4.741,1.212-9.476,1.772-14.22.1-.818.457-1.082,1.212-1.23,5.969-1.173,9.719-4.784,11.4-10.574a18.565,18.565,0,0,0,.444-5.452c-.019-1.349.012-2.7-.012-4.048-.009-.508.116-.736.686-.768,4.325-.244,8.648-.52,12.972-.79,3.105-.194,6.2-.507,9.318-.549q-.021,1.769-.043,3.537c-3.268.024-6.536.074-9.8.064a6.1,6.1,0,0,0-4.647,1.939A6.185,6.185,0,0,0,64.6,53.381c3.4.077,6.8.054,10.192.074q.012,1.689.023,3.377a5.253,5.253,0,0,0-3.607,1.353,4.41,4.41,0,0,0-1.164,4.944,4.3,4.3,0,0,0,4.073,3.009c.224.013.446.049.668.073a18.673,18.673,0,0,0,1.054,3.13,10.132,10.132,0,0,1,1.118,2.176c-.672.689-1.355,1.367-2.014,2.069a4.627,4.627,0,0,0,0,6.371,4.675,4.675,0,0,0,6.444.272c.765-.683,1.481-1.425,2.185-2.173a.648.648,0,0,1,.976-.115A13.19,13.19,0,0,0,86.7,79a.876.876,0,0,1,.638,1.009c-.031,1.027-.021,2.055,0,3.082A4.537,4.537,0,0,0,91.79,87.7a4.655,4.655,0,0,0,4.8-4.5c.07-1.463.071-1.464,1.533-1.085q2.233.579,4.466,1.162c.993.26,1,.279.273,1a29.825,29.825,0,0,0-7.54,12.258,27.786,27.786,0,0,0-.784,2.873c-.1.479-.282.628-.755.627-5.01-.016-10.02.022-15.029-.036a4.822,4.822,0,0,1-4.078-2.362c-2-3.024-3.945-6.091-6.048-9.043-3.893-5.463-9.211-7.223-15.708-5.853-5.485,1.156-10.992,2.206-16.483,3.33-.619.126-.838.007-.749-.631.165-1.174.288-2.354.467-3.525.2-1.343.083-1.643-1.09-2.359q.108-1.417.218-2.834" fill="#a56428"/>
        <path id="Trazado_279629" data-name="Trazado 279629" d="M66.284,24c.275,1.128.9,1.514,2.1,1.376,2.14-.247,4.285-.459,6.427-.686.046.393.366.59.61.834a4.956,4.956,0,0,1,1.485,2.639c.34,2,.9,3.99.4,6.047-2.14.15-4.28.307-6.42.45q-7.189.479-14.379.945c-2.4.153-4.8.27-7.195.419-4,.25-7.994.467-11.983.789-2.043.165-2.731-1.054-2.327-2.8a29.069,29.069,0,0,0,.477-3.322c.166-1.5.778-2.057,2.265-2.2,4.138-.406,8.271-.871,12.408-1.3,3.406-.351,6.815-.677,10.222-1.018.6-.06,1.213-.109,1.811-.212.838-.144,1.075-.825,1.267-1.526.923-.272,1.913-.112,2.828-.437" fill="#844d20"/>
        <path id="Trazado_279630" data-name="Trazado 279630" d="M74.087,101.353a11.168,11.168,0,0,0,6.591,1.591c12.378-.052,24.756-.025,37.133-.023.449,0,.9.025,1.345.038a14.229,14.229,0,0,1,.2,3.411c-.353.008-.706.022-1.06.022H31.933c-1.449,0-2.035-.359-2.335-1.382a3.521,3.521,0,0,1,.15-1.609c.533-3.35,1.116-6.691,1.689-10.034a4.911,4.911,0,0,1,4.1-4.157c6.244-1.253,12.485-2.523,18.732-3.764a9.9,9.9,0,0,1,5.318.136c.028.407.36.556.62.793a13.8,13.8,0,0,1,2.174,2.16c2.271,3.284,4.4,6.663,6.681,9.94a5.889,5.889,0,0,0,5.024,2.878M56.761,99.662a4.694,4.694,0,0,0,4.729-4.669,4.694,4.694,0,0,0-9.386.025,4.689,4.689,0,0,0,4.657,4.644" fill="#844d20"/>
        <path id="Trazado_279631" data-name="Trazado 279631" d="M56.5,117.541c-1.468.076-1.467.076-1.469-1.325,0-.674.023-1.35-.015-2.022a1.422,1.422,0,0,0-2.843-.069,23.075,23.075,0,0,0-.022,2.695c.024.565-.1.794-.731.768-1.25-.052-2.5-.033-3.756-.006-.462.009-.616-.138-.6-.6.032-.866.021-1.734,0-2.6a1.462,1.462,0,0,0-1.4-1.621c-.866-.02-1.46.625-1.484,1.651-.019.835-.027,1.671,0,2.5.018.473-.08.688-.621.671-1.283-.039-2.569-.032-3.853,0-.476.011-.6-.157-.586-.607.029-.866.026-1.734,0-2.6a1.482,1.482,0,0,0-1.422-1.619c-.861-.019-1.446.633-1.462,1.657-.013.867-.019,1.735,0,2.6.01.4-.1.537-.533.57-3.869.3-6.18-1.816-6.182-5.691,0-.738.022-1.478-.008-2.215-.02-.5.09-.742.637-.543a5.417,5.417,0,0,0,1.91.152q43.063,0,86.129,0c.384,0,.769.019,1.153.03,0,1.335.071,2.675-.018,4a4.929,4.929,0,0,1-2.043,3.87c-.012-.962-.012-1.925-.04-2.887a1.442,1.442,0,1,0-2.878-.019c-.036.9-.032,1.8,0,2.7.016.465-.14.605-.6.6-1.284-.027-2.569-.037-3.853,0-.556.017-.624-.224-.609-.682.028-.834.022-1.669,0-2.5a1.454,1.454,0,1,0-2.885-.011c-.015.867-.027,1.735.006,2.6.018.471-.149.6-.6.592-1.284-.026-2.57-.036-3.853,0-.547.016-.634-.215-.618-.679q.042-1.251,0-2.5c-.035-1.041-.628-1.668-1.5-1.642-.831.025-1.361.638-1.382,1.634-.017.835-.025,1.671,0,2.505.016.466-.074.7-.622.685-1.284-.037-2.57-.034-3.853,0-.525.013-.657-.182-.639-.67.032-.866.026-1.734,0-2.6a1.44,1.44,0,1,0-2.873-.023c-.041.9-.033,1.8,0,2.7.017.5-.175.6-.628.535a15.258,15.258,0,0,1-3.161-.8c-2.547-.963-5.1-1.9-7.645-2.876a15.9,15.9,0,0,0-5.83-1.067c-2.088.01-4.176.048-6.262-.011a8.129,8.129,0,0,0-5.24,1.54,4.749,4.749,0,0,0-2.575.57,7.1,7.1,0,0,0-2.661,2.667" fill="#fcd82d"/>
        <path id="Trazado_279632" data-name="Trazado 279632" d="M115.917,100H97.44a27.57,27.57,0,0,1,4.392-10.024,28.864,28.864,0,0,1,4.344-4.757,1.9,1.9,0,0,1,2.085-.484A13.238,13.238,0,0,1,111.673,86a1.013,1.013,0,0,0,.328.765,10.926,10.926,0,0,1,1.532,2.3,18.485,18.485,0,0,1,1.607,5.961,39.553,39.553,0,0,1,.777,4.981" fill="#844d20"/>
        <path id="Trazado_279633" data-name="Trazado 279633" d="M48.959,42.765a18,18,0,0,1-.721,6.654A11.213,11.213,0,0,1,40.173,56.6c-1.048.276-1.142.168-1.185-.912-.2-5-.388-10-.629-15-.038-.789.184-1.066.958-1.109,3.042-.17,6.081-.377,9.121-.588.487-.033.521.245.521.595v3.179" fill="#844d20"/>
        <path id="Trazado_279634" data-name="Trazado 279634" d="M77.907,50.478c-2.053.007-4.106,0-6.159.032-.6.01-.77-.214-.761-.787.028-1.667.025-3.335,0-5-.01-.629.245-.84.861-.831,2.02.03,4.041.021,6.061.027q0,3.282-.006,6.562" fill="#3d4e54"/>
        <path id="Trazado_279635" data-name="Trazado 279635" d="M68.149,47.3c0,.8-.031,1.6.011,2.4.031.585-.082.874-.766.825-.925-.065-1.86.009-2.789-.032A3.271,3.271,0,0,1,61.5,47.518a3.317,3.317,0,0,1,2.668-3.581,24.35,24.35,0,0,1,3.554-.091c.434-.013.432.265.431.571,0,.962,0,1.924,0,2.886" fill="#d5e2f5"/>
        <path id="Trazado_279636" data-name="Trazado 279636" d="M74.087,101.354a5.889,5.889,0,0,1-5.024-2.878c-2.278-3.277-4.41-6.656-6.68-9.94a13.8,13.8,0,0,0-2.175-2.16c-.26-.237-.592-.386-.62-.793a10.058,10.058,0,0,1,6.419,4.357c2.09,2.947,4.063,5.979,6.036,9.007a21.068,21.068,0,0,0,2.044,2.407" fill="#633818"/>
        <path id="Trazado_279637" data-name="Trazado 279637" d="M115.917,100a39.553,39.553,0,0,0-.777-4.981,18.485,18.485,0,0,0-1.607-5.961A10.926,10.926,0,0,0,112,86.76a1.013,1.013,0,0,1-.328-.765,10.674,10.674,0,0,1,5.969,7.633c.445,1.825.731,3.687,1.13,5.523.15.69-.039.941-.746.891s-1.406-.028-2.109-.037" fill="#633818"/>
        <path id="Trazado_279638" data-name="Trazado 279638" d="M77.309,34.215c.5-2.056-.063-4.05-.4-6.046a4.952,4.952,0,0,0-1.485-2.64c-.244-.243-.564-.441-.609-.833,2.916-.216,5.046,1.748,5.4,4.991.1.887.195,1.777.214,2.668a1.55,1.55,0,0,1-1.691,1.752c-.475.025-.949.071-1.423.108" fill="#633818"/>
        <path id="Trazado_279639" data-name="Trazado 279639" d="M90.62,76.555c.8-.012,1.6-.018,2.4-.037.485-.011.7.213.693.695-.008,1.952.024,3.9-.02,5.854a1.67,1.67,0,0,1-1.229,1.66,1.515,1.515,0,0,1-1.837-.655q0-3.759,0-7.517" fill="#2f3c41"/>
        <path id="Trazado_279640" data-name="Trazado 279640" d="M117.34,117.2a4.932,4.932,0,0,0,2.043-3.87c.089-1.329.018-2.669.018-4,.832-.011,1.665-.02,2.5-.034.307,0,.583,0,.564.435a22.929,22.929,0,0,1-.155,4.024,4.923,4.923,0,0,1-4.223,3.786c-.256.025-.753.327-.744-.337" fill="#f7bb01"/>
        <path id="Trazado_279641" data-name="Trazado 279641" d="M77.907,50.478q0-3.281.006-6.562c.8,0,1.6.012,2.392-.012.491-.015.682.174.677.67q-.026,2.632,0,5.264c0,.5-.2.676-.683.66-.8-.025-1.6-.015-2.392-.02" fill="#2f3c41"/>
        <path id="Trazado_279642" data-name="Trazado 279642" d="M80.4,72.261c1.21-1.412,1.21-1.412,2.487-.136s1.283,1.283.012,2.554c-1.017,1.017-2.022,2.05-3.058,3.049-.916.884-1.671.968-2.519.348,0-.409.314-.614.557-.859.947-.957,1.924-1.885,2.844-2.866a1.213,1.213,0,0,0-.323-2.09" fill="#2f3c41"/>
        <path id="Trazado_279643" data-name="Trazado 279643" d="M77.913,63.218c-1.182.005-2.364.031-3.545.008a1.556,1.556,0,0,1-1.676-1.483,1.607,1.607,0,0,1,1.381-1.862,16.906,16.906,0,0,1,3.816-.079l.024,3.416" fill="#3e4e54"/>
        <path id="Trazado_279644" data-name="Trazado 279644" d="M76.961,71.518a10.23,10.23,0,0,0-1.118-2.177,18.573,18.573,0,0,1-1.054-3.129,14.608,14.608,0,0,1,2.375-.08c.4-.021.546.17.575.566a5.467,5.467,0,0,0,.255,1.778c.606,1.381.064,2.285-1.033,3.042" fill="#633818"/>
        <path id="Trazado_279645" data-name="Trazado 279645" d="M74.78,40.912q.021-1.768.043-3.537a7.671,7.671,0,0,1,2.458-.2c.337-.026.434.192.434.486,0,.957,0,1.914,0,2.871,0,.387-.225.491-.556.474a11.9,11.9,0,0,1-2.379-.094" fill="#633818"/>
        <path id="Trazado_279646" data-name="Trazado 279646" d="M77.913,63.218,77.889,59.8c.8-.016,1.6-.029,2.393-.05.481-.013.712.212.692.693a.769.769,0,0,0,0,.1c.161,2.719.161,2.719-3.062,2.677" fill="#2f3c41"/>
        <path id="Trazado_279647" data-name="Trazado 279647" d="M80.4,72.261a1.213,1.213,0,0,1,.323,2.09c-.92.981-1.9,1.909-2.844,2.866-.243.245-.561.45-.557.859a1.584,1.584,0,0,1-.177-2.6c1.044-1.111,2.166-2.148,3.255-3.217" fill="#3d4e54"/>
        <path id="Trazado_279648" data-name="Trazado 279648" d="M119.393,106.377a14.186,14.186,0,0,0-.2-3.412c.223-.012.445-.034.668-.036,2.112-.021,2.643.539,2.626,2.645,0,.6-.147.879-.8.834-.763-.052-1.531-.024-2.3-.031" fill="#633818"/>
        <path id="Trazado_279649" data-name="Trazado 279649" d="M74.818,56.833q-.012-1.689-.023-3.377a1.158,1.158,0,0,1,.188-.043c2.784-.183,3.055.115,2.741,2.907-.046.417-.206.557-.6.546-.769-.02-1.539-.023-2.309-.033" fill="#633818"/>
        <path id="Trazado_279650" data-name="Trazado 279650" d="M56.5,117.541a7.1,7.1,0,0,1,2.661-2.667,4.749,4.749,0,0,1,2.575-.57c-.5.581-1,1.155-1.491,1.744a4.006,4.006,0,0,1-3.745,1.493" fill="#f7bb01"/>
        <path id="Trazado_279651" data-name="Trazado 279651" d="M90.62,76.555q0,3.757,0,7.517a1.036,1.036,0,0,1-.392-1.01c0-1.937-.007-3.873,0-5.81,0-.279-.145-.688.384-.7" fill="#3e4e54"/>
        <path id="Trazado_279652" data-name="Trazado 279652" d="M56.76,99.662A4.687,4.687,0,0,1,52.1,95.018a4.693,4.693,0,0,1,9.385-.024,4.693,4.693,0,0,1-4.729,4.668m.083-2.873a1.728,1.728,0,0,0,1.7-1.727,1.748,1.748,0,1,0-3.495,0,1.725,1.725,0,0,0,1.794,1.729" fill="#020202"/>
        <path id="Trazado_279653" data-name="Trazado 279653" d="M56.843,96.789a1.725,1.725,0,0,1-1.794-1.729,1.748,1.748,0,1,1,3.495,0,1.728,1.728,0,0,1-1.7,1.727" fill="#d0ddf0"/>
      </g>
    </g>
  </g>
</svg>
