<svg id="Grupo_261802" data-name="Grupo 261802" xmlns="http://www.w3.org/2000/svg" xmlns:xlink="http://www.w3.org/1999/xlink" width="58.54" height="81.226" viewBox="0 0 58.54 81.226">
  <defs>
    <clipPath id="clip-path">
      <rect id="Rectángulo_323585" data-name="Rectángulo 323585" width="58.54" height="81.226" fill="none"/>
    </clipPath>
  </defs>
  <g id="Grupo_257468" data-name="Grupo 257468" clip-path="url(#clip-path)">
    <path id="Trazado_275711" data-name="Trazado 275711" d="M22.266,80.023A3.14,3.14,0,0,1,22,80.75a1.205,1.205,0,0,1-1.068.471q-5.775.008-11.551,0a3.527,3.527,0,0,1-3.444-2.845,9.839,9.839,0,0,1-.087-1.641c-.011-.367-.009-.735.005-1.1.008-.2-.048-.277-.265-.272-.684.014-1.37-.016-2.054.01a3.121,3.121,0,0,1-1.828-.534A3.479,3.479,0,0,1,.06,72.311a4.668,4.668,0,0,1-.051-.665Q.006,41.322,0,11A3.7,3.7,0,0,1,2.829,7.331a3.493,3.493,0,0,1,.791-.063c1.6-.006,3.19,0,4.786,0h.305c0-.13,0-.236,0-.343,0-.668.007-1.337.008-2.005a4.574,4.574,0,0,1,.707-2.369A5.134,5.134,0,0,1,12.7.126a4.816,4.816,0,0,1,2.217.008,4.921,4.921,0,0,1,3.79,3.349,5.71,5.71,0,0,1,.279,1.567c.046.723.011,1.45.011,2.214h.312q14.833,0,29.666,0A3.546,3.546,0,0,1,51.723,8.4a3.034,3.034,0,0,1,.9,1.906c.047.906.05,1.813.072,2.72l.039.094c.743.005,1.486,0,2.228.019a3.514,3.514,0,0,1,2.678,1.217,3.309,3.309,0,0,1,.852,2.122c.018.6.048,1.2.048,1.794q0,29.584,0,59.168A3.579,3.579,0,0,1,56.62,80.8a2.889,2.889,0,0,1-1.39.372c-1.233.009-2.465.045-3.7.046q-12.716.006-25.431,0a1.932,1.932,0,0,1-.716-.106,1.1,1.1,0,0,1-.729-1.092q.011-.164.022-.328a1.345,1.345,0,0,1,1.4-.866q9.558.011,19.116.006,4.81,0,9.62,0A1.175,1.175,0,0,0,56.14,77.5q0-4.474,0-8.949,0-25.932,0-51.863a1.142,1.142,0,0,0-1.1-1.159c-.3-.01-.6.005-.9.009h-1.4l-.034.049c0,.067-.006.133-.006.2q0,11.055,0,22.11,0,16.833,0,33.667a4.765,4.765,0,0,1-.09,1.038,3.652,3.652,0,0,1-3.606,2.775q-20.03-.032-40.059-.013c-.217,0-.434.006-.651.01l-.043.034q0,.8,0,1.6c0,.217-.011.434-.009.651a1.181,1.181,0,0,0,1.041,1.152,4.706,4.706,0,0,0,.525.019q5.57,0,11.14,0a1.222,1.222,0,0,1,1.335,1.088l0,.1M12.582,9.637h-1.5v.226q0,2.468,0,4.936c0,.409.012.819,0,1.228a.84.84,0,0,0,.758.775.8.8,0,0,0,.8-.864q0-3.132,0-6.264l-.05-.036m-1.4-2.361h1.455c0-.634,0-1.218,0-1.8a.813.813,0,0,1,.039-.237A1.173,1.173,0,0,1,13.986,4.4,1.147,1.147,0,0,1,15,5.521C15,6,15,6.49,15,6.974c0,.09.009.179.015.291.47,0,.919-.008,1.368,0,.194,0,.268-.053.261-.256-.026-.7-.031-1.4-.057-2.093a2.16,2.16,0,0,0-.09-.582,2.654,2.654,0,0,0-1.966-1.869,2.6,2.6,0,0,0-1.675.1,2.9,2.9,0,0,0-1.823,2.825c-.016.572.024,1.146.047,1.718,0,.057.064.113.1.169M50.313,70.945c0-.133.008-.267.008-.4q0-29.534,0-59.067c0-.289-.023-.579-.049-.868a1.036,1.036,0,0,0-.773-.882,10.582,10.582,0,0,0-1.388-.071q-12.539-.005-25.079,0-3.9,0-7.792,0c-.079,0-.157.069-.236.106,0,.036,0,.071,0,.107q0,2.921-.005,5.842a4.638,4.638,0,0,1-.2,1.36,3.192,3.192,0,0,1-2.824,2.121,2.985,2.985,0,0,1-1.992-.644,2.879,2.879,0,0,1-1.26-2.3c-.032-2.022-.016-4.045-.019-6.067,0-.512,0-.517-.523-.52-1.478-.008-2.956,0-4.434-.021a1.28,1.28,0,0,0-1.385,1.4c0,.238.044.477.044.716q0,26.964,0,53.928,0,2.657.008,5.314c0,.3-.017.6-.007.9A1.206,1.206,0,0,0,3.481,73q3.069,0,6.138,0,19.755,0,39.51,0a1.131,1.131,0,0,0,1.133-.907,9.483,9.483,0,0,0,.05-1.146" transform="translate(0 0)"/>
    <path id="Trazado_275712" data-name="Trazado 275712" d="M113.174,396.173q-.011.164-.022.328h-2.389c0-.034,0-.067,0-.1.169-.278.44-.253.712-.255.332,0,.664-.042,1-.041.233,0,.466.044.7.069" transform="translate(-88.497 -316.478)" fill="#b2bdd3"/>
    <path id="Trazado_275713" data-name="Trazado 275713" d="M262.159,64.881l-.039-.094.039.094" transform="translate(-209.428 -51.763)" fill="#a4a5a5"/>
    <path id="Trazado_275714" data-name="Trazado 275714" d="M24.4,48.072c.079-.037.157-.106.236-.106q3.9-.008,7.792,0,12.539,0,25.079,0a10.585,10.585,0,0,1,1.388.071,1.036,1.036,0,0,1,.773.882c.026.288.049.578.049.868q0,29.534,0,59.067c0,.133-.005.267-.008.4a4.279,4.279,0,0,1-1.419.309q-22.671-.014-45.342-.015a3.829,3.829,0,0,1-.8-.171l-.336-.072q0-2.657-.008-5.314,0-26.964,0-53.928c0-.239-.047-.478-.044-.716a1.279,1.279,0,0,1,1.385-1.4c1.478.017,2.956.013,4.434.021.524,0,.523.008.523.52,0,2.022-.012,4.045.019,6.067a2.879,2.879,0,0,0,1.26,2.3,2.984,2.984,0,0,0,1.992.644,3.192,3.192,0,0,0,2.825-2.121,4.638,4.638,0,0,0,.2-1.36q0-2.921.005-5.842c0-.036,0-.071,0-.107M44.587,88.1l1.955,0,.107.094a1.324,1.324,0,0,1,.056.133,1.211,1.211,0,0,0,1.313.98c1.562,0,3.123-.005,4.684.006a1.235,1.235,0,0,0,1.36-1.35c-.01-3.718,0-7.436,0-11.155a2.4,2.4,0,0,0-.049-.49,1.087,1.087,0,0,0-.843-.813c-.439-.02-.878-.037-1.317-.038q-14.054,0-28.108,0-2.994,0-5.987,0A1.166,1.166,0,0,0,16.479,76.7c0,.426.015.852.014,1.278q0,5.026-.01,10.051a1.156,1.156,0,0,0,.941,1.238,2.253,2.253,0,0,0,.5.034q12.088,0,24.175,0c.334,0,.668.01,1,0a1.192,1.192,0,0,0,1.2-1.111l.138-.052.091-.005.057-.031M28.208,65.2c-.674.008-1.347.018-2.021.02a.778.778,0,0,1-.219-.067,1.156,1.156,0,0,0-.876-1.1,3.048,3.048,0,0,0-.682-.073c-1.328-.006-2.656,0-3.983,0-.894,0-1.787-.008-2.681,0a1.189,1.189,0,0,0-1.263,1.081c0,1.947,0,3.894,0,5.84a1.09,1.09,0,0,0,.72,1.1,2.139,2.139,0,0,0,.758.1q16.436.006,32.871,0c.7,0,1.4.005,2.1-.009a1.24,1.24,0,0,0,.474-.123,1.163,1.163,0,0,0,.644-1.187c0-1.855.009-3.71,0-5.565a1.1,1.1,0,0,0-.869-1.173,2.621,2.621,0,0,0-.711-.064q-3.658,0-7.315,0-7.741,0-15.483,0a1.225,1.225,0,0,0-1.337,1.149l-.133.077m-3.225,35.57v0h7.238c.092,0,.184,0,.275,0a1.221,1.221,0,0,0,1.118-1.061,1.174,1.174,0,0,0-.931-1.287,2.188,2.188,0,0,0-.471-.044q-6.824,0-13.649,0h-.852a1.2,1.2,0,0,0-.141,2.388c2.471.013,4.942.005,7.413.005M45.467,60.858v0q3.72,0,7.44,0a1.076,1.076,0,0,0,1.035-.656,1.178,1.178,0,0,0-.083-1.2,1.314,1.314,0,0,0-1.175-.524l-13.952,0c-.225,0-.452-.007-.675.013a1.21,1.21,0,0,0-1.142,1.237,1.279,1.279,0,0,0,1.114,1.134c2.48-.01,4.96,0,7.44,0m0-5.712h4.883c.835,0,1.67.005,2.5,0A1.218,1.218,0,0,0,54,54.36a1.14,1.14,0,0,0-.486-1.4,1.881,1.881,0,0,0-.874-.21q-7.137-.019-14.274-.008c-.092,0-.184,0-.275.008a1.224,1.224,0,0,0-1.169,1.342,1.256,1.256,0,0,0,1.262,1.055h7.287m.011,45.631v0h3.631c1.252,0,2.5.009,3.756,0a1.111,1.111,0,0,0,1.083-.692,1.162,1.162,0,0,0-.121-1.222,1.357,1.357,0,0,0-1.154-.48q-7.187,0-14.373,0a2.27,2.27,0,0,0-.422.039,1.208,1.208,0,0,0-.957,1.375,1.28,1.28,0,0,0,1.2.985H45.48m-20.5,5.717q3.6,0,7.19,0a3.18,3.18,0,0,0,.563-.051,1.124,1.124,0,0,0,.883-1.094,1.109,1.109,0,0,0-.834-1.154,5.477,5.477,0,0,0-1-.1c-1.519-.008-3.039,0-4.559,0q-4.819.016-9.639.04a1.15,1.15,0,0,0-1.108,1.288,1.231,1.231,0,0,0,1.138,1.069q3.683-.008,7.366,0m20.451,0h7.362a1.145,1.145,0,0,0,1.227-.981,1.094,1.094,0,0,0-.808-1.325,7.1,7.1,0,0,0-.9-.091q-6.873-.005-13.745.005a2.617,2.617,0,0,0-.767.055,1.177,1.177,0,0,0-.867,1.4,1.224,1.224,0,0,0,1.161.939c2.446-.009,4.892,0,7.337,0M24.994,92.654H22.84q-2.592,0-5.185,0a1.187,1.187,0,0,0-1.179,1.031,1.161,1.161,0,0,0,1.1,1.325c.475.025.951.03,1.427.031q6.5.01,13,.013a3.346,3.346,0,0,0,.565-.048,1.168,1.168,0,0,0,1.051-1.054,1.18,1.18,0,0,0-1.281-1.3c-2.446-.005-4.893,0-7.339,0m20.457,0q-3.606,0-7.213,0a1.927,1.927,0,0,0-.461.051,1.175,1.175,0,0,0-.844,1.353A1.151,1.151,0,0,0,38,95.011c.475.017.951.031,1.426.032q5.884.009,11.767.01c.6,0,1.2-.01,1.793-.046a1.062,1.062,0,0,0,.993-.712,1.187,1.187,0,0,0-.163-1.193,1.221,1.221,0,0,0-1.024-.448q-3.669,0-7.338,0" transform="translate(-9.402 -38.306)" fill="#edf1f4"/>
    <path id="Trazado_275715" data-name="Trazado 275715" d="M57.383,141.417c-.233-.024-.466-.068-.7-.069-.332,0-.664.038-1,.041-.272,0-.543-.023-.712.255a1.222,1.222,0,0,0-1.335-1.088q-5.57,0-11.14,0a4.708,4.708,0,0,1-.525-.019,1.181,1.181,0,0,1-1.041-1.152c0-.217.006-.434.009-.651a4.846,4.846,0,0,1,.494-.049q21.658,0,43.315,0a2.174,2.174,0,0,0,1.444-.59,2.589,2.589,0,0,0,.839-2.107q0-28.878,0-57.755a1.3,1.3,0,0,0-.2-.97c.3,0,.6-.02.9-.009a1.142,1.142,0,0,1,1.1,1.159q0,25.932,0,51.863,0,4.475,0,8.949a1.175,1.175,0,0,1-1.325,1.329q-4.81.006-9.62,0-9.558,0-19.116-.006a1.345,1.345,0,0,0-1.4.866" transform="translate(-32.705 -61.722)" fill="#a2aec4"/>
    <path id="Trazado_275716" data-name="Trazado 275716" d="M86.866,77.312a1.3,1.3,0,0,1,.2.97q0,28.878,0,57.755a2.59,2.59,0,0,1-.839,2.107,2.175,2.175,0,0,1-1.444.59q-21.657,0-43.314,0a4.835,4.835,0,0,0-.494.049q0-.8,0-1.6l.043-.034c.217,0,.434-.01.651-.01q20.03,0,40.059.013a3.652,3.652,0,0,0,3.606-2.774,4.765,4.765,0,0,0,.09-1.038q.007-16.833,0-33.666,0-11.055,0-22.11c0-.067,0-.133.005-.2l.034-.049h1.4" transform="translate(-32.736 -61.77)" fill="#919cb0"/>
    <path id="Trazado_275717" data-name="Trazado 275717" d="M12,352.966l.336.072a3.828,3.828,0,0,0,.8.171q22.671.013,45.342.015a4.285,4.285,0,0,0,1.419-.309,9.489,9.489,0,0,1-.05,1.146,1.131,1.131,0,0,1-1.133.907q-19.755.005-39.51,0-3.069,0-6.138,0a1.205,1.205,0,0,1-1.068-1.1c-.01-.3,0-.6.007-.9" transform="translate(-9.578 -281.971)" fill="#dce8ee"/>
    <path id="Trazado_275719" data-name="Trazado 275719" d="M56.668,47.975q0,3.132,0,6.264a.8.8,0,0,1-.8.864.84.84,0,0,1-.758-.775c.015-.409,0-.818,0-1.228l0-4.936v-.226h1.5l.05.036" transform="translate(-44.035 -38.302)" fill="#edf1f4"/>
    <path id="Trazado_275720" data-name="Trazado 275720" d="M74.634,48.579c0,.036,0,.071,0,.107,0-.036,0-.071,0-.107" transform="translate(-59.631 -38.813)" fill="#a4a5a5"/>
    <path id="Trazado_275721" data-name="Trazado 275721" d="M262.172,77.312l-.034.049.034-.049" transform="translate(-209.442 -61.77)" fill="#626574"/>
    <path id="Trazado_275722" data-name="Trazado 275722" d="M62.64,47.975l-.05-.036.05.036" transform="translate(-50.008 -38.302)" fill="#545557"/>
    <path id="Trazado_275723" data-name="Trazado 275723" d="M41.015,374.964l-.043.034.043-.034" transform="translate(-32.736 -299.587)" fill="#6d707b"/>
    <path id="Trazado_275724" data-name="Trazado 275724" d="M55.625,36.2h0" transform="translate(-44.443 -28.92)" fill="#202122"/>
    <path id="Trazado_275725" data-name="Trazado 275725" d="M63.027,197.553a1.192,1.192,0,0,1-1.2,1.111c-.333.013-.668,0-1,0H36.648a2.266,2.266,0,0,1-.5-.034,1.156,1.156,0,0,1-.941-1.238q0-5.026.01-10.051c0-.426-.016-.852-.014-1.278a1.165,1.165,0,0,1,1.274-1.244q2.994,0,5.987,0,14.054,0,28.108,0c.439,0,.878.018,1.317.037a1.087,1.087,0,0,1,.843.813,2.4,2.4,0,0,1,.049.49c0,3.718-.005,7.437,0,11.155a1.235,1.235,0,0,1-1.359,1.35c-1.562-.011-3.123,0-4.685-.006a1.211,1.211,0,0,1-1.313-.98,1.322,1.322,0,0,0-.056-.133l.017-.1a1.179,1.179,0,0,1,.677-1.035,2.206,2.206,0,0,1,.8-.142c1.1-.015,2.2-.006,3.3-.006l.166-.01c.031-.056.088-.113.088-.17,0-.5,0-1,0-1.5q0-3.683,0-7.366l-.051-.042-.088,0-.211,0c-.133,0-.267.008-.4.008H43.195q-2.716,0-5.431-.009l-.2.093.008.143q0,3.387-.005,6.774c0,.032,0,.064,0,.1s0,.071,0,.106c0,.081,0,.161,0,.242q0,.783-.005,1.566l.034.047.4.025.069,0,.2,0,22.684,0c.309,0,.618-.008.926.011a1.154,1.154,0,0,1,1.144,1.171c0,.032,0,.063.005.094" transform="translate(-28.128 -147.667)"/>
    <path id="Trazado_275726" data-name="Trazado 275726" d="M47.076,128.827a1.224,1.224,0,0,1,1.337-1.149q7.741,0,15.483,0,3.658,0,7.315,0a2.615,2.615,0,0,1,.711.064,1.1,1.1,0,0,1,.869,1.173c.01,1.855,0,3.71,0,5.565a1.164,1.164,0,0,1-.644,1.187,1.245,1.245,0,0,1-.474.123c-.7.014-1.4.009-2.1.009q-16.435,0-32.87,0a2.139,2.139,0,0,1-.758-.1,1.091,1.091,0,0,1-.72-1.1c0-1.947-.007-3.894,0-5.841a1.189,1.189,0,0,1,1.263-1.081c.893-.012,1.787,0,2.681,0,1.328,0,2.655-.005,3.983,0a3.026,3.026,0,0,1,.683.073,1.155,1.155,0,0,1,.876,1.1,3.257,3.257,0,0,1-.23.692,1.2,1.2,0,0,1-1.116.532q-2.755.005-5.511,0h-.268v1.5c0,.117,0,.235-.006.352,0,.066,0,.132,0,.2,0,.034,0,.069,0,.1q0,.274,0,.548c0,.018,0,.036,0,.054q0,.148,0,.3c0,.018,0,.036,0,.054-.017.106-.024.207.127.212l.368.022c.1,0,.2.007.3.007h22.7q4.159,0,8.318-.006h.055l.346,0,.055,0h.147l.153,0h.1l.111-.023c.03-.048.086-.1.085-.145,0-.456-.012-.911-.02-1.367l0-.113.008-.084,0-.058q0-.5.007-1c0-.067,0-.133,0-.2v-.351h-.425q-10.839,0-21.679,0a1.242,1.242,0,0,1-1.25-1.161l0-.1" transform="translate(-28.136 -102.01)"/>
    <path id="Trazado_275727" data-name="Trazado 275727" d="M79.816,136.381c0,.028-.005.056-.008.084a.04.04,0,0,0-.036.009l-.526,0q-15.879,0-31.758,0c-.157,0-.313-.029-.47-.044l-.042-.154v-1.5h.268q2.755,0,5.511,0a1.2,1.2,0,0,0,1.115-.532,3.248,3.248,0,0,0,.23-.692.767.767,0,0,0,.219.067c.673,0,1.347-.012,2.02-.02l.136.021a1.242,1.242,0,0,0,1.249,1.161q10.84-.008,21.679,0h.425v.351c0,.067,0,.133,0,.2q0,.5-.007,1Z" transform="translate(-37.533 -106.701)" fill="#fed35b"/>
    <path id="Trazado_275728" data-name="Trazado 275728" d="M72.4,236.279a1.154,1.154,0,0,0-1.144-1.171c-.308-.019-.617-.011-.926-.011l-22.684,0-.2,0-.069,0-.4-.025-.034-.047q0-.783.005-1.566l.039-.049c.083,0,.167,0,.25,0H79.8c0,.5.009,1,0,1.5,0,.057-.058.113-.088.17l-.166.01c-1.1,0-2.2-.009-3.3.006a2.209,2.209,0,0,0-.8.142,1.179,1.179,0,0,0-.677,1.035l-.124.006-1.954,0-.058.031-.091.005-.143-.042" transform="translate(-37.51 -186.488)" fill="#89d1f6"/>
    <path id="Trazado_275729" data-name="Trazado 275729" d="M43.65,301.216c-2.471,0-4.942.007-7.413-.005a1.2,1.2,0,0,1,.141-2.388h.852q6.824,0,13.649,0a2.176,2.176,0,0,1,.471.044,1.173,1.173,0,0,1,.931,1.287,1.221,1.221,0,0,1-1.118,1.061c-.091.006-.184,0-.275,0H43.65Z" transform="translate(-28.068 -238.752)"/>
    <path id="Trazado_275730" data-name="Trazado 275730" d="M145.408,102.72c-2.48,0-4.96-.005-7.439,0a1.278,1.278,0,0,1-1.114-1.134A1.21,1.21,0,0,1,138,100.354c.224-.02.45-.013.676-.013l13.952,0a1.314,1.314,0,0,1,1.175.524,1.179,1.179,0,0,1,.083,1.2,1.076,1.076,0,0,1-1.035.656q-3.72.008-7.44,0Z" transform="translate(-109.343 -80.168)"/>
    <path id="Trazado_275731" data-name="Trazado 275731" d="M145.418,74.2q-3.643,0-7.287,0a1.255,1.255,0,0,1-1.262-1.055,1.224,1.224,0,0,1,1.169-1.342c.091-.006.183-.008.275-.008q7.137,0,14.274.008a1.881,1.881,0,0,1,.874.21,1.14,1.14,0,0,1,.486,1.4,1.217,1.217,0,0,1-1.141.783c-.835.008-1.67,0-2.5,0h-4.883" transform="translate(-109.351 -57.36)"/>
    <path id="Trazado_275732" data-name="Trazado 275732" d="M145.423,301.217h-7.362a1.28,1.28,0,0,1-1.2-.985,1.208,1.208,0,0,1,.957-1.375,2.265,2.265,0,0,1,.422-.039q7.187,0,14.373,0a1.357,1.357,0,0,1,1.154.48,1.162,1.162,0,0,1,.121,1.222,1.112,1.112,0,0,1-1.083.692c-1.252.013-2.5,0-3.756,0h-3.631Z" transform="translate(-109.345 -238.747)"/>
    <path id="Trazado_275733" data-name="Trazado 275733" d="M43.7,329.658q-3.683,0-7.366,0a1.232,1.232,0,0,1-1.138-1.069A1.15,1.15,0,0,1,36.3,327.3q4.819-.027,9.639-.04c1.52-.005,3.039-.01,4.559,0a5.494,5.494,0,0,1,1,.1,1.109,1.109,0,0,1,.834,1.154,1.124,1.124,0,0,1-.883,1.094,3.161,3.161,0,0,1-.563.051q-3.6.005-7.19,0" transform="translate(-28.118 -261.471)"/>
    <path id="Trazado_275734" data-name="Trazado 275734" d="M145.366,329.666c-2.446,0-4.892-.005-7.337,0a1.224,1.224,0,0,1-1.161-.939,1.177,1.177,0,0,1,.867-1.4,2.63,2.63,0,0,1,.767-.055q6.872-.008,13.745-.005a7.1,7.1,0,0,1,.9.091,1.094,1.094,0,0,1,.808,1.325,1.145,1.145,0,0,1-1.227.981h-7.363" transform="translate(-109.337 -261.479)"/>
    <path id="Trazado_275735" data-name="Trazado 275735" d="M43.7,270.347c2.446,0,4.893,0,7.339,0a1.18,1.18,0,0,1,1.281,1.3,1.167,1.167,0,0,1-1.051,1.054,3.321,3.321,0,0,1-.565.048q-6.5,0-13-.013c-.476,0-.952-.006-1.427-.031a1.161,1.161,0,0,1-1.1-1.325,1.187,1.187,0,0,1,1.179-1.031q2.593-.005,5.185,0H43.7" transform="translate(-28.112 -216)"/>
    <path id="Trazado_275736" data-name="Trazado 275736" d="M145.427,270.351q3.669,0,7.338,0a1.222,1.222,0,0,1,1.024.448,1.187,1.187,0,0,1,.163,1.193,1.062,1.062,0,0,1-.993.712c-.6.036-1.2.045-1.793.045q-5.884,0-11.767-.01c-.475,0-.951-.015-1.426-.031a1.151,1.151,0,0,1-1.062-.951,1.174,1.174,0,0,1,.844-1.353,1.918,1.918,0,0,1,.461-.052q3.606,0,7.213,0" transform="translate(-109.378 -216.004)"/>
    <path id="Trazado_275737" data-name="Trazado 275737" d="M184.753,247.672l.124-.006-.017.1-.107-.094" transform="translate(-147.613 -197.879)" fill="#dce8ee"/>
    <path id="Trazado_275738" data-name="Trazado 275738" d="M173.581,247.688l.143.042-.138.052c0-.032,0-.063,0-.094" transform="translate(-138.687 -197.897)" fill="#dce8ee"/>
    <path id="Trazado_275739" data-name="Trazado 275739" d="M93.689,133.5l-.136-.021.133-.077,0,.1" transform="translate(-74.747 -106.584)" fill="#d5d8da"/>
    <path id="Trazado_275740" data-name="Trazado 275740" d="M174.744,247.749l.057-.031-.057.031" transform="translate(-139.616 -197.921)" fill="#dce8ee"/>
    <path id="Trazado_275741" data-name="Trazado 275741" d="M79.81,203.975H47.248c-.083,0-.167,0-.25,0l-.042-.192v-.106c0-.032,0-.064,0-.1l.005-6.774.027-.149.163-.086q2.716,0,5.431.009h26.48c.133,0,.267-.006.4-.008l.211,0,.088,0,.051.042q0,3.683,0,7.366" transform="translate(-37.516 -157.05)" fill="#a7daf9"/>
    <path id="Trazado_275742" data-name="Trazado 275742" d="M47.145,196.58l-.163.086-.035.006.2-.093" transform="translate(-37.51 -157.063)" fill="#587081"/>
    <path id="Trazado_275743" data-name="Trazado 275743" d="M46.961,232.452l.042.192-.039.049c0-.081,0-.161,0-.242" transform="translate(-37.521 -185.724)" fill="#919cb0"/>
    <path id="Trazado_275744" data-name="Trazado 275744" d="M208.876,196.564l-.211,0,.211,0" transform="translate(-166.718 -157.05)" fill="#587081"/>
    <path id="Trazado_275745" data-name="Trazado 275745" d="M209.15,241.741l.166-.01-.166.01" transform="translate(-167.106 -193.137)" fill="#477180"/>
    <path id="Trazado_275746" data-name="Trazado 275746" d="M46.946,197.015l.035-.006-.027.149-.008-.143" transform="translate(-37.509 -157.405)" fill="#919cb0"/>
    <path id="Trazado_275747" data-name="Trazado 275747" d="M46.955,231.449c0,.032,0,.064,0,.1,0-.032,0-.064,0-.1" transform="translate(-37.515 -184.922)" fill="#919cb0"/>
    <path id="Trazado_275748" data-name="Trazado 275748" d="M46.947,241.442l.034.047-.034-.047" transform="translate(-37.51 -192.906)" fill="#919cb0"/>
    <path id="Trazado_275749" data-name="Trazado 275749" d="M49.1,241.784l.069,0-.069,0" transform="translate(-39.233 -193.176)" fill="#477180"/>
    <path id="Trazado_275750" data-name="Trazado 275750" d="M210.2,196.622l-.051-.042.051.042" transform="translate(-167.907 -157.063)" fill="#587081"/>
    <path id="Trazado_275751" data-name="Trazado 275751" d="M46.952,147.893c.157.015.313.044.47.044q15.879,0,31.758,0l.526,0,.039.1c.008.456.019.911.02,1.366,0,.048-.056.1-.086.145l-.111.023h-.1l-.153,0h-.147l-.055,0-.346,0h-.055q-4.159,0-8.318.006H47.7c-.1,0-.2,0-.3-.007l-.368-.022c-.151-.006-.144-.106-.127-.212.006-.005.016-.011.016-.015a.2.2,0,0,0-.012-.039q0-.148,0-.3c.006-.005.017-.012.016-.016a.223.223,0,0,0-.017-.038v-.548c0-.034,0-.069,0-.1,0-.066,0-.132,0-.2l.047-.2" transform="translate(-37.467 -118.163)" fill="#ffc319"/>
    <path id="Trazado_275752" data-name="Trazado 275752" d="M47,147.281l-.047.2q0-.176.006-.352l.042.154" transform="translate(-37.51 -117.551)" fill="#be8f17"/>
    <path id="Trazado_275753" data-name="Trazado 275753" d="M47.569,156.174l.368.022-.368-.022" transform="translate(-38.006 -124.779)" fill="#be8f17"/>
    <path id="Trazado_275754" data-name="Trazado 275754" d="M210.385,141.591c0-.067,0-.134,0-.2,0,.067,0,.134,0,.2" transform="translate(-168.093 -112.968)" fill="#be8f17"/>
    <path id="Trazado_275755" data-name="Trazado 275755" d="M208.188,156.254l.153,0-.153,0" transform="translate(-166.337 -124.843)" fill="#be8f17"/>
    <path id="Trazado_275756" data-name="Trazado 275756" d="M209.434,156.169l.111-.023-.111.023" transform="translate(-167.333 -124.757)" fill="#be8f17"/>
    <path id="Trazado_275757" data-name="Trazado 275757" d="M46.953,149.862c0,.034,0,.069,0,.1,0-.034,0-.069,0-.1" transform="translate(-37.514 -119.736)" fill="#be8f17"/>
    <path id="Trazado_275758" data-name="Trazado 275758" d="M210.16,148.172l-.039-.1a.04.04,0,0,1,.036-.008l0,.113" transform="translate(-167.882 -118.294)" fill="#be8f17"/>
    <path id="Trazado_275759" data-name="Trazado 275759" d="M207.184,156.26l.055,0-.055,0" transform="translate(-165.535 -124.846)" fill="#be8f17"/>
    <path id="Trazado_275760" data-name="Trazado 275760" d="M205.19,156.281h0" transform="translate(-163.942 -124.864)" fill="#be8f17"/>
    <path id="Trazado_275761" data-name="Trazado 275761" d="M46.94,154.849a.213.213,0,0,1,.012.038s-.01.01-.016.015c0-.018,0-.036,0-.054" transform="translate(-37.502 -123.721)" fill="#be8f17"/>
    <path id="Trazado_275762" data-name="Trazado 275762" d="M46.958,153.1a.258.258,0,0,1,.017.038s-.01.01-.015.016c0-.018,0-.036,0-.054" transform="translate(-37.518 -122.326)" fill="#be8f17"/>
    <path id="Trazado_275763" data-name="Trazado 275763" d="M210.338,147.415l0-.058,0,.058" transform="translate(-168.055 -117.735)" fill="#be8f17"/>
  </g>
</svg>
