<svg xmlns="http://www.w3.org/2000/svg" xmlns:xlink="http://www.w3.org/1999/xlink" width="96" height="96" viewBox="0 0 96 96">
  <defs>
    <clipPath id="clip-path">
      <rect id="Rectángulo_325524" data-name="Rectángulo 325524" width="63.429" height="53.438" fill="none"/>
    </clipPath>
  </defs>
  <g id="Grupo_261793" data-name="Grupo 261793" transform="translate(-915.333 -424)">
    <g id="Grupo_246409" data-name="Grupo 246409" transform="translate(-436 129)">
      <circle id="Elipse_4282" data-name="Elipse 4282" cx="48" cy="48" r="48" transform="translate(1351.333 295)" fill="#fffad0"/>
    </g>
    <g id="Grupo_261735" data-name="Grupo 261735" transform="translate(931.333 443.355)">
      <g id="Grupo_261734" data-name="Grupo 261734" clip-path="url(#clip-path)">
        <path id="Trazado_279657" data-name="Trazado 279657" d="M58.42,39.546c.09.023.18.048.271.069a.887.887,0,0,1,.663.893c0,1,.006,2,0,3,0,.141.047.186.176.223a3.037,3.037,0,0,1,2.183,2.13,3.068,3.068,0,0,1,.12,1.392.371.371,0,0,0,.176.425,3,3,0,0,1,1.233,1.551A3.122,3.122,0,0,1,61,53.35a3.969,3.969,0,0,1-.93.08q-21.363.005-42.725,0c-.837,0-1.675-.013-2.512,0a1.009,1.009,0,0,1-1.1-.929,1,1,0,0,1,1.067-.944l25.377,0c.216,0,.432,0,.647-.007a8.463,8.463,0,0,0,1.19-.02,1.23,1.23,0,0,0,1.013-1.367,1.251,1.251,0,0,0-1.175-1.13l-.054,0-1.241,0h-.29l-3.2,0-.053-.006a.932.932,0,1,1,.09-1.858l1.525-.009,2.748,0,.071-.032a4.351,4.351,0,0,0-.067-.767,1.22,1.22,0,0,0-1.191-.871c-.677-.016-1.355,0-2.032,0L37,45.479a.911.911,0,0,1-.848-1.243c.093-.167.213-.319.32-.478a2.96,2.96,0,0,1,1.207-.124c.513-.009,1.026-.015,1.539-.022l.028-.018c-.01-.337-.018-.674-.029-1.011-.012-.377-.018-.755-.041-1.131-.032-.529-.064-1.059-.119-1.586-.064-.618-.134-1.236-.235-1.849-.133-.8-.274-1.61-.458-2.4a28.962,28.962,0,0,0-1.6-4.947c-.467-1.083-1-2.137-1.518-3.2a.3.3,0,0,0-.213-.154c-.831-.007-1.661,0-2.492,0-.371,0-.742-.007-1.113-.011a.98.98,0,0,1-1.013-.938.946.946,0,0,1,.865-.911l.129-.011.5-.014c.064.006.128.019.192.019q1.969,0,3.937,0c.522,0,1.045.007,1.566-.025a1.265,1.265,0,0,0,0-2.518l-.048,0c-.072,0-.143-.013-.215-.013q-1.932,0-3.864.006c-.536,0-1.071.008-1.607.011-.1,0-.209-.013-.313-.013H8.312c-.34,0-.681,0-1.02.015a1.242,1.242,0,0,0-1.094.847,1.273,1.273,0,0,0,.4,1.388,1.631,1.631,0,0,0,1.108.3H26.916a1,1,0,0,1,.7.2.975.975,0,0,1,.342.8,2.471,2.471,0,0,1-.21.5,1,1,0,0,1-.9.367q-8.008,0-16.016,0c-.314,0-.628-.007-.942,0a.271.271,0,0,0-.2.1c-.316.6-.637,1.2-.924,1.814a32.474,32.474,0,0,0-2.152,6.093c-.109.447-.234.891-.32,1.343-.119.623-.215,1.251-.306,1.879s-.179,1.282-.245,1.926c-.048.471-.063.945-.081,1.419-.02.514-.02,1.028-.043,1.541-.008.171.05.209.21.207q1.05-.011,2.1,0a.832.832,0,0,1,.807.55.892.892,0,0,1-.131.957.913.913,0,0,1-.738.334c-1.008,0-2.015-.01-3.023.01a1.73,1.73,0,0,0-.749.179,1.164,1.164,0,0,0-.637,1.088c0,.41-.008.408.394.408,1.315,0,2.63,0,3.945,0a1.226,1.226,0,0,1,.47.088.868.868,0,0,1,.54.893.9.9,0,0,1-.867.869l-.207.011q-2.03,0-4.059,0a5.909,5.909,0,0,0-.724.022,1.251,1.251,0,0,0-1.086,1.355A1.286,1.286,0,0,0,3.2,51.566c2.321-.011,4.641-.005,6.962,0a1.742,1.742,0,0,1,.478.064.92.92,0,0,1,.653.842.938.938,0,0,1-.651.906,1.313,1.313,0,0,1-.421.055c-2.335,0-4.671-.014-7.007.006A3.238,3.238,0,0,1,.188,51.373a3.132,3.132,0,0,1,1.133-3.615.517.517,0,0,0,.257-.489,5.34,5.34,0,0,1,.078-1.155,3.026,3.026,0,0,1,1.953-2.268c.121-.049.17-.1.164-.23-.011-.222-.006-.445,0-.667.01-.52.009-1.042.041-1.561.034-.559.095-1.117.153-1.675s.118-1.136.2-1.7c.07-.474.167-.945.264-1.415.126-.609.246-1.221.4-1.823.2-.759.415-1.513.647-2.263a31.492,31.492,0,0,1,1.935-4.753c.066-.133.139-.262.223-.419-.191-.025-.359-.062-.529-.068a3.127,3.127,0,0,1-.695-6.083,4.159,4.159,0,0,1,1.533-.151.356.356,0,0,0,.393-.267,8.961,8.961,0,0,1,2.816-3.723,9.378,9.378,0,0,1,3.387-1.668,8.9,8.9,0,0,1,1.808-.279.377.377,0,0,0,.21-.083,9.51,9.51,0,0,1,2.558-1.533,8.643,8.643,0,0,1,1.5-.446c.566-.117,1.147-.162,1.748-.242l1.1-6.582a9.441,9.441,0,0,1-.954-.5,3.016,3.016,0,0,1-1.319-2.1A3.138,3.138,0,0,1,23.788.046a4.8,4.8,0,0,1,.8-.039q14.916,0,29.832,0c.523,0,1.049-.023,1.569.018A2.99,2.99,0,0,1,58.706,2a3.1,3.1,0,0,1-1.934,4.118c-.137.044-.165.1-.14.24q.213,1.189.406,2.381c.11.676.2,1.356.316,2.031.107.639.239,1.275.347,1.914.1.6.181,1.2.281,1.806.09.542.2,1.08.291,1.622.084.526.143,1.056.219,1.583s.158,1.024.227,1.537c.04.3.057.6.09.9.045.414.1.828.142,1.242.022.2.035.4.048.6.028.432.056.865.08,1.3q.042.757.079,1.515c.028.583.069,1.165.076,1.748q.052,4.353.087,8.706a10.662,10.662,0,0,1-.046,1.126c-.038.383-.322.559-.653.67a1.845,1.845,0,0,1-.208.045.962.962,0,0,1-.942-1c0-.641,0-1.282,0-1.923-.036-2.692-.065-5.385-.119-8.076q-.036-1.79-.165-3.579c-.065-.92-.2-1.836-.3-2.754-.079-.7-.142-1.4-.247-2.091-.2-1.317-.421-2.631-.642-3.945-.127-.759-.275-1.515-.4-2.273-.111-.655-.206-1.312-.314-1.967s-.217-1.285-.325-1.928c-.063-.379-.12-.758-.192-1.135-.01-.054-.09-.136-.138-.136-.883,0-1.766,0-2.649,0-.052,0-.1-.007-.156-.007q-13.138,0-26.276,0c-.152,0-.2.053-.22.2-.185,1.143-.38,2.284-.571,3.426q-.205,1.23-.406,2.46c-.029.179-.056.359-.087.538-.019.11.031.147.134.168.21.041.421.087.626.148a9.27,9.27,0,0,1,3.291,1.754.754.754,0,0,0,.417.172,8.458,8.458,0,0,1,2.18.4c.179.055.359.1.539.157l.018-.045c0-.111,0-.222,0-.333q-.006-1.125-.012-2.25c0-.117.011-.235.012-.352.005-.5,0-.993.014-1.49a1.4,1.4,0,0,1,1.341-1.308l.053,0,.1-.005L33.02,9.9l.177,0,13.087,0c.353,0,.707,0,1.059.021A1.353,1.353,0,0,1,48.6,11.13a3.85,3.85,0,0,1,.024.41q0,1.9,0,3.805a.944.944,0,0,1-.64.99c-.085.026-.172.046-.258.069a.923.923,0,0,1-.93-.827,4.123,4.123,0,0,1-.007-.745q0-1.442,0-2.884c0-.063-.006-.127-.01-.2-.091,0-.168-.012-.245-.012q-6.516,0-13.032,0c-.132,0-.19.034-.188.175.009.739.011,1.478.016,2.217,0,.065-.008.13-.008.2,0,.712.021,1.425-.011,2.136a.472.472,0,0,0,.215.433c.487.434.98.866,1.427,1.339a8.069,8.069,0,0,1,1.632,2.6.272.272,0,0,0,.316.21,5.63,5.63,0,0,1,.588,0,3.036,3.036,0,0,1,2.462,1.2,2.943,2.943,0,0,1,.6,2.52c-.047.222-.107.442-.167.685h.446l2.508-.01a.871.871,0,0,0,.1.01l3.116,0c.063,0,.126-.009.189-.013.017-.356.048-.7.049-1.039,0-1.5.013-2.992-.007-4.487a.949.949,0,0,1,.944-1.036,2.125,2.125,0,0,1,.375.1.957.957,0,0,1,.529.969q0,2.9,0,5.805a2.479,2.479,0,0,1-.027.371A1.39,1.39,0,0,1,47.242,27.3c-.9.029-1.8.005-2.707.007-.713,0-1.425.008-2.138.012a.684.684,0,0,0-.078-.008l-4.887-.006a.922.922,0,0,0-.141.024.788.788,0,0,0,.038.119,33.049,33.049,0,0,1,2.209,5.415,3.875,3.875,0,0,0,.187.42l.04,0c.136,0,.273-.008.409-.009l2.378-.009c.065,0,.13.008.2.008,2.489,0,4.978,0,7.467.007a1.814,1.814,0,0,1,.688.107,1.38,1.38,0,0,1,.883,1.373l0,.045c0,1.511.006,3.021-.006,4.532A1.4,1.4,0,0,1,50.4,40.778l-.079,0c-.43,0-.861-.006-1.291-.005l-4.754,0h-.236l-.232,0-.041,0H41.61a.036.036,0,0,0-.037,0h-.547c.025.489.057.949.069,1.411.012.438.012.876,0,1.313a.308.308,0,0,0,.234.342,2.941,2.941,0,0,1,1.889,2.208,10.528,10.528,0,0,1,.087,1.324.425.425,0,0,0,.126.259c.2.179.414.338.623.505a7.43,7.43,0,0,1,.623,1.032,3.024,3.024,0,0,1,.012,2.235.929.929,0,0,0-.026.144H47.7c.065,0,.131.008.2.008H58.922c.144,0,.288,0,.431-.007.32,0,.641,0,.961.008a1.206,1.206,0,0,0,.716-.227,1.284,1.284,0,0,0,.5-1.35,1.213,1.213,0,0,0-1.12-.942c-.444-.016-.888,0-1.333,0-.13-.006-.26-.018-.39-.018-1,0-2.009-.013-3.013,0a.954.954,0,0,1-1.04-1.078.939.939,0,0,1,1.012-.789l1.507-.007h2.831c0-.149,0-.278,0-.408a1.194,1.194,0,0,0-1.069-1.228c-.687-.065-1.384-.026-2.076-.033-.43,0-.859-.005-1.288-.009a.933.933,0,0,1-.651-.267.973.973,0,0,1-.047-1.3,1.277,1.277,0,0,1,.958-.29c.539.016,1.078,0,1.617,0l.073-.034c0-.046.006-.091.006-.137,0-.98-.006-1.96,0-2.941a.855.855,0,0,1,.808-.926.467.467,0,0,0,.106-.044M34.348,21.038l.157,0,.122-.025a.224.224,0,0,0-.008-.053,7.227,7.227,0,0,0-2.612-2.881,6.786,6.786,0,0,0-3.863-1.083,1.575,1.575,0,0,1-.793-.359,2.3,2.3,0,0,0-.173-.177,6.744,6.744,0,0,0-3.558-1.628c-.492-.058-.988-.075-1.482-.111l-.118,0-.08.027a12.864,12.864,0,0,0-1.3.191,6.865,6.865,0,0,0-3.083,1.669,1.491,1.491,0,0,1-1.013.384,7.13,7.13,0,0,0-6.225,3.9c-.02.036,0,.1.007.145l.2.006c.059,0,.117-.007.176-.007h16.59q2.137,0,4.274-.008c.078,0,.156.008.233.008l2.554,0m5.844,14.111c.015.1.028.2.046.3.067.367.134.735.2,1.1.087.444.185.886.264,1.331.053.3.078.6.126.9.009.054.071.1.109.148l.041,0,.294,0,2.374-.009a.488.488,0,0,0,.058.006l6.118,0a.627.627,0,0,0,.1-.016V35.159l-.07-.033h-.237l-.313,0H47.6l-4.22,0h-.042l-.31.014-2.675-.014-.159.016M51.817,1.883c-.091,0-.183-.007-.274-.007H36.078c-3.931,0-7.863.007-11.794,0a1.307,1.307,0,0,0-1.239,1.543A1.273,1.273,0,0,0,24.24,4.4q.264.015.529.015H51.654l.052,0,.109-.014a.433.433,0,0,0,.076.014q1.912,0,3.824,0a1.341,1.341,0,0,0,.937-.332,1.266,1.266,0,0,0-.717-2.2c-1.373-.007-2.746,0-4.119,0" transform="translate(0 0)"/>
        <path id="Trazado_279658" data-name="Trazado 279658" d="M46.947,306.288l3.2,0,.242.028c.024.085.047.17.072.254a3.316,3.316,0,0,1,.2.669c.04.523.034,1.05.047,1.576-.216,0-.432.007-.647.007l-25.377,0a1,1,0,0,0-1.067.944c-.678,0-1.356,0-2.033-.007-.136,0-.271-.02-.406-.03a.92.92,0,0,0-.653-.842,1.734,1.734,0,0,0-.478-.064c-2.321,0-4.641-.01-6.962,0a1.286,1.286,0,0,1-1.345-1.159,1.252,1.252,0,0,1,1.086-1.354,5.919,5.919,0,0,1,.724-.022q2.03,0,4.059,0l.207-.011a.9.9,0,0,0,.867-.869,4.059,4.059,0,0,1,.551-.074q4.455-.007,8.911,0c2.97,0,5.941-.019,8.911.005s5.933-.1,8.9.072a.962.962,0,0,0,.943.873l.053.006" transform="translate(-9.881 -257.262)" fill="#eaa877"/>
        <path id="Trazado_279659" data-name="Trazado 279659" d="M336.674,73.147a.467.467,0,0,1-.106.044.855.855,0,0,0-.808.926c0,.98,0,1.96,0,2.941,0,.046,0,.091-.006.137l-.073.034c-.539,0-1.079.014-1.617,0a1.277,1.277,0,0,0-.958.29c-.152-.067-.129-.209-.13-.331-.016-1.13-.032-2.26-.04-3.39q-.024-3.441-.039-6.882c-.006-1.786.006-3.571,0-5.356,0-.762-.047-1.524-.075-2.286q-.036-1-.08-1.992c-.009-.221-.023-.442-.043-.662-.048-.524-.1-1.047-.152-1.57-.055-.588-.1-1.179-.164-1.765-.077-.657-.175-1.312-.27-1.967q-.128-.886-.272-1.77c-.1-.609-.211-1.215-.313-1.823-.117-.7-.227-1.4-.343-2.094-.12-.717-.245-1.433-.366-2.15q-.188-1.113-.373-2.227c-.075-.455-.145-.91-.217-1.365.883,0,1.766-.009,2.649,0,.048,0,.127.082.138.136.072.377.128.757.192,1.135.108.643.219,1.285.325,1.928s.2,1.312.314,1.967c.129.759.277,1.514.4,2.273.22,1.314.442,2.628.642,3.945.105.693.168,1.394.247,2.091.1.917.235,1.833.3,2.754q.127,1.786.165,3.579c.055,2.692.083,5.384.119,8.076.008.641,0,1.282,0,1.923a.962.962,0,0,0,.942,1q0,1.232.008,2.463" transform="translate(-278.254 -33.601)" fill="#ca7c4f"/>
        <path id="Trazado_279660" data-name="Trazado 279660" d="M54.542,189.291c-2.964-.177-5.931-.048-8.9-.073s-5.94-.005-8.911-.005-5.94,0-8.911,0a4.054,4.054,0,0,0-.551.074.868.868,0,0,0-.54-.893,1.226,1.226,0,0,0-.47-.088c-1.315-.007-2.63,0-3.945,0-.4,0-.4,0-.394-.408a1.165,1.165,0,0,1,.637-1.088,1.735,1.735,0,0,1,.749-.179c1.007-.02,2.015-.006,3.022-.01a.914.914,0,0,0,.738-.335.893.893,0,0,0,.131-.957.832.832,0,0,0-.807-.55c-.7-.005-1.4-.006-2.1,0-.16,0-.218-.036-.21-.207.023-.513.023-1.028.043-1.541.018-.473.034-.948.081-1.419.065-.644.152-1.286.245-1.926s.187-1.256.306-1.879c.086-.452.211-.9.32-1.343a32.47,32.47,0,0,1,2.152-6.093c.287-.614.608-1.213.924-1.814a.271.271,0,0,1,.2-.1c.314-.011.628,0,.942,0q8.008,0,16.016,0a1,1,0,0,0,.9-.367,2.481,2.481,0,0,0,.21-.5c.3-.026.6-.065.907-.076.371-.013.743,0,1.114,0h.439a.98.98,0,0,0,1.013.938l1.113.012a.788.788,0,0,0,.038.19c.113.24.242.472.351.714.284.629.581,1.253.837,1.894.366.918.74,1.836,1.036,2.778.325,1.035.6,2.088.831,3.149.221,1.026.374,2.068.513,3.109.114.848.177,1.7.236,2.559.039.572.03,1.147.046,1.721,0,.11.026.218.04.328-.107.159-.227.311-.32.478a.911.911,0,0,0,.848,1.243l1.157.007a.69.69,0,0,0,.059.134c.079.11.216.206.239.325.079.4.118.805.172,1.209l-1.525.009a.972.972,0,0,0-1.032.985m-13.456-7.367H51.21l.081,0a2.789,2.789,0,0,0,.557-.154,1.432,1.432,0,0,0,.789-1.4c-.006-1.255,0-2.51,0-3.766,0-.294.005-.589-.011-.882a1.38,1.38,0,0,0-1.2-1.27l-.05-.009c-.1-.006-.2-.017-.293-.017H37.428l-6.706,0h-.08l-.077,0-.165.02a2.33,2.33,0,0,0-.472.166,1.3,1.3,0,0,0-.7,1.141c-.007,1.084-.006,2.167-.006,3.251,0,.542,0,1.084.01,1.625a1.394,1.394,0,0,0,1.293,1.285l.042,0,.075,0H41.086" transform="translate(-18.472 -141.144)" fill="#f4b786"/>
        <path id="Trazado_279661" data-name="Trazado 279661" d="M182.3,39.856c.072.455.142.91.217,1.365q.184,1.114.373,2.227c.121.717.246,1.433.365,2.15.116.7.226,1.4.343,2.094.1.608.214,1.215.313,1.823q.144.883.272,1.77c.1.655.193,1.31.269,1.967.069.587.109,1.177.164,1.765.049.523.1,1.046.152,1.57.02.22.034.441.043.662q.043,1,.08,1.992c.028.762.07,1.524.075,2.286.011,1.785,0,3.571,0,5.356q.012,3.441.039,6.882c.008,1.13.024,2.26.04,3.39,0,.122-.022.264.13.331a.973.973,0,0,0,.047,1.3.934.934,0,0,0,.651.267c.43,0,.859.006,1.289.009a.372.372,0,0,0,.027.13,2.022,2.022,0,0,1,.288,1.539l-1.507.007a.939.939,0,0,0-1.012.789c-.061.15-.2.153-.324.153-.214,0-.428-.033-.642-.033q-3.165,0-6.329,0l-.114,0a4.257,4.257,0,0,0-.693-1.3c-.174-.246-.424-.442-.48-.768s-.119-.639-.206-.951a5.248,5.248,0,0,0-.964-1.883c-.264-.33-.57-.625-.853-.941a.47.47,0,0,1-.136-.228c-.039-.394-.058-.79-.084-1.186a.075.075,0,0,0,0-.028l.232,0h.236l4.754,0c.431,0,.861,0,1.291.005l.079,0a1.4,1.4,0,0,0,1.379-1.438c.012-1.511.005-3.021.006-4.532,0,0,.013-.01.012-.014a.218.218,0,0,0-.014-.031,1.38,1.38,0,0,0-.883-1.373,1.814,1.814,0,0,0-.688-.107c-2.489-.008-4.978-.006-7.467-.007-.065,0-.13-.005-.2-.008a.518.518,0,0,0-.009-.117c-.2-.647-.4-1.3-.611-1.938s-.458-1.29-.693-1.933c-.132-.363-.062-.45.2-.72.232-.237.478-.461.694-.713.126-.147.288-.3.261-.527.713,0,1.425-.011,2.138-.012.9,0,1.805.022,2.707-.007a1.39,1.39,0,0,0,1.356-1.187,2.544,2.544,0,0,0,.027-.371q0-2.9,0-5.8a.957.957,0,0,0-.529-.969,2.128,2.128,0,0,0-.374-.1c-.009-.123-.026-.246-.027-.369q0-.773,0-1.546c0-.182.019-.364.029-.545.086-.023.173-.044.258-.069a.943.943,0,0,0,.64-.99q0-1.9,0-3.805a3.932,3.932,0,0,0-.024-.41,1.353,1.353,0,0,0-1.261-1.21c-.352-.021-.706-.021-1.058-.021l-13.087,0-.177,0-.054.006-.1.005-.053,0A1.4,1.4,0,0,0,161.8,44.8c-.009.5-.009.993-.014,1.489,0,.117-.008.235-.012.352-.167-.062-.331-.136-.5-.185a9.08,9.08,0,0,0-2.014-.322c-.435-.023-.872-.029-1.308-.041-.521-.014-1.041-.032-1.562-.038a8.119,8.119,0,0,1-1.717-.12q.2-1.23.406-2.46c.191-1.142.386-2.283.571-3.426.023-.145.068-.2.22-.2q13.138,0,26.276,0c.052,0,.1,0,.157.007" transform="translate(-130.331 -33.574)" fill="#de945d"/>
        <path id="Trazado_279662" data-name="Trazado 279662" d="M226.1,79.208c-.01.182-.028.364-.029.545q-.006.773,0,1.547c0,.123.017.246.027.369a.948.948,0,0,0-.944,1.036c.021,1.5.012,2.991.007,4.487,0,.342-.031.684-.049,1.039-.063,0-.126.013-.189.013l-3.116,0a.918.918,0,0,1-.1-.011c.026-.33.062-.66.077-.991a5.994,5.994,0,0,0-1.722-4.455,6.052,6.052,0,0,0-1.827-1.254,4.018,4.018,0,0,0-1.456-.41.633.633,0,0,1-.5-.268c-.072-.1-.147-.2-.215-.3a11.413,11.413,0,0,0-1.675-2.024,12.348,12.348,0,0,0-1.946-1.5c-.23-.147-.452-.37-.74-.1,0-.739-.007-1.478-.016-2.216,0-.141.056-.175.188-.175q6.516,0,13.032,0c.077,0,.154.007.245.012,0,.076.01.139.01.2q0,1.442,0,2.884a4.123,4.123,0,0,0,.007.745.923.923,0,0,0,.93.827" transform="translate(-178.374 -62.803)" fill="#f4f7f8"/>
        <path id="Trazado_279663" data-name="Trazado 279663" d="M65.521,99.838c0-.049-.027-.109-.007-.145a7.13,7.13,0,0,1,6.225-3.9,1.491,1.491,0,0,0,1.013-.384,6.867,6.867,0,0,1,3.083-1.668,12.9,12.9,0,0,1,1.3-.191l.08-.027.118,0c.184.128.366.257.551.384.353.243.726.46,1.054.732a1.653,1.653,0,0,0,1.089.423,12.379,12.379,0,0,1,1.594.226c.309.047.594.244.926.151a1.575,1.575,0,0,0,.793.359,2.375,2.375,0,0,0,.261.276c.154.119.327.212.485.327a7.772,7.772,0,0,1,1.582,1.5,6.565,6.565,0,0,1,1.087,1.928q-2.137,0-4.274.008H65.893c-.059,0-.117,0-.176.007l-.2-.006m9.46-2.449a.914.914,0,0,0-.919-.935.974.974,0,0,0-.931.956.945.945,0,0,0,.943.9.887.887,0,0,0,.907-.919m2.682-2.7a.9.9,0,0,0-.955.888.97.97,0,0,0,.9.953.932.932,0,0,0,.95-1.009.87.87,0,0,0-.9-.832m4.463,2.7a.9.9,0,0,0-.924-.939.959.959,0,0,0-.917.952.97.97,0,0,0,.94.91c.447.009.981-.451.9-.923" transform="translate(-55.197 -78.804)" fill="#fee076"/>
        <path id="Trazado_279664" data-name="Trazado 279664" d="M175.01,14.415l-.109.014-.052,0H147.964c-.176,0-.353-.006-.529-.015a1.273,1.273,0,0,1-1.195-.985,1.307,1.307,0,0,1,1.239-1.544c3.931.012,7.863,0,11.794,0h15.464c.091,0,.183,0,.274.007,0,.192,0,.385,0,.577q0,.969,0,1.938" transform="translate(-123.195 -10.017)" fill="#cb7c4f"/>
        <path id="Trazado_279665" data-name="Trazado 279665" d="M63.237,148.946H62.8c-.371,0-.743-.01-1.114,0-.3.011-.6.049-.907.076a.976.976,0,0,0-.342-.8,1,1,0,0,0-.7-.2H40.527a1.63,1.63,0,0,1-1.108-.3,1.273,1.273,0,0,1-.4-1.388,1.242,1.242,0,0,1,1.094-.847c.339-.018.68-.015,1.02-.015H64.383c.1,0,.209.009.313.013a2.543,2.543,0,0,1,.037.308c0,.738,0,1.476,0,2.214l-.5.014-.129.011a.946.946,0,0,0-.865.911" transform="translate(-32.82 -122.579)" fill="#e9a877"/>
        <path id="Trazado_279666" data-name="Trazado 279666" d="M210.7,189.97c-.014-.109-.037-.218-.04-.328-.017-.574-.007-1.149-.046-1.721-.059-.855-.122-1.711-.236-2.56-.139-1.041-.293-2.083-.513-3.109-.228-1.061-.506-2.114-.831-3.149-.3-.942-.67-1.86-1.036-2.778-.256-.641-.553-1.265-.837-1.894-.109-.241-.238-.474-.351-.714a.78.78,0,0,1-.038-.189c.831,0,1.661-.011,2.492,0a.3.3,0,0,1,.213.154c.514,1.063,1.052,2.116,1.518,3.2a28.943,28.943,0,0,1,1.6,4.947c.184.794.325,1.6.458,2.4.1.613.171,1.231.235,1.849.055.527.087,1.057.119,1.586.023.376.029.754.041,1.131.011.337.019.674.029,1.011a.028.028,0,0,0-.028.018c-.513.007-1.026.013-1.539.023a2.96,2.96,0,0,0-1.207.124" transform="translate(-174.225 -146.212)" fill="#e9a877"/>
        <path id="Trazado_279667" data-name="Trazado 279667" d="M211.686,89.059c.289-.268.51-.044.741.1a12.34,12.34,0,0,1,1.946,1.5,11.411,11.411,0,0,1,1.675,2.024c.067.1.142.2.215.3a.632.632,0,0,0,.5.268,4.021,4.021,0,0,1,1.456.41,6.05,6.05,0,0,1,1.827,1.254,5.994,5.994,0,0,1,1.722,4.455c-.014.331-.05.661-.077.991l-2.508.01h-.446c.06-.243.12-.463.167-.685a2.943,2.943,0,0,0-.6-2.52,3.036,3.036,0,0,0-2.462-1.2,5.589,5.589,0,0,0-.588,0,.273.273,0,0,1-.316-.21,8.066,8.066,0,0,0-1.632-2.6c-.448-.473-.94-.9-1.427-1.339a.473.473,0,0,1-.215-.433c.031-.711.01-1.424.01-2.136,0-.065.006-.13.009-.2" transform="translate(-178.353 -74.937)" fill="#e7ecf1"/>
        <path id="Trazado_279668" data-name="Trazado 279668" d="M300.794,304.8q3.165,0,6.33,0c.214,0,.428.032.642.033.125,0,.263,0,.324-.153a.954.954,0,0,0,1.04,1.078c1-.016,2.009,0,3.014,0,.13,0,.26.012.39.018-.005.075-.045.177-.011.221a1.9,1.9,0,0,1,.278,1.115c.029.39.006.784.006,1.177-.144,0-.288.007-.431.007H301.345c-.065,0-.13,0-.2-.008,0-.247-.007-.494,0-.741a6.684,6.684,0,0,0-.264-2.229,3.916,3.916,0,0,1-.092-.514" transform="translate(-253.453 -256.728)" fill="#cb7c4f"/>
        <path id="Trazado_279669" data-name="Trazado 279669" d="M280.134,223.186h.079l.07.033v3.751a.646.646,0,0,1-.1.015l-6.118,0a.487.487,0,0,1-.058-.006c-.039-.308-.069-.618-.119-.925-.116-.716-.239-1.432-.363-2.147-.041-.235-.1-.469-.143-.7l.31-.014h.042l4.22,0h1.707l.313,0h.158" transform="translate(-230.358 -188.06)" fill="#ffe076"/>
        <path id="Trazado_279670" data-name="Trazado 279670" d="M263.454,259.146c.026.4.046.791.084,1.186a.47.47,0,0,0,.136.228c.282.315.589.611.853.941a5.25,5.25,0,0,1,.964,1.883c.087.312.15.631.206.951s.307.521.48.768a4.263,4.263,0,0,1,.693,1.3,29.959,29.959,0,0,0-3.172.079c-.209-.167-.425-.326-.623-.505a.425.425,0,0,1-.126-.259,10.5,10.5,0,0,0-.086-1.324,2.941,2.941,0,0,0-1.889-2.208.308.308,0,0,1-.234-.342c.01-.438.01-.876,0-1.313-.013-.461-.045-.922-.069-1.411h2.745l.04.031" transform="translate(-219.642 -218.334)" fill="#ca7c4f"/>
        <path id="Trazado_279671" data-name="Trazado 279671" d="M242.052,173.506c.027.231-.135.38-.261.527-.215.251-.462.475-.694.713-.265.271-.334.358-.2.72.234.643.474,1.285.692,1.934s.41,1.291.611,1.938a.518.518,0,0,1,.009.117l-2.378.009c-.136,0-.273.006-.409.009l-.04,0a3.9,3.9,0,0,1-.187-.42,33.05,33.05,0,0,0-2.209-5.415.79.79,0,0,1-.038-.119.919.919,0,0,1,.141-.024l4.887.006a.69.69,0,0,1,.078.008" transform="translate(-199.654 -146.186)" fill="#ca7c4f"/>
        <path id="Trazado_279672" data-name="Trazado 279672" d="M202.572,147.987c0-.738,0-1.476,0-2.214a2.54,2.54,0,0,0-.037-.308c.536,0,1.071-.01,1.607-.011q1.932-.005,3.864-.007c.072,0,.144.008.215.013l.048,0a1.265,1.265,0,0,1,0,2.518c-.52.031-1.044.024-1.566.025q-1.968,0-3.937,0c-.064,0-.128-.012-.193-.019" transform="translate(-170.659 -122.555)" fill="#de945d"/>
        <path id="Trazado_279673" data-name="Trazado 279673" d="M154.186,78.5a8.118,8.118,0,0,0,1.717.12c.521.007,1.042.024,1.562.038.436.012.872.018,1.308.041a9.08,9.08,0,0,1,2.014.322c.171.049.334.123.5.185q.006,1.125.012,2.25c0,.111,0,.222,0,.333l-.018.045c-.18-.052-.36-.1-.539-.157a8.444,8.444,0,0,0-2.18-.4.756.756,0,0,1-.417-.172,9.269,9.269,0,0,0-3.291-1.754c-.205-.061-.416-.107-.626-.148-.1-.02-.153-.058-.134-.168.031-.179.058-.358.087-.538" transform="translate(-129.843 -66.149)" fill="#ca7c4f"/>
        <path id="Trazado_279674" data-name="Trazado 279674" d="M329.221,14.455q0-.969,0-1.938c0-.192,0-.385,0-.577,1.373,0,2.746-.009,4.119,0a1.266,1.266,0,0,1,.717,2.2,1.343,1.343,0,0,1-.937.332q-1.912,0-3.825,0a.417.417,0,0,1-.076-.014" transform="translate(-277.406 -10.056)" fill="#bf7048"/>
        <path id="Trazado_279675" data-name="Trazado 279675" d="M258.209,223.242c.048.234.1.467.143.7.124.715.248,1.43.363,2.147.05.307.08.616.119.925l-2.374.009-.294,0-.041,0c-.038-.049-.1-.094-.109-.148-.048-.3-.073-.6-.126-.9-.079-.445-.178-.887-.264-1.331-.071-.367-.138-.734-.2-1.1-.018-.1-.031-.2-.046-.3l.159-.016,2.675.014" transform="translate(-215.182 -188.095)" fill="#fed05a"/>
        <path id="Trazado_279676" data-name="Trazado 279676" d="M182.25,112a6.562,6.562,0,0,0-1.087-1.928,7.768,7.768,0,0,0-1.582-1.5c-.158-.114-.331-.208-.485-.327a2.35,2.35,0,0,1-.261-.276,6.788,6.788,0,0,1,3.863,1.083,7.228,7.228,0,0,1,2.612,2.881.234.234,0,0,1,.008.053l-.122.025-.157,0-2.554,0c-.078,0-.156-.006-.233-.008" transform="translate(-150.689 -90.97)" fill="#fdcf5a"/>
        <path id="Trazado_279677" data-name="Trazado 279677" d="M279.912,305.479a29.968,29.968,0,0,1,3.172-.079l.114,0a3.891,3.891,0,0,0,.092.514,6.683,6.683,0,0,1,.264,2.229c-.007.247,0,.494,0,.741h-3.033a.95.95,0,0,1,.026-.144,3.022,3.022,0,0,0-.012-2.234,7.4,7.4,0,0,0-.623-1.032" transform="translate(-235.858 -257.332)" fill="#bf7048"/>
        <path id="Trazado_279678" data-name="Trazado 279678" d="M257.71,314.05c-.013-.526-.008-1.052-.047-1.576a3.3,3.3,0,0,0-.195-.669c-.025-.084-.048-.169-.072-.254l.048-.027,1.242,0,.053,0a1.251,1.251,0,0,1,1.175,1.13,1.23,1.23,0,0,1-1.013,1.367,8.444,8.444,0,0,1-1.19.02" transform="translate(-216.885 -262.494)" fill="#de945d"/>
        <path id="Trazado_279679" data-name="Trazado 279679" d="M375.528,314.1c0-.392.023-.786-.006-1.177a1.9,1.9,0,0,0-.278-1.115c-.034-.044.005-.146.01-.221.444,0,.889-.015,1.333,0a1.213,1.213,0,0,1,1.12.942,1.284,1.284,0,0,1-.5,1.35,1.206,1.206,0,0,1-.716.227c-.32-.006-.641-.005-.961-.008" transform="translate(-316.174 -262.542)" fill="#bf7048"/>
        <path id="Trazado_279680" data-name="Trazado 279680" d="M242.905,290.641c-.054-.4-.093-.81-.172-1.209-.023-.119-.16-.215-.239-.325a.7.7,0,0,1-.06-.134c.677,0,1.355-.015,2.032,0a1.22,1.22,0,0,1,1.191.871,4.352,4.352,0,0,1,.067.767l-.071.032-2.748,0" transform="translate(-204.279 -243.487)" fill="#e9a877"/>
        <path id="Trazado_279681" data-name="Trazado 279681" d="M361.468,290.661a2.023,2.023,0,0,0-.288-1.539.375.375,0,0,1-.027-.13c.693.007,1.389-.032,2.076.033a1.194,1.194,0,0,1,1.069,1.228c0,.129,0,.259,0,.408Z" transform="translate(-304.313 -243.505)" fill="#ca7c4f"/>
        <path id="Trazado_279682" data-name="Trazado 279682" d="M145.886,95.439c-.332.093-.617-.1-.926-.151a12.379,12.379,0,0,0-1.594-.226,1.652,1.652,0,0,1-1.089-.423c-.329-.272-.7-.489-1.054-.732-.184-.127-.367-.256-.55-.384.494.036.99.053,1.482.111a6.745,6.745,0,0,1,3.558,1.628,2.329,2.329,0,0,1,.173.177" transform="translate(-118.533 -78.804)" fill="#fdcf5a"/>
        <path id="Trazado_279683" data-name="Trazado 279683" d="M313.592,223.19l-.313,0,.313,0" transform="translate(-263.973 -188.063)" fill="#c1895c"/>
        <path id="Trazado_279684" data-name="Trazado 279684" d="M256.148,311.518l-.048.027-.242-.028h.29" transform="translate(-215.589 -262.488)" fill="#734d31"/>
        <path id="Trazado_279685" data-name="Trazado 279685" d="M49.3,311.439l-.207.011.207-.011" transform="translate(-41.364 -262.423)" fill="#734d31"/>
        <path id="Trazado_279686" data-name="Trazado 279686" d="M65.6,133.648l.2.006-.2-.006" transform="translate(-55.275 -112.614)" fill="#26200d"/>
        <path id="Trazado_279687" data-name="Trazado 279687" d="M255.534,223.227l-.159.016.159-.016" transform="translate(-215.182 -188.094)" fill="#c1895c"/>
        <path id="Trazado_279688" data-name="Trazado 279688" d="M218.245,133.661l.157,0-.157,0" transform="translate(-183.896 -112.623)" fill="#26200d"/>
        <path id="Trazado_279689" data-name="Trazado 279689" d="M198.757,161.686l.129-.011-.129.011" transform="translate(-167.475 -136.23)" fill="#734d31"/>
        <path id="Trazado_279690" data-name="Trazado 279690" d="M280.929,259.106h0" transform="translate(-236.648 -218.326)" fill="#bf7048"/>
        <path id="Trazado_279691" data-name="Trazado 279691" d="M319.839,259.094l-.079,0,.079,0" transform="translate(-269.434 -218.316)" fill="#bf7048"/>
        <path id="Trazado_279692" data-name="Trazado 279692" d="M364.9,277.013l.073-.034-.073.034" transform="translate(-307.471 -233.386)" fill="#88623e"/>
        <path id="Trazado_279693" data-name="Trazado 279693" d="M276.947,259.12h0" transform="translate(-233.296 -218.338)" fill="#bf7048"/>
        <path id="Trazado_279694" data-name="Trazado 279694" d="M262.982,259.126h0" transform="translate(-221.53 -218.343)" fill="#bf7048"/>
        <path id="Trazado_279695" data-name="Trazado 279695" d="M316.84,223.219l-.07-.033.07.033" transform="translate(-266.915 -188.06)" fill="#c1895c"/>
        <path id="Trazado_279696" data-name="Trazado 279696" d="M262.887,299.459l.071-.032-.071.032" transform="translate(-221.512 -252.301)" fill="#c1895c"/>
        <path id="Trazado_279697" data-name="Trazado 279697" d="M139.493,93.542l-.08.027.08-.027" transform="translate(-117.471 -78.82)" fill="#fdcf5a"/>
        <path id="Trazado_279698" data-name="Trazado 279698" d="M199.78,99.455l.018-.045-.018.045" transform="translate(-168.337 -83.764)" fill="#6e4226"/>
        <path id="Trazado_279699" data-name="Trazado 279699" d="M264.182,259.09h-.037a.036.036,0,0,1,.037,0" transform="translate(-222.572 -218.309)" fill="#bf7048"/>
        <path id="Trazado_279700" data-name="Trazado 279700" d="M278.152,259.146l-.04-.031.041,0a.08.08,0,0,1,0,.028" transform="translate(-234.341 -218.334)" fill="#bf7048"/>
        <path id="Trazado_279701" data-name="Trazado 279701" d="M279.89,259.111h0" transform="translate(-235.805 -218.33)" fill="#bf7048"/>
        <path id="Trazado_279702" data-name="Trazado 279702" d="M260.143,247.355l.041,0-.041,0" transform="translate(-219.2 -208.425)" fill="#372b1d"/>
        <path id="Trazado_279703" data-name="Trazado 279703" d="M249.174,277.006a.029.029,0,0,1,.028-.018l-.028.018" transform="translate(-209.957 -233.394)" fill="#c1895c"/>
        <path id="Trazado_279704" data-name="Trazado 279704" d="M316.059,223.189h0" transform="translate(-266.283 -188.062)" fill="#c1895c"/>
        <path id="Trazado_279705" data-name="Trazado 279705" d="M275.4,223.224h0" transform="translate(-232.018 -188.092)" fill="#c1895c"/>
        <path id="Trazado_279706" data-name="Trazado 279706" d="M238.712,145.53l-.048,0,.048,0" transform="translate(-201.102 -122.622)" fill="#734d31"/>
        <path id="Trazado_279707" data-name="Trazado 279707" d="M329.046,220.874a.185.185,0,0,1,.014.031s-.008.009-.012.014l0-.045" transform="translate(-277.259 -186.111)" fill="#88623e"/>
        <path id="Trazado_279708" data-name="Trazado 279708" d="M209.462,62.9l.054-.006-.054.006" transform="translate(-176.496 -52.997)" fill="#6e4226"/>
        <path id="Trazado_279709" data-name="Trazado 279709" d="M252.414,211.474l.04,0-.04,0" transform="translate(-212.688 -178.191)" fill="#26200d"/>
        <path id="Trazado_279710" data-name="Trazado 279710" d="M235.22,311.474l-.053-.006.053.006" transform="translate(-198.155 -262.447)" fill="#734d31"/>
        <path id="Trazado_279711" data-name="Trazado 279711" d="M208.479,62.969l.053,0-.053,0" transform="translate(-175.667 -53.055)" fill="#6e4226"/>
        <path id="Trazado_279712" data-name="Trazado 279712" d="M328.2,28.035l.052,0-.052,0" transform="translate(-276.546 -23.621)" fill="#6e4226"/>
        <path id="Trazado_279713" data-name="Trazado 279713" d="M265.641,311.557l-.053,0,.053,0" transform="translate(-223.787 -262.519)" fill="#734d31"/>
        <path id="Trazado_279714" data-name="Trazado 279714" d="M86.234,218.951H69.708l-.076,0-.042,0a1.394,1.394,0,0,1-1.293-1.285c-.013-.542-.01-1.083-.01-1.625,0-1.084,0-2.167.006-3.251a1.3,1.3,0,0,1,.7-1.141,2.333,2.333,0,0,1,.472-.166l.165-.02.077,0h.08l6.706,0H90.144c.1,0,.2.011.293.017l.05.009a1.38,1.38,0,0,1,1.2,1.27c.016.293.011.588.011.882,0,1.255,0,2.511,0,3.766a1.432,1.432,0,0,1-.789,1.4,2.787,2.787,0,0,1-.557.154l-.081,0H86.234m-16.1-5.548,0,.047v3.634h19.7V213.3c-.078,0-.142-.01-.206-.01H70.379a.416.416,0,0,0-.155,0c-.039.017-.062.071-.092.109" transform="translate(-57.54 -178.171)"/>
        <path id="Trazado_279715" data-name="Trazado 279715" d="M77.313,259.115h0" transform="translate(-65.145 -218.333)" fill="#c1895c"/>
        <path id="Trazado_279716" data-name="Trazado 279716" d="M203.271,259.111h0" transform="translate(-171.279 -218.33)" fill="#c1895c"/>
        <path id="Trazado_279717" data-name="Trazado 279717" d="M75.941,211.5l-.165.02.165-.02" transform="translate(-63.85 -178.216)" fill="#372b1d"/>
        <path id="Trazado_279718" data-name="Trazado 279718" d="M108.24,259.109h0" transform="translate(-91.205 -218.329)" fill="#c1895c"/>
        <path id="Trazado_279719" data-name="Trazado 279719" d="M81.3,259.111h0" transform="translate(-68.506 -218.33)" fill="#c1895c"/>
        <path id="Trazado_279720" data-name="Trazado 279720" d="M208.009,259.092l.081-.005-.081.005" transform="translate(-175.271 -218.31)" fill="#c1895c"/>
        <path id="Trazado_279721" data-name="Trazado 279721" d="M77.4,211.467h0" transform="translate(-65.149 -178.185)" fill="#372b1d"/>
        <path id="Trazado_279722" data-name="Trazado 279722" d="M110.235,259.111h0" transform="translate(-92.886 -218.33)" fill="#c1895c"/>
        <path id="Trazado_279723" data-name="Trazado 279723" d="M145.4,259.111h0" transform="translate(-122.517 -218.33)" fill="#c1895c"/>
        <path id="Trazado_279724" data-name="Trazado 279724" d="M132.431,259.111h0" transform="translate(-111.588 -218.33)" fill="#c1895c"/>
        <path id="Trazado_279725" data-name="Trazado 279725" d="M93.522,259.111h0" transform="translate(-78.803 -218.33)" fill="#c1895c"/>
        <path id="Trazado_279726" data-name="Trazado 279726" d="M94.519,259.111h0" transform="translate(-79.643 -218.33)" fill="#c1895c"/>
        <path id="Trazado_279727" data-name="Trazado 279727" d="M95.517,259.111h0" transform="translate(-80.484 -218.33)" fill="#c1895c"/>
        <path id="Trazado_279728" data-name="Trazado 279728" d="M96.515,259.111h0" transform="translate(-81.325 -218.33)" fill="#c1895c"/>
        <path id="Trazado_279729" data-name="Trazado 279729" d="M97.512,259.111h0" transform="translate(-82.165 -218.33)" fill="#c1895c"/>
        <path id="Trazado_279730" data-name="Trazado 279730" d="M98.51,259.111h0" transform="translate(-83.006 -218.33)" fill="#c1895c"/>
        <path id="Trazado_279731" data-name="Trazado 279731" d="M99.508,259.111h0" transform="translate(-83.847 -218.33)" fill="#c1895c"/>
        <path id="Trazado_279732" data-name="Trazado 279732" d="M100.5,259.111h0" transform="translate(-84.687 -218.33)" fill="#c1895c"/>
        <path id="Trazado_279733" data-name="Trazado 279733" d="M101.5,259.111h0" transform="translate(-85.528 -218.33)" fill="#c1895c"/>
        <path id="Trazado_279734" data-name="Trazado 279734" d="M102.5,259.111h0" transform="translate(-86.369 -218.33)" fill="#c1895c"/>
        <path id="Trazado_279735" data-name="Trazado 279735" d="M103.5,259.111h0" transform="translate(-87.209 -218.33)" fill="#c1895c"/>
        <path id="Trazado_279736" data-name="Trazado 279736" d="M104.5,259.111h0" transform="translate(-88.05 -218.33)" fill="#c1895c"/>
        <path id="Trazado_279737" data-name="Trazado 279737" d="M105.494,259.111h0" transform="translate(-88.891 -218.33)" fill="#c1895c"/>
        <path id="Trazado_279738" data-name="Trazado 279738" d="M106.492,259.111h0" transform="translate(-89.732 -218.33)" fill="#c1895c"/>
        <path id="Trazado_279739" data-name="Trazado 279739" d="M107.489,259.111h0" transform="translate(-90.572 -218.33)" fill="#c1895c"/>
        <path id="Trazado_279740" data-name="Trazado 279740" d="M91.526,259.111h0" transform="translate(-77.121 -218.33)" fill="#c1895c"/>
        <path id="Trazado_279741" data-name="Trazado 279741" d="M109.485,259.111h0" transform="translate(-92.254 -218.33)" fill="#c1895c"/>
        <path id="Trazado_279742" data-name="Trazado 279742" d="M90.529,259.111h0" transform="translate(-76.281 -218.33)" fill="#c1895c"/>
        <path id="Trazado_279743" data-name="Trazado 279743" d="M111.48,259.111h0" transform="translate(-93.935 -218.33)" fill="#c1895c"/>
        <path id="Trazado_279744" data-name="Trazado 279744" d="M112.478,259.111h0" transform="translate(-94.776 -218.33)" fill="#c1895c"/>
        <path id="Trazado_279745" data-name="Trazado 279745" d="M113.475,259.111h0" transform="translate(-95.616 -218.33)" fill="#c1895c"/>
        <path id="Trazado_279746" data-name="Trazado 279746" d="M114.473,259.111h0" transform="translate(-96.457 -218.33)" fill="#c1895c"/>
        <path id="Trazado_279747" data-name="Trazado 279747" d="M115.471,259.111h0" transform="translate(-97.297 -218.33)" fill="#c1895c"/>
        <path id="Trazado_279748" data-name="Trazado 279748" d="M116.468,259.111h0" transform="translate(-98.138 -218.33)" fill="#c1895c"/>
        <path id="Trazado_279749" data-name="Trazado 279749" d="M117.466,259.111h0" transform="translate(-98.978 -218.33)" fill="#c1895c"/>
        <path id="Trazado_279750" data-name="Trazado 279750" d="M118.464,259.111h0" transform="translate(-99.819 -218.33)" fill="#c1895c"/>
        <path id="Trazado_279751" data-name="Trazado 279751" d="M119.461,259.111h0" transform="translate(-100.659 -218.33)" fill="#c1895c"/>
        <path id="Trazado_279752" data-name="Trazado 279752" d="M120.459,259.111h0" transform="translate(-101.5 -218.33)" fill="#c1895c"/>
        <path id="Trazado_279753" data-name="Trazado 279753" d="M121.457,259.111h0" transform="translate(-102.341 -218.33)" fill="#c1895c"/>
        <path id="Trazado_279754" data-name="Trazado 279754" d="M122.454,259.111h0" transform="translate(-103.181 -218.33)" fill="#c1895c"/>
        <path id="Trazado_279755" data-name="Trazado 279755" d="M123.452,259.111h0" transform="translate(-104.022 -218.33)" fill="#c1895c"/>
        <path id="Trazado_279756" data-name="Trazado 279756" d="M124.45,259.111h0" transform="translate(-104.863 -218.33)" fill="#c1895c"/>
        <path id="Trazado_279757" data-name="Trazado 279757" d="M125.448,259.111h0" transform="translate(-105.704 -218.33)" fill="#c1895c"/>
        <path id="Trazado_279758" data-name="Trazado 279758" d="M126.445,259.111h0" transform="translate(-106.544 -218.33)" fill="#c1895c"/>
        <path id="Trazado_279759" data-name="Trazado 279759" d="M127.443,259.111h0" transform="translate(-107.385 -218.33)" fill="#c1895c"/>
        <path id="Trazado_279760" data-name="Trazado 279760" d="M128.441,259.111h0" transform="translate(-108.226 -218.33)" fill="#c1895c"/>
        <path id="Trazado_279761" data-name="Trazado 279761" d="M129.438,259.111h0" transform="translate(-109.066 -218.33)" fill="#c1895c"/>
        <path id="Trazado_279762" data-name="Trazado 279762" d="M130.436,259.111h0" transform="translate(-109.907 -218.33)" fill="#c1895c"/>
        <path id="Trazado_279763" data-name="Trazado 279763" d="M89.531,259.111h0" transform="translate(-75.44 -218.33)" fill="#c1895c"/>
        <path id="Trazado_279764" data-name="Trazado 279764" d="M88.533,259.111h0" transform="translate(-74.599 -218.33)" fill="#c1895c"/>
        <path id="Trazado_279765" data-name="Trazado 279765" d="M133.429,259.111h0" transform="translate(-112.429 -218.33)" fill="#c1895c"/>
        <path id="Trazado_279766" data-name="Trazado 279766" d="M134.427,259.111h0" transform="translate(-113.27 -218.33)" fill="#c1895c"/>
        <path id="Trazado_279767" data-name="Trazado 279767" d="M135.424,259.111h0" transform="translate(-114.11 -218.33)" fill="#c1895c"/>
        <path id="Trazado_279768" data-name="Trazado 279768" d="M136.422,259.111h0" transform="translate(-114.951 -218.33)" fill="#c1895c"/>
        <path id="Trazado_279769" data-name="Trazado 279769" d="M137.42,259.111h0" transform="translate(-115.792 -218.33)" fill="#c1895c"/>
        <path id="Trazado_279770" data-name="Trazado 279770" d="M138.417,259.111h0" transform="translate(-116.632 -218.33)" fill="#c1895c"/>
        <path id="Trazado_279771" data-name="Trazado 279771" d="M139.415,259.111h0" transform="translate(-117.473 -218.33)" fill="#c1895c"/>
        <path id="Trazado_279772" data-name="Trazado 279772" d="M140.413,259.111h0" transform="translate(-118.314 -218.33)" fill="#c1895c"/>
        <path id="Trazado_279773" data-name="Trazado 279773" d="M141.41,259.111h0" transform="translate(-119.154 -218.33)" fill="#c1895c"/>
        <path id="Trazado_279774" data-name="Trazado 279774" d="M142.408,259.111h0" transform="translate(-119.995 -218.33)" fill="#c1895c"/>
        <path id="Trazado_279775" data-name="Trazado 279775" d="M143.406,259.111h0" transform="translate(-120.836 -218.33)" fill="#c1895c"/>
        <path id="Trazado_279776" data-name="Trazado 279776" d="M144.4,259.111h0" transform="translate(-121.677 -218.33)" fill="#c1895c"/>
        <path id="Trazado_279777" data-name="Trazado 279777" d="M87.535,259.111h0" transform="translate(-73.758 -218.33)" fill="#c1895c"/>
        <path id="Trazado_279778" data-name="Trazado 279778" d="M146.4,259.111h0" transform="translate(-123.358 -218.33)" fill="#c1895c"/>
        <path id="Trazado_279779" data-name="Trazado 279779" d="M147.4,259.111h0" transform="translate(-124.198 -218.33)" fill="#c1895c"/>
        <path id="Trazado_279780" data-name="Trazado 279780" d="M148.394,259.111h0" transform="translate(-125.039 -218.33)" fill="#c1895c"/>
        <path id="Trazado_279781" data-name="Trazado 279781" d="M149.392,259.111h0" transform="translate(-125.88 -218.33)" fill="#c1895c"/>
        <path id="Trazado_279782" data-name="Trazado 279782" d="M150.39,259.111h0" transform="translate(-126.721 -218.33)" fill="#c1895c"/>
        <path id="Trazado_279783" data-name="Trazado 279783" d="M151.387,259.111h0" transform="translate(-127.561 -218.33)" fill="#c1895c"/>
        <path id="Trazado_279784" data-name="Trazado 279784" d="M152.385,259.111h0" transform="translate(-128.402 -218.33)" fill="#c1895c"/>
        <path id="Trazado_279785" data-name="Trazado 279785" d="M153.383,259.111h0" transform="translate(-129.243 -218.33)" fill="#c1895c"/>
        <path id="Trazado_279786" data-name="Trazado 279786" d="M154.38,259.111h0" transform="translate(-130.083 -218.33)" fill="#c1895c"/>
        <path id="Trazado_279787" data-name="Trazado 279787" d="M155.378,259.111h0" transform="translate(-130.924 -218.33)" fill="#c1895c"/>
        <path id="Trazado_279788" data-name="Trazado 279788" d="M156.376,259.111h0" transform="translate(-131.765 -218.33)" fill="#c1895c"/>
        <path id="Trazado_279789" data-name="Trazado 279789" d="M157.373,259.111h0" transform="translate(-132.605 -218.33)" fill="#c1895c"/>
        <path id="Trazado_279790" data-name="Trazado 279790" d="M158.371,259.111h0" transform="translate(-133.446 -218.33)" fill="#c1895c"/>
        <path id="Trazado_279791" data-name="Trazado 279791" d="M159.369,259.111h0" transform="translate(-134.287 -218.33)" fill="#c1895c"/>
        <path id="Trazado_279792" data-name="Trazado 279792" d="M92.524,259.111h0" transform="translate(-77.962 -218.33)" fill="#c1895c"/>
        <path id="Trazado_279793" data-name="Trazado 279793" d="M161.364,259.111h0" transform="translate(-135.968 -218.33)" fill="#c1895c"/>
        <path id="Trazado_279794" data-name="Trazado 279794" d="M162.362,259.111h0" transform="translate(-136.808 -218.33)" fill="#c1895c"/>
        <path id="Trazado_279795" data-name="Trazado 279795" d="M163.359,259.111h0" transform="translate(-137.649 -218.33)" fill="#c1895c"/>
        <path id="Trazado_279796" data-name="Trazado 279796" d="M164.357,259.111h0" transform="translate(-138.489 -218.33)" fill="#c1895c"/>
        <path id="Trazado_279797" data-name="Trazado 279797" d="M165.355,259.111h0" transform="translate(-139.33 -218.33)" fill="#c1895c"/>
        <path id="Trazado_279798" data-name="Trazado 279798" d="M166.353,259.111h0" transform="translate(-140.171 -218.33)" fill="#c1895c"/>
        <path id="Trazado_279799" data-name="Trazado 279799" d="M167.35,259.111h0" transform="translate(-141.011 -218.33)" fill="#c1895c"/>
        <path id="Trazado_279800" data-name="Trazado 279800" d="M168.348,259.111h0" transform="translate(-141.852 -218.33)" fill="#c1895c"/>
        <path id="Trazado_279801" data-name="Trazado 279801" d="M169.346,259.111h0" transform="translate(-142.693 -218.33)" fill="#c1895c"/>
        <path id="Trazado_279802" data-name="Trazado 279802" d="M170.343,259.111h0" transform="translate(-143.533 -218.33)" fill="#c1895c"/>
        <path id="Trazado_279803" data-name="Trazado 279803" d="M171.341,259.111h0" transform="translate(-144.374 -218.33)" fill="#c1895c"/>
        <path id="Trazado_279804" data-name="Trazado 279804" d="M172.339,259.111h0" transform="translate(-145.215 -218.33)" fill="#c1895c"/>
        <path id="Trazado_279805" data-name="Trazado 279805" d="M173.336,259.111h0" transform="translate(-146.055 -218.33)" fill="#c1895c"/>
        <path id="Trazado_279806" data-name="Trazado 279806" d="M174.334,259.111h0" transform="translate(-146.896 -218.33)" fill="#c1895c"/>
        <path id="Trazado_279807" data-name="Trazado 279807" d="M175.332,259.111h0" transform="translate(-147.737 -218.33)" fill="#c1895c"/>
        <path id="Trazado_279808" data-name="Trazado 279808" d="M176.329,259.111h0" transform="translate(-148.577 -218.33)" fill="#c1895c"/>
        <path id="Trazado_279809" data-name="Trazado 279809" d="M177.327,259.111h0" transform="translate(-149.418 -218.33)" fill="#c1895c"/>
        <path id="Trazado_279810" data-name="Trazado 279810" d="M178.325,259.111h0" transform="translate(-150.259 -218.33)" fill="#c1895c"/>
        <path id="Trazado_279811" data-name="Trazado 279811" d="M179.322,259.111h0" transform="translate(-151.099 -218.33)" fill="#c1895c"/>
        <path id="Trazado_279812" data-name="Trazado 279812" d="M180.32,259.111h0" transform="translate(-151.94 -218.33)" fill="#c1895c"/>
        <path id="Trazado_279813" data-name="Trazado 279813" d="M181.318,259.111h0" transform="translate(-152.781 -218.33)" fill="#c1895c"/>
        <path id="Trazado_279814" data-name="Trazado 279814" d="M182.316,259.111h0" transform="translate(-153.622 -218.33)" fill="#c1895c"/>
        <path id="Trazado_279815" data-name="Trazado 279815" d="M183.313,259.111h0" transform="translate(-154.462 -218.33)" fill="#c1895c"/>
        <path id="Trazado_279816" data-name="Trazado 279816" d="M184.311,259.111h0" transform="translate(-155.303 -218.33)" fill="#c1895c"/>
        <path id="Trazado_279817" data-name="Trazado 279817" d="M185.309,259.111h0" transform="translate(-156.144 -218.33)" fill="#c1895c"/>
        <path id="Trazado_279818" data-name="Trazado 279818" d="M186.306,259.111h0" transform="translate(-156.984 -218.33)" fill="#c1895c"/>
        <path id="Trazado_279819" data-name="Trazado 279819" d="M187.3,259.111h0" transform="translate(-157.825 -218.33)" fill="#c1895c"/>
        <path id="Trazado_279820" data-name="Trazado 279820" d="M188.3,259.111h0" transform="translate(-158.666 -218.33)" fill="#c1895c"/>
        <path id="Trazado_279821" data-name="Trazado 279821" d="M189.3,259.111h0" transform="translate(-159.506 -218.33)" fill="#c1895c"/>
        <path id="Trazado_279822" data-name="Trazado 279822" d="M190.3,259.111h0" transform="translate(-160.347 -218.33)" fill="#c1895c"/>
        <path id="Trazado_279823" data-name="Trazado 279823" d="M191.295,259.111h0" transform="translate(-161.188 -218.33)" fill="#c1895c"/>
        <path id="Trazado_279824" data-name="Trazado 279824" d="M192.292,259.111h0" transform="translate(-162.028 -218.33)" fill="#c1895c"/>
        <path id="Trazado_279825" data-name="Trazado 279825" d="M193.29,259.111h0" transform="translate(-162.869 -218.33)" fill="#c1895c"/>
        <path id="Trazado_279826" data-name="Trazado 279826" d="M194.288,259.111h0" transform="translate(-163.71 -218.33)" fill="#c1895c"/>
        <path id="Trazado_279827" data-name="Trazado 279827" d="M195.285,259.111h0" transform="translate(-164.55 -218.33)" fill="#c1895c"/>
        <path id="Trazado_279828" data-name="Trazado 279828" d="M196.283,259.111h0" transform="translate(-165.391 -218.33)" fill="#c1895c"/>
        <path id="Trazado_279829" data-name="Trazado 279829" d="M197.281,259.111h0" transform="translate(-166.232 -218.33)" fill="#c1895c"/>
        <path id="Trazado_279830" data-name="Trazado 279830" d="M198.279,259.111h0" transform="translate(-167.073 -218.33)" fill="#c1895c"/>
        <path id="Trazado_279831" data-name="Trazado 279831" d="M199.276,259.111h0" transform="translate(-167.913 -218.33)" fill="#c1895c"/>
        <path id="Trazado_279832" data-name="Trazado 279832" d="M200.274,259.111h0" transform="translate(-168.754 -218.33)" fill="#c1895c"/>
        <path id="Trazado_279833" data-name="Trazado 279833" d="M201.272,259.111h0" transform="translate(-169.595 -218.33)" fill="#c1895c"/>
        <path id="Trazado_279834" data-name="Trazado 279834" d="M202.269,259.111h0" transform="translate(-170.435 -218.33)" fill="#c1895c"/>
        <path id="Trazado_279835" data-name="Trazado 279835" d="M86.538,259.111h0" transform="translate(-72.918 -218.33)" fill="#c1895c"/>
        <path id="Trazado_279836" data-name="Trazado 279836" d="M85.54,259.111h0" transform="translate(-72.077 -218.33)" fill="#c1895c"/>
        <path id="Trazado_279837" data-name="Trazado 279837" d="M84.542,259.111h0" transform="translate(-71.236 -218.33)" fill="#c1895c"/>
        <path id="Trazado_279838" data-name="Trazado 279838" d="M83.545,259.111h0" transform="translate(-70.396 -218.33)" fill="#c1895c"/>
        <path id="Trazado_279839" data-name="Trazado 279839" d="M82.547,259.111h0" transform="translate(-69.555 -218.33)" fill="#c1895c"/>
        <path id="Trazado_279840" data-name="Trazado 279840" d="M76.567,259.078l.042,0-.042,0" transform="translate(-64.516 -218.303)" fill="#c1895c"/>
        <path id="Trazado_279841" data-name="Trazado 279841" d="M209.067,211.567l-.05-.009.05.009" transform="translate(-176.121 -178.262)" fill="#372b1d"/>
        <path id="Trazado_279842" data-name="Trazado 279842" d="M131.434,259.111h0" transform="translate(-110.748 -218.33)" fill="#c1895c"/>
        <path id="Trazado_279843" data-name="Trazado 279843" d="M160.367,259.111h0" transform="translate(-135.127 -218.33)" fill="#c1895c"/>
        <path id="Trazado_279844" data-name="Trazado 279844" d="M115.8,113.079a.887.887,0,0,1-.907.919.944.944,0,0,1-.943-.9.974.974,0,0,1,.931-.956.914.914,0,0,1,.919.935" transform="translate(-96.015 -94.494)" fill="#030201"/>
        <path id="Trazado_279845" data-name="Trazado 279845" d="M137.639,100.951a.87.87,0,0,1,.9.832.932.932,0,0,1-.95,1.009.97.97,0,0,1-.9-.953.9.9,0,0,1,.955-.888" transform="translate(-115.172 -85.063)" fill="#030201"/>
        <path id="Trazado_279846" data-name="Trazado 279846" d="M161.245,113.089c.08.472-.454.932-.9.923a.97.97,0,0,1-.94-.91.959.959,0,0,1,.917-.952.9.9,0,0,1,.924.939" transform="translate(-134.315 -94.499)" fill="#030201"/>
        <path id="Trazado_279847" data-name="Trazado 279847" d="M80,223.223c.03-.038.053-.092.092-.109a.415.415,0,0,1,.155,0H99.494c.064,0,.128.006.206.01V226.9H80V223.27l0-.047" transform="translate(-67.407 -187.99)" fill="#f5f7f8"/>
        <path id="Trazado_279848" data-name="Trazado 279848" d="M80,223.861l0,.047,0-.047" transform="translate(-67.407 -188.628)" fill="#606061"/>
      </g>
    </g>
  </g>
</svg>
