<svg xmlns="http://www.w3.org/2000/svg" xmlns:xlink="http://www.w3.org/1999/xlink" width="1241.195" height="996.164" viewBox="0 0 1241.195 996.164">
  <defs>
    <clipPath id="clip-path">
      <rect id="Rectángulo_325525" data-name="Rectángulo 325525" width="1241.195" height="996.164" fill="none"/>
    </clipPath>
  </defs>
  <g id="Grupo_1071228" data-name="Grupo 1071228" transform="translate(-180 -460)">
    <g id="Grupo_261790" data-name="Grupo 261790" transform="translate(180 460)">
      <text id="Para_el" data-name="Para el" transform="translate(93.829 320.725)" fill="#12263f" font-size="16" font-family="Roboto-Regular, Roboto"><tspan x="0" y="0" letter-spacing="-0.005em">P</tspan><tspan y="0">a</tspan><tspan y="0" letter-spacing="-0.019em">r</tspan><tspan y="0">a el</tspan></text>
      <text id="Aplicando_" data-name="Aplicando " transform="translate(89.357 190.517)" fill="#12263f" font-size="16" font-family="Roboto-Regular, Roboto"><tspan x="0" y="0">Aplicando </tspan></text>
      <text id="estrategias_de" data-name="estrategias de" transform="translate(89.357 207.509)" fill="#12263f" font-size="16" font-family="Roboto-Regular, Roboto"><tspan x="0" y="0">est</tspan><tspan y="0" letter-spacing="-0.019em">r</tspan><tspan y="0">ategias de</tspan></text>
      <text id="Aplicando" transform="translate(90.083 426.692)" fill="#12263f" font-size="16" font-family="Roboto-Regular, Roboto"><tspan x="0" y="0">Aplicando</tspan></text>
      <text id="Acopio" transform="translate(90.083 498.436)" fill="#12263f" font-size="16" font-family="Roboto-Regular, Roboto"><tspan x="0" y="0">Acopio</tspan></text>
      <text id="Inspección" transform="translate(90.083 515.429)" fill="#12263f" font-size="16" font-family="Roboto-Regular, Roboto"><tspan x="0" y="0">Inspección</tspan></text>
      <text id="Perecibilidad" transform="translate(95.76 614.036)" fill="#12263f" font-size="16" font-family="Roboto-Regular, Roboto"><tspan x="0" y="0" letter-spacing="-0.006em">P</tspan><tspan y="0">e</tspan><tspan y="0" letter-spacing="-0.009em">r</tspan><tspan y="0">ecibilidad</tspan></text>
      <text id="Con_la_" data-name="Con la " transform="translate(318.315 190.5)" fill="#12263f" font-size="16" font-family="Roboto-Regular, Roboto"><tspan x="0" y="0">Con la </tspan></text>
      <text id="aplicación_de" data-name="aplicación de" transform="translate(318.315 207.493)" fill="#12263f" font-size="16" font-family="Roboto-Regular, Roboto"><tspan x="0" y="0">aplicación de</tspan></text>
      <text id="Dieta_" data-name="Dieta " transform="translate(529.5 191.157)" fill="#12263f" font-size="16" font-family="Roboto-Regular, Roboto"><tspan x="0" y="0">Dieta </tspan></text>
      <text id="adecuada_con" data-name="adecuada con" transform="translate(529.5 208.148)" fill="#12263f" font-size="16" font-family="Roboto-Regular, Roboto"><tspan x="0" y="0">adecuada con</tspan></text>
      <text id="Teniendo_en_" data-name="Teniendo en " transform="translate(792.851 194.372)" fill="#12263f" font-size="16" font-family="Roboto-Regular, Roboto"><tspan x="0" y="0" letter-spacing="-0.048em">T</tspan><tspan y="0">eniendo en </tspan></text>
      <text id="cuenta_el" data-name="cuenta el" transform="translate(792.851 211.365)" fill="#12263f" font-size="16" font-family="Roboto-Regular, Roboto"><tspan x="0" y="0">cuenta el</tspan></text>
      <text id="Divididas_en_" data-name="Divididas en " transform="translate(792.24 314.949)" fill="#12263f" font-size="16" font-family="Roboto-Regular, Roboto"><tspan x="0" y="0">Divididas en </tspan></text>
      <text id="áreas_de" data-name="áreas de" transform="translate(792.24 331.94)" fill="#12263f" font-size="16" font-family="Roboto-Regular, Roboto"><tspan x="0" y="0">á</tspan><tspan y="0" letter-spacing="-0.009em">r</tspan><tspan y="0">eas de</tspan></text>
      <text id="Con_la_2" data-name="Con la " transform="translate(978.109 192.356)" fill="#12263f" font-size="16" font-family="Roboto-Regular, Roboto"><tspan x="0" y="0">Con la </tspan></text>
      <text id="inclusión_de" data-name="inclusión de" transform="translate(978.109 209.349)" fill="#12263f" font-size="16" font-family="Roboto-Regular, Roboto"><tspan x="0" y="0">inclusión de</tspan></text>
      <text id="Para_la" data-name="Para la" transform="translate(971.492 323.732)" fill="#12263f" font-size="16" font-family="Roboto-Regular, Roboto"><tspan x="0" y="0" letter-spacing="-0.005em">P</tspan><tspan y="0">a</tspan><tspan y="0" letter-spacing="-0.019em">r</tspan><tspan y="0">a la</tspan></text>
      <text id="Aplicando-2" data-name="Aplicando" transform="translate(1167.479 194.821)" fill="#12263f" font-size="16" font-family="Roboto-Regular, Roboto"><tspan x="0" y="0">Aplicando</tspan></text>
      <g id="Grupo_261737" data-name="Grupo 261737">
        <g id="Grupo_261736" data-name="Grupo 261736" clip-path="url(#clip-path)">
          <path id="Trazado_279849" data-name="Trazado 279849" d="M786.512,105.077H454.005a16.892,16.892,0,0,1-16.892-16.892V16.893A16.892,16.892,0,0,1,454.005,0H786.512A16.892,16.892,0,0,1,803.4,16.893V88.185a16.892,16.892,0,0,1-16.892,16.892" fill="#3b5620"/>
        </g>
      </g>
      <text id="Generalidades_en_la_preparación_de_" data-name="Generalidades en la preparación de " transform="translate(478.479 46.577)" fill="#def1f0" font-size="18" font-family="Roboto-Bold, Roboto" font-weight="700"><tspan x="0" y="0">Gene</tspan><tspan y="0" letter-spacing="-0.015em">r</tspan><tspan y="0">alidades en la p</tspan><tspan y="0" letter-spacing="-0.008em">r</tspan><tspan y="0">epa</tspan><tspan y="0" letter-spacing="-0.014em">r</tspan><tspan y="0">ación de </tspan></text>
      <text id="raciones_para_especies_animales" data-name="raciones para especies animales" transform="translate(488.792 70.571)" fill="#def1f0" font-size="18" font-family="Roboto-Bold, Roboto" font-weight="700"><tspan x="0" y="0" letter-spacing="-0.014em">r</tspan><tspan y="0">aciones pa</tspan><tspan y="0" letter-spacing="-0.013em">r</tspan><tspan y="0">a especies animales</tspan></text>
      <g id="Grupo_261739" data-name="Grupo 261739">
        <g id="Grupo_261738" data-name="Grupo 261738" clip-path="url(#clip-path)">
          <path id="Trazado_279850" data-name="Trazado 279850" d="M134.327,290.611H12.7A10.7,10.7,0,0,1,2,279.915v-39.3a10.7,10.7,0,0,1,10.7-10.7h121.63a10.7,10.7,0,0,1,10.7,10.7v39.3a10.7,10.7,0,0,1-10.7,10.7" fill="#3b5620"/>
        </g>
      </g>
      <text id="Materias_" data-name="Materias " transform="translate(42.8 255.585)" fill="#def1f0" font-size="15.47" font-family="Roboto-Bold, Roboto" font-weight="700"><tspan x="0" y="0">Materias </tspan></text>
      <text id="primas" transform="translate(49.467 273.585)" fill="#def1f0" font-size="15.47" font-family="Roboto-Bold, Roboto" font-weight="700"><tspan x="0" y="0">primas</tspan></text>
      <g id="Grupo_261741" data-name="Grupo 261741">
        <g id="Grupo_261740" data-name="Grupo 261740" clip-path="url(#clip-path)">
          <path id="Trazado_279851" data-name="Trazado 279851" d="M132.326,401.413H10.7A10.7,10.7,0,0,1,0,390.717v-39.3a10.7,10.7,0,0,1,10.7-10.7h121.63a10.7,10.7,0,0,1,10.7,10.7v39.3a10.7,10.7,0,0,1-10.7,10.7" fill="#def1f0"/>
        </g>
      </g>
      <text id="Alimento_" data-name="Alimento " transform="translate(38.646 366.388)" fill="#12263f" font-size="16" font-family="Roboto-Regular, Roboto"><tspan x="0" y="0">Alimen</tspan><tspan y="0" letter-spacing="-0.009em">t</tspan><tspan y="0">o </tspan></text>
      <text id="animal" transform="translate(46.75 384.388)" fill="#12263f" font-size="16" font-family="Roboto-Regular, Roboto"><tspan x="0" y="0">animal</tspan></text>
      <text id="De_las" data-name="De las" transform="translate(316.321 321.972)" fill="#12263f" font-size="16" font-family="Roboto-Regular, Roboto"><tspan x="0" y="0">De las</tspan></text>
      <text id="Necesidades" transform="translate(531.648 322.9)" fill="#12263f" font-size="16" font-family="Roboto-Regular, Roboto"><tspan x="0" y="0">Necesidades</tspan></text>
      <g id="Grupo_261743" data-name="Grupo 261743">
        <g id="Grupo_261742" data-name="Grupo 261742" clip-path="url(#clip-path)">
          <path id="Trazado_279852" data-name="Trazado 279852" d="M361.461,403.527H239.831a10.7,10.7,0,0,1-10.7-10.7v-39.3a10.7,10.7,0,0,1,10.7-10.7h121.63a10.7,10.7,0,0,1,10.7,10.7v39.3a10.7,10.7,0,0,1-10.7,10.7" fill="#def1f0"/>
        </g>
      </g>
      <text id="Materias_2" data-name="Materias " transform="translate(268.351 368.501)" fill="#12263f" font-size="16" font-family="Roboto-Regular, Roboto"><tspan x="0" y="0">Materias </tspan></text>
      <text id="primas-2" data-name="primas" transform="translate(275.249 386.501)" fill="#12263f" font-size="16" font-family="Roboto-Regular, Roboto"><tspan x="0" y="0">primas</tspan></text>
      <g id="Grupo_261745" data-name="Grupo 261745">
        <g id="Grupo_261744" data-name="Grupo 261744" clip-path="url(#clip-path)">
          <path id="Trazado_279853" data-name="Trazado 279853" d="M361.461,502.187H239.831a10.7,10.7,0,0,1-10.7-10.7v-39.3a10.7,10.7,0,0,1,10.7-10.7h121.63a10.7,10.7,0,0,1,10.7,10.7v39.3a10.7,10.7,0,0,1-10.7,10.7" fill="#def1f0"/>
        </g>
      </g>
      <text id="Control_y_" data-name="Control y " transform="translate(267.955 467.162)" fill="#12263f" font-size="16" font-family="Roboto-Regular, Roboto"><tspan x="0" y="0">Cont</tspan><tspan y="0" letter-spacing="-0.009em">r</tspan><tspan y="0">ol y </tspan></text>
      <text id="calidad_de" data-name="calidad de" transform="translate(262.971 485.162)" fill="#12263f" font-size="16" font-family="Roboto-Regular, Roboto"><tspan x="0" y="0">calidad de</tspan></text>
      <g id="Grupo_261747" data-name="Grupo 261747">
        <g id="Grupo_261746" data-name="Grupo 261746" clip-path="url(#clip-path)">
          <path id="Trazado_279854" data-name="Trazado 279854" d="M361.461,660.209H239.831a10.7,10.7,0,0,1-10.7-10.7v-39.3a10.7,10.7,0,0,1,10.7-10.7h121.63a10.7,10.7,0,0,1,10.7,10.7v39.3a10.7,10.7,0,0,1-10.7,10.7" fill="#def1f0"/>
        </g>
      </g>
      <text id="Acciones_para_" data-name="Acciones para " transform="translate(248.459 625.185)" fill="#12263f" font-size="16" font-family="Roboto-Regular, Roboto"><tspan x="0" y="0">Acciones pa</tspan><tspan y="0" letter-spacing="-0.019em">r</tspan><tspan y="0">a </tspan></text>
      <text id="el_control" data-name="el control" transform="translate(266.529 643.185)" fill="#12263f" font-size="16" font-family="Roboto-Regular, Roboto"><tspan x="0" y="0">el cont</tspan><tspan y="0" letter-spacing="-0.009em">r</tspan><tspan y="0">ol</tspan></text>
      <g id="Grupo_261749" data-name="Grupo 261749">
        <g id="Grupo_261748" data-name="Grupo 261748" clip-path="url(#clip-path)">
          <path id="Trazado_279855" data-name="Trazado 279855" d="M361.461,760.983H239.831a10.7,10.7,0,0,1-10.7-10.7v-39.3a10.7,10.7,0,0,1,10.7-10.7h121.63a10.7,10.7,0,0,1,10.7,10.7v39.3a10.7,10.7,0,0,1-10.7,10.7" fill="#def1f0"/>
        </g>
      </g>
      <text id="Higiene_" data-name="Higiene " transform="translate(272.834 725.958)" fill="#12263f" font-size="16" font-family="Roboto-Regular, Roboto"><tspan x="0" y="0">Higiene </tspan></text>
      <text id="operarios" transform="translate(266.068 743.958)" fill="#12263f" font-size="16" font-family="Roboto-Regular, Roboto"><tspan x="0" y="0">ope</tspan><tspan y="0" letter-spacing="-0.019em">r</tspan><tspan y="0">arios</tspan></text>
      <g id="Grupo_261751" data-name="Grupo 261751">
        <g id="Grupo_261750" data-name="Grupo 261750" clip-path="url(#clip-path)">
          <path id="Trazado_279856" data-name="Trazado 279856" d="M575.98,708.174H454.35a10.7,10.7,0,0,1-10.7-10.7v-39.3a10.7,10.7,0,0,1,10.7-10.7H575.98a10.7,10.7,0,0,1,10.7,10.7v39.3a10.7,10.7,0,0,1-10.7,10.7" fill="#def1f0"/>
        </g>
      </g>
      <text id="Tratamiento_" data-name="Tratamiento " transform="translate(470.761 673.149)" fill="#12263f" font-size="16" font-family="Roboto-Regular, Roboto"><tspan x="0" y="0" letter-spacing="-0.036em">T</tspan><tspan y="0" letter-spacing="-0.019em">r</tspan><tspan y="0">atamien</tspan><tspan y="0" letter-spacing="-0.009em">t</tspan><tspan y="0">o </tspan></text>
      <text id="de_ración" data-name="de ración" transform="translate(481.405 691.149)" fill="#12263f" font-size="16" font-family="Roboto-Regular, Roboto"><tspan x="0" y="0">de </tspan><tspan y="0" letter-spacing="-0.019em">r</tspan><tspan y="0">ación</tspan></text>
      <g id="Grupo_261753" data-name="Grupo 261753">
        <g id="Grupo_261752" data-name="Grupo 261752" clip-path="url(#clip-path)">
          <path id="Trazado_279857" data-name="Trazado 279857" d="M839,403.411H717.371a10.7,10.7,0,0,1-10.7-10.7v-39.3a10.7,10.7,0,0,1,10.7-10.7H839a10.7,10.7,0,0,1,10.7,10.7v39.3a10.7,10.7,0,0,1-10.7,10.7" fill="#def1f0"/>
        </g>
      </g>
      <text id="Almacenamiento" transform="translate(716.871 378.634)" fill="#12263f" font-size="16" font-family="Roboto-Regular, Roboto"><tspan x="0" y="0">Almacenamien</tspan><tspan y="0" letter-spacing="-0.009em">t</tspan><tspan y="0">o</tspan></text>
      <g id="Grupo_261755" data-name="Grupo 261755">
        <g id="Grupo_261754" data-name="Grupo 261754" clip-path="url(#clip-path)">
          <path id="Trazado_279858" data-name="Trazado 279858" d="M839,504.371H717.371a10.7,10.7,0,0,1-10.7-10.7v-39.3a10.7,10.7,0,0,1,10.7-10.7H839a10.7,10.7,0,0,1,10.7,10.7v39.3a10.7,10.7,0,0,1-10.7,10.7" fill="#def1f0"/>
        </g>
      </g>
      <text id="Producción" transform="translate(737.463 479.594)" fill="#12263f" font-size="16" font-family="Roboto-Regular, Roboto"><tspan x="0" y="0">P</tspan><tspan y="0" letter-spacing="-0.009em">r</tspan><tspan y="0">oducción</tspan></text>
      <g id="Grupo_261757" data-name="Grupo 261757">
        <g id="Grupo_261756" data-name="Grupo 261756" clip-path="url(#clip-path)">
          <path id="Trazado_279859" data-name="Trazado 279859" d="M1024.872,401.372H903.242a10.7,10.7,0,0,1-10.7-10.7v-39.3a10.7,10.7,0,0,1,10.7-10.7h121.63a10.7,10.7,0,0,1,10.7,10.7v39.3a10.7,10.7,0,0,1-10.7,10.7" fill="#def1f0"/>
        </g>
      </g>
      <text id="Ración_animal" data-name="Ración animal" transform="translate(912.1 376.596)" fill="#12263f" font-size="16" font-family="Roboto-Regular, Roboto"><tspan x="0" y="0">Ración animal</tspan></text>
      <g id="Grupo_261759" data-name="Grupo 261759">
        <g id="Grupo_261758" data-name="Grupo 261758" clip-path="url(#clip-path)">
          <path id="Trazado_279860" data-name="Trazado 279860" d="M1024.872,501.04H903.242a10.7,10.7,0,0,1-10.7-10.7v-39.3a10.7,10.7,0,0,1,10.7-10.7h121.63a10.7,10.7,0,0,1,10.7,10.7v39.3a10.7,10.7,0,0,1-10.7,10.7" fill="#def1f0"/>
        </g>
      </g>
      <text id="Clases_de" data-name="Clases de" transform="translate(929.248 476.264)" fill="#12263f" font-size="16" font-family="Roboto-Regular, Roboto"><tspan x="0" y="0">Clases de</tspan></text>
      <g id="Grupo_261761" data-name="Grupo 261761">
        <g id="Grupo_261760" data-name="Grupo 261760" clip-path="url(#clip-path)">
          <path id="Trazado_279861" data-name="Trazado 279861" d="M839,605.33H717.371a10.7,10.7,0,0,1-10.7-10.7v-39.3a10.7,10.7,0,0,1,10.7-10.7H839a10.7,10.7,0,0,1,10.7,10.7v39.3a10.7,10.7,0,0,1-10.7,10.7" fill="#def1f0"/>
        </g>
      </g>
      <text id="Personal" transform="translate(746.865 580.554)" fill="#12263f" font-size="16" font-family="Roboto-Regular, Roboto"><tspan x="0" y="0" letter-spacing="-0.006em">P</tspan><tspan y="0">ersonal</tspan></text>
      <g id="Grupo_261763" data-name="Grupo 261763">
        <g id="Grupo_261762" data-name="Grupo 261762" clip-path="url(#clip-path)">
          <path id="Trazado_279862" data-name="Trazado 279862" d="M1229.845,519.371H1091.508a11.35,11.35,0,0,1-11.35-11.35V470.028a11.35,11.35,0,0,1,11.35-11.35h138.337a11.35,11.35,0,0,1,11.35,11.35v37.993a11.35,11.35,0,0,1-11.35,11.35" fill="#def1f0"/>
        </g>
      </g>
      <text id="Técnicas_de_" data-name="Técnicas de " transform="translate(1119.696 484.882)" fill="#12263f" font-size="16" font-family="Roboto-Regular, Roboto"><tspan x="0" y="0" letter-spacing="-0.048em">T</tspan><tspan y="0">écnicas de </tspan></text>
      <text id="evaluación" transform="translate(1124.234 502.882)" fill="#12263f" font-size="16" font-family="Roboto-Regular, Roboto"><tspan x="0" y="0" letter-spacing="-0.006em">e</tspan><tspan y="0" letter-spacing="-0.007em">v</tspan><tspan y="0">aluación</tspan></text>
      <g id="Grupo_261765" data-name="Grupo 261765">
        <g id="Grupo_261764" data-name="Grupo 261764" clip-path="url(#clip-path)">
          <path id="Trazado_279863" data-name="Trazado 279863" d="M574.47,825.617H455.859a12.206,12.206,0,0,1-12.206-12.205v-54.62a12.205,12.205,0,0,1,12.206-12.205H574.47a12.205,12.205,0,0,1,12.206,12.205v54.62a12.206,12.206,0,0,1-12.206,12.205" fill="#def1f0"/>
        </g>
      </g>
      <text id="Criterios_e_" data-name="Criterios e " transform="translate(477.764 772.257)" fill="#12263f" font-size="16" font-family="Roboto-Regular, Roboto"><tspan x="0" y="0">Criterios e </tspan></text>
      <text id="interpretación_" data-name="interpretación " transform="translate(464.265 790.257)" fill="#12263f" font-size="16" font-family="Roboto-Regular, Roboto"><tspan x="0" y="0">interp</tspan><tspan y="0" letter-spacing="-0.009em">r</tspan><tspan y="0">etación </tspan></text>
      <text id="formulas" transform="translate(482.27 808.257)" fill="#12263f" font-size="16" font-family="Roboto-Regular, Roboto"><tspan x="0" y="0">formulas</tspan></text>
      <g id="Grupo_261767" data-name="Grupo 261767">
        <g id="Grupo_261766" data-name="Grupo 261766" clip-path="url(#clip-path)">
          <path id="Trazado_279864" data-name="Trazado 279864" d="M1228.244,420.157H1093.11a12.951,12.951,0,0,1-12.951-12.951V354.078a12.95,12.95,0,0,1,12.951-12.951h135.134a12.95,12.95,0,0,1,12.951,12.951v53.128a12.951,12.951,0,0,1-12.951,12.951" fill="#def1f0"/>
        </g>
      </g>
      <text id="Elementos_de_" data-name="Elementos de " transform="translate(1110.732 366.797)" fill="#12263f" font-size="16" font-family="Roboto-Regular, Roboto"><tspan x="0" y="0">Elemen</tspan><tspan y="0" letter-spacing="-0.009em">t</tspan><tspan y="0">os de </tspan></text>
      <text id="protección_" data-name="protección " transform="translate(1121.574 384.797)" fill="#12263f" font-size="16" font-family="Roboto-Regular, Roboto"><tspan x="0" y="0">p</tspan><tspan y="0" letter-spacing="-0.009em">r</tspan><tspan y="0">otección </tspan></text>
      <text id="personal-2" data-name="personal" transform="translate(1128.786 402.797)" fill="#12263f" font-size="16" font-family="Roboto-Regular, Roboto"><tspan x="0" y="0">personal</tspan></text>
      <g id="Grupo_261769" data-name="Grupo 261769">
        <g id="Grupo_261768" data-name="Grupo 261768" clip-path="url(#clip-path)">
          <path id="Trazado_279865" data-name="Trazado 279865" d="M574.47,943.313H455.859a12.206,12.206,0,0,1-12.206-12.205v-54.62a12.205,12.205,0,0,1,12.206-12.2H574.47a12.205,12.205,0,0,1,12.206,12.2v54.62a12.206,12.206,0,0,1-12.206,12.205" fill="#def1f0"/>
        </g>
      </g>
      <text id="Buenas_" data-name="Buenas " transform="translate(487.812 889.952)" fill="#12263f" font-size="16" font-family="Roboto-Regular, Roboto"><tspan x="0" y="0">Buenas </tspan></text>
      <text id="prácticas_de_" data-name="prácticas de " transform="translate(470.27 907.952)" fill="#12263f" font-size="16" font-family="Roboto-Regular, Roboto"><tspan x="0" y="0">p</tspan><tspan y="0" letter-spacing="-0.019em">r</tspan><tspan y="0">ácticas de </tspan></text>
      <text id="fabricación" transform="translate(473.999 925.952)" fill="#12263f" font-size="16" font-family="Roboto-Regular, Roboto"><tspan x="0" y="0">fabricación</tspan></text>
      <g id="Grupo_261771" data-name="Grupo 261771">
        <g id="Grupo_261770" data-name="Grupo 261770" clip-path="url(#clip-path)">
          <path id="Trazado_279866" data-name="Trazado 279866" d="M574.582,418.866H455.747a12.093,12.093,0,0,1-12.093-12.094v-53.4a12.094,12.094,0,0,1,12.093-12.094H574.582a12.094,12.094,0,0,1,12.094,12.094v53.4a12.094,12.094,0,0,1-12.094,12.094" fill="#def1f0"/>
        </g>
      </g>
      <text id="Técnica_y_" data-name="Técnica y " transform="translate(480.64 366.947)" fill="#12263f" font-size="16" font-family="Roboto-Regular, Roboto"><tspan x="0" y="0" letter-spacing="-0.048em">T</tspan><tspan y="0">écnica y </tspan></text>
      <text id="métodos_de_" data-name="métodos de " transform="translate(471.563 384.947)" fill="#12263f" font-size="16" font-family="Roboto-Regular, Roboto"><tspan x="0" y="0">mé</tspan><tspan y="0" letter-spacing="-0.009em">t</tspan><tspan y="0">odos de </tspan></text>
      <text id="elaboración_" data-name="elaboración " transform="translate(472.273 402.947)" fill="#12263f" font-size="16" font-family="Roboto-Regular, Roboto"><tspan x="0" y="0">elabo</tspan><tspan y="0" letter-spacing="-0.019em">r</tspan><tspan y="0">ación </tspan></text>
      <g id="Grupo_261773" data-name="Grupo 261773">
        <g id="Grupo_261772" data-name="Grupo 261772" clip-path="url(#clip-path)">
          <path id="Trazado_279867" data-name="Trazado 279867" d="M134.567,477.747H8.455A8.456,8.456,0,0,1,0,469.292V448.277a8.455,8.455,0,0,1,8.455-8.455H134.567a8.454,8.454,0,0,1,8.455,8.455v21.015a8.455,8.455,0,0,1-8.455,8.455" fill="#def1f0"/>
        </g>
      </g>
      <text id="Métodos_de" data-name="Métodos de" transform="translate(27.933 463.488)" fill="#12263f" font-size="16" font-family="Roboto-Regular, Roboto"><tspan x="0" y="0">Mé</tspan><tspan y="0" letter-spacing="-0.009em">t</tspan><tspan y="0">odos de</tspan></text>
      <text id="Selección" transform="translate(93.828 691.616)" fill="#12263f" font-size="16" font-family="Roboto-Regular, Roboto"><tspan x="0" y="0">Selección</tspan></text>
      <text id="Adecuación" transform="translate(93.828 708.607)" fill="#12263f" font-size="16" font-family="Roboto-Regular, Roboto"><tspan x="0" y="0">Adecuación</tspan></text>
      <text id="Recepción" transform="translate(93.828 725.6)" fill="#12263f" font-size="16" font-family="Roboto-Regular, Roboto"><tspan x="0" y="0">Recepción</tspan></text>
      <text id="Evaluación-2" data-name="Evaluación" transform="translate(93.828 742.592)" fill="#12263f" font-size="16" font-family="Roboto-Regular, Roboto"><tspan x="0" y="0" letter-spacing="-0.012em">E</tspan><tspan y="0" letter-spacing="-0.007em">v</tspan><tspan y="0">aluación</tspan></text>
      <text id="Agua" transform="translate(314.931 529.456)" fill="#12263f" font-size="16" font-family="Roboto-Regular, Roboto"><tspan x="0" y="0">Agua</tspan></text>
      <text id="Higiene" transform="translate(314.931 546.448)" fill="#12263f" font-size="16" font-family="Roboto-Regular, Roboto"><tspan x="0" y="0">Higiene</tspan></text>
      <text id="Manipulación" transform="translate(314.931 563.439)" fill="#12263f" font-size="16" font-family="Roboto-Regular, Roboto"><tspan x="0" y="0">Manipulación</tspan></text>
      <text id="Alimentos" transform="translate(314.931 580.432)" fill="#12263f" font-size="16" font-family="Roboto-Regular, Roboto"><tspan x="0" y="0">Alimen</tspan><tspan y="0" letter-spacing="-0.009em">t</tspan><tspan y="0">os</tspan></text>
      <text id="Equipos" transform="translate(973.735 528.336)" fill="#12263f" font-size="16" font-family="Roboto-Regular, Roboto"><tspan x="0" y="0" letter-spacing="-0.009em">E</tspan><tspan y="0">quipos</tspan></text>
      <text id="Maquinaria" transform="translate(973.735 545.328)" fill="#12263f" font-size="16" font-family="Roboto-Regular, Roboto"><tspan x="0" y="0">Maquinaria</tspan></text>
      <text id="Herramientas" transform="translate(973.735 562.32)" fill="#12263f" font-size="16" font-family="Roboto-Regular, Roboto"><tspan x="0" y="0">Her</tspan><tspan y="0" letter-spacing="-0.019em">r</tspan><tspan y="0">amientas</tspan></text>
      <text id="Alimentos_para_" data-name="Alimentos para " transform="translate(526.215 968.128)" fill="#12263f" font-size="16" font-family="Roboto-Regular, Roboto"><tspan x="0" y="0">Alimen</tspan><tspan y="0" letter-spacing="-0.009em">t</tspan><tspan y="0">os pa</tspan><tspan y="0" letter-spacing="-0.019em">r</tspan><tspan y="0">a </tspan></text>
      <text id="animales" transform="translate(526.215 985.12)" fill="#12263f" font-size="16" font-family="Roboto-Regular, Roboto"><tspan x="0" y="0">animales</tspan></text>
      <text id="Cuadrado_de_pearson_" data-name="Cuadrado de “pearson " transform="translate(532.189 448.416)" fill="#12263f" font-size="16" font-family="Roboto-Regular, Roboto"><tspan x="0" y="0">Cuad</tspan><tspan y="0" letter-spacing="-0.019em">r</tspan><tspan y="0">ado de </tspan><tspan y="0" letter-spacing="-0.009em">“</tspan><tspan y="0" font-family="Roboto-Italic, Roboto" font-style="italic">pearson</tspan><tspan y="0"> </tspan></text>
      <text id="simple_" data-name="simple”" transform="translate(532.189 465.408)" fill="#12263f" font-size="16" font-family="Roboto-Regular, Roboto"><tspan x="0" y="0">simpl</tspan><tspan y="0" letter-spacing="-0.006em">e</tspan><tspan y="0">”</tspan></text>
      <text id="Cuadrado_de_pearson_2" data-name="Cuadrado de pearson " transform="translate(532.189 499.408)" fill="#12263f" font-size="16" font-family="Roboto-Regular, Roboto"><tspan x="0" y="0">Cuad</tspan><tspan y="0" letter-spacing="-0.019em">r</tspan><tspan y="0">ado de </tspan><tspan y="0" font-family="Roboto-Italic, Roboto" font-style="italic">pearson</tspan><tspan y="0"> </tspan></text>
      <text id="compuesto" transform="translate(532.189 516.399)" fill="#12263f" font-size="16" font-family="Roboto-Regular, Roboto"><tspan x="0" y="0">compues</tspan><tspan y="0" letter-spacing="-0.009em">t</tspan><tspan y="0">o</tspan></text>
      <text id="Ecuaciones_" data-name="Ecuaciones " transform="translate(532.189 550.399)" fill="#12263f" font-size="16" font-family="Roboto-Regular, Roboto"><tspan x="0" y="0" letter-spacing="-0.009em">E</tspan><tspan y="0">cuaciones </tspan></text>
      <text id="simultáneas" transform="translate(532.189 567.392)" fill="#12263f" font-size="16" font-family="Roboto-Regular, Roboto"><tspan x="0" y="0">simultáneas</tspan></text>
      <text id="Métodos_" data-name="Métodos " transform="translate(532.189 601.392)" fill="#12263f" font-size="16" font-family="Roboto-Regular, Roboto"><tspan x="0" y="0">Mé</tspan><tspan y="0" letter-spacing="-0.009em">t</tspan><tspan y="0">odos </tspan></text>
      <text id="computarizados" transform="translate(532.189 618.384)" fill="#12263f" font-size="16" font-family="Roboto-Regular, Roboto"><tspan x="0" y="0">computarizados</tspan></text>
      <g id="Grupo_261775" data-name="Grupo 261775">
        <g id="Grupo_261774" data-name="Grupo 261774" clip-path="url(#clip-path)">
          <path id="Trazado_279868" data-name="Trazado 279868" d="M134.567,665.171H8.455A8.456,8.456,0,0,1,0,656.716V635.7a8.455,8.455,0,0,1,8.455-8.455H134.567a8.454,8.454,0,0,1,8.455,8.455v21.015a8.455,8.455,0,0,1-8.455,8.455" fill="#def1f0"/>
        </g>
      </g>
      <text id="Técnicas_de" data-name="Técnicas de" transform="translate(27.61 650.914)" fill="#12263f" font-size="16" font-family="Roboto-Regular, Roboto"><tspan x="0" y="0" letter-spacing="-0.048em">T</tspan><tspan y="0">écnicas de</tspan></text>
      <g id="Grupo_261777" data-name="Grupo 261777">
        <g id="Grupo_261776" data-name="Grupo 261776" clip-path="url(#clip-path)">
          <path id="Trazado_279869" data-name="Trazado 279869" d="M132.262,588.534H10.759A10.758,10.758,0,0,1,0,577.774V537.879a10.758,10.758,0,0,1,10.758-10.76h121.5a10.76,10.76,0,0,1,10.76,10.76v39.895a10.76,10.76,0,0,1-10.76,10.76" fill="#def1f0"/>
        </g>
      </g>
      <text id="Características_" data-name="Características " transform="translate(18.881 554.361)" fill="#12263f" font-size="16" font-family="Roboto-Regular, Roboto"><tspan x="0" y="0">Ca</tspan><tspan y="0" letter-spacing="-0.019em">r</tspan><tspan y="0">acterísticas </tspan></text>
      <text id="de_la" data-name="de la" transform="translate(56.523 572.361)" fill="#12263f" font-size="16" font-family="Roboto-Regular, Roboto"><tspan x="0" y="0">de la</tspan></text>
      <g id="Grupo_261779" data-name="Grupo 261779">
        <g id="Grupo_261778" data-name="Grupo 261778" clip-path="url(#clip-path)">
          <path id="Trazado_279870" data-name="Trazado 279870" d="M361.461,291.612H239.831a10.7,10.7,0,0,1-10.7-10.7v-39.3a10.7,10.7,0,0,1,10.7-10.7h121.63a10.7,10.7,0,0,1,10.7,10.7v39.3a10.7,10.7,0,0,1-10.7,10.7" fill="#3b5620"/>
        </g>
      </g>
      <text id="Higienización" transform="translate(253.229 265.926)" fill="#def1f0" font-size="15.47" font-family="Roboto-Bold, Roboto" font-weight="700"><tspan x="0" y="0">Higienización</tspan></text>
      <g id="Grupo_261781" data-name="Grupo 261781">
        <g id="Grupo_261780" data-name="Grupo 261780" clip-path="url(#clip-path)">
          <path id="Trazado_279871" data-name="Trazado 279871" d="M575.98,290.611H454.35a10.7,10.7,0,0,1-10.7-10.7v-39.3a10.7,10.7,0,0,1,10.7-10.7H575.98a10.7,10.7,0,0,1,10.7,10.7v39.3a10.7,10.7,0,0,1-10.7,10.7" fill="#3b5620"/>
        </g>
      </g>
      <text id="Ración_animal-2" data-name="Ración animal" transform="translate(465.942 264.926)" fill="#def1f0" font-size="15.47" font-family="Roboto-Bold, Roboto" font-weight="700"><tspan x="0" y="0">Ración animal</tspan></text>
      <g id="Grupo_261783" data-name="Grupo 261783">
        <g id="Grupo_261782" data-name="Grupo 261782" clip-path="url(#clip-path)">
          <path id="Trazado_279872" data-name="Trazado 279872" d="M839,290.611H717.371a10.7,10.7,0,0,1-10.7-10.7v-39.3a10.7,10.7,0,0,1,10.7-10.7H839a10.7,10.7,0,0,1,10.7,10.7v39.3a10.7,10.7,0,0,1-10.7,10.7" fill="#3b5620"/>
        </g>
      </g>
      <text id="Área_de_" data-name="Área de " transform="translate(751.438 254.423)" fill="#def1f0" font-size="15.47" font-family="Roboto-Bold, Roboto" font-weight="700"><tspan x="0" y="0">Á</tspan><tspan y="0" letter-spacing="-0.009em">r</tspan><tspan y="0">ea de </tspan></text>
      <text id="proceso" transform="translate(750.2 272.423)" fill="#def1f0" font-size="15.47" font-family="Roboto-Bold, Roboto" font-weight="700"><tspan x="0" y="0">p</tspan><tspan y="0" letter-spacing="-0.017em">r</tspan><tspan y="0">oceso</tspan></text>
      <g id="Grupo_261785" data-name="Grupo 261785">
        <g id="Grupo_261784" data-name="Grupo 261784" clip-path="url(#clip-path)">
          <path id="Trazado_279873" data-name="Trazado 279873" d="M1024.872,290.611H903.242a10.7,10.7,0,0,1-10.7-10.7v-39.3a10.7,10.7,0,0,1,10.7-10.7h121.63a10.7,10.7,0,0,1,10.7,10.7v39.3a10.7,10.7,0,0,1-10.7,10.7" fill="#3b5620"/>
        </g>
      </g>
      <text id="Equipos-2" data-name="Equipos" transform="translate(936.325 263.343)" fill="#def1f0" font-size="15.47" font-family="Roboto-Bold, Roboto" font-weight="700"><tspan x="0" y="0" letter-spacing="-0.009em">E</tspan><tspan y="0">quipos</tspan></text>
      <g id="Grupo_261787" data-name="Grupo 261787">
        <g id="Grupo_261786" data-name="Grupo 261786" clip-path="url(#clip-path)">
          <path id="Trazado_279874" data-name="Trazado 279874" d="M1229.687,290.611H1091.5a11.344,11.344,0,0,1-11.344-11.344V241.262a11.344,11.344,0,0,1,11.344-11.344h138.185a11.344,11.344,0,0,1,11.344,11.344v38.005a11.344,11.344,0,0,1-11.344,11.344" fill="#3b5620"/>
        </g>
      </g>
      <text id="Seguridad_y_salud_" data-name="Seguridad y salud " transform="translate(1102.485 256.423)" fill="#def1f0" font-size="15.47" font-family="Roboto-Bold, Roboto" font-weight="700"><tspan x="0" y="0">Seguridad y salud </tspan></text>
      <text id="en_el_trabajo" data-name="en el trabajo" transform="translate(1121.544 274.423)" fill="#def1f0" font-size="15.47" font-family="Roboto-Bold, Roboto" font-weight="700"><tspan x="0" y="0">en el t</tspan><tspan y="0" letter-spacing="-0.014em">r</tspan><tspan y="0">abajo</tspan></text>
      <g id="Grupo_261789" data-name="Grupo 261789">
        <g id="Grupo_261788" data-name="Grupo 261788" clip-path="url(#clip-path)">
          <line id="Línea_852" data-name="Línea 852" y2="50.109" transform="translate(73.512 290.611)" fill="none" stroke="#12263f" stroke-miterlimit="10" stroke-width="3"/>
          <line id="Línea_853" data-name="Línea 853" x2="0.147" y2="38.408" transform="translate(73.365 401.413)" fill="none" stroke="#12263f" stroke-miterlimit="10" stroke-width="3"/>
          <line id="Línea_854" data-name="Línea 854" y2="46.813" transform="translate(73.365 477.747)" fill="none" stroke="#12263f" stroke-miterlimit="10" stroke-width="3"/>
          <line id="Línea_855" data-name="Línea 855" y2="38.712" transform="translate(73.365 588.534)" fill="none" stroke="#12263f" stroke-miterlimit="10" stroke-width="3"/>
          <line id="Línea_856" data-name="Línea 856" y2="40.08" transform="translate(301.621 660.209)" fill="none" stroke="#12263f" stroke-miterlimit="10" stroke-width="3"/>
          <line id="Línea_857" data-name="Línea 857" y2="97.329" transform="translate(301.621 502.187)" fill="none" stroke="#12263f" stroke-miterlimit="10" stroke-width="3"/>
          <line id="Línea_858" data-name="Línea 858" y2="37.967" transform="translate(301.621 403.527)" fill="none" stroke="#12263f" stroke-miterlimit="10" stroke-width="3"/>
          <line id="Línea_859" data-name="Línea 859" y2="49.109" transform="translate(301.621 291.612)" fill="none" stroke="#12263f" stroke-miterlimit="10" stroke-width="3"/>
          <line id="Línea_860" data-name="Línea 860" y2="50.667" transform="translate(515.839 290.611)" fill="none" stroke="#12263f" stroke-miterlimit="10" stroke-width="3"/>
          <line id="Línea_861" data-name="Línea 861" y2="228.615" transform="translate(515.839 418.866)" fill="none" stroke="#12263f" stroke-miterlimit="10" stroke-width="3"/>
          <line id="Línea_862" data-name="Línea 862" y2="38.413" transform="translate(515.839 708.174)" fill="none" stroke="#12263f" stroke-miterlimit="10" stroke-width="3"/>
          <line id="Línea_863" data-name="Línea 863" y2="38.666" transform="translate(515.839 825.617)" fill="none" stroke="#12263f" stroke-miterlimit="10" stroke-width="3"/>
          <line id="Línea_864" data-name="Línea 864" y2="52.107" transform="translate(779.187 290.611)" fill="none" stroke="#12263f" stroke-miterlimit="10" stroke-width="3"/>
          <line id="Línea_865" data-name="Línea 865" y2="40.151" transform="translate(778.046 403.527)" fill="none" stroke="#12263f" stroke-miterlimit="10" stroke-width="3"/>
          <line id="Línea_866" data-name="Línea 866" y2="40.267" transform="translate(778.046 504.371)" fill="none" stroke="#12263f" stroke-miterlimit="10" stroke-width="3"/>
          <line id="Línea_867" data-name="Línea 867" y2="50.068" transform="translate(963.408 290.611)" fill="none" stroke="#12263f" stroke-miterlimit="10" stroke-width="3"/>
          <line id="Línea_868" data-name="Línea 868" y2="38.975" transform="translate(964.057 401.372)" fill="none" stroke="#12263f" stroke-miterlimit="10" stroke-width="3"/>
          <line id="Línea_869" data-name="Línea 869" y2="50.516" transform="translate(1162.557 290.611)" fill="none" stroke="#12263f" stroke-miterlimit="10" stroke-width="3"/>
          <line id="Línea_870" data-name="Línea 870" y2="37.818" transform="translate(1163.596 420.86)" fill="none" stroke="#12263f" stroke-miterlimit="10" stroke-width="3"/>
          <line id="Línea_871" data-name="Línea 871" y1="78.539" transform="translate(301.621 152.38)" fill="none" stroke="#12263f" stroke-miterlimit="10" stroke-width="3"/>
          <line id="Línea_872" data-name="Línea 872" y1="77.539" transform="translate(515.839 152.379)" fill="none" stroke="#12263f" stroke-miterlimit="10" stroke-width="3"/>
          <line id="Línea_873" data-name="Línea 873" y1="77.539" transform="translate(778.186 152.379)" fill="none" stroke="#12263f" stroke-miterlimit="10" stroke-width="3"/>
          <line id="Línea_874" data-name="Línea 874" y1="77.539" x2="0.65" transform="translate(963.408 152.379)" fill="none" stroke="#12263f" stroke-miterlimit="10" stroke-width="3"/>
          <path id="Trazado_279875" data-name="Trazado 279875" d="M1162.557,229.918l1.04-77.539H74.091v77.539" fill="none" stroke="#12263f" stroke-miterlimit="10" stroke-width="3"/>
          <line id="Línea_875" data-name="Línea 875" y1="47.302" transform="translate(620.813 105.077)" fill="none" stroke="#12263f" stroke-miterlimit="10" stroke-width="3"/>
        </g>
      </g>
    </g>
  </g>
</svg>
